<svg width="24" height="24" viewBox="0 0 24 24" fill="none" xmlns="http://www.w3.org/2000/svg">
<path d="M11 15C13.2091 15 15 13.2091 15 11C15 8.79086 13.2091 7 11 7C8.79086 7 7 8.79086 7 11C7 13.2091 8.79086 15 11 15Z" stroke="#363638" stroke-width="1.5" stroke-miterlimit="10"/>
<path d="M5 19C5.56318 17.7964 6.42178 16.7856 7.48074 16.0797C8.53971 15.3737 9.75774 15 11 15C12.2423 15 13.4603 15.3737 14.5192 16.0796C15.5782 16.7856 16.4368 17.7964 17 19" stroke="#363638" stroke-width="1.5" stroke-linecap="round" stroke-linejoin="round"/>
<path d="M19.9361 11.9219C19.9787 12.2797 20.0001 12.6397 20 13C20 14.78 19.4722 16.5201 18.4832 18.0001C17.4943 19.4802 16.0887 20.6337 14.4442 21.3149C12.7996 21.9961 10.99 22.1743 9.24419 21.8271C7.49836 21.4798 5.89472 20.6226 4.63604 19.364C3.37737 18.1053 2.5202 16.5016 2.17294 14.7558C1.82567 13.01 2.0039 11.2004 2.68509 9.55585C3.36628 7.91131 4.51983 6.50571 5.99987 5.51677C7.47991 4.52784 9.21997 4 11 4C11.2816 4 11.56 4.01275 11.8352 4.03824" stroke="#363638" stroke-width="1.5" stroke-linecap="round" stroke-linejoin="round"/>
<path d="M19.0001 7.5C20.0933 7.5 20.9796 6.60457 20.9796 5.5C20.9796 4.39543 20.0933 3.5 19.0001 3.5C17.9068 3.5 17.0205 4.39543 17.0205 5.5C17.0205 6.60457 17.9068 7.5 19.0001 7.5Z" stroke="#363638" stroke-width="1.5" stroke-linecap="round" stroke-linejoin="round"/>
<path d="M19 3.5V2" stroke="#363638" stroke-width="1.5" stroke-linecap="round" stroke-linejoin="round"/>
<path d="M17.2858 4.5L16 3.75" stroke="#363638" stroke-width="1.5" stroke-linecap="round" stroke-linejoin="round"/>
<path d="M17.2858 6.5L16 7.25" stroke="#363638" stroke-width="1.5" stroke-linecap="round" stroke-linejoin="round"/>
<path d="M19 7.5V9" stroke="#363638" stroke-width="1.5" stroke-linecap="round" stroke-linejoin="round"/>
<path d="M20.7144 6.5L22.0001 7.25" stroke="#363638" stroke-width="1.5" stroke-linecap="round" stroke-linejoin="round"/>
<path d="M20.7144 4.5L22.0001 3.75" stroke="#363638" stroke-width="1.5" stroke-linecap="round" stroke-linejoin="round"/>
</svg>
