<svg width="24" height="24" viewBox="0 0 24 24" fill="none" xmlns="http://www.w3.org/2000/svg">
<path d="M12 2.25V17.7607" stroke="#363638" stroke-width="1.5" stroke-linecap="round" stroke-linejoin="round"/>
<path d="M20.64 10.9299L21.4573 10.2497C22.0144 9.78596 21.7268 8.86134 21.011 8.81489L19.9285 8.74463" stroke="#363638" stroke-width="1.5" stroke-linecap="round" stroke-linejoin="round"/>
<path d="M17.2618 15.8329L16.9511 14.6108C16.9127 14.4611 16.9172 14.3036 16.9643 14.1564C17.0113 14.0092 17.099 13.8783 17.2172 13.7786L18.1577 12.9958" stroke="#363638" stroke-width="1.5" stroke-linecap="round" stroke-linejoin="round"/>
<path d="M16.7053 8.53537L15.4738 8.45545C15.3247 8.44479 15.1816 8.39199 15.0613 8.30318C14.941 8.21438 14.8484 8.09322 14.7943 7.95383L14.3163 6.75001L12.7292 2.75323C12.673 2.60528 12.5732 2.4779 12.443 2.38802C12.3127 2.29814 12.1582 2.25 12 2.25C11.8418 2.25 11.6873 2.29814 11.557 2.38802C11.4268 2.4779 11.327 2.60528 11.2708 2.75323L9.20567 7.95383C9.15157 8.09322 9.05897 8.21437 8.93867 8.30318C8.81838 8.39199 8.67533 8.44479 8.52618 8.45545L2.98894 8.81481C2.27315 8.86127 1.9856 9.78588 2.54272 10.2496L6.78278 13.7787C6.90095 13.8783 6.9886 14.0092 7.03566 14.1564C7.08272 14.3036 7.08727 14.4611 7.0488 14.6108L5.78188 19.5945C5.56667 20.4412 6.46715 21.1246 7.19243 20.6651L11.5865 17.8812C11.71 17.8025 11.8535 17.7607 12 17.7607C12.1465 17.7607 12.29 17.8025 12.4135 17.8812L13.4932 18.5652" stroke="#363638" stroke-width="1.5" stroke-linecap="round" stroke-linejoin="round"/>
<path d="M16.2207 20.2932L17.1418 20.8768C17.7462 21.2597 18.4967 20.6902 18.3173 19.9847L18.0572 18.9617" stroke="#363638" stroke-width="1.5" stroke-linecap="round" stroke-linejoin="round"/>
</svg>
