<svg width="24" height="24" viewBox="0 0 24 24" fill="none" xmlns="http://www.w3.org/2000/svg">
<path d="M9 21H15" stroke="#146B7F" stroke-width="1.5" stroke-linecap="round" stroke-linejoin="round"/>
<path d="M5.39759 9.75006C5.39637 8.86057 5.56786 7.97963 5.90216 7.15802C6.23646 6.33641 6.72696 5.59037 7.3454 4.96292C7.96384 4.33547 8.69797 3.83901 9.50549 3.50216C10.313 3.16531 11.1779 2.99473 12.0504 3.00025C15.6911 3.02784 18.6031 6.11288 18.6031 9.8348V10.5001C18.6031 13.8578 19.2922 15.8062 19.8991 16.8711C19.9645 16.9849 19.9993 17.1143 20 17.2462C20.0007 17.378 19.9672 17.5077 19.9031 17.6222C19.8389 17.7367 19.7462 17.832 19.6344 17.8983C19.5226 17.9646 19.3957 17.9997 19.2663 18.0001H4.7337C4.60433 17.9997 4.47734 17.9646 4.36553 17.8983C4.25373 17.8319 4.16106 17.7367 4.09689 17.6222C4.03271 17.5076 3.9993 17.3779 4.00001 17.246C4.00073 17.1141 4.03555 16.9848 4.10096 16.871C4.70819 15.806 5.39759 13.8576 5.39759 10.5001L5.39759 9.75006Z" stroke="#146B7F" stroke-width="1.5" stroke-linecap="round" stroke-linejoin="round"/>
</svg>
