<svg width="24" height="24" viewBox="0 0 24 24" fill="none" xmlns="http://www.w3.org/2000/svg">
<path d="M9 21H15" stroke="#363638" stroke-width="1.5" stroke-linecap="round" stroke-linejoin="round"/>
<path d="M5.39759 9.74994C5.39637 8.86045 5.56786 7.97951 5.90216 7.1579C6.23646 6.33628 6.72696 5.59025 7.3454 4.9628C7.96384 4.33535 8.69797 3.83889 9.50549 3.50204C10.313 3.16519 11.1779 2.99461 12.0504 3.00013C15.6911 3.02772 18.6031 6.11275 18.6031 9.83468V10.4999C18.6031 13.8577 19.2922 15.8061 19.8991 16.871C19.9645 16.9848 19.9993 17.1142 20 17.246C20.0007 17.3779 19.9672 17.5076 19.9031 17.6221C19.8389 17.7366 19.7462 17.8318 19.6344 17.8982C19.5226 17.9645 19.3957 17.9996 19.2663 17.9999H4.7337C4.60433 17.9996 4.47734 17.9645 4.36553 17.8981C4.25373 17.8318 4.16106 17.7366 4.09689 17.622C4.03271 17.5075 3.9993 17.3778 4.00001 17.2459C4.00073 17.114 4.03555 16.9846 4.10096 16.8709C4.70819 15.8059 5.39759 13.8575 5.39759 10.4999L5.39759 9.74994Z" stroke="#363638" stroke-width="1.5" stroke-linecap="round" stroke-linejoin="round"/>
</svg>
