<svg width="24" height="24" viewBox="0 0 24 24" fill="none" xmlns="http://www.w3.org/2000/svg">
<path d="M15.1111 10H7.88889C6.2934 10 5 11.3929 5 13.1111V13.8889C5 15.6071 6.2934 17 7.88889 17H15.1111C16.7066 17 18 15.6071 18 13.8889V13.1111C18 11.3929 16.7066 10 15.1111 10Z" stroke="#363638" stroke-width="1.5" stroke-linecap="round" stroke-linejoin="round"/>
<path d="M2 6.28571C2 5.67951 2.23097 5.09812 2.64211 4.66947C3.05325 4.24082 3.61087 4 4.19231 4C4.77374 4 5.33137 4.24082 5.7425 4.66947C6.15364 5.09812 6.38462 5.67951 6.38462 6.28571H16.6154C16.6154 5.67951 16.8464 5.09812 17.2575 4.66947C17.6686 4.24082 18.2263 4 18.8077 4C19.3891 4 19.9468 4.24082 20.3579 4.66947C20.769 5.09812 21 5.67951 21 6.28571V13.9048C21 15.5213 20.3841 17.0717 19.2877 18.2147C18.1913 19.3578 16.7043 20 15.1538 20H7.84615C6.29566 20 4.80867 19.3578 3.7123 18.2147C2.61593 17.0717 2 15.5213 2 13.9048V6.28571Z" stroke="#363638" stroke-width="1.5" stroke-linecap="round" stroke-linejoin="round"/>
<path d="M8.25 13C8.25 13.1381 8.13807 13.25 8 13.25C7.86193 13.25 7.75 13.1381 7.75 13C7.75 12.8619 7.86193 12.75 8 12.75C8.13807 12.75 8.25 12.8619 8.25 13Z" fill="#363638" stroke="#363638" stroke-width="1.5"/>
<path d="M15.25 13C15.25 13.1381 15.1381 13.25 15 13.25C14.8619 13.25 14.75 13.1381 14.75 13C14.75 12.8619 14.8619 12.75 15 12.75C15.1381 12.75 15.25 12.8619 15.25 13Z" fill="#363638" stroke="#363638" stroke-width="1.5"/>
</svg>
