<svg width="24" height="24" viewBox="0 0 24 24" fill="none" xmlns="http://www.w3.org/2000/svg">
<path d="M12 16C14.2091 16 16 14.2091 16 12C16 9.79086 14.2091 8 12 8C9.79086 8 8 9.79086 8 12C8 14.2091 9.79086 16 12 16Z" stroke="#146B7F" stroke-width="1.5" stroke-linecap="round" stroke-linejoin="round"/>
<path d="M18 10C18.9704 9.99903 19.9276 10.2697 20.7955 10.7905C21.6635 11.3112 22.4183 12.0678 23 13" stroke="#146B7F" stroke-width="1.5" stroke-linecap="round" stroke-linejoin="round"/>
<path d="M2 13C2.58168 12.0678 3.33648 11.3112 4.20445 10.7905C5.07241 10.2697 6.02961 9.99903 7 10" stroke="#146B7F" stroke-width="1.5" stroke-linecap="round" stroke-linejoin="round"/>
<path d="M7 20C7.5021 18.8006 8.28403 17.7896 9.25654 17.0823C10.2291 16.3751 11.353 16 12.5 16C13.647 16 14.7709 16.375 15.7434 17.0823C16.716 17.7896 17.4979 18.8006 18 20" stroke="#146B7F" stroke-width="1.5" stroke-linecap="round" stroke-linejoin="round"/>
<path d="M6.02635 10C5.45203 9.99989 4.88959 9.83785 4.40471 9.53279C3.91983 9.22774 3.53253 8.79226 3.28802 8.2772C3.04351 7.76215 2.95189 7.18878 3.02386 6.62406C3.09583 6.05933 3.32842 5.52655 3.69447 5.08793C4.06052 4.64931 4.54491 4.32296 5.0911 4.14698C5.63728 3.97099 6.22271 3.95265 6.77901 4.09408C7.33532 4.23552 7.83955 4.53089 8.23283 4.94572C8.6261 5.36054 8.89218 5.8777 9 6.43679" stroke="#146B7F" stroke-width="1.5" stroke-linecap="round" stroke-linejoin="round"/>
<path d="M15 6.43735C15.1078 5.87817 15.3738 5.36092 15.767 4.946C16.1603 4.53108 16.6645 4.23563 17.2208 4.09414C17.7772 3.95265 18.3626 3.97097 18.9088 4.14695C19.455 4.32294 19.9395 4.64933 20.3055 5.088C20.6716 5.52668 20.9042 6.05953 20.9761 6.62433C21.0481 7.18914 20.9565 7.76258 20.7119 8.27769C20.4674 8.7928 20.08 9.22832 19.5951 9.53338C19.1102 9.83844 18.5477 10.0005 17.9734 10.0005" stroke="#146B7F" stroke-width="1.5" stroke-linecap="round" stroke-linejoin="round"/>
</svg>
