<svg width="24" height="24" viewBox="0 0 24 24" fill="none" xmlns="http://www.w3.org/2000/svg">
<path d="M8 14H15" stroke="#363638" stroke-width="1.5" stroke-linecap="round" stroke-linejoin="round"/>
<path d="M8 11H15" stroke="#363638" stroke-width="1.5" stroke-linecap="round" stroke-linejoin="round"/>
<path d="M14.9002 4H19.15C19.3754 4 19.5916 4.07787 19.751 4.21649C19.9104 4.3551 20 4.5431 20 4.73913V20.2609C20 20.4569 19.9104 20.6449 19.751 20.7835C19.5916 20.9221 19.3754 21 19.15 21H3.85C3.62457 21 3.40837 20.9221 3.24896 20.7835C3.08955 20.6449 3 20.4569 3 20.2609V4.73913C3 4.5431 3.08955 4.3551 3.24896 4.21649C3.40837 4.07787 3.62457 4 3.85 4H8.09977" stroke="#363638" stroke-width="1.5" stroke-linecap="round" stroke-linejoin="round"/>
<path d="M8 6V5.33333C8 4.44928 8.36875 3.60143 9.02513 2.97631C9.6815 2.35119 10.5717 2 11.5 2C12.4283 2 13.3185 2.35119 13.9749 2.97631C14.6313 3.60143 15 4.44928 15 5.33333V6H8Z" stroke="#363638" stroke-width="1.5" stroke-linecap="round" stroke-linejoin="round"/>
</svg>
