<svg width="24" height="24" viewBox="0 0 24 24" fill="none" xmlns="http://www.w3.org/2000/svg">
<path d="M11.5 16C13.9853 16 16 13.9853 16 11.5C16 9.01472 13.9853 7 11.5 7C9.01472 7 7 9.01472 7 11.5C7 13.9853 9.01472 16 11.5 16Z" stroke="#B3B5BA" stroke-width="1.5" stroke-linecap="round" stroke-linejoin="round"/>
<path d="M16.7664 5.54733C17.0088 5.76195 17.2379 5.99109 17.4525 6.23349L20.0377 6.60264C20.4569 7.33265 20.7801 8.11372 20.9993 8.92649L19.433 11.0148C19.433 11.0148 19.4527 11.662 19.4331 11.9851L21 14.0741C20.7802 14.8867 20.4565 15.6676 20.0368 16.3973L17.4525 16.7664C17.4525 16.7664 17.0089 17.2379 16.7665 17.4525L16.3974 20.0377C15.6674 20.4569 14.8863 20.7801 14.0735 20.9993L11.9853 19.4331C11.6621 19.4527 11.3381 19.4527 11.0149 19.4331L8.92592 21C8.11329 20.7802 7.33243 20.4565 6.60271 20.0368L6.23364 17.4527C5.99123 17.2381 5.76209 17.0089 5.54746 16.7665L2.96233 16.3974C2.54311 15.6674 2.21989 14.8863 2.00068 14.0735L3.567 11.9852C3.567 11.9852 3.5473 11.338 3.56694 11.0149L2 8.92592C2.21976 8.11329 2.54351 7.33243 2.96322 6.60271L5.54733 6.23364C5.76195 5.99123 5.99109 5.76209 6.23349 5.54746L6.60264 2.96233C7.33265 2.54311 8.11372 2.21989 8.92649 2.00068L11.0147 3.56694C11.3379 3.5473 11.6619 3.5473 11.9851 3.56694L14.0741 2C14.8867 2.21976 15.6676 2.54351 16.3973 2.96322L16.7664 5.54733Z" stroke="#B3B5BA" stroke-width="1.5" stroke-linecap="round" stroke-linejoin="round"/>
</svg>
