<svg width="24" height="24" viewBox="0 0 24 24" fill="none" xmlns="http://www.w3.org/2000/svg">
<path d="M8 21H15" stroke="#363638" stroke-width="1.5" stroke-linecap="round" stroke-linejoin="round"/>
<path d="M6.87847 14.001C5.98667 13.3256 5.26435 12.463 4.76581 11.4779C4.26727 10.4929 4.00548 9.41106 4.00011 8.31379C3.97765 4.37177 7.255 1.09487 11.3192 1.00211C12.894 0.965337 14.4409 1.41035 15.7402 2.27402C17.0396 3.1377 18.0256 4.37618 18.5582 5.8138C19.0909 7.25141 19.1432 8.81517 18.7078 10.2832C18.2724 11.7513 17.3713 13.0492 16.1324 13.9927C15.8596 14.1977 15.6383 14.4602 15.4854 14.7604C15.3326 15.0605 15.2521 15.3904 15.25 15.7251L15.25 16.2727C15.25 16.4656 15.171 16.6506 15.0303 16.787C14.8897 16.9234 14.6989 17 14.5 17H8.49999C8.30108 17 8.11031 16.9234 7.96966 16.787C7.82901 16.6506 7.74999 16.4656 7.74999 16.2727L7.74998 15.7245C7.74912 15.3919 7.67021 15.0639 7.51921 14.7653C7.36822 14.4667 7.1491 14.2053 6.87847 14.001V14.001Z" stroke="#363638" stroke-width="1.5" stroke-linecap="round" stroke-linejoin="round"/>
<path d="M12 5C12.9984 5.16991 13.9194 5.646 14.6359 6.36251C15.3524 7.07903 15.8291 8.00062 16 9" stroke="#363638" stroke-width="1.5" stroke-linecap="round" stroke-linejoin="round"/>
</svg>
