<svg width="42" height="42" viewBox="0 0 42 42" fill="none" xmlns="http://www.w3.org/2000/svg">
<circle cx="21" cy="21" r="21" fill="#8A6AEB"/>
<path fill-rule="evenodd" clip-rule="evenodd" d="M31.9999 14.875L25 8L18 14.875H21.4068V30H28.5916V14.875H31.9999Z" fill="url(#paint0_linear_4437_72000)"/>
<path fill-rule="evenodd" clip-rule="evenodd" d="M23.826 21.7879C23.6339 21.571 23.4289 21.366 23.212 21.1739L22.8818 18.8618C22.2289 18.4863 21.5302 18.1966 20.8031 18L18.934 19.402C18.6449 19.3844 18.3549 19.3844 18.0658 19.402L16.1974 18.0006C15.4702 18.1967 14.7713 18.4859 14.1182 18.861L13.7879 21.174C13.571 21.3661 13.366 21.5711 13.1739 21.788L10.8618 22.1182C10.4863 22.7711 10.1966 23.4698 10 24.1969L11.402 26.066C11.3844 26.3551 11.4021 26.9341 11.4021 26.9341L10.0006 28.8026C10.1967 29.5298 10.4859 30.2287 10.861 30.8818L13.174 31.2121C13.3661 31.429 13.5711 31.634 13.788 31.8261L14.1182 34.1382C14.7711 34.5137 15.4698 34.8034 16.1969 35L18.066 33.598C18.3551 33.6156 18.6451 33.6156 18.9342 33.598L20.8026 34.9994C21.5298 34.8033 22.2287 34.5141 22.8818 34.139L23.2121 31.826C23.429 31.6339 23.826 31.2121 23.826 31.2121L26.1382 30.8818C26.5137 30.2289 26.8034 29.5302 27 28.8031L25.598 26.934C25.6156 26.6449 25.598 26.0659 25.598 26.0659L26.9994 24.1974C26.8033 23.4702 26.5141 22.7713 26.139 22.1182L23.826 21.7879ZM22.5631 26.5C22.5631 28.7442 20.7438 30.5635 18.4995 30.5635C16.2553 30.5635 14.436 28.7442 14.436 26.5C14.436 24.2558 16.2553 22.4365 18.4995 22.4365C20.7438 22.4365 22.5631 24.2558 22.5631 26.5Z" fill="url(#paint1_linear_4437_72000)"/>
<defs>
<linearGradient id="paint0_linear_4437_72000" x1="16.5" y1="-1" x2="54.8834" y2="39.7488" gradientUnits="userSpaceOnUse">
<stop offset="0.19754" stop-color="white"/>
<stop offset="0.506835" stop-color="white" stop-opacity="0.5"/>
<stop offset="0.681021" stop-color="white" stop-opacity="0"/>
</linearGradient>
<linearGradient id="paint1_linear_4437_72000" x1="3.68333e-07" y1="18" x2="52.9446" y2="55.154" gradientUnits="userSpaceOnUse">
<stop offset="0.19754" stop-color="white"/>
<stop offset="0.501813" stop-color="white" stop-opacity="0.5"/>
<stop offset="0.633308" stop-color="white" stop-opacity="0"/>
</linearGradient>
</defs>
</svg>
