<svg width="42" height="42" viewBox="0 0 42 42" fill="none" xmlns="http://www.w3.org/2000/svg">
<circle cx="21" cy="21" r="21" fill="#FF67DE"/>
<path d="M15.3114 29.3978L12 32.0406V21.4693C12 21.2941 12.0705 21.126 12.196 21.0021C12.3215 20.8782 12.4918 20.8086 12.6692 20.8086H23.3772C23.5547 20.8086 23.725 20.8782 23.8505 21.0021C23.976 21.126 24.0465 21.2941 24.0465 21.4693V28.7371C24.0465 28.9123 23.976 29.0803 23.8505 29.2043C23.725 29.3282 23.5547 29.3978 23.3772 29.3978H15.3114Z" fill="url(#paint0_linear_4753_34011)"/>
<path d="M26.6886 32.3568L30 34.9996V24.4283C30 24.2531 29.9295 24.085 29.804 23.9611C29.6785 23.8372 29.5082 23.7676 29.3308 23.7676H18.6228C18.4453 23.7676 18.275 23.8372 18.1495 23.9611C18.024 24.085 17.9535 24.2531 17.9535 24.4283V31.696C17.9535 31.8713 18.024 32.0393 18.1495 32.1632C18.275 32.2871 18.4453 32.3568 18.6228 32.3568H26.6886Z" fill="url(#paint1_linear_4753_34011)"/>
<path fill-rule="evenodd" clip-rule="evenodd" d="M24.6603 9.6373C24.5258 9.48629 24.3822 9.34354 24.2303 9.20984L23.999 7.60005C23.5417 7.33858 23.0523 7.1369 22.5431 7L21.234 7.97614C21.0315 7.9639 20.8284 7.9639 20.6259 7.97614L19.3172 7.00042C18.8079 7.13698 18.3184 7.33833 17.8609 7.59949L17.6296 9.20993C17.4777 9.34363 17.3341 9.48638 17.1996 9.63739L15.5802 9.86731C15.3172 10.3219 15.1143 10.8083 14.9766 11.3146L15.9585 12.6159C15.9462 12.8172 15.9586 13.2204 15.9586 13.2204L14.977 14.5213C15.1144 15.0276 15.3169 15.5142 15.5796 15.969L17.1997 16.1989C17.3342 16.35 17.4778 16.4927 17.6297 16.6264L17.861 18.2362C18.3183 18.4977 18.8076 18.6993 19.3169 18.8362L20.626 17.8601C20.8285 17.8723 21.0316 17.8723 21.2341 17.8601L22.5427 18.8358C23.0521 18.6993 23.5416 18.4979 23.999 18.2368L24.2304 16.6263C24.3823 16.4926 24.6603 16.1989 24.6603 16.1989L26.2798 15.9689C26.5428 15.5144 26.7457 15.0279 26.8834 14.5217L25.9014 13.2203C25.9137 13.019 25.9014 12.6159 25.9014 12.6159L26.883 11.3149C26.7456 10.8086 26.543 10.322 26.2803 9.86726L24.6603 9.6373ZM23.7759 12.9171C23.7759 14.4796 22.5017 15.7463 20.9298 15.7463C19.358 15.7463 18.0837 14.4796 18.0837 12.9171C18.0837 11.3546 19.358 10.0879 20.9298 10.0879C22.5017 10.0879 23.7759 11.3546 23.7759 12.9171Z" fill="url(#paint2_linear_4753_34011)"/>
<defs>
<linearGradient id="paint0_linear_4753_34011" x1="6.54271" y1="24.2608" x2="25.818" y2="42.9279" gradientUnits="userSpaceOnUse">
<stop offset="0.171851" stop-color="white"/>
<stop offset="0.421707" stop-color="white" stop-opacity="0.528125"/>
<stop offset="0.767288" stop-color="white" stop-opacity="0"/>
</linearGradient>
<linearGradient id="paint1_linear_4753_34011" x1="44.2476" y1="27.713" x2="22.9397" y2="53.7969" gradientUnits="userSpaceOnUse">
<stop offset="0.21193" stop-color="white"/>
<stop offset="0.507157" stop-color="white" stop-opacity="0.528125"/>
<stop offset="0.767288" stop-color="white" stop-opacity="0"/>
</linearGradient>
<linearGradient id="paint2_linear_4753_34011" x1="13.3427" y1="10.0119" x2="25.0458" y2="32.642" gradientUnits="userSpaceOnUse">
<stop offset="0.21193" stop-color="white"/>
<stop offset="0.507157" stop-color="white" stop-opacity="0.528125"/>
<stop offset="0.767288" stop-color="white" stop-opacity="0"/>
</linearGradient>
</defs>
</svg>
