<svg width="42" height="42" viewBox="0 0 42 42" fill="none" xmlns="http://www.w3.org/2000/svg">
<circle cx="21" cy="21" r="21" fill="#FF67DE"/>
<path d="M24.0237 13.6471L21 16V6.58824C21 6.43223 21.0644 6.28261 21.179 6.17229C21.2936 6.06197 21.449 6 21.6111 6H31.3889C31.551 6 31.7064 6.06197 31.821 6.17229C31.9356 6.28261 32 6.43223 32 6.58824V13.0588C32 13.2148 31.9356 13.3645 31.821 13.4748C31.7064 13.5851 31.551 13.6471 31.3889 13.6471H24.0237Z" fill="url(#paint0_linear_4753_34143)"/>
<path d="M10 33.9997L13.2198 25.2143C13.2836 25.0403 13.3936 24.8912 13.5358 24.7861C13.678 24.6811 13.8457 24.625 14.0174 24.625H19.1884C19.358 24.625 19.5238 24.5702 19.6649 24.4675L21.809 22.9074C21.9501 22.8048 22.1158 22.75 22.2854 22.75H31.141C31.2771 22.75 31.4113 22.7853 31.5325 22.853C31.6536 22.9207 31.7583 23.0188 31.8379 23.1393C31.9174 23.2598 31.9697 23.3993 31.9902 23.5461C32.0107 23.6929 31.999 23.843 31.9559 23.9839L28.897 33.9997H10Z" fill="url(#paint1_linear_4753_34143)"/>
<path d="M10 34V16.9474C10 16.6961 10.091 16.4551 10.253 16.2775C10.4149 16.0998 10.6346 16 10.8636 16H16.6212C16.8081 16 16.9899 16.0665 17.1394 16.1895L20.1333 18.6526C20.2828 18.7756 20.4647 18.8421 20.6515 18.8421H28.1364C28.3654 18.8421 28.5851 18.9419 28.747 19.1196C28.909 19.2972 29 19.5382 29 19.7895V22.6316" fill="url(#paint2_linear_4753_34143)"/>
<defs>
<linearGradient id="paint0_linear_4753_34143" x1="24" y1="1" x2="-18.2258" y2="43.8762" gradientUnits="userSpaceOnUse">
<stop stop-color="white"/>
<stop offset="0.202943" stop-color="white" stop-opacity="0.5"/>
<stop offset="0.54193" stop-color="white" stop-opacity="0"/>
</linearGradient>
<linearGradient id="paint1_linear_4753_34143" x1="16" y1="34" x2="52.5264" y2="61.1749" gradientUnits="userSpaceOnUse">
<stop stop-color="white"/>
<stop offset="0.196098" stop-color="white" stop-opacity="0.5"/>
<stop offset="0.250602" stop-color="white" stop-opacity="0"/>
</linearGradient>
<linearGradient id="paint2_linear_4753_34143" x1="15.4286" y1="18" x2="68.7213" y2="84.3487" gradientUnits="userSpaceOnUse">
<stop stop-color="white"/>
<stop offset="0.0880254" stop-color="white" stop-opacity="0.5"/>
<stop offset="0.54193" stop-color="white" stop-opacity="0"/>
</linearGradient>
</defs>
</svg>
