<svg width="42" height="42" viewBox="0 0 42 42" fill="none" xmlns="http://www.w3.org/2000/svg">
<circle cx="21" cy="21" r="21" fill="#8A6AEB"/>
<path fill-rule="evenodd" clip-rule="evenodd" d="M30.373 17.1889L31.0412 17.8475C31.4087 18.2096 31.8693 18.7585 32.0646 19.0671C32.4686 19.7054 32.7573 19.8503 33.8761 19.9757C35.0362 20.1059 34.9997 20.0243 34.9997 22.4869C34.9997 24.9841 35.0518 24.879 33.7197 25.0686C32.4765 25.2456 32.4533 25.2581 31.9702 26.0064C31.4531 26.8075 30.4807 27.6755 29.3693 28.3278C28.1598 29.0379 28.1873 28.9759 28.3495 30.6242C28.5215 32.3718 28.5307 32.3551 27.1811 32.7276C25.5952 33.1652 25.6474 33.1822 24.8531 31.9719C24.0612 30.7654 24.0483 30.7607 22.3752 31.1025C20.3122 31.5241 18.1215 31.481 16.2362 30.9818C15.2812 30.7289 15.0425 30.8555 14.2497 32.0348C13.4938 33.1592 13.5605 33.1368 12.0862 32.7621C10.5861 32.3808 10.6117 32.4217 10.7917 30.6924C11.0341 28.3622 11.0303 28.3367 10.3126 27.5275C9.03005 26.0812 8.23993 24.4024 8.00212 22.6184C7.85684 21.528 7.88539 21.1326 8.25646 19.1018C8.30048 18.8612 8.18626 18.6031 7.84547 18.1729C6.98344 17.0843 6.75395 15.6496 7.28047 14.6407L7.46766 14.282L7.69543 14.9703C7.95876 15.7662 8.65978 16.5818 9.08029 16.5818C9.26734 16.5818 9.73081 16.2134 10.3866 15.5436C10.9458 14.9726 11.7687 14.258 12.2155 13.9557L13.0278 13.4061C12.9111 14.875 13.6067 15.8331 14.3043 16.8415C14.7778 17.6037 14.765 17.8475 15.0889 20.1875C15.6001 23.8803 17.3478 23.8803 19.0983 23.8803C21.3111 23.8803 22.4616 23.8803 22.9667 20.1875C23.2422 18.1729 23.9967 16.8415 24.1599 16.5818C24.9989 15.2469 25.2174 14.282 25.2174 13.0409C25.2174 12.9224 25.491 13.0378 26.0435 13.3895L26.6569 13.7799L26.3997 14.5141C26.0882 15.4042 26.0701 16.0907 26.3522 16.3257C26.6795 16.5984 26.9896 16.3078 27.0856 15.6386C27.3148 14.0382 28.5877 12.7456 29.9433 12.7365L30.373 12.7335V17.1889ZM29.3874 21.0936C28.6314 21.0936 28.2383 20.0516 28.7866 19.5012C29.2999 18.9859 30.373 19.4347 30.373 20.1647C30.373 20.5482 29.7943 21.0936 29.3874 21.0936Z" fill="url(#paint0_linear_4753_34262)"/>
<path d="M20.8848 8.31173C22.8025 9.00402 24.1599 10.9417 24.1599 12.9873C24.1599 14.164 23.9554 14.713 22.9667 16.1889L22.9106 16.2727C22.101 17.4812 21.9042 17.775 21.5128 18.6055C21.3043 18.6707 21.2595 18.6055 19.0983 18.6055H17.3478H16.6164C16.5201 18.2589 16.0627 17.414 15.6001 16.728C14.1868 14.633 14.049 14.3016 14.0481 12.9957C14.046 9.52182 17.5625 7.11253 20.8848 8.31173Z" fill="url(#paint1_linear_4753_34262)"/>
<path d="M21.5128 20.1951C21.5128 21.0936 20.6957 22.3293 19.1365 22.3293C16.757 22.3293 16.2844 20.032 16.757 20.1647H19.1365C20.9536 20.1647 21.5128 20.1951 21.5128 20.1951Z" fill="url(#paint2_linear_4753_34262)"/>
<defs>
<linearGradient id="paint0_linear_4753_34262" x1="-8.61538" y1="-5.75" x2="37.1887" y2="67.9114" gradientUnits="userSpaceOnUse">
<stop offset="0.28445" stop-color="white"/>
<stop offset="0.539438" stop-color="white" stop-opacity="0.5"/>
<stop offset="0.751108" stop-color="white" stop-opacity="0"/>
</linearGradient>
<linearGradient id="paint1_linear_4753_34262" x1="-8.61538" y1="-5.75" x2="37.1887" y2="67.9114" gradientUnits="userSpaceOnUse">
<stop offset="0.28445" stop-color="white"/>
<stop offset="0.539438" stop-color="white" stop-opacity="0.5"/>
<stop offset="0.751108" stop-color="white" stop-opacity="0"/>
</linearGradient>
<linearGradient id="paint2_linear_4753_34262" x1="-8.61538" y1="-5.75" x2="37.1887" y2="67.9114" gradientUnits="userSpaceOnUse">
<stop offset="0.28445" stop-color="white"/>
<stop offset="0.539438" stop-color="white" stop-opacity="0.5"/>
<stop offset="0.751108" stop-color="white" stop-opacity="0"/>
</linearGradient>
</defs>
</svg>
