<svg width="42" height="42" viewBox="0 0 42 42" fill="none" xmlns="http://www.w3.org/2000/svg">
<circle cx="21" cy="21" r="21" fill="#408FE2"/>
<path d="M20.7959 16.0391C20.7959 16.0391 23.4812 15.7504 24.8165 16.6245C27.4714 18.3626 27.0458 20.2535 28.864 22.2514C30.5396 24.0926 34.1222 25.2286 34.1222 25.2286C34.1222 25.2286 32.1541 30.9845 28.8145 31.3362C25.3869 31.6971 22.7588 35.0004 22.7588 35.0004L20.7959 16.0391Z" fill="url(#paint0_linear_4753_34071)"/>
<path fill-rule="evenodd" clip-rule="evenodd" d="M19.8459 13.9709C21.7198 13.9709 23.2389 12.4104 23.2389 10.4855C23.2389 8.5605 21.7198 7 19.8459 7C17.972 7 16.4528 8.5605 16.4528 10.4855C16.4528 12.4104 17.972 13.9709 19.8459 13.9709ZM22.9999 21.777L27.2105 25.1412C27.4832 25.4213 27.8531 25.5787 28.2387 25.5787C28.6244 25.5787 28.9943 25.4213 29.267 25.1412C29.5397 24.861 29.6929 24.4811 29.6929 24.0849C29.6929 23.6887 29.5397 23.3088 29.267 23.0286L24.4685 16.6911C24.3453 16.5643 24.2095 16.4518 24.0634 16.3555L20.4238 19.3052C20.2496 19.4464 20.0027 19.4543 19.8198 19.3246L15.6312 16.3543C15.4845 16.4509 15.3481 16.5638 15.2244 16.6911L10.4259 23.0286C10.2909 23.1674 10.1838 23.332 10.1107 23.5133C10.0376 23.6945 10 23.8887 10 24.0849C10 24.2811 10.0376 24.4753 10.1107 24.6565C10.1838 24.8378 10.2909 25.0025 10.4259 25.1412C10.5609 25.2799 10.7212 25.3899 10.8977 25.465C11.0741 25.54 11.2632 25.5787 11.4542 25.5787C11.6451 25.5787 11.8342 25.54 12.0106 25.465C12.1871 25.3899 12.3474 25.2799 12.4824 25.1412L16.693 21.777L13.3322 32.6808C13.1692 33.0399 13.1518 33.4507 13.2837 33.823C13.4156 34.1953 13.6861 34.4985 14.0356 34.6659C14.3851 34.8334 14.7851 34.8513 15.1475 34.7158C15.5099 34.5803 15.8051 34.3025 15.9681 33.9434L19.8465 27.6732L23.7248 33.9434C23.8883 34.3016 24.1835 34.5786 24.5455 34.7135C24.9076 34.8485 25.307 34.8304 25.656 34.6631C26.0051 34.4959 26.2753 34.1933 26.4074 33.8217C26.5395 33.45 26.5227 33.0397 26.3607 32.6808L22.9999 21.777ZM16.8112 15.9652L20.0889 18.2895L22.951 15.9699C22.8858 15.9645 22.8204 15.9618 22.7548 15.9619H16.9381C16.8958 15.9619 16.8535 15.9629 16.8112 15.9652Z" fill="url(#paint1_linear_4753_34071)"/>
<defs>
<linearGradient id="paint0_linear_4753_34071" x1="55.3842" y1="25.0073" x2="10.6833" y2="30.3293" gradientUnits="userSpaceOnUse">
<stop offset="0.51825" stop-color="white"/>
<stop offset="0.721116" stop-color="white" stop-opacity="0.5"/>
<stop offset="0.967766" stop-color="white" stop-opacity="0"/>
</linearGradient>
<linearGradient id="paint1_linear_4753_34071" x1="22.3081" y1="10.9723" x2="-1.95409" y2="58.2261" gradientUnits="userSpaceOnUse">
<stop offset="0.154257" stop-color="white"/>
<stop offset="0.330152" stop-color="white" stop-opacity="0.5"/>
<stop offset="0.54817" stop-color="white" stop-opacity="0"/>
</linearGradient>
</defs>
</svg>
