<svg width="42" height="42" viewBox="0 0 42 42" fill="none" xmlns="http://www.w3.org/2000/svg">
<circle cx="21" cy="21" r="21" fill="#C94AD7"/>
<path fill-rule="evenodd" clip-rule="evenodd" d="M16.4117 13.507C16.4117 14.8915 15.3318 16.0139 13.9996 16.0139C12.6674 16.0139 11.5874 14.8915 11.5874 13.507C11.5874 12.1224 12.6674 11 13.9996 11C15.3318 11 16.4117 12.1224 16.4117 13.507ZM19.2352 24.0485L16.2418 21.6289L18.6311 29.4715C18.7463 29.7297 18.7582 30.0248 18.6643 30.2921C18.5704 30.5594 18.3783 30.777 18.1301 30.8973C17.882 31.0176 17.5981 31.0306 17.3407 30.9336C17.0833 30.8365 16.8734 30.6373 16.7572 30.3796L14 25.8697L11.2428 30.3796C11.1269 30.6379 10.9171 30.8377 10.6594 30.9352C10.4018 31.0326 10.1175 31.0197 9.86897 30.8993C9.62048 30.7789 9.4282 30.5608 9.33443 30.293C9.24065 30.0253 9.25307 29.7298 9.36894 29.4715L11.7582 21.6289L8.76478 24.0485C8.66879 24.1483 8.55482 24.2274 8.4294 24.2814C8.30397 24.3354 8.16954 24.3632 8.03378 24.3632C7.89803 24.3632 7.7636 24.3354 7.63817 24.2814C7.51275 24.2274 7.39878 24.1483 7.30279 24.0485C7.20679 23.9488 7.13064 23.8303 7.07869 23.7C7.02674 23.5696 7 23.4299 7 23.2888C7 23.1477 7.02674 23.008 7.07869 22.8777C7.13064 22.7473 7.20679 22.6289 7.30279 22.5291L10.7141 17.9708C10.8739 17.8042 11.0638 17.6722 11.2729 17.5822C11.482 17.4922 11.7061 17.446 11.9324 17.4463H16.0676C16.2939 17.446 16.518 17.4922 16.7271 17.5822C16.9362 17.6722 17.1261 17.8042 17.2859 17.9708L20.6972 22.5291C20.8911 22.7306 21 23.0039 21 23.2888C21 23.5738 20.8911 23.847 20.6972 24.0485C20.5033 24.25 20.2404 24.3632 19.9662 24.3632C19.692 24.3632 19.4291 24.25 19.2352 24.0485Z" fill="url(#paint0_linear_4753_34244)"/>
<path fill-rule="evenodd" clip-rule="evenodd" d="M30.4117 13.507C30.4117 14.8915 29.3318 16.0139 27.9996 16.0139C26.6674 16.0139 25.5874 14.8915 25.5874 13.507C25.5874 12.1224 26.6674 11 27.9996 11C29.3318 11 30.4117 12.1224 30.4117 13.507ZM33.2352 24.0485L30.2418 21.6289L32.6311 29.4715C32.7463 29.7297 32.7582 30.0248 32.6643 30.2921C32.5704 30.5594 32.3783 30.777 32.1301 30.8973C31.882 31.0176 31.5981 31.0306 31.3407 30.9336C31.0833 30.8365 30.8734 30.6373 30.7572 30.3796L28 25.8697L25.2428 30.3796C25.1269 30.6379 24.9171 30.8377 24.6594 30.9352C24.4018 31.0326 24.1175 31.0197 23.869 30.8993C23.6205 30.7789 23.4282 30.5608 23.3344 30.293C23.2407 30.0253 23.2531 29.7298 23.3689 29.4715L25.7582 21.6289L22.7648 24.0485C22.6688 24.1483 22.5548 24.2274 22.4294 24.2814C22.304 24.3354 22.1695 24.3632 22.0338 24.3632C21.898 24.3632 21.7636 24.3354 21.6382 24.2814C21.5127 24.2274 21.3988 24.1483 21.3028 24.0485C21.2068 23.9488 21.1306 23.8303 21.0787 23.7C21.0267 23.5696 21 23.4299 21 23.2888C21 23.1477 21.0267 23.008 21.0787 22.8777C21.1306 22.7473 21.2068 22.6289 21.3028 22.5291L24.7141 17.9708C24.8739 17.8042 25.0638 17.6722 25.2729 17.5822C25.482 17.4922 25.7061 17.446 25.9324 17.4463H30.0676C30.2939 17.446 30.518 17.4922 30.7271 17.5822C30.9362 17.6722 31.1261 17.8042 31.2859 17.9708L34.6972 22.5291C34.8911 22.7306 35 23.0039 35 23.2888C35 23.5738 34.8911 23.847 34.6972 24.0485C34.5033 24.25 34.2404 24.3632 33.9662 24.3632C33.692 24.3632 33.4291 24.25 33.2352 24.0485Z" fill="url(#paint1_linear_4753_34244)"/>
<defs>
<linearGradient id="paint0_linear_4753_34244" x1="1" y1="15.5" x2="47.0047" y2="20.8901" gradientUnits="userSpaceOnUse">
<stop offset="0.19754" stop-color="white"/>
<stop offset="0.414155" stop-color="white" stop-opacity="0.5"/>
<stop offset="0.681021" stop-color="white" stop-opacity="0"/>
</linearGradient>
<linearGradient id="paint1_linear_4753_34244" x1="13.5" y1="0.5" x2="70.5116" y2="32.7964" gradientUnits="userSpaceOnUse">
<stop offset="0.25477" stop-color="white"/>
<stop offset="0.466596" stop-color="white" stop-opacity="0.5"/>
<stop offset="0.681021" stop-color="white" stop-opacity="0"/>
</linearGradient>
</defs>
</svg>
