<svg width="42" height="42" viewBox="0 0 42 42" fill="none" xmlns="http://www.w3.org/2000/svg">
<circle cx="21" cy="21" r="21" fill="#408FE2"/>
<path fill-rule="evenodd" clip-rule="evenodd" d="M18.5989 12.314C18.5989 13.7522 17.4975 14.918 16.1388 14.918C14.7801 14.918 13.6787 13.7522 13.6787 12.314C13.6787 10.8758 14.7801 9.70996 16.1388 9.70996C17.4975 9.70996 18.5989 10.8758 18.5989 12.314ZM21.4785 23.2632L18.4256 20.7498L20.8623 28.8962C20.9798 29.1643 20.992 29.4709 20.8962 29.7485C20.8004 30.0262 20.6045 30.2523 20.3514 30.3772C20.0983 30.5021 19.8087 30.5156 19.5462 30.4148C19.2837 30.314 19.0697 30.1071 18.9512 29.8395L16.1392 25.1549L13.3271 29.8395C13.209 30.1077 12.995 30.3153 12.7322 30.4165C12.4694 30.5178 12.1794 30.5044 11.926 30.3793C11.6726 30.2542 11.4765 30.0277 11.3808 29.7495C11.2852 29.4714 11.2979 29.1644 11.416 28.8962L13.8527 20.7498L10.7999 23.2632C10.702 23.3668 10.5857 23.449 10.4578 23.5051C10.3299 23.5612 10.1928 23.5901 10.0543 23.5901C9.91588 23.5901 9.77878 23.5612 9.65086 23.5051C9.52294 23.449 9.40671 23.3668 9.30881 23.2632C9.2109 23.1596 9.13324 23.0365 9.08026 22.9011C9.02727 22.7657 9 22.6206 9 22.4741C9 22.3275 9.02727 22.1824 9.08026 22.047C9.13324 21.9116 9.2109 21.7885 9.30881 21.6849L12.7879 16.9501C12.9509 16.7771 13.1446 16.6399 13.3579 16.5464C13.5711 16.4529 13.7997 16.405 14.0305 16.4053H18.2478C18.4786 16.405 18.7072 16.4529 18.9205 16.5464C19.1337 16.6399 19.3274 16.7771 19.4904 16.9501L22.9695 21.6849C23.1672 21.8942 23.2783 22.1781 23.2783 22.4741C23.2783 22.77 23.1672 23.0539 22.9695 23.2632C22.7718 23.4725 22.5036 23.5901 22.224 23.5901C21.9444 23.5901 21.6762 23.4725 21.4785 23.2632Z" fill="url(#paint0_linear_4753_34117)"/>
<path fill-rule="evenodd" clip-rule="evenodd" d="M22.8441 13.102L23.9666 12.1468C24.0169 12.1041 24.0804 12.0806 24.1461 12.0806H28.7998C28.8738 12.0806 28.9447 12.0509 28.997 11.998C29.0493 11.945 29.0787 11.8732 29.0787 11.7984V7.28226C29.0787 7.2074 29.0493 7.13561 28.997 7.08267C28.9447 7.02974 28.8738 7 28.7998 7H22.6646C22.5907 7 22.5197 7.02974 22.4674 7.08267C22.4151 7.13561 22.3857 7.2074 22.3857 7.28226V12.8859C22.3857 12.9397 22.4009 12.9923 22.4294 13.0376C22.458 13.083 22.4987 13.1191 22.5469 13.1418C22.595 13.1645 22.6486 13.1728 22.7012 13.1657C22.7539 13.1587 22.8034 13.1366 22.8441 13.102ZM26.1506 9.54057C26.1506 9.7744 25.9633 9.96396 25.7323 9.96396C25.5012 9.96396 25.314 9.7744 25.314 9.54057C25.314 9.30674 25.5012 9.11719 25.7323 9.11719C25.9633 9.11719 26.1506 9.30674 26.1506 9.54057ZM24.059 9.96396C24.29 9.96396 24.4773 9.7744 24.4773 9.54057C24.4773 9.30674 24.29 9.11719 24.059 9.11719C23.8279 9.11719 23.6406 9.30674 23.6406 9.54057C23.6406 9.7744 23.8279 9.96396 24.059 9.96396ZM27.8237 9.54057C27.8237 9.7744 27.6364 9.96396 27.4054 9.96396C27.1744 9.96396 26.9871 9.7744 26.9871 9.54057C26.9871 9.30674 27.1744 9.11719 27.4054 9.11719C27.6364 9.11719 27.8237 9.30674 27.8237 9.54057Z" fill="url(#paint1_linear_4753_34117)"/>
<path d="M28.5862 32.1774C30.2803 32.1774 31.6537 30.7874 31.6537 29.0726C31.6537 27.3579 30.2803 25.9678 28.5862 25.9678C26.892 25.9678 25.5186 27.3579 25.5186 29.0726C25.5186 30.7874 26.892 32.1774 28.5862 32.1774Z" fill="url(#paint2_linear_4753_34117)"/>
<path d="M24.1709 34.972C24.5739 34.1342 25.2016 33.4279 25.9822 32.9338C26.7628 32.4397 27.6649 32.1777 28.5856 32.1777C29.5063 32.1777 30.4084 32.4397 31.189 32.9338C31.9696 33.4279 32.5973 34.1342 33.0003 34.972" fill="url(#paint3_linear_4753_34117)"/>
<path d="M22.3381 32.2057C24.0323 32.2057 25.4057 30.8157 25.4057 29.1009C25.4057 27.3862 24.0323 25.9961 22.3381 25.9961C20.6439 25.9961 19.2705 27.3862 19.2705 29.1009C19.2705 30.8157 20.6439 32.2057 22.3381 32.2057Z" fill="url(#paint4_linear_4753_34117)"/>
<path d="M17.9238 35.0003C18.3268 34.1625 18.9545 33.4562 19.7351 32.9621C20.5157 32.4681 21.4178 32.2061 22.3385 32.2061C23.2592 32.2061 24.1613 32.468 24.942 32.9621C25.7226 33.4562 26.3502 34.1625 26.7532 35.0003" fill="url(#paint5_linear_4753_34117)"/>
<defs>
<linearGradient id="paint0_linear_4753_34117" x1="7.5" y1="9.00001" x2="54.8329" y2="33.3797" gradientUnits="userSpaceOnUse">
<stop offset="0.19754" stop-color="white"/>
<stop offset="0.414155" stop-color="white" stop-opacity="0.5"/>
<stop offset="0.681021" stop-color="white" stop-opacity="0"/>
</linearGradient>
<linearGradient id="paint1_linear_4753_34117" x1="20.9998" y1="5" x2="40.7225" y2="13.741" gradientUnits="userSpaceOnUse">
<stop offset="0.19754" stop-color="white"/>
<stop offset="0.414155" stop-color="white" stop-opacity="0.5"/>
<stop offset="0.681021" stop-color="white" stop-opacity="0"/>
</linearGradient>
<linearGradient id="paint2_linear_4753_34117" x1="36.1703" y1="25.99" x2="23.7854" y2="46.0152" gradientUnits="userSpaceOnUse">
<stop offset="0.180339" stop-color="white"/>
<stop offset="0.325692" stop-color="white" stop-opacity="0.5"/>
<stop offset="0.408716" stop-color="white" stop-opacity="0"/>
</linearGradient>
<linearGradient id="paint3_linear_4753_34117" x1="39.5002" y1="32.1877" x2="37.178" y2="44.1965" gradientUnits="userSpaceOnUse">
<stop offset="0.180339" stop-color="white"/>
<stop offset="0.325692" stop-color="white" stop-opacity="0.5"/>
<stop offset="0.408716" stop-color="white" stop-opacity="0"/>
</linearGradient>
<linearGradient id="paint4_linear_4753_34117" x1="20.3657" y1="25.3092" x2="29.9334" y2="46.9876" gradientUnits="userSpaceOnUse">
<stop offset="0.146598" stop-color="white"/>
<stop offset="0.264107" stop-color="white" stop-opacity="0.5"/>
<stop offset="0.453304" stop-color="white" stop-opacity="0"/>
</linearGradient>
<linearGradient id="paint5_linear_4753_34117" x1="19.5" y1="31.8969" x2="21.0783" y2="43.3343" gradientUnits="userSpaceOnUse">
<stop offset="0.146598" stop-color="white"/>
<stop offset="0.264107" stop-color="white" stop-opacity="0.5"/>
<stop offset="0.453304" stop-color="white" stop-opacity="0"/>
</linearGradient>
</defs>
</svg>
