<svg width="42" height="42" viewBox="0 0 42 42" fill="none" xmlns="http://www.w3.org/2000/svg">
<circle cx="21" cy="21" r="21" fill="#408FE2"/>
<path fill-rule="evenodd" clip-rule="evenodd" d="M24.4453 10.5097C24.4453 12.4481 22.9025 14.0195 20.9994 14.0195C19.0962 14.0195 17.5534 12.4481 17.5534 10.5097C17.5534 8.57136 19.0962 7 20.9994 7C22.9025 7 24.4453 8.57136 24.4453 10.5097ZM28.4789 25.2676L24.2026 21.88L27.6158 32.8597C27.7804 33.2211 27.7975 33.6343 27.6633 34.0085C27.5291 34.3828 27.2547 34.6875 26.9002 34.8559C26.5457 35.0242 26.1401 35.0425 25.7724 34.9066C25.4047 34.7707 25.1049 34.4918 24.9389 34.1311L21 27.8172L17.0611 34.1311C16.8956 34.4927 16.5958 34.7724 16.2278 34.9089C15.8597 35.0453 15.4535 35.0273 15.0985 34.8587C14.7435 34.6901 14.4689 34.3848 14.3349 34.0099C14.2009 33.635 14.2187 33.2213 14.3842 32.8597L17.7974 21.88L13.5211 25.2676C13.384 25.4072 13.2212 25.518 13.042 25.5936C12.8628 25.6692 12.6708 25.7081 12.4768 25.7081C12.2829 25.7081 12.0909 25.6692 11.9117 25.5936C11.7325 25.518 11.5697 25.4072 11.4326 25.2676C11.2954 25.1279 11.1866 24.9621 11.1124 24.7796C11.0382 24.5971 11 24.4015 11 24.204C11 24.0064 11.0382 23.8108 11.1124 23.6283C11.1866 23.4458 11.2954 23.28 11.4326 23.1404L16.3059 16.7587C16.5342 16.5255 16.8055 16.3407 17.1042 16.2146C17.4028 16.0886 17.723 16.024 18.0463 16.0244H23.9537C24.277 16.024 24.5972 16.0886 24.8958 16.2146C25.1945 16.3407 25.4658 16.5255 25.6941 16.7587L30.5674 23.1404C30.8444 23.4224 31 23.805 31 24.204C31 24.6029 30.8444 24.9855 30.5674 25.2676C30.2905 25.5497 29.9148 25.7081 29.5232 25.7081C29.1315 25.7081 28.7558 25.5497 28.4789 25.2676Z" fill="url(#paint0_linear_4753_34176)"/>
<defs>
<linearGradient id="paint0_linear_4753_34176" x1="2.42857" y1="13.2999" x2="68.1128" y2="21.1529" gradientUnits="userSpaceOnUse">
<stop offset="0.19754" stop-color="white"/>
<stop offset="0.414155" stop-color="white" stop-opacity="0.5"/>
<stop offset="0.681021" stop-color="white" stop-opacity="0"/>
</linearGradient>
</defs>
</svg>
