<svg width="42" height="42" viewBox="0 0 42 42" fill="none" xmlns="http://www.w3.org/2000/svg">
<circle cx="21" cy="21" r="21" fill="#FF67DE"/>
<path fill-rule="evenodd" clip-rule="evenodd" d="M16.7485 23.7585C17.0232 23.7302 17.2689 23.9299 17.2972 24.2046C17.4025 25.2247 17.8502 26.1592 18.5446 26.8326C19.2379 27.505 20.1277 27.8701 21.0423 27.8701C21.9569 27.8701 22.8467 27.505 23.5401 26.8326C24.2345 26.1592 24.6822 25.2247 24.7874 24.2046C24.8158 23.9299 25.0614 23.7302 25.3361 23.7585C25.6108 23.7869 25.8105 24.0325 25.7822 24.3072C25.6539 25.5501 25.1071 26.7059 24.2362 27.5505C23.5492 28.2167 22.6979 28.6523 21.7879 28.8071C21.7906 28.833 21.792 28.8592 21.792 28.8857V31.5252C22.1851 31.5986 22.5468 31.7293 22.843 31.9088C23.3204 32.1982 23.5886 32.5906 23.5886 32.9998H21.0431H18.4976C18.4976 32.5906 18.7658 32.1982 19.2432 31.9088C19.5388 31.7296 19.8997 31.5991 20.292 31.5256V28.8857C20.292 28.8592 20.2934 28.8329 20.2961 28.807C19.3863 28.6521 18.5353 28.2166 17.8484 27.5505C16.9775 26.7059 16.4307 25.5501 16.3025 24.3072C16.2741 24.0325 16.4738 23.7869 16.7485 23.7585Z" fill="url(#paint0_linear_4753_34039)"/>
<path fill-rule="evenodd" clip-rule="evenodd" d="M18.498 17.5445C18.498 16.1387 19.6377 14.999 21.0435 14.999C22.4494 14.999 23.589 16.1387 23.589 17.5445V18.085H22.4061C22.1222 18.085 21.8921 18.3151 21.8921 18.599C21.8921 18.8828 22.1222 19.113 22.4061 19.113H23.589V20.1426H22.4061C22.1222 20.1426 21.8921 20.3727 21.8921 20.6566C21.8921 20.9405 22.1222 21.1706 22.4061 21.1706H23.589V22.1992H22.4061C22.1222 22.1992 21.8921 22.4293 21.8921 22.7132C21.8921 22.9971 22.1222 23.2272 22.4061 23.2272H23.589V23.7676C23.589 25.1735 22.4494 26.3131 21.0435 26.3131C19.6377 26.3131 18.498 25.1735 18.498 23.7676V23.2272H19.681C19.9649 23.2272 20.195 22.9971 20.195 22.7132C20.195 22.4293 19.9649 22.1992 19.681 22.1992H18.498V21.1706H19.681C19.9649 21.1706 20.195 20.9405 20.195 20.6566C20.195 20.3727 19.9649 20.1426 19.681 20.1426H18.498V19.113H19.681C19.9649 19.113 20.195 18.8828 20.195 18.599C20.195 18.3151 19.9649 18.085 19.681 18.085H18.498V17.5445ZM23.589 23.2272H23.5891V22.1992H23.589V23.2272ZM23.589 21.1706H23.5891V20.1426H23.589V21.1706ZM23.589 19.113H23.5891V18.085H23.589V19.113Z" fill="url(#paint1_linear_4753_34039)"/>
<path fill-rule="evenodd" clip-rule="evenodd" d="M20.9993 9C19.4079 9 17.8328 9.3324 16.3643 9.97738C14.8958 10.6223 13.5635 11.5668 12.4427 12.7553C11.3218 13.9437 10.4342 15.353 9.82905 16.902C9.29493 18.2693 8.98986 19.7225 8.92563 21.1966C8.15562 21.6649 7.61312 22.4701 7.50284 23.4075C7.21566 23.8767 7 24.4982 7 25.369C7 26.1462 7.22901 26.7248 7.48214 27.1737V27.9996C7.48214 29.6565 8.82528 30.9996 10.4821 30.9996H13.2065C14.311 30.9996 15.2065 30.1042 15.2065 28.9996V22.7618C15.2065 21.6572 14.311 20.7618 13.2065 20.7618H10.4821C10.3009 20.7618 10.1234 20.7778 9.95096 20.8087C10.0462 19.5919 10.3188 18.3966 10.7605 17.2659C11.3199 15.8339 12.1392 14.5345 13.1702 13.4414C14.2011 12.3483 15.4234 11.4828 16.7664 10.893C18.1093 10.3031 19.5476 10 20.9993 10C22.451 10 23.8892 10.3031 25.2322 10.893C26.5752 11.4828 27.7975 12.3483 28.8284 13.4414C29.8594 14.5345 30.6786 15.8339 31.2381 17.2659C31.6797 18.3965 31.9524 19.5918 32.0476 20.8085C31.8755 20.7778 31.6984 20.7618 31.5175 20.7618H29.7932C28.1363 20.7618 26.7932 22.1049 26.7932 23.7618V27.9996C26.7932 29.6565 28.1363 30.9996 29.7932 30.9996H31.5175C33.1743 30.9996 34.5175 29.6565 34.5175 27.9996V27.1743C34.7707 26.7252 34.9999 26.1465 34.9999 25.369C34.9999 24.4978 34.7841 23.8762 34.4967 23.4069C34.3862 22.4693 33.8433 21.664 33.0729 21.196C33.0086 19.7221 32.7036 18.2691 32.1695 16.902C31.5644 15.353 30.6767 13.9437 29.5559 12.7553C28.435 11.5668 27.1027 10.6223 25.6343 9.97738C24.1658 9.3324 22.5907 9 20.9993 9Z" fill="url(#paint2_linear_4753_34039)"/>
<path fill-rule="evenodd" clip-rule="evenodd" d="M20.9993 9C19.4079 9 17.8328 9.3324 16.3643 9.97738C14.8958 10.6223 13.5635 11.5668 12.4427 12.7553C11.3218 13.9437 10.4342 15.353 9.82905 16.902C9.29493 18.2693 8.98986 19.7225 8.92563 21.1966C8.15562 21.6649 7.61312 22.4701 7.50284 23.4075C7.21566 23.8767 7 24.4982 7 25.369C7 26.1462 7.22901 26.7248 7.48214 27.1737V27.9996C7.48214 29.6565 8.82528 30.9996 10.4821 30.9996H13.2065C14.311 30.9996 15.2065 30.1042 15.2065 28.9996V22.7618C15.2065 21.6572 14.311 20.7618 13.2065 20.7618H10.4821C10.3009 20.7618 10.1234 20.7778 9.95096 20.8087C10.0462 19.5919 10.3188 18.3966 10.7605 17.2659C11.3199 15.8339 12.1392 14.5345 13.1702 13.4414C14.2011 12.3483 15.4234 11.4828 16.7664 10.893C18.1093 10.3031 19.5476 10 20.9993 10C22.451 10 23.8892 10.3031 25.2322 10.893C26.5752 11.4828 27.7975 12.3483 28.8284 13.4414C29.8594 14.5345 30.6786 15.8339 31.2381 17.2659C31.6797 18.3965 31.9524 19.5918 32.0476 20.8085C31.8755 20.7778 31.6984 20.7618 31.5175 20.7618H29.7932C28.1363 20.7618 26.7932 22.1049 26.7932 23.7618V27.9996C26.7932 29.6565 28.1363 30.9996 29.7932 30.9996H31.5175C33.1743 30.9996 34.5175 29.6565 34.5175 27.9996V27.1743C34.7707 26.7252 34.9999 26.1465 34.9999 25.369C34.9999 24.4978 34.7841 23.8762 34.4967 23.4069C34.3862 22.4693 33.8433 21.664 33.0729 21.196C33.0086 19.7221 32.7036 18.2691 32.1695 16.902C31.5644 15.353 30.6767 13.9437 29.5559 12.7553C28.435 11.5668 27.1027 10.6223 25.6343 9.97738C24.1658 9.3324 22.5907 9 20.9993 9Z" fill="url(#paint3_linear_4753_34039)"/>
<defs>
<linearGradient id="paint0_linear_4753_34039" x1="20.0002" y1="27.3511" x2="30.6109" y2="44.8691" gradientUnits="userSpaceOnUse">
<stop offset="0.00807922" stop-color="white"/>
<stop offset="0.26705" stop-color="white" stop-opacity="0.5"/>
<stop offset="0.573535" stop-color="white" stop-opacity="0"/>
</linearGradient>
<linearGradient id="paint1_linear_4753_34039" x1="20.4843" y1="19.3994" x2="34.4058" y2="29.4788" gradientUnits="userSpaceOnUse">
<stop offset="0.00807922" stop-color="white"/>
<stop offset="0.26705" stop-color="white" stop-opacity="0.5"/>
<stop offset="0.573535" stop-color="white" stop-opacity="0"/>
</linearGradient>
<linearGradient id="paint2_linear_4753_34039" x1="8" y1="8" x2="48.5" y2="44" gradientUnits="userSpaceOnUse">
<stop offset="0.205494" stop-color="white"/>
<stop offset="0.405321" stop-color="white" stop-opacity="0.5"/>
<stop offset="0.54193" stop-color="white" stop-opacity="0"/>
</linearGradient>
<linearGradient id="paint3_linear_4753_34039" x1="41" y1="25.5" x2="21" y2="30.9996" gradientUnits="userSpaceOnUse">
<stop offset="0.157452" stop-color="white"/>
<stop offset="0.629226" stop-color="white" stop-opacity="0.528125"/>
<stop offset="0.767288" stop-color="white" stop-opacity="0"/>
</linearGradient>
</defs>
</svg>
