<svg width="42" height="42" viewBox="0 0 42 42" fill="none" xmlns="http://www.w3.org/2000/svg">
<circle cx="21" cy="21" r="21" fill="#C94AD7"/>
<path fill-rule="evenodd" clip-rule="evenodd" d="M32.9998 11.3077C32.9998 13.6867 31.0461 15.6153 28.6361 15.6153C27.3678 15.6153 26.2258 15.0812 25.4285 14.2283C25.4093 14.2433 25.3891 14.2576 25.368 14.2709L17.4356 19.305C17.42 19.3148 17.4043 19.324 17.3884 19.3326C17.6067 19.8455 17.7273 20.4088 17.7273 21C17.7273 21.5915 17.6066 22.1551 17.3881 22.6681C17.4041 22.6767 17.42 22.686 17.4356 22.6959L25.368 27.7299C25.389 27.7431 25.409 27.7573 25.4282 27.7722C26.2255 26.9191 27.3676 26.3848 28.6361 26.3848C31.0461 26.3848 32.9998 28.3134 32.9998 30.6924C32.9998 33.0715 31.0461 35.0001 28.6361 35.0001C26.2261 35.0001 24.2725 33.0715 24.2725 30.6924C24.2725 30.1009 24.3932 29.5372 24.6118 29.0241C24.5957 29.0155 24.5799 29.0063 24.5643 28.9964L16.6318 23.9624C16.6109 23.9491 16.5909 23.935 16.5718 23.9201C15.7745 24.7733 14.6323 25.3077 13.3637 25.3077C10.9537 25.3077 9 23.3791 9 21C9 18.621 10.9537 16.6924 13.3637 16.6924C14.6325 16.6924 15.7748 17.227 16.5722 18.0804C16.5912 18.0656 16.6111 18.0516 16.6318 18.0385L24.5643 13.0044C24.58 12.9945 24.5959 12.9852 24.612 12.9765C24.3933 12.4633 24.2725 11.8994 24.2725 11.3077C24.2725 8.92861 26.2261 7 28.6361 7C31.0461 7 32.9998 8.92861 32.9998 11.3077Z" fill="url(#paint0_linear_4753_34203)"/>
<defs>
<linearGradient id="paint0_linear_4753_34203" x1="16.9999" y1="11" x2="68.6118" y2="45.6373" gradientUnits="userSpaceOnUse">
<stop offset="0.0491323" stop-color="white"/>
<stop offset="0.39339" stop-color="white" stop-opacity="0.5"/>
<stop offset="0.573535" stop-color="white" stop-opacity="0"/>
</linearGradient>
</defs>
</svg>
