<svg width="42" height="42" viewBox="0 0 42 42" fill="none" xmlns="http://www.w3.org/2000/svg">
<circle cx="21" cy="21" r="21" fill="#408FE2"/>
<path fill-rule="evenodd" clip-rule="evenodd" d="M8 12C8 11.4477 8.44772 11 9 11H33C33.5523 11 34 11.4477 34 12V15.5H33.5H8.5H8V12ZM33.5 16.5H34V30C34 30.5523 33.5523 31 33 31H9C8.44772 31 8 30.5523 8 30V16.5H8.5H33.5ZM11.2501 14.75C11.6091 14.75 11.9001 14.4702 11.9001 14.125C11.9001 13.7798 11.6091 13.5 11.2501 13.5C10.8911 13.5 10.6001 13.7798 10.6001 14.125C10.6001 14.4702 10.8911 14.75 11.2501 14.75ZM14.5002 14.125C14.5002 14.4702 14.2092 14.75 13.8502 14.75C13.4912 14.75 13.2002 14.4702 13.2002 14.125C13.2002 13.7798 13.4912 13.5 13.8502 13.5C14.2092 13.5 14.5002 13.7798 14.5002 14.125ZM16.4498 14.75C16.8088 14.75 17.0998 14.4702 17.0998 14.125C17.0998 13.7798 16.8088 13.5 16.4498 13.5C16.0908 13.5 15.7998 13.7798 15.7998 14.125C15.7998 14.4702 16.0908 14.75 16.4498 14.75ZM10.445 19.2747C10.7075 19.189 10.9898 19.3324 11.0754 19.5949L11.8758 22.048L12.8901 19.5612C12.9693 19.3669 13.1613 19.2428 13.371 19.2503C13.5807 19.2579 13.7633 19.3955 13.8284 19.5949L14.5766 21.888L15.3248 19.5949C15.4104 19.3324 15.6927 19.189 15.9552 19.2747C16.2177 19.3603 16.3611 19.6426 16.2754 19.9051L15.0519 23.6551C14.9848 23.8608 14.793 24 14.5766 24C14.3602 24 14.1683 23.8608 14.1012 23.6551L13.3008 21.202L12.2866 23.6888C12.2074 23.8831 12.0153 24.0072 11.8057 23.9997C11.596 23.9921 11.4134 23.8545 11.3483 23.6551L10.1248 19.9051C10.0391 19.6426 10.1825 19.3603 10.445 19.2747ZM18.8752 19.5949C18.7896 19.3324 18.5073 19.189 18.2448 19.2747C17.9823 19.3603 17.8389 19.6426 17.9246 19.9051L19.1481 23.6551C19.2132 23.8545 19.3958 23.9921 19.6055 23.9997C19.8151 24.0072 20.0072 23.8831 20.0864 23.6888L21.1006 21.202L21.901 23.6551C21.9682 23.8608 22.16 24 22.3764 24C22.5928 24 22.7846 23.8608 22.8517 23.6551L24.0752 19.9051C24.1609 19.6426 24.0175 19.3603 23.755 19.2747C23.4925 19.189 23.2102 19.3324 23.1246 19.5949L22.3764 21.888L21.6282 19.5949C21.5631 19.3955 21.3805 19.2579 21.1708 19.2503C20.9612 19.2428 20.7691 19.3669 20.6899 19.5612L19.6756 22.048L18.8752 19.5949ZM26.0451 19.2747C26.3076 19.189 26.5899 19.3324 26.6755 19.5949L27.4759 22.048L28.4902 19.5612C28.5694 19.3669 28.7614 19.2428 28.9711 19.2503C29.1807 19.2579 29.3634 19.3955 29.4285 19.5949L30.1767 21.888L30.9249 19.5949C31.0105 19.3324 31.2928 19.189 31.5553 19.2747C31.8178 19.3603 31.9612 19.6426 31.8755 19.9051L30.652 23.6551C30.5849 23.8608 30.3931 24 30.1767 24C29.9603 24 29.7684 23.8608 29.7013 23.6551L28.9009 21.202L27.8867 23.6888C27.8075 23.8831 27.6154 24.0072 27.4058 23.9997C27.1961 23.9921 27.0135 23.8545 26.9484 23.6551L25.7249 19.9051C25.6392 19.6426 25.7826 19.3603 26.0451 19.2747ZM16.4874 23.9175C16.3325 23.7771 16.1067 23.7426 15.9195 23.8309C15.7323 23.9191 15.6224 24.1119 15.6431 24.3156L16.1497 29.3144C16.1693 29.5079 16.3031 29.6744 16.4916 29.7399C16.6801 29.8054 16.8884 29.7578 17.0239 29.6182L18.2347 28.3707L20.002 28.214C20.1997 28.1965 20.3664 28.0673 20.428 27.8839C20.4895 27.7004 20.4345 27.4968 20.2874 27.3634L16.4874 23.9175ZM17.6218 27.5523L17.0464 28.1451L16.7802 25.5185L18.7769 27.3292L17.9371 27.4036C17.8164 27.4143 17.7045 27.4671 17.6218 27.5523Z" fill="url(#paint0_linear_4699_9680)"/>
<defs>
<linearGradient id="paint0_linear_4699_9680" x1="-6.5" y1="-2.62446e-06" x2="53.4582" y2="59.2072" gradientUnits="userSpaceOnUse">
<stop offset="0.230385" stop-color="white"/>
<stop offset="0.539438" stop-color="white" stop-opacity="0.5"/>
<stop offset="0.751108" stop-color="white" stop-opacity="0"/>
</linearGradient>
</defs>
</svg>
