<svg width="42" height="42" viewBox="0 0 42 42" fill="none" xmlns="http://www.w3.org/2000/svg">
<circle cx="21" cy="21" r="21" fill="#FF67DE"/>
<path fill-rule="evenodd" clip-rule="evenodd" d="M30.1085 8.45396C31.5018 10.1373 31.2365 12.607 29.5159 13.9702C27.7953 15.3334 25.271 15.0738 23.8778 13.3904C22.4845 11.7071 22.7498 9.23735 24.4704 7.87418C26.1909 6.51101 28.7152 6.77059 30.1085 8.45396ZM15.9822 24.7847C15.6313 24.4967 15.5552 23.9971 15.8048 23.6193L22.3853 13.6578C23.3225 14.964 24.5927 16.0068 26.0703 16.683L17.1861 24.7532C16.8491 25.0593 16.3331 25.0728 15.9822 24.7847ZM15.7852 25.3106C15.8105 25.3306 15.8326 25.3531 15.8516 25.3773L16.3809 25.7966C16.3156 25.8755 16.2354 25.9412 16.1448 25.9901C16.0543 26.0389 15.9551 26.07 15.853 26.0815C15.796 26.0879 15.7386 26.0881 15.682 26.0822C15.6204 26.17 15.5554 26.2677 15.484 26.3751C15.1018 26.9493 14.5353 27.8005 13.3201 28.91C12.9187 29.2765 12.7736 29.749 12.815 30.2968C12.8573 30.8569 13.0961 31.4785 13.4478 32.0739C13.7976 32.6661 14.2438 33.2061 14.6682 33.5999C14.8804 33.7968 15.0806 33.951 15.2539 34.0563C15.4355 34.1666 15.5542 34.2027 15.6097 34.2072C15.867 34.2284 16.0804 34.1702 16.3058 34.0631C16.4224 34.0077 16.5391 33.9407 16.67 33.8632L16.7345 33.8249C16.8445 33.7594 16.9651 33.6876 17.0901 33.6205C17.3973 33.4555 17.7595 33.3021 18.2153 33.2561C18.6707 33.21 19.1894 33.274 19.8111 33.4983C20.0203 33.5737 20.1266 33.8012 20.0486 34.0064C19.9707 34.2115 19.7379 34.3167 19.5288 34.2413C18.9987 34.05 18.6045 34.0122 18.2947 34.0435C17.9854 34.0747 17.7302 34.1778 17.4764 34.3142C17.3686 34.372 17.2661 34.433 17.1564 34.4982L17.0861 34.54C16.9532 34.6187 16.809 34.7023 16.656 34.775C16.3421 34.9242 15.9813 35.0325 15.5385 34.996C15.2962 34.9761 15.0488 34.8651 14.8256 34.7295C14.5942 34.589 14.351 34.3985 14.1108 34.1757C13.6305 33.73 13.1363 33.1304 12.7477 32.4726C12.361 31.818 12.0633 31.0793 12.0089 30.3587C11.9535 29.6258 12.1513 28.8973 12.7703 28.3321C13.9062 27.295 14.3705 26.5951 14.7452 26.03L14.7452 26.03C14.8476 25.8757 14.9433 25.7314 15.0441 25.5931C15.022 25.5332 15.0076 25.4706 15.0013 25.4067C14.9916 25.3066 15.002 25.2052 15.032 25.1084C15.062 25.0116 15.1111 24.9212 15.1764 24.8423L15.7047 25.2609C15.7329 25.274 15.7599 25.2906 15.7852 25.3106Z" fill="url(#paint0_linear_4753_34158)"/>
<defs>
<linearGradient id="paint0_linear_4753_34158" x1="4.99909" y1="12.3117" x2="42.4074" y2="56.7188" gradientUnits="userSpaceOnUse">
<stop offset="0.21193" stop-color="white"/>
<stop offset="0.507157" stop-color="white" stop-opacity="0.528125"/>
<stop offset="0.767288" stop-color="white" stop-opacity="0"/>
</linearGradient>
</defs>
</svg>
