<svg width="42" height="42" viewBox="0 0 42 42" fill="none" xmlns="http://www.w3.org/2000/svg">
<circle cx="21" cy="21" r="21" fill="#C94AD7"/>
<path d="M21 9.625C18.7502 9.625 16.551 10.2921 14.6804 11.542C12.8098 12.7919 11.3518 14.5685 10.4909 16.647C9.62993 18.7255 9.40467 21.0126 9.84357 23.2192C10.2825 25.4257 11.3658 27.4525 12.9567 29.0433C14.5475 30.6342 16.5743 31.7175 18.7809 32.1564C20.9874 32.5953 23.2745 32.3701 25.353 31.5091C27.4315 30.6482 29.2081 29.1902 30.458 27.3196C31.7079 25.449 32.375 23.2498 32.375 21C32.3715 17.9842 31.172 15.093 29.0395 12.9605C26.907 10.828 24.0158 9.62849 21 9.625ZM24.9375 17.5C25.1971 17.5 25.4509 17.577 25.6667 17.7212C25.8825 17.8654 26.0508 18.0704 26.1501 18.3102C26.2494 18.5501 26.2754 18.814 26.2248 19.0686C26.1741 19.3232 26.0491 19.557 25.8656 19.7406C25.682 19.9241 25.4482 20.0491 25.1936 20.0998C24.939 20.1504 24.6751 20.1244 24.4352 20.0251C24.1954 19.9258 23.9904 19.7575 23.8462 19.5417C23.702 19.3258 23.625 19.0721 23.625 18.8125C23.625 18.4644 23.7633 18.1306 24.0094 17.8844C24.2556 17.6383 24.5894 17.5 24.9375 17.5ZM17.0625 17.5C17.3221 17.5 17.5759 17.577 17.7917 17.7212C18.0075 17.8654 18.1758 18.0704 18.2751 18.3102C18.3744 18.5501 18.4004 18.814 18.3498 19.0686C18.2991 19.3232 18.1741 19.557 17.9906 19.7406C17.807 19.9241 17.5732 20.0491 17.3186 20.0998C17.064 20.1504 16.8001 20.1244 16.5602 20.0251C16.3204 19.9258 16.1154 19.7575 15.9712 19.5417C15.827 19.3258 15.75 19.0721 15.75 18.8125C15.75 18.4644 15.8883 18.1306 16.1344 17.8844C16.3806 17.6383 16.7144 17.5 17.0625 17.5ZM26.3052 24.0628C25.7674 24.9939 24.994 25.767 24.0628 26.3045C23.1315 26.842 22.0753 27.125 21 27.125C19.9248 27.125 18.8685 26.842 17.9373 26.3045C17.006 25.767 16.2326 24.9939 15.6948 24.0629C15.6373 23.9634 15.5999 23.8536 15.5848 23.7397C15.5697 23.6257 15.5772 23.51 15.6069 23.399C15.6365 23.2879 15.6878 23.1839 15.7576 23.0926C15.8275 23.0014 15.9147 22.9249 16.0141 22.8673C16.1136 22.8098 16.2234 22.7724 16.3374 22.7573C16.4513 22.7423 16.567 22.7498 16.6781 22.7794C16.7891 22.8091 16.8932 22.8603 16.9844 22.9302C17.0756 23.0001 17.1522 23.0872 17.2097 23.1867C17.5938 23.852 18.1464 24.4045 18.8117 24.7887C19.4771 25.1728 20.2318 25.375 21.0001 25.375C21.7683 25.375 22.5231 25.1728 23.1884 24.7886C23.8538 24.4045 24.4063 23.852 24.7904 23.1866C24.848 23.0872 24.9245 23 25.0157 22.9301C25.1069 22.8603 25.211 22.809 25.322 22.7794C25.433 22.7497 25.5488 22.7423 25.6627 22.7573C25.7766 22.7724 25.8864 22.8098 25.9859 22.8673C26.0854 22.9249 26.1725 23.0014 26.2424 23.0926C26.3123 23.1838 26.3635 23.2879 26.3932 23.3989C26.4228 23.51 26.4303 23.6257 26.4152 23.7396C26.4001 23.8535 26.3628 23.9634 26.3052 24.0628Z" fill="url(#paint0_linear_4753_34028)"/>
<defs>
<linearGradient id="paint0_linear_4753_34028" x1="-3.0625" y1="-2.8875" x2="53.4605" y2="54.563" gradientUnits="userSpaceOnUse">
<stop offset="0.305298" stop-color="white"/>
<stop offset="0.500669" stop-color="white" stop-opacity="0.5"/>
<stop offset="0.751108" stop-color="white" stop-opacity="0"/>
</linearGradient>
</defs>
</svg>
