<svg width="42" height="42" viewBox="0 0 42 42" fill="none" xmlns="http://www.w3.org/2000/svg">
<circle cx="21" cy="21" r="21" fill="#408FE2"/>
<path fill-rule="evenodd" clip-rule="evenodd" d="M11.0999 27.3209C11.1163 28.4085 11.1331 29.5179 11.8076 30.1924C12.4821 30.8669 13.5915 30.8837 14.6791 30.9001C15.4466 30.9117 16.2033 30.9231 16.7888 31.1654C17.4082 31.4217 17.9765 31.9667 18.5441 32.511C19.3211 33.2562 20.0967 34 21 34C21.9032 34 22.6789 33.2562 23.4559 32.511C24.0235 31.9667 24.5918 31.4217 25.2111 31.1654C25.7967 30.9231 26.5534 30.9117 27.3209 30.9001C28.4085 30.8837 29.5179 30.8669 30.1924 30.1924C30.8669 29.5179 30.8837 28.4085 30.9001 27.3209C30.9117 26.5534 30.9231 25.7967 31.1654 25.2112C31.4217 24.5918 31.9667 24.0235 32.511 23.4559C33.2562 22.6789 34 21.9033 34 21C34 20.0968 33.2562 19.3211 32.511 18.5441C31.9667 17.9765 31.4217 17.4082 31.1654 16.7889C30.9231 16.2033 30.9117 15.4466 30.9001 14.6791C30.8837 13.5915 30.8669 12.4821 30.1924 11.8076C29.5179 11.1331 28.4085 11.1163 27.3209 11.0999C26.5534 11.0883 25.7967 11.0769 25.2112 10.8346C24.5918 10.5783 24.0235 10.0333 23.4559 9.48898C22.6789 8.74384 21.9033 8 21 8C20.0968 8 19.3211 8.74383 18.5441 9.48897C17.9765 10.0333 17.4082 10.5783 16.7889 10.8346C16.2033 11.0769 15.4466 11.0883 14.6791 11.0999C13.5915 11.1163 12.4821 11.1331 11.8076 11.8076C11.1331 12.4821 11.1163 13.5915 11.0999 14.6791C11.0883 15.4466 11.0769 16.2033 10.8346 16.7888C10.5783 17.4082 10.0333 17.9765 9.48898 18.5441C8.74384 19.3211 8 20.0967 8 21C8 21.9032 8.74383 22.6789 9.48897 23.4559C10.0333 24.0235 10.5783 24.5918 10.8346 25.2111C11.0769 25.7967 11.0883 26.5534 11.0999 27.3209ZM27.0179 18.5425C27.3175 18.2565 27.3285 17.7818 27.0425 17.4821C26.7565 17.1825 26.2818 17.1715 25.9821 17.4575L19.1666 23.9632L16.0179 20.9575C15.7182 20.6715 15.2435 20.6825 14.9575 20.9821C14.6715 21.2818 14.6825 21.7565 14.9821 22.0425L18.6488 25.5425C18.9386 25.8192 19.3947 25.8192 19.6845 25.5425L27.0179 18.5425Z" fill="url(#paint0_linear_4699_16231)"/>
<defs>
<linearGradient id="paint0_linear_4699_16231" x1="-6.5" y1="-6.3" x2="61.1926" y2="60.2791" gradientUnits="userSpaceOnUse">
<stop offset="0.292016" stop-color="white"/>
<stop offset="0.539438" stop-color="white" stop-opacity="0.5"/>
<stop offset="0.751108" stop-color="white" stop-opacity="0"/>
</linearGradient>
</defs>
</svg>
