<svg width="24" height="24" viewBox="0 0 24 24" fill="none" xmlns="http://www.w3.org/2000/svg">
<path fill-rule="evenodd" clip-rule="evenodd" d="M6.18994 16.8387C5.06882 16.0084 4.16076 14.9481 3.53403 13.7372C2.90729 12.5263 2.57818 11.1965 2.57143 9.84775C2.54319 5.00211 6.66329 0.974034 11.7725 0.860014C13.7524 0.814813 15.6969 1.36184 17.3305 2.42349C18.964 3.48514 20.2034 5.00752 20.8731 6.77468C21.5427 8.54184 21.6085 10.4641 21.0611 12.2687C20.5137 14.0733 19.381 15.6686 17.8235 16.8285C17.4804 17.0805 17.2023 17.4031 17.0101 17.7721C16.818 18.141 16.7167 18.5465 16.7142 18.9579L16.7142 19.6311C16.7142 19.8682 16.6148 20.0956 16.438 20.2633C16.2612 20.4309 16.0214 20.5251 15.7713 20.5251H8.22841C7.97835 20.5251 7.73854 20.4309 7.56172 20.2633C7.3849 20.0956 7.28556 19.8682 7.28556 19.6311L7.28554 18.9572C7.28447 18.5484 7.18527 18.1452 6.99544 17.7781C6.80562 17.4111 6.53016 17.0898 6.18994 16.8387ZM11.8887 5.65032C11.9567 5.24173 12.343 4.96562 12.7516 5.03361C14.1565 5.2674 15.4549 5.92281 16.4666 6.91203C17.4784 7.90145 18.1536 9.17619 18.3958 10.5611C18.4672 10.9691 18.1943 11.3578 17.7863 11.4291C17.3783 11.5005 16.9896 11.2276 16.9183 10.8196C16.7308 9.74758 16.2075 8.75663 15.4179 7.98453C14.628 7.21223 13.6106 6.69719 12.5054 6.51326C12.0968 6.44527 11.8207 6.05892 11.8887 5.65032ZM8.67267 22.2861C8.23239 22.2861 7.94603 22.7495 8.14293 23.1433H15.96C16.1173 22.7294 15.8116 22.2861 15.3688 22.2861H8.67267Z" fill="url(#paint0_linear_4258_26506)"/>
<defs>
<linearGradient id="paint0_linear_4258_26506" x1="-5" y1="-1.50001" x2="60.985" y2="112.068" gradientUnits="userSpaceOnUse">
<stop offset="0.079943" stop-color="#7873F5"/>
<stop offset="0.223477" stop-color="#388EE0" stop-opacity="0.5"/>
<stop offset="0.55" stop-color="#388EE0" stop-opacity="0"/>
</linearGradient>
</defs>
</svg>
