<svg width="58" height="56" viewBox="0 0 58 56" fill="none" xmlns="http://www.w3.org/2000/svg">
<rect x="10.333" y="53.9629" width="37.3333" height="2.03637" fill="url(#paint0_linear_4510_108697)"/>
<rect x="27.833" y="42.7637" width="3.5" height="8.14546" fill="url(#paint1_linear_4510_108697)"/>
<path d="M31.333 42.7637H32.4997V50.4566L31.333 50.9091V42.7637Z" fill="url(#paint2_linear_4510_108697)"/>
<path d="M27.833 42.7637H26.6663V50.4566L27.833 50.9091V42.7637Z" fill="url(#paint3_linear_4510_108697)"/>
<path d="M20.833 54.9828C20.833 52.0594 23.4698 49.843 26.3496 50.3457L29.583 50.9101L32.8164 50.3457C35.6963 49.843 38.333 52.0594 38.333 54.9828H20.833Z" fill="url(#paint4_linear_4510_108697)"/>
<path fill-rule="evenodd" clip-rule="evenodd" d="M47.6937 2.03711H10.3604V29.1881H10.3921C10.371 29.4125 10.3604 29.6387 10.3604 29.8663C10.3604 34.9396 15.6565 39.2481 23.0175 40.7945L23.582 42.7649H36.0264L36.7077 40.3866C43.1859 38.5764 47.6937 34.5468 47.6937 29.8663C47.6937 29.6387 47.683 29.4125 47.662 29.1881H47.6937V2.03711ZM28.9995 13L30.1221 16.1094H33.7548L30.8159 18.0312L31.9384 21.1406L28.9995 19.2188L26.0606 21.1406L27.1832 18.0312L24.2442 16.1094H27.8769L28.9995 13Z" fill="url(#paint5_linear_4510_108697)"/>
<path d="M47.666 30.5465C49.4352 30.5465 55.7204 26.3465 56.8165 19.6859C57.3226 16.6102 56.8165 8.14648 54.8144 8.14648H49.9673V10.9465" stroke="url(#paint6_linear_4510_108697)" stroke-width="0.4" stroke-linecap="round"/>
<path d="M10.333 30.5465C8.56383 30.5465 2.27865 26.3465 1.18253 19.6859C0.676381 16.6102 1.18253 8.14648 3.18464 8.14648H8.03176V10.9465" stroke="url(#paint7_linear_4510_108697)" stroke-width="0.4" stroke-linecap="round"/>
<path d="M10.3327 2.03648C9.81316 1.12963 10.4679 0 11.513 0H46.4857C47.5308 0 48.1855 1.12963 47.666 2.03648H10.3327Z" fill="url(#paint8_linear_4510_108697)"/>
<defs>
<linearGradient id="paint0_linear_4510_108697" x1="28.9997" y1="38.5" x2="28.9997" y2="123.667" gradientUnits="userSpaceOnUse">
<stop offset="0.102592" stop-color="#7873F5"/>
<stop offset="0.223477" stop-color="#388EE0" stop-opacity="0.5"/>
<stop offset="0.366035" stop-color="#388EE0" stop-opacity="0"/>
</linearGradient>
<linearGradient id="paint1_linear_4510_108697" x1="31.333" y1="36.167" x2="44.1663" y2="46.667" gradientUnits="userSpaceOnUse">
<stop offset="0.127666" stop-color="#7873F5"/>
<stop offset="0.495104" stop-color="#388EE0" stop-opacity="0.5"/>
<stop offset="1" stop-color="#388EE0" stop-opacity="0"/>
</linearGradient>
<linearGradient id="paint2_linear_4510_108697" x1="34.833" y1="30.3337" x2="74.4997" y2="51.3336" gradientUnits="userSpaceOnUse">
<stop offset="0.102592" stop-color="#7873F5"/>
<stop offset="0.223477" stop-color="#388EE0" stop-opacity="0.5"/>
<stop offset="0.366035" stop-color="#388EE0" stop-opacity="0"/>
</linearGradient>
<linearGradient id="paint3_linear_4510_108697" x1="17.333" y1="35.0003" x2="5.66635" y2="51.3336" gradientUnits="userSpaceOnUse">
<stop offset="0.102592" stop-color="#7873F5"/>
<stop offset="0.403082" stop-color="#388EE0" stop-opacity="0.5"/>
<stop offset="0.908393" stop-color="#388EE0" stop-opacity="0"/>
</linearGradient>
<linearGradient id="paint4_linear_4510_108697" x1="28.9997" y1="49" x2="28.9997" y2="54.8333" gradientUnits="userSpaceOnUse">
<stop offset="0.066033" stop-color="#7873F5"/>
<stop offset="0.66899" stop-color="#388EE0" stop-opacity="0.5"/>
<stop offset="0.992708" stop-color="#388EE0" stop-opacity="0"/>
</linearGradient>
<linearGradient id="paint5_linear_4510_108697" x1="-2.50033" y1="-8.1668" x2="78.0001" y2="34.9996" gradientUnits="userSpaceOnUse">
<stop offset="0.148591" stop-color="#7873F5"/>
<stop offset="0.478741" stop-color="#388EE0" stop-opacity="0.5"/>
<stop offset="1" stop-color="#388EE0" stop-opacity="0"/>
</linearGradient>
<linearGradient id="paint6_linear_4510_108697" x1="62.8327" y1="10.5003" x2="31.9862" y2="39.8841" gradientUnits="userSpaceOnUse">
<stop stop-color="#7873F5"/>
<stop offset="0.386044" stop-color="#388EE0" stop-opacity="0.5"/>
<stop offset="0.640784" stop-color="#388EE0" stop-opacity="0"/>
</linearGradient>
<linearGradient id="paint7_linear_4510_108697" x1="-4.83368" y1="10.5003" x2="26.4301" y2="36.4145" gradientUnits="userSpaceOnUse">
<stop offset="0.159726" stop-color="#7873F5"/>
<stop offset="0.386044" stop-color="#388EE0" stop-opacity="0.5"/>
<stop offset="0.640784" stop-color="#388EE0" stop-opacity="0"/>
</linearGradient>
<linearGradient id="paint8_linear_4510_108697" x1="28.9993" y1="3.38619e-07" x2="30.166" y2="7" gradientUnits="userSpaceOnUse">
<stop stop-color="#7873F5"/>
<stop offset="1" stop-color="#388EE0" stop-opacity="0"/>
</linearGradient>
</defs>
</svg>
