<svg width="24" height="24" viewBox="0 0 24 24" fill="none" xmlns="http://www.w3.org/2000/svg">
<path d="M5 20C5.36184 18.5797 6.25147 17.3114 7.52319 16.4031C8.79491 15.4947 10.3734 15 12 15C13.6266 15 15.2051 15.4947 16.4768 16.4031C17.7485 17.3114 18.6382 18.5797 19 20" fill="url(#paint0_linear_4226_24872)"/>
<path d="M12 15C14.0711 15 15.75 13.3211 15.75 11.25C15.75 9.17893 14.0711 7.5 12 7.5C9.92893 7.5 8.25 9.17893 8.25 11.25C8.25 13.3211 9.92893 15 12 15Z" fill="url(#paint1_linear_4226_24872)"/>
<path d="M19.2727 4H4.72727C4.32561 4 4 4.32561 4 4.72727V19.2727C4 19.6744 4.32561 20 4.72727 20H19.2727C19.6744 20 20 19.6744 20 19.2727V4.72727C20 4.32561 19.6744 4 19.2727 4Z" stroke="url(#paint2_linear_4226_24872)" stroke-width="1.5"/>
<defs>
<linearGradient id="paint0_linear_4226_24872" x1="5.61945" y1="0.714237" x2="-14.634" y2="15.4821" gradientUnits="userSpaceOnUse">
<stop offset="0.079943" stop-color="#7873F5"/>
<stop offset="0.223477" stop-color="#388EE0" stop-opacity="0.5"/>
<stop offset="0.55" stop-color="#388EE0" stop-opacity="0"/>
</linearGradient>
<linearGradient id="paint1_linear_4226_24872" x1="5.23869" y1="6.70664" x2="25.4795" y2="47.8778" gradientUnits="userSpaceOnUse">
<stop offset="0.079943" stop-color="#7873F5"/>
<stop offset="0.223477" stop-color="#388EE0" stop-opacity="0.5"/>
<stop offset="0.55" stop-color="#388EE0" stop-opacity="0"/>
</linearGradient>
<linearGradient id="paint2_linear_4226_24872" x1="6.5" y1="5" x2="27" y2="33.5" gradientUnits="userSpaceOnUse">
<stop stop-color="#7873F5"/>
<stop offset="0.310108" stop-color="#388EE0" stop-opacity="0.5"/>
<stop offset="0.704188" stop-color="#388EE0" stop-opacity="0"/>
</linearGradient>
</defs>
</svg>
