<?xml version="1.0" encoding="utf-8"?>
<!-- Generator: Adobe Illustrator 23.0.0, SVG Export Plug-In . SVG Version: 6.00 Build 0)  -->
<svg version="1.1" id="Слой_1" xmlns="http://www.w3.org/2000/svg" xmlns:xlink="http://www.w3.org/1999/xlink" x="0px" y="0px"
	 viewBox="0 0 157.5 157.5" style="enable-background:new 0 0 157.5 157.5;" xml:space="preserve">
<style type="text/css">
	.st0{fill:none;stroke:#0D4552;stroke-width:4.366;stroke-miterlimit:10;}
	.st1{fill:#0D4552;}
	.st2{fill:#9A1B1F;}
	.st3{fill:none;stroke:#E6E1DE;stroke-width:1.091;stroke-miterlimit:10;}
</style>
<path class="st0" d="M61.1,60.1c-9,9-23.7,9-32.7,0c-9-9-9-23.7,0-32.7c9-9,23.7-9,32.7,0C70.2,36.4,70.2,51.1,61.1,60.1z"/>
<path class="st0" d="M131.2,130.1c-9,9-23.7,9-32.7,0c-9-9-9-23.7,0-32.7c9-9,23.7-9,32.7,0C140.2,106.5,140.2,121.1,131.2,130.1z"
	/>
<path class="st0" d="M94.1,131.4c-18.3,5.4-38.9,0.9-53.3-13.5c-7.9-7.9-12.9-17.8-14.8-28"/>
<polygon class="st1" points="0,93.2 53,93.6 26.7,66.9 "/>
<path class="st0" d="M68.1,27.2c17.1-3.4,35.5,1.4,48.7,14.7c7.8,7.8,12.7,17.3,14.7,27.4"/>
<polygon class="st1" points="157.5,65.5 104.5,65.8 131.2,92.2 "/>
<path class="st2" d="M52.6,51.5c-4.3,4.3-11.2,4.3-15.5,0c-4.3-4.3-4.3-11.2,0-15.5c4.3-4.3,11.2-4.3,15.5,0
	C56.9,40.3,56.9,47.2,52.6,51.5"/>
<circle class="st3" cx="44.8" cy="43.8" r="11"/>
<path class="st2" d="M122.6,121.5c-4.3,4.3-11.2,4.3-15.5,0c-4.3-4.3-4.3-11.2,0-15.5c4.3-4.3,11.2-4.3,15.5,0
	C126.9,110.3,126.9,117.2,122.6,121.5"/>
<circle class="st3" cx="114.8" cy="113.8" r="11"/>
</svg>
