<?xml version="1.0" encoding="utf-8"?>
<!-- Generator: Adobe Illustrator 23.0.0, SVG Export Plug-In . SVG Version: 6.00 Build 0)  -->
<svg version="1.1" id="Слой_1" xmlns="http://www.w3.org/2000/svg" xmlns:xlink="http://www.w3.org/1999/xlink" x="0px" y="0px"
	 viewBox="0 0 136.1 136.1" style="enable-background:new 0 0 136.1 136.1;" xml:space="preserve">
<style type="text/css">
	.st0{fill:#0D4552;}
	.st1{fill:#E6E1DE;}
	.st2{fill:none;stroke:#0D4552;stroke-width:3;stroke-miterlimit:10;}
	.st3{fill:#9A1B1F;}
	.st4{fill:none;stroke:#E6E1DE;stroke-width:3;stroke-miterlimit:10;}
</style>
<path class="st0" d="M107.3,51.1L74.2,12.8c-1-1.7-3.5-1.7-4.4,0L36.6,51.1c-1,1.7,0.2,3.9,2.2,3.9h10.8c1.4,0,2.6,1.2,2.6,2.6v61.2
	c0,1.4,1.2,2.6,2.6,2.6h34.4c1.4,0,2.6-1.2,2.6-2.6V57.6c0-1.4,1.2-2.6,2.6-2.6h10.7C107.1,55,108.3,52.8,107.3,51.1"/>
<path class="st1" d="M72.6,78.8L39.5,40.4c-1-1.7-3.5-1.7-4.4,0L1.9,78.8c-1,1.7,0.2,3.9,2.2,3.9h10.8c1.4,0,2.6,1.2,2.6,2.6v32.2
	c0,1.4,1.1,2.6,2.6,2.6h34.4c1.4,0,2.6-1.2,2.6-2.6V85.2c0-1.4,1.2-2.6,2.6-2.6h10.8C72.4,82.6,73.6,80.5,72.6,78.8"/>
<path class="st2" d="M72.6,78.8L39.5,40.4c-1-1.7-3.5-1.7-4.4,0L1.9,78.8c-1,1.7,0.2,3.9,2.2,3.9h10.8c1.4,0,2.6,1.2,2.6,2.6v32.2
	c0,1.4,1.1,2.6,2.6,2.6h34.4c1.4,0,2.6-1.2,2.6-2.6V85.2c0-1.4,1.2-2.6,2.6-2.6h10.8C72.4,82.6,73.6,80.5,72.6,78.8z"/>
<path class="st3" d="M134.3,100.8l-33.1-38.3c-1-1.7-3.5-1.7-4.4,0l-33.1,38.3c-1,1.7,0.2,3.9,2.2,3.9h10.8c1.4,0,2.6,1.2,2.6,2.6
	v13.2c0,1.4,1.1,2.6,2.6,2.6h34.4c1.4,0,2.6-1.2,2.6-2.6v-13.3c0-1.4,1.2-2.6,2.6-2.6h10.6C134.1,104.6,135.3,102.5,134.3,100.8"/>
<path class="st4" d="M134.3,100.8l-33.1-38.3c-1-1.7-3.5-1.7-4.4,0l-33.1,38.3c-1,1.7,0.2,3.9,2.2,3.9h10.8c1.4,0,2.6,1.2,2.6,2.6
	v13.2c0,1.4,1.1,2.6,2.6,2.6h34.4c1.4,0,2.6-1.2,2.6-2.6v-13.3c0-1.4,1.2-2.6,2.6-2.6h10.6C134.1,104.6,135.3,102.5,134.3,100.8z"/>
</svg>
