<?xml version="1.0" encoding="utf-8"?>
<!-- Generator: Adobe Illustrator 23.0.0, SVG Export Plug-In . SVG Version: 6.00 Build 0)  -->
<svg version="1.1" id="Слой_1" xmlns="http://www.w3.org/2000/svg" xmlns:xlink="http://www.w3.org/1999/xlink" x="0px" y="0px"
	 viewBox="0 0 122.9 122.9" style="enable-background:new 0 0 122.9 122.9;" xml:space="preserve">
<style type="text/css">
	.st0{fill:#9A1B1F;}
	.st1{fill:#0D4552;}
</style>
<path class="st0" d="M113.3,66.7c12.8-12.8,12.8-33.9,0-46.7l-3.4-3.4C97,3.7,76,3.7,63.2,16.6l-7.9,7.9l0,0
	c-0.7,0.7-1.4,1.4-2.1,2.1c-6.5,6.6-13,13.2-19.5,19.9c-1.7,1.8-1.7,3,0.4,4.3c1.6,1,3.6,1.7,5.5,2.1c3.7,0.7,6.5-1.4,9-3.9
	c3.6-3.5,7.2-7,10.8-10.5c1.5-1.4,2.9-1.7,4.7-0.2c1.9,1.7,4,3.2,6.2,4.4c5.1,2.7,10.1,2.6,14.7-1.3c0.5-0.5,1.1-0.9,1.7-1.2
	c1.5-0.7,3.2,0.4,2.9,2c-0.1,0.8-0.6,1.8-1.3,2.3c-2.4,1.7-5.3,3.6-7.8,5.2l24.9,24.9L113.3,66.7z"/>
<path class="st1" d="M57.9,15c-0.1-0.1-0.2-0.1-0.2-0.2c-0.5-0.4-0.8-0.8-1.3-1c0,0,0,0-0.1,0C43.4,3.8,24.8,4.8,13,16.5L9.6,20
	C-3.2,32.8-3.2,53.7,9.7,66.6l17.6,17.6c0,0,20,19.5,30.1,29.5c2.8,2.8,5.7,3,8.2,0.6c2.3-2.2,2.1-5.4-0.6-8.2
	c-2.8-3-5.7-5.9-8.6-8.9c-4.3-4.4-8.6-8.8-12.8-13.1c-1-1-2.1-2.1-0.7-3.6c1.4-1.5,2.6-0.5,3.8,0.5c0.5,0.4,0.9,0.8,1.4,1.3
	c5.1,5.1,10.2,10.2,15.4,15.2c2.1,2.1,4.3,4.1,6.4,6.1c1.5,1.4,3.3,1.6,5.2,0.7c3.6-1.8,4.5-5.8,1.7-8.7
	C70.2,89,63.7,82.5,57.3,75.9c-1.2-1.3-2.5-2.6-3.5-4c-0.4-0.5-0.3-1.9,0-2.2c0.7-0.5,1.8-0.8,2.6-0.5c0.9,0.3,1.6,1.1,2.3,1.8
	c3.9,3.9,7.8,7.8,11.7,11.6c3.4,3.4,6.9,6.7,10.4,10c1.5,1.5,3.3,1.5,5.2,0.6c1.9-0.9,3.3-2.4,3-4.5c-0.3-1.7-1-3.6-2.2-4.9
	C80.6,77,74.1,70.5,67.7,63.9c-1-1.1-2.1-2.1-2.8-3.4c-0.3-0.6-0.1-1.8,0.4-2.3c0.3-0.4,1.5-0.4,2.2-0.1c0.8,0.3,1.5,1.1,2.2,1.7
	c3.7,3.6,7.3,7.2,11,10.7c3.6,3.5,7.2,7.1,10.9,10.5c0.9,0.8,2.3,1.4,3.5,1.5c2.3,0.2,4-1,4.9-3.2c0.9-2.1,0.7-4.1-1-5.8
	c-5.7-5.8-11.8-11.3-17-17.5c-5.4-6.4-13-9.3-19.6-13.7c-4,3.8-8,7.8-12.1,11.5c-5.5,5-15,4.3-19.9-1.4c-2.8-3.3-2.8-6.2,0.2-9.3
	c8.5-8.6,17-17.2,25.4-25.9C56.5,16.6,57.2,15.8,57.9,15C57.9,15,57.9,15,57.9,15L57.9,15z"/>
</svg>
