<svg id="Слой_1" data-name="Слой 1" xmlns="http://www.w3.org/2000/svg" xmlns:xlink="http://www.w3.org/1999/xlink" viewBox="0 0 745.3 607.79"><defs><style>.cls-1,.cls-10,.cls-13,.cls-20,.cls-23,.cls-25,.cls-30,.cls-35,.cls-39,.cls-42{fill:none;}.cls-11,.cls-14,.cls-2,.cls-21,.cls-22,.cls-24,.cls-3,.cls-31,.cls-33,.cls-36,.cls-37,.cls-4,.cls-8,.cls-9{fill:#fff;}.cls-3{fill-opacity:0.4;}.cls-4{fill-opacity:0.5;}.cls-5{clip-path:url(#clip-path);}.cls-6{fill:#f4f4f4;}.cls-12,.cls-7{fill:#9fc051;}.cls-20,.cls-21,.cls-22,.cls-25,.cls-29,.cls-30,.cls-32,.cls-33,.cls-34,.cls-36,.cls-39,.cls-7,.cls-8,.cls-9{stroke:#030404;}.cls-10,.cls-11,.cls-12,.cls-13,.cls-14,.cls-20,.cls-21,.cls-22,.cls-23,.cls-24,.cls-25,.cls-29,.cls-30,.cls-32,.cls-33,.cls-34,.cls-37,.cls-39,.cls-41,.cls-7,.cls-8,.cls-9{stroke-miterlimit:10;}.cls-10,.cls-11,.cls-12,.cls-20,.cls-7,.cls-8{stroke-width:1.2px;}.cls-9{stroke-width:0.9px;}.cls-10,.cls-11,.cls-12,.cls-13,.cls-14,.cls-23,.cls-24,.cls-31,.cls-35,.cls-37,.cls-40,.cls-41,.cls-42{stroke:#000;}.cls-13{stroke-width:2.25px;}.cls-14{stroke-width:1.12px;}.cls-15{fill:#0b0c0c;}.cls-16{fill:#fffefe;}.cls-17{fill:#fad8e6;}.cls-18{fill:#ed6a5b;}.cls-19{fill:#020202;}.cls-21,.cls-23,.cls-24,.cls-25{stroke-width:1.4px;}.cls-22,.cls-30{stroke-width:1.05px;}.cls-26{fill:#030404;}.cls-27{fill:#df6886;}.cls-28{fill:#e8b4cc;}.cls-29,.cls-34{fill:#fffffe;}.cls-29{stroke-width:0.7px;}.cls-31,.cls-35,.cls-36,.cls-40{stroke-linejoin:round;}.cls-31,.cls-35{stroke-width:1.36px;}.cls-32,.cls-38{fill:#8ab4e1;}.cls-32,.cls-37,.cls-39{stroke-width:1.36px;}.cls-33{stroke-width:1.02px;}.cls-34{stroke-width:0.68px;}.cls-36{stroke-width:1.02px;}.cls-40,.cls-41{fill:#eb5857;stroke-width:0.74px;}.cls-40{stroke-linecap:round;}</style><clipPath id="clip-path" transform="translate(-411.44 -317.18)"><rect class="cls-1" x="390.63" y="296.33" width="782" height="343"/></clipPath></defs><title>about</title><circle class="cls-2" cx="191.2" cy="191.15" r="42"/><circle class="cls-2" cx="259.7" cy="170.65" r="73.5"/><circle class="cls-2" cx="539.7" cy="69.65" r="3.5"/><circle class="cls-2" cx="115.7" cy="194.65" r="3.5"/><circle class="cls-3" cx="64.7" cy="144.65" r="4.5"/><circle class="cls-2" cx="166.7" cy="114.65" r="7.5"/><circle class="cls-2" cx="591.7" cy="37.65" r="3.5"/><circle class="cls-4" cx="467.7" cy="33.65" r="9.5"/><circle class="cls-4" cx="675.7" cy="135.65" r="4.5"/><circle class="cls-2" cx="479.7" cy="130.65" r="58.5"/><circle class="cls-2" cx="461.7" cy="210.65" r="58.5"/><circle class="cls-2" cx="560.2" cy="185.15" r="92"/><circle class="cls-2" cx="367.7" cy="131.65" r="107.5"/><g class="cls-5"><path class="cls-6" d="M770.9,582.9A120.56,120.56,0,1,0,650.33,462.34,120.57,120.57,0,0,0,770.9,582.9Z" transform="translate(-411.44 -317.18)"/><path class="cls-6" d="M548.44,599.32a85.19,85.19,0,1,0-85.2-85.18A85.19,85.19,0,0,0,548.44,599.32Z" transform="translate(-411.44 -317.18)"/><path class="cls-6" d="M459.67,585.94a48.23,48.23,0,1,0-48.23-48.22A48.22,48.22,0,0,0,459.67,585.94Z" transform="translate(-411.44 -317.18)"/><path class="cls-6" d="M440.85,633a28.22,28.22,0,1,0-28.22-28.22A28.22,28.22,0,0,0,440.85,633Z" transform="translate(-411.44 -317.18)"/><path class="cls-6" d="M508,664.77a50.61,50.61,0,1,0-50.62-50.61A50.61,50.61,0,0,0,508,664.77Z" transform="translate(-411.44 -317.18)"/><path class="cls-6" d="M866.7,358.2a10.6,10.6,0,1,0-10.6-10.6A10.6,10.6,0,0,0,866.7,358.2Z" transform="translate(-411.44 -317.18)"/><path class="cls-6" d="M449.86,462.73a10.6,10.6,0,1,0-10.6-10.6A10.6,10.6,0,0,0,449.86,462.73Z" transform="translate(-411.44 -317.18)"/><path class="cls-6" d="M652.45,607.14A12.19,12.19,0,1,0,640.26,595,12.19,12.19,0,0,0,652.45,607.14Z" transform="translate(-411.44 -317.18)"/><path class="cls-6" d="M1059.88,406.16A12.19,12.19,0,1,0,1047.69,394,12.19,12.19,0,0,0,1059.88,406.16Z" transform="translate(-411.44 -317.18)"/><path class="cls-6" d="M630.45,430.14a4.77,4.77,0,1,0-4.77-4.77A4.76,4.76,0,0,0,630.45,430.14Z" transform="translate(-411.44 -317.18)"/><path class="cls-6" d="M897.44,475.72a29.15,29.15,0,1,0-29.15-29.15A29.15,29.15,0,0,0,897.44,475.72Z" transform="translate(-411.44 -317.18)"/><path class="cls-6" d="M672.85,422.33a32.6,32.6,0,1,0-32.59-32.6A32.61,32.61,0,0,0,672.85,422.33Z" transform="translate(-411.44 -317.18)"/><path class="cls-6" d="M631.65,504.73a32.59,32.59,0,1,0-32.6-32.59A32.59,32.59,0,0,0,631.65,504.73Z" transform="translate(-411.44 -317.18)"/><path class="cls-6" d="M900.75,553.62a49.69,49.69,0,1,0-49.69-49.68A49.69,49.69,0,0,0,900.75,553.62Z" transform="translate(-411.44 -317.18)"/><path class="cls-6" d="M987.8,531.62a49.68,49.68,0,1,0-49.69-49.68A49.69,49.69,0,0,0,987.8,531.62Z" transform="translate(-411.44 -317.18)"/><path class="cls-6" d="M1040.4,603A63.06,63.06,0,1,0,977.33,540,63.06,63.06,0,0,0,1040.4,603Z" transform="translate(-411.44 -317.18)"/><path class="cls-6" d="M855.57,612.57a37.49,37.49,0,1,0-37.5-37.49A37.48,37.48,0,0,0,855.57,612.57Z" transform="translate(-411.44 -317.18)"/><path class="cls-6" d="M842.18,655.76a37.49,37.49,0,1,0-37.49-37.49A37.49,37.49,0,0,0,842.18,655.76Z" transform="translate(-411.44 -317.18)"/><path class="cls-6" d="M803,631.52a37.5,37.5,0,1,0-37.5-37.5A37.5,37.5,0,0,0,803,631.52Z" transform="translate(-411.44 -317.18)"/><path class="cls-6" d="M1026.75,653a50.21,50.21,0,1,0-50.21-50.21A50.21,50.21,0,0,0,1026.75,653Z" transform="translate(-411.44 -317.18)"/><path class="cls-6" d="M1087.17,629.27a39.88,39.88,0,1,0-39.88-39.88A39.88,39.88,0,0,0,1087.17,629.27Z" transform="translate(-411.44 -317.18)"/><path class="cls-6" d="M1132.75,609.92a24,24,0,1,0-24-24A24,24,0,0,0,1132.75,609.92Z" transform="translate(-411.44 -317.18)"/><path class="cls-6" d="M765.2,648.74a37.5,37.5,0,1,0-37.49-37.49A37.5,37.5,0,0,0,765.2,648.74Z" transform="translate(-411.44 -317.18)"/><path class="cls-6" d="M714.72,640.39a39.61,39.61,0,1,0-39.61-39.61A39.61,39.61,0,0,0,714.72,640.39Z" transform="translate(-411.44 -317.18)"/><path class="cls-7" d="M928.44,585.81l-22.79,249.6H876L881.27,585Z" transform="translate(-411.44 -317.18)"/><path class="cls-7" d="M928.44,585.81l21.73,249.6h29.68l-5.17-249.6Z" transform="translate(-411.44 -317.18)"/><path class="cls-8" d="M922.88,437S814.1,469.89,835.69,542.09c12.19,40.94,86.92-4.5,96.46-4.9S973,564,1003.7,560.37c32.46-3.84,36.17-88.5-58-119.1Z" transform="translate(-411.44 -317.18)"/><path class="cls-9" d="M984.75,591.11a204.89,204.89,0,0,0,3.18-36.83c0-64-27.16-116-60.42-116-33.52,0-56.57,52.19-60.42,116-.79,12.85,1.06,25.17,3.18,36.83Z" transform="translate(-411.44 -317.18)"/><path class="cls-2" d="M906.71,443.92c-20.93,14.58-36.44,52.33-39.35,96.19v1.06l-.13,1.85-8.88,163,40.54,2.91,2.39-49.81,13.12-219C914.53,440.21,908.3,442.73,906.71,443.92Z" transform="translate(-411.44 -317.18)"/><path class="cls-10" d="M877.43,490.42a187.58,187.58,0,0,0-9.94,49.69v1.06l-.13,1.85-8.88,163L899,708.89l2.38-49.81,13.12-219" transform="translate(-411.44 -317.18)"/><path class="cls-11" d="M868.42,578.66l-3,.13-2.12,36.83c6.63,1.06,16.3,1.86,20.14-1.32,6-5,4.9-35.64,4.9-35.64Z" transform="translate(-411.44 -317.18)"/><path class="cls-11" d="M911.48,492l3-51.66v-.14a19.93,19.93,0,0,0-4.11,1.59c-2.25,6.36-10.73,30.87-10.73,30.87l5.17,1.33v.13l-8.09,5.56,8.35,100.56v14.44Z" transform="translate(-411.44 -317.18)"/><path class="cls-2" d="M948.45,444.05c20.93,14.58,38,52.2,40.94,95.92V541l.13,1.86,8.88,163-40.54,2.92-2.39-49.82L942.35,440C942.22,440.21,946.86,442.86,948.45,444.05Z" transform="translate(-411.44 -317.18)"/><path class="cls-10" d="M983.69,498.77l3.31,21.6a189.11,189.11,0,0,1,2.26,19.6V541l.13,1.86,8.88,163-40.55,2.92-2.38-49.82-13-219" transform="translate(-411.44 -317.18)"/><path class="cls-11" d="M988.59,578.66l3,.13,2.12,36.83c-6.62,1.06-16.3,1.86-20.14-1.32-6-5-4.9-35.64-4.9-35.64Z" transform="translate(-411.44 -317.18)"/><path class="cls-11" d="M945.4,492l-3-51.66v-.14c.53.27,2.52.93,4.64,1.59,2.25,6.36,10.2,30.87,10.2,30.87L952,474v.13l8.08,5.56-8.35,100.56v14.44Z" transform="translate(-411.44 -317.18)"/><path class="cls-12" d="M928.44,450.28c7.68,0,13.91-3.86,13.91-8.61s-6.23-8.61-13.91-8.61-13.91,3.85-13.91,8.61S920.76,450.28,928.44,450.28Z" transform="translate(-411.44 -317.18)"/><path class="cls-13" d="M953.35,407.22a8.88,8.88,0,0,1-9.41,8.35,8.72,8.72,0,0,1-8.34-9.14,8.89,8.89,0,0,1,9.4-8.35A8.65,8.65,0,0,1,953.35,407.22Z" transform="translate(-411.44 -317.18)"/><path class="cls-14" d="M916.25,377.94l11.13.67c7.42.26,13.12,7.55,12.72,16l-.93,17.22a5.55,5.55,0,0,1-.13,1.46,6.57,6.57,0,0,1,.13,1.59l-.53,10.46V426l-.53,10.46a6.76,6.76,0,0,1-7.28,6.49l-4.51-.13a6.77,6.77,0,0,1-6.49-7.29l.53-9.4-6.49-.27c-7.42-.26-13.12-7.55-12.72-16l.92-17.22C902.47,384.17,908.83,377.68,916.25,377.94Z" transform="translate(-411.44 -317.18)"/><path class="cls-15" d="M924.07,399.41a2.52,2.52,0,0,1-2.65,2.38,2.61,2.61,0,0,1-2.39-2.65,2.52,2.52,0,0,1,2.65-2.38A2.71,2.71,0,0,1,924.07,399.41Z" transform="translate(-411.44 -317.18)"/><path class="cls-15" d="M907.51,398.08a2.19,2.19,0,1,1-2.12-2.25A2.39,2.39,0,0,1,907.51,398.08Z" transform="translate(-411.44 -317.18)"/><path class="cls-16" d="M909.49,408.55s1.06,3.84,3.85,4.1,4.9-2.51,5.16-4.76Z" transform="translate(-411.44 -317.18)"/><path class="cls-15" d="M908.7,408.81a6.44,6.44,0,0,0,2.25,3.71,4.83,4.83,0,0,0,3.18,1.06,5,5,0,0,0,3.31-1.72,6.85,6.85,0,0,0,1.73-3.84.85.85,0,0,0-.8-.8c-2.52.14-5.17.27-7.82.53a2.8,2.8,0,0,0-1.06.14c-.53-.14-.79.26-.79.92a.74.74,0,0,0,.79.67c2.52-.14,5.17-.27,7.82-.53a2.75,2.75,0,0,0,1.06-.14l-.79-.79a4.69,4.69,0,0,1-3.45,4c-1.59.14-2.65-1.06-3.31-2.38-.13-.13-.13-.27-.13-.53,0,.13,0-.13-.14-.13a.46.46,0,0,0-.13-.27C909.89,407.36,908.3,407.75,908.7,408.81Z" transform="translate(-411.44 -317.18)"/><path class="cls-17" d="M932.28,409.08a6.17,6.17,0,1,1-5.83-6.49A6.2,6.2,0,0,1,932.28,409.08Z" transform="translate(-411.44 -317.18)"/><path class="cls-17" d="M903.13,403.38h-1.06l-.26,6.5a22.87,22.87,0,0,0,.13,2.91c.27,0,.66.13.8.13a4.56,4.56,0,0,0,4.9-4.5A4.77,4.77,0,0,0,903.13,403.38Z" transform="translate(-411.44 -317.18)"/><path class="cls-18" d="M912.94,396.36V405l-4-2.65Z" transform="translate(-411.44 -317.18)"/><path d="M936.52,406l-1.32-13.65s-37.63,2.92-48.89-16c-11.27-18.68,1.85-25.3,8.08-24s12.85,10.47,12.85,10.47-5.43-8.08.53-9,11.93,5.43,14.71,11.79c0,0,24.78-1.06,32.33,14.31s.26,25.57-15.64,40.28l-.66-8.75Z" transform="translate(-411.44 -317.18)"/><path class="cls-2" d="M953.35,407.22a8.88,8.88,0,0,1-9.41,8.35,8.72,8.72,0,0,1-8.34-9.14,8.89,8.89,0,0,1,9.4-8.35A8.65,8.65,0,0,1,953.35,407.22Z" transform="translate(-411.44 -317.18)"/><path class="cls-19" d="M940.63,407.62v-.93c0-.26.13-.53.13-.79a.49.49,0,0,1,.14-.27c.13-.26,0,.14,0,0a.13.13,0,0,1,.13-.13,2.61,2.61,0,0,1,.53-.79c-.13.26,0,.13,0,0l.13-.14.27-.26h.13l.13-.13.13-.14h.14l.26-.13c.13,0,.13,0,.27-.13h2a1.13,1.13,0,0,0,1.33-.8,1.11,1.11,0,0,0-.8-1.32c-2.12-.27-4.1-.13-5.69,1.46a5.86,5.86,0,0,0-1.59,3.44c0,.27-.14.66-.14.93,0,.53.53,1.06.93.93C940.23,408.81,940.63,408.28,940.63,407.62Z" transform="translate(-411.44 -317.18)"/><path d="M975.87,388.15a21.47,21.47,0,1,0-21.46-21.47A21.47,21.47,0,0,0,975.87,388.15Z" transform="translate(-411.44 -317.18)"/><path class="cls-8" d="M916.78,545.54s-50.48-11.13-58.17-16,7-25.57,7-25.57,34.45,9,56.71,12.58C944.61,519.83,916.78,545.54,916.78,545.54Z" transform="translate(-411.44 -317.18)"/><path class="cls-2" d="M979.58,485.92s5.57,31.53-4.63,31.66-57.77-6.75-57.77-6.75l-3.18,38s56.31,17.49,88.11,13,28.09-52.46,9.14-74.45" transform="translate(-411.44 -317.18)"/><path class="cls-8" d="M927.65,512.41c-6.23-.92-10.47-1.59-10.47-1.59l-3.18,38s4.5,1.45,11.39,3.18Z" transform="translate(-411.44 -317.18)"/><path class="cls-20" d="M979.58,485.92s5.57,31.53-4.63,31.66-57.77-6.75-57.77-6.75l-3.18,38s56.31,17.49,88.11,13,28.09-52.46,9.14-74.45l-2.52-3.71" transform="translate(-411.44 -317.18)"/><path class="cls-8" d="M864.31,468s5.7-12,22.53-28.88S912,417.29,913.2,418.22s-8.34,12.19-8.34,12.19,18.81-11.93,23.85-11.93S916.65,429,916.65,429s13.91-9.67,15.5-7.82S919,430.94,919,430.94s13.92-8.88,15.37-7.16-12.32,9.54-12.32,9.54,12.32-7.95,14.18-6-3.45,3.84-11.79,9.94-25.18,19.34-32.2,36.83C885.25,492,864.31,468,864.31,468Z" transform="translate(-411.44 -317.18)"/><path class="cls-8" d="M838.08,549.11a34.76,34.76,0,0,1-2.92-28c5-15.37,25.18-58,25.18-58l36,7.42s-4.24,39.61-5.57,53.52c-1.46,15.11-7.42,32.33-20.27,36S841.52,557.33,838.08,549.11Z" transform="translate(-411.44 -317.18)"/><path class="cls-8" d="M855.43,474.13l39.36,9c.92-7.29,1.72-12.59,1.72-12.59l-36-7.42C860.34,463.13,858.22,467.64,855.43,474.13Z" transform="translate(-411.44 -317.18)"/><path d="M598.39,623,570.83,925H534l6.22-302.06Z" transform="translate(-411.44 -317.18)"/><path d="M598.39,623,626.21,925h37.1l-6.22-302.06Z" transform="translate(-411.44 -317.18)"/><path class="cls-21" d="M680.14,681.86h33.12s28.89-195.94-99.9-236.35Z" transform="translate(-411.44 -317.18)"/><path class="cls-21" d="M454.37,578.66c-1.86-9.81.79-22.39,10.06-38C510,463.93,582,447.76,582,447.76L562.09,556.13Z" transform="translate(-411.44 -317.18)"/><path class="cls-22" d="M669.41,635.63a280.82,280.82,0,0,0,3.84-45.84c0-79.89-33.79-144.54-75.26-144.54s-70.62,65.05-75.26,144.54c-.92,15.89,1.33,31.26,3.85,45.84Z" transform="translate(-411.44 -317.18)"/><path class="cls-22" d="M523.93,617c.53,7.85,1.45,15.53,2.65,23.06h142.7c0-.49.13-1.15.13-1.64.13-1.31.4-2.78.53-4.41.4-2.46.53-5.07.93-7.53v-.65c.13-2.78.53-5.56.79-8.18V617Z" transform="translate(-411.44 -317.18)"/><path class="cls-23" d="M529.36,617,531,640" transform="translate(-411.44 -317.18)"/><path class="cls-23" d="M535.72,617l.79,23.06" transform="translate(-411.44 -317.18)"/><path class="cls-23" d="M543,617V640" transform="translate(-411.44 -317.18)"/><path class="cls-23" d="M549.37,617,549.1,640" transform="translate(-411.44 -317.18)"/><path class="cls-23" d="M555.06,617.27v23.07" transform="translate(-411.44 -317.18)"/><path class="cls-23" d="M560.76,617V640" transform="translate(-411.44 -317.18)"/><path class="cls-23" d="M567.12,617V640" transform="translate(-411.44 -317.18)"/><path class="cls-23" d="M574.67,617.27v23.07" transform="translate(-411.44 -317.18)"/><path class="cls-23" d="M579.58,617.27v23.07" transform="translate(-411.44 -317.18)"/><path class="cls-23" d="M586.07,617.27v23.07" transform="translate(-411.44 -317.18)"/><path class="cls-23" d="M592.69,617.27v23.07" transform="translate(-411.44 -317.18)"/><path class="cls-23" d="M598.65,617.27v23.07" transform="translate(-411.44 -317.18)"/><path class="cls-23" d="M606.07,617.27v23.07" transform="translate(-411.44 -317.18)"/><path class="cls-23" d="M613.1,617.27v23.07" transform="translate(-411.44 -317.18)"/><path class="cls-23" d="M619.19,617.27v23.07" transform="translate(-411.44 -317.18)"/><path class="cls-23" d="M624.89,617.27v23.07" transform="translate(-411.44 -317.18)"/><path class="cls-23" d="M631.12,617V640" transform="translate(-411.44 -317.18)"/><path class="cls-23" d="M637.87,617.27v23.07" transform="translate(-411.44 -317.18)"/><path class="cls-23" d="M644.1,617.27v23.07" transform="translate(-411.44 -317.18)"/><path class="cls-23" d="M649.93,617.27v23.07" transform="translate(-411.44 -317.18)"/><path class="cls-23" d="M656.16,617.27v23.07" transform="translate(-411.44 -317.18)"/><path class="cls-23" d="M661.86,617.27v23.07" transform="translate(-411.44 -317.18)"/><path class="cls-23" d="M666.89,617.27v23.07" transform="translate(-411.44 -317.18)"/><path d="M597.86,488.3a2,2,0,0,1-2-2v-6.63a2,2,0,0,1,4,0v6.63C600.11,487.38,599.05,488.3,597.86,488.3Z" transform="translate(-411.44 -317.18)"/><path d="M581.17,486.71a2,2,0,0,1-2-2V478.1a2,2,0,0,1,4,0v6.63A1.86,1.86,0,0,1,581.17,486.71Z" transform="translate(-411.44 -317.18)"/><path d="M589,502.61a2,2,0,0,1-2-2V494a2,2,0,1,1,4,0v6.63C591.24,501.69,590.31,502.61,589,502.61Z" transform="translate(-411.44 -317.18)"/><path d="M608.33,503.41a2,2,0,0,1-2-2v-6.63a2,2,0,0,1,4,0v6.63A1.87,1.87,0,0,1,608.33,503.41Z" transform="translate(-411.44 -317.18)"/><path d="M627.94,503.41a2,2,0,0,1-2-2v-6.63a2,2,0,0,1,4,0v6.63A2,2,0,0,1,627.94,503.41Z" transform="translate(-411.44 -317.18)"/><path d="M643.44,501.82a2.29,2.29,0,0,1-2.25-2l-.4-6.62a2.12,2.12,0,1,1,4.24-.27l.4,6.63A1.9,1.9,0,0,1,643.44,501.82Z" transform="translate(-411.44 -317.18)"/><path d="M617.34,486.71a2,2,0,0,1-2-2V478.1a2,2,0,0,1,4,0v6.63A2,2,0,0,1,617.34,486.71Z" transform="translate(-411.44 -317.18)"/><path d="M589,470a2,2,0,0,1-2-2v-6.62a2,2,0,1,1,4,0V468C591.24,469.09,590.31,470,589,470Z" transform="translate(-411.44 -317.18)"/><path d="M606.21,470a2,2,0,0,1-2-2v-6.62a2,2,0,1,1,4,0V468A1.87,1.87,0,0,1,606.21,470Z" transform="translate(-411.44 -317.18)"/><path d="M623.7,470a2,2,0,0,1-2-2v-6.62a2,2,0,1,1,4,0V468A1.87,1.87,0,0,1,623.7,470Z" transform="translate(-411.44 -317.18)"/><path d="M634.16,485.92a2,2,0,0,1-2-2v-6.62a2,2,0,1,1,4,0v6.62A1.88,1.88,0,0,1,634.16,485.92Z" transform="translate(-411.44 -317.18)"/><path d="M607.13,542.22a2,2,0,0,1-2-2v-6.63a2,2,0,0,1,4,0v6.63C609.39,541.3,608.46,542.22,607.13,542.22Z" transform="translate(-411.44 -317.18)"/><path d="M590.44,540.63a2,2,0,0,1-2-2V532a2,2,0,0,1,4,0v6.63A1.87,1.87,0,0,1,590.44,540.63Z" transform="translate(-411.44 -317.18)"/><path d="M598.39,556.53a2,2,0,0,1-2-2v-6.63a2,2,0,0,1,4,0v6.63A1.87,1.87,0,0,1,598.39,556.53Z" transform="translate(-411.44 -317.18)"/><path d="M617.73,557.33a2,2,0,0,1-2-2v-6.62a2,2,0,1,1,4,0v6.62A2,2,0,0,1,617.73,557.33Z" transform="translate(-411.44 -317.18)"/><path d="M637.21,557.33a2,2,0,0,1-2-2v-6.62a2,2,0,0,1,4,0v6.62A2,2,0,0,1,637.21,557.33Z" transform="translate(-411.44 -317.18)"/><path d="M653,555.74a2.29,2.29,0,0,1-2.25-2l-.4-6.62a2.12,2.12,0,1,1,4.24-.27l.4,6.62A2.11,2.11,0,0,1,653,555.74Z" transform="translate(-411.44 -317.18)"/><path d="M662.39,540.63a2.29,2.29,0,0,1-2.26-2l-.39-6.63a2.12,2.12,0,1,1,4.24-.26l.39,6.62A1.93,1.93,0,0,1,662.39,540.63Z" transform="translate(-411.44 -317.18)"/><path d="M626.61,540.63a2,2,0,0,1-2-2V532a2,2,0,0,1,4,0v6.63C628.86,539.71,627.67,540.63,626.61,540.63Z" transform="translate(-411.44 -317.18)"/><path d="M598.39,523.94a2,2,0,0,1-2-2v-6.63a2,2,0,0,1,4,0V522A1.87,1.87,0,0,1,598.39,523.94Z" transform="translate(-411.44 -317.18)"/><path d="M615.48,523.94a2,2,0,0,1-2-2v-6.63a2,2,0,1,1,4,0V522C617.73,523,616.81,523.94,615.48,523.94Z" transform="translate(-411.44 -317.18)"/><path d="M633.1,523.94a2,2,0,0,1-2-2v-6.63a2,2,0,1,1,4,0V522A2,2,0,0,1,633.1,523.94Z" transform="translate(-411.44 -317.18)"/><path d="M654.3,523.54a2,2,0,0,1-2-2v-6.63a2,2,0,0,1,4,0v6.63A1.87,1.87,0,0,1,654.3,523.54Z" transform="translate(-411.44 -317.18)"/><path d="M643.44,539.84a2,2,0,0,1-2-2v-6.62a2,2,0,1,1,4,0v6.62A1.88,1.88,0,0,1,643.44,539.84Z" transform="translate(-411.44 -317.18)"/><path d="M602.36,594.56a2,2,0,0,1-2-2v-6.63a2,2,0,0,1,4,0v6.63C604.62,593.63,603.69,594.56,602.36,594.56Z" transform="translate(-411.44 -317.18)"/><path d="M585.67,592.84a2,2,0,0,1-2-2v-6.63a2,2,0,0,1,4,0v6.63A2,2,0,0,1,585.67,592.84Z" transform="translate(-411.44 -317.18)"/><path d="M593.62,608.86a2,2,0,0,1-2-2v-6.63a2,2,0,0,1,4,0v6.63A2,2,0,0,1,593.62,608.86Z" transform="translate(-411.44 -317.18)"/><path d="M577.85,608.86a2,2,0,0,1-2-2v-6.63a2,2,0,0,1,4,0v6.63A2,2,0,0,1,577.85,608.86Z" transform="translate(-411.44 -317.18)"/><path d="M613,609.53a2,2,0,0,1-2-2v-6.62a2,2,0,1,1,4,0v6.62A2,2,0,0,1,613,609.53Z" transform="translate(-411.44 -317.18)"/><path d="M632.31,609.53a2,2,0,0,1-2-2v-6.62a2,2,0,0,1,4,0v6.62A1.88,1.88,0,0,1,632.31,609.53Z" transform="translate(-411.44 -317.18)"/><path d="M648.08,608.07a2.3,2.3,0,0,1-2.26-2l-.39-6.62a2.12,2.12,0,0,1,4.24-.27l.39,6.63A2,2,0,0,1,648.08,608.07Z" transform="translate(-411.44 -317.18)"/><path d="M666.1,610.85a2.29,2.29,0,0,1-2.26-2l-.39-6.63a2.12,2.12,0,1,1,4.24-.26l.39,6.62A1.88,1.88,0,0,1,666.1,610.85Z" transform="translate(-411.44 -317.18)"/><path d="M657.62,592.83a2.29,2.29,0,0,1-2.26-2l-.39-6.63a2.12,2.12,0,1,1,4.24-.26l.39,6.62A2.08,2.08,0,0,1,657.62,592.83Z" transform="translate(-411.44 -317.18)"/><path d="M621.84,592.84a2,2,0,0,1-2-2v-6.63a2,2,0,0,1,4,0v6.63A1.88,1.88,0,0,1,621.84,592.84Z" transform="translate(-411.44 -317.18)"/><path d="M593.62,576.14a2,2,0,0,1-2-2v-6.62a2,2,0,0,1,4,0v6.62A2,2,0,0,1,593.62,576.14Z" transform="translate(-411.44 -317.18)"/><path d="M610.71,576.14a2,2,0,0,1-2-2v-6.62a2,2,0,0,1,4,0v6.62C613,575.21,612,576.14,610.71,576.14Z" transform="translate(-411.44 -317.18)"/><path d="M628.33,576.14a2,2,0,0,1-2-2v-6.62a2,2,0,1,1,4,0v6.62A2,2,0,0,1,628.33,576.14Z" transform="translate(-411.44 -317.18)"/><path d="M649.4,575.88a2,2,0,0,1-2-2v-6.62a2,2,0,0,1,4,0v6.62C651.65,574.68,650.73,575.88,649.4,575.88Z" transform="translate(-411.44 -317.18)"/><path d="M663.84,575.88a2,2,0,0,1-2-2v-6.62a2,2,0,1,1,4,0v6.62A2,2,0,0,1,663.84,575.88Z" transform="translate(-411.44 -317.18)"/><path d="M638.67,592.17a2,2,0,0,1-2-2v-6.62a2,2,0,0,1,4,0v6.62A2.25,2.25,0,0,1,638.67,592.17Z" transform="translate(-411.44 -317.18)"/><path class="cls-2" d="M572.16,452.4c-26.11,18.15-45.45,65.18-48.9,119.76v1.2l-.13,2.38L512,778.84l50.62,3.58,2.91-61.87,16.3-272.65C582,447.76,574.14,450.94,572.16,452.4Z" transform="translate(-411.44 -317.18)"/><path class="cls-23" d="M535.59,510.43a231.59,231.59,0,0,0-12.46,61.73v1.2l-.13,2.38-11.13,203.1,50.61,3.58,2.92-61.87L581.7,447.9" transform="translate(-411.44 -317.18)"/><path class="cls-24" d="M524.32,620.26l-3.71.13-2.38,45.84c8.35,1.32,20.4,2.38,25-1.72,7.42-6.36,6.1-44.52,6.1-44.52Z" transform="translate(-411.44 -317.18)"/><path class="cls-24" d="M578,512.41l3.84-64.25-.14-.13c-.53.4-2.91.53-5,1.85-2.78,7.95-13.38,38.56-13.38,38.56l6.49,1.45v.4l-10.07,6.89,10.6,125.33v18Z" transform="translate(-411.44 -317.18)"/><path class="cls-2" d="M624,452.53c26.1,18.15,47.44,64.92,51,119.5v1.19l.14,2.39,11.13,203.1-50.49,3.84-2.91-61.87L616.54,448A52.79,52.79,0,0,1,624,452.53Z" transform="translate(-411.44 -317.18)"/><path class="cls-23" d="M668,520.76l4.24,26.9a241.4,241.4,0,0,1,2.78,24.5v1.2l.14,2.38,11.13,203.1-50.49,3.71-2.91-61.87L616.54,448" transform="translate(-411.44 -317.18)"/><path class="cls-24" d="M674.05,620.26l3.71.13,2.38,45.84c-8.35,1.32-20.4,2.38-25-1.72C647.68,658.15,649,620,649,620Z" transform="translate(-411.44 -317.18)"/><path class="cls-24" d="M620.25,512.41l-3.84-64.25.13-.13c.53.4,2.39.53,5,1.32,2.78,7.95,13.38,39.09,13.38,39.09l-6.49,1.45v.4l10.07,6.89-10.6,125.33v18Z" transform="translate(-411.44 -317.18)"/><path class="cls-24" d="M564.47,495.72a3.18,3.18,0,0,1-3.31-1.72c-1.33-2.65-4.64-4.24-8.22-3.84s-6.49,2.78-7,5.7a3.27,3.27,0,0,1-2.91,2.38l-1.46.13a3.19,3.19,0,0,0-2.92,3.58l.4,3.31a3.31,3.31,0,0,0,3.71,2.78l22.92-2.65a3.17,3.17,0,0,0,2.92-3.57l-.4-3.31A3.42,3.42,0,0,0,564.47,495.72Zm-11.26-2c2.25-.14,4.11,1.06,4.24,2.91a3.77,3.77,0,0,1-3.58,3.84c-2.25.13-4.11-1.06-4.24-2.91A3.88,3.88,0,0,1,553.21,493.74Z" transform="translate(-411.44 -317.18)"/><path d="M584.21,599.85l-36.7,4.51A17.5,17.5,0,0,1,528,589l-8.21-67.83a17.5,17.5,0,0,1,15.37-19.48l36.7-4.5a17.5,17.5,0,0,1,19.48,15.37l8.21,67.83A17.57,17.57,0,0,1,584.21,599.85Z" transform="translate(-411.44 -317.18)"/><path class="cls-21" d="M557.71,582.1s45.58-20,51.54-27.42S592,559.45,592,559.45s17.09-7.29,15.9-11.53c-.93-4.24-19.08,6.36-19.08,6.36s18.95-9.67,17.22-13-20.4,8-20.4,8,19.48-9.68,17.49-13.52-20.8,7.55-20.8,7.55,10.73-8.74,8.21-11-19.87,13-41.34,20.53C527.5,560.77,557.71,582.1,557.71,582.1Z" transform="translate(-411.44 -317.18)"/><path class="cls-2" d="M483.51,556.14c41.87-3.18,66.12-7,66.12-7l13.52,33.52C521,620.92,421.24,613.1,464.43,540.37Z" transform="translate(-411.44 -317.18)"/><path class="cls-25" d="M464.43,540.64c-43.06,72.46,56.71,80.28,98.85,42.26l-13.65-33.65s-25,4.5-66.12,7" transform="translate(-411.44 -317.18)"/><path class="cls-21" d="M540.22,550.57c6-.93,9.68-1.46,9.68-1.46l13.51,33.52a68,68,0,0,1-9.8,7.42Z" transform="translate(-411.44 -317.18)"/><path class="cls-26" d="M571.36,400.47a29.17,29.17,0,0,1-4.11-23.19c3.32-13.38,28.22-20.4,31.14-19.47s14.31,1.45,14.31,1.45,13.78,0,15.37,13.38c1.85,13.39-4.24,29.15-4.64,31.14C623.3,405.9,579.84,415.44,571.36,400.47Z" transform="translate(-411.44 -317.18)"/><path class="cls-22" d="M607.66,440.87a7.62,7.62,0,0,1-7.42,7.56h-3.18a7.62,7.62,0,0,1-7.55-7.42l-.13-15.37a7.6,7.6,0,0,1,7.42-7.55H600a7.6,7.6,0,0,1,7.55,7.42Z" transform="translate(-411.44 -317.18)"/><path class="cls-22" d="M562.62,404.31a7.23,7.23,0,0,0,7,7.42,7.05,7.05,0,0,0,7.42-6.89,7.15,7.15,0,0,0-7-7.42A7,7,0,0,0,562.62,404.31Z" transform="translate(-411.44 -317.18)"/><path class="cls-26" d="M573.22,405.5v-.93h0V404c0-.26-.14-.39-.14-.79h0v-.13c0-.14-.13-.14-.13-.4a.13.13,0,0,0-.13-.13h0l-.4-.4a.13.13,0,0,1-.13-.13h0c-.13,0-.13-.14-.4-.14h-.26c-.14,0-.4-.13-.53-.13h-1.33c-.4,0-.53-.13-.53-.53s.13-.53.53-.53a4.68,4.68,0,0,1,4.24,1.72,5.4,5.4,0,0,1,.93,2.79v.53c0,.39-.13.53-.53.53C573.48,406,573.08,405.9,573.22,405.5Z" transform="translate(-411.44 -317.18)"/><path class="cls-22" d="M633.5,405.24a7.31,7.31,0,0,1-7.42,6.89,7.16,7.16,0,0,1-7-7.42,7,7,0,0,1,7.42-6.89A7.41,7.41,0,0,1,633.5,405.24Z" transform="translate(-411.44 -317.18)"/><path class="cls-26" d="M621.84,405.9a4.89,4.89,0,0,1,2.65-4.51,4.47,4.47,0,0,1,2.92-.13c.39,0,.39.4.39.8s-.39.39-.79.39a4.62,4.62,0,0,0-2,.14s-.13.13-.13,0a.13.13,0,0,0-.13.13c-.14,0-.14.13-.4.13h0a.13.13,0,0,0-.13.13c-.14,0-.14.14-.14.4h0a.13.13,0,0,1-.13.13c0,.14-.13.14-.13.4V404h0c0,.14,0,.14-.13.4s-.14.4-.14.53v.13h0v.67C622.9,406.56,621.84,406.56,621.84,405.9Z" transform="translate(-411.44 -317.18)"/><path class="cls-22" d="M620.91,407A19.93,19.93,0,0,1,601,426.43h-6.36a19.94,19.94,0,0,1-19.48-19.87l.14-21.06A19.94,19.94,0,0,1,595.21,366h6.36a19.94,19.94,0,0,1,19.48,19.87Z" transform="translate(-411.44 -317.18)"/><path class="cls-26" d="M624.89,370.39c-1.72-2.25-7.29-6-11.66-7.95.93-20.53-54.19-32.19-42.4-2.65,0,0-18.15-7.81-21.07,1.33-7.42,22,45.45,29.15,60.42,9.41,3.18,1.06,7,3.57,7.82,7.55,1.32,7.28,3.18,23.18,3.18,23.18a45.65,45.65,0,0,1,2.38-7C624.76,391.19,627.41,373.84,624.89,370.39Z" transform="translate(-411.44 -317.18)"/><path class="cls-27" d="M597.86,391.32l-2.52,10.6,5.57-.13Z" transform="translate(-411.44 -317.18)"/><path class="cls-28" d="M587.52,406.43a5.79,5.79,0,1,1-5.16-6.36A5.88,5.88,0,0,1,587.52,406.43Z" transform="translate(-411.44 -317.18)"/><path class="cls-28" d="M619.06,406.43a5.8,5.8,0,1,1-5.17-6.36A6,6,0,0,1,619.06,406.43Z" transform="translate(-411.44 -317.18)"/><path class="cls-29" d="M594.41,409.74a4.41,4.41,0,0,0,4.51,4.11,4.56,4.56,0,0,0,4.5-3.84Z" transform="translate(-411.44 -317.18)"/><path class="cls-15" d="M586.07,395.43a2.72,2.72,0,1,1-2.65-2.78A3,3,0,0,1,586.07,395.43Z" transform="translate(-411.44 -317.18)"/><path class="cls-15" d="M614,395.43a2.72,2.72,0,1,1-2.65-2.78A2.85,2.85,0,0,1,614,395.43Z" transform="translate(-411.44 -317.18)"/><path class="cls-22" d="M607.4,454H590.84a8.88,8.88,0,0,1-8.88-8.88V441a8.88,8.88,0,0,1,8.88-8.88H607.4a8.88,8.88,0,0,1,8.88,8.88v4.1A8.88,8.88,0,0,1,607.4,454Z" transform="translate(-411.44 -317.18)"/><path class="cls-30" d="M585.14,433.59V452.4" transform="translate(-411.44 -317.18)"/><path class="cls-30" d="M589,432.13V454" transform="translate(-411.44 -317.18)"/><path class="cls-30" d="M593.22,432.13V454" transform="translate(-411.44 -317.18)"/><path class="cls-30" d="M597.86,432.13V454" transform="translate(-411.44 -317.18)"/><path class="cls-30" d="M602,432.13V454" transform="translate(-411.44 -317.18)"/><path class="cls-30" d="M606.21,432.13V454" transform="translate(-411.44 -317.18)"/><path class="cls-30" d="M609.92,432.13V454" transform="translate(-411.44 -317.18)"/><path class="cls-30" d="M613.1,434.38l.13,17.49" transform="translate(-411.44 -317.18)"/><path d="M771.83,568.19,745.06,862.57H709l6.22-294.51Z" transform="translate(-411.44 -317.18)"/><path d="M771.83,568.19,799,862.57h36l-6-294.51Z" transform="translate(-411.44 -317.18)"/><path class="cls-31" d="M907.77,570.58s72.74,1.32,78.57-3.18c4-3.18-26.23-3.45-26.23-3.45s27.82-2.38,28.48-5S960,557.86,960,557.86s28.61-2.78,28.75-5.57-28.36-1.72-28.36-1.72,29.28-4.77,28.89-7.42-40.68-.26-40.68-.26,20.8-8.22,20.4-11.4c-.53-2.91-23.71,5.17-36,7s-27.56,1.2-27.56,1.2Z" transform="translate(-411.44 -317.18)"/><path class="cls-32" d="M919.7,538.25c-1.06,11.53-3.05,22.79-5,34.18-15.1.27-64.53,19.08-102.68-32.06-33.26-44.51-23.85-105.85-28.23-135C852,424.71,857.29,502.35,919.7,538.25Z" transform="translate(-411.44 -317.18)"/><path class="cls-32" d="M910,532.16c3.45,2,6.63,4.5,10.07,6.22-1.06,11.4-3.18,23.06-5.16,34.32-3.32.26-6.76.53-10.07.66C907.51,560.11,908.7,545.67,910,532.16Z" transform="translate(-411.44 -317.18)"/><path class="cls-32" d="M635,533.61c-1.86-9.67-2.65-21.59,6.36-36.83,44.39-74.72,114.61-90.48,114.61-90.48L736.45,524.08Z" transform="translate(-411.44 -317.18)"/><path class="cls-32" d="M845.1,619.73c2.38-47.7-.27-62.53-.27-78.3,0-77.9-32.85-141-73.27-141s-68.9,63.46-73.4,141c-.93,15.5-1.59,30.6.93,78.17h60.42l-2.79-48.36,32.2-1.59-2.38,50Z" transform="translate(-411.44 -317.18)"/><path class="cls-26" d="M745.46,368.67s-1.19-7.42-4-22.52c-4.77-17.22,17.75-24.91,20.53-24l23.72,6.49s13.38,0,15.11,13S796.61,370,796.34,372C796.08,373.7,753.81,383.24,745.46,368.67Z" transform="translate(-411.44 -317.18)"/><path class="cls-33" d="M780.84,398.88a7.57,7.57,0,0,1-7.29,7.42h-3a7.57,7.57,0,0,1-7.42-7.29l-.13-6.09a7.55,7.55,0,0,1,7.29-7.42h3a7.56,7.56,0,0,1,7.42,7.28Z" transform="translate(-411.44 -317.18)"/><path class="cls-33" d="M737.11,372.38a7.28,7.28,0,0,0,6.89,7.29,7,7,0,0,0,7.29-6.63,7.25,7.25,0,0,0-6.89-7.28A6.51,6.51,0,0,0,737.11,372.38Z" transform="translate(-411.44 -317.18)"/><path class="cls-26" d="M747.32,373.44v-.8h0v-.53a2.67,2.67,0,0,1-.14-.79h0v-.13c0-.14-.13-.14-.13-.27a.13.13,0,0,0-.13-.13h0l-.27-.27a.13.13,0,0,1-.13-.13h0c-.13,0-.13-.13-.26-.13h-.53c-.14,0-.27-.13-.53-.13H744a.49.49,0,0,1-.53-.53c0-.4.14-.53.53-.53a4.79,4.79,0,0,1,4.24,1.59,5.31,5.31,0,0,1,.93,2.65v.53a.49.49,0,0,1-.53.53C747.45,374.1,747.18,373.7,747.32,373.44Z" transform="translate(-411.44 -317.18)"/><path class="cls-33" d="M806,373.31a7,7,0,0,1-7.28,6.62,7.09,7.09,0,0,1-6.89-7.28,6.72,6.72,0,0,1,7.28-6.63A7.26,7.26,0,0,1,806,373.31Z" transform="translate(-411.44 -317.18)"/><path class="cls-26" d="M794.75,373.71a4.82,4.82,0,0,1,2.52-4.38,7.22,7.22,0,0,1,2.91-.13c.27,0,.27.27.27.8s-.27.26-.8.26a4.76,4.76,0,0,0-2,.13s-.14.14-.14,0a.13.13,0,0,0-.13.14c-.13,0-.13.13-.26.13h0s-.14,0-.14.13-.13.13-.13.27h0a.13.13,0,0,1-.13.13c0,.13-.13.13-.13.26v.4h0c0,.13,0,.13-.14.27s-.13.26-.13.53v.13h0v.66C795.81,374.5,794.75,374.5,794.75,373.71Z" transform="translate(-411.44 -317.18)"/><path class="cls-33" d="M793.82,374.77a19.39,19.39,0,0,1-19.47,18.94h-6.23a19.4,19.4,0,0,1-19-19.47l.13-20.67a19.41,19.41,0,0,1,19.48-18.95H775a19.41,19.41,0,0,1,19,19.48Z" transform="translate(-411.44 -317.18)"/><path class="cls-26" d="M746,339c1.59-2.12,7-5.69,11.4-7.81-.93-20,31.66-15.37,45.18-5.83,0,0,6.49,3.84,3.84,12.72-2.12,7.68-31.4,20.4-46,1.19-3,1.06-6.89,3.44-7.55,7.42-1.19,7-3.18,24.64-3.18,24.64s-1.59-4.5-2.91-7.68C745.73,360.72,743.74,342.17,746,339Z" transform="translate(-411.44 -317.18)"/><path class="cls-27" d="M771.43,359.8,768.78,370l5.43-.14Z" transform="translate(-411.44 -317.18)"/><path class="cls-28" d="M762.55,374.77a5.72,5.72,0,1,1-5.16-6.23A6,6,0,0,1,762.55,374.77Z" transform="translate(-411.44 -317.18)"/><path class="cls-28" d="M792,374.37a5.72,5.72,0,1,1-5.17-6.23C790,368.67,792.37,371.19,792,374.37Z" transform="translate(-411.44 -317.18)"/><path class="cls-34" d="M768,377.68a4.41,4.41,0,0,0,8.74.26Z" transform="translate(-411.44 -317.18)"/><path class="cls-15" d="M759.77,363.64a2.59,2.59,0,1,1-2.52-2.65A2.63,2.63,0,0,1,759.77,363.64Z" transform="translate(-411.44 -317.18)"/><path class="cls-15" d="M787.07,363.64a2.59,2.59,0,1,1-2.52-2.65A2.63,2.63,0,0,1,787.07,363.64Z" transform="translate(-411.44 -317.18)"/><path class="cls-2" d="M792.37,489.36c.53,25.71-2.79,68-3.58,78.57l-32.33.53s-2-27-4.51-80c-1.72-36.3-4.24-93.27,20.28-93C798.73,395.7,791.44,438.09,792.37,489.36Z" transform="translate(-411.44 -317.18)"/><path class="cls-35" d="M748,408.55c-11.4,14-14.71,32.46-14.71,32.46l13,1.59-11.8,11s13.78,133,16.17,166" transform="translate(-411.44 -317.18)"/><path class="cls-35" d="M795.94,408.41c11.4,14,14.71,32.46,14.71,32.46l-13,1.59,11.79,11s-11.4,125.46-14.18,166.27" transform="translate(-411.44 -317.18)"/><path class="cls-35" d="M787.07,403.38c12.45,20.93,0,183.76-.4,216.35" transform="translate(-411.44 -317.18)"/><path class="cls-35" d="M758.45,403.38c-15.24,39.35-1.59,146,.92,216.35" transform="translate(-411.44 -317.18)"/><path class="cls-36" d="M763,396.23s-10.73,11.13-.13,22.39l8.88-11.4S763,408.42,763,396.23Z" transform="translate(-411.44 -317.18)"/><path class="cls-36" d="M780.84,396s11.26,11.79.66,23.05l-8.88-11.79C772.49,407.22,780.84,408,780.84,396Z" transform="translate(-411.44 -317.18)"/><path class="cls-37" d="M717.11,571s71.15,1.06,75.12-2-15.76-3.32-15.76-3.32,17.88-1.72,18.55-4.1-19.48-2.78-19.48-2.78,20.27-2.39,20.4-5c.4-2.65-19.21-2-19.21-2s18.82-4.1,18.42-6.89-37.23-1.06-37.23-1.06,20.93-8.08,20.4-11.12-23.85,4.9-36.17,6.62-27.56.93-27.56.93Z" transform="translate(-411.44 -317.18)"/><path class="cls-38" d="M664.51,514c39.35,11.39,62.67,16.29,62.67,16.29l1.19,41.07c-56.71,23.45-130.11-36.3-76-78.16Z" transform="translate(-411.44 -317.18)"/><path class="cls-39" d="M645.82,489.89c-41.47,57.37,31.41,102,82.81,81.75l-1.45-41.21s-24.38-4.5-62.67-16.29" transform="translate(-411.44 -317.18)"/><path class="cls-32" d="M718.17,528.31l9.4,2,1.33,41.2c-3.71,1.46-9.54,2.52-13.52,3.45Z" transform="translate(-411.44 -317.18)"/><path class="cls-40" d="M772.23,407.36l-6.89,8.34,3.18,6h7.81l2.92-5.69Z" transform="translate(-411.44 -317.18)"/><path class="cls-41" d="M768.52,421.53h8l4.9,90.75-8.75,15.11-11-15.11Z" transform="translate(-411.44 -317.18)"/><path d="M780.31,608.86H763.22l.13-37.76,17.22-.53Z" transform="translate(-411.44 -317.18)"/><line class="cls-42" x1="1.2" y1="321.65" x2="745.2" y2="321.65"/></g></svg>