<svg width="118" height="38" viewBox="0 0 118 38" fill="none" xmlns="http://www.w3.org/2000/svg">
<path d="M44.8098 18.9597L44.7603 19.0941C44.3644 19.9816 43.4489 20.3043 42.7808 20.3043C41.4447 20.3043 40.3808 19.0672 40.3808 17.5612C40.3808 16.2435 41.222 14.845 42.7561 14.845C43.2757 14.845 44.2407 15.0064 44.6861 16.0283L44.7603 16.1628L45.9727 15.356L45.9232 15.2215C45.3541 14.092 44.1912 13.4197 42.8056 13.4197C40.3313 13.4197 38.8467 15.4904 38.8467 17.4805C38.8467 19.4975 40.4055 21.6759 42.7313 21.6759C43.9685 21.6759 45.5026 21.0304 46.0222 19.7665L46.0717 19.632L44.8098 18.9597Z" fill="black"/>
<path d="M50.2535 13.4467C48.1008 13.4467 46.3193 15.3023 46.3193 17.5882C46.3193 19.5783 47.8039 21.7297 50.2287 21.7297C52.3814 21.7297 54.1381 19.8741 54.1381 17.6151C54.1629 15.5981 52.6536 13.4467 50.2535 13.4467ZM52.6041 17.5882C52.6041 18.906 51.7876 20.3044 50.2535 20.3044C48.6947 20.3044 47.8781 18.906 47.8781 17.5882C47.8781 16.2704 48.7194 14.872 50.2535 14.872C51.7381 14.872 52.6041 16.2435 52.6041 17.5882Z" fill="black"/>
<path d="M58.5919 13.4467C56.4392 13.4467 54.6577 15.3023 54.6577 17.5882C54.6577 19.5783 56.1423 21.7297 58.5671 21.7297C60.7198 21.7297 62.4766 19.8741 62.4766 17.6151C62.5013 15.5981 60.992 13.4467 58.5919 13.4467ZM60.9425 17.5882C60.9425 18.906 60.126 20.3044 58.5919 20.3044C57.0331 20.3044 56.2165 18.906 56.2165 17.5882C56.2165 16.2704 57.0578 14.872 58.5919 14.872C60.0517 14.872 60.9425 16.2435 60.9425 17.5882Z" fill="black"/>
<path d="M67.2024 16.7815H65.025V14.872H69.3055V13.5005H63.5156V21.676H67.2766C68.9344 21.676 69.9488 20.7347 69.9488 19.2018C69.9488 17.6958 68.9344 16.7815 67.2024 16.7815ZM68.39 19.1212C68.39 19.8473 67.9199 20.2776 67.1034 20.2776H65.025V18.0723H67.0786C67.9694 18.0723 68.39 18.4219 68.39 19.1212Z" fill="black"/>
<path d="M80.242 20.2776V13.5005H78.7327V20.2776H76.3078V13.5005H74.7738V20.2776H72.3489V13.5005H70.8396V21.6491H79.8709V23.1551H81.2565V20.2776H80.242Z" fill="black"/>
<path d="M83.7554 20.2776V18.153H87.2689V16.8352H83.7554V14.8989H87.8133V13.5005H82.2461V21.6491H87.9123V20.2776H83.7554Z" fill="black"/>
<path d="M94.271 18.9597L94.2215 19.0941C93.8257 19.9816 92.9102 20.3043 92.2421 20.3043C90.906 20.3043 89.842 19.0672 89.842 17.5612C89.842 16.2435 90.6833 14.845 92.2174 14.845C92.737 14.845 93.7019 15.0064 94.1473 16.0283L94.2215 16.1628L95.434 15.356L95.3597 15.2215C94.7906 14.092 93.6277 13.4197 92.2421 13.4197C89.7678 13.4197 88.2832 15.4904 88.2832 17.4805C88.2832 19.4975 89.842 21.6759 92.1679 21.6759C93.405 21.6759 94.9391 21.0304 95.4587 19.7665L95.5082 19.632L94.271 18.9597Z" fill="black"/>
<path d="M95.6572 13.5005V14.8989H98.28V21.6491H99.7893V14.8989H102.412V13.5005H95.6572Z" fill="black"/>
<path d="M108.4 17.4538C108.969 17.0773 109.315 16.4049 109.315 15.6519C109.315 14.6031 108.573 13.5005 107.385 13.5005H103.204V21.676H107.088C108.598 21.676 109.662 20.7885 109.662 19.4977C109.662 18.5564 109.191 17.8034 108.4 17.4538ZM108.103 19.2556C108.103 19.8204 107.657 20.3045 107.088 20.3045H104.713V18.1799H107.163C107.682 18.1799 108.103 18.664 108.103 19.2556ZM104.713 16.889V14.872H106.94C107.459 14.872 107.831 15.3023 107.831 15.894C107.831 16.4587 107.41 16.889 106.89 16.889H104.713Z" fill="black"/>
<path d="M114.115 13.4467C111.963 13.4467 110.181 15.3023 110.181 17.5882C110.181 19.5783 111.666 21.7297 114.091 21.7297C116.243 21.7297 118 19.8741 118 17.6151C118 15.5981 116.515 13.4467 114.115 13.4467ZM116.466 17.5882C116.466 18.906 115.649 20.3044 114.115 20.3044C112.556 20.3044 111.74 18.906 111.74 17.5882C111.74 16.2704 112.581 14.872 114.115 14.872C115.575 14.872 116.466 16.2435 116.466 17.5882Z" fill="black"/>
<path d="M39.9351 0.941162V9.11668H41.4444V2.3396H44.9084V9.11668H46.4425V0.941162H39.9351Z" fill="black"/>
<path d="M51.3914 0.941162H47.9521V9.11668H49.4615V6.37358H51.4657C53.0245 6.37358 53.9647 5.00203 53.9647 3.65737C53.9647 2.33961 52.9255 0.941162 51.3914 0.941162ZM52.4307 3.65737C52.4307 4.43727 51.9853 4.97513 51.3667 4.97513H49.4615V2.3396H51.3172C51.9358 2.3396 52.4307 2.90436 52.4307 3.65737Z" fill="black"/>
<path d="M58.2699 0.887451C56.1172 0.887451 54.3357 2.74308 54.3357 5.02899C54.3357 7.01909 55.8203 9.17054 58.2451 9.17054C60.3978 9.17054 62.1545 7.31491 62.1545 5.05589C62.1793 3.0389 60.6947 0.887451 58.2699 0.887451ZM60.6205 5.02899C60.6205 6.34676 59.8039 7.7452 58.2699 7.7452C56.711 7.7452 55.8945 6.34676 55.8945 5.02899C55.8945 3.71123 56.7358 2.31279 58.2699 2.31279C59.7544 2.31279 60.6205 3.71123 60.6205 5.02899Z" fill="black"/>
<path d="M64.7032 7.71823V5.62057H68.2167V4.27591H64.7032V2.3396H68.7611V0.941162H63.1938V9.11668H68.86V7.71823H64.7032Z" fill="black"/>
<path d="M73.3632 4.92135L76.3571 0.941162H74.6004L72.1261 4.24902H71.4085V0.941162H69.8992V9.11668H71.4085V5.67435H72.1261L74.6993 9.11668H76.5798L73.3632 4.92135Z" fill="black"/>
<path d="M76.5801 0.941162V2.3396H79.2029V9.11668H80.7122V2.3396H83.335V0.941162H76.5801Z" fill="black"/>
<path d="M89.3472 0.941162V4.24902H85.6358V0.941162H84.1265V9.11668H85.6358V5.64746H89.3472V9.11668H90.8566V0.941162H89.3472Z" fill="black"/>
<path d="M95.7808 0.887451C93.6282 0.887451 91.8467 2.74308 91.8467 5.02899C91.8467 7.01909 93.3313 9.17054 95.7561 9.17054C97.9087 9.17054 99.6655 7.31491 99.6655 5.05589C99.6902 3.0389 98.2057 0.887451 95.7808 0.887451ZM98.1314 5.02899C98.1314 6.34676 97.3149 7.7452 95.7808 7.7452C94.222 7.7452 93.4055 6.34676 93.4055 5.02899C93.4055 3.71123 94.2468 2.31279 95.7808 2.31279C97.2654 2.31279 98.1314 3.71123 98.1314 5.02899Z" fill="black"/>
<path d="M102.214 7.71823V5.62057H105.727V4.27591H102.214V2.3396H106.272V0.941162H100.705V9.11668H106.371V7.71823H102.214Z" fill="black"/>
<path d="M13.9799 0L0 15.1946H20.9822V38L34.9621 22.8054V0H13.9799ZM31.4238 9.92357H28.6278V12.9625H25.8318V9.92357H23.0359V6.85775H25.8318V3.81883H28.6278V6.85775H31.4238V9.92357Z" fill="#9A1B1F"/>
</svg>
