<?xml version="1.0" encoding="utf-8"?>
<!-- Generator: Adobe Illustrator 23.0.1, SVG Export Plug-In . SVG Version: 6.00 Build 0)  -->
<!DOCTYPE svg PUBLIC "-//W3C//DTD SVG 1.1//EN" "http://www.w3.org/Graphics/SVG/1.1/DTD/svg11.dtd" [
	<!ENTITY ns_extend "http://ns.adobe.com/Extensibility/1.0/">
	<!ENTITY ns_ai "http://ns.adobe.com/AdobeIllustrator/10.0/">
	<!ENTITY ns_graphs "http://ns.adobe.com/Graphs/1.0/">
	<!ENTITY ns_vars "http://ns.adobe.com/Variables/1.0/">
	<!ENTITY ns_imrep "http://ns.adobe.com/ImageReplacement/1.0/">
	<!ENTITY ns_sfw "http://ns.adobe.com/SaveForWeb/1.0/">
	<!ENTITY ns_custom "http://ns.adobe.com/GenericCustomNamespace/1.0/">
	<!ENTITY ns_adobe_xpath "http://ns.adobe.com/XPath/1.0/">
]>
<svg version="1.1" id="Слой_1" xmlns:x="&ns_extend;" xmlns:i="&ns_ai;" xmlns:graph="&ns_graphs;"
	 xmlns="http://www.w3.org/2000/svg" xmlns:xlink="http://www.w3.org/1999/xlink" x="0px" y="0px" viewBox="0 0 56.7 56.7"
	 style="enable-background:new 0 0 56.7 56.7;" xml:space="preserve">
<style type="text/css">
	.st0{fill:#5AAD31;}
	.st1{fill:#3EB0E5;}
</style>
<metadata>
	<sfw  xmlns="&ns_sfw;">
		<slices></slices>
		<sliceSourceBounds  bottomLeftOrigin="true" height="56.7" width="56.7" x="-11.3" y="-11.3"></sliceSourceBounds>
	</sfw>
</metadata>
<title>Fill 1</title>
<desc>Created with Sketch.</desc>
<g>
	<g>
		<g>
			<path class="st0" d="M14.7,5.5h5.4v31.1c0,2.2,1.8,4,4,4h6.5V18.3h5.4v22.4h2.2v10.4h-4.5v-5.9H21.8c-3.9,0-7.1-3.2-7.1-7.1V5.5z
				"/>
		</g>
		<g>
			<path class="st1" d="M29.1,10.8h19.2v4.5H32.5c-2.2,0-4,1.8-4,4v18.4H23V16.9C23,13.5,25.7,10.8,29.1,10.8z"/>
		</g>
	</g>
	<path class="st1" d="M28.3,56.7c-7.6,0-14.7-2.9-20-8.3S0,35.9,0,28.3c0-7.6,2.9-14.7,8.3-20S20.8,0,28.3,0s14.7,2.9,20,8.3
		s8.3,12.5,8.3,20c0,7.6-2.9,14.7-8.3,20S35.9,56.7,28.3,56.7z M28.3,5.1c-6.2,0-12,2.4-16.4,6.8c-4.4,4.4-6.8,10.2-6.8,16.4
		s2.4,12,6.8,16.4c4.4,4.4,10.2,6.8,16.4,6.8s12-2.4,16.4-6.8c4.4-4.4,6.8-10.2,6.8-16.4s-2.4-12-6.8-16.4
		C40.4,7.5,34.5,5.1,28.3,5.1z"/>
</g>
</svg>
