<svg id="Слой_1" data-name="Слой 1" xmlns="http://www.w3.org/2000/svg" xmlns:xlink="http://www.w3.org/1999/xlink" viewBox="0 0 996.54 528.25"><defs><style>.cls-1,.cls-12,.cls-20,.cls-27,.cls-9{fill:none;}.cls-13,.cls-19,.cls-2,.cls-21,.cls-3,.cls-7{fill:#fff;}.cls-3{fill-opacity:0.5;}.cls-4{clip-path:url(#clip-path);}.cls-11,.cls-22,.cls-5{fill:#9fc051;}.cls-19,.cls-20,.cls-22,.cls-26,.cls-27,.cls-5,.cls-6,.cls-7{stroke:#030404;}.cls-10,.cls-11,.cls-12,.cls-13,.cls-19,.cls-20,.cls-21,.cls-22,.cls-26,.cls-27,.cls-5,.cls-6,.cls-7,.cls-9{stroke-miterlimit:10;}.cls-10,.cls-11,.cls-19,.cls-20,.cls-21,.cls-5,.cls-6,.cls-9{stroke-width:1.67px;}.cls-10,.cls-6,.cls-8{fill:#8ab4e1;}.cls-22,.cls-27,.cls-7{stroke-width:1.25px;}.cls-10,.cls-11,.cls-12,.cls-13,.cls-21,.cls-9{stroke:#000;}.cls-12{stroke-width:3.14px;}.cls-13{stroke-width:1.57px;}.cls-14{fill:#0b0c0c;}.cls-15{fill:#fffefe;}.cls-16{fill:#fad8e6;}.cls-17{fill:#ed6a5b;}.cls-18{fill:#020202;}.cls-23{fill:#030404;}.cls-24{fill:#df6886;}.cls-25{fill:#e8b4cc;}.cls-26{fill:#fffffe;stroke-width:0.83px;}</style><clipPath id="clip-path" transform="translate(-199.68 -216.12)"><rect class="cls-1" x="369.94" y="75.34" width="813.76" height="501.94"/></clipPath></defs><title>ppl2</title><circle class="cls-2" cx="186.96" cy="329.95" r="70.11"/><circle class="cls-2" cx="61.76" cy="318.26" r="11.68"/><circle class="cls-3" cx="128.53" cy="196.41" r="6.68"/><circle class="cls-3" cx="5.01" cy="214.77" r="5.01"/><circle class="cls-2" cx="929.77" cy="348.31" r="66.77"/><g class="cls-4"><path class="cls-2" d="M696.19,280.35a24.37,24.37,0,1,0-31.92,13A24.37,24.37,0,0,0,696.19,280.35Z" transform="translate(-199.68 -216.12)"/><path class="cls-2" d="M764.05,353.94a5,5,0,1,0,5-5A5.14,5.14,0,0,0,764.05,353.94Z" transform="translate(-199.68 -216.12)"/><path class="cls-2" d="M1043.82,280.66a6.68,6.68,0,1,0-6.68-6.68A6.7,6.7,0,0,0,1043.82,280.66Z" transform="translate(-199.68 -216.12)"/><path class="cls-2" d="M1105.4,472.14a21,21,0,1,0-29.75,0A21,21,0,0,0,1105.4,472.14Z" transform="translate(-199.68 -216.12)"/><path class="cls-2" d="M1072.36,576.28a56.78,56.78,0,0,0,3.17-19.36,65.51,65.51,0,0,0-1.67-14.19,29.95,29.95,0,0,0-6.84-59.09,29.57,29.57,0,0,0-12.85,2.84,100.1,100.1,0,0,0,6-34.06,97.11,97.11,0,0,0-5.85-33.55,47.42,47.42,0,1,0-36.55-87.47,54,54,0,0,0,3.5-18.86,52.27,52.27,0,0,0-101.32-18,65.33,65.33,0,0,0-107,50.08,79,79,0,0,0-61.43,63.1,112.35,112.35,0,0,0-20.19-11,61.86,61.86,0,0,0,10.18-33.89,64.09,64.09,0,0,0-3.17-19.69,39,39,0,0,0,9.84,1.17,42.57,42.57,0,1,0-42.56-42.57c0,1.84.17,3.5.33,5.17a62.75,62.75,0,0,0-26.2-5.84,61.71,61.71,0,0,0-50.92,26.88,109.87,109.87,0,0,0-182.28-23,18.09,18.09,0,0,0-14-6.51,18.52,18.52,0,0,0-4.17,36.56,109.71,109.71,0,0,0,18.19,112.34,78.83,78.83,0,0,0,39.9,142.38v1a15.19,15.19,0,0,0,30.38,0,13.06,13.06,0,0,0-.67-4.34c24-7.35,33.38,28.21,41.56,4.34,6.85,27,32.72-3.84,54.42,12.35a35.71,35.71,0,1,0,40.4,35.39,33.85,33.85,0,0,0-4.34-16.86,119.17,119.17,0,0,0,35.55,5.34A116.81,116.81,0,0,0,708,624.35v.84a57.79,57.79,0,0,0,7.34,28.21A15,15,0,1,0,732,672.26a57.29,57.29,0,0,0,34.06,11A58.14,58.14,0,0,0,822.64,638a84.54,84.54,0,0,0,26.21,4.18,83.21,83.21,0,0,0,35.39-7.85,58,58,0,0,0,98.82,31.22,17.58,17.58,0,0,0,9.35,2.67,18,18,0,0,0,18-18,18.23,18.23,0,0,0-11.51-16.86,65.94,65.94,0,0,0,.5-8.18A57.7,57.7,0,0,0,998.08,613a57.91,57.91,0,0,0,17.86,2.84,51.36,51.36,0,0,0-.83,8.85,49.41,49.41,0,0,0,98.82,0C1114.26,600.48,1096.07,580,1072.36,576.28ZM567.25,479.8c-.17,1-.5,1.83-.67,2.84-.33-.67-.5-1.51-.83-2.17A5.5,5.5,0,0,1,567.25,479.8Z" transform="translate(-199.68 -216.12)"/><path class="cls-2" d="M1093.39,330.9a13.69,13.69,0,1,0-13.68-13.69A13.69,13.69,0,0,0,1093.39,330.9Z" transform="translate(-199.68 -216.12)"/><path class="cls-5" d="M880.07,480.8,856,743.54H824.81L830.32,480Z" transform="translate(-199.68 -216.12)"/><path class="cls-5" d="M880.07,480.8l22.86,262.74h31.22L928.64,480.8Z" transform="translate(-199.68 -216.12)"/><path class="cls-6" d="M874.22,324.06s-114.51,34.55-91.81,110.67c12.86,43.06,91.48-4.68,101.49-5.18,10-.33,42.9,28.21,75.29,24.37,34.22-4,38.06-93.14-61.1-125.36Z" transform="translate(-199.68 -216.12)"/><path class="cls-7" d="M939.32,486.31a221.62,221.62,0,0,0,3.34-38.73c0-67.44-28.54-122.19-63.6-122.19-35.22,0-59.59,54.92-63.59,122.19-.84,13.52,1.16,26.54,3.33,38.73Z" transform="translate(-199.68 -216.12)"/><path class="cls-8" d="M857.2,331.4c-22,15.36-38.4,55.08-41.4,101.32v1.17l-.17,2-9.35,171.6,42.74,3,2.5-52.42,13.86-230.52A40.22,40.22,0,0,0,857.2,331.4Z" transform="translate(-199.68 -216.12)"/><path class="cls-9" d="M826.32,380.31a198.29,198.29,0,0,0-10.52,52.25v1.16l-.17,2-9.35,171.6,42.74,3,2.5-52.41,13.86-230.53" transform="translate(-199.68 -216.12)"/><path class="cls-10" d="M816.8,473.28l-3.17.17-2.17,38.73c7,1.17,17.19,2,21.2-1.34,6.34-5.34,5.17-37.56,5.17-37.56Z" transform="translate(-199.68 -216.12)"/><path class="cls-10" d="M862.2,382l3.18-54.42v-.17c-.51.34-2.51.5-4.34,1.67-2.34,6.68-11.36,32.55-11.36,32.55l5.51,1.34v.16L846.68,369l8.85,105.83V490Z" transform="translate(-199.68 -216.12)"/><path class="cls-8" d="M901.1,331.57c22,15.35,40.06,54.91,43.06,101v1.16l.17,2,9.35,171.6-42.73,3-2.51-52.41L894.59,327.39S899.43,330.23,901.1,331.57Z" transform="translate(-199.68 -216.12)"/><path class="cls-9" d="M938.15,389.15l3.51,22.71a167.56,167.56,0,0,1,2.34,20.7v1.16l.16,2,9.35,171.6-42.73,3-2.5-52.41L894.59,327.39" transform="translate(-199.68 -216.12)"/><path class="cls-10" d="M943.33,473.28l3.17.17,2.17,38.73c-7,1.17-17.19,2-21.2-1.34-6.34-5.34-5.17-37.56-5.17-37.56Z" transform="translate(-199.68 -216.12)"/><path class="cls-10" d="M897.93,382l-3.18-54.42v-.17a36.14,36.14,0,0,0,4.85,1.67c2.33,6.68,10.68,32.55,10.68,32.55L904.77,363v.16l8.51,5.85-8.84,105.83V490Z" transform="translate(-199.68 -216.12)"/><path class="cls-11" d="M880.07,338.08c8.11,0,14.68-4,14.68-9s-6.57-9-14.68-9-14.69,4-14.69,9S872,338.08,880.07,338.08Z" transform="translate(-199.68 -216.12)"/><path class="cls-12" d="M906.27,292.68a9.45,9.45,0,0,1-9.85,8.84,9.28,9.28,0,0,1-8.84-9.68,9.46,9.46,0,0,1,9.85-8.85A9.3,9.3,0,0,1,906.27,292.68Z" transform="translate(-199.68 -216.12)"/><path class="cls-13" d="M867.21,262l11.69.67c7.84.33,13.85,8,13.35,16.86l-1,18.19a4.62,4.62,0,0,1-.17,1.51,5.52,5.52,0,0,1,.17,1.66l-.5,11v.67l-.5,11a7.18,7.18,0,0,1-7.68,6.84l-4.67-.17a7.17,7.17,0,0,1-6.85-7.68l.5-9.84-6.84-.34c-7.85-.33-13.86-8-13.36-16.86l1-18.19C852.69,268.47,859.37,261.63,867.21,262Z" transform="translate(-199.68 -216.12)"/><path class="cls-14" d="M875.39,284.5a2.68,2.68,0,1,1-2.5-2.84A2.89,2.89,0,0,1,875.39,284.5Z" transform="translate(-199.68 -216.12)"/><path class="cls-14" d="M858,283.16a2.26,2.26,0,1,1-2.17-2.34A2.36,2.36,0,0,1,858,283.16Z" transform="translate(-199.68 -216.12)"/><path class="cls-15" d="M860,294.18s1.17,4,4,4.34,5.17-2.67,5.51-5Z" transform="translate(-199.68 -216.12)"/><path class="cls-14" d="M859.2,294.34a7,7,0,0,0,2.34,3.84,5.07,5.07,0,0,0,3.33,1.17,5.52,5.52,0,0,0,3.51-1.84,7.38,7.38,0,0,0,1.84-4,.9.9,0,0,0-.84-.84l-8.18.5a2.82,2.82,0,0,0-1.17.17.79.79,0,0,0-.83.84.78.78,0,0,0,.83.83l8.18-.5a2.78,2.78,0,0,0,1.17-.17l-.83-.83a5,5,0,0,1-3.68,4.17c-1.66.17-2.83-1.17-3.5-2.5a.61.61,0,0,1-.17-.5c0,.16,0-.17-.16-.17a.55.55,0,0,0-.17-.33C860.53,292.84,858.87,293.34,859.2,294.34Z" transform="translate(-199.68 -216.12)"/><path class="cls-16" d="M884.07,294.68a6.52,6.52,0,1,1-6.17-6.85A6.52,6.52,0,0,1,884.07,294.68Z" transform="translate(-199.68 -216.12)"/><path class="cls-16" d="M853.36,288.67h-1.17l-.34,6.84a17.94,17.94,0,0,0,.17,3,7.5,7.5,0,0,1,.84.16A4.79,4.79,0,0,0,858,294,4.92,4.92,0,0,0,853.36,288.67Z" transform="translate(-199.68 -216.12)"/><path class="cls-17" d="M863.71,281.32v9l-4.18-2.84Z" transform="translate(-199.68 -216.12)"/><path d="M888.58,291.51l-1.5-14.36s-39.57,3-51.42-16.86c-11.85-19.7,2-26.71,8.52-25.2,6.51,1.33,13.52,11,13.52,11s-5.68-8.51.5-9.51,12.52,5.67,15.52,12.35c0,0,26-1.17,34,15s.34,26.88-16.52,42.4l-.67-9.18Z" transform="translate(-199.68 -216.12)"/><path class="cls-2" d="M906.27,292.68a9.45,9.45,0,0,1-9.85,8.84,9.28,9.28,0,0,1-8.84-9.68,9.46,9.46,0,0,1,9.85-8.85A9.3,9.3,0,0,1,906.27,292.68Z" transform="translate(-199.68 -216.12)"/><path class="cls-18" d="M892.92,293.18v-1c0-.33.17-.5.17-.83a.56.56,0,0,1,.16-.33c.17-.34,0,.16,0,0a.17.17,0,0,1,.17-.17c.17-.33.33-.5.5-.84-.17.34,0,.17,0,0l.17-.16.33-.34c.17-.16-.17.17,0,0h.17l.16-.16.17-.17h.17l.33-.17c.17,0,.17,0,.34-.16h2.17a1.1,1.1,0,0,0,1.33-.84,1.09,1.09,0,0,0-.83-1.33c-2.17-.34-4.34-.17-6,1.5a6.24,6.24,0,0,0-1.67,3.67c0,.33-.17.67-.17,1,0,.5.5,1.17,1,1C892.42,294.34,892.92,293.84,892.92,293.18Z" transform="translate(-199.68 -216.12)"/><path d="M930,272.64a22.54,22.54,0,1,0-22.54-22.53A22.53,22.53,0,0,0,930,272.64Z" transform="translate(-199.68 -216.12)"/><path class="cls-19" d="M867.71,438.4s-53.08-11.69-61.26-16.86c-8-5.18,7.35-26.88,7.35-26.88s36.22,9.52,59.76,13.19C897.09,411.36,867.71,438.4,867.71,438.4Z" transform="translate(-199.68 -216.12)"/><path class="cls-8" d="M933.81,375.63S939.66,408.85,929,409c-10.85.33-60.76-7.18-60.76-7.18l-3.34,40.06s59.26,18.36,92.82,13.69c33.55-4.84,29.54-55.25,9.68-78.45" transform="translate(-199.68 -216.12)"/><path class="cls-6" d="M879.23,403.51c-6.51-1-11-1.67-11-1.67l-3.34,40.06s4.68,1.51,12,3.34Z" transform="translate(-199.68 -216.12)"/><path class="cls-20" d="M933.81,375.63S939.66,408.85,929,409c-10.85.33-60.76-7.18-60.76-7.18l-3.34,40.06s59.26,18.36,92.82,13.69c33.55-4.84,29.54-55.25,9.68-78.45l-2.67-3.84" transform="translate(-199.68 -216.12)"/><path class="cls-19" d="M812.46,356.77s6-12.69,23.7-30.38,26.54-23,27.71-22S855,317.21,855,317.21s19.86-12.52,25-12.52c5.17.17-12.69,11-12.69,11s14.69-10.18,16.36-8.18c1.83,2-13.86,10.35-13.86,10.35s14.69-9.35,16.19-7.51-13,10-13,10,13-8.34,14.86-6.34-3.67,4-12.35,10.51c-8.85,6.51-26.54,20.37-33.89,38.73C834.49,382,812.46,356.77,812.46,356.77Z" transform="translate(-199.68 -216.12)"/><path class="cls-6" d="M784.92,442.07a36.23,36.23,0,0,1-3-29.38c5.34-16.19,26.54-61.09,26.54-61.09l37.9,7.84s-4.51,41.73-5.85,56.42c-1.5,15.86-7.84,34.06-21.36,37.89C805.45,457.76,788.59,450.75,784.92,442.07Z" transform="translate(-199.68 -216.12)"/><path class="cls-6" d="M803.11,363.11l41.4,9.52c1-7.68,1.84-13.19,1.84-13.19l-37.9-7.84C808.29,351.6,806.12,356.27,803.11,363.11Z" transform="translate(-199.68 -216.12)"/><path d="M672.91,469.28,648,741.2H614.82l5.68-272.09Z" transform="translate(-199.68 -216.12)"/><path d="M672.91,469.28,698,741.2h33.39l-5.68-272.09Z" transform="translate(-199.68 -216.12)"/><path class="cls-21" d="M772.73,492s-2.33,65.77-5.34,69.27-2.34-14.69-2.34-14.69-2.33,16.36-4.67,16.86-1.67-18.19-1.67-18.19-3.17,18.53-5.67,18.69-1-17.86-1-17.86-4.67,17.2-7.17,16.7.83-34.39.83-34.39-8.35,18.86-11.18,18.36c-2.67-.67,5.67-21.7,7.84-33.05s2.17-25.37,2.17-25.37Z" transform="translate(-199.68 -216.12)"/><path class="cls-19" d="M746.53,522.2H776.4s26.05-176.44-90-212.83Z" transform="translate(-199.68 -216.12)"/><path class="cls-19" d="M743.69,512.35l2.84,9.85H776.4s.51-3.84,1.17-10.35Z" transform="translate(-199.68 -216.12)"/><path class="cls-19" d="M543.21,429.22c-1.67-8.85.67-20.2,9-34.22,41.07-69.11,105.84-83.63,105.84-83.63L640.19,409Z" transform="translate(-199.68 -216.12)"/><path class="cls-22" d="M736.84,480.63a249.59,249.59,0,0,0,3.51-41.23c0-71.94-30.38-130.2-67.77-130.2S609,367.79,604.81,439.4c-.84,14.36,1.16,28.21,3.5,41.23Z" transform="translate(-199.68 -216.12)"/><path class="cls-22" d="M605.81,463.77c.5,5.68,1.33,11.35,2.33,16.86H736.68c0-.33.16-.83.16-1.17.17-1,.34-2,.5-3.17.34-1.84.51-3.67.84-5.51v-.5c.17-2,.5-4,.67-6v-.5Z" transform="translate(-199.68 -216.12)"/><path class="cls-9" d="M610.65,463.77l1.5,16.86" transform="translate(-199.68 -216.12)"/><path class="cls-9" d="M616.49,463.77l.67,16.86" transform="translate(-199.68 -216.12)"/><path class="cls-9" d="M623,463.77v16.86" transform="translate(-199.68 -216.12)"/><path class="cls-9" d="M628.68,463.77l-.17,16.86" transform="translate(-199.68 -216.12)"/><path class="cls-9" d="M633.85,463.94V480.8" transform="translate(-199.68 -216.12)"/><path class="cls-9" d="M639,463.77v16.86" transform="translate(-199.68 -216.12)"/><path class="cls-9" d="M644.7,463.77v16.86" transform="translate(-199.68 -216.12)"/><path class="cls-9" d="M651.55,463.94V480.8" transform="translate(-199.68 -216.12)"/><path class="cls-9" d="M655.89,463.94V480.8" transform="translate(-199.68 -216.12)"/><path class="cls-9" d="M661.73,463.94V480.8" transform="translate(-199.68 -216.12)"/><path class="cls-9" d="M667.74,463.94V480.8" transform="translate(-199.68 -216.12)"/><path class="cls-9" d="M673.08,463.94V480.8" transform="translate(-199.68 -216.12)"/><path class="cls-9" d="M679.76,463.94V480.8" transform="translate(-199.68 -216.12)"/><path class="cls-9" d="M686.1,463.94V480.8" transform="translate(-199.68 -216.12)"/><path class="cls-9" d="M691.61,463.94V480.8" transform="translate(-199.68 -216.12)"/><path class="cls-9" d="M696.78,463.94V480.8" transform="translate(-199.68 -216.12)"/><path class="cls-9" d="M702.29,463.77v16.86" transform="translate(-199.68 -216.12)"/><path class="cls-9" d="M708.47,463.94V480.8" transform="translate(-199.68 -216.12)"/><path class="cls-9" d="M714,463.94V480.8" transform="translate(-199.68 -216.12)"/><path class="cls-9" d="M719.32,463.94V480.8" transform="translate(-199.68 -216.12)"/><path class="cls-9" d="M724.83,463.94V480.8" transform="translate(-199.68 -216.12)"/><path class="cls-9" d="M730,463.94V480.8" transform="translate(-199.68 -216.12)"/><path class="cls-9" d="M734.51,463.94V480.8" transform="translate(-199.68 -216.12)"/><path d="M672.41,347.93a1.86,1.86,0,0,1-1.84-1.84v-6a1.84,1.84,0,0,1,3.68,0v6A1.76,1.76,0,0,1,672.41,347.93Z" transform="translate(-199.68 -216.12)"/><path d="M657.39,346.43a1.86,1.86,0,0,1-1.84-1.84v-6a1.84,1.84,0,1,1,3.67,0v6A1.85,1.85,0,0,1,657.39,346.43Z" transform="translate(-199.68 -216.12)"/><path d="M664.4,360.78a1.86,1.86,0,0,1-1.84-1.84v-6a1.84,1.84,0,0,1,3.67,0v6A1.66,1.66,0,0,1,664.4,360.78Z" transform="translate(-199.68 -216.12)"/><path d="M681.76,361.45a1.86,1.86,0,0,1-1.84-1.84v-6a1.84,1.84,0,0,1,3.67,0v6A1.66,1.66,0,0,1,681.76,361.45Z" transform="translate(-199.68 -216.12)"/><path d="M699.45,361.45a1.85,1.85,0,0,1-1.83-1.84v-6a1.84,1.84,0,0,1,3.67,0v6A1.86,1.86,0,0,1,699.45,361.45Z" transform="translate(-199.68 -216.12)"/><path d="M713.47,360.11a2,2,0,0,1-2-1.83l-.33-6a1.92,1.92,0,1,1,3.84-.17l.33,6A1.8,1.8,0,0,1,713.47,360.11Z" transform="translate(-199.68 -216.12)"/><path d="M689.94,346.43a1.86,1.86,0,0,1-1.84-1.84v-6a1.84,1.84,0,1,1,3.67,0v6A1.85,1.85,0,0,1,689.94,346.43Z" transform="translate(-199.68 -216.12)"/><path d="M664.4,331.4a1.85,1.85,0,0,1-1.84-1.83v-6a1.84,1.84,0,1,1,3.67,0v6A1.66,1.66,0,0,1,664.4,331.4Z" transform="translate(-199.68 -216.12)"/><path d="M679.92,331.4a1.84,1.84,0,0,1-1.83-1.83v-6a1.84,1.84,0,1,1,3.67,0v6A1.85,1.85,0,0,1,679.92,331.4Z" transform="translate(-199.68 -216.12)"/><path d="M695.61,331.4a1.84,1.84,0,0,1-1.83-1.83v-6a1.84,1.84,0,1,1,3.67,0v6A1.66,1.66,0,0,1,695.61,331.4Z" transform="translate(-199.68 -216.12)"/><path d="M705.13,345.76a1.86,1.86,0,0,1-1.84-1.84v-6a1.84,1.84,0,1,1,3.67,0v6A1.85,1.85,0,0,1,705.13,345.76Z" transform="translate(-199.68 -216.12)"/><path d="M680.76,396.5a1.85,1.85,0,0,1-1.84-1.83v-6a1.84,1.84,0,1,1,3.67,0v6A1.66,1.66,0,0,1,680.76,396.5Z" transform="translate(-199.68 -216.12)"/><path d="M665.73,395a1.85,1.85,0,0,1-1.83-1.84v-6a1.84,1.84,0,0,1,3.67,0v6A1.85,1.85,0,0,1,665.73,395Z" transform="translate(-199.68 -216.12)"/><path d="M672.91,409.36a1.85,1.85,0,0,1-1.83-1.84v-6a1.84,1.84,0,0,1,3.67,0v6A1.86,1.86,0,0,1,672.91,409.36Z" transform="translate(-199.68 -216.12)"/><path d="M690.27,410a1.84,1.84,0,0,1-1.83-1.83v-6a1.84,1.84,0,1,1,3.67,0v6A1.85,1.85,0,0,1,690.27,410Z" transform="translate(-199.68 -216.12)"/><path d="M707.8,410a1.85,1.85,0,0,1-1.84-1.83v-6a1.84,1.84,0,1,1,3.67,0v6A1.84,1.84,0,0,1,707.8,410Z" transform="translate(-199.68 -216.12)"/><path d="M722,408.69a2,2,0,0,1-2-1.84l-.33-6a1.92,1.92,0,0,1,3.84-.16l.33,6A1.89,1.89,0,0,1,722,408.69Z" transform="translate(-199.68 -216.12)"/><path d="M730.5,395a2,2,0,0,1-2-1.84l-.34-6A1.92,1.92,0,0,1,732,387l.34,6A1.8,1.8,0,0,1,730.5,395Z" transform="translate(-199.68 -216.12)"/><path d="M698.28,395a1.85,1.85,0,0,1-1.83-1.84v-6a1.84,1.84,0,0,1,3.67,0v6A1.75,1.75,0,0,1,698.28,395Z" transform="translate(-199.68 -216.12)"/><path d="M672.91,380a1.85,1.85,0,0,1-1.83-1.84v-6a1.84,1.84,0,1,1,3.67,0v6A1.86,1.86,0,0,1,672.91,380Z" transform="translate(-199.68 -216.12)"/><path d="M688.27,380a1.86,1.86,0,0,1-1.84-1.84v-6a1.84,1.84,0,1,1,3.67,0v6A1.66,1.66,0,0,1,688.27,380Z" transform="translate(-199.68 -216.12)"/><path d="M704.13,380a1.85,1.85,0,0,1-1.84-1.84v-6a1.84,1.84,0,1,1,3.67,0v6A1.85,1.85,0,0,1,704.13,380Z" transform="translate(-199.68 -216.12)"/><path d="M723.16,379.64a1.85,1.85,0,0,1-1.84-1.83v-6a1.84,1.84,0,1,1,3.67,0v6A1.66,1.66,0,0,1,723.16,379.64Z" transform="translate(-199.68 -216.12)"/><path d="M713.47,394.33a1.84,1.84,0,0,1-1.83-1.83v-6a1.84,1.84,0,1,1,3.67,0v6A1.85,1.85,0,0,1,713.47,394.33Z" transform="translate(-199.68 -216.12)"/><path d="M676.42,443.57a1.85,1.85,0,0,1-1.84-1.83v-6a1.84,1.84,0,1,1,3.67,0v6A1.66,1.66,0,0,1,676.42,443.57Z" transform="translate(-199.68 -216.12)"/><path d="M661.39,442.07a1.85,1.85,0,0,1-1.83-1.84v-6a1.84,1.84,0,0,1,3.67,0v6A1.85,1.85,0,0,1,661.39,442.07Z" transform="translate(-199.68 -216.12)"/><path d="M668.57,456.43a1.85,1.85,0,0,1-1.83-1.84v-6a1.84,1.84,0,0,1,3.67,0v6A1.86,1.86,0,0,1,668.57,456.43Z" transform="translate(-199.68 -216.12)"/><path d="M654.38,456.43a1.85,1.85,0,0,1-1.83-1.84v-6a1.84,1.84,0,0,1,3.67,0v6A1.86,1.86,0,0,1,654.38,456.43Z" transform="translate(-199.68 -216.12)"/><path d="M685.93,457.09a1.84,1.84,0,0,1-1.83-1.83v-6a1.84,1.84,0,1,1,3.67,0v6A1.85,1.85,0,0,1,685.93,457.09Z" transform="translate(-199.68 -216.12)"/><path d="M703.46,457.09a1.85,1.85,0,0,1-1.84-1.83v-6a1.84,1.84,0,1,1,3.67,0v6A1.84,1.84,0,0,1,703.46,457.09Z" transform="translate(-199.68 -216.12)"/><path d="M717.65,455.76a2,2,0,0,1-2-1.84l-.33-6a1.92,1.92,0,1,1,3.84-.17l.33,6A2,2,0,0,1,717.65,455.76Z" transform="translate(-199.68 -216.12)"/><path d="M733.84,458.26a2,2,0,0,1-2-1.83l-.34-6a1.92,1.92,0,0,1,3.84-.17l.34,6A1.8,1.8,0,0,1,733.84,458.26Z" transform="translate(-199.68 -216.12)"/><path d="M726.16,442.07a2,2,0,0,1-2-1.83l-.34-6a1.92,1.92,0,1,1,3.84-.17l.34,6C728.16,441.07,727.33,441.9,726.16,442.07Z" transform="translate(-199.68 -216.12)"/><path d="M693.94,442.07a1.85,1.85,0,0,1-1.83-1.84v-6a1.84,1.84,0,0,1,3.67,0v6A1.67,1.67,0,0,1,693.94,442.07Z" transform="translate(-199.68 -216.12)"/><path d="M668.57,427.05a1.85,1.85,0,0,1-1.83-1.84v-6a1.84,1.84,0,1,1,3.67,0v6A1.86,1.86,0,0,1,668.57,427.05Z" transform="translate(-199.68 -216.12)"/><path d="M683.93,427.05a1.86,1.86,0,0,1-1.84-1.84v-6a1.84,1.84,0,1,1,3.67,0v6A1.66,1.66,0,0,1,683.93,427.05Z" transform="translate(-199.68 -216.12)"/><path d="M699.79,427.05a1.85,1.85,0,0,1-1.84-1.84v-6a1.84,1.84,0,1,1,3.67,0v6A1.85,1.85,0,0,1,699.79,427.05Z" transform="translate(-199.68 -216.12)"/><path d="M718.82,426.71a1.85,1.85,0,0,1-1.84-1.83v-6a1.84,1.84,0,1,1,3.67,0v6A1.74,1.74,0,0,1,718.82,426.71Z" transform="translate(-199.68 -216.12)"/><path d="M731.84,426.71a1.85,1.85,0,0,1-1.84-1.83v-6a1.84,1.84,0,1,1,3.67,0v6A2,2,0,0,1,731.84,426.71Z" transform="translate(-199.68 -216.12)"/><path d="M709.13,441.41a1.85,1.85,0,0,1-1.83-1.84v-6a1.84,1.84,0,1,1,3.67,0v6A2,2,0,0,1,709.13,441.41Z" transform="translate(-199.68 -216.12)"/><path class="cls-2" d="M649.21,315.54c-23.54,16.36-40.9,58.76-44.07,107.84v1.17l-.17,2.17L595,609.67l45.57,3.17,2.67-55.76,14.69-245.54A55.94,55.94,0,0,0,649.21,315.54Z" transform="translate(-199.68 -216.12)"/><path class="cls-9" d="M616.32,367.79a209.4,209.4,0,0,0-11.18,55.59v1.17l-.17,2.17L595,609.67l45.57,3.17,2.67-55.76,14.69-245.54" transform="translate(-199.68 -216.12)"/><path class="cls-21" d="M606.14,466.78l-3.34.16-2.17,41.24c7.51,1.16,18.36,2.17,22.54-1.51,6.67-5.67,5.51-40.06,5.51-40.06H606.14Z" transform="translate(-199.68 -216.12)"/><path class="cls-21" d="M654.55,369.63l3.51-57.93-.17-.16c-.5.33-2.67.5-4.51,1.67-2.5,7.17-12,34.72-12,34.72l5.84,1.33v.34l-9,6.17,9.52,112.84v16.2Z" transform="translate(-199.68 -216.12)"/><path class="cls-2" d="M696,315.71c23.53,16.36,42.73,58.42,45.9,107.67v1.17l.17,2.17,10,182.95-45.57,3.17-2.67-55.76L689.1,311.54A49.79,49.79,0,0,1,696,315.71Z" transform="translate(-199.68 -216.12)"/><path class="cls-9" d="M735.51,377.14l3.84,24.2q1.75,10.77,2.5,22v1.17l.17,2.17,10,182.95-45.57,3.17-2.67-55.76L689.1,311.54" transform="translate(-199.68 -216.12)"/><path class="cls-21" d="M741,466.78l3.34.16,2.17,41.24c-7.52,1.16-18.37,2.17-22.54-1.51-6.68-5.67-5.51-40.06-5.51-40.06H741Z" transform="translate(-199.68 -216.12)"/><path class="cls-21" d="M692.61,369.63,689.1,311.7l.17-.16c.5.33,2.17.5,4.51,1.17,2.5,7.17,12,35.22,12,35.22L700,349.26v.34l9,6.17-9.52,112.84v16.2Z" transform="translate(-199.68 -216.12)"/><path class="cls-21" d="M642.36,354.6a2.91,2.91,0,0,1-3-1.5c-1.17-2.34-4.17-3.84-7.35-3.5s-5.84,2.5-6.34,5.17a3.05,3.05,0,0,1-2.67,2.17l-1.33.17a3,3,0,0,0-2.68,3.17l.34,3a3,3,0,0,0,3.34,2.51l20.7-2.34a3,3,0,0,0,2.67-3.17l-.34-3A3,3,0,0,0,642.36,354.6Zm-10.18-1.83c2-.17,3.67,1,3.84,2.67s-1.17,3.17-3.17,3.5c-2,.17-3.67-1-3.84-2.67A3.44,3.44,0,0,1,632.18,352.77Z" transform="translate(-199.68 -216.12)"/><path d="M660.06,448.41l-33,4a15.78,15.78,0,0,1-17.53-13.85l-7.34-61.1A15.78,15.78,0,0,1,616,359.94l33-4a15.78,15.78,0,0,1,17.53,13.85l7.34,61.1A15.77,15.77,0,0,1,660.06,448.41Z" transform="translate(-199.68 -216.12)"/><path class="cls-19" d="M636.19,432.39s41.06-18,46.4-24.71S667.07,412,667.07,412s15.36-6.51,14.35-10.34c-.83-3.84-17.19,5.67-17.19,5.67s17-8.68,15.53-11.68-18.37,7.17-18.37,7.17,17.53-8.68,15.69-12.18-18.69,6.84-18.69,6.84,9.68-7.84,7.34-9.85-17.86,11.69-37.22,18.53C609,413.19,636.19,432.39,636.19,432.39Z" transform="translate(-199.68 -216.12)"/><path class="cls-2" d="M569.42,409c37.72-2.84,59.59-6.34,59.59-6.34l12.19,30.21c-38.06,34.39-127.87,27.37-89-38.06Z" transform="translate(-199.68 -216.12)"/><path class="cls-20" d="M552.22,395c-38.72,65.26,51.08,72.28,89,38.06L629,402.84s-22.53,4-59.59,6.35" transform="translate(-199.68 -216.12)"/><path class="cls-19" d="M620.5,404c5.34-.83,8.68-1.33,8.68-1.33l12.18,30.21a59.23,59.23,0,0,1-8.84,6.68Z" transform="translate(-199.68 -216.12)"/><path class="cls-23" d="M648.54,268.8a26.16,26.16,0,0,1-3.67-20.86c3-12,25.37-18.36,28-17.53,2.67.67,12.85,1.34,12.85,1.34s12.36,0,13.86,12c1.67,12-3.84,26.21-4.17,28.05C695.28,273.64,656.22,282.32,648.54,268.8Z" transform="translate(-199.68 -216.12)"/><path class="cls-7" d="M681.26,305.19a7,7,0,0,1-6.68,6.85h-2.84a7,7,0,0,1-6.84-6.68l-.17-13.85a7,7,0,0,1,6.68-6.85h2.84a7,7,0,0,1,6.84,6.68Z" transform="translate(-199.68 -216.12)"/><path class="cls-7" d="M640.69,272.31A6.53,6.53,0,0,0,647,279a6.39,6.39,0,0,0,6.68-6.18,6.53,6.53,0,0,0-6.35-6.68A6.1,6.1,0,0,0,640.69,272.31Z" transform="translate(-199.68 -216.12)"/><path class="cls-23" d="M650.21,273.31v-.83h0V272c0-.17-.17-.34-.17-.67h0v-.17c0-.16-.16-.16-.16-.33a.17.17,0,0,0-.17-.17h0l-.34-.33a.16.16,0,0,1-.16-.17h0c-.17,0-.17-.17-.34-.17h-.33c-.17,0-.33-.16-.5-.16h-1.17a.5.5,0,0,1,0-1,4.23,4.23,0,0,1,3.84,1.5,4.52,4.52,0,0,1,.84,2.5v.5a.44.44,0,0,1-.51.5C650.38,273.81,650,273.65,650.21,273.31Z" transform="translate(-199.68 -216.12)"/><path class="cls-7" d="M704.46,273.14a6.52,6.52,0,0,1-13-.5,6.27,6.27,0,0,1,6.68-6.17A6.5,6.5,0,0,1,704.46,273.14Z" transform="translate(-199.68 -216.12)"/><path class="cls-23" d="M693.94,273.64a4.3,4.3,0,0,1,2.34-4,4.69,4.69,0,0,1,2.67-.17c.34,0,.34.33.34.67s-.34.33-.67.33a3.27,3.27,0,0,0-1.84.17s-.17.16-.17,0a.16.16,0,0,0-.16.16c-.17,0-.17.17-.34.17h0a.16.16,0,0,0-.16.17c-.17,0-.17.17-.17.33h0a.17.17,0,0,1-.17.17c0,.17-.16.17-.16.33v.17h0c0,.17,0,.17-.17.33,0,.17-.17.34-.17.5v.17h0v.67C695,274.31,693.94,274.31,693.94,273.64Z" transform="translate(-199.68 -216.12)"/><path class="cls-7" d="M693.11,274.65a17.92,17.92,0,0,1-17.86,17.52h-5.68a17.91,17.91,0,0,1-17.52-17.86l.16-19a17.92,17.92,0,0,1,17.86-17.52h5.68a17.92,17.92,0,0,1,17.53,17.86Z" transform="translate(-199.68 -216.12)"/><path class="cls-23" d="M696.78,241.76c-1.5-2-6.51-5.34-10.51-7.18.83-18.52-48.75-29-38.23-2.33,0,0-16.36-7-19,1.17-6.68,19.86,40.9,26.2,54.42,8.51,2.84,1,6.34,3.17,7,6.84,1.17,6.51,2.84,20.87,2.84,20.87a37.52,37.52,0,0,1,2.17-6.34C696.61,260.46,699,244.77,696.78,241.76Z" transform="translate(-199.68 -216.12)"/><path class="cls-24" d="M672.41,260.63l-2.34,9.51,5-.17Z" transform="translate(-199.68 -216.12)"/><path class="cls-25" d="M663.06,274.15a5.2,5.2,0,1,1-4.67-5.68A5.21,5.21,0,0,1,663.06,274.15Z" transform="translate(-199.68 -216.12)"/><path class="cls-25" d="M691.44,274.15a5.2,5.2,0,1,1-4.67-5.68A5.23,5.23,0,0,1,691.44,274.15Z" transform="translate(-199.68 -216.12)"/><path class="cls-26" d="M669.24,277.15a4,4,0,0,0,8,.17Z" transform="translate(-199.68 -216.12)"/><path class="cls-14" d="M661.73,264.3a2.42,2.42,0,1,1-2.34-2.51A2.54,2.54,0,0,1,661.73,264.3Z" transform="translate(-199.68 -216.12)"/><path class="cls-14" d="M686.93,264.3a2.42,2.42,0,1,1-2.33-2.51A2.54,2.54,0,0,1,686.93,264.3Z" transform="translate(-199.68 -216.12)"/><path class="cls-22" d="M680.92,317.05H666.07a8,8,0,0,1-8-8v-3.67a8,8,0,0,1,8-8h14.85a8,8,0,0,1,8,8V309A8,8,0,0,1,680.92,317.05Z" transform="translate(-199.68 -216.12)"/><path class="cls-27" d="M660.89,298.69v16.86" transform="translate(-199.68 -216.12)"/><path class="cls-27" d="M664.4,297.35v19.7" transform="translate(-199.68 -216.12)"/><path class="cls-27" d="M668.24,297.35v19.7" transform="translate(-199.68 -216.12)"/><path class="cls-27" d="M672.41,297.35v19.7" transform="translate(-199.68 -216.12)"/><path class="cls-27" d="M676.08,297.35v19.7" transform="translate(-199.68 -216.12)"/><path class="cls-27" d="M679.92,297.35v19.7" transform="translate(-199.68 -216.12)"/><path class="cls-27" d="M683.26,297.35v19.7" transform="translate(-199.68 -216.12)"/><path class="cls-27" d="M686.1,299.35l.17,15.69" transform="translate(-199.68 -216.12)"/><path class="cls-9" d="M473.44,576.11H1051" transform="translate(-199.68 -216.12)"/></g></svg>