<svg id="Слой_1" data-name="Слой 1" xmlns="http://www.w3.org/2000/svg" viewBox="0 0 926.83 438.98"><defs><style>.cls-1,.cls-2,.cls-3,.cls-9{fill:#fff;}.cls-2{fill-opacity:0.4;}.cls-3{fill-opacity:0.5;}.cls-11,.cls-4,.cls-7{fill:#f4f4f4;}.cls-15,.cls-5{fill:silver;}.cls-12,.cls-14,.cls-17,.cls-6{fill:none;}.cls-17,.cls-6,.cls-7{stroke:silver;}.cls-10,.cls-11,.cls-12,.cls-13,.cls-14,.cls-15,.cls-6,.cls-7,.cls-9{stroke-miterlimit:10;}.cls-10,.cls-11,.cls-13,.cls-14,.cls-15,.cls-17,.cls-6,.cls-7,.cls-9{stroke-width:1.49px;}.cls-8{fill:#262433;}.cls-10,.cls-11,.cls-12,.cls-13,.cls-14,.cls-15,.cls-9{stroke:#262433;}.cls-10{fill:#9fc053;}.cls-12{stroke-width:2.99px;}.cls-13{fill:#8ab4e3;}.cls-16{fill:#0c0c0c;}</style></defs><title>ppl3</title><circle class="cls-1" cx="195.83" cy="310.42" r="62.79"/><circle class="cls-1" cx="298.23" cy="279.77" r="109.87"/><circle class="cls-1" cx="716.8" cy="128.79" r="5.23"/><circle class="cls-1" cx="82.97" cy="315.65" r="5.23"/><circle class="cls-2" cx="6.73" cy="240.9" r="6.73"/><circle class="cls-1" cx="159.21" cy="196.06" r="11.21"/><circle class="cls-1" cx="794.53" cy="80.95" r="5.23"/><circle class="cls-3" cx="609.17" cy="74.97" r="14.2"/><circle class="cls-3" cx="920.1" cy="227.45" r="6.73"/><circle class="cls-1" cx="627.1" cy="219.98" r="87.45"/><circle class="cls-1" cx="600.2" cy="339.57" r="87.45"/><circle class="cls-1" cx="747.44" cy="301.45" r="137.53"/><circle class="cls-1" cx="459.68" cy="221.47" r="160.7"/><path class="cls-4" d="M267.92,337.07s-57.53-35.09-75-90.23S181.68,96.67,278.56,70.66s138.11,74.7,138.11,74.7-6.26-29.82,26.85-27.48c0,0-30.57-72,54.11-107,90.83-37.54,148,29.13,165,98.65,0,0,138.88-58.76,141.42,62,0,0,47.37-2.64,69,44.29,28.61,86-52.84,126.5-62.12,131.49C801.57,352.42,267.92,337.07,267.92,337.07Z"/><path class="cls-5" d="M777.93,139.1h-7.62v-7.63a2.15,2.15,0,1,0-4.29,0v7.63H758.4a2.15,2.15,0,1,0,0,4.3H766V151a2.15,2.15,0,1,0,4.29,0V143.4h7.62a2.17,2.17,0,0,0,2.15-2.15A2.24,2.24,0,0,0,777.93,139.1Z"/><path class="cls-6" d="M483,64.5H447A7.52,7.52,0,0,1,439.52,57V36.44A7.52,7.52,0,0,1,447,28.92H483a7.52,7.52,0,0,1,7.52,7.52V57A7.46,7.46,0,0,1,483,64.5Z"/><path class="cls-5" d="M455.44,28.82a9.72,9.72,0,0,1,19.14,0h2.93a12.52,12.52,0,0,0-24.81,0Z"/><path class="cls-7" d="M474.33,48.94a9.57,9.57,0,1,0-11.52,7.11A9.58,9.58,0,0,0,474.33,48.94Z"/><path class="cls-5" d="M469.79,45.64h-3.71V41.92a1.07,1.07,0,1,0-2.14,0v3.72h-3.72a1.08,1.08,0,0,0,0,2.15h3.72V51.5a1.07,1.07,0,1,0,2.14,0V47.69h3.71a1.09,1.09,0,0,0,1.08-1.08A1.15,1.15,0,0,0,469.79,45.64Z"/><path class="cls-6" d="M804.11,233h-36a7.53,7.53,0,0,1-7.52-7.53V204.9a7.53,7.53,0,0,1,7.52-7.53h36a7.53,7.53,0,0,1,7.52,7.53v20.53A7.42,7.42,0,0,1,804.11,233Z"/><path class="cls-5" d="M776.66,197.37a9.72,9.72,0,0,1,19.14,0h2.93a12.51,12.51,0,0,0-24.8,0Z"/><path class="cls-7" d="M786.14,224.74a9.58,9.58,0,1,0-9.58-9.58A9.58,9.58,0,0,0,786.14,224.74Z"/><path class="cls-5" d="M790.92,214.09h-3.71v-3.72a1.08,1.08,0,0,0-2.15,0v3.72h-3.61a1.08,1.08,0,1,0,0,2.15h3.71V220a1.08,1.08,0,1,0,2.15,0v-3.71H791a1.09,1.09,0,0,0,1.07-1.08A1.23,1.23,0,0,0,790.92,214.09Z"/><path class="cls-5" d="M431,183.19h-6.93v-6.94a2,2,0,1,0-3.91,0v6.94h-6.93a2,2,0,1,0,0,3.91h6.93V194a2,2,0,1,0,3.91,0V187.1H431a2,2,0,0,0,0-3.91Z"/><path class="cls-5" d="M273.58,92.37h-5.07V87.28a1.47,1.47,0,0,0-2.93,0v5.09H260.5a1.47,1.47,0,1,0,0,2.93h5.08v5.08a1.47,1.47,0,1,0,2.93,0V95.3h5.07a1.51,1.51,0,0,0,1.47-1.47A1.43,1.43,0,0,0,273.58,92.37Z"/><path class="cls-5" d="M289,168.33h-6.35V162a1.76,1.76,0,1,0-3.52,0v6.35H272.8a1.76,1.76,0,0,0,0,3.52h6.35v6.35a1.76,1.76,0,1,0,3.52,0v-6.35H289a1.75,1.75,0,0,0,1.75-1.76A1.81,1.81,0,0,0,289,168.33Z"/><path class="cls-5" d="M572.93,53.16h-5.18V48a1.47,1.47,0,0,0-2.93,0v5.18h-5.17a1.47,1.47,0,0,0,0,2.94h5.17v5.18a1.47,1.47,0,1,0,2.93,0V56.1h5.18a1.51,1.51,0,0,0,1.47-1.47A1.45,1.45,0,0,0,572.93,53.16Z"/><path class="cls-6" d="M606.33,171.85S579.57,151.9,587.78,142s19.72,4.4,19.72,4.4,6.25-11,15-6C635.34,148,606.33,171.85,606.33,171.85Z"/><path class="cls-7" d="M470.77,148.39a5.82,5.82,0,0,1-8.2,0l-11.63-11.64a5.81,5.81,0,1,1,8.21-8.21l11.62,11.64A5.84,5.84,0,0,1,470.77,148.39Z"/><path class="cls-5" d="M456.8,142.62l6.06,6.06a5.43,5.43,0,0,0,7.72,0l.39-.39a5.43,5.43,0,0,0,0-7.72l-6.06-6.07Z"/><path class="cls-7" d="M452.51,151.71a5.71,5.71,0,0,1-5.76-5.77V129.52a5.76,5.76,0,1,1,11.52,0v16.42A5.78,5.78,0,0,1,452.51,151.71Z"/><path class="cls-5" d="M446.75,137.73v8.51a5.46,5.46,0,0,0,5.47,5.47h.58a5.46,5.46,0,0,0,5.47-5.47v-8.51Z"/><path class="cls-7" d="M209.12,236.08a5.49,5.49,0,0,1-7.61,1.57L188.32,229a5.51,5.51,0,0,1,6.06-9.2l13.18,8.71A5.5,5.5,0,0,1,209.12,236.08Z"/><path class="cls-5" d="M194.86,233.34l6.84,4.5a5.27,5.27,0,0,0,7.23-1.47l.29-.48a5.3,5.3,0,0,0-1.46-7.24l-6.84-4.5Z"/><path class="cls-7" d="M187.64,239.9a5.57,5.57,0,0,1-5.57-5.58V218.58a5.57,5.57,0,0,1,11.14,0v15.84A5.55,5.55,0,0,1,187.64,239.9Z"/><path class="cls-5" d="M182.17,226.5v8.21a5.25,5.25,0,0,0,5.27,5.28H188a5.25,5.25,0,0,0,5.27-5.28V226.5Z"/><path class="cls-8" d="M193,348.31H828.42c8.6,0,17.19.2,25.79,0h1.17a.64.64,0,0,0,0-1.27H220c-8.6,0-17.19-.19-25.79,0H193A.64.64,0,0,0,193,348.31Z"/><path class="cls-9" d="M278.08,347.63c4.39-52,15.53-154.76,36.43-179,0,0-64.56,25.91-88.29,116.44-7.43,28.45-10.26,48.49-10.55,62.57Z"/><path class="cls-9" d="M450.75,347.63c-.29-14.08-3-34.12-10.55-62.57-23.73-90.53-88.29-116.44-88.29-116.44,21,24.25,32,127.1,36.43,179Z"/><path class="cls-10" d="M411.2,347.63v-6c0-98.75-34.68-178.72-77.36-178.72s-77.35,80-77.35,178.72v6Z"/><path class="cls-9" d="M305.13,175.76c-28.52,26.4-48.64,90.73-48.64,166v6h47.66Z"/><path class="cls-11" d="M305.13,175.76c-1.95,1.86-3.91,3.91-5.86,6.06l-20.71,60.91,12.51,2.74,2.54,102.26h10.64Z"/><path class="cls-9" d="M368.71,347.63H411.2v-6c0-72.94-18.95-135.7-46-163.47Z"/><path class="cls-11" d="M362.46,175.56V347.63H373.3l2.54-102.26,12.5-2.74-21.29-62.37C365.58,178.69,364,177,362.46,175.56Z"/><path class="cls-9" d="M387.46,261.7a2.05,2.05,0,1,0,2.05-2.06A2.07,2.07,0,0,0,387.46,261.7Z"/><path class="cls-8" d="M347.81,81.22s-29.49-8.6-46.2,25.52c-12.79,26.1-8.88,44.38-6.44,51.52a4.78,4.78,0,0,0,4.39,3.32l69.15,2a4.8,4.8,0,0,0,4.79-3.72C377.5,145.26,388.05,94,347.81,81.22Z"/><path class="cls-12" d="M305.23,129a10.45,10.45,0,1,0,10.45-10.46A10.47,10.47,0,0,0,305.23,129Z"/><path class="cls-11" d="M350.94,96.67H337.75c-8.79,0-15.92,8.21-15.92,18.18v20.44a8.77,8.77,0,0,0,.1,1.66,11.63,11.63,0,0,0-.2,1.86v11.24a8.23,8.23,0,0,0-.19,1.46l-.1,14.28a50.58,50.58,0,0,0-11.82,5.67l-4.49,3.71L333.65,194l29.1-18.28-9.47-6.65a44,44,0,0,0-9.86-3.91V153.27H351c8.79,0,15.92-8.21,15.92-18.18V114.66C366.86,104.78,359.72,96.67,350.94,96.67Z"/><path class="cls-8" d="M343.42,124.43a2.93,2.93,0,1,0-2.93-2.93A2.93,2.93,0,0,0,343.42,124.43Z"/><path class="cls-8" d="M359.92,121a2.54,2.54,0,1,0,2.54-2.54A2.58,2.58,0,0,0,359.92,121Z"/><path class="cls-8" d="M354.06,120c.29,3,.49,6,.78,9,0,.39.1.88.1,1.27a.64.64,0,0,0,1.27-.1c-.29-3-.49-6-.78-9,0-.39-.1-.88-.1-1.27A.64.64,0,0,0,354.06,120Z"/><path class="cls-8" d="M339.61,117.49c1.07-.39,2.24-.88,3.32-1.27.19-.1.29-.1.49-.2a.62.62,0,0,0,.39-.78.56.56,0,0,0-.79-.39c-1.07.39-2.24.88-3.32,1.27-.19.1-.29.1-.48.2a.62.62,0,0,0-.4.78A.79.79,0,0,0,339.61,117.49Z"/><path class="cls-8" d="M360.41,116.81c1.17,0,2.34-.1,3.52-.1h.48a.59.59,0,1,0,0-1.17c-1.17,0-2.34.09-3.51.09h-.49a.59.59,0,1,0,0,1.18Z"/><path class="cls-8" d="M369.39,113.39a37.3,37.3,0,0,1-18.55-14.67s-6.25,16.52-26.86,25.81c-27,12.12-13.48-20.92-6.06-29.43S363.53,75.84,369.39,113.39Z"/><path class="cls-4" d="M305.23,129a10.45,10.45,0,1,0,10.45-10.46A10.47,10.47,0,0,0,305.23,129Z"/><path class="cls-8" d="M322,130.4a6.65,6.65,0,0,0-3.42-6.46,8.46,8.46,0,0,0-4.1-.58.67.67,0,0,0-.69.68.74.74,0,0,0,.69.69,7.12,7.12,0,0,1,3.22.29l.19.1c.1,0,.2.1.3.1a1.79,1.79,0,0,1,.58.39c-.09-.1.1.09.1.09l.2.2c.09.1.29.29.39.39-.1-.1.09.1.09.1s.1.1.1.19.2.3.3.49.09.2.09.3-.09-.2,0,0v.09c.1.2.1.3.2.49a2.84,2.84,0,0,1,.19.88v.2h0v1.17C320.66,131.18,322,131.18,322,130.4Z"/><path class="cls-8" d="M349.47,140.17a6.57,6.57,0,0,0,6.93,2.15,9,9,0,0,0,3.32-2.44.65.65,0,0,0,0-1,.74.74,0,0,0-1,0,8.16,8.16,0,0,1-2.44,2.06l-.2.09a.35.35,0,0,1-.29.1,1.42,1.42,0,0,1-.68.1h-1.08c-.1,0-.1,0-.19-.1a1.25,1.25,0,0,0-.59-.1A.38.38,0,0,0,353,141c-.1-.1.19.09,0,0l-.1-.1c-.2-.1-.29-.1-.49-.2a2.08,2.08,0,0,1-.78-.49l-.1-.09c-.1-.1.1.09,0,0l-.29-.3-.59-.58C350,138.71,349,139.59,349.47,140.17Z"/><path class="cls-13" d="M304.93,175.47l.1,23.17s14.46,14.27,30.08,14.27c17.58,0,27.25-15.25,27.25-15.25l.1-21.61s-21.58,5.28-29.2,5.19C326,181,304.93,175.47,304.93,175.47Z"/><path class="cls-9" d="M574.4,347.63c.29-14.08,3-34.12,10.54-62.57,23.74-90.53,88.29-116.44,88.29-116.44-21,24.24-32,127.09-36.43,179Z"/><path class="cls-9" d="M830.87,339.22c4-11.63,2.83-27.37-5.86-47.81-42.68-101-123.55-126.9-123.55-126.9l2.34,129.64Z"/><path class="cls-10" d="M768.56,347.63v-6c0-98.75-34.68-178.72-77.36-178.72s-77.35,80-77.35,178.72v6Z"/><path class="cls-8" d="M693.16,152.68s11-.19,12.89-4.79,1.07-15.83,1.07-15.83a21.21,21.21,0,0,0,10.45-4.6c4.4-3.91,5.18-16.82,0-20.82s-14.35,1.85-15,2.93S693.16,152.68,693.16,152.68Z"/><path class="cls-12" d="M719.92,129a10.45,10.45,0,1,1-10.45-10.46A10.47,10.47,0,0,1,719.92,129Z"/><path class="cls-11" d="M674.21,96.67H687.4c8.79,0,15.91,8.21,15.91,18.18v20.43a9.79,9.79,0,0,1-.09,1.67,12.89,12.89,0,0,1,.19,1.85v11.25a7.23,7.23,0,0,1,.2,1.46l.09,14.28a50,50,0,0,1,11.82,5.67L692.57,184l-20.51-14.76c3.22-1.76,6.55-4.11,9.87-5V153.37h-7.62c-8.79,0-15.92-8.21-15.92-18.19V114.75C658.29,104.78,665.52,96.67,674.21,96.67Z"/><path class="cls-8" d="M684.66,121.5a2.93,2.93,0,1,1-2.93-2.93A2.82,2.82,0,0,1,684.66,121.5Z"/><path class="cls-8" d="M665.22,121a2.54,2.54,0,1,1-2.54-2.54A2.58,2.58,0,0,1,665.22,121Z"/><path class="cls-8" d="M669.52,119.84c-.19,3-.19,6-.39,9a5.44,5.44,0,0,1-.1,1.27c0,.78,1.27.88,1.27.1.2-3,.2-6,.39-9a5.44,5.44,0,0,1,.1-1.27C670.69,119,669.52,119,669.52,119.84Z"/><path class="cls-8" d="M675.77,139.88c-3.22,1.76-5.27,2.44-8.59.58-.39-.19-.78-.48-1.18-.68-.68-.29-1.26.59-.48,1.17,3.22,2,5.76,2.35,9.28.79a8.07,8.07,0,0,0,1.27-.69c.78-.49.68-1.76-.3-1.17Z"/><path class="cls-8" d="M685.93,113.68c-1.17-.3-2.35-.49-3.52-.79-.19,0-.29-.09-.48-.09a.66.66,0,0,0-.79.39.68.68,0,0,0,.39.78c1.18.29,2.35.49,3.52.78.2,0,.29.1.49.1a.67.67,0,0,0,.78-.39C686.42,114.07,686.32,113.68,685.93,113.68Z"/><path class="cls-8" d="M664.74,115.53c-1.18,0-2.35-.09-3.52-.09h-.49a.59.59,0,0,0,0,1.17c1.17,0,2.35.1,3.52.1h.49a.59.59,0,0,0,0-1.18Z"/><path class="cls-8" d="M707,124.43s-4.4,5.67-7.23-3.91c-1.76-6-1.08-7.14-7.33-6.65s-10.84-5.77-11.23-9.19-18.36,20.34-34.57,4.21,3.12-35.59,14.16-37.84,20.8,6.26,22.27,11.44c0,0,7.13-10.66,23.53-2.93s9,25,8.5,29.33S708.39,123.65,707,124.43Z"/><path class="cls-4" d="M719.92,129a10.45,10.45,0,1,1-10.45-10.46A10.47,10.47,0,0,1,719.92,129Z"/><path class="cls-8" d="M704.49,130.4v-1.27a2.72,2.72,0,0,1,.19-.88c0-.2.1-.3.1-.39s.1-.2.1-.3.09-.29.09-.1a5.6,5.6,0,0,1,.59-1l.1-.1.19-.2c.1-.19.3-.29.39-.39s.3-.19.1-.1c.1-.09.2-.09.2-.19l.58-.29s.2-.1.1,0,.1-.1.2-.1.29-.1.39-.1.58-.1.78-.2a7.82,7.82,0,0,1,2,0,.66.66,0,0,0,.68-.68c0-.39-.29-.59-.68-.68-2.15-.2-4.49.19-6,2a7.78,7.78,0,0,0-1.56,4.11v.88C703.12,131.18,704.49,131.18,704.49,130.4Z"/><path class="cls-13" d="M716.3,171.94s-9,15.06-24.41,15.45c-14.95.29-23.44-16-23.44-16a47.13,47.13,0,0,1,9.18-4.69s1.66,8.21,14,8.11a22.92,22.92,0,0,0,16.31-7.33A41,41,0,0,1,716.3,171.94Z"/><path class="cls-8" d="M693.74,121c-.09,4.59-2.34,9.58-6.74,11.44-4.2,1.86-8.88,0-11.42-3.72a14,14,0,0,1-.88-14.08c2-3.91,6.25-6.64,10.74-5.67,5.37,1.27,8.21,6.85,8.3,12a.64.64,0,0,0,1.27,0c-.1-5.18-2.64-10.56-7.62-12.61-4.68-2-9.76,0-12.69,4a15.24,15.24,0,0,0-1,15.64c2.25,4.4,7.13,7.33,12.11,6.16,5.86-1.37,9.18-7.43,9.18-13.2A.64.64,0,0,0,693.74,121Z"/><path class="cls-8" d="M667.28,120.52c-.1,4.2-1.76,9.09-5.86,11-3.81,1.85-7.92-.3-10-3.72a14.74,14.74,0,0,1-.68-13.39c1.66-3.52,5.18-6.55,9.38-5.48,4.88,1.37,7,6.94,7.13,11.54a.63.63,0,0,0,1.26,0c-.09-4.79-2.14-10.07-6.64-12.22-4.2-2-8.69.1-11.13,3.81a15.86,15.86,0,0,0-1,15.06c1.86,4,6,7.23,10.55,6.06,5.57-1.37,8.11-7.53,8.2-12.71C668.45,119.74,667.28,119.74,667.28,120.52Z"/><path class="cls-8" d="M668,122.08a.62.62,0,0,1,.39-.09c.19,0,.29-.1.49-.1a.35.35,0,0,0,.29-.1H670a1.4,1.4,0,0,1,.68.1,3.49,3.49,0,0,1,1.37.58c.29.2.59.3.88,0a.62.62,0,0,0,0-.88,5,5,0,0,0-3.52-1,11.09,11.09,0,0,0-1.85.39.62.62,0,0,0-.39.78C667.37,122,667.67,122.28,668,122.08Z"/><path class="cls-8" d="M724.41,348.9l-57.82-13.69A14.27,14.27,0,0,1,656,318l20-84.77a14.25,14.25,0,0,1,17.19-10.55l57.81,13.68a14.28,14.28,0,0,1,10.55,17.21l-20,84.76A14.3,14.3,0,0,1,724.41,348.9Z"/><path class="cls-11" d="M703.9,321.72s-51.18-27.18-57.13-37.15,20.12,8.8,20.12,8.8-19.44-11.73-17.58-16.72,22.16,10.76,22.16,10.76-21.38-15-18.75-18.58,23.35,13,23.35,13-22-14.95-19-19.26,24,12.71,24,12.71S669.52,263,673,260.72s22,19.06,46.88,32S703.9,321.72,703.9,321.72Z"/><path class="cls-1" d="M799.12,307.15c-50.39-10.85-79.3-19.45-79.3-19.45l-22,38.62c45,53.38,167.5,60.42,127.17-34.91Z"/><path class="cls-14" d="M825,291.41c40.33,95.42-82.14,88.29-127.17,34.91l22-38.62s29.69,9.48,79.3,19.45"/><path class="cls-9" d="M731.25,291c-6.94-2.15-11.43-3.32-11.43-3.32l-22,38.62a86.84,86.84,0,0,0,10.85,10.75Z"/><path class="cls-11" d="M664.93,302.76c-3.9,13.19-12.11,24.63-22.17,33.92a156.43,156.43,0,0,1-13.18,10.95H560.92c1.46-.59,2.83-1.17,4.3-1.86,2.24-1,4.49-1.95,6.64-3a244.85,244.85,0,0,0,35.06-20c2.83-2.05,5.66-4.11,8.4-6.35A90.77,90.77,0,0,0,628,303.05a55.55,55.55,0,0,0,4.11-7.43,46,46,0,0,0,1.17-5.09,29.61,29.61,0,0,0-.2-4.2,50.16,50.16,0,0,0-2.15-6.55,76.82,76.82,0,0,0-9-13.49c-9.77-11.44-21.39-21.31-33.31-30.5-3-2.35-6-4.6-9.18-6.75-11.62-8.21-23.63-15.94-35.84-23.17-.1,0-.1-.1-.2-.1l23.74-24.83c12.21,7.53,24,15.45,35.65,23.85a276.1,276.1,0,0,1,31.93,26.4A191,191,0,0,1,650,248a79.11,79.11,0,0,1,9.28,14A85.7,85.7,0,0,1,664,272.55a55.62,55.62,0,0,1,2.44,11.24,31.33,31.33,0,0,1,.19,7.43A49.3,49.3,0,0,1,664.93,302.76Z"/><path class="cls-10" d="M536.4,164.52s62.51,10.56,115.84,70.29l-38.88,37.74L568,246.83Z"/><path class="cls-13" d="M644,226.21c2.74,2.73,5.47,5.67,8.11,8.7l-38.78,37.64L601.84,266Z"/><path class="cls-11" d="M380.92,302.76c3.91,13.2,12.11,24.63,22.17,33.92a156.43,156.43,0,0,0,13.18,10.95h68.66c-1.46-.59-2.83-1.17-4.29-1.86-2.25-1-4.5-1.95-6.65-3a244.85,244.85,0,0,1-35.06-20c-2.83-2.05-5.66-4.1-8.4-6.35a90.77,90.77,0,0,1-12.69-13.3,54.39,54.39,0,0,1-4.1-7.43,43.69,43.69,0,0,1-1.18-5.08,29.68,29.68,0,0,1,.2-4.21,50.16,50.16,0,0,1,2.15-6.55,76.82,76.82,0,0,1,9-13.49c9.77-11.44,21.39-21.31,33.31-30.5,3-2.35,6.05-4.6,9.18-6.75,11.62-8.21,23.63-15.93,35.84-23.17.1,0,.1-.1.19-.1L478.68,181c-12.21,7.53-24,15.45-35.64,23.85a275.36,275.36,0,0,0-31.94,26.4,191,191,0,0,0-15.24,16.82,79.11,79.11,0,0,0-9.28,14,84.17,84.17,0,0,0-4.68,10.56,54.83,54.83,0,0,0-2.45,11.24,31.32,31.32,0,0,0-.19,7.43A55.2,55.2,0,0,0,380.92,302.76Z"/><path class="cls-10" d="M509.55,164.52S447,175.08,393.71,234.81l38.78,37.64,45.41-25.71Z"/><path class="cls-13" d="M401.82,226.21c-2.73,2.73-5.47,5.67-8.11,8.7l38.78,37.64L444,266Z"/><path class="cls-10" d="M598.13,347.63c.1-3.62.19-7.33.19-11.05,0-96.1-34.67-174-77.35-174s-77.35,77.92-77.35,174c0,3.72.1,7.34.2,11.05Z"/><path class="cls-10" d="M459.64,242.73v22.19a11.65,11.65,0,0,0,11.62,11.64h8.4a11.66,11.66,0,0,0,11.62-11.64V242.73Z"/><path class="cls-13" d="M491.18,242.73H459.64v8.21h31.54Z"/><path class="cls-8" d="M482,210c1.27-10.95,4.5-21.9,10.45-31.29,4.69-7.53,11.43-14.27,20-17.11a27.5,27.5,0,0,1,22.95,2.94c7.91,4.79,13.57,12.61,17.38,20.92C558.28,197,560.43,210,560,222.69a1.22,1.22,0,0,0,2.44,0,87.64,87.64,0,0,0-6.15-35.39c-3.71-9-9.38-17.6-17.39-23.37a30.66,30.66,0,0,0-24.41-5.47c-9.19,1.95-16.61,8.31-22.08,15.74-7.61,10.36-11.52,23.07-13,35.78C479.37,211.54,481.81,211.44,482,210Z"/><path class="cls-15" d="M559.55,238.82a8.51,8.51,0,1,0-8.5-8.51A8.51,8.51,0,0,0,559.55,238.82Z"/><path class="cls-11" d="M564.14,230.31a4.59,4.59,0,1,1-4.59-4.59A4.59,4.59,0,0,1,564.14,230.31Z"/><path class="cls-8" d="M471.16,239.9a37.8,37.8,0,0,1,.3-16.53c1.07-4,2.93-8.21,6.25-10.75a8.1,8.1,0,0,1,9.18-.49c3.61,2.05,5.86,6.06,7.32,9.78A36.54,36.54,0,0,1,496,240.78c-.29,1.56,2,2.24,2.34.68A39.3,39.3,0,0,0,497,222.69c-1.46-4.6-4-9.19-8-12.12a10.62,10.62,0,0,0-11.24-.88c-4,2.15-6.44,6.35-7.91,10.46a37.88,37.88,0,0,0-1.07,20.33C469.11,242.14,471.46,241.46,471.16,239.9Z"/><path class="cls-14" d="M467.84,262.77s6.45,7.53,16.41,1.27,12.7-18.28,13.48-25.22"/><path class="cls-9" d="M469.11,261.7a2.05,2.05,0,1,1-2.05-2.06A2,2,0,0,1,469.11,261.7Z"/><path class="cls-14" d="M500,262.67s-6.35,7.63-16.4,1.47-12.9-18.09-13.78-25"/><path class="cls-9" d="M498.7,261.6a2.06,2.06,0,0,0,4.11,0,2.14,2.14,0,0,0-2.05-2.06A2,2,0,0,0,498.7,261.6Z"/><path class="cls-11" d="M521.17,193.26,539.92,168a43,43,0,0,0-9.57-4l.1-13.69a8.75,8.75,0,0,0-8.5-8.7h-3.61a8.75,8.75,0,0,0-8.7,8.5l-.09,14.47a42.73,42.73,0,0,0-11.33,5.77Z"/><path class="cls-13" d="M497.53,170.77l24.52,27.57,21.19-28.16a42.91,42.91,0,0,0-8.79-4.69L522,185l-16.51-18.86A47.18,47.18,0,0,0,497.53,170.77Z"/><path class="cls-8" d="M549.1,123.94A31.18,31.18,0,0,0,553.5,99c-3.52-14.37-30.18-21.8-33.41-20.92s-15.33,1.47-15.33,1.47-14.55-.1-16.51,14.27,4.5,31.19,5,33.44C493.72,129.71,540,140,549.1,123.94Z"/><path class="cls-11" d="M558.57,128a7.73,7.73,0,0,1-7.52,7.92,7.68,7.68,0,1,1-.48-15.35A7.74,7.74,0,0,1,558.57,128Z"/><path class="cls-16" d="M547.24,129.32v-1h0v-.19a.71.71,0,0,1,.1-.39c.1-.2.1-.49.2-.69s-.1.1,0-.1.1-.09.1-.19.09-.3.19-.39.1-.1.1-.2-.1.1,0-.1l.29-.29c.1,0,.1-.1.2-.1h0a.09.09,0,0,0,.09-.1c.1-.09.3-.19.39-.29a.1.1,0,0,0,.1-.1h.1c.1,0,.19-.09.29-.09a1.23,1.23,0,0,1,.59-.1h1.56a.64.64,0,0,0,.59-.59.57.57,0,0,0-.59-.59,5.15,5.15,0,0,0-4.49,1.67,4.84,4.84,0,0,0-1,3v.68a.63.63,0,0,0,.59.59A.41.41,0,0,0,547.24,129.32Z"/><path class="cls-11" d="M482.69,129.13a7.77,7.77,0,1,0,7.52-7.92A7.75,7.75,0,0,0,482.69,129.13Z"/><path class="cls-16" d="M495.29,129.71a5,5,0,0,0-2.84-4.79,6.38,6.38,0,0,0-3-.29c-.3,0-.49.49-.39.78s.39.49.78.39a4.31,4.31,0,0,1,2.24.2s.3.1.1,0c.1,0,.1.1.2.1s.29.19.39.29l.09.1c.1,0,.1.09.2.09l.29.3a.1.1,0,0,0,.1.1c-.1-.1,0-.1,0,0s.1.09.1.19a.54.54,0,0,1,.19.39c0,.1.1.1.1.2s.1.19,0,.1c0,.09.1.19.1.39a4.51,4.51,0,0,1,.19.68.34.34,0,0,0,.1.29c0,.1.1.2,0,0v.69C494,130.5,495.29,130.5,495.29,129.71Z"/><path class="cls-11" d="M496.26,134.11a17.83,17.83,0,0,0,17.87,17.6l13.39-.1a17.84,17.84,0,0,0,17.58-17.89l-.3-29.23a17.82,17.82,0,0,0-17.87-17.6l-13.38.1A17.83,17.83,0,0,0,496,104.88Z"/><path class="cls-8" d="M522.34,118c0,3-.1,6-.1,9v1.27c0,.79,1.17.79,1.27,0,0-3,.1-6,.1-9V118C523.51,117.2,522.34,117.2,522.34,118Z"/><path class="cls-8" d="M502.51,114.17c1.08-.4,2.25-.88,3.32-1.28.2-.09.3-.09.49-.19a.61.61,0,0,0,.39-.78.54.54,0,0,0-.78-.39c-1.07.39-2.24.88-3.32,1.27-.2.09-.29.09-.49.19a.62.62,0,0,0-.39.78C501.93,114.07,502.22,114.36,502.51,114.17Z"/><path class="cls-8" d="M534.35,114.26c1.17,0,2.35-.09,3.52-.09h.49a.59.59,0,0,0,0-1.18c-1.18,0-2.35.1-3.52.1h-.49a.63.63,0,0,0-.58.59A.56.56,0,0,0,534.35,114.26Z"/><path class="cls-16" d="M533.47,118.56a2.84,2.84,0,1,0,2.74-2.93A2.9,2.9,0,0,0,533.47,118.56Z"/><path class="cls-16" d="M503.59,118.56a2.83,2.83,0,1,0,2.73-2.93A2.83,2.83,0,0,0,503.59,118.56Z"/><path class="cls-9" d="M545,127.46c-4,3.42-10.75,5.87-15.34-.49-3.9-5.37-10.84-5.86-18.36.49-6.54,5.57-13.77.69-15.14-.29l.1,6.94a17.84,17.84,0,0,0,17.87,17.6l13.39-.1a17.84,17.84,0,0,0,17.58-17.89Z"/><path class="cls-8" d="M491.87,91.78c1.75-2.35,7.81-6.36,12.5-8.51-1-22,57.92-34.51,45.51-2.73,0,0,19.44-8.31,22.66,1.46,7.91,23.76-48.64,31.19-64.66,10.07-3.32,1.27-7.52,3.72-8.3,8.12-1.46,7.72-3.42,24.83-3.42,24.83a49.84,49.84,0,0,0-2.54-7.63C492,114.07,489.33,95.2,491.87,91.78Z"/><path class="cls-5" d="M827.31,267.84a1.12,1.12,0,1,0,1.71,1.44Zm9.08-9,.68-.89a1.13,1.13,0,0,0-1.54.17Zm12.71,9.72-.69.89a1.18,1.18,0,0,0,.85.22,1.15,1.15,0,0,0,.75-.46Zm16-21.11a1.11,1.11,0,0,0-1.29-.92l-10,1.65a1.13,1.13,0,0,0,.37,2.22l8.84-1.48,1.48,8.85a1.12,1.12,0,0,0,2.21-.37ZM829,269.28l8.23-9.71-1.72-1.45-8.22,9.72Zm6.69-9.55,12.7,9.72,1.37-1.78L837.07,258Zm14.3,9.48,15-20.93-1.83-1.3-15,20.93Z"/><rect class="cls-17" x="603.19" y="31.62" width="7.47" height="22.42"/><rect class="cls-17" x="615.15" y="37.6" width="7.47" height="16.44"/><rect class="cls-17" x="627.1" y="43.58" width="7.47" height="10.46"/></svg>