<svg id="success" xmlns="http://www.w3.org/2000/svg" xmlns:xlink="http://www.w3.org/1999/xlink" viewBox="0 0 777 478.2"><defs><style>.cls-1,.cls-12,.cls-22,.cls-26,.cls-27,.cls-29,.cls-3,.cls-30,.cls-31,.cls-32{fill:none;}.cls-2{clip-path:url(#clip-path);}.cls-3,.cls-30,.cls-31,.cls-32{stroke:#f29102;}.cls-27,.cls-3,.cls-30,.cls-31,.cls-32{stroke-linecap:round;}.cls-10,.cls-11,.cls-12,.cls-13,.cls-14,.cls-17,.cls-18,.cls-19,.cls-20,.cls-22,.cls-23,.cls-24,.cls-26,.cls-27,.cls-29,.cls-3,.cls-30,.cls-31,.cls-32,.cls-5,.cls-6,.cls-7,.cls-8{stroke-miterlimit:10;}.cls-3{stroke-width:1.38px;}.cls-4{fill:#fcc00e;fill-opacity:0.6;}.cls-13,.cls-18,.cls-23,.cls-5{fill:#fff;}.cls-18,.cls-29,.cls-5,.cls-6,.cls-7{stroke:#000;}.cls-10,.cls-11,.cls-5,.cls-6,.cls-7,.cls-8{stroke-width:1.13px;}.cls-14,.cls-6,.cls-8{fill:#9fc051;}.cls-19,.cls-20,.cls-21,.cls-7{fill:#8ab4e1;}.cls-10,.cls-11,.cls-12,.cls-13,.cls-14,.cls-17,.cls-19,.cls-20,.cls-22,.cls-23,.cls-24,.cls-26,.cls-27,.cls-8{stroke:#030404;}.cls-9{fill:#030404;}.cls-10{fill:#c0c0bf;}.cls-11{fill:#f4f4f4;}.cls-12,.cls-13,.cls-14{stroke-width:0.85px;}.cls-15{fill:#df6886;}.cls-16{fill:#e8b4cc;}.cls-17,.cls-24{fill:#fffffe;}.cls-17{stroke-width:0.57px;}.cls-18,.cls-19,.cls-22,.cls-27{stroke-width:1.16px;}.cls-20,.cls-23,.cls-26{stroke-width:0.87px;}.cls-24{stroke-width:0.58px;}.cls-25{fill:#0b0c0c;}.cls-28{fill:#f29102;}.cls-30{stroke-width:3px;}.cls-31{stroke-width:1.89px;}.cls-32{stroke-width:2px;}</style><clipPath id="clip-path"><rect class="cls-1" width="777" height="479"/></clipPath></defs><title>success</title><g class="cls-2"><path class="cls-3" d="M511.15,157.86l-1.92,8.92-8.76,3.82"/><path class="cls-3" d="M508.6,182.55a17,17,0,1,0-17.06-17A17,17,0,0,0,508.6,182.55Z"/><path class="cls-4" d="M706.71,401a28.52,28.52,0,1,0-28.53-28.52A28.52,28.52,0,0,0,706.71,401Z"/><path class="cls-4" d="M662.4,131.58a9.4,9.4,0,1,0-9.4-9.4A9.4,9.4,0,0,0,662.4,131.58Z"/><path class="cls-4" d="M370.73,296.77a4.31,4.31,0,1,1-4.31-4.3A4.5,4.5,0,0,1,370.73,296.77Z"/><path class="cls-4" d="M463.81,201a20.71,20.71,0,1,0-20.72-20.71A20.72,20.72,0,0,0,463.81,201Z"/><path class="cls-4" d="M108.22,240.22a5.74,5.74,0,1,1,5.74-5.73A5.71,5.71,0,0,1,108.22,240.22Z"/><path class="cls-4" d="M68.38,408.75a18,18,0,1,0-18-18A18,18,0,0,0,68.38,408.75Z"/><path class="cls-4" d="M650,261.56a47.05,47.05,0,0,1,2.71,16.57,60.52,60.52,0,0,1-1.43,12.11,25.51,25.51,0,0,1-5.9,50.33,25.16,25.16,0,0,1-11-2.39,83.37,83.37,0,0,1,5.1,29,86,86,0,0,1-4.94,28.67A40.44,40.44,0,0,1,620,474.06a41.4,41.4,0,0,1-16.74-3.5,44.64,44.64,0,1,1-83.52,31.54,56,56,0,0,1-35.54,12.74c-30.76,0-45.88,11.63-45.88-19.11-26.61-5.58-37.55,17.84-42.33-9.08-5.42,3.66-22.34,1.64-28.4,4.19,5.42,8.28-18.22-10.25-18.22.43,0,5.89,23.19,5.57,21.44,10.83,2.71-.64-9.18,7.15-11.89-10.83,20.09,0,24.21-7.16,24.21,12.91s10.38,27.87-9.7,27.87a36.32,36.32,0,0,1-36.34-36.32,38.81,38.81,0,0,1,.32-4.46,52.82,52.82,0,0,1-65.83-18A93.84,93.84,0,0,1,116,493a15.77,15.77,0,1,1-15.46-25.65,92.42,92.42,0,0,1-6.85-35.2A93.49,93.49,0,0,1,116,371.48a67.21,67.21,0,0,1,34.11-121.39v-.79a12.91,12.91,0,0,1,25.82,0,9.82,9.82,0,0,1-.64,3.66,67.07,67.07,0,0,1,43.83,42.53,102.21,102.21,0,0,1,38.1-56.87,30.4,30.4,0,1,1,34.42-29.94A29.06,29.06,0,0,1,288,223a102.8,102.8,0,0,1,51-2.55v-.63a49.1,49.1,0,0,1,6.22-24.06,12.89,12.89,0,0,1-11-12.74A12.68,12.68,0,0,1,347,170.29a13,13,0,0,1,12.43,9.4,48.19,48.19,0,0,1,29-9.4,49.69,49.69,0,0,1,48.29,38.55A73.59,73.59,0,0,1,459,205.33,70.13,70.13,0,0,1,489.15,212a49.61,49.61,0,0,1,84.47-26.6,14.67,14.67,0,0,1,8-2.23A15.41,15.41,0,0,1,587.17,213a49.89,49.89,0,0,1,.48,7,54.06,54.06,0,0,1-1.12,10.35A49,49,0,0,1,601.84,228a38.38,38.38,0,0,1-.64-7.49A42.24,42.24,0,1,1,650,261.56ZM218.84,343.92c-.16-.8-.48-1.59-.64-2.39a8.94,8.94,0,0,0-.64,1.91A11,11,0,0,1,218.84,343.92Z"/><path class="cls-4" d="M66,283.07a11.63,11.63,0,1,0-11.64-11.63A11.63,11.63,0,0,0,66,283.07Z"/><path class="cls-4" d="M692.69,454.15A7.65,7.65,0,1,0,685,446.5,7.65,7.65,0,0,0,692.69,454.15Z"/><path class="cls-5" d="M693,430.41c-.32-23.09-40-54.48-40-54.48-12.59-15.92-37.14,10.84-35.38,11.31,1.75.8,43.83,29.47,39.68,43.49-1.91,6.85-18.49,19.12-30.44,27.24-6.85,2.55-13.23,5.42-13.39,6.85-.48,3.51,6.86,1.75,6.86,1.75s-8.45,1.76-7.34,5.1c1.12,3.5,9.73,1,9.73,1s-9.25,3-7.34,6.69S627.5,479,627.5,479s-12.28,5.57-5.74,10.83,17.69-2.23,19.28-4c1.44-1.59-1.11-4.3-1.59-4.94C661,472.15,693.32,450,693,430.41Z"/><path class="cls-6" d="M581.28,325.92s40.48,11.31,77.94,49.38l-32.84,36.32S590,340.73,581.28,325.92Z"/><path class="cls-7" d="M659.22,375.3l-32.84,36.32s-2.55-4.94-6.37-12.27l29-33.61C652.52,368.93,656,372.11,659.22,375.3Z"/><path class="cls-5" d="M394.16,292.3c1.75-11.31,6.69-44.12,11-44.76,4.14-.63-.48,17.37-.48,17.37s3-18.16,7.17-17.37c4,.8-.8,18.64-.8,18.64s3.35-21.19,7.65-18.32-.95,18.8-.95,18.8,5.1-19,8.29-16.09-1.92,18.64-1.92,18.64,5.9-7.33,8.45-6.38c2.55,1.28-7.49,16.25-8.93,24.38-1.59,9.4-2.23,35.52,4.31,52.56,4.94,13.39,14.82,32.18,61.36,1.28,44-29,36.18,1.43,31.08,8.44-4.94,7-49.73,54.16-90.69,41.9C388.9,379.28,392.57,302.18,394.16,292.3Z"/><path class="cls-6" d="M550.67,325.28s-41.91-1.75-89.57,22.46l19.76,44.6a140.23,140.23,0,0,1,33.79-14.81C532.18,332.13,545.1,330.22,550.67,325.28Z"/><path class="cls-7" d="M461.1,348.06l19.76,44.6s4.47-2.23,11.48-6.05l-18.65-44.44A111.18,111.18,0,0,0,461.1,348.06Z"/><path class="cls-8" d="M508.28,492.06l4.46,257.42,35.54,2.07,14-284.18Z"/><path class="cls-8" d="M622.72,492.06l-4.47,257.42-35.54,2.07-14-284.18Z"/><path class="cls-8" d="M630.53,468.17c0-80.6-29-145.92-65-145.92s-65,65.32-65,145.92c0,3,0,6.21.16,9.24v27.08h129.9V477.41h-.16C630.53,474.22,630.53,471.2,630.53,468.17Z"/><path class="cls-9" d="M532.66,361.76c1.76-15.45,9.41-35.37,25.82-40.62,15.14-4.62,27.58,7.64,33.63,20.23,4.47,9.56,6.22,20.39,5.9,31.06,0,1.43,2.23,1.43,2.39,0,.32-17.68-4.94-38.39-19.92-49.38a25.33,25.33,0,0,0-20.4-4.62c-7.65,1.59-13.87,6.85-18.65,13.06-6.53,8.92-9.88,19.44-11.16,30.27C530.27,363.19,532.5,363.19,532.66,361.76Z"/><path class="cls-10" d="M597.85,386a7,7,0,1,0-7-7A7,7,0,0,0,597.85,386Z"/><path class="cls-11" d="M601.68,379a3.79,3.79,0,0,1-3.83,3.83,3.83,3.83,0,0,1,0-7.65A3.88,3.88,0,0,1,601.68,379Z"/><path class="cls-9" d="M523.58,386.93a29.75,29.75,0,0,1,.16-13.54c1-3.51,2.39-6.85,5.26-9.08,6.21-4.62,11.79,2.55,13.71,7.8a31.26,31.26,0,0,1,1.43,15.77,1.14,1.14,0,0,0,2.23.48,33.75,33.75,0,0,0-1.11-15.93c-1.28-3.82-3.51-7.81-6.7-10a9.5,9.5,0,0,0-9.4-.95c-3.51,1.75-5.58,5.42-6.86,8.92-1.91,5.42-1.91,11.63-.95,17.2C521.67,388.84,523.74,388.36,523.58,386.93Z"/><path class="cls-12" d="M520.71,406.2s5.42,6.37,13.71,1.12c8.44-5.26,10.67-15.3,11.31-21.19"/><path class="cls-13" d="M521.83,405.24a1.76,1.76,0,1,1-3.51,0,1.67,1.67,0,0,1,1.75-1.75A1.77,1.77,0,0,1,521.83,405.24Z"/><path class="cls-12" d="M547.8,406s-5.26,6.37-13.7,1.28-10.84-15.14-11.64-21.19"/><path class="cls-13" d="M546.53,405.08a1.68,1.68,0,1,0,1.59-1.75A2.05,2.05,0,0,0,546.53,405.08Z"/><path class="cls-13" d="M565.5,347.74l15.78-21.19a40.8,40.8,0,0,0-8.13-3.5l.16-11.31c.31-9.72-3.51-12.27-7.34-12.43h-3c-4,0-7.18,3.67-7,12.27l-.16,12.11a36.41,36.41,0,0,0-9.56,4.93Z"/><path class="cls-14" d="M545.57,329,566.13,352,584,328.47a55.12,55.12,0,0,0-7.33-4l-10.52,16.41L552.27,325A61.3,61.3,0,0,0,545.57,329Z"/><path class="cls-9" d="M538.08,285.3a38.74,38.74,0,0,1-4-22.15c2.39-21.5,26.93-18.47,29.8-18.63,9.72-.48,26.78,1.27,28.37,14s-3,30.26-3.5,32.33C588.61,292.94,546.21,299.63,538.08,285.3Z"/><path class="cls-13" d="M529.64,289a6.8,6.8,0,0,0,6.69,7,6.7,6.7,0,0,0,7-6.69,6.85,6.85,0,0,0-13.7-.32Z"/><path class="cls-9" d="M539.68,289.92v-.8h0v-.48c0-.16-.16-.32-.16-.48h0V288c0-.15-.16-.15-.16-.31a.16.16,0,0,0-.16-.16h0l-.32-.32a.16.16,0,0,1-.16-.16c-.16,0-.16-.16-.32-.16h-.16c-.16,0-.32-.16-.48-.16h-1.27a.48.48,0,0,1,0-1,4.22,4.22,0,0,1,4,1.44,5.51,5.51,0,0,1,1,2.71v.47a.42.42,0,0,1-.48.48C540,290.55,539.68,290.39,539.68,289.92Z"/><path class="cls-13" d="M597.21,289.76a6.9,6.9,0,0,1-7,6.69,6.8,6.8,0,0,1-6.69-7,6.85,6.85,0,0,1,13.7.32Z"/><path class="cls-9" d="M586.06,290.39a4.65,4.65,0,0,1,2.55-4.3,5.21,5.21,0,0,1,2.71-.16c.32,0,.32.32.32.8,0,.32-.32.32-.8.32a3.73,3.73,0,0,0-1.91.16s-.16.16-.16,0h-.16c-.16,0-.16.16-.32.16h0a.16.16,0,0,0-.16.16c-.16,0-.16.15-.16.31h0a.16.16,0,0,1-.16.16c0,.16-.16.16-.16.32v.16h0c0,.16,0,.16-.16.32,0,.16-.16.32-.16.48v.16h0v.63C587.17,291,586.22,291,586.06,290.39Z"/><path class="cls-13" d="M585.42,291.51a19,19,0,0,1-19,18.64h-6.21a18.94,18.94,0,0,1-18.65-19l.32-20.39a19,19,0,0,1,19-18.64h6.21a19,19,0,0,1,18.65,19Z"/><path class="cls-15" d="M563.42,276.7,561,286.57h5.1Z"/><path class="cls-16" d="M553.54,290.87a5.51,5.51,0,1,1-5.1-5.89A5.42,5.42,0,0,1,553.54,290.87Z"/><path class="cls-16" d="M583.51,290.87a5.51,5.51,0,1,1-5.1-5.89A5.24,5.24,0,0,1,583.51,290.87Z"/><path class="cls-17" d="M560.08,293.9a4.09,4.09,0,0,0,4.3,3.82,4.3,4.3,0,0,0,4.3-3.82Z"/><path class="cls-9" d="M552,280.36a2.56,2.56,0,1,1-2.39-2.71C551,278,552.11,279.24,552,280.36Z"/><path class="cls-9" d="M578.72,280.36a2.56,2.56,0,1,1-2.38-2.71C577.77,278,578.89,279.24,578.72,280.36Z"/><path class="cls-9" d="M538.08,274.31s20.88-5.26,28.21-16.89c0,0,12.6,15,22.8,15.13,6.21.16.31-21.5-10.84-23.09-11.16-1.44-28.85-1.44-34,5.41C539.2,261.88,538.08,274.31,538.08,274.31Z"/><path class="cls-9" d="M568,246.33c9-1.05,15.49-8.91,14.48-17.56S573.33,214,564.32,215s-15.49,8.92-14.48,17.57S559,247.38,568,246.33Z"/><path class="cls-18" d="M374.23,338.34s28.06-67.54,26.62-72.48-9.08,13.7-9.08,13.7,5.26-17.52,3-19.11-10.05,17.68-10.05,17.68,5.42-20.23,2.87-21.51c-2.39-1.27-9.24,17.53-9.24,17.53s3.19-19.6.48-20.23-15,35-15,35,.31-22.94-2.87-23.73c-3-.64-4.31,24.53-7.34,36.95s-9.56,26.61-9.56,26.61Z"/><path class="cls-19" d="M351.12,304.41c11,4,22,8,33.16,11.95C358.93,436.47,248.48,453,225.21,318.43,294.38,343.28,304.58,381.67,351.12,304.41Z"/><path class="cls-19" d="M346.82,312.06c1.6-2.55,3.19-5.26,4.78-7.81,11,4,22.16,8,33.15,11.95-.63,3.19-1.27,6.53-1.91,9.72C370.89,321.14,358.77,316.68,346.82,312.06Z"/><path class="cls-19" d="M63.91,448.26c-1.91-9.88.8-22.46,10-38.08,45.59-76.78,117.63-92.86,117.63-92.86L171.66,425.8Z"/><path class="cls-20" d="M279.08,505.28a279.26,279.26,0,0,0,3.83-45.71c0-80-33.79-144.64-75.23-144.64s-70.77,65.15-75.39,144.64c-1,15.92,1.27,31.38,3.82,45.71Z"/><path d="M207.52,357.93a2.1,2.1,0,0,1-2.07-2.07v-6.69a2.07,2.07,0,1,1,4.14,0v6.69A2,2,0,0,1,207.52,357.93Z"/><path d="M190.78,356.34a2.11,2.11,0,0,1-2.07-2.07v-6.69a2.07,2.07,0,1,1,4.14,0v6.69A2.1,2.1,0,0,1,190.78,356.34Z"/><path d="M198.59,372.27a2.11,2.11,0,0,1-2.07-2.07v-6.69a2.07,2.07,0,0,1,4.14,0v6.69A1.91,1.91,0,0,1,198.59,372.27Z"/><path d="M217.88,373.07a2.11,2.11,0,0,1-2.07-2.07v-6.7a2.07,2.07,0,1,1,4.14,0V371A1.92,1.92,0,0,1,217.88,373.07Z"/><path d="M237.48,373.07a2.11,2.11,0,0,1-2.07-2.07v-6.7a2.07,2.07,0,0,1,4.14,0V371A2.11,2.11,0,0,1,237.48,373.07Z"/><path d="M253.1,371.47a2.25,2.25,0,0,1-2.23-2.07l-.32-6.69a2.16,2.16,0,0,1,4.31-.16l.32,6.69A2.05,2.05,0,0,1,253.1,371.47Z"/><path d="M227,356.34a2.11,2.11,0,0,1-2.07-2.07v-6.69a2.08,2.08,0,0,1,4.15,0v6.69A2.11,2.11,0,0,1,227,356.34Z"/><path d="M198.59,339.61a2.11,2.11,0,0,1-2.07-2.07v-6.69a2.07,2.07,0,1,1,4.14,0v6.69A1.91,1.91,0,0,1,198.59,339.61Z"/><path d="M215.81,339.61a2.1,2.1,0,0,1-2.07-2.07v-6.69a2.07,2.07,0,1,1,4.14,0v6.69A2.11,2.11,0,0,1,215.81,339.61Z"/><path d="M172,357.93a2.11,2.11,0,0,1-2.08-2.07v-6.69a2.08,2.08,0,0,1,4.15,0v6.69A2,2,0,0,1,172,357.93Z"/><path d="M163.21,372.27a2.1,2.1,0,0,1-2.07-2.07v-6.69a2.07,2.07,0,1,1,4.14,0v6.69A1.91,1.91,0,0,1,163.21,372.27Z"/><path d="M182.49,373.07a2.11,2.11,0,0,1-2.07-2.07v-6.7a2.08,2.08,0,0,1,4.15,0V371A1.93,1.93,0,0,1,182.49,373.07Z"/><path d="M180.42,339.61a2.11,2.11,0,0,1-2.07-2.07v-6.69a2.07,2.07,0,1,1,4.14,0v6.69A2.1,2.1,0,0,1,180.42,339.61Z"/><path d="M233.18,339.61a2.1,2.1,0,0,1-2.07-2.07v-6.69a2.07,2.07,0,1,1,4.14,0v6.69C235.41,338.66,234.61,339.61,233.18,339.61Z"/><path d="M243.86,355.55a2.11,2.11,0,0,1-2.07-2.08v-6.69a2.07,2.07,0,0,1,4.14,0v6.69A2.12,2.12,0,0,1,243.86,355.55Z"/><path d="M208,426.27a2.1,2.1,0,0,1-2.07-2.07v-6.69a2.07,2.07,0,0,1,4.14,0v6.69A2.11,2.11,0,0,1,208,426.27Z"/><path d="M246.73,426.91a2.12,2.12,0,0,1-2.08-2.07v-6.69a2.08,2.08,0,0,1,4.15,0v6.69A2.11,2.11,0,0,1,246.73,426.91Z"/><path d="M262.51,425.48a2.26,2.26,0,0,1-2.24-2.08l-.31-6.69a2.15,2.15,0,0,1,4.3-.16l.32,6.7A2.15,2.15,0,0,1,262.51,425.48Z"/><path d="M272.07,410.18a2.25,2.25,0,0,1-2.23-2.07l-.32-6.69a2.15,2.15,0,0,1,4.3-.16l.32,6.69A2,2,0,0,1,272.07,410.18Z"/><path d="M236.21,410.18a2.1,2.1,0,0,1-2.07-2.07v-6.69a2.07,2.07,0,1,1,4.14,0v6.69A1.92,1.92,0,0,1,236.21,410.18Z"/><path d="M208,393.62a2.11,2.11,0,0,1-2.07-2.07v-6.69a2.07,2.07,0,0,1,4.14,0v6.69A2.11,2.11,0,0,1,208,393.62Z"/><path d="M225.05,393.62a2.11,2.11,0,0,1-2.07-2.07v-6.69a2.07,2.07,0,1,1,4.14,0v6.69A1.92,1.92,0,0,1,225.05,393.62Z"/><path d="M242.74,393.62a2.11,2.11,0,0,1-2.07-2.07v-6.69a2.08,2.08,0,0,1,4.15,0v6.69A2.12,2.12,0,0,1,242.74,393.62Z"/><path d="M162.25,411.94a2.12,2.12,0,0,1-2.07-2.08v-6.69a2.07,2.07,0,1,1,4.14,0v6.69A1.92,1.92,0,0,1,162.25,411.94Z"/><path d="M153.49,426.27a2.11,2.11,0,0,1-2.08-2.07v-6.69a2.08,2.08,0,0,1,4.15,0v6.69A2.11,2.11,0,0,1,153.49,426.27Z"/><path d="M172.77,426.91a2.11,2.11,0,0,1-2.07-2.07v-6.69a2.08,2.08,0,0,1,4.15,0v6.69A2.12,2.12,0,0,1,172.77,426.91Z"/><path d="M192.22,426.91a2.11,2.11,0,0,1-2.07-2.07v-6.69a2.07,2.07,0,0,1,4.14,0v6.69A2.11,2.11,0,0,1,192.22,426.91Z"/><path d="M181.7,407.32a2.11,2.11,0,0,1-2.07-2.07v-6.7a2.07,2.07,0,0,1,4.14,0v6.7A2,2,0,0,1,181.7,407.32Z"/><path d="M144.56,410.18a2.11,2.11,0,0,1-2.07-2.07v-6.69a2.07,2.07,0,0,1,4.14,0v6.69A1.92,1.92,0,0,1,144.56,410.18Z"/><path d="M153.49,393.62a2.12,2.12,0,0,1-2.08-2.07v-6.69a2.08,2.08,0,0,1,4.15,0v6.69A2.11,2.11,0,0,1,153.49,393.62Z"/><path d="M170.54,393.62a2.11,2.11,0,0,1-2.07-2.07v-6.69a2.07,2.07,0,0,1,4.14,0v6.69A1.92,1.92,0,0,1,170.54,393.62Z"/><path d="M188.23,393.62a2.11,2.11,0,0,1-2.07-2.07v-6.69a2.07,2.07,0,0,1,4.14,0v6.69A2.22,2.22,0,0,1,188.23,393.62Z"/><path d="M263.78,393.14a2.11,2.11,0,0,1-2.07-2.07v-6.69a2.07,2.07,0,0,1,4.14,0v6.69C266,392.34,265.22,393.14,263.78,393.14Z"/><path d="M253.1,409.55a2.11,2.11,0,0,1-2.07-2.07v-6.69a2.08,2.08,0,1,1,4.15,0v6.69A2.12,2.12,0,0,1,253.1,409.55Z"/><path d="M212,464.18a2.11,2.11,0,0,1-2.07-2.07v-6.69a2.07,2.07,0,0,1,4.14,0v6.69A1.91,1.91,0,0,1,212,464.18Z"/><path d="M195.25,462.59a2.11,2.11,0,0,1-2.08-2.07v-6.69a2.08,2.08,0,0,1,4.15,0v6.69A2.11,2.11,0,0,1,195.25,462.59Z"/><path d="M203.21,478.52a2.11,2.11,0,0,1-2.07-2.07v-6.69a2.08,2.08,0,0,1,4.15,0v6.69A2.11,2.11,0,0,1,203.21,478.52Z"/><path d="M187.44,478.52a2.11,2.11,0,0,1-2.08-2.07v-6.69a2.08,2.08,0,0,1,4.15,0v6.69A2.11,2.11,0,0,1,187.44,478.52Z"/><path d="M222.5,479.16a2.11,2.11,0,0,1-2.07-2.07V470.4a2.07,2.07,0,0,1,4.14,0v6.69A2,2,0,0,1,222.5,479.16Z"/><path d="M242,479.16a2.12,2.12,0,0,1-2.08-2.07V470.4a2.08,2.08,0,0,1,4.15,0v6.69A2,2,0,0,1,242,479.16Z"/><path d="M257.73,477.72a2.26,2.26,0,0,1-2.24-2.07l-.31-6.69a2.15,2.15,0,0,1,4.3-.16l.32,6.69A2.25,2.25,0,0,1,257.73,477.72Z"/><path d="M275.73,480.43a2.25,2.25,0,0,1-2.23-2.07l-.32-6.69a2.16,2.16,0,0,1,4.31-.16l.32,6.69A2,2,0,0,1,275.73,480.43Z"/><path d="M267.13,462.59a2.25,2.25,0,0,1-2.23-2.07l-.32-6.69a2.15,2.15,0,0,1,4.3-.16l.32,6.69C269.36,461.48,268.56,462.27,267.13,462.59Z"/><path d="M231.43,462.59a2.11,2.11,0,0,1-2.08-2.07v-6.69a2.08,2.08,0,0,1,4.15,0v6.69A1.92,1.92,0,0,1,231.43,462.59Z"/><path d="M178.67,462.59a2.1,2.1,0,0,1-2.07-2.07v-6.69a2.07,2.07,0,0,1,4.14,0v6.69A2.1,2.1,0,0,1,178.67,462.59Z"/><path d="M186.64,445.86a2.1,2.1,0,0,1-2.07-2.07V437.1a2.07,2.07,0,1,1,4.14,0v6.69A2.1,2.1,0,0,1,186.64,445.86Z"/><path d="M161.93,462.59a2.11,2.11,0,0,1-2.07-2.07v-6.69a2.08,2.08,0,0,1,4.15,0v6.69A2.11,2.11,0,0,1,161.93,462.59Z"/><path d="M169.9,478.52a2.11,2.11,0,0,1-2.07-2.07v-6.69a2.08,2.08,0,0,1,4.15,0v6.69A2.11,2.11,0,0,1,169.9,478.52Z"/><path d="M154.12,478.52a2.11,2.11,0,0,1-2.07-2.07v-6.69a2.08,2.08,0,0,1,4.15,0v6.69A2.11,2.11,0,0,1,154.12,478.52Z"/><path d="M169.9,445.86a2.11,2.11,0,0,1-2.07-2.07V437.1a2.08,2.08,0,0,1,4.15,0v6.69A2.11,2.11,0,0,1,169.9,445.86Z"/><path d="M153.33,445.86a2.1,2.1,0,0,1-2.07-2.07V437.1a2.07,2.07,0,1,1,4.14,0v6.69A2.11,2.11,0,0,1,153.33,445.86Z"/><path d="M147.11,462.59a2.11,2.11,0,0,1-2.07-2.07v-6.69a2.07,2.07,0,1,1,4.14,0v6.69A2.22,2.22,0,0,1,147.11,462.59Z"/><path d="M139.3,478.52a2.11,2.11,0,0,1-2.07-2.07v-6.69a2.07,2.07,0,1,1,4.14,0v6.69A2.1,2.1,0,0,1,139.3,478.52Z"/><path d="M138.51,445.86a2.11,2.11,0,0,1-2.08-2.07V437.1a2.08,2.08,0,0,1,4.15,0v6.69A2.11,2.11,0,0,1,138.51,445.86Z"/><path d="M220.27,448.26a2.11,2.11,0,0,1-2.07-2.08v-6.53a2.07,2.07,0,1,1,4.14,0v6.69C222.5,447.46,221.54,448.26,220.27,448.26Z"/><path d="M238,445.86a2.11,2.11,0,0,1-2.07-2.07V437.1a2.07,2.07,0,1,1,4.14,0v6.69A2.35,2.35,0,0,1,238,445.86Z"/><path d="M259,445.55a2.11,2.11,0,0,1-2.07-2.07v-6.69a2.07,2.07,0,1,1,4.14,0v6.69A2,2,0,0,1,259,445.55Z"/><path d="M273.5,445.55a2.11,2.11,0,0,1-2.07-2.07v-6.69a2.08,2.08,0,1,1,4.15,0v6.69A2.23,2.23,0,0,1,273.5,445.55Z"/><path d="M248.32,461.8a2.12,2.12,0,0,1-2.07-2.08V453a2.07,2.07,0,0,1,4.14,0v6.69A2.37,2.37,0,0,1,248.32,461.8Z"/><path class="cls-18" d="M160.18,454s69.81-21.66,72.68-25.81c2.87-4.3-16.42,1.76-16.42,1.76s16.9-7.33,16.74-9.88c-.16-2.71-19.92,3.51-19.92,3.51s19-8.77,18.33-11.47c-.48-2.71-19.45,4.14-19.45,4.14s17.06-10,15.78-12.59-36.66,10.83-36.66,10.83,17.85-14.49,16.42-17.36c-1.44-2.71-21.68,12.43-33.15,18s-26.62,9.72-26.62,9.72Z"/><path class="cls-21" d="M93.08,425.79c41.92-3.18,66.15-7,66.15-7l13.54,33.61c-42.23,38.23-142,30.42-98.82-42.22Z"/><path class="cls-22" d="M74,410.18c-43,72.48,56.75,80.29,98.82,42.22L159.23,419s-25,4.45-66.15,7"/><path class="cls-19" d="M149.82,420.22c5.9-1,9.72-1.43,9.72-1.43l13.55,33.61a77.16,77.16,0,0,1-9.88,7.48Z"/><path class="cls-9" d="M180.9,270.17a28.9,28.9,0,0,1-4.14-23.1c3.34-13.38,28.21-20.39,31.08-19.44,3,.8,14.34,1.44,14.34,1.44s13.71,0,15.46,13.38c1.91,13.38-4.3,29.15-4.62,31.06C232.86,275.42,189.51,285.14,180.9,270.17Z"/><path class="cls-23" d="M217.24,310.47a7.72,7.72,0,0,1-7.49,7.64h-3.19a7.72,7.72,0,0,1-7.65-7.49l-.16-15.45a7.72,7.72,0,0,1,7.49-7.64h3.19a7.71,7.71,0,0,1,7.65,7.48Z"/><path class="cls-23" d="M172.29,274a7.48,7.48,0,0,0,7,7.48c4,.32,7.17-3,7.49-6.85a7.48,7.48,0,0,0-7-7.48A6.88,6.88,0,0,0,172.29,274Z"/><path class="cls-9" d="M182.81,275.1v-.79h0v-.64a3.26,3.26,0,0,1-.16-.8h0v-.16c0-.16-.16-.16-.16-.32,0,0,0-.16-.15-.16h0l-.32-.31a.16.16,0,0,1-.16-.16h0c-.16,0-.16-.16-.32-.16h-.32c-.16,0-.32-.16-.48-.16h-1.27a.48.48,0,0,1,0-1,4.92,4.92,0,0,1,4.3,1.6,6.13,6.13,0,0,1,1,2.7v.48a.42.42,0,0,1-.48.48C183,275.74,182.65,275.42,182.81,275.1Z"/><path class="cls-23" d="M243.06,274.94a7.25,7.25,0,0,1-7.49,6.85,7.18,7.18,0,0,1-7-7.49,7,7,0,0,1,7.49-6.84A7.48,7.48,0,0,1,243.06,274.94Z"/><path class="cls-9" d="M231.43,275.42A4.9,4.9,0,0,1,234,271a6.37,6.37,0,0,1,3-.16c.31,0,.31.32.31.8s-.31.32-.79.32a4.38,4.38,0,0,0-2.07.16s-.17.16-.17,0a.15.15,0,0,0-.15.16c-.16,0-.16.15-.32.15h0a.16.16,0,0,0-.16.16c-.16,0-.16.16-.16.32h0a.16.16,0,0,1-.16.16c0,.16-.16.16-.16.32v.16h0c0,.16,0,.16-.16.32,0,.16-.16.32-.16.48v.16h0v.63C232.54,276.22,231.43,276.22,231.43,275.42Z"/><path class="cls-23" d="M230.47,276.54A19.94,19.94,0,0,1,210.55,296h-6.38a19.93,19.93,0,0,1-19.44-19.91l.16-21.19a19.93,19.93,0,0,1,19.92-19.43h6.37a19.94,19.94,0,0,1,19.45,19.91Z"/><path class="cls-9" d="M234.61,240.06c-1.59-2.23-7.17-5.9-11.63-8,1-20.55-54.19-32.18-42.4-2.55,0,0-18.17-7.8-21.2,1.28-7.49,22,45.43,29.15,60.41,9.4,3.19,1.11,7,3.5,7.81,7.64,1.28,7.17,3.19,23.1,3.19,23.1a48.07,48.07,0,0,1,2.39-7C234.3,260.92,237,243.4,234.61,240.06Z"/><path class="cls-15" d="M207.52,261.08l-2.71,10.52,5.58-.16Z"/><path class="cls-16" d="M197.16,276.06a5.85,5.85,0,1,1-5.26-6.37A6,6,0,0,1,197.16,276.06Z"/><path class="cls-16" d="M228.56,276.06a5.85,5.85,0,1,1-5.26-6.37C226.65,270.17,229,272.87,228.56,276.06Z"/><path class="cls-24" d="M204,279.4a4.51,4.51,0,0,0,4.47,4.14,4.35,4.35,0,0,0,4.46-3.82Z"/><path class="cls-25" d="M195.57,265.07a2.64,2.64,0,1,1-2.56-2.71A2.77,2.77,0,0,1,195.57,265.07Z"/><path class="cls-25" d="M223.62,265.07a2.63,2.63,0,1,1-2.55-2.71A2.77,2.77,0,0,1,223.62,265.07Z"/><path class="cls-20" d="M216.92,323.69H200.35a8.92,8.92,0,0,1-8.93-8.92v-4.14a8.92,8.92,0,0,1,8.93-8.93h16.57a8.92,8.92,0,0,1,8.93,8.93v4.14A8.92,8.92,0,0,1,216.92,323.69Z"/><path class="cls-26" d="M194.61,303.3v18.8"/><path class="cls-26" d="M198.59,301.86v21.83"/><path class="cls-26" d="M202.9,301.86v21.83"/><path class="cls-26" d="M207.52,301.86v21.83"/><path class="cls-26" d="M211.5,301.86v21.83"/><path class="cls-26" d="M215.81,301.86v21.83"/><path class="cls-26" d="M219.47,301.86v21.83"/><path class="cls-26" d="M222.66,304.1l.16,17.36"/><path class="cls-27" d="M388.58,249l-9.09-20.71"/><path class="cls-27" d="M395.75,247.39l.16-22.62"/><path class="cls-28" d="M347.94,452.08c-6.06-6.21-12.12-12.27-18.17-18.48-.16-.16-.32-.32-.48-.32-1.91-.48-3.67-1.11-5.58-1.43a26.56,26.56,0,0,1-6.22-2.39h-.79v.8c0,.16.16.16.16.31a28.22,28.22,0,0,1,1.27,3.19c.32,1,.48,1.75.8,2.71.48,1.91,1,3.82,1.43,5.57,0,.16.16.32.32.48,6.06,6.21,12.12,12.27,18.17,18.48a3.23,3.23,0,0,0,1.6.95h1.11a9.11,9.11,0,0,0,4.62-2.7,8.55,8.55,0,0,0,2.71-4.62v-1.12A3.79,3.79,0,0,0,347.94,452.08Zm-20.09-16.73c0-.32-.15-.63-.15-1h1.11l.16.16c4.78,4.77,9.56,9.55,14.18,14.49l.16.16-1.11,1.12-.16-.16c-4.78-4.78-9.4-9.56-14.19-14.34C328,435.67,327.85,435.51,327.85,435.35Zm9.73,19.12c-4.63-4.78-9.25-9.4-13.87-14.18a.59.59,0,0,1-.16-.48c.16-.63.32-1.11.48-1.75v-.32c0-.48.32-.79,1-.95s1.44-.32,2.08-.48c.16,0,.32,0,.32.16,1.43,1.59,3,3,4.46,4.62,3.19,3.18,6.21,6.37,9.4,9.55.16.16.16.16.32.16-1.27,1.28-2.55,2.55-4,3.83C337.74,454.79,337.58,454.63,337.58,454.47Zm-19.45-23.42c.64.32,1.12.48,1.76.8l-1,.95A16.38,16.38,0,0,0,318.13,431.05Zm2.55,8.13c-.48-1.6-.79-3.19-1.27-4.94a.59.59,0,0,1,.16-.48,9.13,9.13,0,0,1,1.43-1.27.56.56,0,0,0,.32-.16l5.26,1.43c0,.48.16,1,.16,1.43s0,.32-.32.48l-1.91.48a1.72,1.72,0,0,0-1.6,1.59l-.48,1.91c0,.32-.15.32-.47.32h-1.28Zm15,17.2c-4.62-4.78-9.4-9.56-14-14.34a1.69,1.69,0,0,1-.32-1.27h1.27c.16,0,.16.16.32.16,4.63,4.62,9.09,9.24,13.71,13.86.16.16.48.32.64.63l-1.12,1.12C335.82,456.54,335.82,456.54,335.66,456.38Zm3.19,3.19-2.07-2.08c2.55-2.38,5.1-4.93,7.49-7.48.64.63,1.43,1.43,2.07,2.07C344,454.63,341.4,457.18,338.85,459.57Zm8.93-4.78a7.38,7.38,0,0,1-1.12,2.55,11.16,11.16,0,0,1-3.51,3.18,5.12,5.12,0,0,1-2.23.64,1.45,1.45,0,0,1-1.11-.48c2.55-2.55,5.1-4.94,7.65-7.49C347.78,453.51,347.78,454,347.78,454.79Z"/><path class="cls-28" d="M635.47,287.85c7.65-6.38,15.46-12.75,23.11-19.12a1.18,1.18,0,0,1,.64-.32c2.23-.32,4.46-.8,6.53-1.11a43.81,43.81,0,0,0,7.49-1.91,1.26,1.26,0,0,1,.8.15l-.16.8a.5.5,0,0,0-.16.32c-.64,1.11-1.28,2.23-1.91,3.5a23.2,23.2,0,0,0-1.12,3c-.8,2.07-1.59,4.14-2.23,6.37a.86.86,0,0,1-.48.64c-7.65,6.37-15.46,12.74-23.11,19.12a4.47,4.47,0,0,1-1.91.95l-1.28-.16a9.51,9.51,0,0,1-4.94-3.66,10.1,10.1,0,0,1-2.55-5.58l.16-1.27A4.05,4.05,0,0,1,635.47,287.85Zm25-16.89a10.62,10.62,0,0,0,.32-1.11c-.48,0-1-.16-1.44-.16-.15,0-.15.16-.32.16-6,4.93-12.11,10-18,15l-.15.16c.31.48.79.95,1.11,1.43.16,0,.16-.16.32-.16,6.06-4.94,11.95-9.87,17.85-14.81C660.33,271.28,660.49,271.12,660.49,271ZM647.1,291.83c5.9-4.94,11.8-9.72,17.69-14.66a.58.58,0,0,0,.16-.47c-.16-.64-.16-1.44-.32-2.08v-.32a1,1,0,0,0-1-1.11,14.28,14.28,0,0,0-2.39-.8c-.16,0-.32,0-.32.16l-5.74,4.78c-4,3.35-8,6.53-12,9.88a.5.5,0,0,1-.32.16c1.27,1.59,2.71,3.18,4,4.94C646.94,292.15,647.1,292,647.1,291.83Zm25-24.69c-.79.16-1.43.47-2.07.63a8,8,0,0,0,1.12,1.28A20,20,0,0,0,672.12,267.14Zm-3.66,9.08c.64-1.76,1.27-3.67,1.91-5.42.16-.16.16-.32-.16-.64a15.82,15.82,0,0,1-1.43-1.75.5.5,0,0,0-.32-.16l-6.22,1h0c-.16.64-.16,1.11-.32,1.59-.15.32,0,.48.32.48.64.16,1.44.48,2.08.64a2.38,2.38,0,0,1,1.75,2.07,10.81,10.81,0,0,0,.32,2.23.42.42,0,0,0,.47.48c.48,0,1,.15,1.44.15A1,1,0,0,1,668.46,276.22Zm-19.45,18c5.9-4.94,12-9.88,17.85-14.82.48-.48.32-.95.48-1.43-.48,0-1-.16-1.43-.16-.16,0-.16.16-.32.16-5.74,4.78-11.63,9.56-17.37,14.34-.32.15-.48.47-.8.63.48.48.8,1,1.28,1.44C648.85,294.38,649,294.38,649,294.22Zm-4,3.34c1-.79,1.75-1.43,2.71-2.23-2.55-3.18-5.26-6.21-7.81-9.4-.8.64-1.75,1.44-2.55,2.23C639.93,291.19,642.48,294.38,645,297.56Zm-9.56-6.69a6.86,6.86,0,0,0,.95,3,11.05,11.05,0,0,0,3.67,4,5,5,0,0,0,2.55,1,2.55,2.55,0,0,0,1.43-.48c-2.55-3.19-5.26-6.37-7.81-9.56A2.67,2.67,0,0,0,635.47,290.87Z"/><path class="cls-29" d="M25.5,478.2H755.64"/><path class="cls-30" d="M639.45,191.15,653.16,208l25.34-22.62"/><path class="cls-31" d="M293.9,265.54,305.38,273l10.84-18.48"/><path class="cls-31" d="M713.25,361.28l7.17,11.63,17.69-12.11"/><path class="cls-32" d="M77.14,305.53l2.71,12.9,12.75,5.74"/><path class="cls-32" d="M81,341.53A24.85,24.85,0,1,0,56.1,316.68,24.86,24.86,0,0,0,81,341.53Z"/></g></svg>