<svg width="24" height="24" viewBox="0 0 24 24" fill="none" xmlns="http://www.w3.org/2000/svg">
<path d="M8.68934 20.2501H4.5C4.30109 20.2501 4.11032 20.1711 3.96967 20.0305C3.82902 19.8898 3.75 19.699 3.75 19.5001V15.3108C3.75 15.2123 3.7694 15.1148 3.80709 15.0238C3.84478 14.9328 3.90003 14.8501 3.96967 14.7805L15.2197 3.53046C15.3603 3.38981 15.5511 3.31079 15.75 3.31079C15.9489 3.31079 16.1397 3.38981 16.2803 3.53046L20.4697 7.7198C20.6103 7.86045 20.6893 8.05122 20.6893 8.25013C20.6893 8.44904 20.6103 8.63981 20.4697 8.78046L9.21967 20.0305C9.15003 20.1001 9.06735 20.1553 8.97635 20.193C8.88536 20.2307 8.78783 20.2501 8.68934 20.2501Z" stroke="#363638" stroke-width="1.5" stroke-linecap="round" stroke-linejoin="round"/>
<path d="M12.75 6L18 11.25" stroke="#363638" stroke-width="1.5" stroke-linecap="round" stroke-linejoin="round"/>
<path d="M8.95223 20.2022L3.79785 15.0479" stroke="#363638" stroke-width="1.5" stroke-linecap="round" stroke-linejoin="round"/>
</svg>
