<?xml version="1.0" encoding="utf-8"?>
<!-- Generator: Adobe Illustrator 23.0.0, SVG Export Plug-In . SVG Version: 6.00 Build 0)  -->
<svg version="1.1" id="Слой_1" xmlns="http://www.w3.org/2000/svg" xmlns:xlink="http://www.w3.org/1999/xlink" x="0px" y="0px"
	 viewBox="0 0 1919 1603" style="enable-background:new 0 0 1919 1603;" xml:space="preserve">
<style type="text/css">
	.st0{fill:#0D4552;}
	.st1{fill:none;}
	.st2{fill:#9E9E9E;}
	.st3{clip-path:url(#SVGID_2_);fill:url(#SVGID_3_);}
	.st4{clip-path:url(#SVGID_5_);fill:url(#SVGID_6_);}
	.st5{fill:#F5F6F6;}
	.st6{clip-path:url(#SVGID_8_);fill:url(#SVGID_9_);}
	.st7{fill:#F6F7FB;}
	.st8{fill:#E9E8E8;}
	.st9{fill:#FFFFFF;}
	.st10{fill:#7FCECD;}
	.st11{fill:#146167;}
	.st12{fill:#187677;}
	.st13{fill:#891A1A;}
	.st14{fill:#2A2C47;}
	.st15{fill:#E2D2CA;}
	.st16{fill:#EFA986;}
	.st17{fill:#434873;}
	.st18{fill:#E8744E;}
	.st19{fill:#323757;}
	.st20{fill:#252840;}
	.st21{fill:#EFAA87;}
	.st22{fill:#3B4048;}
	.st23{fill:#373B5E;}
	.st24{fill:#414767;}
	.st25{fill:#EDDAD3;}
	.st26{fill:#D0BEB8;}
	.st27{fill:#5AAFAB;}
	.st28{fill:#717171;}
	.st29{fill:#A1A0A0;}
	.st30{fill:#FAE6DD;}
	.st31{fill:#D6C5BE;}
	.st32{fill:#A77961;}
	.st33{fill:#838383;}
	.st34{fill:#D7D6D6;}
	.st35{fill:#C2C2C2;}
	.st36{fill:#E6E1DE;}
	.st37{fill:#9A1B1F;}
	.st38{font-family:'PTSans-Regular';}
	.st39{font-size:16px;}
</style>
<polyline class="st0" points="-386.2,1630.2 -109.3,1353.3 167.7,1076.3 -545.5,1076.3 "/>
<polyline class="st1" points="167.7,1907.4 167.7,1076.3 -1099.4,1076.3 "/>
<path class="st2" d="M1444.2,773.1l-0.5-0.7c0,0,1.5-1.1,3.6-3l0.6,0.6C1445.8,772,1444.3,773.1,1444.2,773.1 M1451.2,766.6
	l-0.7-0.6c1-1.2,2-2.4,2.9-3.7l0.7,0.5C1453.3,764.2,1452.3,765.4,1451.2,766.6 M1456.6,758.8l-0.8-0.4c0.7-1.4,1.3-2.9,1.8-4.3
	l0.8,0.3C1457.9,755.8,1457.3,757.3,1456.6,758.8 M1459.4,749.6l-0.9-0.1c0.1-0.9,0.2-1.8,0.2-2.7c0-0.6,0-1.3-0.1-1.9l0.9-0.1
	c0.1,0.7,0.1,1.3,0.1,2C1459.6,747.8,1459.5,748.7,1459.4,749.6 M1457.8,740.3c-0.4-1.4-1-2.9-1.6-4.3l0.8-0.4
	c0.7,1.5,1.3,3,1.7,4.5L1457.8,740.3z M991.7,740.3h-0.9c0.1-1.6,0.2-3.2,0.3-4.7l0.9,0.1C991.9,737.1,991.8,738.7,991.7,740.3
	 M1453.8,732c-0.8-1.2-1.8-2.5-2.8-3.7l0.7-0.6c1.1,1.3,2,2.5,2.9,3.8L1453.8,732z M992.3,730.9l-0.9-0.1c0.1-1.6,0.3-3.2,0.4-4.7
	l0.9,0.1C992.6,727.7,992.5,729.3,992.3,730.9 M1447.8,724.8c-0.1-0.1-0.3-0.3-0.4-0.4c-1-1-2-1.9-3.1-2.7l0.5-0.7
	c1.1,0.9,2.2,1.8,3.2,2.8c0.1,0.1,0.3,0.3,0.4,0.4L1447.8,724.8z M993.3,721.5l-0.9-0.1c0.2-1.6,0.4-3.1,0.6-4.7l0.9,0.1
	C993.7,718.4,993.5,719.9,993.3,721.5 M1440.5,719.1c-1.3-0.8-2.7-1.5-4.2-2.1l0.4-0.8c1.5,0.7,2.9,1.4,4.2,2.2L1440.5,719.1z
	 M1432,715.3c-1.4-0.5-2.9-0.9-4.5-1.4l0.2-0.8c1.6,0.4,3.1,0.9,4.5,1.4L1432,715.3z M1422.9,712.9c-1.4-0.3-2.9-0.6-4.6-0.9
	l0.2-0.9c1.7,0.3,3.2,0.6,4.6,0.9L1422.9,712.9z M994.7,712.2l-0.9-0.1c0.3-1.6,0.5-3.1,0.8-4.7l0.9,0.2
	C995.2,709.1,994.9,710.6,994.7,712.2 M1413.6,711.1l-1.4-0.3c-1.1-0.2-2.2-0.4-3.2-0.6l0.2-0.9c1.1,0.2,2.2,0.4,3.2,0.6l1.4,0.3
	L1413.6,711.1z M1404.3,709.4c-1.7-0.3-3.2-0.7-4.6-1l0.2-0.9c1.4,0.3,2.9,0.6,4.6,1L1404.3,709.4z M1395.1,707.2
	c-1.6-0.4-3.1-0.9-4.5-1.3l0.3-0.8c1.4,0.5,2.9,0.9,4.5,1.3L1395.1,707.2z M1386.1,704.3c-1.5-0.6-3-1.2-4.4-1.9l0.4-0.8
	c1.4,0.7,2.8,1.3,4.3,1.9L1386.1,704.3z M996.5,702.9l-0.9-0.2c0.3-1.5,0.7-3.1,1.1-4.6l0.9,0.2
	C997.1,699.8,996.8,701.4,996.5,702.9 M1377.5,700.2c-1.4-0.8-2.7-1.6-4-2.5l0.5-0.7c1.3,0.9,2.6,1.7,4,2.5L1377.5,700.2z
	 M1369.7,694.9c-1.2-1-2.4-2-3.6-3.1l0.6-0.6c1.1,1.1,2.3,2.1,3.5,3.1L1369.7,694.9z M998.7,693.8l-0.8-0.2c0.4-1.5,0.8-3.1,1.3-4.6
	l0.8,0.2C999.5,690.7,999.1,692.2,998.7,693.8 M1362.8,688.4c-1-1.1-2.1-2.4-3.1-3.6l0.7-0.5c1,1.2,2,2.4,3,3.6L1362.8,688.4z
	 M1001.3,684.7l-0.8-0.3c0.5-1.5,1-3,1.5-4.5l0.8,0.3C1002.3,681.7,1001.8,683.2,1001.3,684.7 M1356.9,680.9c-0.9-1.3-1.7-2.6-2.6-4
	l0.7-0.5c0.8,1.4,1.7,2.7,2.5,3.9L1356.9,680.9z M1004.4,675.8l-0.8-0.3c0.6-1.5,1.1-3,1.7-4.4l0.8,0.3
	C1005.5,672.9,1005,674.4,1004.4,675.8 M1352,672.8c-0.7-1.4-1.4-2.8-2.1-4.2l0.8-0.4c0.7,1.4,1.4,2.8,2.1,4.2L1352,672.8z
	 M1008,667.1l-0.8-0.4c0.6-1.4,1.3-2.9,2-4.3l0.8,0.4C1009.3,664.2,1008.6,665.7,1008,667.1 M1347.9,664.3c-0.6-1.4-1.2-2.9-1.8-4.4
	l0.8-0.3c0.6,1.5,1.2,3,1.7,4.4L1347.9,664.3z M1012,658.6l-0.8-0.4c0.7-1.4,1.5-2.8,2.2-4.2l0.8,0.4
	C1013.5,655.8,1012.7,657.2,1012,658.6 M1344.6,655.4c-0.5-1.5-1-3-1.5-4.5l0.8-0.3c0.5,1.5,0.9,3,1.4,4.5L1344.6,655.4z
	 M1016.5,650.3l-0.8-0.4c0.8-1.4,1.6-2.7,2.4-4.1l0.7,0.5C1018.1,647.6,1017.3,649,1016.5,650.3 M1341.8,646.4
	c-0.4-1.5-0.8-3-1.2-4.6l0.8-0.2c0.4,1.5,0.8,3.1,1.2,4.6L1341.8,646.4z M1021.5,642.3l-0.7-0.5c0.9-1.3,1.8-2.6,2.7-3.9l0.7,0.5
	C1023.3,639.7,1022.4,641,1021.5,642.3 M1339.5,637.2c-0.4-1.5-0.9-3-1.4-4.4l0.8-0.3c0.5,1.5,1,3,1.5,4.5L1339.5,637.2z
	 M1026.9,634.7l-0.7-0.5c0.9-1.3,1.9-2.5,2.9-3.7l0.7,0.5C1028.9,632.2,1027.9,633.4,1026.9,634.7 M1336.3,628.4
	c-0.6-1.4-1.3-2.8-2.1-4.2l0.8-0.4c0.8,1.4,1.5,2.8,2.1,4.3L1336.3,628.4z M1032.8,627.3l-0.7-0.6c1-1.2,2.1-2.4,3.1-3.6l0.6,0.6
	C1034.9,624.9,1033.8,626.1,1032.8,627.3 M1039.1,620.3l-0.6-0.6c1.1-1.1,2.2-2.3,3.3-3.4l0.6,0.6
	C1041.3,618,1040.2,619.2,1039.1,620.3 M1331.8,620.2c-0.8-1.3-1.7-2.6-2.6-3.9l0.7-0.5c0.9,1.3,1.8,2.6,2.7,3.9L1331.8,620.2z
	 M1045.8,613.7l-0.6-0.6c1.1-1.1,2.3-2.1,3.5-3.2l0.6,0.7C1048.1,611.6,1047,612.6,1045.8,613.7 M1326.3,612.6c-1-1.2-2-2.4-3.1-3.5
	l0.6-0.6c1.1,1.2,2.1,2.4,3.1,3.6L1326.3,612.6z M1052.9,607.5l-0.6-0.7c1.2-1,2.4-2,3.7-3l0.5,0.7
	C1055.3,605.5,1054.1,606.5,1052.9,607.5 M1320,605.7c-1.1-1.1-2.3-2.2-3.4-3.2l0.6-0.7c1.2,1.1,2.4,2.2,3.5,3.2L1320,605.7z
	 M1060.3,601.6l-0.5-0.7c1.3-0.9,2.5-1.9,3.8-2.8l0.5,0.7C1062.8,599.8,1061.5,600.7,1060.3,601.6 M1313,599.4c-1.2-1-2.4-2-3.7-2.9
	l0.5-0.7c1.3,1,2.5,1.9,3.7,2.9L1313,599.4z M1068,596.3l-0.5-0.7c1.3-0.9,2.6-1.7,4-2.6l0.5,0.7
	C1070.6,594.5,1069.3,595.4,1068,596.3 M1305.4,593.8c-1.3-0.9-2.6-1.8-3.9-2.6l0.5-0.7c1.3,0.9,2.7,1.7,3.9,2.6L1305.4,593.8z
	 M1076,591.3l-0.4-0.8c1.3-0.8,2.7-1.6,4.1-2.3l0.4,0.8C1078.7,589.7,1077.3,590.5,1076,591.3 M1297.5,588.7
	c-1.3-0.8-2.7-1.6-4.1-2.3l0.4-0.8c1.4,0.8,2.8,1.6,4.1,2.3L1297.5,588.7z M1084.2,586.7l-0.4-0.8c1.4-0.7,2.8-1.4,4.2-2.1l0.4,0.8
	C1087,585.3,1085.6,586,1084.2,586.7 M1289.2,584.2c-1.4-0.7-2.8-1.4-4.2-2.1l0.4-0.8c1.4,0.7,2.9,1.4,4.3,2.1L1289.2,584.2z
	 M1092.7,582.6l-0.4-0.8c1.4-0.7,2.9-1.3,4.3-1.9l0.3,0.8C1095.5,581.3,1094.1,581.9,1092.7,582.6 M1280.7,580.2
	c-1.4-0.6-2.9-1.2-4.3-1.8l0.3-0.8c1.5,0.6,2.9,1.2,4.4,1.8L1280.7,580.2z M1101.3,578.8l-0.3-0.8c1.5-0.6,2.9-1.2,4.4-1.7l0.3,0.8
	C1104.2,577.6,1102.8,578.2,1101.3,578.8 M1272,576.6c-1.5-0.6-2.9-1.1-4.4-1.6l0.3-0.8c1.5,0.5,3,1.1,4.5,1.6L1272,576.6z
	 M1110.1,575.5l-0.3-0.8c1.5-0.5,3-1,4.5-1.5l0.3,0.8C1113.1,574.4,1111.6,574.9,1110.1,575.5 M1263.1,573.5c-1.5-0.5-3-1-4.5-1.4
	l0.3-0.8c1.5,0.5,3,0.9,4.5,1.4L1263.1,573.5z M1119.1,572.5l-0.3-0.8c1.5-0.5,3-0.9,4.5-1.3l0.2,0.8
	C1122.1,571.6,1120.6,572.1,1119.1,572.5 M1254,570.8c-1.5-0.4-3-0.8-4.6-1.2l0.2-0.8c1.5,0.4,3.1,0.8,4.6,1.2L1254,570.8z
	 M1128.2,570l-0.2-0.8c1.5-0.4,3.1-0.8,4.6-1.1l0.2,0.9C1131.2,569.2,1129.7,569.6,1128.2,570 M1244.9,568.5c-1.5-0.4-3.1-0.7-4.6-1
	l0.2-0.9c1.5,0.3,3.1,0.7,4.6,1L1244.9,568.5z M1137.4,567.8l-0.2-0.9c1.5-0.3,3.1-0.7,4.6-1l0.2,0.9
	C1140.4,567.1,1138.9,567.5,1137.4,567.8 M1235.7,566.5c-1.5-0.3-3.1-0.6-4.6-0.8l0.1-0.9c1.6,0.3,3.1,0.5,4.7,0.8L1235.7,566.5z
	 M1146.6,566l-0.2-0.9c1.5-0.3,3.1-0.5,4.7-0.8l0.1,0.9C1149.7,565.5,1148.1,565.7,1146.6,566 M1226.4,565c-1.5-0.2-3.1-0.4-4.7-0.6
	l0.1-0.9c1.6,0.2,3.1,0.4,4.7,0.6L1226.4,565z M1155.9,564.5l-0.1-0.9c1.6-0.2,3.1-0.4,4.7-0.6l0.1,0.9
	C1159,564.1,1157.5,564.3,1155.9,564.5 M1217,563.8c-1.6-0.2-3.1-0.3-4.7-0.5l0.1-0.9c1.6,0.1,3.1,0.3,4.7,0.5L1217,563.8z
	 M1165.3,563.5l-0.1-0.9c1.6-0.2,3.1-0.3,4.7-0.4l0.1,0.9C1168.4,563.2,1166.8,563.3,1165.3,563.5 M1207.6,562.9
	c-1.6-0.1-3.1-0.2-4.7-0.3v-0.9c1.6,0.1,3.2,0.2,4.7,0.3V562.9z M1174.7,562.7l-0.1-0.9c1.6-0.1,3.1-0.2,4.7-0.2v0.9
	C1177.8,562.6,1176.2,562.6,1174.7,562.7 M1198.2,562.5c-1.6-0.1-3.1-0.1-4.7-0.1v-0.9c1.6,0,3.2,0.1,4.7,0.1V562.5z M1184.1,562.4
	v-0.9c1.6,0,3.1-0.1,4.7-0.1v0.9C1187.2,562.3,1185.6,562.3,1184.1,562.4"/>
<polyline class="st1" points="4.1,5049.7 4.1,-4.7 1924.1,-4.7 1924.1,5049.7 "/>
<g>
	<g>
		<defs>
			<polygon id="SVGID_1_" points="1412.8,681.2 1238.6,855.5 1210.1,884 1181.5,855.5 1134.1,808.1 1084.9,758.9 1044.7,799.1 
				1210.1,964.5 1263.6,910.9 1286.7,887.8 1297.5,877 1517.4,657.2 1477.2,616.9 			"/>
		</defs>
		<clipPath id="SVGID_2_">
			<use xlink:href="#SVGID_1_"  style="overflow:visible;"/>
		</clipPath>
		
			<linearGradient id="SVGID_3_" gradientUnits="userSpaceOnUse" x1="188.5025" y1="-3796.0828" x2="189.5025" y2="-3796.0828" gradientTransform="matrix(-153.6059 193.4297 -193.4297 -153.6059 -703915.5625 -618927.375)">
			<stop  offset="0" style="stop-color:#891A1A"/>
			<stop  offset="1" style="stop-color:#0D4552"/>
		</linearGradient>
		<polygon class="st3" points="1686.7,751.3 1334.6,1194.7 875.4,830.1 1227.5,386.7 		"/>
	</g>
</g>
<g>
	<g>
		<defs>
			<polygon id="SVGID_4_" points="1465,617.1 1465.6,617.8 1477.7,605.7 1503.2,631.2 1503.8,630.5 1477.7,604.4 			"/>
		</defs>
		<clipPath id="SVGID_5_">
			<use xlink:href="#SVGID_4_"  style="overflow:visible;"/>
		</clipPath>
		
			<linearGradient id="SVGID_6_" gradientUnits="userSpaceOnUse" x1="184.3848" y1="-3806.3936" x2="185.3848" y2="-3806.3936" gradientTransform="matrix(38.8583 0 0 38.8583 -5699.8799 148527.7813)">
			<stop  offset="0" style="stop-color:#891A1A"/>
			<stop  offset="1" style="stop-color:#0D4552"/>
		</linearGradient>
		<rect x="1465" y="604.4" class="st4" width="38.9" height="26.8"/>
	</g>
</g>
<rect x="1104.1" y="658" class="st5" width="259.7" height="160.6"/>
<polyline class="st1" points="4.1,5049.7 4.1,-4.7 1924.1,-4.7 1924.1,5049.7 "/>
<g>
	<g>
		<defs>
			<rect id="SVGID_7_" x="1104.1" y="635.2" width="259.7" height="22.8"/>
		</defs>
		<clipPath id="SVGID_8_">
			<use xlink:href="#SVGID_7_"  style="overflow:visible;"/>
		</clipPath>
		
			<linearGradient id="SVGID_9_" gradientUnits="userSpaceOnUse" x1="188.433" y1="-3798.738" x2="189.4329" y2="-3798.738" gradientTransform="matrix(259.7184 0 0 259.7184 -47835.418 987248.8125)">
			<stop  offset="0" style="stop-color:#891A1A"/>
			<stop  offset="1" style="stop-color:#0D4552"/>
		</linearGradient>
		<rect x="1104.1" y="635.2" class="st6" width="259.7" height="22.8"/>
	</g>
</g>
<path class="st7" d="M1147.6,650.9h-28.4c-2.4,0-4.3-1.9-4.3-4.3c0-2.4,1.9-4.3,4.3-4.3h28.4c2.4,0,4.3,1.9,4.3,4.3
	C1152,648.9,1150,650.9,1147.6,650.9"/>
<rect x="1152.3" y="688.8" class="st8" width="130.9" height="4.6"/>
<rect x="1152.3" y="703.6" class="st8" width="130.9" height="4.6"/>
<rect x="1152.3" y="718" class="st8" width="130.9" height="4.6"/>
<rect x="1152.3" y="732.8" class="st8" width="130.9" height="4.6"/>
<rect x="1152.3" y="749.5" class="st8" width="130.9" height="4.6"/>
<rect x="1152.3" y="764.4" class="st8" width="130.9" height="4.6"/>
<rect x="1152.3" y="778.7" class="st8" width="130.9" height="4.6"/>
<rect x="1152.3" y="793.6" class="st8" width="130.9" height="4.6"/>
<path class="st0" d="M1131.6,703.4L1131.6,703.4c5.1,0,9.3-4.2,9.3-9.3s-4.2-9.3-9.3-9.3l0,0c-5.1,0-9.3,4.2-9.3,9.3
	C1122.3,699.3,1126.4,703.4,1131.6,703.4"/>
<path class="st0" d="M1131.6,761.7L1131.6,761.7c5.1,0,9.3-4.2,9.3-9.3s-4.2-9.3-9.3-9.3l0,0c-5.1,0-9.3,4.2-9.3,9.3l0,0
	C1122.3,757.5,1126.4,761.7,1131.6,761.7"/>
<path class="st9" d="M1130.9,756.9l-5.2-4.5c-0.4-0.4-0.5-1-0.1-1.4s1-0.5,1.4-0.1l3.6,3.2l5.2-5.8c0.4-0.4,1-0.5,1.4-0.1
	s0.5,1,0.1,1.4L1130.9,756.9z"/>
<path class="st0" d="M1131.6,732.4L1131.6,732.4c5.1,0,9.3-4.2,9.3-9.3s-4.2-9.3-9.3-9.3c-5.1,0-9.3,4.2-9.3,9.3
	C1122.3,728.3,1126.4,732.4,1131.6,732.4"/>
<path class="st9" d="M1130.9,727.6l-5.2-4.5c-0.4-0.4-0.5-1-0.1-1.4s1-0.5,1.4-0.1l3.6,3.2l5.2-5.8c0.4-0.4,1-0.5,1.4-0.1
	s0.5,1,0.1,1.4L1130.9,727.6z"/>
<path class="st0" d="M1131.6,790.9L1131.6,790.9c5.1,0,9.3-4.2,9.3-9.3s-4.2-9.3-9.3-9.3c-5.1,0-9.3,4.2-9.3,9.3
	C1122.3,786.7,1126.4,790.9,1131.6,790.9"/>
<path class="st9" d="M1130.9,786.1l-5.2-4.5c-0.4-0.4-0.5-1-0.1-1.4s1-0.5,1.4-0.1l3.6,3.2l5.2-5.8c0.4-0.4,1-0.5,1.4-0.1
	s0.5,1,0.1,1.4L1130.9,786.1z"/>
<path class="st9" d="M1129.4,695.6c0-0.2,0-0.5,0-0.7s0.1-0.4,0.2-0.6c0.1-0.2,0.2-0.4,0.4-0.6c0.2-0.2,0.4-0.3,0.7-0.5
	c0.1-0.1,0.3-0.2,0.5-0.3s0.4-0.3,0.7-0.4c0.2-0.2,0.4-0.3,0.6-0.5s0.2-0.4,0.2-0.7s-0.1-0.6-0.4-0.8s-0.5-0.3-0.9-0.3
	c-0.2,0-0.4,0-0.6,0.1s-0.3,0.2-0.4,0.3s-0.2,0.2-0.3,0.4c-0.1,0.1-0.2,0.3-0.3,0.4l-1.6-1.1c0.3-0.6,0.7-1.1,1.3-1.5
	c0.6-0.4,1.3-0.5,2-0.5c0.4,0,0.8,0.1,1.2,0.2c0.4,0.1,0.8,0.3,1.1,0.5c0.3,0.3,0.6,0.6,0.8,1c0.2,0.4,0.3,0.9,0.3,1.4
	c0,0.6-0.1,1.1-0.4,1.5c-0.2,0.4-0.6,0.8-1.1,1.1c-0.2,0.1-0.4,0.3-0.7,0.4c-0.2,0.1-0.4,0.2-0.6,0.4c-0.2,0.1-0.3,0.3-0.5,0.4
	c-0.1,0.2-0.2,0.3-0.2,0.6h-2V695.6z M1129.5,697.1h2.1v2.4h-2.1V697.1z"/>
<path class="st5" d="M1394.3,834.9h-111.2c-20.9,0-37.9-17-37.9-37.9V655.6c0-20.9,17-37.9,37.9-37.9h111.2
	c20.9,0,37.9,17,37.9,37.9V797C1432.2,817.9,1415.2,834.9,1394.3,834.9"/>
<path class="st10" d="M1358.7,707.8c-7.2-20-26.3-32.3-46.4-31.7c-4.9,0.1-9.8,1-14.7,2.8c-14.7,5.3-25.2,16.9-29.5,30.8
	c-3,9.6-3,20.2,0.6,30.3c0.4,1,0.8,2,1.2,3c1.9,4.4,4.4,8.4,7.4,11.9c12.5,14.7,33.3,20.9,52.5,14
	C1354.7,760,1367.6,732.6,1358.7,707.8 M1325.8,757.6c-14.4,5.2-30,0.5-39.4-10.5c-2.2-2.6-4.1-5.6-5.6-8.9
	c-0.3-0.7-0.6-1.5-0.9-2.2c-2.7-7.6-2.7-15.6-0.5-22.7c3.2-10.4,11.1-19.1,22.1-23.1c3.6-1.3,7.3-2,11-2.1
	c15.1-0.5,29.4,8.8,34.8,23.8C1354.1,730.4,1344.4,750.9,1325.8,757.6"/>
<path class="st0" d="M1279.5,713.2l-11.4-3.6c4.3-13.8,14.9-25.5,29.5-30.8c4.8-1.7,9.8-2.6,14.7-2.8l0.4,12
	c-3.7,0.1-7.4,0.8-11,2.1C1290.7,694,1282.8,702.8,1279.5,713.2"/>
<path class="st11" d="M1280.9,738.1l-11,4.8c-0.4-1-0.8-2-1.2-3c-3.6-10.2-3.6-20.8-0.6-30.3l11.4,3.6c-2.2,7.2-2.3,15.1,0.5,22.7
	C1280.3,736.7,1280.6,737.4,1280.9,738.1"/>
<path class="st12" d="M1277.3,754.8c-3-3.5-5.5-7.5-7.4-11.9l11-4.8c1.4,3.3,3.3,6.3,5.6,8.9L1277.3,754.8z"/>
<path class="st10" d="M1400.2,736.9c-7.9-3.8-17.1-1.8-22.8,4.3c-1.4,1.5-2.6,3.2-3.5,5.1c-2.8,5.8-2.4,12.3,0.4,17.6
	c1.9,3.7,5,6.8,9.1,8.7c0.4,0.2,0.8,0.4,1.2,0.5c1.8,0.7,3.8,1.2,5.6,1.3c8,0.6,15.8-3.6,19.5-11.3
	C1414.3,753.4,1410,741.6,1400.2,736.9 M1405.1,761.2c-2.7,5.7-8.6,8.9-14.6,8.4c-1.4-0.1-2.8-0.4-4.2-1c-0.3-0.1-0.6-0.3-0.9-0.4
	c-3-1.4-5.3-3.8-6.8-6.5c-2.1-4-2.3-8.9-0.3-13.2c0.7-1.4,1.6-2.7,2.6-3.8c4.3-4.6,11.2-6.1,17.1-3.2
	C1405.5,744.9,1408.6,753.8,1405.1,761.2"/>
<path class="st11" d="M1378.6,761.7l-4.4,2.3c-2.8-5.3-3.1-11.8-0.4-17.6c0.9-1.9,2.1-3.6,3.5-5.1l3.6,3.4c-1,1.1-1.9,2.4-2.6,3.8
	C1376.3,752.8,1376.5,757.7,1378.6,761.7"/>
<path class="st12" d="M1386.3,768.6l-1.8,4.6c-0.4-0.2-0.8-0.3-1.2-0.5c-4-1.9-7.1-5-9.1-8.7l4.4-2.3c1.4,2.8,3.8,5.1,6.8,6.5
	C1385.7,768.4,1386,768.5,1386.3,768.6"/>
<rect x="1268.1" y="779.2" class="st10" width="33" height="4.4"/>
<rect x="1348.7" y="779.2" class="st10" width="19.4" height="4.4"/>
<rect x="1260.6" y="636.3" class="st10" width="15.8" height="3.4"/>
<rect x="1326.5" y="649" class="st10" width="24.5" height="3.4"/>
<rect x="1294.8" y="649" class="st10" width="15" height="3.4"/>
<rect x="1260.6" y="649" class="st10" width="29.7" height="3.4"/>
<rect x="1281.3" y="636.3" class="st10" width="23.4" height="3.4"/>
<rect x="1314.5" y="649" class="st10" width="6.4" height="3.4"/>
<rect x="1333.6" y="636.5" class="st10" width="17.5" height="3.4"/>
<rect x="1357.3" y="649" class="st10" width="14.9" height="3.4"/>
<rect x="1310.4" y="636.5" class="st10" width="18.6" height="3.4"/>
<path class="st9" d="M1338.7,855.3L1338.7,855.3c-13,0-23.6-10.6-23.6-23.6s10.6-23.6,23.6-23.6s23.6,10.6,23.6,23.6
	C1362.3,844.7,1351.8,855.3,1338.7,855.3"/>
<rect x="1336.5" y="822.2" class="st13" width="4.5" height="18.8"/>
<rect x="1329.3" y="829.4" class="st13" width="18.8" height="4.5"/>
<polygon class="st14" points="1085.2,838.7 1106.1,850.2 1127.2,817.1 1101.7,808.3 "/>
<polygon class="st15" points="1086.5,837.7 1106.1,848.5 1125.8,817.5 1102,809.2 "/>
<path class="st16" d="M1079.3,831.9c0,0,3.6-1.7,5.2-2.7c1.6-0.9,5.7-2.2,6.1-2.5c0.3-0.3,12.2-1,12.9-1.7c0.7-0.6,1.4,1.5-1.7,2.1
	s-7.4,2.3-7.6,3.5s3.2,1.5,3.5,2.5s-0.1,0.8-0.6,1s-4-1.8-5.6-1.2s-3.9-0.2-5.1,0.2s-7,2.4-7,2.4L1079.3,831.9z"/>
<path class="st16" d="M1107.2,846.1c0,0,3.1-2.8,4.5-3.9c1.5-1.2,4.3-4.5,4.7-4.7c0.4-0.2,5.7-11.1,6.6-11.5s-0.8-1.9-2.7,0.7
	c-1.8,2.6-5.1,6-6.3,5.8c-1.2-0.2-0.2-3.6-1-4.3s-0.8-0.2-1.2,0.2c-0.4,0.4,0.1,4.5-1.1,5.7c-1.1,1.3-1.3,3.8-2.2,4.8
	c-0.9,1-5,5.7-5,5.7L1107.2,846.1z"/>
<path class="st17" d="M1041.2,993.4c0,0-0.7,4.6-0.7,5.3c-0.1,0.7-7.4-0.4-7.4-0.4l-0.6-5.5C1032.5,992.9,1040.3,992.8,1041.2,993.4
	"/>
<path class="st14" d="M1040.5,998.2c0,0,2.3,2.8,4.5,4s5.7,1.7,7.1,2.9c1,0.9,3.5,4.8-5.8,4.7s-13.8,0.5-14.7-0.9
	c-1-1.5,1.4-11,1.4-11S1035.2,998.6,1040.5,998.2"/>
<path class="st17" d="M1093.4,993.4c0,0-0.7,4.6-0.7,5.3c-0.1,0.7-7.4-0.4-7.4-0.4l-0.6-5.5C1084.7,992.9,1092.5,992.8,1093.4,993.4
	"/>
<path class="st14" d="M1092.7,998.2c0,0,2.3,2.8,4.5,4s10.5,2.2,11.8,3.5c1,0.9,2.5,4.5-10.5,4.2c-9.3-0.2-13.8,0.5-14.7-0.9
	c-1-1.5,1.4-11,1.4-11S1087.3,998.7,1092.7,998.2"/>
<path class="st14" d="M1047.2,875.2c0,0-6.9,10.9-6.3,20.7c0.5,9.8-2.5,20.6-3.5,30.9c-1.1,11.5-5.8,38.6-6,44.7
	c-0.2,6.1,0.7,25.7,0.7,25.7l9.4,0.2c0,0,7.9-47.4,9.9-52.3c2-4.8,12.2-39.3,12.5-43.2C1064.3,898.1,1047.2,875.2,1047.2,875.2"/>
<path class="st14" d="M1083.3,876.7c0,0,5.2,27,5.8,33c0.7,6,1.1,29.1,1.5,32.9c0.3,3.8,2.3,49.2,4.1,54.8h-12
	c0,0-9.2-33.1-9.2-48.7c0-15.6-7.1-34-11.7-44.3s-15.1-10.6-18-29.7C1043.8,874.7,1079.4,870.6,1083.3,876.7"/>
<path class="st16" d="M1058.6,783.7c0,0,9.2-3.4,13.4,3.6c4.2,7,3.8,21-0.8,22.7c-4.6,1.7-11.6,0.8-14-3.6
	c-2.4-4.4-4.5-10.7-4.4-14.9C1053,787.3,1056.2,785,1058.6,783.7"/>
<path class="st16" d="M1070.3,810.4c0,0-0.4,2.5,0.3,3.7c0.6,1.2-11.9,1.3-11.9,1.3s-1-6.7-2.9-12.3
	C1053.7,797.4,1070.3,810.4,1070.3,810.4"/>
<path class="st18" d="M1055.7,803c0,0,0.9,1.4,4.4,0.9c3.5-0.6,7.8-5.3,9.3-5.8s1.5-1.4,1.5-1.4l0.9,1.3l1.6,0.1
	c0,0-1.4-4.2,0.7-5.9c2.2-1.7-2.2-13.6-13.6-9.7c0,0-8.7,2.4-8.4,7.4C1052.4,794.9,1053.7,800.6,1055.7,803"/>
<path class="st15" d="M1071.3,813.9c0,0,0-2.3-1.1-2.6c-1.1-0.2-11.7-1.2-13-0.7v2.7C1057.2,813.3,1059.7,814.9,1071.3,813.9"/>
<path class="st16" d="M1070.6,795c-0.2-0.8-2.3-3.2-3.1-0.7c-0.8,2.5,1.2,6,2.4,5.7C1071,799.7,1071.1,797.1,1070.6,795"/>
<path class="st19" d="M1113.5,841.5C1113.4,841.5,1113.4,841.5,1113.5,841.5C1113.5,841.6,1113.5,841.6,1113.5,841.5"/>
<path class="st11" d="M1039.5,901.2c0,0,5.6,1.7,15.3,2.7c9.6,1.1,33.6-0.4,33.8-1.5c0.2-1.1-5.2-42.3-4.9-44.4
	c0.3-2.1,0.5-9.7,0.5-9.7c0.1,2.1,2.2,10.5,4.8,15.1c0.9,1.7,4,6.9,5.5,5.7c7.2-5.7,18.3-27.4,19-27.6c-0.6-0.3-5.3-2.4-5.9-2.6
	c-0.6-0.2-5.8,5.3-8.9,8.7c-1.4,1.5-2.4,2.6-2.4,2.6c-0.9-2-4.2-14.9-5.2-19.4c-2.3-10.1-2-10.5-2-10.5c-7-2.1-17.7-6.5-17.7-6.5
	l-14.1-0.6c0,0-12.9,2.8-18,5.1c-0.5,0.2-0.5,11.5-1.8,14.5l4.2,8.9c0,0,2.4,17.6,2.9,25.5C1044.7,871,1039.5,901.2,1039.5,901.2"/>
<path class="st11" d="M1036.8,847.7c0.4,1.2,2,2.2,3.1,2.6c0.7,0.3,1.5,0.4,2.3,0.2l0.6-0.1l0,0l9.7-1.8c0,0,2.1-24.3-13.2-30.2
	C1038.7,818.6,1033.4,836.8,1036.8,847.7"/>
<path class="st20" d="M1039.9,850.3L1039.9,850.3c0.7,0.3,1.5,0.4,2.3,0.2l0.6-0.1l0,0l-1-12.4L1039.9,850.3z"/>
<path class="st20" d="M1096.2,850.2l1.2,5c0,0,1.3-5,1.2-7.6C1097.2,849.1,1096.2,850.2,1096.2,850.2"/>
<path class="st18" d="M1056,784.6c0,0-12.1-1.4-0.2,18.7L1056,784.6z"/>
<polygon class="st14" points="1117.5,815.3 1118.7,813.2 1109.1,809.9 1107.8,812 "/>
<path class="st21" d="M1236.6,840.2c0,0,1.9-1.8,1.6-3.1c-0.3-1.1,0.2-2.4,0.3-3c0.2-0.7,0.2-3,0.8-2.9c0.9,0.2,0.7,3.9,0.8,4.6
	c0.1,0.8,2.5-1.8,3.3-2c0.8-0.1,4.9,4,3.1,5.6s-4.3,2.3-4.6,2.6c-0.3,0.3-1.5,1.3-1.5,1.3L1236.6,840.2z"/>
<path class="st21" d="M1242.8,834.2c0,0,5.9-4.5,6.6-4.5c0.6,0,0.9,0.4,0.3,0.8c-0.5,0.4-5.6,4.5-5.6,4.5s7.9-4.2,8.4-4.3
	c0.3-0.1,0.5,0.5,0.3,0.8c-0.3,0.3-7.6,4.9-7.6,4.9s7.4-3.9,7.9-3.8c0.4,0,0.7,0.7,0.2,1.1c-0.5,0.3-7.2,4.3-7.2,4.3
	s5.6-2.5,5.9-2.2c0.2,0.2,0.5,0.6-0.9,1.2c-1.5,0.6-4.6,2.5-4.6,2.5L1242.8,834.2z"/>
<path class="st22" d="M1195.5,785.5c0,0,14.2-1.2,13.8,13.7c-0.4,14.9-2.7,17.1,0,27.6c2.8,10.5-13.8-6-13.8-6V785.5z"/>
<path class="st23" d="M1152.4,1008.3c0,0-5.3,7.4-4.5,8.6c0.7,1.2,6.2,1.3,9.6,0s3.4-10,5-13.7c0.6-1.6-0.7-6.2-2.6-6.5
	s-4,0.6-4,0.6S1157.8,1002.6,1152.4,1008.3"/>
<path class="st16" d="M1155.8,997.3c0,0-1.1,3.1-1.5,6.1c-0.3,2.5-3.7,7.8-3.6,8.4c0.2,0.7,4.5,1.3,6.2-0.4c1.8-1.7,2.9-6.7,3.3-9.7
	c0.4-2.8,0.8-4.2,0.8-4.2S1157.5,995.4,1155.8,997.3"/>
<path class="st23" d="M1198.2,1008.4c0,0-5.1,7.3-4.3,8.4c0.7,1.2,6.2,1.3,9.6,0s3.4-10,5-13.7c0.6-1.6-0.7-6.1-2.6-6.5
	s-4.2,0.7-4.2,0.7S1203.6,1002.7,1198.2,1008.4"/>
<path class="st16" d="M1201.6,997.4c0,0-0.4,3.4-1,5.9c-0.6,2.4-4.1,7.9-3.9,8.6c0.2,0.7,4.5,1.3,6.2-0.5c1.8-1.7,3.1-6.7,3.3-9.7
	c0.2-3-0.4-5-0.4-5S1203.3,995.6,1201.6,997.4"/>
<path class="st24" d="M1176.3,877.2c0,0-4.5,21.9-5.5,27.4s-3.9,32.2-4.2,36.7c-0.3,4.5-4.7,21.6-4.5,23.3
	c0.2,1.6-7.1,33.8-7.1,33.8s5.2,0.6,7.3-0.3c1.4-0.6,12.8-29.6,12.8-37.7c0-11.2,6.3-25.8,7.2-28.4c8.9-25.1,10.6-31.1,11.8-32.6
	c0,0,0.2,2,0.6,5.4c0.5,3.9,2.6,31.8,3.6,35.5c0.9,3.7,0.2,16.1,0.7,22.4c0.5,6.3,1.5,34.9,1.5,34.9s4.7,0.2,6.7-1
	c0.7-0.4,3.1-30.7,3.2-38.2s0.2-17.7,0.4-21c1.9-30.9,6.6-35.3-0.8-57.2C1195.9,839.3,1176.3,877.2,1176.3,877.2"/>
<polygon class="st23" points="1162.6,1002.5 1162.6,1010.2 1161.7,1010.2 1161.7,1004.3 "/>
<polygon class="st23" points="1208.5,1002.5 1208.5,1010.2 1207.6,1010.2 1207.6,1004.3 "/>
<path class="st16" d="M1189.7,825.1c0,0,1.2-2.9,2.2-6.2c0-0.2,0.1-0.3,0.1-0.5c0.1-0.4,0.2-0.9,0.3-1.3c0.1-0.2,0.1-0.5,0.1-0.7
	c0.3-1.8,0.4-3.5,0-4.8c-1.4-4.1,8.6-1.2,8.6-1.2s-1.9,10.7,0,14.3C1202.9,828.4,1189.7,825.1,1189.7,825.1"/>
<path class="st25" d="M1206.6,824.9c1.1-1.4-6.7-1.9-6.7-1.9l-9.1-0.8c0,0-6.3,1-11.1,2.7c-4.9,1.7-11.2,10.9-11.2,10.9
	s8.8,20.6,10.5,26.6c1.7,5.9-1.9,21-1.9,21c10.5,5.7,31.3,0.6,31.3,0.6S1200,833.2,1206.6,824.9"/>
<path class="st26" d="M1210.3,849.8c0,0-0.4,0.9-1.5,4.3c-1.1-9.6-0.5-14.5-0.5-14.5C1208.3,844.7,1210.3,849.8,1210.3,849.8"/>
<path class="st16" d="M1200.4,822.7l-10.7,8.7l1.1-9.2C1190.8,822.3,1197,820.9,1200.4,822.7"/>
<path class="st27" d="M1207.5,859.6c-1.5,6.1,6,25.3,6,25.3l-12.6,4.3c-1.6,0.5-3.2-0.5-3.5-2.1c-1.4-8-5.1-29.3-5.5-38.8
	c-0.5-11.8,8-25.6,8-25.6c15.2,2.6,11.1,25.6,11.1,25.6s-0.6,1.5-1.3,3.7l0,0c-0.2,0.6-0.4,1.2-0.6,1.9
	C1208.5,855.5,1208,857.5,1207.5,859.6"/>
<path class="st27" d="M1189.7,822.8l0.2-0.5c0,0-7.8,1.2-11.8,3.2s-11.5,12.2-11.5,12.2l9.9,13.1c0,10.1-3.5,33.7-3.5,33.7l6.9,2.8
	c1.1,0.4,2.3-0.3,2.3-1.5c0.1-7.2,0.4-28.5,0.6-36.8c0.2-10.1,7.4-26.4,7.4-26.4C1190,822.7,1189.8,822.7,1189.7,822.8"/>
<path class="st16" d="M1175.5,870c0,0,7.5,0.3,8.6,0c1.2-0.3,8.9-3.7,9.4-7s-18,3-18,3V870z"/>
<polygon class="st28" points="1198.8,859.6 1168.4,856 1182.1,867.2 "/>
<polygon class="st29" points="1182.1,867.2 1198.8,861.5 1198.8,859.6 1181.5,865.1 "/>
<polygon class="st30" points="1191.3,820.6 1185.6,829.7 1182.8,831.5 1189.3,822.4 "/>
<polygon class="st31" points="1185.6,829.7 1189.7,831.5 1190.8,822.3 1191.3,820.6 "/>
<path class="st27" d="M1176.5,865.7c0,0-0.3,3.9,0,4.7c0,0-18.7-1.9-20.5-4.5c-1.7-2.6-1.7-5.8-1.7-5.8L1176.5,865.7z"/>
<polygon class="st29" points="1182.1,867.2 1173.3,834.3 1139.6,830.7 1148.8,861 "/>
<path class="st27" d="M1225.7,848.4c1.7-1.4,2.7-1.9,4.7-3.7c3.2-2.7,7.2-6.2,7.2-6.2l3.8,5.6c0,0-9.3,8.2-14.3,13
	c0,0-6.3,6.7-7.7,6.1c-1.4-0.6-6.4-7.8-10.4-14.8s-5.8-11.4-6-14.4s9.8-4.5,9.8-4.5l7.8,17.1c0,0,1.4,2.5,2.1,3.2
	C1223.1,850,1224.8,849,1225.7,848.4"/>
<path class="st16" d="M1196.9,787c-3.5-0.6-11.5,0.3-13.8,9.5c0,0,0,2.6,0.4,4.6c0.4,2.1-2.1,7.7-1.6,8c0.4,0.3,2.3,0.9,2.3,0.9
	s1.3,6.6,3.6,6.8s10.9-0.6,15.8-8.1C1208.5,801.4,1211.1,789.3,1196.9,787"/>
<path class="st22" d="M1183.1,796.5c0,0,5.3,4.6,10.9,6s8.6,7.7,8.6,7.7s9.9-9.9,3.9-19.4C1200.5,781.2,1183.1,785.5,1183.1,796.5"
	/>
<path class="st22" d="M1195,802.9c0,0,5.9,15.4,5.2,19.1c0,0,2.9-0.5,8.3,1.1C1208.5,823.1,1205.9,795.6,1195,802.9"/>
<polygon class="st31" points="1192.8,830 1189.7,831.5 1200.2,821 "/>
<polygon class="st30" points="1200.2,821 1192.8,830 1196.8,833.6 1201.2,822.9 "/>
<path class="st32" d="M1198.1,814.1c0,0.1-1.7,2.6-6.2,4.4c0.1-0.4,0.2-0.9,0.3-1.3c0.1-0.2,0.1-0.5,0.1-0.7
	C1192.4,816.4,1196.2,815.5,1198.1,814.1"/>
<path class="st33" d="M1161.9,848c0.9,1.8,0.9,3.6,0,4.1c-1,0.5-2.5-0.5-3.4-2.3s-0.9-3.6,0-4.1C1159.4,845.3,1161,846.3,1161.9,848
	"/>
<path class="st27" d="M1201.2,822.9c0,0,9.8-1.3,12.7,8.9C1213.9,831.8,1201.4,830.5,1201.2,822.9"/>
<polygon class="st34" points="1419.3,790.7 1449.9,773.6 1439.4,772.9 "/>
<polygon class="st8" points="1419.3,790.7 1428.7,775.5 1436.6,775.3 "/>
<polygon class="st35" points="1442.9,777.5 1443.5,781.3 1419.3,790.7 "/>
<polygon class="st0" points="2070.7,188.2 1793.5,465.4 1516.6,742.4 1239.7,1019.3 1516.9,1019.3 1794.1,742.1 2070.7,465.4 "/>
<polygon class="st36" points="483.5,772.7 483.5,1049.9 206.3,1049.9 "/>
<polygon class="st36" points="483.5,1049.9 483.5,772.7 760.7,772.7 "/>
<polygon class="st36" points="209.2,772.7 209.2,1049.9 -68,1049.9 "/>
<polygon class="st36" points="207.9,1049.9 207.9,772.7 485.1,772.7 "/>
<polygon class="st36" points="-67.7,1049.9 -67.7,772.7 209.6,772.7 "/>
<polygon class="st36" points="208.8,1048.8 208.8,1326 -68.4,1326 "/>
<polygon class="st36" points="207.6,1326 207.6,1048.8 484.8,1048.8 "/>
<polygon class="st36" points="-68,1326 -68,1048.8 209.2,1048.8 "/>
<polyline class="st36" points="-69,1602.4 -69,1325.2 208.2,1325.2 -69,1602.4 "/>
<polygon class="st37" points="950.4,783.7 -66.4,783.7 -66.4,635.3 1100.3,635.3 "/>
<rect x="1084.5" y="315.5" class="st37" width="99.6" height="99.6"/>
<rect x="1345.6" y="155.9" class="st37" width="99.6" height="99.6"/>
<rect x="1605.4" y="275.4" class="st37" width="99.6" height="99.6"/>
<rect x="1845.8" y="95.2" class="st37" width="99.6" height="99.6"/>
<rect x="1345" y="295.4" class="st0" width="99.7" height="99.7"/>
<rect x="1646" y="35.6" class="st0" width="99.7" height="99.7"/>
<polygon class="st36" points="1124.5,275.5 1084.5,315.5 1144.5,315.5 1144.5,375.6 1184.6,335.5 1184.6,275.5 "/>
<polygon class="st36" points="1184.6,335.5 1144.5,375.6 1204.6,375.6 1204.6,435.7 1244.7,395.6 1244.7,335.5 "/>
<polygon class="st0" points="1244.7,395.6 1204.6,435.7 1264.7,435.7 1264.7,495.8 1304.7,455.7 1304.7,395.6 "/>
<polygon class="st36" points="1084.5,375.6 1044.4,415.7 1104.5,415.7 1104.5,475.7 1144.5,435.7 1144.5,375.6 "/>
<polygon class="st36" points="1284.8,295.4 1244.7,335.6 1304.9,335.6 1304.9,395.8 1345,355.6 1345,295.4 "/>
<polygon class="st36" points="1345,355.5 1304.9,395.6 1365,395.6 1365,455.6 1405.1,415.6 1405.1,355.5 "/>
<polygon class="st36" points="1405.1,415.6 1365,455.7 1425.1,455.7 1425.1,515.7 1465.2,475.7 1465.2,415.6 "/>
<polygon class="st36" points="1465.2,475.7 1425.1,515.7 1485.2,515.7 1485.2,575.8 1525.2,535.8 1525.2,475.7 "/>
<polygon class="st36" points="1525.2,535.8 1485.2,575.8 1545.3,575.8 1545.3,635.9 1585.3,595.9 1585.3,535.8 "/>
<polygon class="st36" points="1304.8,455.7 1264.7,495.8 1324.8,495.8 1324.8,555.9 1364.8,515.8 1364.8,455.7 "/>
<polygon class="st36" points="1385.1,255.4 1345,295.5 1405.1,295.5 1405.1,355.6 1445.1,315.5 1445.1,255.4 "/>
<polygon class="st36" points="1264.9,135.2 1224.9,175.3 1285,175.3 1285,235.4 1325,195.3 1325,135.2 "/>
<polygon class="st36" points="1325,195.3 1285,235.4 1345,235.4 1345,295.5 1385.1,255.4 1385.1,195.3 "/>
<polygon class="st36" points="1565.3,435.6 1525.2,475.7 1585.3,475.7 1585.3,535.8 1625.4,495.7 1625.4,435.6 "/>
<polygon class="st36" points="1445.1,315.5 1405.1,355.6 1465.1,355.6 1465.1,415.6 1505.2,375.6 1505.2,315.5 "/>
<polygon class="st37" points="1505.2,375.6 1465.2,415.6 1525.2,415.6 1525.2,475.7 1565.3,435.6 1565.3,375.6 "/>
<polygon class="st36" points="1485.2,215.4 1445.2,255.4 1505.3,255.4 1505.3,315.5 1545.3,275.4 1545.3,215.4 "/>
<polygon class="st36" points="1425.2,155.3 1385.1,195.3 1445.2,195.3 1445.2,255.4 1485.2,215.4 1485.2,155.3 "/>
<polygon class="st36" points="1665.4,395.6 1625.4,435.7 1685.4,435.7 1685.4,495.8 1725.5,455.7 1725.5,395.6 "/>
<polygon class="st36" points="1545.3,275.4 1505.3,315.5 1565.4,315.5 1565.4,375.6 1605.4,335.5 1605.4,275.4 "/>
<polygon class="st36" points="1605.4,335.5 1565.3,375.6 1625.4,375.6 1625.4,435.7 1665.4,395.6 1665.4,335.5 "/>
<polygon class="st36" points="1585.4,175.3 1545.3,215.3 1605.4,215.3 1605.4,275.4 1645.5,235.4 1645.5,175.3 "/>
<polygon class="st0" points="1525.3,115.2 1485.3,155.3 1545.3,155.3 1545.3,215.4 1585.4,175.3 1585.4,115.2 "/>
<polygon class="st36" points="1645.5,235.4 1605.4,275.4 1665.5,275.4 1665.5,335.5 1705.6,295.5 1705.6,235.4 "/>
<polygon class="st36" points="1705.5,295.5 1665.4,335.5 1725.5,335.5 1725.5,395.6 1765.6,355.6 1765.6,295.5 "/>
<polygon class="st36" points="1365.1,95.2 1325,135.3 1385.1,135.3 1385.1,195.3 1425.1,155.3 1425.1,95.2 "/>
<polygon class="st36" points="1405.1,-4.9 1365.1,35.2 1425.1,35.2 1425.1,95.3 1465.2,55.2 1465.2,-4.9 "/>
<polygon class="st36" points="1465.2,55.1 1425.2,95.2 1485.3,95.2 1485.3,155.3 1525.3,115.2 1525.3,55.1 "/>
<polygon class="st36" points="1685.6,135.2 1645.5,175.3 1705.6,175.3 1705.6,235.4 1745.6,195.3 1745.6,135.2 "/>
<polygon class="st36" points="1625.5,75.2 1585.4,115.2 1645.5,115.2 1645.5,175.3 1685.5,135.2 1685.5,75.2 "/>
<polygon class="st37" points="1745.6,195.3 1705.6,235.4 1765.7,235.4 1765.7,295.5 1805.7,255.4 1805.7,195.3 "/>
<polygon class="st36" points="1805.7,255.4 1765.7,295.5 1825.7,295.5 1825.7,355.6 1865.8,315.5 1865.8,255.4 "/>
<polygon class="st36" points="1505.3,-45 1465.2,-5 1525.3,-5 1525.3,55.1 1565.4,15.1 1565.4,-45 "/>
<polygon class="st36" points="1565.4,15.1 1525.3,55.1 1585.4,55.1 1585.4,115.2 1625.5,75.2 1625.5,15.1 "/>
<polygon class="st36" points="1885.8,55.1 1845.8,95.2 1905.8,95.2 1905.8,155.3 1945.9,115.2 1945.9,55.1 "/>
<polygon class="st36" points="1825.7,-4.9 1785.7,35.1 1845.8,35.1 1845.8,95.2 1885.8,55.1 1885.8,-4.9 "/>
<polygon class="st36" points="1945.9,115.2 1905.8,155.3 1965.9,155.3 1965.9,215.4 2006,175.3 2006,115.2 "/>
<polygon class="st36" points="1765.7,-65 1725.6,-25 1785.7,-25 1785.7,35.1 1825.7,-5 1825.7,-65 "/>
<polygon class="st36" points="1785.7,95.2 1745.6,135.3 1805.7,135.3 1805.7,195.3 1845.8,155.3 1845.8,95.2 "/>
<polygon class="st36" points="1725.6,35.1 1685.5,75.2 1745.6,75.2 1745.6,135.3 1785.7,95.2 1785.7,35.1 "/>
<polygon class="st36" points="1845.8,155.3 1805.7,195.3 1865.8,195.3 1865.8,255.4 1905.9,215.4 1905.9,155.3 "/>
<polygon class="st36" points="1665.5,-25 1625.5,15.1 1685.5,15.1 1685.5,75.2 1725.6,35.1 1725.6,-25 "/>
<polygon class="st37" points="1224.7,235.3 1184.6,275.5 1244.8,275.5 1244.8,335.7 1285,295.5 1285,235.3 "/>
<line class="st1" x1="4.1" y1="5049.7" x2="4.1" y2="-4.7"/>
<line class="st1" x1="1924.1" y1="-4.7" x2="1924.1" y2="5049.7"/>
<text transform="matrix(1 0 0 1 616.5895 401.9087)" class="st9 st38 st39">П</text>
<text transform="matrix(1 0 0 1 627.0895 401.9087)" class="st9 st38 st39">О</text>
<text transform="matrix(1 0 0 1 637.4895 401.9087)" class="st9 st38 st39">Д</text>
<text transform="matrix(1 0 0 1 648.1895 401.9087)" class="st9 st38 st39">А</text>
<text transform="matrix(1 0 0 1 656.4895 401.9087)" class="st9 st38 st39">Т</text>
<text transform="matrix(1 0 0 1 665.3895 401.9087)" class="st9 st38 st39">Ь</text>
<text transform="matrix(1 0 0 1 673.6895 401.9087)" class="st9 st38 st39"> ЗАЯВКУ</text>
<polyline class="st1" points="4.1,5049.7 4.1,-4.7 1924.1,-4.7 1924.1,5049.7 "/>
<polyline class="st1" points="4.1,5049.7 4.1,-4.7 1924.1,-4.7 1924.1,5049.7 "/>
<polyline class="st1" points="4.1,5049.7 4.1,-4.7 1924.1,-4.7 1924.1,5049.7 "/>
<text transform="matrix(1 0 0 1 841.0211 400.9087)" class="st9 st38 st39">УЗН</text>
<text transform="matrix(1 0 0 1 869.3211 400.9087)" class="st9 st38 st39">А</text>
<text transform="matrix(1 0 0 1 877.5211 400.9087)" class="st9 st38 st39">Т</text>
<text transform="matrix(1 0 0 1 886.4211 400.9087)" class="st9 st38 st39">Ь</text>
<text transform="matrix(1 0 0 1 894.7211 400.9087)" class="st9 st38 st39"> Б</text>
<text transform="matrix(1 0 0 1 907.8211 400.9087)" class="st9 st38 st39">О</text>
<text transform="matrix(1 0 0 1 918.6211 400.9087)" class="st9 st38 st39">ЛЬШЕ</text>
<polyline class="st1" points="4.1,5049.7 4.1,-4.7 1924.1,-4.7 1924.1,5049.7 "/>
<polyline class="st1" points="4.1,5049.7 4.1,-4.7 1924.1,-4.7 1924.1,5049.7 "/>
<polyline class="st1" points="4.1,5049.7 4.1,-4.7 1924.1,-4.7 1924.1,5049.7 "/>
<polyline class="st1" points="4.1,5049.7 4.1,-4.7 1924.1,-4.7 1924.1,5049.7 "/>
<polyline class="st1" points="4.1,5049.7 4.1,-4.7 1924.1,-4.7 1924.1,5049.7 "/>
<polyline class="st1" points="4.1,5049.7 4.1,-4.7 1924.1,-4.7 1924.1,5049.7 "/>
<polyline class="st1" points="1924.1,5049.7 1924.1,-4.7 4.1,-4.7 4.1,5049.7 "/>
<rect x="641" y="20.4" class="st1" width="29.4" height="10.8"/>
</svg>
