<?xml version="1.0" encoding="utf-8"?>
<!-- Generator: Adobe Illustrator 23.0.0, SVG Export Plug-In . SVG Version: 6.00 Build 0)  -->
<svg version="1.1" id="Слой_1" xmlns="http://www.w3.org/2000/svg" xmlns:xlink="http://www.w3.org/1999/xlink" x="0px" y="0px"
	 viewBox="0 0 488 395.3" style="enable-background:new 0 0 488 395.3;" xml:space="preserve">
<style type="text/css">
	.st0{fill:#FFFFFF;}
	.st1{fill:#9E9E9E;}
	.st2{fill:#F5F6F6;}
	.st3{fill:#7FCECD;}
	.st4{fill:#0D4552;}
	.st5{fill:#146167;}
	.st6{fill:#187677;}
	.st7{fill:#2A2C47;}
	.st8{fill:#EFA986;}
	.st9{fill:#414767;}
	.st10{fill:#5AAFAB;}
	.st11{fill:#3B4048;}
	.st12{fill:#F79973;}
	.st13{fill:#252840;}
	.st14{clip-path:url(#SVGID_2_);fill:url(#SVGID_3_);}
	.st15{fill:#E6E1DE;}
	.st16{fill:#891A1A;}
	.st17{fill:#E8744E;}
	.st18{fill:#D7D6D6;}
	.st19{fill:#E9E8E8;}
	.st20{fill:#C2C2C2;}
	.st21{fill:none;stroke:#187677;stroke-width:0.5;stroke-miterlimit:10;}
	.st22{fill:none;stroke:#891A1A;stroke-miterlimit:10;}
	.st23{fill:none;stroke:#891A1A;stroke-miterlimit:10;stroke-dasharray:6.284,6.284;}
</style>
<path class="st0" d="M107.4,391.8c0,0-0.1,0-0.1,0l-4-0.8c-0.3-0.1-0.4-0.3-0.4-0.6c0.1-0.3,0.3-0.4,0.6-0.4l4,0.8
	c0.3,0.1,0.4,0.3,0.4,0.6C107.9,391.6,107.7,391.8,107.4,391.8"/>
<path class="st1" d="M472.6,214.2l-0.5-0.7c0,0,1.5-1.1,3.6-3l0.6,0.6C474.2,213.1,472.7,214.2,472.6,214.2 M479.6,207.7l-0.7-0.6
	c1-1.2,2-2.4,2.9-3.7l0.7,0.5C481.7,205.2,480.7,206.5,479.6,207.7 M485,199.8l-0.8-0.4c0.7-1.4,1.3-2.9,1.8-4.3l0.8,0.3
	C486.3,196.9,485.7,198.4,485,199.8 M487.8,190.7l-0.9-0.1c0.1-0.9,0.2-1.8,0.2-2.7c0-0.6,0-1.3-0.1-1.9l0.9-0.1
	c0.1,0.7,0.1,1.3,0.1,2C488,188.8,487.9,189.8,487.8,190.7 M486.2,181.4c-0.4-1.4-1-2.9-1.6-4.3l0.8-0.4c0.7,1.5,1.3,3,1.7,4.5
	L486.2,181.4z M20.1,181.3l-0.9,0c0.1-1.6,0.2-3.2,0.3-4.7l0.9,0.1C20.3,178.2,20.2,179.8,20.1,181.3 M482.2,173
	c-0.8-1.2-1.8-2.5-2.8-3.7l0.7-0.6c1.1,1.3,2,2.5,2.9,3.8L482.2,173z M20.8,171.9l-0.9-0.1c0.1-1.6,0.3-3.2,0.4-4.7l0.9,0.1
	C21,168.8,20.9,170.4,20.8,171.9 M476.2,165.8c-0.1-0.1-0.3-0.3-0.4-0.4c-1-0.9-2-1.9-3.1-2.7l0.5-0.7c1.1,0.9,2.2,1.8,3.2,2.8
	c0.1,0.1,0.3,0.3,0.4,0.4L476.2,165.8z M21.7,162.6l-0.9-0.1c0.2-1.6,0.4-3.1,0.6-4.7l0.9,0.1C22.1,159.4,21.9,161,21.7,162.6
	 M468.9,160.2c-1.3-0.8-2.7-1.5-4.2-2.1l0.4-0.8c1.5,0.7,2.9,1.4,4.2,2.2L468.9,160.2z M460.4,156.4c-1.4-0.5-2.9-0.9-4.5-1.4
	l0.2-0.8c1.6,0.4,3.1,0.9,4.5,1.4L460.4,156.4z M451.3,153.9c-1.4-0.3-2.9-0.6-4.6-0.9l0.2-0.9c1.7,0.3,3.2,0.6,4.6,0.9L451.3,153.9
	z M23.1,153.2l-0.9-0.1c0.3-1.6,0.5-3.1,0.8-4.7l0.9,0.2C23.6,150.1,23.4,151.7,23.1,153.2 M442,152.1l-1.4-0.3
	c-1.1-0.2-2.2-0.4-3.2-0.6l0.2-0.9c1.1,0.2,2.2,0.4,3.2,0.6l1.4,0.3L442,152.1z M432.7,150.4c-1.7-0.3-3.2-0.7-4.6-1l0.2-0.9
	c1.4,0.3,2.9,0.6,4.6,1L432.7,150.4z M423.5,148.3c-1.6-0.4-3.1-0.9-4.5-1.3l0.3-0.8c1.4,0.5,2.9,0.9,4.5,1.3L423.5,148.3z
	 M414.5,145.4c-1.5-0.6-3-1.2-4.4-1.9l0.4-0.8c1.4,0.7,2.8,1.3,4.3,1.9L414.5,145.4z M24.9,144l-0.9-0.2c0.3-1.5,0.7-3.1,1.1-4.6
	l0.9,0.2C25.6,140.9,25.2,142.4,24.9,144 M405.9,141.3c-1.4-0.8-2.7-1.6-4-2.5l0.5-0.7c1.3,0.9,2.6,1.7,4,2.5L405.9,141.3z
	 M398.1,135.9c-1.2-1-2.4-2-3.6-3.1l0.6-0.6c1.1,1.1,2.3,2.1,3.5,3.1L398.1,135.9z M27.1,134.8l-0.8-0.2c0.4-1.5,0.8-3.1,1.3-4.6
	l0.8,0.2C27.9,131.8,27.5,133.3,27.1,134.8 M391.2,129.4c-1-1.1-2.1-2.4-3.1-3.6l0.7-0.5c1,1.2,2,2.4,3,3.6L391.2,129.4z
	 M29.7,125.8l-0.8-0.3c0.5-1.5,1-3,1.5-4.5l0.8,0.3C30.7,122.8,30.2,124.3,29.7,125.8 M385.3,122c-0.9-1.3-1.7-2.6-2.6-4l0.7-0.5
	c0.8,1.4,1.7,2.7,2.5,3.9L385.3,122z M32.8,116.9l-0.8-0.3c0.6-1.5,1.1-3,1.7-4.4l0.8,0.3C34,113.9,33.4,115.4,32.8,116.9
	 M380.4,113.9c-0.7-1.4-1.4-2.8-2.1-4.2l0.8-0.4c0.7,1.4,1.4,2.8,2.1,4.2L380.4,113.9z M36.4,108.2l-0.8-0.4c0.6-1.4,1.3-2.9,2-4.3
	l0.8,0.4C37.7,105.3,37,106.7,36.4,108.2 M376.4,105.3c-0.6-1.4-1.2-2.9-1.8-4.4l0.8-0.3c0.6,1.5,1.1,3,1.7,4.4L376.4,105.3z
	 M40.4,99.7l-0.8-0.4c0.7-1.4,1.5-2.8,2.2-4.2l0.8,0.4C41.9,96.9,41.1,98.3,40.4,99.7 M373,96.5c-0.5-1.5-1-3-1.5-4.5l0.8-0.3
	c0.5,1.5,0.9,3,1.4,4.5L373,96.5z M44.9,91.4L44.2,91c0.8-1.4,1.6-2.7,2.4-4.1l0.7,0.5C46.5,88.7,45.7,90,44.9,91.4 M370.2,87.4
	c-0.4-1.5-0.8-3-1.2-4.6l0.8-0.2c0.4,1.5,0.8,3.1,1.2,4.6L370.2,87.4z M49.9,83.4l-0.7-0.5c0.9-1.3,1.8-2.6,2.7-3.9l0.7,0.5
	C51.7,80.8,50.8,82.1,49.9,83.4 M367.9,78.3c-0.4-1.5-0.9-3-1.4-4.4l0.8-0.3c0.5,1.5,1,3,1.5,4.5L367.9,78.3z M55.4,75.7l-0.7-0.5
	c0.9-1.3,1.9-2.5,2.9-3.7l0.7,0.5C57.3,73.2,56.3,74.5,55.4,75.7 M364.7,69.5c-0.6-1.4-1.3-2.8-2.1-4.2l0.8-0.4
	c0.8,1.4,1.5,2.8,2.1,4.3L364.7,69.5z M61.2,68.4l-0.7-0.6c1-1.2,2.1-2.4,3.1-3.6l0.6,0.6C63.3,66,62.2,67.2,61.2,68.4 M67.5,61.4
	l-0.6-0.6c1.1-1.1,2.2-2.3,3.3-3.4l0.6,0.6C69.7,59.1,68.6,60.2,67.5,61.4 M360.2,61.3c-0.8-1.3-1.7-2.6-2.6-3.9l0.7-0.5
	c0.9,1.3,1.8,2.6,2.7,3.9L360.2,61.3z M74.2,54.7l-0.6-0.6c1.1-1.1,2.3-2.1,3.5-3.2l0.6,0.7C76.6,52.6,75.4,53.7,74.2,54.7
	 M354.7,53.7c-1-1.2-2-2.4-3.1-3.5l0.6-0.6c1.1,1.2,2.1,2.4,3.1,3.6L354.7,53.7z M81.3,48.5l-0.6-0.7c1.2-1,2.4-2,3.7-3l0.5,0.7
	C83.7,46.5,82.5,47.5,81.3,48.5 M348.4,46.7c-1.1-1.1-2.3-2.2-3.4-3.2l0.6-0.7c1.2,1.1,2.4,2.2,3.5,3.2L348.4,46.7z M88.7,42.7
	L88.2,42c1.3-0.9,2.5-1.9,3.8-2.8l0.5,0.7C91.2,40.9,90,41.8,88.7,42.7 M341.4,40.5c-1.2-1-2.4-2-3.7-2.9l0.5-0.7
	c1.3,1,2.5,1.9,3.7,2.9L341.4,40.5z M96.4,37.3l-0.5-0.7c1.3-0.9,2.6-1.7,4-2.6l0.5,0.7C99,35.6,97.7,36.5,96.4,37.3 M333.8,34.8
	c-1.3-0.9-2.6-1.8-3.9-2.6l0.5-0.7c1.3,0.9,2.7,1.7,4,2.6L333.8,34.8z M104.4,32.3l-0.4-0.8c1.3-0.8,2.7-1.6,4.1-2.3l0.4,0.8
	C107.1,30.8,105.7,31.6,104.4,32.3 M325.9,29.8c-1.3-0.8-2.7-1.6-4.1-2.3l0.4-0.8c1.4,0.8,2.8,1.6,4.1,2.3L325.9,29.8z M112.6,27.8
	l-0.4-0.8c1.4-0.7,2.8-1.4,4.2-2.1l0.4,0.8C115.4,26.3,114,27.1,112.6,27.8 M317.6,25.2c-1.4-0.7-2.8-1.4-4.2-2.1l0.4-0.8
	c1.4,0.7,2.9,1.4,4.3,2.1L317.6,25.2z M121.1,23.6l-0.4-0.8c1.4-0.7,2.9-1.3,4.3-1.9l0.3,0.8C123.9,22.3,122.5,23,121.1,23.6
	 M309.1,21.2c-1.4-0.6-2.9-1.2-4.3-1.8l0.3-0.8c1.5,0.6,2.9,1.2,4.4,1.8L309.1,21.2z M129.7,19.9l-0.3-0.8c1.5-0.6,2.9-1.2,4.4-1.7
	l0.3,0.8C132.7,18.7,131.2,19.3,129.7,19.9 M300.4,17.7c-1.5-0.5-2.9-1.1-4.4-1.6l0.3-0.8c1.5,0.5,3,1.1,4.5,1.6L300.4,17.7z
	 M138.5,16.5l-0.3-0.8c1.5-0.5,3-1,4.5-1.5L143,15C141.5,15.5,140,16,138.5,16.5 M291.5,14.5c-1.5-0.5-3-1-4.5-1.4l0.3-0.8
	c1.5,0.5,3,0.9,4.5,1.4L291.5,14.5z M147.5,13.6l-0.3-0.8c1.5-0.5,3-0.9,4.5-1.3l0.2,0.8C150.5,12.7,149,13.1,147.5,13.6
	 M282.5,11.8c-1.5-0.4-3-0.8-4.6-1.2l0.2-0.8c1.5,0.4,3.1,0.8,4.6,1.2L282.5,11.8z M156.6,11l-0.2-0.8c1.5-0.4,3.1-0.8,4.6-1.1
	l0.2,0.9C159.6,10.3,158.1,10.6,156.6,11 M273.3,9.5c-1.5-0.4-3.1-0.7-4.6-1l0.2-0.9c1.5,0.3,3.1,0.7,4.6,1L273.3,9.5z M165.8,8.8
	L165.6,8c1.5-0.3,3.1-0.7,4.6-1l0.2,0.9C168.8,8.2,167.3,8.5,165.8,8.8 M264.1,7.6c-1.5-0.3-3.1-0.6-4.6-0.8l0.1-0.9
	c1.6,0.3,3.1,0.5,4.7,0.8L264.1,7.6z M175,7l-0.2-0.9c1.5-0.3,3.1-0.5,4.7-0.8l0.1,0.9C178.1,6.5,176.6,6.8,175,7 M254.8,6
	c-1.5-0.2-3.1-0.4-4.7-0.6l0.1-0.9c1.6,0.2,3.1,0.4,4.7,0.6L254.8,6z M184.3,5.6l-0.1-0.9c1.6-0.2,3.1-0.4,4.7-0.6L189,5
	C187.5,5.2,185.9,5.4,184.3,5.6 M245.4,4.8c-1.6-0.2-3.1-0.3-4.7-0.5l0.1-0.9c1.6,0.1,3.1,0.3,4.7,0.5L245.4,4.8z M193.7,4.5
	l-0.1-0.9c1.6-0.2,3.1-0.3,4.7-0.4l0.1,0.9C196.8,4.2,195.2,4.4,193.7,4.5 M236,4c-1.6-0.1-3.1-0.2-4.7-0.3l0-0.9
	c1.6,0.1,3.2,0.2,4.7,0.3L236,4z M203.1,3.8L203,2.9c1.6-0.1,3.1-0.2,4.7-0.2l0,0.9C206.2,3.6,204.6,3.7,203.1,3.8 M226.6,3.5
	c-1.6-0.1-3.1-0.1-4.7-0.1l0-0.9c1.6,0,3.2,0.1,4.7,0.1L226.6,3.5z M212.5,3.4l0-0.9c1.6,0,3.1-0.1,4.7-0.1l0,0.9
	C215.6,3.4,214,3.4,212.5,3.4"/>
<path class="st2" d="M149.1,217.2H37.9C17,217.2,0,200.2,0,179.3V37.9C0,17,17,0,37.9,0h111.2C170,0,187,17,187,37.9v141.4
	C187,200.2,170,217.2,149.1,217.2"/>
<path class="st3" d="M113.5,90.1c-7.2-20-26.3-32.3-46.4-31.7c-4.9,0.1-9.8,1-14.7,2.8c-14.7,5.3-25.2,16.9-29.5,30.8
	c-3,9.6-3,20.2,0.6,30.3c0.4,1,0.8,2,1.2,3c1.9,4.4,4.4,8.4,7.4,11.9c12.5,14.7,33.3,20.9,52.5,14
	C109.5,142.3,122.4,114.9,113.5,90.1 M80.6,139.9c-14.4,5.2-30,0.5-39.4-10.5c-2.2-2.6-4.1-5.6-5.6-8.9c-0.3-0.7-0.6-1.5-0.9-2.2
	c-2.7-7.6-2.7-15.6-0.5-22.7c3.2-10.4,11.1-19.1,22.1-23.1c3.6-1.3,7.3-2,11-2.1c15.1-0.5,29.4,8.8,34.8,23.8
	C108.9,112.7,99.2,133.3,80.6,139.9"/>
<path class="st4" d="M34.3,95.5l-11.4-3.6c4.3-13.8,14.9-25.5,29.5-30.8c4.8-1.7,9.8-2.6,14.7-2.8l0.4,12c-3.7,0.1-7.4,0.8-11,2.1
	C45.5,76.4,37.6,85.1,34.3,95.5"/>
<path class="st5" d="M35.7,120.5l-11,4.8c-0.4-1-0.8-2-1.2-3c-3.6-10.2-3.6-20.8-0.6-30.3l11.4,3.6c-2.2,7.2-2.3,15.1,0.5,22.7
	C35.1,119,35.4,119.7,35.7,120.5"/>
<path class="st6" d="M32.1,137.1c-3-3.5-5.5-7.5-7.4-11.9l11-4.8c1.4,3.3,3.3,6.3,5.6,8.9L32.1,137.1z"/>
<path class="st3" d="M155,119.3c-7.9-3.8-17.1-1.8-22.8,4.3c-1.4,1.5-2.6,3.2-3.5,5.1c-2.8,5.8-2.4,12.3,0.4,17.6
	c1.9,3.7,5,6.8,9.1,8.7c0.4,0.2,0.8,0.4,1.2,0.5c1.8,0.7,3.7,1.2,5.6,1.3c8,0.6,15.8-3.6,19.5-11.3C169,135.7,164.8,123.9,155,119.3
	 M159.9,143.5c-2.7,5.7-8.6,8.9-14.6,8.4c-1.4-0.1-2.8-0.4-4.2-1c-0.3-0.1-0.6-0.3-0.9-0.4c-3-1.4-5.3-3.8-6.8-6.5
	c-2.1-4-2.3-8.9-0.3-13.2c0.7-1.4,1.6-2.7,2.6-3.8c4.3-4.6,11.2-6.1,17.1-3.2C160.2,127.3,163.4,136.1,159.9,143.5"/>
<path class="st5" d="M133.4,144l-4.4,2.3c-2.8-5.3-3.1-11.8-0.4-17.6c0.9-1.9,2.1-3.6,3.5-5.1l3.6,3.4c-1,1.1-1.9,2.4-2.6,3.8
	C131,135.2,131.3,140.1,133.4,144"/>
<path class="st6" d="M141.1,150.9l-1.8,4.6c-0.4-0.2-0.8-0.3-1.2-0.5c-4-1.9-7.1-5-9.1-8.7l4.4-2.3c1.4,2.8,3.8,5.1,6.8,6.5
	C140.5,150.7,140.8,150.8,141.1,150.9"/>
<rect x="22.9" y="161.5" class="st3" width="33" height="4.4"/>
<rect x="103.5" y="161.5" class="st3" width="19.4" height="4.4"/>
<rect x="15.4" y="18.6" class="st3" width="15.8" height="3.4"/>
<rect x="81.3" y="31.4" class="st3" width="24.5" height="3.4"/>
<rect x="49.6" y="31.4" class="st3" width="15" height="3.4"/>
<rect x="15.4" y="31.4" class="st3" width="29.7" height="3.4"/>
<rect x="36" y="18.6" class="st3" width="23.4" height="3.4"/>
<rect x="69.3" y="31.4" class="st3" width="6.4" height="3.4"/>
<rect x="88.4" y="18.8" class="st3" width="17.5" height="3.4"/>
<rect x="112.1" y="31.4" class="st3" width="14.9" height="3.4"/>
<rect x="65.2" y="18.8" class="st3" width="18.6" height="3.4"/>
<path class="st0" d="M103.4,391c-0.1,0-0.2,0-0.2-0.1l-7-3.5c-0.2-0.1-0.3-0.4-0.2-0.7c0.1-0.2,0.4-0.3,0.7-0.2l7,3.5
	c0.2,0.1,0.3,0.4,0.2,0.7C103.8,390.9,103.6,391,103.4,391"/>
<path class="st2" d="M431,158.8c0-0.2,0-0.5,0-0.7c0-10.1-8.2-18.3-18.3-18.3c-7.3,0-13.6,4.3-16.5,10.5c-3.1-2.5-7.1-4-11.5-4
	c-9.1,0-16.7,6.7-18,15.5c-4.5,3.3-7.4,8.6-7.4,14.6c0,10.1,8.2,18.3,18.3,18.3h48.2c10.1,0,18.3-8.2,18.3-18.3
	C444.2,168,438.6,161,431,158.8"/>
<path class="st2" d="M272.3,74.8c0-0.2,0-0.5,0-0.7c0-10.1-8.2-18.3-18.3-18.3c-7.3,0-13.6,4.3-16.5,10.5c-3.1-2.5-7.1-4-11.5-4
	c-9.1,0-16.7,6.7-18,15.5c-4.5,3.3-7.4,8.6-7.4,14.6c0,10.1,8.2,18.3,18.3,18.3h48.2c10.1,0,18.3-8.2,18.3-18.3
	C285.5,84.1,279.9,77.1,272.3,74.8"/>
<polygon class="st0" points="138.8,275.3 139.5,285.1 147.9,285.1 147.2,274.4 "/>
<path class="st7" d="M137.7,285.1c0-1.1,0.8-1.9,1.9-1.9H153c4.5,0,8.3,1.8,9.6,4.9c0.6,1.2-0.4,2.6-1.8,2.6h-21.2
	c-1,0-1.9-0.8-1.9-1.8L137.7,285.1z"/>
<path class="st7" d="M137.8,288.9c0,1,0.9,1.8,1.9,1.8h21.2c1.2,0,2-1,1.9-2.1h-25L137.8,288.9z"/>
<path class="st7" d="M148.7,286.6c-0.4,0-0.8-0.4-0.8-0.8v-3c0-0.4,0.4-0.8,0.8-0.8c0.4,0,0.8,0.4,0.8,0.8v3
	C149.5,286.3,149.1,286.6,148.7,286.6"/>
<path class="st7" d="M151.8,286.6c-0.4,0-0.8-0.4-0.8-0.8v-3c0-0.4,0.4-0.8,0.8-0.8c0.4,0,0.8,0.4,0.8,0.8v3
	C152.6,286.3,152.3,286.6,151.8,286.6"/>
<polygon class="st8" points="187.7,275.3 188.4,285.1 196.8,285.1 196.1,274.4 "/>
<path class="st7" d="M186.6,285.1c0-1.1,0.8-1.9,1.9-1.9H202c4.5,0,8.3,1.8,9.6,4.9c0.6,1.2-0.4,2.6-1.8,2.6h-21.2
	c-1,0-1.9-0.8-1.9-1.8L186.6,285.1z"/>
<path class="st7" d="M186.7,288.9c0,1,0.9,1.8,1.9,1.8h21.2c1.2,0,2-1,1.9-2.1h-25L186.7,288.9z"/>
<path class="st9" d="M188.1,185.9c0,0,9.5,65.8,9.8,93.3h-10.7c0,0-5.5-46.3-23.3-87.6C170,186.8,177.7,184.5,188.1,185.9"/>
<path class="st7" d="M183.4,182.8c0,0-25.2,46.3-34.3,95.4h-12.4c0,0,4.4-38.6,14.1-87.6L183.4,182.8z"/>
<path class="st10" d="M187.8,121.5c-23.7,0-45.3,15.2-51.1,33.7c-3.9,12.5,6.4,29.6,9.7,34.6l2.2-1.6c-0.2,2-0.4,4-0.6,6
	c10.5,2.5,42.1,0.9,42.1,0.9c2.9-24.6,9.6-44.4,12.8-43.7c3.2,0.7,13.4,6.2,13.4,6.2l0.7-13.6C217.1,144,205.1,121.5,187.8,121.5
	 M147.3,161.5c0.8-3.2,3.6-8.5,7.2-10.7c-2.2,8.3-3.5,17-4.5,25.6C147.8,170.6,146.2,165.7,147.3,161.5"/>
<path class="st8" d="M152.6,185c0,0,6.1,6.5,4.5,9.2c-1.6,2.7-10.1-5.1-10.1-5.1L152.6,185z"/>
<path class="st8" d="M208.3,105.7c0,0-1,22.8-7.3,24c-6.3,1.1-6.2,0-8.7,0s-3.9,5.4-3.9,5.4s-5.7,2.4-10.5-1.3l5.3-28H208.3z"/>
<path class="st0" d="M183.7,115.2c0,0-0.8-4.4-4-3.4c-3.2,1-2.2,9.3,1.2,8.8L183.7,115.2z"/>
<path class="st11" d="M179.6,111.8c0,0,1.7-7.7,1.9-9.5c0.2-1.8,8.6-5.5,14.3-8.4l-1.5,3.7c0,0,3.2-3.7,14.1-5.3l-2.6,5.8l7.4-2.1
	c0,0-2.5,10-5.2,13.9c0,0-6,0.9-10.9,0c-4.9-0.9-7.2-1.3-8.1,1.3c-1,2.7-3.1,2.5-3.4,3.5c-0.3,1-1.4,5.2-1.4,5.2H182
	c0,0,0.5-4,0.6-5.4C182.8,113.2,182.1,111.5,179.6,111.8"/>
<polygon class="st8" points="473.8,382.1 474.9,390.6 466.3,390.6 464.1,379.8 "/>
<path class="st7" d="M475.2,389.6c0-1-0.8-1.9-1.9-1.9h-13.4c-4.5,0-8.3,1.8-9.6,4.9c-0.6,1.2,0.4,2.6,1.8,2.6h21.2
	c1,0,1.9-0.8,1.9-1.8L475.2,389.6z"/>
<path class="st7" d="M475.2,393.4c0,1-0.9,1.8-1.9,1.8H452c-1.2,0-2-1-1.9-2.1h25L475.2,393.4z"/>
<polygon class="st8" points="419.3,380.6 418.6,390.6 410,390.6 410.7,379.8 "/>
<path class="st7" d="M420.2,389.6c0-1-0.8-1.9-1.9-1.9h-13.4c-4.5,0-8.3,1.8-9.6,4.9c-0.6,1.2,0.4,2.6,1.8,2.6h21.2
	c1,0,1.9-0.8,1.9-1.8L420.2,389.6z"/>
<path class="st7" d="M420.1,393.4c0,1-0.9,1.8-1.9,1.8H397c-1.2,0-2-1-1.9-2.1h25L420.1,393.4z"/>
<path class="st12" d="M141.4,271.6c0,0,5.3,2.7,11.7,3.4c5.9,0.7,1.3,5.6-3.1,5c-3.4-0.5-10.9-2.7-10.9-2.7L141.4,271.6z"/>
<path class="st8" d="M142.6,277.4c0,0,5.7,1.7,12.1,1.2c6-0.4,2.3,5.3-2.1,5.5c-3.4,0.2-11.3-0.7-11.3-0.7L142.6,277.4z"/>
<path class="st5" d="M97.7,225.8c0,0,13.5,33.8,48,46.2l-2.9,8.2c0,0-27.1-4.7-41.5-20c-14.4-15.3-13.5-31.5-13.5-31.5L97.7,225.8z"
	/>
<polygon class="st8" points="14.2,358.7 6,360.8 9,368.6 19.7,366.8 "/>
<path class="st7" d="M5.3,359.2c1-0.4,2.1,0.1,2.5,1l4.9,12.5c1.7,4.2,1.3,8.4-1,10.8c-1,1-2.6,0.6-3.1-0.7L0.8,363
	c-0.4-1,0.1-2,1-2.4L5.3,359.2z"/>
<path class="st7" d="M1.8,360.6c-0.9,0.4-1.4,1.5-1,2.4l7.8,19.8c0.4,1.1,1.7,1.5,2.7,1L2,360.5L1.8,360.6z"/>
<polygon class="st8" points="97.9,381.2 96.8,389.6 105.2,389.6 107.4,379 "/>
<path class="st9" d="M105.4,283c0,0,12,35.3,13.2,50.3c1.3,15.4-11,49.4-11,49.4h-11c0,0,3.1-24.3,4.9-39.3
	c1.8-15-33.1-57.8-33.1-57.8L105.4,283z"/>
<path class="st7" d="M98.5,290.7c0,0-20.9,43.1-26.5,51.7c-5.6,8.6-56,27.2-56,27.2l-4.4-12.1c0,0,29-14,39.6-20.7
	c10.6-6.6,13.6-44.7,13.6-44.7L98.5,290.7z"/>
<path class="st8" d="M117.5,189.6l2.5,9h-2.8c0,0-1,10.4-7.3,10.8c-6.3,0.4-9.5,7.5-9.5,7.5H89l3.1-27.1L117.5,189.6z"/>
<path class="st11" d="M117.5,189.6c0,0-6.7,5.2-12.3,6.2c-5.5,1.1-9.6-1.8-12,0.2c-2.6,2.1-2.1,5.7,0.5,7l-1.6,4.3H89
	c0,0,2-15.9,2.5-20.2c0.5-4.3,20.4-6.6,26.1-6.2C123.2,181.2,117.5,189.6,117.5,189.6"/>
<path class="st10" d="M89,216.9c0,0-4.7,1.9-11,11.8c-6.3,9.9-17.2,66.3-17.2,66.3h52.4c0,0-3-32.8-5.3-51c-2.3-18.2-7.5-27-7.5-27
	H89z"/>
<path class="st10" d="M93.6,224.9c0,0,6.8,24.5,19.5,36.2c12.8,11.6,34.6,16.1,34.6,16.1l-2.1,7.7c0,0-17.2-0.4-38.1-12.5
	c-20.9-12.1-26.8-33.6-26.8-33.6L93.6,224.9z"/>
<path class="st13" d="M111.1,273.9c-24.2-11.7-30.3-35.1-30.3-35.1c4.5,26.6,23,40.3,31.2,45.1C111.8,280.9,111.4,277.5,111.1,273.9
	"/>
<path class="st7" d="M95,389.6c0-1,0.8-1.9,1.9-1.9h13.4c4.5,0,8.3,1.8,9.6,4.9c0.6,1.2-0.4,2.6-1.8,2.6H97c-1,0-1.9-0.8-1.9-1.8
	L95,389.6z"/>
<path class="st7" d="M95.1,393.4c0,1,0.9,1.8,1.9,1.8h21.2c1.2,0,2-1,1.9-2.1h-25L95.1,393.4z"/>
<g>
	<defs>
		<path id="SVGID_1_" d="M251.4,122.8h-6c-2.4,0-4.6,1.3-5.8,3.4l-3.1,5.6c-1.5,2.7-4.7,4-7.7,3.2l-6.1-1.7c-2.3-0.7-4.8,0-6.5,1.7
			l-4.3,4.3l-4.3,4.3c-1.7,1.7-2.4,4.2-1.7,6.5l1.7,6.1c0.8,3-0.5,6.1-3.2,7.6l-5.6,3.1c-2.1,1.2-3.4,3.4-3.4,5.8v6v6
			c0,2.4,1.3,4.6,3.4,5.8l5.6,3.1c2.7,1.5,4,4.7,3.2,7.7l-1.7,6.1c-0.7,2.3,0,4.8,1.7,6.5l4.3,4.3l4.3,4.3c1.7,1.7,4.2,2.4,6.5,1.7
			l6.1-1.7c3-0.8,6.1,0.5,7.7,3.2l3.1,5.6c1.2,2.1,3.4,3.4,5.8,3.4h6h6c2.4,0,4.6-1.3,5.8-3.4l3.1-5.6c1.5-2.7,4.7-4,7.7-3.2
			l6.1,1.7c2.3,0.7,4.8,0,6.5-1.7l4.3-4.3l4.3-4.3c1.7-1.7,2.4-4.2,1.7-6.5l-1.7-6.1c-0.8-3,0.5-6.1,3.2-7.7l5.6-3.1
			c2.1-1.2,3.4-3.4,3.4-5.8v-6v-6c0-2.4-1.3-4.6-3.4-5.8l-5.6-3.1c-2.7-1.5-4-4.7-3.2-7.6l1.7-6.1c0.7-2.3,0-4.8-1.7-6.5l-4.3-4.3
			l-4.3-4.3c-1.7-1.7-4.2-2.4-6.5-1.7L274,135c-3,0.8-6.1-0.5-7.7-3.2l-3.1-5.6c-1.2-2.1-3.4-3.4-5.8-3.4H251.4z"/>
	</defs>
	<clipPath id="SVGID_2_">
		<use xlink:href="#SVGID_1_"  style="overflow:visible;"/>
	</clipPath>
	
		<linearGradient id="SVGID_3_" gradientUnits="userSpaceOnUse" x1="-713.3571" y1="2714.2642" x2="-712.3571" y2="2714.2642" gradientTransform="matrix(111.8327 0 0 -111.8327 79972.1094 303722.2813)">
		<stop  offset="0" style="stop-color:#891A1A"/>
		<stop  offset="1" style="stop-color:#0D4552"/>
	</linearGradient>
	<rect x="195.4" y="122.8" class="st14" width="111.8" height="111.8"/>
</g>
<path class="st0" d="M267.3,179.1c0,8.8-7.2,16-16,16c-8.8,0-16-7.2-16-16c0-8.8,7.2-16,16-16C260.2,163.1,267.3,170.2,267.3,179.1"
	/>
<path class="st0" d="M251.4,209.9c-17,0-30.9-13.8-30.9-30.8c0-17,13.8-30.9,30.9-30.9c17,0,30.8,13.8,30.8,30.9
	C282.2,196.1,268.4,209.9,251.4,209.9 M251.4,150c-16,0-29.1,13-29.1,29.1c0,16,13,29.1,29.1,29.1c16,0,29.1-13,29.1-29.1
	C280.4,163,267.4,150,251.4,150"/>
<path class="st0" d="M251.4,203.9c-13.7,0-24.8-11.1-24.8-24.8c0-13.7,11.1-24.8,24.8-24.8c13.7,0,24.8,11.1,24.8,24.8
	C276.2,192.8,265,203.9,251.4,203.9 M251.4,158.6c-11.3,0-20.5,9.2-20.5,20.5s9.2,20.5,20.5,20.5c11.3,0,20.5-9.2,20.5-20.5
	S262.7,158.6,251.4,158.6"/>
<path class="st15" d="M322.6,263.7l1.7-6.1c0.7-2.3,0-4.8-1.7-6.5l-4.3-4.3l-4.3-4.3c-1.7-1.7-4.2-2.4-6.5-1.7l-6.1,1.7
	c-3,0.8-6.1-0.5-7.6-3.2l-3.1-5.6c-1.2-2.1-3.4-3.4-5.8-3.4h-6h-6c-2.4,0-4.6,1.3-5.8,3.4l-3.1,5.6c-1.5,2.7-4.7,4-7.7,3.2l-6.1-1.7
	c-2.3-0.7-4.8,0-6.5,1.7l-4.3,4.3l-4.3,4.3c-1.7,1.7-2.4,4.2-1.7,6.5l1.7,6.1c0.8,3-0.5,6.1-3.2,7.7l-5.6,3.1
	c-2.1,1.2-3.4,3.4-3.4,5.8v6v6c0,2.4,1.3,4.7,3.4,5.8l5.6,3.1c2.7,1.5,4,4.7,3.2,7.6l-1.7,6.1c-0.7,2.3,0,4.8,1.7,6.5l4.3,4.3
	l4.3,4.3c1.7,1.7,4.2,2.4,6.5,1.7l6.1-1.7c3-0.8,6.1,0.5,7.7,3.2l3.1,5.6c1.2,2.1,3.4,3.4,5.8,3.4h6h6c2.4,0,4.6-1.3,5.8-3.4
	l3.1-5.6c1.5-2.7,4.7-4,7.6-3.2l6.1,1.7c2.3,0.7,4.8,0,6.5-1.7l4.3-4.3l4.3-4.3c1.7-1.7,2.4-4.2,1.7-6.5l-1.7-6.1
	c-0.8-3,0.5-6.1,3.2-7.6l5.6-3.1c2.1-1.2,3.4-3.4,3.4-5.8v-6v-6c0-2.4-1.3-4.6-3.4-5.8l-5.6-3.1
	C323.1,269.8,321.7,266.6,322.6,263.7"/>
<path class="st0" d="M294.8,286.6c0,8.8-7.2,16-16,16c-8.8,0-16-7.2-16-16c0-8.8,7.2-16,16-16C287.7,270.7,294.8,277.8,294.8,286.6"
	/>
<path class="st0" d="M278.8,317.5c-17,0-30.9-13.8-30.9-30.8s13.8-30.9,30.9-30.9c17,0,30.9,13.8,30.9,30.9S295.9,317.5,278.8,317.5
	 M278.8,257.6c-16,0-29.1,13-29.1,29.1s13,29.1,29.1,29.1c16,0,29.1-13,29.1-29.1S294.9,257.6,278.8,257.6"/>
<path class="st0" d="M278.8,311.5c-13.7,0-24.8-11.1-24.8-24.8c0-13.7,11.1-24.8,24.8-24.8c13.7,0,24.8,11.1,24.8,24.8
	C303.7,300.3,292.5,311.5,278.8,311.5 M278.8,266.1c-11.3,0-20.5,9.2-20.5,20.5c0,11.3,9.2,20.5,20.5,20.5
	c11.3,0,20.5-9.2,20.5-20.5C299.3,275.3,290.1,266.1,278.8,266.1"/>
<path class="st5" d="M200.7,208.9l1.2-4.3c0.5-1.6,0-3.4-1.2-4.6l-3-3l-3-3c-1.2-1.2-3-1.7-4.6-1.2l-4.3,1.2
	c-2.1,0.6-4.3-0.3-5.4-2.2l-2.2-3.9c-0.8-1.5-2.4-2.4-4.1-2.4h-4.3h-4.3c-1.7,0-3.3,0.9-4.1,2.4l-2.2,3.9c-1.1,1.9-3.3,2.8-5.4,2.2
	l-4.3-1.2c-1.6-0.5-3.4,0-4.6,1.2l-3,3l-3,3c-1.2,1.2-1.7,3-1.2,4.6l1.2,4.3c0.6,2.1-0.3,4.4-2.2,5.4l-3.9,2.2
	c-1.5,0.8-2.4,2.4-2.4,4.1v4.3v4.3c0,1.7,0.9,3.3,2.4,4.1l3.9,2.2c1.9,1.1,2.8,3.3,2.2,5.4l-1.2,4.3c-0.5,1.6,0,3.4,1.2,4.6l3,3l3,3
	c1.2,1.2,3,1.7,4.6,1.2l4.3-1.2c2.1-0.6,4.3,0.3,5.4,2.2l2.2,3.9c0.8,1.5,2.4,2.4,4.1,2.4h4.3h4.3c1.7,0,3.3-0.9,4.1-2.4l2.2-3.9
	c1.1-1.9,3.3-2.8,5.4-2.2l4.3,1.2c1.6,0.5,3.4,0,4.6-1.2l3-3l3-3c1.2-1.2,1.7-3,1.2-4.6l-1.2-4.3c-0.6-2.1,0.3-4.4,2.2-5.4l3.9-2.2
	c1.5-0.8,2.4-2.4,2.4-4.1v-4.3v-4.3c0-1.7-0.9-3.3-2.4-4.1l-3.9-2.2C201,213.3,200.1,211,200.7,208.9"/>
<path class="st0" d="M181,225.2c0,6.2-5.1,11.3-11.3,11.3c-6.2,0-11.3-5.1-11.3-11.3c0-6.2,5.1-11.3,11.3-11.3
	C175.9,213.9,181,218.9,181,225.2"/>
<path class="st0" d="M169.7,247c-12,0-21.8-9.8-21.8-21.8s9.8-21.8,21.8-21.8c12,0,21.8,9.8,21.8,21.8S181.7,247,169.7,247
	 M169.7,204.6c-11.3,0-20.6,9.2-20.6,20.6c0,11.3,9.2,20.6,20.6,20.6c11.3,0,20.6-9.2,20.6-20.6C190.3,213.8,181,204.6,169.7,204.6"
	/>
<path class="st0" d="M169.7,242.7c-9.7,0-17.6-7.9-17.6-17.6c0-9.7,7.9-17.6,17.6-17.6c9.7,0,17.6,7.9,17.6,17.6
	C187.3,234.9,179.4,242.7,169.7,242.7 M169.7,210.7c-8,0-14.5,6.5-14.5,14.5s6.5,14.5,14.5,14.5s14.5-6.5,14.5-14.5
	S177.7,210.7,169.7,210.7"/>
<path class="st16" d="M376.4,192.4l1.2-4.3c0.5-1.6,0-3.4-1.2-4.6l-3-3l-3-3c-1.2-1.2-3-1.7-4.6-1.2l-4.3,1.2
	c-2.1,0.6-4.3-0.3-5.4-2.2l-2.2-3.9c-0.8-1.5-2.4-2.4-4.1-2.4h-4.3h-4.3c-1.7,0-3.3,0.9-4.1,2.4l-2.2,3.9c-1.1,1.9-3.3,2.8-5.4,2.2
	l-4.3-1.2c-1.6-0.5-3.4,0-4.6,1.2l-3,3l-3,3c-1.2,1.2-1.7,3-1.2,4.6l1.2,4.3c0.6,2.1-0.3,4.4-2.2,5.4l-3.9,2.2
	c-1.5,0.8-2.4,2.4-2.4,4.1v4.3v4.3c0,1.7,0.9,3.3,2.4,4.1l3.9,2.2c1.9,1.1,2.8,3.3,2.2,5.4l-1.2,4.3c-0.5,1.6,0,3.4,1.2,4.6l3,3l3,3
	c1.2,1.2,3,1.7,4.6,1.2l4.3-1.2c2.1-0.6,4.3,0.3,5.4,2.2l2.2,3.9c0.8,1.5,2.4,2.4,4.1,2.4h4.3h4.3c1.7,0,3.3-0.9,4.1-2.4l2.2-3.9
	c1.1-1.9,3.3-2.8,5.4-2.2l4.3,1.2c1.6,0.5,3.4,0,4.6-1.2l3-3l3-3c1.2-1.2,1.7-3,1.2-4.6l-1.2-4.3c-0.6-2.1,0.3-4.4,2.2-5.4l3.9-2.2
	c1.5-0.8,2.4-2.4,2.4-4.1v-4.3v-4.3c0-1.7-0.9-3.3-2.4-4.1l-3.9-2.2C376.7,196.7,375.8,194.5,376.4,192.4"/>
<path class="st0" d="M356.7,208.6c0,6.2-5.1,11.3-11.3,11.3c-6.2,0-11.3-5.1-11.3-11.3c0-6.2,5.1-11.3,11.3-11.3
	C351.7,197.3,356.7,202.4,356.7,208.6"/>
<path class="st0" d="M345.4,230.5c-12,0-21.8-9.8-21.8-21.8s9.8-21.8,21.8-21.8c12,0,21.8,9.8,21.8,21.8S357.5,230.5,345.4,230.5
	 M345.4,188.1c-11.3,0-20.6,9.2-20.6,20.6c0,11.3,9.2,20.6,20.6,20.6c11.3,0,20.6-9.2,20.6-20.6C366,197.3,356.8,188.1,345.4,188.1"
	/>
<path class="st0" d="M345.4,226.2c-9.7,0-17.6-7.9-17.6-17.6c0-9.7,7.9-17.6,17.6-17.6c9.7,0,17.6,7.9,17.6,17.6
	C363,218.3,355.1,226.2,345.4,226.2 M345.4,194.1c-8,0-14.5,6.5-14.5,14.5s6.5,14.5,14.5,14.5s14.5-6.5,14.5-14.5
	S353.4,194.1,345.4,194.1"/>
<path class="st7" d="M422.9,280.9c0,0-9.3,63.3-13.6,104.2h11.5c0,0,12-60,33.8-96.6L422.9,280.9z"/>
<path class="st9" d="M432.2,268.6c0,0,15.3,49.1,20.7,69.3c5.5,20.2,10.4,46.4,10.4,46.4h12.5c0,0-8.2-91.1-14.7-116.7L432.2,268.6z
	"/>
<path class="st12" d="M361.8,233.7c0,0-8,0.5-10.8,0.2c-2.9-0.3-3.3,2.9-1.3,4.5c1.9,1.6,12.1,1.7,12.1,1.7L361.8,233.7z"/>
<path class="st10" d="M429.5,217.4c0,0-36.8,13.2-69,15.6l-0.1,5.4l71.2-8L429.5,217.4z"/>
<path class="st8" d="M363.3,235c0,0-2.8,0.6-7.8,0.8c-5,0.2-7.9-1.4-8.3,0.6c-0.5,2,3.1,5.8,6.4,6s9.4-0.2,9.4-0.2L363.3,235z"/>
<path class="st8" d="M414.2,187.9l-6.5,12.1h3.7c0,0,2.3,7.8,3.6,10.7c1.3,2.9,8.7-2.7,11.2-3.1c2.5-0.4,4.7,4.3,4.7,4.3
	s5.1-1.5,9.1-4.9l-5.2-19.1H414.2z"/>
<path class="st17" d="M413.6,189.2c0,0-7.3-0.1-7.3-5.1c0-5,3.3-8.5,9.1-7.5c5.8,1,12.8,1.8,17.1,2.2c4.2,0.4,5.5,6.8,5.8,10.3
	c0.3,3.5,0.4,11.2,0.9,12.3c0.5,1.1-1.8,2.2-2.7,0.5s-2.2-4.9-2.2-4.9s2-0.3,1.5-2.7c-0.5-2.4-1.7-4.4-5-2.5
	c-3.3,1.9-5.7,2.7-8.5,0.2C419.4,189.5,417.1,189.2,413.6,189.2"/>
<path class="st5" d="M439.4,205.7c0,0,9.5,3,13.2,12.3c3.7,9.3,16.7,70.6,16.7,70.6s-6.4,8.1-19.9,4.7c-13.5-3.4-23.2-6-32.4-3.4
	c0,0,7.1-54.5,7.9-61.3c0.7-6.4,4.7-17.5,4.7-17.5L439.4,205.7z"/>
<path class="st5" d="M439.9,216c0,0-33.8,16-80,18.8v8.6c0,0,45.6,3.7,83.7-8.6L439.9,216z"/>
<path class="st13" d="M422.7,245.3c3.6-1.1,12.2-4.2,20.9-10.5c0,0-8.4,2.6-20.2,5C423.2,241.5,422.9,243.4,422.7,245.3"/>
<path class="st3" d="M319.6,68.3c0,0-28.4,0-28.4,22.5c0,22.5,17.1,16.4,17.1,39.5h11.3h11.3c0-23.2,17.1-17,17.1-39.5
	C347.9,68.3,319.6,68.3,319.6,68.3"/>
<path class="st0" d="M325.1,131.9h-2.5V111h-6v20.9h-2.5V111h-2.3c-3.4,0-5.9-6.3-5.9-10.5c0-1.4,0.2-2.5,0.7-3.3
	c0.6-1.1,1.7-1.7,3-1.7c6.2,0,7,5.8,7,13h6c0.1-7.2,0.8-13,7-13c0.9,0,3.7,0.4,3.7,5c0,2.1-0.6,4.5-1.6,6.6
	c-1.2,2.5-2.7,3.9-4.3,3.9h-2.3V131.9z M325.1,108.5h2.3c1,0,3.4-4.1,3.4-8c0-1.1-0.2-2.5-1.2-2.5C326.3,98,325.2,100.4,325.1,108.5
	 M309.5,98c-0.4,0-0.6,0.1-0.8,0.5c-0.3,0.4-0.4,1.1-0.4,2c0,3.9,2.3,8,3.4,8h2.3C314,100.4,312.9,98,309.5,98"/>
<path class="st4" d="M331.1,143h-23c-1.7,0-3.1-1.4-3.1-3.1v-6.4c0-1.7,1.4-3.1,3.1-3.1h23c1.7,0,3.1,1.4,3.1,3.1v6.4
	C334.2,141.6,332.8,143,331.1,143"/>
<path class="st6" d="M31.3,199.8c0,0-20.1,6.6-14.9,22.6c5.3,16,16,7.6,21.4,24.1l8-2.6l8-2.6c-5.4-16.5,8.2-16.1,2.9-32.1
	C51.5,193.2,31.3,199.8,31.3,199.8"/>
<path class="st0" d="M50.2,243.7l-1.8,0.6l-4.9-14.8l-4.3,1.4l4.9,14.8l-1.8,0.6l-4.9-14.8l-1.7,0.5c-2.4,0.8-5.7-3.1-6.7-6.1
	c-0.3-1-0.4-1.8-0.2-2.5c0.2-0.9,0.8-1.6,1.7-1.9c4.4-1.5,6.3,2.5,8,7.6l4.3-1.4c-1.7-5.1-2.5-9.4,1.9-10.9c0.6-0.2,2.7-0.6,3.8,2.7
	c0.5,1.5,0.7,3.4,0.4,5.1c-0.3,2.1-1,3.4-2.2,3.8l-1.7,0.5L50.2,243.7z M44.7,227.1l1.7-0.5c0.7-0.2,1.4-3.7,0.5-6.5
	c-0.3-0.8-0.7-1.7-1.4-1.5C43,219.4,42.8,221.3,44.7,227.1 M31.2,223.3c-0.3,0.1-0.4,0.2-0.5,0.5c-0.1,0.4,0,0.9,0.2,1.5
	c0.9,2.8,3.5,5.1,4.3,4.9l1.7-0.5C34.9,224,33.5,222.5,31.2,223.3"/>
<path class="st4" d="M57,250.2l-16.3,5.4c-1.2,0.4-2.6-0.3-3-1.5l-1.5-4.5c-0.4-1.2,0.3-2.6,1.5-3l16.3-5.4c1.2-0.4,2.6,0.3,3,1.5
	l1.5,4.5C58.9,248.5,58.2,249.8,57,250.2"/>
<polygon class="st18" points="447.8,231.7 478.3,214.6 467.8,213.9 "/>
<polygon class="st19" points="447.8,231.7 457.2,216.6 465.1,216.4 "/>
<polygon class="st20" points="471.3,218.6 471.9,222.4 447.8,231.7 "/>
<path class="st21" d="M339.5,329.2c-23.9,32.5-69,41.9-104.2,20.7"/>
<polygon class="st6" points="334.5,327.5 343.5,323.2 342.8,333.1 "/>
<path class="st22" d="M325.2,159.8c0.9-0.4,1.8-0.8,2.8-1.2"/>
<path class="st23" d="M334,156.7c19.5-5,40.6,1.6,53.7,17.7"/>
<path class="st22" d="M389.6,176.9c0.6,0.8,1.1,1.6,1.7,2.5"/>
<polygon class="st16" points="328.9,163.7 318.9,163.2 324.3,154.8 "/>
</svg>
