<?xml version="1.0" encoding="utf-8"?>
<!-- Generator: Adobe Illustrator 23.0.0, SVG Export Plug-In . SVG Version: 6.00 Build 0)  -->
<svg version="1.1" id="Слой_1" xmlns="http://www.w3.org/2000/svg" xmlns:xlink="http://www.w3.org/1999/xlink" x="0px" y="0px"
	 viewBox="0 0 662.3 684.7" style="enable-background:new 0 0 662.3 684.7;" xml:space="preserve">
<style type="text/css">
	.st0{fill:none;}
	.st1{fill:#9A1B1F;}
	.st2{fill:#0D4552;}
	.st3{fill:#E6E1DE;}
</style>
<line class="st0" x1="634" y1="-2129.2" x2="634" y2="2925.2"/>
<line class="st0" x1="634" y1="-2129.2" x2="634" y2="2925.2"/>
<rect x="44.8" y="360.4" class="st1" width="99.6" height="99.6"/>
<rect x="306" y="200.8" class="st1" width="99.6" height="99.6"/>
<rect x="565.8" y="320.3" class="st1" width="99.6" height="99.6"/>
<rect x="305.4" y="340.3" class="st2" width="99.7" height="99.7"/>
<rect x="606.4" y="80.5" class="st2" width="99.7" height="99.7"/>
<polygon class="st3" points="84.9,320.4 44.8,360.4 104.9,360.4 104.9,420.5 145,380.4 145,320.4 "/>
<polygon class="st3" points="145,380.4 104.9,420.5 165,420.5 165,480.6 205.1,440.5 205.1,380.4 "/>
<polygon class="st2" points="205,440.5 165,480.6 225.1,480.6 225.1,540.7 265.1,500.6 265.1,440.5 "/>
<polyline class="st3" points="64.9,520.6 104.9,480.6 104.9,420.5 44.8,420.5 4.8,460.6 64.9,460.6 64.9,520.6 "/>
<polygon class="st3" points="245.2,340.3 205.1,380.4 265.3,380.4 265.3,440.7 305.4,400.5 305.4,340.3 "/>
<polygon class="st3" points="305.4,400.4 265.3,440.4 325.4,440.4 325.4,500.5 365.5,460.5 365.5,400.4 "/>
<polygon class="st3" points="365.5,460.5 325.4,500.5 385.5,500.5 385.5,560.6 425.5,520.6 425.5,460.5 "/>
<polygon class="st3" points="425.5,520.6 385.5,560.6 445.6,560.6 445.6,620.7 485.6,580.7 485.6,520.6 "/>
<polygon class="st3" points="485.6,580.7 445.5,620.7 505.6,620.7 505.6,680.8 545.7,640.7 545.7,580.7 "/>
<polyline class="st3" points="285.2,600.7 325.2,560.7 325.2,500.6 265.1,500.6 225.1,540.7 285.2,540.7 285.2,600.7 "/>
<polygon class="st3" points="345.4,300.3 305.4,340.4 365.5,340.4 365.5,400.5 405.5,360.4 405.5,300.3 "/>
<polygon class="st3" points="225.3,180.1 185.3,220.2 245.3,220.2 245.3,280.3 285.4,240.2 285.4,180.1 "/>
<polygon class="st3" points="285.4,240.2 245.3,280.3 305.4,280.3 305.4,340.4 345.5,300.3 345.5,240.2 "/>
<polygon class="st3" points="525.7,480.5 485.6,520.6 545.7,520.6 545.7,580.7 585.7,540.6 585.7,480.5 "/>
<polygon class="st3" points="405.5,360.4 365.4,400.4 425.5,400.4 425.5,460.5 465.6,420.5 465.6,360.4 "/>
<polygon class="st1" points="465.6,420.5 425.5,460.5 485.6,460.5 485.6,520.6 525.7,480.5 525.7,420.5 "/>
<polygon class="st3" points="445.6,260.3 405.6,300.3 465.6,300.3 465.6,360.4 505.7,320.3 505.7,260.3 "/>
<polygon class="st3" points="385.5,200.2 345.5,240.2 405.6,240.2 405.6,300.3 445.6,260.3 445.6,200.2 "/>
<polygon class="st3" points="625.8,440.5 585.7,480.6 645.8,480.6 645.8,540.7 685.9,500.6 685.9,440.5 "/>
<polygon class="st3" points="505.7,320.3 465.7,360.4 525.7,360.4 525.7,420.5 565.8,380.4 565.8,320.3 "/>
<polygon class="st3" points="565.7,380.4 525.7,420.5 585.8,420.5 585.8,480.6 625.8,440.5 625.8,380.4 "/>
<polygon class="st3" points="545.8,220.2 505.7,260.2 565.8,260.2 565.8,320.3 605.9,280.3 605.9,220.2 "/>
<polygon class="st2" points="485.7,160.1 445.6,200.2 505.7,200.2 505.7,260.3 545.8,220.2 545.8,160.1 "/>
<polygon class="st3" points="605.9,280.3 565.8,320.3 625.9,320.3 625.9,380.4 665.9,340.3 665.9,280.3 "/>
<polygon class="st3" points="665.9,340.4 625.8,380.4 685.9,380.4 685.9,440.5 726,400.5 726,340.4 "/>
<polygon class="st3" points="325.4,140.1 285.4,180.1 345.5,180.1 345.5,240.2 385.5,200.2 385.5,140.1 "/>
<polygon class="st3" points="365.5,40 325.4,80.1 385.5,80.1 385.5,140.1 425.6,100.1 425.6,40 "/>
<polygon class="st3" points="425.6,100 385.6,140.1 445.6,140.1 445.6,200.2 485.7,160.1 485.7,100 "/>
<polygon class="st3" points="645.9,180.1 605.9,220.2 666,220.2 666,280.3 706,240.2 706,180.1 "/>
<polygon class="st3" points="585.8,120.1 545.8,160.1 605.9,160.1 605.9,220.2 645.9,180.1 645.9,120.1 "/>
<polyline class="st3" points="465.7,-0.1 425.6,39.9 485.7,39.9 485.7,100 525.8,60 525.8,-0.1 "/>
<polygon class="st3" points="525.8,60 485.7,100 545.8,100 545.8,160.1 585.8,120.1 585.8,60 "/>
<polygon class="st3" points="625.9,19.9 585.8,60 645.9,60 645.9,120.1 686,80 686,19.9 "/>
<polygon class="st1" points="185.1,280.2 145,320.4 205.2,320.4 205.2,380.6 245.3,340.4 245.3,280.2 "/>
<line class="st0" x1="634" y1="-2129.2" x2="634" y2="2925.2"/>
<line class="st0" x1="634" y1="-2129.2" x2="634" y2="2925.2"/>
<line class="st0" x1="634" y1="-2129.2" x2="634" y2="2925.2"/>
<line class="st0" x1="634" y1="-2129.2" x2="634" y2="2925.2"/>
<line class="st0" x1="634" y1="-2129.2" x2="634" y2="2925.2"/>
<line class="st0" x1="634" y1="-2129.2" x2="634" y2="2925.2"/>
<line class="st0" x1="634" y1="-2129.2" x2="634" y2="2925.2"/>
<line class="st0" x1="634" y1="-2129.2" x2="634" y2="2925.2"/>
<line class="st0" x1="634" y1="-2129.2" x2="634" y2="2925.2"/>
<line class="st0" x1="634" y1="-2129.2" x2="634" y2="2925.2"/>
<line class="st0" x1="634" y1="-2129.2" x2="634" y2="2925.2"/>
<line class="st0" x1="634" y1="-2129.2" x2="634" y2="2925.2"/>
<line class="st0" x1="634" y1="2925.2" x2="634" y2="-2129.2"/>
</svg>
