<!-- Generator: Adobe Illustrator 24.0.0, SVG Export Plug-In  -->
<svg version="1.1" xmlns="http://www.w3.org/2000/svg" xmlns:xlink="http://www.w3.org/1999/xlink" x="0px" y="0px" width="811.3px"
	 height="808px" viewBox="0 0 811.3 808" style="enable-background:new 0 0 811.3 808;" xml:space="preserve">
<style type="text/css">
	.st0{fill:#9E9E9E;}
	.st1{clip-path:url(#SVGID_2_);fill:url(#SVGID_3_);}
	.st2{clip-path:url(#SVGID_5_);fill:url(#SVGID_6_);}
	.st3{fill:#F5F6F6;}
	.st4{clip-path:url(#SVGID_8_);fill:url(#SVGID_9_);}
	.st5{fill:#F6F7FB;}
	.st6{fill:#E9E8E8;}
	.st7{fill:#0D4552;}
	.st8{fill:#FFFFFF;}
	.st9{fill:#7FCECD;}
	.st10{fill:#146167;}
	.st11{fill:#187677;}
	.st12{fill:#891A1A;}
	.st13{fill:#2A2C47;}
	.st14{fill:#E2D2CA;}
	.st15{fill:#EFA986;}
	.st16{fill:#434873;}
	.st17{fill:#E8744E;}
	.st18{fill:#323757;}
	.st19{fill:#252840;}
	.st20{fill:#EFAA87;}
	.st21{fill:#3B4048;}
	.st22{fill:#373B5E;}
	.st23{fill:#414767;}
	.st24{fill:#EDDAD3;}
	.st25{fill:#D0BEB8;}
	.st26{fill:#5AAFAB;}
	.st27{fill:#717171;}
	.st28{fill:#A1A0A0;}
	.st29{fill:#FAE6DD;}
	.st30{fill:#D6C5BE;}
	.st31{fill:#A77961;}
	.st32{fill:#838383;}
	.st33{fill:#D7D6D6;}
	.st34{fill:#C2C2C2;}
	.st35{clip-path:url(#SVGID_11_);fill:url(#SVGID_12_);}
	.st36{clip-path:url(#SVGID_14_);fill:url(#SVGID_15_);}
	.st37{clip-path:url(#SVGID_17_);fill:url(#SVGID_18_);}
</style>
<defs>
</defs>
<path class="st0" d="M568.8,386.4l-0.5-0.7c0,0,1.5-1.1,3.6-3l0.6,0.6C570.4,385.3,568.9,386.4,568.8,386.4 M575.8,379.9l-0.7-0.6
	c1-1.2,2-2.4,2.9-3.7l0.7,0.5C577.9,377.5,576.9,378.7,575.8,379.9 M581.2,372.1l-0.8-0.4c0.7-1.4,1.3-2.9,1.8-4.3l0.8,0.3
	C582.5,369.1,581.9,370.6,581.2,372.1 M584,362.9l-0.9-0.1c0.1-0.9,0.2-1.8,0.2-2.7c0-0.6,0-1.3-0.1-1.9l0.9-0.1
	c0.1,0.7,0.1,1.3,0.1,2C584.2,361.1,584.1,362,584,362.9 M582.4,353.6c-0.4-1.4-1-2.9-1.6-4.3l0.8-0.4c0.7,1.5,1.3,3,1.7,4.5
	L582.4,353.6z M116.3,353.6h-0.9c0.1-1.6,0.2-3.2,0.3-4.7l0.9,0.1C116.5,350.4,116.4,352,116.3,353.6 M578.4,345.3
	c-0.8-1.2-1.8-2.5-2.8-3.7l0.7-0.6c1.1,1.3,2,2.5,2.9,3.8L578.4,345.3z M116.9,344.2l-0.9-0.1c0.1-1.6,0.3-3.2,0.4-4.7l0.9,0.1
	C117.2,341,117.1,342.6,116.9,344.2 M572.4,338.1c-0.1-0.1-0.3-0.3-0.4-0.4c-1-1-2-1.9-3.1-2.7l0.5-0.7c1.1,0.9,2.2,1.8,3.2,2.8
	c0.1,0.1,0.3,0.3,0.4,0.4L572.4,338.1z M117.9,334.8l-0.9-0.1c0.2-1.6,0.4-3.1,0.6-4.7l0.9,0.1C118.3,331.7,118.1,333.2,117.9,334.8
	 M565.1,332.4c-1.3-0.8-2.7-1.5-4.2-2.1l0.4-0.8c1.5,0.7,2.9,1.4,4.2,2.2L565.1,332.4z M556.6,328.6c-1.4-0.5-2.9-0.9-4.5-1.4
	l0.2-0.8c1.6,0.4,3.1,0.9,4.5,1.4L556.6,328.6z M547.5,326.2c-1.4-0.3-2.9-0.6-4.6-0.9l0.2-0.9c1.7,0.3,3.2,0.6,4.6,0.9L547.5,326.2
	z M119.3,325.5l-0.9-0.1c0.3-1.6,0.5-3.1,0.8-4.7l0.9,0.2C119.8,322.4,119.5,323.9,119.3,325.5 M538.2,324.4l-1.4-0.3
	c-1.1-0.2-2.2-0.4-3.2-0.6l0.2-0.9c1.1,0.2,2.2,0.4,3.2,0.6l1.4,0.3L538.2,324.4z M528.9,322.7c-1.7-0.3-3.2-0.7-4.6-1l0.2-0.9
	c1.4,0.3,2.9,0.6,4.6,1L528.9,322.7z M519.7,320.5c-1.6-0.4-3.1-0.9-4.5-1.3l0.3-0.8c1.4,0.5,2.9,0.9,4.5,1.3L519.7,320.5z
	 M510.7,317.6c-1.5-0.6-3-1.2-4.4-1.9l0.4-0.8c1.4,0.7,2.8,1.3,4.3,1.9L510.7,317.6z M121.1,316.2l-0.9-0.2c0.3-1.5,0.7-3.1,1.1-4.6
	l0.9,0.2C121.7,313.1,121.4,314.7,121.1,316.2 M502.1,313.5c-1.4-0.8-2.7-1.6-4-2.5l0.5-0.7c1.3,0.9,2.6,1.7,4,2.5L502.1,313.5z
	 M494.3,308.2c-1.2-1-2.4-2-3.6-3.1l0.6-0.6c1.1,1.1,2.3,2.1,3.5,3.1L494.3,308.2z M123.3,307.1l-0.8-0.2c0.4-1.5,0.8-3.1,1.3-4.6
	l0.8,0.2C124.1,304,123.7,305.5,123.3,307.1 M487.4,301.7c-1-1.1-2.1-2.4-3.1-3.6l0.7-0.5c1,1.2,2,2.4,3,3.6L487.4,301.7z
	 M125.9,298l-0.8-0.3c0.5-1.5,1-3,1.5-4.5l0.8,0.3C126.9,295,126.4,296.5,125.9,298 M481.5,294.2c-0.9-1.3-1.7-2.6-2.6-4l0.7-0.5
	c0.8,1.4,1.7,2.7,2.5,3.9L481.5,294.2z M129,289.1l-0.8-0.3c0.6-1.5,1.1-3,1.7-4.4l0.8,0.3C130.1,286.2,129.6,287.7,129,289.1
	 M476.6,286.1c-0.7-1.4-1.4-2.8-2.1-4.2l0.8-0.4c0.7,1.4,1.4,2.8,2.1,4.2L476.6,286.1z M132.6,280.4l-0.8-0.4c0.6-1.4,1.3-2.9,2-4.3
	l0.8,0.4C133.9,277.5,133.2,279,132.6,280.4 M472.5,277.6c-0.6-1.4-1.2-2.9-1.8-4.4l0.8-0.3c0.6,1.5,1.2,3,1.7,4.4L472.5,277.6z
	 M136.6,271.9l-0.8-0.4c0.7-1.4,1.5-2.8,2.2-4.2l0.8,0.4C138.1,269.1,137.3,270.5,136.6,271.9 M469.2,268.7c-0.5-1.5-1-3-1.5-4.5
	l0.8-0.3c0.5,1.5,0.9,3,1.4,4.5L469.2,268.7z M141.1,263.6l-0.8-0.4c0.8-1.4,1.6-2.7,2.4-4.1l0.7,0.5
	C142.7,260.9,141.9,262.3,141.1,263.6 M466.4,259.7c-0.4-1.5-0.8-3-1.2-4.6l0.8-0.2c0.4,1.5,0.8,3.1,1.2,4.6L466.4,259.7z
	 M146.1,255.6l-0.7-0.5c0.9-1.3,1.8-2.6,2.7-3.9l0.7,0.5C147.9,253,147,254.3,146.1,255.6 M464.1,250.5c-0.4-1.5-0.9-3-1.4-4.4
	l0.8-0.3c0.5,1.5,1,3,1.5,4.5L464.1,250.5z M151.5,248l-0.7-0.5c0.9-1.3,1.9-2.5,2.9-3.7l0.7,0.5C153.5,245.5,152.5,246.7,151.5,248
	 M460.9,241.7c-0.6-1.4-1.3-2.8-2.1-4.2l0.8-0.4c0.8,1.4,1.5,2.8,2.1,4.3L460.9,241.7z M157.4,240.6l-0.7-0.6c1-1.2,2.1-2.4,3.1-3.6
	l0.6,0.6C159.5,238.2,158.4,239.4,157.4,240.6 M163.7,233.6l-0.6-0.6c1.1-1.1,2.2-2.3,3.3-3.4l0.6,0.6
	C165.9,231.3,164.8,232.5,163.7,233.6 M456.4,233.5c-0.8-1.3-1.7-2.6-2.6-3.9l0.7-0.5c0.9,1.3,1.8,2.6,2.7,3.9L456.4,233.5z
	 M170.4,227l-0.6-0.6c1.1-1.1,2.3-2.1,3.5-3.2l0.6,0.7C172.7,224.9,171.6,225.9,170.4,227 M450.9,225.9c-1-1.2-2-2.4-3.1-3.5
	l0.6-0.6c1.1,1.2,2.1,2.4,3.1,3.6L450.9,225.9z M177.5,220.8l-0.6-0.7c1.2-1,2.4-2,3.7-3l0.5,0.7
	C179.9,218.8,178.7,219.8,177.5,220.8 M444.6,219c-1.1-1.1-2.3-2.2-3.4-3.2l0.6-0.7c1.2,1.1,2.4,2.2,3.5,3.2L444.6,219z
	 M184.9,214.9l-0.5-0.7c1.3-0.9,2.5-1.9,3.8-2.8l0.5,0.7C187.4,213.1,186.1,214,184.9,214.9 M437.6,212.7c-1.2-1-2.4-2-3.7-2.9
	l0.5-0.7c1.3,1,2.5,1.9,3.7,2.9L437.6,212.7z M192.6,209.6l-0.5-0.7c1.3-0.9,2.6-1.7,4-2.6l0.5,0.7
	C195.2,207.8,193.9,208.7,192.6,209.6 M430,207.1c-1.3-0.9-2.6-1.8-3.9-2.6l0.5-0.7c1.3,0.9,2.7,1.7,3.9,2.6L430,207.1z
	 M200.6,204.6l-0.4-0.8c1.3-0.8,2.7-1.6,4.1-2.3l0.4,0.8C203.3,203,201.9,203.8,200.6,204.6 M422.1,202c-1.3-0.8-2.7-1.6-4.1-2.3
	l0.4-0.8c1.4,0.8,2.8,1.6,4.1,2.3L422.1,202z M208.8,200l-0.4-0.8c1.4-0.7,2.8-1.4,4.2-2.1l0.4,0.8
	C211.6,198.6,210.2,199.3,208.8,200 M413.8,197.5c-1.4-0.7-2.8-1.4-4.2-2.1l0.4-0.8c1.4,0.7,2.9,1.4,4.3,2.1L413.8,197.5z
	 M217.3,195.9l-0.4-0.8c1.4-0.7,2.9-1.3,4.3-1.9l0.3,0.8C220.1,194.6,218.7,195.2,217.3,195.9 M405.3,193.5
	c-1.4-0.6-2.9-1.2-4.3-1.8l0.3-0.8c1.5,0.6,2.9,1.2,4.4,1.8L405.3,193.5z M225.9,192.1l-0.3-0.8c1.5-0.6,2.9-1.2,4.4-1.7l0.3,0.8
	C228.8,190.9,227.4,191.5,225.9,192.1 M396.6,189.9c-1.5-0.6-2.9-1.1-4.4-1.6l0.3-0.8c1.5,0.5,3,1.1,4.5,1.6L396.6,189.9z
	 M234.7,188.8l-0.3-0.8c1.5-0.5,3-1,4.5-1.5l0.3,0.8C237.7,187.7,236.2,188.2,234.7,188.8 M387.7,186.8c-1.5-0.5-3-1-4.5-1.4
	l0.3-0.8c1.5,0.5,3,0.9,4.5,1.4L387.7,186.8z M243.7,185.8l-0.3-0.8c1.5-0.5,3-0.9,4.5-1.3l0.2,0.8
	C246.7,184.9,245.2,185.4,243.7,185.8 M378.6,184.1c-1.5-0.4-3-0.8-4.6-1.2l0.2-0.8c1.5,0.4,3.1,0.8,4.6,1.2L378.6,184.1z
	 M252.8,183.3l-0.2-0.8c1.5-0.4,3.1-0.8,4.6-1.1l0.2,0.9C255.8,182.5,254.3,182.9,252.8,183.3 M369.5,181.8c-1.5-0.4-3.1-0.7-4.6-1
	l0.2-0.9c1.5,0.3,3.1,0.7,4.6,1L369.5,181.8z M262,181.1l-0.2-0.9c1.5-0.3,3.1-0.7,4.6-1l0.2,0.9C265,180.4,263.5,180.8,262,181.1
	 M360.3,179.8c-1.5-0.3-3.1-0.6-4.6-0.8l0.1-0.9c1.6,0.3,3.1,0.5,4.7,0.8L360.3,179.8z M271.2,179.3l-0.2-0.9
	c1.5-0.3,3.1-0.5,4.7-0.8l0.1,0.9C274.3,178.8,272.7,179,271.2,179.3 M351,178.3c-1.5-0.2-3.1-0.4-4.7-0.6l0.1-0.9
	c1.6,0.2,3.1,0.4,4.7,0.6L351,178.3z M280.5,177.8l-0.1-0.9c1.6-0.2,3.1-0.4,4.7-0.6l0.1,0.9C283.6,177.4,282.1,177.6,280.5,177.8
	 M341.6,177.1c-1.6-0.2-3.1-0.3-4.7-0.5l0.1-0.9c1.6,0.1,3.1,0.3,4.7,0.5L341.6,177.1z M289.9,176.8l-0.1-0.9
	c1.6-0.2,3.1-0.3,4.7-0.4l0.1,0.9C293,176.5,291.4,176.6,289.9,176.8 M332.2,176.2c-1.6-0.1-3.1-0.2-4.7-0.3V175
	c1.6,0.1,3.2,0.2,4.7,0.3V176.2z M299.3,176l-0.1-0.9c1.6-0.1,3.1-0.2,4.7-0.2v0.9C302.4,175.9,300.8,175.9,299.3,176 M322.8,175.8
	c-1.6-0.1-3.1-0.1-4.7-0.1v-0.9c1.6,0,3.2,0.1,4.7,0.1V175.8z M308.7,175.7v-0.9c1.6,0,3.1-0.1,4.7-0.1v0.9
	C311.8,175.6,310.2,175.6,308.7,175.7"/>
<g>
	<g>
		<g>
			<defs>
				<polygon id="SVGID_1_" points="537.4,294.5 363.2,468.8 334.7,497.3 306.1,468.8 258.7,421.4 209.5,372.2 169.3,412.4 
					334.7,577.8 388.2,524.2 411.3,501.1 422.1,490.3 642,270.5 601.8,230.2 				"/>
			</defs>
			<clipPath id="SVGID_2_">
				<use xlink:href="#SVGID_1_"  style="overflow:visible;"/>
			</clipPath>
			
				<linearGradient id="SVGID_3_" gradientUnits="userSpaceOnUse" x1="-687.7282" y1="4750.7231" x2="-686.7282" y2="4750.7231" gradientTransform="matrix(-153.6059 193.4297 193.4297 153.6059 -1024040.9375 -596463.4375)">
				<stop  offset="0" style="stop-color:#891A1A"/>
				<stop  offset="1" style="stop-color:#0D4552"/>
			</linearGradient>
			<polygon class="st1" points="811.3,364.6 459.2,808 0,443.4 352.1,0 			"/>
		</g>
	</g>
</g>
<g>
	<g>
		<g>
			<defs>
				<polygon id="SVGID_4_" points="589.6,230.4 590.2,231.1 602.3,219 627.8,244.5 628.4,243.8 602.3,217.7 				"/>
			</defs>
			<clipPath id="SVGID_5_">
				<use xlink:href="#SVGID_4_"  style="overflow:visible;"/>
			</clipPath>
			
				<linearGradient id="SVGID_6_" gradientUnits="userSpaceOnUse" x1="-691.0152" y1="4768.436" x2="-690.0152" y2="4768.436" gradientTransform="matrix(38.8583 0 0 -38.8583 27441.2754 185524.4062)">
				<stop  offset="0" style="stop-color:#891A1A"/>
				<stop  offset="1" style="stop-color:#0D4552"/>
			</linearGradient>
			<rect x="589.6" y="217.7" class="st2" width="38.9" height="26.8"/>
		</g>
	</g>
</g>
<rect x="228.7" y="271.3" class="st3" width="259.7" height="160.6"/>
<g>
	<g>
		<g>
			<defs>
				<rect id="SVGID_7_" x="228.7" y="248.5" width="259.7" height="22.8"/>
			</defs>
			<clipPath id="SVGID_8_">
				<use xlink:href="#SVGID_7_"  style="overflow:visible;"/>
			</clipPath>
			
				<linearGradient id="SVGID_9_" gradientUnits="userSpaceOnUse" x1="-686.967" y1="4755.0469" x2="-685.9671" y2="4755.0469" gradientTransform="matrix(259.7184 0 0 -259.7184 178646.6875 1235233.125)">
				<stop  offset="0" style="stop-color:#891A1A"/>
				<stop  offset="1" style="stop-color:#0D4552"/>
			</linearGradient>
			<rect x="228.7" y="248.5" class="st4" width="259.7" height="22.8"/>
		</g>
	</g>
</g>
<path class="st5" d="M272.2,264.2h-28.4c-2.4,0-4.3-1.9-4.3-4.3c0-2.4,1.9-4.3,4.3-4.3h28.4c2.4,0,4.3,1.9,4.3,4.3
	C276.6,262.2,274.6,264.2,272.2,264.2"/>
<rect x="276.9" y="302.1" class="st6" width="130.9" height="4.6"/>
<rect x="276.9" y="316.9" class="st6" width="130.9" height="4.6"/>
<rect x="276.9" y="331.3" class="st6" width="130.9" height="4.6"/>
<rect x="276.9" y="346.1" class="st6" width="130.9" height="4.6"/>
<rect x="276.9" y="362.8" class="st6" width="130.9" height="4.6"/>
<rect x="276.9" y="377.7" class="st6" width="130.9" height="4.6"/>
<rect x="276.9" y="392" class="st6" width="130.9" height="4.6"/>
<rect x="276.9" y="406.9" class="st6" width="130.9" height="4.6"/>
<path class="st7" d="M256.2,316.7L256.2,316.7c5.1,0,9.3-4.2,9.3-9.3s-4.2-9.3-9.3-9.3l0,0c-5.1,0-9.3,4.2-9.3,9.3
	C246.9,312.6,251,316.7,256.2,316.7"/>
<path class="st7" d="M256.2,375L256.2,375c5.1,0,9.3-4.2,9.3-9.3s-4.2-9.3-9.3-9.3l0,0c-5.1,0-9.3,4.2-9.3,9.3l0,0
	C246.9,370.8,251,375,256.2,375"/>
<path class="st8" d="M255.5,370.2l-5.2-4.5c-0.4-0.4-0.5-1-0.1-1.4s1-0.5,1.4-0.1l3.6,3.2l5.2-5.8c0.4-0.4,1-0.5,1.4-0.1
	s0.5,1,0.1,1.4L255.5,370.2z"/>
<path class="st7" d="M256.2,345.7L256.2,345.7c5.1,0,9.3-4.2,9.3-9.3s-4.2-9.3-9.3-9.3c-5.1,0-9.3,4.2-9.3,9.3
	C246.9,341.6,251,345.7,256.2,345.7"/>
<path class="st8" d="M255.5,340.9l-5.2-4.5c-0.4-0.4-0.5-1-0.1-1.4s1-0.5,1.4-0.1l3.6,3.2l5.2-5.8c0.4-0.4,1-0.5,1.4-0.1
	s0.5,1,0.1,1.4L255.5,340.9z"/>
<path class="st7" d="M256.2,404.2L256.2,404.2c5.1,0,9.3-4.2,9.3-9.3s-4.2-9.3-9.3-9.3c-5.1,0-9.3,4.2-9.3,9.3
	C246.9,400,251,404.2,256.2,404.2"/>
<path class="st8" d="M255.5,399.4l-5.2-4.5c-0.4-0.4-0.5-1-0.1-1.4s1-0.5,1.4-0.1l3.6,3.2l5.2-5.8c0.4-0.4,1-0.5,1.4-0.1
	s0.5,1,0.1,1.4L255.5,399.4z"/>
<path class="st8" d="M254,308.9c0-0.2,0-0.5,0-0.7s0.1-0.4,0.2-0.6c0.1-0.2,0.2-0.4,0.4-0.6c0.2-0.2,0.4-0.3,0.7-0.5
	c0.1-0.1,0.3-0.2,0.5-0.3s0.4-0.3,0.7-0.4c0.2-0.2,0.4-0.3,0.6-0.5s0.2-0.4,0.2-0.7s-0.1-0.6-0.4-0.8s-0.5-0.3-0.9-0.3
	c-0.2,0-0.4,0-0.6,0.1s-0.3,0.2-0.4,0.3s-0.2,0.2-0.3,0.4c-0.1,0.1-0.2,0.3-0.3,0.4l-1.6-1.1c0.3-0.6,0.7-1.1,1.3-1.5
	c0.6-0.4,1.3-0.5,2-0.5c0.4,0,0.8,0.1,1.2,0.2c0.4,0.1,0.8,0.3,1.1,0.5c0.3,0.3,0.6,0.6,0.8,1c0.2,0.4,0.3,0.9,0.3,1.4
	c0,0.6-0.1,1.1-0.4,1.5c-0.2,0.4-0.6,0.8-1.1,1.1c-0.2,0.1-0.4,0.3-0.7,0.4c-0.2,0.1-0.4,0.2-0.6,0.4c-0.2,0.1-0.3,0.3-0.5,0.4
	c-0.1,0.2-0.2,0.3-0.2,0.6h-2L254,308.9L254,308.9z M254.1,310.4h2.1v2.4h-2.1V310.4z"/>
<path class="st3" d="M518.9,448.2H407.7c-20.9,0-37.9-17-37.9-37.9V268.9c0-20.9,17-37.9,37.9-37.9h111.2c20.9,0,37.9,17,37.9,37.9
	v141.4C556.8,431.2,539.8,448.2,518.9,448.2"/>
<path class="st9" d="M483.3,321.1c-7.2-20-26.3-32.3-46.4-31.7c-4.9,0.1-9.8,1-14.7,2.8c-14.7,5.3-25.2,16.9-29.5,30.8
	c-3,9.6-3,20.2,0.6,30.3c0.4,1,0.8,2,1.2,3c1.9,4.4,4.4,8.4,7.4,11.9c12.5,14.7,33.3,20.9,52.5,14
	C479.3,373.3,492.2,345.9,483.3,321.1 M450.4,370.9c-14.4,5.2-30,0.5-39.4-10.5c-2.2-2.6-4.1-5.6-5.6-8.9c-0.3-0.7-0.6-1.5-0.9-2.2
	c-2.7-7.6-2.7-15.6-0.5-22.7c3.2-10.4,11.1-19.1,22.1-23.1c3.6-1.3,7.3-2,11-2.1c15.1-0.5,29.4,8.8,34.8,23.8
	C478.7,343.7,469,364.2,450.4,370.9"/>
<path class="st7" d="M404.1,326.5l-11.4-3.6c4.3-13.8,14.9-25.5,29.5-30.8c4.8-1.7,9.8-2.6,14.7-2.8l0.4,12c-3.7,0.1-7.4,0.8-11,2.1
	C415.3,307.3,407.4,316.1,404.1,326.5"/>
<path class="st10" d="M405.5,351.4l-11,4.8c-0.4-1-0.8-2-1.2-3c-3.6-10.2-3.6-20.8-0.6-30.3l11.4,3.6c-2.2,7.2-2.3,15.1,0.5,22.7
	C404.9,350,405.2,350.7,405.5,351.4"/>
<path class="st11" d="M401.9,368.1c-3-3.5-5.5-7.5-7.4-11.9l11-4.8c1.4,3.3,3.3,6.3,5.6,8.9L401.9,368.1z"/>
<path class="st9" d="M524.8,350.2c-7.9-3.8-17.1-1.8-22.8,4.3c-1.4,1.5-2.6,3.2-3.5,5.1c-2.8,5.8-2.4,12.3,0.4,17.6
	c1.9,3.7,5,6.8,9.1,8.7c0.4,0.2,0.8,0.4,1.2,0.5c1.8,0.7,3.8,1.2,5.6,1.3c8,0.6,15.8-3.6,19.5-11.3
	C538.9,366.7,534.6,354.9,524.8,350.2 M529.7,374.5c-2.7,5.7-8.6,8.9-14.6,8.4c-1.4-0.1-2.8-0.4-4.2-1c-0.3-0.1-0.6-0.3-0.9-0.4
	c-3-1.4-5.3-3.8-6.8-6.5c-2.1-4-2.3-8.9-0.3-13.2c0.7-1.4,1.6-2.7,2.6-3.8c4.3-4.6,11.2-6.1,17.1-3.2
	C530.1,358.2,533.2,367.1,529.7,374.5"/>
<path class="st10" d="M503.2,375l-4.4,2.3c-2.8-5.3-3.1-11.8-0.4-17.6c0.9-1.9,2.1-3.6,3.5-5.1l3.6,3.4c-1,1.1-1.9,2.4-2.6,3.8
	C500.9,366.1,501.1,371,503.2,375"/>
<path class="st11" d="M510.9,381.9l-1.8,4.6c-0.4-0.2-0.8-0.3-1.2-0.5c-4-1.9-7.1-5-9.1-8.7l4.4-2.3c1.4,2.8,3.8,5.1,6.8,6.5
	C510.3,381.7,510.6,381.8,510.9,381.9"/>
<rect x="392.7" y="392.5" class="st9" width="33" height="4.4"/>
<rect x="473.3" y="392.5" class="st9" width="19.4" height="4.4"/>
<rect x="385.2" y="249.6" class="st9" width="15.8" height="3.4"/>
<rect x="451.1" y="262.3" class="st9" width="24.5" height="3.4"/>
<rect x="419.4" y="262.3" class="st9" width="15" height="3.4"/>
<rect x="385.2" y="262.3" class="st9" width="29.7" height="3.4"/>
<rect x="405.9" y="249.6" class="st9" width="23.4" height="3.4"/>
<rect x="439.1" y="262.3" class="st9" width="6.4" height="3.4"/>
<rect x="458.2" y="249.8" class="st9" width="17.5" height="3.4"/>
<rect x="481.9" y="262.3" class="st9" width="14.9" height="3.4"/>
<rect x="435" y="249.8" class="st9" width="18.6" height="3.4"/>
<path class="st8" d="M463.3,468.6L463.3,468.6c-13,0-23.6-10.6-23.6-23.6s10.6-23.6,23.6-23.6s23.6,10.6,23.6,23.6
	C486.9,458,476.4,468.6,463.3,468.6"/>
<rect x="461.1" y="435.5" class="st12" width="4.5" height="18.8"/>
<rect x="453.9" y="442.7" class="st12" width="18.8" height="4.5"/>
<polygon class="st13" points="209.8,452 230.7,463.5 251.8,430.4 226.3,421.6 "/>
<polygon class="st14" points="211.1,451 230.7,461.8 250.4,430.8 226.6,422.5 "/>
<path class="st15" d="M203.9,445.2c0,0,3.6-1.7,5.2-2.7c1.6-0.9,5.7-2.2,6.1-2.5c0.3-0.3,12.2-1,12.9-1.7c0.7-0.6,1.4,1.5-1.7,2.1
	s-7.4,2.3-7.6,3.5s3.2,1.5,3.5,2.5s-0.1,0.8-0.6,1s-4-1.8-5.6-1.2s-3.9-0.2-5.1,0.2s-7,2.4-7,2.4L203.9,445.2z"/>
<path class="st15" d="M231.8,459.4c0,0,3.1-2.8,4.5-3.9c1.5-1.2,4.3-4.5,4.7-4.7c0.4-0.2,5.7-11.1,6.6-11.5s-0.8-1.9-2.7,0.7
	c-1.8,2.6-5.1,6-6.3,5.8c-1.2-0.2-0.2-3.6-1-4.3s-0.8-0.2-1.2,0.2c-0.4,0.4,0.1,4.5-1.1,5.7c-1.1,1.3-1.3,3.8-2.2,4.8
	c-0.9,1-5,5.7-5,5.7L231.8,459.4z"/>
<path class="st16" d="M165.8,606.7c0,0-0.7,4.6-0.7,5.3c-0.1,0.7-7.4-0.4-7.4-0.4l-0.6-5.5C157.1,606.2,164.9,606.1,165.8,606.7"/>
<path class="st13" d="M165.1,611.5c0,0,2.3,2.8,4.5,4s5.7,1.7,7.1,2.9c1,0.9,3.5,4.8-5.8,4.7s-13.8,0.5-14.7-0.9
	c-1-1.5,1.4-11,1.4-11S159.8,611.9,165.1,611.5"/>
<path class="st16" d="M218,606.7c0,0-0.7,4.6-0.7,5.3c-0.1,0.7-7.4-0.4-7.4-0.4l-0.6-5.5C209.3,606.2,217.1,606.1,218,606.7"/>
<path class="st13" d="M217.3,611.5c0,0,2.3,2.8,4.5,4s10.5,2.2,11.8,3.5c1,0.9,2.5,4.5-10.5,4.2c-9.3-0.2-13.8,0.5-14.7-0.9
	c-1-1.5,1.4-11,1.4-11S211.9,612,217.3,611.5"/>
<path class="st13" d="M171.8,488.5c0,0-6.9,10.9-6.3,20.7c0.5,9.8-2.5,20.6-3.5,30.9c-1.1,11.5-5.8,38.6-6,44.7
	c-0.2,6.1,0.7,25.7,0.7,25.7l9.4,0.2c0,0,7.9-47.4,9.9-52.3c2-4.8,12.2-39.3,12.5-43.2C188.9,511.4,171.8,488.5,171.8,488.5"/>
<path class="st13" d="M207.9,490c0,0,5.2,27,5.8,33c0.7,6,1.1,29.1,1.5,32.9c0.3,3.8,2.3,49.2,4.1,54.8h-12c0,0-9.2-33.1-9.2-48.7
	c0-15.6-7.1-34-11.7-44.3s-15.1-10.6-18-29.7C168.4,488,204,483.9,207.9,490"/>
<path class="st15" d="M183.2,397c0,0,9.2-3.4,13.4,3.6c4.2,7,3.8,21-0.8,22.7c-4.6,1.7-11.6,0.8-14-3.6c-2.4-4.4-4.5-10.7-4.4-14.9
	C177.6,400.6,180.8,398.3,183.2,397"/>
<path class="st15" d="M194.9,423.7c0,0-0.4,2.5,0.3,3.7c0.6,1.2-11.9,1.3-11.9,1.3s-1-6.7-2.9-12.3
	C178.3,410.7,194.9,423.7,194.9,423.7"/>
<path class="st17" d="M180.3,416.3c0,0,0.9,1.4,4.4,0.9c3.5-0.6,7.8-5.3,9.3-5.8s1.5-1.4,1.5-1.4l0.9,1.3l1.6,0.1
	c0,0-1.4-4.2,0.7-5.9c2.2-1.7-2.2-13.6-13.6-9.7c0,0-8.7,2.4-8.4,7.4C177,408.2,178.3,413.9,180.3,416.3"/>
<path class="st14" d="M195.9,427.2c0,0,0-2.3-1.1-2.6c-1.1-0.2-11.7-1.2-13-0.7v2.7C181.8,426.6,184.3,428.2,195.9,427.2"/>
<path class="st15" d="M195.2,408.3c-0.2-0.8-2.3-3.2-3.1-0.7c-0.8,2.5,1.2,6,2.4,5.7C195.6,413,195.7,410.4,195.2,408.3"/>
<path class="st18" d="M238.1,454.8C238,454.8,238,454.8,238.1,454.8C238.1,454.9,238.1,454.9,238.1,454.8"/>
<path class="st10" d="M164.1,514.5c0,0,5.6,1.7,15.3,2.7c9.6,1.1,33.6-0.4,33.8-1.5c0.2-1.1-5.2-42.3-4.9-44.4
	c0.3-2.1,0.5-9.7,0.5-9.7c0.1,2.1,2.2,10.5,4.8,15.1c0.9,1.7,4,6.9,5.5,5.7c7.2-5.7,18.3-27.4,19-27.6c-0.6-0.3-5.3-2.4-5.9-2.6
	c-0.6-0.2-5.8,5.3-8.9,8.7c-1.4,1.5-2.4,2.6-2.4,2.6c-0.9-2-4.2-14.9-5.2-19.4c-2.3-10.1-2-10.5-2-10.5c-7-2.1-17.7-6.5-17.7-6.5
	l-14.1-0.6c0,0-12.9,2.8-18,5.1c-0.5,0.2-0.5,11.5-1.8,14.5l4.2,8.9c0,0,2.4,17.6,2.9,25.5C169.3,484.3,164.1,514.5,164.1,514.5"/>
<path class="st10" d="M161.4,461c0.4,1.2,2,2.2,3.1,2.6c0.7,0.3,1.5,0.4,2.3,0.2l0.6-0.1l0,0l9.7-1.8c0,0,2.1-24.3-13.2-30.2
	C163.3,431.9,158,450.1,161.4,461"/>
<path class="st19" d="M164.5,463.6L164.5,463.6c0.7,0.3,1.5,0.4,2.3,0.2l0.6-0.1l0,0l-1-12.4L164.5,463.6z"/>
<path class="st19" d="M220.8,463.5l1.2,5c0,0,1.3-5,1.2-7.6C221.8,462.4,220.8,463.5,220.8,463.5"/>
<path class="st17" d="M180.6,397.9c0,0-12.1-1.4-0.2,18.7L180.6,397.9z"/>
<polygon class="st13" points="242.1,428.6 243.3,426.5 233.7,423.2 232.4,425.3 "/>
<path class="st20" d="M361.2,453.5c0,0,1.9-1.8,1.6-3.1c-0.3-1.1,0.2-2.4,0.3-3c0.2-0.7,0.2-3,0.8-2.9c0.9,0.2,0.7,3.9,0.8,4.6
	c0.1,0.8,2.5-1.8,3.3-2c0.8-0.1,4.9,4,3.1,5.6s-4.3,2.3-4.6,2.6c-0.3,0.3-1.5,1.3-1.5,1.3L361.2,453.5z"/>
<path class="st20" d="M367.4,447.5c0,0,5.9-4.5,6.6-4.5c0.6,0,0.9,0.4,0.3,0.8c-0.5,0.4-5.6,4.5-5.6,4.5s7.9-4.2,8.4-4.3
	c0.3-0.1,0.5,0.5,0.3,0.8c-0.3,0.3-7.6,4.9-7.6,4.9s7.4-3.9,7.9-3.8c0.4,0,0.7,0.7,0.2,1.1c-0.5,0.3-7.2,4.3-7.2,4.3
	s5.6-2.5,5.9-2.2c0.2,0.2,0.5,0.6-0.9,1.2c-1.5,0.6-4.6,2.5-4.6,2.5L367.4,447.5z"/>
<path class="st21" d="M320.1,398.8c0,0,14.2-1.2,13.8,13.7c-0.4,14.9-2.7,17.1,0,27.6c2.8,10.5-13.8-6-13.8-6V398.8z"/>
<path class="st22" d="M277,621.6c0,0-5.3,7.4-4.5,8.6c0.7,1.2,6.2,1.3,9.6,0s3.4-10,5-13.7c0.6-1.6-0.7-6.2-2.6-6.5s-4,0.6-4,0.6
	S282.4,615.9,277,621.6"/>
<path class="st15" d="M280.4,610.6c0,0-1.1,3.1-1.5,6.1c-0.3,2.5-3.7,7.8-3.6,8.4c0.2,0.7,4.5,1.3,6.2-0.4c1.8-1.7,2.9-6.7,3.3-9.7
	c0.4-2.8,0.8-4.2,0.8-4.2S282.1,608.7,280.4,610.6"/>
<path class="st22" d="M322.8,621.7c0,0-5.1,7.3-4.3,8.4c0.7,1.2,6.2,1.3,9.6,0s3.4-10,5-13.7c0.6-1.6-0.7-6.1-2.6-6.5
	s-4.2,0.7-4.2,0.7S328.2,616,322.8,621.7"/>
<path class="st15" d="M326.2,610.7c0,0-0.4,3.4-1,5.9c-0.6,2.4-4.1,7.9-3.9,8.6c0.2,0.7,4.5,1.3,6.2-0.5c1.8-1.7,3.1-6.7,3.3-9.7
	c0.2-3-0.4-5-0.4-5S327.9,608.9,326.2,610.7"/>
<path class="st23" d="M300.9,490.5c0,0-4.5,21.9-5.5,27.4s-3.9,32.2-4.2,36.7c-0.3,4.5-4.7,21.6-4.5,23.3c0.2,1.6-7.1,33.8-7.1,33.8
	s5.2,0.6,7.3-0.3c1.4-0.6,12.8-29.6,12.8-37.7c0-11.2,6.3-25.8,7.2-28.4c8.9-25.1,10.6-31.1,11.8-32.6c0,0,0.2,2,0.6,5.4
	c0.5,3.9,2.6,31.8,3.6,35.5c0.9,3.7,0.2,16.1,0.7,22.4c0.5,6.3,1.5,34.9,1.5,34.9s4.7,0.2,6.7-1c0.7-0.4,3.1-30.7,3.2-38.2
	s0.2-17.7,0.4-21c1.9-30.9,6.6-35.3-0.8-57.2C320.5,452.6,300.9,490.5,300.9,490.5"/>
<polygon class="st22" points="287.2,615.8 287.2,623.5 286.3,623.5 286.3,617.6 "/>
<polygon class="st22" points="333.1,615.8 333.1,623.5 332.2,623.5 332.2,617.6 "/>
<path class="st15" d="M314.3,438.4c0,0,1.2-2.9,2.2-6.2c0-0.2,0.1-0.3,0.1-0.5c0.1-0.4,0.2-0.9,0.3-1.3c0.1-0.2,0.1-0.5,0.1-0.7
	c0.3-1.8,0.4-3.5,0-4.8c-1.4-4.1,8.6-1.2,8.6-1.2s-1.9,10.7,0,14.3C327.5,441.7,314.3,438.4,314.3,438.4"/>
<path class="st24" d="M331.2,438.2c1.1-1.4-6.7-1.9-6.7-1.9l-9.1-0.8c0,0-6.3,1-11.1,2.7c-4.9,1.7-11.2,10.9-11.2,10.9
	s8.8,20.6,10.5,26.6c1.7,5.9-1.9,21-1.9,21c10.5,5.7,31.3,0.6,31.3,0.6S324.6,446.5,331.2,438.2"/>
<path class="st25" d="M334.9,463.1c0,0-0.4,0.9-1.5,4.3c-1.1-9.6-0.5-14.5-0.5-14.5C332.9,458,334.9,463.1,334.9,463.1"/>
<path class="st15" d="M325,436l-10.7,8.7l1.1-9.2C315.4,435.6,321.6,434.2,325,436"/>
<path class="st26" d="M332.1,472.9c-1.5,6.1,6,25.3,6,25.3l-12.6,4.3c-1.6,0.5-3.2-0.5-3.5-2.1c-1.4-8-5.1-29.3-5.5-38.8
	c-0.5-11.8,8-25.6,8-25.6c15.2,2.6,11.1,25.6,11.1,25.6s-0.6,1.5-1.3,3.7l0,0c-0.2,0.6-0.4,1.2-0.6,1.9
	C333.1,468.8,332.6,470.8,332.1,472.9"/>
<path class="st26" d="M314.3,436.1l0.2-0.5c0,0-7.8,1.2-11.8,3.2S291.2,451,291.2,451l9.9,13.1c0,10.1-3.5,33.7-3.5,33.7l6.9,2.8
	c1.1,0.4,2.3-0.3,2.3-1.5c0.1-7.2,0.4-28.5,0.6-36.8c0.2-10.1,7.4-26.4,7.4-26.4C314.6,436,314.4,436,314.3,436.1"/>
<path class="st15" d="M300.1,483.3c0,0,7.5,0.3,8.6,0c1.2-0.3,8.9-3.7,9.4-7s-18,3-18,3V483.3z"/>
<polygon class="st27" points="323.4,472.9 293,469.3 306.7,480.5 "/>
<polygon class="st28" points="306.7,480.5 323.4,474.8 323.4,472.9 306.1,478.4 "/>
<polygon class="st29" points="315.9,433.9 310.2,443 307.4,444.8 313.9,435.7 "/>
<polygon class="st30" points="310.2,443 314.3,444.8 315.4,435.6 315.9,433.9 "/>
<path class="st26" d="M301.1,479c0,0-0.3,3.9,0,4.7c0,0-18.7-1.9-20.5-4.5c-1.7-2.6-1.7-5.8-1.7-5.8L301.1,479z"/>
<polygon class="st28" points="306.7,480.5 297.9,447.6 264.2,444 273.4,474.3 "/>
<path class="st26" d="M350.3,461.7c1.7-1.4,2.7-1.9,4.7-3.7c3.2-2.7,7.2-6.2,7.2-6.2l3.8,5.6c0,0-9.3,8.2-14.3,13
	c0,0-6.3,6.7-7.7,6.1c-1.4-0.6-6.4-7.8-10.4-14.8s-5.8-11.4-6-14.4s9.8-4.5,9.8-4.5l7.8,17.1c0,0,1.4,2.5,2.1,3.2
	C347.7,463.3,349.4,462.3,350.3,461.7"/>
<path class="st15" d="M321.5,400.3c-3.5-0.6-11.5,0.3-13.8,9.5c0,0,0,2.6,0.4,4.6c0.4,2.1-2.1,7.7-1.6,8c0.4,0.3,2.3,0.9,2.3,0.9
	s1.3,6.6,3.6,6.8s10.9-0.6,15.8-8.1C333.1,414.7,335.7,402.6,321.5,400.3"/>
<path class="st21" d="M307.7,409.8c0,0,5.3,4.6,10.9,6s8.6,7.7,8.6,7.7s9.9-9.9,3.9-19.4C325.1,394.5,307.7,398.8,307.7,409.8"/>
<path class="st21" d="M319.6,416.2c0,0,5.9,15.4,5.2,19.1c0,0,2.9-0.5,8.3,1.1C333.1,436.4,330.5,408.9,319.6,416.2"/>
<polygon class="st30" points="317.4,443.3 314.3,444.8 324.8,434.3 "/>
<polygon class="st29" points="324.8,434.3 317.4,443.3 321.4,446.9 325.8,436.2 "/>
<path class="st31" d="M322.7,427.4c0,0.1-1.7,2.6-6.2,4.4c0.1-0.4,0.2-0.9,0.3-1.3c0.1-0.2,0.1-0.5,0.1-0.7
	C317,429.7,320.8,428.8,322.7,427.4"/>
<path class="st32" d="M286.5,461.3c0.9,1.8,0.9,3.6,0,4.1c-1,0.5-2.5-0.5-3.4-2.3s-0.9-3.6,0-4.1C284,458.6,285.6,459.6,286.5,461.3
	"/>
<path class="st26" d="M325.8,436.2c0,0,9.8-1.3,12.7,8.9C338.5,445.1,326,443.8,325.8,436.2"/>
<polygon class="st33" points="543.9,404 574.5,386.9 564,386.2 "/>
<polygon class="st6" points="543.9,404 553.3,388.8 561.2,388.6 "/>
<polygon class="st34" points="567.5,390.8 568.1,394.6 543.9,404 "/>
</svg>
