<!-- Generator: Adobe Illustrator 24.0.0, SVG Export Plug-In  -->
<svg version="1.1" xmlns="http://www.w3.org/2000/svg" xmlns:xlink="http://www.w3.org/1999/xlink" x="0px" y="0px"
	 width="1195.3px" height="1259.7px" viewBox="0 0 1195.3 1259.7" style="enable-background:new 0 0 1195.3 1259.7;"
	 xml:space="preserve">
<style type="text/css">
	.st0{fill:#9E9E9E;}
	.st1{clip-path:url(#SVGID_2_);fill:url(#SVGID_3_);}
	.st2{clip-path:url(#SVGID_5_);fill:url(#SVGID_6_);}
	.st3{fill:#F5F6F6;}
	.st4{clip-path:url(#SVGID_8_);fill:url(#SVGID_9_);}
	.st5{fill:#F6F7FB;}
	.st6{fill:#E9E8E8;}
	.st7{fill:#0D4552;}
	.st8{fill:#FFFFFF;}
	.st9{fill:#7FCECD;}
	.st10{fill:#146167;}
	.st11{fill:#187677;}
	.st12{fill:#891A1A;}
	.st13{fill:#2A2C47;}
	.st14{fill:#E2D2CA;}
	.st15{fill:#EFA986;}
	.st16{fill:#434873;}
	.st17{fill:#E8744E;}
	.st18{fill:#323757;}
	.st19{fill:#252840;}
	.st20{fill:#EFAA87;}
	.st21{fill:#3B4048;}
	.st22{fill:#373B5E;}
	.st23{fill:#414767;}
	.st24{fill:#EDDAD3;}
	.st25{fill:#D0BEB8;}
	.st26{fill:#5AAFAB;}
	.st27{fill:#717171;}
	.st28{fill:#A1A0A0;}
	.st29{fill:#FAE6DD;}
	.st30{fill:#D6C5BE;}
	.st31{fill:#A77961;}
	.st32{fill:#838383;}
	.st33{fill:#D7D6D6;}
	.st34{fill:#C2C2C2;}
	.st35{fill:#9A1B1F;}
	.st36{fill:#E6E1DE;}
	.st37{clip-path:url(#SVGID_11_);fill:url(#SVGID_12_);}
	.st38{clip-path:url(#SVGID_14_);fill:url(#SVGID_15_);}
	.st39{clip-path:url(#SVGID_17_);fill:url(#SVGID_18_);}
</style>
<defs>
</defs>
<path class="st0" d="M568.8,838.1l-0.5-0.7c0,0,1.5-1.1,3.6-3l0.6,0.6C570.4,837,568.9,838.1,568.8,838.1 M575.8,831.6l-0.7-0.6
	c1-1.2,2-2.4,2.9-3.7l0.7,0.5C577.9,829.2,576.9,830.4,575.8,831.6 M581.2,823.8l-0.8-0.4c0.7-1.4,1.3-2.9,1.8-4.3l0.8,0.3
	C582.5,820.8,581.9,822.3,581.2,823.8 M584,814.6l-0.9-0.1c0.1-0.9,0.2-1.8,0.2-2.7c0-0.6,0-1.3-0.1-1.9l0.9-0.1
	c0.1,0.7,0.1,1.3,0.1,2C584.2,812.8,584.1,813.7,584,814.6 M582.4,805.3c-0.4-1.4-1-2.9-1.6-4.3l0.8-0.4c0.7,1.5,1.3,3,1.7,4.5
	L582.4,805.3z M116.3,805.3h-0.9c0.1-1.6,0.2-3.2,0.3-4.7l0.9,0.1C116.5,802.1,116.4,803.7,116.3,805.3 M578.4,797
	c-0.8-1.2-1.8-2.5-2.8-3.7l0.7-0.6c1.1,1.3,2,2.5,2.9,3.8L578.4,797z M116.9,795.9l-0.9-0.1c0.1-1.6,0.3-3.2,0.4-4.7l0.9,0.1
	C117.2,792.7,117.1,794.3,116.9,795.9 M572.4,789.8c-0.1-0.1-0.3-0.3-0.4-0.4c-1-1-2-1.9-3.1-2.7l0.5-0.7c1.1,0.9,2.2,1.8,3.2,2.8
	c0.1,0.1,0.3,0.3,0.4,0.4L572.4,789.8z M117.9,786.5l-0.9-0.1c0.2-1.6,0.4-3.1,0.6-4.7l0.9,0.1C118.3,783.4,118.1,784.9,117.9,786.5
	 M565.1,784.1c-1.3-0.8-2.7-1.5-4.2-2.1l0.4-0.8c1.5,0.7,2.9,1.4,4.2,2.2L565.1,784.1z M556.6,780.3c-1.4-0.5-2.9-0.9-4.5-1.4
	l0.2-0.8c1.6,0.4,3.1,0.9,4.5,1.4L556.6,780.3z M547.5,777.9c-1.4-0.3-2.9-0.6-4.6-0.9l0.2-0.9c1.7,0.3,3.2,0.6,4.6,0.9L547.5,777.9
	z M119.3,777.2l-0.9-0.1c0.3-1.6,0.5-3.1,0.8-4.7l0.9,0.2C119.8,774.1,119.5,775.6,119.3,777.2 M538.2,776.1l-1.4-0.3
	c-1.1-0.2-2.2-0.4-3.2-0.6l0.2-0.9c1.1,0.2,2.2,0.4,3.2,0.6l1.4,0.3L538.2,776.1z M528.9,774.4c-1.7-0.3-3.2-0.7-4.6-1l0.2-0.9
	c1.4,0.3,2.9,0.6,4.6,1L528.9,774.4z M519.7,772.2c-1.6-0.4-3.1-0.9-4.5-1.3l0.3-0.8c1.4,0.5,2.9,0.9,4.5,1.3L519.7,772.2z
	 M510.7,769.3c-1.5-0.6-3-1.2-4.4-1.9l0.4-0.8c1.4,0.7,2.8,1.3,4.3,1.9L510.7,769.3z M121.1,767.9l-0.9-0.2c0.3-1.5,0.7-3.1,1.1-4.6
	l0.9,0.2C121.7,764.8,121.4,766.4,121.1,767.9 M502.1,765.2c-1.4-0.8-2.7-1.6-4-2.5l0.5-0.7c1.3,0.9,2.6,1.7,4,2.5L502.1,765.2z
	 M494.3,759.9c-1.2-1-2.4-2-3.6-3.1l0.6-0.6c1.1,1.1,2.3,2.1,3.5,3.1L494.3,759.9z M123.3,758.8l-0.8-0.2c0.4-1.5,0.8-3.1,1.3-4.6
	l0.8,0.2C124.1,755.7,123.7,757.2,123.3,758.8 M487.4,753.4c-1-1.1-2.1-2.4-3.1-3.6l0.7-0.5c1,1.2,2,2.4,3,3.6L487.4,753.4z
	 M125.9,749.7l-0.8-0.3c0.5-1.5,1-3,1.5-4.5l0.8,0.3C126.9,746.7,126.4,748.2,125.9,749.7 M481.5,745.9c-0.9-1.3-1.7-2.6-2.6-4
	l0.7-0.5c0.8,1.4,1.7,2.7,2.5,3.9L481.5,745.9z M129,740.8l-0.8-0.3c0.6-1.5,1.1-3,1.7-4.4l0.8,0.3
	C130.1,737.9,129.6,739.4,129,740.8 M476.6,737.8c-0.7-1.4-1.4-2.8-2.1-4.2l0.8-0.4c0.7,1.4,1.4,2.8,2.1,4.2L476.6,737.8z
	 M132.6,732.1l-0.8-0.4c0.6-1.4,1.3-2.9,2-4.3l0.8,0.4C133.9,729.2,133.2,730.7,132.6,732.1 M472.5,729.3c-0.6-1.4-1.2-2.9-1.8-4.4
	l0.8-0.3c0.6,1.5,1.2,3,1.7,4.4L472.5,729.3z M136.6,723.6l-0.8-0.4c0.7-1.4,1.5-2.8,2.2-4.2l0.8,0.4
	C138.1,720.8,137.3,722.2,136.6,723.6 M469.2,720.4c-0.5-1.5-1-3-1.5-4.5l0.8-0.3c0.5,1.5,0.9,3,1.4,4.5L469.2,720.4z M141.1,715.3
	l-0.8-0.4c0.8-1.4,1.6-2.7,2.4-4.1l0.7,0.5C142.7,712.6,141.9,714,141.1,715.3 M466.4,711.4c-0.4-1.5-0.8-3-1.2-4.6l0.8-0.2
	c0.4,1.5,0.8,3.1,1.2,4.6L466.4,711.4z M146.1,707.3l-0.7-0.5c0.9-1.3,1.8-2.6,2.7-3.9l0.7,0.5C147.9,704.7,147,706,146.1,707.3
	 M464.1,702.2c-0.4-1.5-0.9-3-1.4-4.4l0.8-0.3c0.5,1.5,1,3,1.5,4.5L464.1,702.2z M151.5,699.7l-0.7-0.5c0.9-1.3,1.9-2.5,2.9-3.7
	l0.7,0.5C153.5,697.2,152.5,698.4,151.5,699.7 M460.9,693.4c-0.6-1.4-1.3-2.8-2.1-4.2l0.8-0.4c0.8,1.4,1.5,2.8,2.1,4.3L460.9,693.4z
	 M157.4,692.3l-0.7-0.6c1-1.2,2.1-2.4,3.1-3.6l0.6,0.6C159.5,689.9,158.4,691.1,157.4,692.3 M163.7,685.3l-0.6-0.6
	c1.1-1.1,2.2-2.3,3.3-3.4l0.6,0.6C165.9,683,164.8,684.2,163.7,685.3 M456.4,685.2c-0.8-1.3-1.7-2.6-2.6-3.9l0.7-0.5
	c0.9,1.3,1.8,2.6,2.7,3.9L456.4,685.2z M170.4,678.7l-0.6-0.6c1.1-1.1,2.3-2.1,3.5-3.2l0.6,0.7C172.7,676.6,171.6,677.6,170.4,678.7
	 M450.9,677.6c-1-1.2-2-2.4-3.1-3.5l0.6-0.6c1.1,1.2,2.1,2.4,3.1,3.6L450.9,677.6z M177.5,672.5l-0.6-0.7c1.2-1,2.4-2,3.7-3l0.5,0.7
	C179.9,670.5,178.7,671.5,177.5,672.5 M444.6,670.7c-1.1-1.1-2.3-2.2-3.4-3.2l0.6-0.7c1.2,1.1,2.4,2.2,3.5,3.2L444.6,670.7z
	 M184.9,666.6l-0.5-0.7c1.3-0.9,2.5-1.9,3.8-2.8l0.5,0.7C187.4,664.8,186.1,665.7,184.9,666.6 M437.6,664.4c-1.2-1-2.4-2-3.7-2.9
	l0.5-0.7c1.3,1,2.5,1.9,3.7,2.9L437.6,664.4z M192.6,661.3l-0.5-0.7c1.3-0.9,2.6-1.7,4-2.6l0.5,0.7
	C195.2,659.5,193.9,660.4,192.6,661.3 M430,658.8c-1.3-0.9-2.6-1.8-3.9-2.6l0.5-0.7c1.3,0.9,2.7,1.7,3.9,2.6L430,658.8z
	 M200.6,656.3l-0.4-0.8c1.3-0.8,2.7-1.6,4.1-2.3l0.4,0.8C203.3,654.7,201.9,655.5,200.6,656.3 M422.1,653.7
	c-1.3-0.8-2.7-1.6-4.1-2.3l0.4-0.8c1.4,0.8,2.8,1.6,4.1,2.3L422.1,653.7z M208.8,651.7l-0.4-0.8c1.4-0.7,2.8-1.4,4.2-2.1l0.4,0.8
	C211.6,650.3,210.2,651,208.8,651.7 M413.8,649.2c-1.4-0.7-2.8-1.4-4.2-2.1l0.4-0.8c1.4,0.7,2.9,1.4,4.3,2.1L413.8,649.2z
	 M217.3,647.6l-0.4-0.8c1.4-0.7,2.9-1.3,4.3-1.9l0.3,0.8C220.1,646.3,218.7,646.9,217.3,647.6 M405.3,645.2
	c-1.4-0.6-2.9-1.2-4.3-1.8l0.3-0.8c1.5,0.6,2.9,1.2,4.4,1.8L405.3,645.2z M225.9,643.8l-0.3-0.8c1.5-0.6,2.9-1.2,4.4-1.7l0.3,0.8
	C228.8,642.6,227.4,643.2,225.9,643.8 M396.6,641.6c-1.5-0.6-2.9-1.1-4.4-1.6l0.3-0.8c1.5,0.5,3,1.1,4.5,1.6L396.6,641.6z
	 M234.7,640.5l-0.3-0.8c1.5-0.5,3-1,4.5-1.5l0.3,0.8C237.7,639.4,236.2,639.9,234.7,640.5 M387.7,638.5c-1.5-0.5-3-1-4.5-1.4
	l0.3-0.8c1.5,0.5,3,0.9,4.5,1.4L387.7,638.5z M243.7,637.5l-0.3-0.8c1.5-0.5,3-0.9,4.5-1.3l0.2,0.8
	C246.7,636.6,245.2,637.1,243.7,637.5 M378.6,635.8c-1.5-0.4-3-0.8-4.6-1.2l0.2-0.8c1.5,0.4,3.1,0.8,4.6,1.2L378.6,635.8z
	 M252.8,635l-0.2-0.8c1.5-0.4,3.1-0.8,4.6-1.1l0.2,0.9C255.8,634.2,254.3,634.6,252.8,635 M369.5,633.5c-1.5-0.4-3.1-0.7-4.6-1
	l0.2-0.9c1.5,0.3,3.1,0.7,4.6,1L369.5,633.5z M262,632.8l-0.2-0.9c1.5-0.3,3.1-0.7,4.6-1l0.2,0.9C265,632.1,263.5,632.5,262,632.8
	 M360.3,631.5c-1.5-0.3-3.1-0.6-4.6-0.8l0.1-0.9c1.6,0.3,3.1,0.5,4.7,0.8L360.3,631.5z M271.2,631l-0.2-0.9c1.5-0.3,3.1-0.5,4.7-0.8
	l0.1,0.9C274.3,630.5,272.7,630.7,271.2,631 M351,630c-1.5-0.2-3.1-0.4-4.7-0.6l0.1-0.9c1.6,0.2,3.1,0.4,4.7,0.6L351,630z
	 M280.5,629.5l-0.1-0.9c1.6-0.2,3.1-0.4,4.7-0.6l0.1,0.9C283.6,629.1,282.1,629.3,280.5,629.5 M341.6,628.8
	c-1.6-0.2-3.1-0.3-4.7-0.5l0.1-0.9c1.6,0.1,3.1,0.3,4.7,0.5L341.6,628.8z M289.9,628.5l-0.1-0.9c1.6-0.2,3.1-0.3,4.7-0.4l0.1,0.9
	C293,628.2,291.4,628.3,289.9,628.5 M332.2,627.9c-1.6-0.1-3.1-0.2-4.7-0.3v-0.9c1.6,0.1,3.2,0.2,4.7,0.3V627.9z M299.3,627.7
	l-0.1-0.9c1.6-0.1,3.1-0.2,4.7-0.2v0.9C302.4,627.6,300.8,627.6,299.3,627.7 M322.8,627.5c-1.6-0.1-3.1-0.1-4.7-0.1v-0.9
	c1.6,0,3.2,0.1,4.7,0.1V627.5z M308.7,627.4v-0.9c1.6,0,3.1-0.1,4.7-0.1v0.9C311.8,627.3,310.2,627.3,308.7,627.4"/>
<g>
	<g>
		<g>
			<defs>
				<polygon id="SVGID_1_" points="537.4,746.2 363.2,920.5 334.7,949 306.1,920.5 258.7,873.1 209.5,823.9 169.3,864.1 
					334.7,1029.5 388.2,975.9 411.3,952.8 422.1,942 642,722.2 601.8,681.9 				"/>
			</defs>
			<clipPath id="SVGID_2_">
				<use xlink:href="#SVGID_1_"  style="overflow:visible;"/>
			</clipPath>
			
				<linearGradient id="SVGID_3_" gradientUnits="userSpaceOnUse" x1="-687.7282" y1="5202.4229" x2="-686.7282" y2="5202.4229" gradientTransform="matrix(-153.6059 193.4297 193.4297 153.6059 -1111413.125 -665395.5)">
				<stop  offset="0" style="stop-color:#891A1A"/>
				<stop  offset="1" style="stop-color:#0D4552"/>
			</linearGradient>
			<polygon class="st1" points="811.3,816.3 459.2,1259.7 0,895.1 352.1,451.7 			"/>
		</g>
	</g>
</g>
<g>
	<g>
		<g>
			<defs>
				<polygon id="SVGID_4_" points="589.6,682.1 590.2,682.8 602.3,670.7 627.8,696.2 628.4,695.5 602.3,669.4 				"/>
			</defs>
			<clipPath id="SVGID_5_">
				<use xlink:href="#SVGID_4_"  style="overflow:visible;"/>
			</clipPath>
			
				<linearGradient id="SVGID_6_" gradientUnits="userSpaceOnUse" x1="-691.0152" y1="5220.1362" x2="-690.0152" y2="5220.1362" gradientTransform="matrix(38.8583 0 0 -38.8583 27441.2754 203528.4062)">
				<stop  offset="0" style="stop-color:#891A1A"/>
				<stop  offset="1" style="stop-color:#0D4552"/>
			</linearGradient>
			<rect x="589.6" y="669.4" class="st2" width="38.9" height="26.8"/>
		</g>
	</g>
</g>
<rect x="228.7" y="723" class="st3" width="259.7" height="160.6"/>
<g>
	<g>
		<g>
			<defs>
				<rect id="SVGID_7_" x="228.7" y="700.2" width="259.7" height="22.8"/>
			</defs>
			<clipPath id="SVGID_8_">
				<use xlink:href="#SVGID_7_"  style="overflow:visible;"/>
			</clipPath>
			
				<linearGradient id="SVGID_9_" gradientUnits="userSpaceOnUse" x1="-686.967" y1="5206.7466" x2="-685.9671" y2="5206.7466" gradientTransform="matrix(259.7184 0 0 -259.7184 178646.6875 1352999.625)">
				<stop  offset="0" style="stop-color:#891A1A"/>
				<stop  offset="1" style="stop-color:#0D4552"/>
			</linearGradient>
			<rect x="228.7" y="700.2" class="st4" width="259.7" height="22.8"/>
		</g>
	</g>
</g>
<path class="st5" d="M272.2,715.9h-28.4c-2.4,0-4.3-1.9-4.3-4.3c0-2.4,1.9-4.3,4.3-4.3h28.4c2.4,0,4.3,1.9,4.3,4.3
	C276.6,713.9,274.6,715.9,272.2,715.9"/>
<rect x="276.9" y="753.8" class="st6" width="130.9" height="4.6"/>
<rect x="276.9" y="768.6" class="st6" width="130.9" height="4.6"/>
<rect x="276.9" y="783" class="st6" width="130.9" height="4.6"/>
<rect x="276.9" y="797.8" class="st6" width="130.9" height="4.6"/>
<rect x="276.9" y="814.5" class="st6" width="130.9" height="4.6"/>
<rect x="276.9" y="829.4" class="st6" width="130.9" height="4.6"/>
<rect x="276.9" y="843.7" class="st6" width="130.9" height="4.6"/>
<rect x="276.9" y="858.6" class="st6" width="130.9" height="4.6"/>
<path class="st7" d="M256.2,768.4L256.2,768.4c5.1,0,9.3-4.2,9.3-9.3s-4.2-9.3-9.3-9.3l0,0c-5.1,0-9.3,4.2-9.3,9.3
	C246.9,764.3,251,768.4,256.2,768.4"/>
<path class="st7" d="M256.2,826.7L256.2,826.7c5.1,0,9.3-4.2,9.3-9.3s-4.2-9.3-9.3-9.3l0,0c-5.1,0-9.3,4.2-9.3,9.3l0,0
	C246.9,822.5,251,826.7,256.2,826.7"/>
<path class="st8" d="M255.5,821.9l-5.2-4.5c-0.4-0.4-0.5-1-0.1-1.4s1-0.5,1.4-0.1l3.6,3.2l5.2-5.8c0.4-0.4,1-0.5,1.4-0.1
	s0.5,1,0.1,1.4L255.5,821.9z"/>
<path class="st7" d="M256.2,797.4L256.2,797.4c5.1,0,9.3-4.2,9.3-9.3s-4.2-9.3-9.3-9.3c-5.1,0-9.3,4.2-9.3,9.3
	C246.9,793.3,251,797.4,256.2,797.4"/>
<path class="st8" d="M255.5,792.6l-5.2-4.5c-0.4-0.4-0.5-1-0.1-1.4s1-0.5,1.4-0.1l3.6,3.2l5.2-5.8c0.4-0.4,1-0.5,1.4-0.1
	s0.5,1,0.1,1.4L255.5,792.6z"/>
<path class="st7" d="M256.2,855.9L256.2,855.9c5.1,0,9.3-4.2,9.3-9.3s-4.2-9.3-9.3-9.3c-5.1,0-9.3,4.2-9.3,9.3
	C246.9,851.7,251,855.9,256.2,855.9"/>
<path class="st8" d="M255.5,851.1l-5.2-4.5c-0.4-0.4-0.5-1-0.1-1.4s1-0.5,1.4-0.1l3.6,3.2l5.2-5.8c0.4-0.4,1-0.5,1.4-0.1
	s0.5,1,0.1,1.4L255.5,851.1z"/>
<path class="st8" d="M254,760.6c0-0.2,0-0.5,0-0.7s0.1-0.4,0.2-0.6c0.1-0.2,0.2-0.4,0.4-0.6c0.2-0.2,0.4-0.3,0.7-0.5
	c0.1-0.1,0.3-0.2,0.5-0.3s0.4-0.3,0.7-0.4c0.2-0.2,0.4-0.3,0.6-0.5s0.2-0.4,0.2-0.7s-0.1-0.6-0.4-0.8s-0.5-0.3-0.9-0.3
	c-0.2,0-0.4,0-0.6,0.1s-0.3,0.2-0.4,0.3s-0.2,0.2-0.3,0.4c-0.1,0.1-0.2,0.3-0.3,0.4l-1.6-1.1c0.3-0.6,0.7-1.1,1.3-1.5
	c0.6-0.4,1.3-0.5,2-0.5c0.4,0,0.8,0.1,1.2,0.2c0.4,0.1,0.8,0.3,1.1,0.5c0.3,0.3,0.6,0.6,0.8,1c0.2,0.4,0.3,0.9,0.3,1.4
	c0,0.6-0.1,1.1-0.4,1.5c-0.2,0.4-0.6,0.8-1.1,1.1c-0.2,0.1-0.4,0.3-0.7,0.4c-0.2,0.1-0.4,0.2-0.6,0.4c-0.2,0.1-0.3,0.3-0.5,0.4
	c-0.1,0.2-0.2,0.3-0.2,0.6h-2L254,760.6L254,760.6z M254.1,762.1h2.1v2.4h-2.1V762.1z"/>
<path class="st3" d="M518.9,899.9H407.7c-20.9,0-37.9-17-37.9-37.9V720.6c0-20.9,17-37.9,37.9-37.9h111.2c20.9,0,37.9,17,37.9,37.9
	V862C556.8,882.9,539.8,899.9,518.9,899.9"/>
<path class="st9" d="M483.3,772.8c-7.2-20-26.3-32.3-46.4-31.7c-4.9,0.1-9.8,1-14.7,2.8c-14.7,5.3-25.2,16.9-29.5,30.8
	c-3,9.6-3,20.2,0.6,30.3c0.4,1,0.8,2,1.2,3c1.9,4.4,4.4,8.4,7.4,11.9c12.5,14.7,33.3,20.9,52.5,14
	C479.3,825,492.2,797.6,483.3,772.8 M450.4,822.6c-14.4,5.2-30,0.5-39.4-10.5c-2.2-2.6-4.1-5.6-5.6-8.9c-0.3-0.7-0.6-1.5-0.9-2.2
	c-2.7-7.6-2.7-15.6-0.5-22.7c3.2-10.4,11.1-19.1,22.1-23.1c3.6-1.3,7.3-2,11-2.1c15.1-0.5,29.4,8.8,34.8,23.8
	C478.7,795.4,469,815.9,450.4,822.6"/>
<path class="st7" d="M404.1,778.2l-11.4-3.6c4.3-13.8,14.9-25.5,29.5-30.8c4.8-1.7,9.8-2.6,14.7-2.8l0.4,12c-3.7,0.1-7.4,0.8-11,2.1
	C415.3,759,407.4,767.8,404.1,778.2"/>
<path class="st10" d="M405.5,803.1l-11,4.8c-0.4-1-0.8-2-1.2-3c-3.6-10.2-3.6-20.8-0.6-30.3l11.4,3.6c-2.2,7.2-2.3,15.1,0.5,22.7
	C404.9,801.7,405.2,802.4,405.5,803.1"/>
<path class="st11" d="M401.9,819.8c-3-3.5-5.5-7.5-7.4-11.9l11-4.8c1.4,3.3,3.3,6.3,5.6,8.9L401.9,819.8z"/>
<path class="st9" d="M524.8,801.9c-7.9-3.8-17.1-1.8-22.8,4.3c-1.4,1.5-2.6,3.2-3.5,5.1c-2.8,5.8-2.4,12.3,0.4,17.6
	c1.9,3.7,5,6.8,9.1,8.7c0.4,0.2,0.8,0.4,1.2,0.5c1.8,0.7,3.8,1.2,5.6,1.3c8,0.6,15.8-3.6,19.5-11.3
	C538.9,818.4,534.6,806.6,524.8,801.9 M529.7,826.2c-2.7,5.7-8.6,8.9-14.6,8.4c-1.4-0.1-2.8-0.4-4.2-1c-0.3-0.1-0.6-0.3-0.9-0.4
	c-3-1.4-5.3-3.8-6.8-6.5c-2.1-4-2.3-8.9-0.3-13.2c0.7-1.4,1.6-2.7,2.6-3.8c4.3-4.6,11.2-6.1,17.1-3.2
	C530.1,809.9,533.2,818.8,529.7,826.2"/>
<path class="st10" d="M503.2,826.7l-4.4,2.3c-2.8-5.3-3.1-11.8-0.4-17.6c0.9-1.9,2.1-3.6,3.5-5.1l3.6,3.4c-1,1.1-1.9,2.4-2.6,3.8
	C500.9,817.8,501.1,822.7,503.2,826.7"/>
<path class="st11" d="M510.9,833.6l-1.8,4.6c-0.4-0.2-0.8-0.3-1.2-0.5c-4-1.9-7.1-5-9.1-8.7l4.4-2.3c1.4,2.8,3.8,5.1,6.8,6.5
	C510.3,833.4,510.6,833.5,510.9,833.6"/>
<rect x="392.7" y="844.2" class="st9" width="33" height="4.4"/>
<rect x="473.3" y="844.2" class="st9" width="19.4" height="4.4"/>
<rect x="385.2" y="701.3" class="st9" width="15.8" height="3.4"/>
<rect x="451.1" y="714" class="st9" width="24.5" height="3.4"/>
<rect x="419.4" y="714" class="st9" width="15" height="3.4"/>
<rect x="385.2" y="714" class="st9" width="29.7" height="3.4"/>
<rect x="405.9" y="701.3" class="st9" width="23.4" height="3.4"/>
<rect x="439.1" y="714" class="st9" width="6.4" height="3.4"/>
<rect x="458.2" y="701.5" class="st9" width="17.5" height="3.4"/>
<rect x="481.9" y="714" class="st9" width="14.9" height="3.4"/>
<rect x="435" y="701.5" class="st9" width="18.6" height="3.4"/>
<path class="st8" d="M463.3,920.3L463.3,920.3c-13,0-23.6-10.6-23.6-23.6s10.6-23.6,23.6-23.6s23.6,10.6,23.6,23.6
	C486.9,909.7,476.4,920.3,463.3,920.3"/>
<rect x="461.1" y="887.2" class="st12" width="4.5" height="18.8"/>
<rect x="453.9" y="894.4" class="st12" width="18.8" height="4.5"/>
<polygon class="st13" points="209.8,903.7 230.7,915.2 251.8,882.1 226.3,873.3 "/>
<polygon class="st14" points="211.1,902.7 230.7,913.5 250.4,882.5 226.6,874.2 "/>
<path class="st15" d="M203.9,896.9c0,0,3.6-1.7,5.2-2.7c1.6-0.9,5.7-2.2,6.1-2.5c0.3-0.3,12.2-1,12.9-1.7c0.7-0.6,1.4,1.5-1.7,2.1
	s-7.4,2.3-7.6,3.5s3.2,1.5,3.5,2.5s-0.1,0.8-0.6,1s-4-1.8-5.6-1.2s-3.9-0.2-5.1,0.2s-7,2.4-7,2.4L203.9,896.9z"/>
<path class="st15" d="M231.8,911.1c0,0,3.1-2.8,4.5-3.9c1.5-1.2,4.3-4.5,4.7-4.7c0.4-0.2,5.7-11.1,6.6-11.5s-0.8-1.9-2.7,0.7
	c-1.8,2.6-5.1,6-6.3,5.8c-1.2-0.2-0.2-3.6-1-4.3s-0.8-0.2-1.2,0.2c-0.4,0.4,0.1,4.5-1.1,5.7c-1.1,1.3-1.3,3.8-2.2,4.8
	c-0.9,1-5,5.7-5,5.7L231.8,911.1z"/>
<path class="st16" d="M165.8,1058.4c0,0-0.7,4.6-0.7,5.3c-0.1,0.7-7.4-0.4-7.4-0.4l-0.6-5.5C157.1,1057.9,164.9,1057.8,165.8,1058.4
	"/>
<path class="st13" d="M165.1,1063.2c0,0,2.3,2.8,4.5,4c2.2,1.2,5.7,1.7,7.1,2.9c1,0.9,3.5,4.8-5.8,4.7s-13.8,0.5-14.7-0.9
	c-1-1.5,1.4-11,1.4-11S159.8,1063.6,165.1,1063.2"/>
<path class="st16" d="M218,1058.4c0,0-0.7,4.6-0.7,5.3c-0.1,0.7-7.4-0.4-7.4-0.4l-0.6-5.5C209.3,1057.9,217.1,1057.8,218,1058.4"/>
<path class="st13" d="M217.3,1063.2c0,0,2.3,2.8,4.5,4c2.2,1.2,10.5,2.2,11.8,3.5c1,0.9,2.5,4.5-10.5,4.2
	c-9.3-0.2-13.8,0.5-14.7-0.9c-1-1.5,1.4-11,1.4-11S211.9,1063.7,217.3,1063.2"/>
<path class="st13" d="M171.8,940.2c0,0-6.9,10.9-6.3,20.7c0.5,9.8-2.5,20.6-3.5,30.9c-1.1,11.5-5.8,38.6-6,44.7
	c-0.2,6.1,0.7,25.7,0.7,25.7l9.4,0.2c0,0,7.9-47.4,9.9-52.3c2-4.8,12.2-39.3,12.5-43.2C188.9,963.1,171.8,940.2,171.8,940.2"/>
<path class="st13" d="M207.9,941.7c0,0,5.2,27,5.8,33c0.7,6,1.1,29.1,1.5,32.9c0.3,3.8,2.3,49.2,4.1,54.8h-12c0,0-9.2-33.1-9.2-48.7
	c0-15.6-7.1-34-11.7-44.3s-15.1-10.6-18-29.7C168.4,939.7,204,935.6,207.9,941.7"/>
<path class="st15" d="M183.2,848.7c0,0,9.2-3.4,13.4,3.6c4.2,7,3.8,21-0.8,22.7c-4.6,1.7-11.6,0.8-14-3.6
	c-2.4-4.4-4.5-10.7-4.4-14.9C177.6,852.3,180.8,850,183.2,848.7"/>
<path class="st15" d="M194.9,875.4c0,0-0.4,2.5,0.3,3.7c0.6,1.2-11.9,1.3-11.9,1.3s-1-6.7-2.9-12.3
	C178.3,862.4,194.9,875.4,194.9,875.4"/>
<path class="st17" d="M180.3,868c0,0,0.9,1.4,4.4,0.9c3.5-0.6,7.8-5.3,9.3-5.8s1.5-1.4,1.5-1.4l0.9,1.3l1.6,0.1c0,0-1.4-4.2,0.7-5.9
	c2.2-1.7-2.2-13.6-13.6-9.7c0,0-8.7,2.4-8.4,7.4C177,859.9,178.3,865.6,180.3,868"/>
<path class="st14" d="M195.9,878.9c0,0,0-2.3-1.1-2.6c-1.1-0.2-11.7-1.2-13-0.7v2.7C181.8,878.3,184.3,879.9,195.9,878.9"/>
<path class="st15" d="M195.2,860c-0.2-0.8-2.3-3.2-3.1-0.7c-0.8,2.5,1.2,6,2.4,5.7C195.6,864.7,195.7,862.1,195.2,860"/>
<path class="st18" d="M238.1,906.5C238,906.5,238,906.5,238.1,906.5C238.1,906.6,238.1,906.6,238.1,906.5"/>
<path class="st10" d="M164.1,966.2c0,0,5.6,1.7,15.3,2.7c9.6,1.1,33.6-0.4,33.8-1.5c0.2-1.1-5.2-42.3-4.9-44.4
	c0.3-2.1,0.5-9.7,0.5-9.7c0.1,2.1,2.2,10.5,4.8,15.1c0.9,1.7,4,6.9,5.5,5.7c7.2-5.7,18.3-27.4,19-27.6c-0.6-0.3-5.3-2.4-5.9-2.6
	c-0.6-0.2-5.8,5.3-8.9,8.7c-1.4,1.5-2.4,2.6-2.4,2.6c-0.9-2-4.2-14.9-5.2-19.4c-2.3-10.1-2-10.5-2-10.5c-7-2.1-17.7-6.5-17.7-6.5
	l-14.1-0.6c0,0-12.9,2.8-18,5.1c-0.5,0.2-0.5,11.5-1.8,14.5l4.2,8.9c0,0,2.4,17.6,2.9,25.5C169.3,936,164.1,966.2,164.1,966.2"/>
<path class="st10" d="M161.4,912.7c0.4,1.2,2,2.2,3.1,2.6c0.7,0.3,1.5,0.4,2.3,0.2l0.6-0.1l0,0l9.7-1.8c0,0,2.1-24.3-13.2-30.2
	C163.3,883.6,158,901.8,161.4,912.7"/>
<path class="st19" d="M164.5,915.3L164.5,915.3c0.7,0.3,1.5,0.4,2.3,0.2l0.6-0.1l0,0l-1-12.4L164.5,915.3z"/>
<path class="st19" d="M220.8,915.2l1.2,5c0,0,1.3-5,1.2-7.6C221.8,914.1,220.8,915.2,220.8,915.2"/>
<path class="st17" d="M180.6,849.6c0,0-12.1-1.4-0.2,18.7L180.6,849.6z"/>
<polygon class="st13" points="242.1,880.3 243.3,878.2 233.7,874.9 232.4,877 "/>
<path class="st20" d="M361.2,905.2c0,0,1.9-1.8,1.6-3.1c-0.3-1.1,0.2-2.4,0.3-3c0.2-0.7,0.2-3,0.8-2.9c0.9,0.2,0.7,3.9,0.8,4.6
	c0.1,0.8,2.5-1.8,3.3-2c0.8-0.1,4.9,4,3.1,5.6s-4.3,2.3-4.6,2.6c-0.3,0.3-1.5,1.3-1.5,1.3L361.2,905.2z"/>
<path class="st20" d="M367.4,899.2c0,0,5.9-4.5,6.6-4.5c0.6,0,0.9,0.4,0.3,0.8c-0.5,0.4-5.6,4.5-5.6,4.5s7.9-4.2,8.4-4.3
	c0.3-0.1,0.5,0.5,0.3,0.8c-0.3,0.3-7.6,4.9-7.6,4.9s7.4-3.9,7.9-3.8c0.4,0,0.7,0.7,0.2,1.1c-0.5,0.3-7.2,4.3-7.2,4.3
	s5.6-2.5,5.9-2.2c0.2,0.2,0.5,0.6-0.9,1.2c-1.5,0.6-4.6,2.5-4.6,2.5L367.4,899.2z"/>
<path class="st21" d="M320.1,850.5c0,0,14.2-1.2,13.8,13.7c-0.4,14.9-2.7,17.1,0,27.6c2.8,10.5-13.8-6-13.8-6V850.5z"/>
<path class="st22" d="M277,1073.3c0,0-5.3,7.4-4.5,8.6c0.7,1.2,6.2,1.3,9.6,0c3.4-1.3,3.4-10,5-13.7c0.6-1.6-0.7-6.2-2.6-6.5
	s-4,0.6-4,0.6S282.4,1067.6,277,1073.3"/>
<path class="st15" d="M280.4,1062.3c0,0-1.1,3.1-1.5,6.1c-0.3,2.5-3.7,7.8-3.6,8.4c0.2,0.7,4.5,1.3,6.2-0.4c1.8-1.7,2.9-6.7,3.3-9.7
	c0.4-2.8,0.8-4.2,0.8-4.2S282.1,1060.4,280.4,1062.3"/>
<path class="st22" d="M322.8,1073.4c0,0-5.1,7.3-4.3,8.4c0.7,1.2,6.2,1.3,9.6,0s3.4-10,5-13.7c0.6-1.6-0.7-6.1-2.6-6.5
	c-1.9-0.4-4.2,0.7-4.2,0.7S328.2,1067.7,322.8,1073.4"/>
<path class="st15" d="M326.2,1062.4c0,0-0.4,3.4-1,5.9c-0.6,2.4-4.1,7.9-3.9,8.6c0.2,0.7,4.5,1.3,6.2-0.5c1.8-1.7,3.1-6.7,3.3-9.7
	c0.2-3-0.4-5-0.4-5S327.9,1060.6,326.2,1062.4"/>
<path class="st23" d="M300.9,942.2c0,0-4.5,21.9-5.5,27.4s-3.9,32.2-4.2,36.7c-0.3,4.5-4.7,21.6-4.5,23.3c0.2,1.6-7.1,33.8-7.1,33.8
	s5.2,0.6,7.3-0.3c1.4-0.6,12.8-29.6,12.8-37.7c0-11.2,6.3-25.8,7.2-28.4c8.9-25.1,10.6-31.1,11.8-32.6c0,0,0.2,2,0.6,5.4
	c0.5,3.9,2.6,31.8,3.6,35.5c0.9,3.7,0.2,16.1,0.7,22.4c0.5,6.3,1.5,34.9,1.5,34.9s4.7,0.2,6.7-1c0.7-0.4,3.1-30.7,3.2-38.2
	c0.1-7.5,0.2-17.7,0.4-21c1.9-30.9,6.6-35.3-0.8-57.2C320.5,904.3,300.9,942.2,300.9,942.2"/>
<polygon class="st22" points="287.2,1067.5 287.2,1075.2 286.3,1075.2 286.3,1069.3 "/>
<polygon class="st22" points="333.1,1067.5 333.1,1075.2 332.2,1075.2 332.2,1069.3 "/>
<path class="st15" d="M314.3,890.1c0,0,1.2-2.9,2.2-6.2c0-0.2,0.1-0.3,0.1-0.5c0.1-0.4,0.2-0.9,0.3-1.3c0.1-0.2,0.1-0.5,0.1-0.7
	c0.3-1.8,0.4-3.5,0-4.8c-1.4-4.1,8.6-1.2,8.6-1.2s-1.9,10.7,0,14.3C327.5,893.4,314.3,890.1,314.3,890.1"/>
<path class="st24" d="M331.2,889.9c1.1-1.4-6.7-1.9-6.7-1.9l-9.1-0.8c0,0-6.3,1-11.1,2.7c-4.9,1.7-11.2,10.9-11.2,10.9
	s8.8,20.6,10.5,26.6c1.7,5.9-1.9,21-1.9,21c10.5,5.7,31.3,0.6,31.3,0.6S324.6,898.2,331.2,889.9"/>
<path class="st25" d="M334.9,914.8c0,0-0.4,0.9-1.5,4.3c-1.1-9.6-0.5-14.5-0.5-14.5C332.9,909.7,334.9,914.8,334.9,914.8"/>
<path class="st15" d="M325,887.7l-10.7,8.7l1.1-9.2C315.4,887.3,321.6,885.9,325,887.7"/>
<path class="st26" d="M332.1,924.6c-1.5,6.1,6,25.3,6,25.3l-12.6,4.3c-1.6,0.5-3.2-0.5-3.5-2.1c-1.4-8-5.1-29.3-5.5-38.8
	c-0.5-11.8,8-25.6,8-25.6c15.2,2.6,11.1,25.6,11.1,25.6s-0.6,1.5-1.3,3.7l0,0c-0.2,0.6-0.4,1.2-0.6,1.9
	C333.1,920.5,332.6,922.5,332.1,924.6"/>
<path class="st26" d="M314.3,887.8l0.2-0.5c0,0-7.8,1.2-11.8,3.2s-11.5,12.2-11.5,12.2l9.9,13.1c0,10.1-3.5,33.7-3.5,33.7l6.9,2.8
	c1.1,0.4,2.3-0.3,2.3-1.5c0.1-7.2,0.4-28.5,0.6-36.8c0.2-10.1,7.4-26.4,7.4-26.4C314.6,887.7,314.4,887.7,314.3,887.8"/>
<path class="st15" d="M300.1,935c0,0,7.5,0.3,8.6,0c1.2-0.3,8.9-3.7,9.4-7s-18,3-18,3V935z"/>
<polygon class="st27" points="323.4,924.6 293,921 306.7,932.2 "/>
<polygon class="st28" points="306.7,932.2 323.4,926.5 323.4,924.6 306.1,930.1 "/>
<polygon class="st29" points="315.9,885.6 310.2,894.7 307.4,896.5 313.9,887.4 "/>
<polygon class="st30" points="310.2,894.7 314.3,896.5 315.4,887.3 315.9,885.6 "/>
<path class="st26" d="M301.1,930.7c0,0-0.3,3.9,0,4.7c0,0-18.7-1.9-20.5-4.5c-1.7-2.6-1.7-5.8-1.7-5.8L301.1,930.7z"/>
<polygon class="st28" points="306.7,932.2 297.9,899.3 264.2,895.7 273.4,926 "/>
<path class="st26" d="M350.3,913.4c1.7-1.4,2.7-1.9,4.7-3.7c3.2-2.7,7.2-6.2,7.2-6.2l3.8,5.6c0,0-9.3,8.2-14.3,13
	c0,0-6.3,6.7-7.7,6.1c-1.4-0.6-6.4-7.8-10.4-14.8s-5.8-11.4-6-14.4s9.8-4.5,9.8-4.5l7.8,17.1c0,0,1.4,2.5,2.1,3.2
	C347.7,915,349.4,914,350.3,913.4"/>
<path class="st15" d="M321.5,852c-3.5-0.6-11.5,0.3-13.8,9.5c0,0,0,2.6,0.4,4.6c0.4,2.1-2.1,7.7-1.6,8c0.4,0.3,2.3,0.9,2.3,0.9
	s1.3,6.6,3.6,6.8s10.9-0.6,15.8-8.1C333.1,866.4,335.7,854.3,321.5,852"/>
<path class="st21" d="M307.7,861.5c0,0,5.3,4.6,10.9,6s8.6,7.7,8.6,7.7s9.9-9.9,3.9-19.4C325.1,846.2,307.7,850.5,307.7,861.5"/>
<path class="st21" d="M319.6,867.9c0,0,5.9,15.4,5.2,19.1c0,0,2.9-0.5,8.3,1.1C333.1,888.1,330.5,860.6,319.6,867.9"/>
<polygon class="st30" points="317.4,895 314.3,896.5 324.8,886 "/>
<polygon class="st29" points="324.8,886 317.4,895 321.4,898.6 325.8,887.9 "/>
<path class="st31" d="M322.7,879.1c0,0.1-1.7,2.6-6.2,4.4c0.1-0.4,0.2-0.9,0.3-1.3c0.1-0.2,0.1-0.5,0.1-0.7
	C317,881.4,320.8,880.5,322.7,879.1"/>
<path class="st32" d="M286.5,913c0.9,1.8,0.9,3.6,0,4.1c-1,0.5-2.5-0.5-3.4-2.3s-0.9-3.6,0-4.1C284,910.3,285.6,911.3,286.5,913"/>
<path class="st26" d="M325.8,887.9c0,0,9.8-1.3,12.7,8.9C338.5,896.8,326,895.5,325.8,887.9"/>
<polygon class="st33" points="543.9,855.7 574.5,838.6 564,837.9 "/>
<polygon class="st6" points="543.9,855.7 553.3,840.5 561.2,840.3 "/>
<polygon class="st34" points="567.5,842.5 568.1,846.3 543.9,855.7 "/>
<polygon class="st7" points="1195.3,253.2 918.1,530.4 641.2,807.4 364.3,1084.3 641.5,1084.3 918.7,807.1 1195.3,530.4 "/>
<rect x="209.1" y="380.5" class="st35" width="99.6" height="99.6"/>
<rect x="470.2" y="220.9" class="st35" width="99.6" height="99.6"/>
<rect x="730" y="340.4" class="st35" width="99.6" height="99.6"/>
<rect x="970.4" y="160.2" class="st35" width="99.6" height="99.6"/>
<rect x="469.6" y="360.4" class="st7" width="99.7" height="99.7"/>
<rect x="770.6" y="100.6" class="st7" width="99.7" height="99.7"/>
<polygon class="st36" points="249.1,340.5 209.1,380.5 269.1,380.5 269.1,440.6 309.2,400.5 309.2,340.5 "/>
<polygon class="st36" points="309.2,400.5 269.1,440.6 329.2,440.6 329.2,500.7 369.3,460.6 369.3,400.5 "/>
<polygon class="st7" points="369.3,460.6 329.2,500.7 389.3,500.7 389.3,560.8 429.3,520.7 429.3,460.6 "/>
<polygon class="st36" points="209.1,440.6 169,480.7 229.1,480.7 229.1,540.7 269.1,500.7 269.1,440.6 "/>
<polygon class="st36" points="409.4,360.4 369.3,400.6 429.5,400.6 429.5,460.8 469.6,420.6 469.6,360.4 "/>
<polygon class="st36" points="469.6,420.5 429.5,460.6 489.6,460.6 489.6,520.6 529.7,480.6 529.7,420.5 "/>
<polygon class="st36" points="529.7,480.6 489.6,520.7 549.7,520.7 549.7,580.7 589.8,540.7 589.8,480.6 "/>
<polygon class="st36" points="589.8,540.7 549.7,580.7 609.8,580.7 609.8,640.8 649.8,600.8 649.8,540.7 "/>
<polygon class="st36" points="649.8,600.8 609.8,640.8 669.9,640.8 669.9,700.9 709.9,660.9 709.9,600.8 "/>
<polygon class="st36" points="429.4,520.7 389.3,560.8 449.4,560.8 449.4,620.9 489.4,580.8 489.4,520.7 "/>
<polygon class="st36" points="509.7,320.4 469.6,360.5 529.7,360.5 529.7,420.6 569.7,380.5 569.7,320.4 "/>
<polygon class="st36" points="389.5,200.2 349.5,240.3 409.6,240.3 409.6,300.4 449.6,260.3 449.6,200.2 "/>
<polygon class="st36" points="449.6,260.3 409.6,300.4 469.6,300.4 469.6,360.5 509.7,320.4 509.7,260.3 "/>
<polygon class="st36" points="689.9,500.6 649.8,540.7 709.9,540.7 709.9,600.8 750,560.7 750,500.6 "/>
<polygon class="st36" points="569.7,380.5 529.7,420.6 589.7,420.6 589.7,480.6 629.8,440.6 629.8,380.5 "/>
<polygon class="st35" points="629.8,440.6 589.8,480.6 649.8,480.6 649.8,540.7 689.9,500.6 689.9,440.6 "/>
<polygon class="st36" points="609.8,280.4 569.8,320.4 629.9,320.4 629.9,380.5 669.9,340.4 669.9,280.4 "/>
<polygon class="st36" points="549.8,220.3 509.7,260.3 569.8,260.3 569.8,320.4 609.8,280.4 609.8,220.3 "/>
<polygon class="st36" points="790,460.6 750,500.7 810,500.7 810,560.8 850.1,520.7 850.1,460.6 "/>
<polygon class="st36" points="669.9,340.4 629.9,380.5 690,380.5 690,440.6 730,400.5 730,340.4 "/>
<polygon class="st36" points="730,400.5 689.9,440.6 750,440.6 750,500.7 790,460.6 790,400.5 "/>
<polygon class="st36" points="710,240.3 669.9,280.3 730,280.3 730,340.4 770.1,300.4 770.1,240.3 "/>
<polygon class="st7" points="649.9,180.2 609.9,220.3 669.9,220.3 669.9,280.4 710,240.3 710,180.2 "/>
<polygon class="st36" points="770.1,300.4 730,340.4 790.1,340.4 790.1,400.5 830.2,360.5 830.2,300.4 "/>
<polygon class="st36" points="830.1,360.5 790,400.5 850.1,400.5 850.1,460.6 890.2,420.6 890.2,360.5 "/>
<polygon class="st36" points="489.7,160.2 449.6,200.3 509.7,200.3 509.7,260.3 549.7,220.3 549.7,160.2 "/>
<polygon class="st36" points="529.7,60.1 489.7,100.2 549.7,100.2 549.7,160.3 589.8,120.2 589.8,60.1 "/>
<polygon class="st36" points="589.8,120.1 549.8,160.2 609.9,160.2 609.9,220.3 649.9,180.2 649.9,120.1 "/>
<polygon class="st36" points="810.2,200.2 770.1,240.3 830.2,240.3 830.2,300.4 870.2,260.3 870.2,200.2 "/>
<polygon class="st36" points="750.1,140.2 710,180.2 770.1,180.2 770.1,240.3 810.1,200.2 810.1,140.2 "/>
<polygon class="st35" points="870.2,260.3 830.2,300.4 890.3,300.4 890.3,360.5 930.3,320.4 930.3,260.3 "/>
<polygon class="st36" points="930.3,320.4 890.3,360.5 950.3,360.5 950.3,420.6 990.4,380.5 990.4,320.4 "/>
<polygon class="st36" points="629.9,20 589.8,60 649.9,60 649.9,120.1 690,80.1 690,20 "/>
<polygon class="st36" points="690,80.1 649.9,120.1 710,120.1 710,180.2 750.1,140.2 750.1,80.1 "/>
<polygon class="st36" points="1010.4,120.1 970.4,160.2 1030.4,160.2 1030.4,220.3 1070.5,180.2 1070.5,120.1 "/>
<polygon class="st36" points="950.3,60.1 910.3,100.1 970.4,100.1 970.4,160.2 1010.4,120.1 1010.4,60.1 "/>
<polygon class="st36" points="1070.5,180.2 1030.4,220.3 1090.5,220.3 1090.5,280.4 1130.6,240.3 1130.6,180.2 "/>
<polygon class="st36" points="890.3,0 850.2,40 910.3,40 910.3,100.1 950.3,60 950.3,0 "/>
<polygon class="st36" points="910.3,160.2 870.2,200.3 930.3,200.3 930.3,260.3 970.4,220.3 970.4,160.2 "/>
<polygon class="st36" points="850.2,100.1 810.1,140.2 870.2,140.2 870.2,200.3 910.3,160.2 910.3,100.1 "/>
<polygon class="st36" points="970.4,220.3 930.3,260.3 990.4,260.3 990.4,320.4 1030.5,280.4 1030.5,220.3 "/>
<polygon class="st36" points="790.1,40 750.1,80.1 810.1,80.1 810.1,140.2 850.2,100.1 850.2,40 "/>
<polygon class="st35" points="349.3,300.3 309.2,340.5 369.4,340.5 369.4,400.7 409.6,360.5 409.6,300.3 "/>
</svg>
