<svg width="70" height="70" viewBox="0 0 70 70" fill="none" xmlns="http://www.w3.org/2000/svg">
<rect width="70" height="70" rx="15" fill="#0A4551"/>
<path d="M36.7864 52.1476C41.2531 51.5792 45.3359 49.3313 48.2048 45.8608C51.0737 42.3903 52.5135 37.9577 52.2316 33.4637C51.9496 28.9698 49.967 24.7518 46.6868 21.6671C43.4066 18.5825 39.0749 16.8625 34.5721 16.857C30.0638 16.8536 25.7239 18.5693 22.4366 21.6545C19.1493 24.7397 17.1621 28.9622 16.8797 33.4616C16.5974 37.9611 18.0413 42.3989 20.9172 45.8708C23.7931 49.3427 27.8845 51.5874 32.3579 52.1476V38.9994H27.9294V34.5709H32.3579V30.9085C32.3579 27.9481 32.6679 26.8742 33.2436 25.7914C33.8107 24.7201 34.6872 23.8444 35.759 23.2783C36.6048 22.8243 37.6566 22.552 39.4944 22.4346C40.2229 22.3881 41.1661 22.4457 42.3242 22.6118V26.8188H41.2149C39.1844 26.8188 38.3452 26.914 37.8448 27.182C37.5462 27.3355 37.3031 27.5786 37.1495 27.8772C36.8838 28.3777 36.7864 28.8737 36.7864 30.9063V34.5709H42.322L41.2149 38.9994H36.7864V52.1476ZM34.5721 56.7133C22.3429 56.7133 12.4297 46.8002 12.4297 34.5709C12.4297 22.3416 22.3429 12.4285 34.5721 12.4285C46.8014 12.4285 56.7146 22.3416 56.7146 34.5709C56.7146 46.8002 46.8014 56.7133 34.5721 56.7133Z" fill="white"/>
</svg>
