<svg width="432" height="121" viewBox="0 0 432 121" fill="none" xmlns="http://www.w3.org/2000/svg">
<rect width="432" height="121" fill="white"/>
<path d="M164.05 60.3716L163.868 60.7997C162.419 63.6256 159.067 64.6532 156.622 64.6532C151.73 64.6532 147.835 60.7141 147.835 55.9186C147.835 51.7226 150.915 47.2697 156.531 47.2697C158.433 47.2697 161.966 47.7834 163.597 51.0375L163.868 51.4657L168.307 48.8967L168.126 48.4685C166.042 44.8719 161.785 42.7311 156.712 42.7311C147.654 42.7311 142.219 49.3249 142.219 55.6617C142.219 62.0842 147.925 69.0205 156.44 69.0205C160.97 69.0205 166.586 66.9653 168.488 62.9406L168.669 62.5124L164.05 60.3716Z" fill="#010101"/>
<path d="M183.978 42.8168C176.097 42.8168 169.575 48.7255 169.575 56.0043C169.575 62.3412 175.01 69.1919 183.888 69.1919C191.769 69.1919 198.2 63.2832 198.2 56.0899C198.291 49.6674 192.765 42.8168 183.978 42.8168ZM192.584 56.0043C192.584 60.2004 189.594 64.6533 183.978 64.6533C178.271 64.6533 175.282 60.2004 175.282 56.0043C175.282 51.8083 178.362 47.3553 183.978 47.3553C189.413 47.3553 192.584 51.7226 192.584 56.0043Z" fill="#010101"/>
<path d="M214.505 42.8168C206.624 42.8168 200.102 48.7255 200.102 56.0043C200.102 62.3412 205.537 69.1919 214.415 69.1919C222.296 69.1919 228.727 63.2832 228.727 56.0899C228.818 49.6674 223.292 42.8168 214.505 42.8168ZM223.111 56.0043C223.111 60.2004 220.122 64.6533 214.505 64.6533C208.798 64.6533 205.809 60.2004 205.809 56.0043C205.809 51.8083 208.889 47.3553 214.505 47.3553C219.85 47.3553 223.111 51.7226 223.111 56.0043Z" fill="#010101"/>
<path d="M246.029 53.4353H238.057V47.3553H253.729V42.988H232.532V69.0206H246.301C252.37 69.0206 256.084 66.0234 256.084 61.1423C256.084 56.3468 252.37 53.4353 246.029 53.4353ZM250.377 60.8854C250.377 63.1975 248.656 64.5677 245.667 64.5677H238.057V57.5457H245.576C248.837 57.5457 250.377 58.6589 250.377 60.8854Z" fill="#010101"/>
<path d="M293.767 64.5677V42.988H288.242V64.5677H279.364V42.988H273.748V64.5677H264.871V42.988H259.345V68.935H292.408V73.7304H297.481V64.5677H293.767Z" fill="#010101"/>
<path d="M306.63 64.5677V57.8026H319.493V53.6066H306.63V47.441H321.486V42.988H301.105V68.935H321.849V64.5677H306.63Z" fill="#010101"/>
<path d="M345.129 60.3716L344.948 60.7997C343.498 63.6256 340.147 64.6532 337.701 64.6532C332.809 64.6532 328.914 60.7141 328.914 55.9186C328.914 51.7226 331.994 47.2697 337.61 47.2697C339.513 47.2697 343.046 47.7834 344.676 51.0375L344.948 51.4657L349.386 48.8967L349.115 48.4685C347.031 44.8719 342.774 42.7311 337.701 42.7311C328.642 42.7311 323.207 49.3249 323.207 55.6617C323.207 62.0842 328.914 69.0205 337.429 69.0205C341.959 69.0205 347.575 66.9653 349.477 62.9406L349.658 62.5124L345.129 60.3716Z" fill="#010101"/>
<path d="M350.202 42.988V47.441H359.804V68.935H365.329V47.441H374.931V42.988H350.202Z" fill="#010101"/>
<path d="M396.853 55.5761C398.936 54.3773 400.205 52.2364 400.205 49.8387C400.205 46.499 397.487 42.988 393.139 42.988H377.83V69.0206H392.052C397.578 69.0206 401.473 66.1947 401.473 62.0843C401.473 59.0871 399.752 56.6894 396.853 55.5761ZM395.766 61.3136C395.766 63.1119 394.135 64.6533 392.052 64.6533H383.356V57.8882H392.324C394.226 57.8882 395.766 59.4296 395.766 61.3136ZM383.356 53.7778V47.3553H391.508C393.411 47.3553 394.77 48.7255 394.77 50.6094C394.77 52.4077 393.23 53.7778 391.327 53.7778H383.356Z" fill="#010101"/>
<path d="M417.778 42.8168C409.897 42.8168 403.375 48.7255 403.375 56.0043C403.375 62.3412 408.81 69.1919 417.688 69.1919C425.568 69.1919 432 63.2832 432 56.0899C432 49.6674 426.565 42.8168 417.778 42.8168ZM426.384 56.0043C426.384 60.2004 423.394 64.6533 417.778 64.6533C412.071 64.6533 409.082 60.2004 409.082 56.0043C409.082 51.8083 412.162 47.3553 417.778 47.3553C423.123 47.3553 426.384 51.7226 426.384 56.0043Z" fill="#010101"/>
<path d="M146.204 2.99719V29.0297H151.73V7.45013H164.412V29.0297H170.028V2.99719H146.204Z" fill="#010101"/>
<path d="M188.145 2.99719H175.554V29.0297H181.08V20.2951H188.417C194.124 20.2951 197.566 15.9278 197.566 11.6462C197.566 7.45013 193.761 2.99719 188.145 2.99719ZM191.95 11.6462C191.95 14.1295 190.319 15.8422 188.055 15.8422H181.08V7.45013H187.873C190.138 7.45013 191.95 9.24843 191.95 11.6462Z" fill="#010101"/>
<path d="M213.328 2.82581C205.447 2.82581 198.925 8.73451 198.925 16.0133C198.925 22.3502 204.36 29.2009 213.237 29.2009C221.118 29.2009 227.55 23.2922 227.55 16.099C227.64 9.67648 222.205 2.82581 213.328 2.82581ZM221.933 16.0133C221.933 20.2094 218.944 24.6623 213.328 24.6623C207.621 24.6623 204.632 20.2094 204.632 16.0133C204.632 11.8173 207.711 7.36438 213.328 7.36438C218.763 7.36438 221.933 11.8173 221.933 16.0133Z" fill="#010101"/>
<path d="M236.88 24.5768V17.8974H249.743V13.6157H236.88V7.45013H251.736V2.99719H231.354V29.0297H252.098V24.5768H236.88Z" fill="#010101"/>
<path d="M268.585 15.6709L279.545 2.99719H273.114L264.055 13.5301H261.428V2.99719H255.903V29.0297H261.428V18.0687H264.055L273.476 29.0297H280.361L268.585 15.6709Z" fill="#010101"/>
<path d="M280.361 2.99719V7.45013H289.963V29.0297H295.488V7.45013H305.09V2.99719H280.361Z" fill="#010101"/>
<path d="M327.103 2.99719V13.5301H313.515V2.99719H307.989V29.0297H313.515V17.983H327.103V29.0297H332.628V2.99719H327.103Z" fill="#010101"/>
<path d="M350.655 2.82581C342.774 2.82581 336.252 8.73451 336.252 16.0133C336.252 22.3502 341.687 29.2009 350.564 29.2009C358.445 29.2009 364.876 23.2922 364.876 16.099C364.967 9.67648 359.532 2.82581 350.655 2.82581ZM359.26 16.0133C359.26 20.2094 356.271 24.6623 350.655 24.6623C344.948 24.6623 341.959 20.2094 341.959 16.0133C341.959 11.8173 345.038 7.36438 350.655 7.36438C356.09 7.36438 359.26 11.8173 359.26 16.0133Z" fill="#010101"/>
<path d="M374.207 24.5768V17.8974H387.07V13.6157H374.207V7.45013H389.063V2.99719H368.681V29.0297H389.425V24.5768H374.207Z" fill="#010101"/>
<path d="M51.1805 0L0 48.3829H76.8161V121L127.997 72.6171V0H51.1805ZM115.043 31.5987H104.807V41.2753H94.5708V31.5987H84.3347V21.8365H94.5708V12.1599H104.807V21.8365H115.043V31.5987Z" fill="#9A1B1F"/>
</svg>
