<?xml version="1.0" encoding="utf-8"?>
<!-- Generator: Adobe Illustrator 23.0.0, SVG Export Plug-In . SVG Version: 6.00 Build 0)  -->
<svg version="1.1" id="Слой_1" xmlns="http://www.w3.org/2000/svg" xmlns:xlink="http://www.w3.org/1999/xlink" x="0px" y="0px"
	 viewBox="0 0 476.9 141.3" style="enable-background:new 0 0 476.9 141.3;" xml:space="preserve">
<style type="text/css">
	.st0{fill:#010101;}
	.st1{fill:#9A1B1F;}
</style>
<path class="st0" d="M181.1,70.5l-0.2,0.5c-1.6,3.3-5.3,4.5-8,4.5c-5.4,0-9.7-4.6-9.7-10.2c0-4.9,3.4-10.1,9.6-10.1
	c2.1,0,6,0.6,7.8,4.4l0.3,0.5l4.9-3l-0.2-0.5c-2.3-4.2-7-6.7-12.6-6.7c-10,0-16,7.7-16,15.1c0,7.5,6.3,15.6,15.7,15.6
	c5,0,11.2-2.4,13.3-7.1l0.2-0.5L181.1,70.5z"/>
<path class="st0" d="M203.1,50c-8.7,0-15.9,6.9-15.9,15.4c0,7.4,6,15.4,15.8,15.4c8.7,0,15.8-6.9,15.8-15.3
	C218.9,58,212.8,50,203.1,50 M212.6,65.4c0,4.9-3.3,10.1-9.5,10.1c-6.3,0-9.6-5.2-9.6-10.1c0-4.9,3.4-10.1,9.6-10.1
	C209.1,55.3,212.6,60.4,212.6,65.4"/>
<path class="st0" d="M236.8,50c-8.7,0-15.9,6.9-15.9,15.4c0,7.4,6,15.4,15.8,15.4c8.7,0,15.8-6.9,15.8-15.3
	C252.6,58,246.5,50,236.8,50 M246.3,65.4c0,4.9-3.3,10.1-9.5,10.1c-6.3,0-9.6-5.2-9.6-10.1c0-4.9,3.4-10.1,9.6-10.1
	C242.7,55.3,246.3,60.4,246.3,65.4"/>
<path class="st0" d="M271.6,62.4h-8.8v-7.1h17.3v-5.1h-23.4v30.4h15.2c6.7,0,10.8-3.5,10.8-9.2C282.7,65.8,278.6,62.4,271.6,62.4
	 M276.4,71.1c0,2.7-1.9,4.3-5.2,4.3h-8.4v-8.2h8.3C274.7,67.2,276.4,68.5,276.4,71.1"/>
<polygon class="st0" points="324.3,75.4 324.3,50.2 318.2,50.2 318.2,75.4 308.4,75.4 308.4,50.2 302.2,50.2 302.2,75.4 292.4,75.4 
	292.4,50.2 286.3,50.2 286.3,80.5 322.8,80.5 322.8,86.1 328.4,86.1 328.4,75.4 "/>
<polygon class="st0" points="338.5,75.4 338.5,67.5 352.7,67.5 352.7,62.6 338.5,62.6 338.5,55.4 354.9,55.4 354.9,50.2 332.4,50.2 
	332.4,80.5 355.3,80.5 355.3,75.4 "/>
<path class="st0" d="M381,70.5l-0.2,0.5c-1.6,3.3-5.3,4.5-8,4.5c-5.4,0-9.7-4.6-9.7-10.2c0-4.9,3.4-10.1,9.6-10.1
	c2.1,0,6,0.6,7.8,4.4l0.3,0.5l4.9-3l-0.3-0.5c-2.3-4.2-7-6.7-12.6-6.7c-10,0-16,7.7-16,15.1c0,7.5,6.3,15.6,15.7,15.6
	c5,0,11.2-2.4,13.3-7.1l0.2-0.5L381,70.5z"/>
<polygon class="st0" points="386.6,50.2 386.6,55.4 397.2,55.4 397.2,80.5 403.3,80.5 403.3,55.4 413.9,55.4 413.9,50.2 "/>
<path class="st0" d="M438.1,64.9c2.3-1.4,3.7-3.9,3.7-6.7c0-3.9-3-8-7.8-8h-16.9v30.4h15.7c6.1,0,10.4-3.3,10.4-8.1
	C443.2,69,441.3,66.2,438.1,64.9 M436.9,71.6c0,2.1-1.8,3.9-4.1,3.9h-9.6v-7.9h9.9C435.2,67.6,436.9,69.4,436.9,71.6 M423.2,62.8
	v-7.5h9c2.1,0,3.6,1.6,3.6,3.8c0,2.1-1.7,3.7-3.8,3.7H423.2z"/>
<path class="st0" d="M461.2,50c-8.7,0-15.9,6.9-15.9,15.4c0,7.4,6,15.4,15.8,15.4c8.7,0,15.8-6.9,15.8-15.3
	C476.9,58,470.9,50,461.2,50 M470.7,65.4c0,4.9-3.3,10.1-9.5,10.1c-6.3,0-9.6-5.2-9.6-10.1c0-4.9,3.4-10.1,9.6-10.1
	C467.1,55.3,470.7,60.4,470.7,65.4"/>
<polygon class="st0" points="161.4,3.5 161.4,33.9 167.5,33.9 167.5,8.7 181.5,8.7 181.5,33.9 187.7,33.9 187.7,3.5 "/>
<path class="st0" d="M207.7,3.5h-13.9v30.4h6.1V23.7h8.1c6.3,0,10.1-5.1,10.1-10.1C218.1,8.7,213.9,3.5,207.7,3.5 M211.9,13.6
	c0,2.9-1.8,4.9-4.3,4.9h-7.7V8.7h7.5C209.9,8.7,211.9,10.8,211.9,13.6"/>
<path class="st0" d="M235.5,3.3c-8.7,0-15.9,6.9-15.9,15.4c0,7.4,6,15.4,15.8,15.4c8.7,0,15.8-6.9,15.8-15.3
	C251.3,11.3,245.3,3.3,235.5,3.3 M245,18.7c0,4.9-3.3,10.1-9.5,10.1c-6.3,0-9.6-5.2-9.6-10.1c0-4.9,3.4-10.1,9.6-10.1
	C241.5,8.6,245,13.8,245,18.7"/>
<polygon class="st0" points="261.5,28.7 261.5,20.9 275.7,20.9 275.7,15.9 261.5,15.9 261.5,8.7 277.9,8.7 277.9,3.5 255.4,3.5 
	255.4,33.9 278.3,33.9 278.3,28.7 "/>
<polygon class="st0" points="296.5,18.3 308.6,3.5 301.5,3.5 291.5,15.8 288.6,15.8 288.6,3.5 282.5,3.5 282.5,33.9 288.6,33.9 
	288.6,21.1 291.5,21.1 301.9,33.9 309.5,33.9 "/>
<polygon class="st0" points="309.5,3.5 309.5,8.7 320.1,8.7 320.1,33.9 326.2,33.9 326.2,8.7 336.8,8.7 336.8,3.5 "/>
<polygon class="st0" points="361.1,3.5 361.1,15.8 346.1,15.8 346.1,3.5 340,3.5 340,33.9 346.1,33.9 346.1,21 361.1,21 361.1,33.9 
	367.2,33.9 367.2,3.5 "/>
<path class="st0" d="M387.1,3.3c-8.7,0-15.9,6.9-15.9,15.4c0,7.4,6,15.4,15.8,15.4c8.7,0,15.8-6.9,15.8-15.3
	C402.9,11.3,396.9,3.3,387.1,3.3 M396.6,18.7c0,4.9-3.3,10.1-9.5,10.1c-6.3,0-9.6-5.2-9.6-10.1c0-4.9,3.4-10.1,9.6-10.1
	C393.1,8.6,396.6,13.8,396.6,18.7"/>
<polygon class="st0" points="413.1,28.7 413.1,20.9 427.3,20.9 427.3,15.9 413.1,15.9 413.1,8.7 429.5,8.7 429.5,3.5 407,3.5 
	407,33.9 429.9,33.9 429.9,28.7 "/>
<path class="st1" d="M56.5,0L0,56.5h84.8v84.8l56.5-56.5V0H56.5z M127,36.9h-11.3v11.3h-11.3V36.9H93.1V25.5h11.3V14.2h11.3v11.3
	H127V36.9z"/>
</svg>
