<svg width="70" height="70" viewBox="0 0 70 70" fill="none" xmlns="http://www.w3.org/2000/svg">
<rect width="70" height="70" rx="15" fill="#9A0000"/>
<path d="M29.1344 52.2515C28.6402 52.2645 28.2066 51.9003 28.1372 51.4017C28.0635 50.8814 28.4147 50.4001 28.9263 50.3004C28.3627 47.1049 26.8235 45.3446 25.1975 43.4845C23.9315 42.0364 22.6177 40.5318 21.5815 38.3162C20.5626 36.1353 20.0032 33.8807 20.0206 31.5394C20.0423 29.198 20.6363 26.7873 21.9283 24.2943C21.937 24.2769 21.9457 24.2639 21.9543 24.2466C23.6496 21.3763 26.0213 19.4598 28.6618 18.3846C30.8774 17.4784 33.2838 17.1705 35.6425 17.3873C37.9925 17.6041 40.2948 18.3412 42.3066 19.5292C44.8647 21.0424 46.9676 23.2883 48.1252 26.124C48.7496 27.6588 49.1745 29.3715 49.2265 31.2489C49.2786 33.1176 48.9577 35.1338 48.0949 37.267C46.9416 40.1243 45.4154 41.8976 43.9889 43.5582C42.6751 45.0888 41.4525 46.5109 40.7717 48.6918C41.1576 48.7829 41.4611 49.0994 41.5218 49.5156C41.5955 50.0532 41.2183 50.5519 40.6807 50.6256L40.3468 50.6733C40.2861 51.1459 40.2471 51.6532 40.2298 52.1951L40.3382 52.1778C40.8758 52.1041 41.3744 52.4813 41.4481 53.0189C41.5218 53.5566 41.1446 54.0552 40.607 54.1289L40.2688 54.1766C40.2731 54.2416 40.2774 54.3067 40.2818 54.3717C40.3121 54.7533 40.3165 55.1218 40.2948 55.473L40.3512 55.4643C40.8931 55.3993 41.3831 55.7852 41.4525 56.3228C41.5175 56.8648 41.1316 57.3547 40.594 57.4241L39.8655 57.5152C39.3452 58.8636 38.4174 59.8868 37.3204 60.5242C36.566 60.9621 35.7292 61.2136 34.888 61.2656C34.0339 61.3177 33.1711 61.1572 32.382 60.7757C31.4801 60.3334 30.6736 59.6007 30.0883 58.5471C29.8065 58.404 29.5984 58.1265 29.555 57.7883C29.5377 57.6539 29.5507 57.5238 29.5854 57.4024C29.4163 56.8995 29.2862 56.3488 29.2081 55.7418L29.1778 55.7462C28.6402 55.8199 28.1415 55.4426 28.0678 54.905C27.9941 54.3674 28.3713 53.8688 28.909 53.795L29.1431 53.7604C29.1605 53.2314 29.1561 52.7284 29.1344 52.2515ZM38.7946 25.4909C39.0461 25.4953 39.3019 25.543 39.549 25.6253C40.0693 25.8031 40.5679 26.1456 40.9538 26.6009C41.3397 27.0605 41.6172 27.6372 41.6866 28.2789C41.7169 28.5607 41.7083 28.8512 41.6519 29.1503C41.9207 29.3975 42.1462 29.6706 42.3153 29.9655C42.5928 30.4381 42.7358 30.9627 42.7185 31.496C42.7012 32.0337 42.5277 32.5713 42.1592 33.0656C41.9381 33.3647 41.6476 33.6466 41.2834 33.9024C41.3094 34.7002 41.0709 35.4199 40.685 35.9749C40.2558 36.5949 39.6401 37.0242 38.9941 37.1586C38.838 37.7179 38.4607 38.2122 37.9838 38.5547C37.3595 39.0013 36.5443 39.2094 35.7986 39.0056C35.2869 38.8669 34.8187 38.5417 34.4805 37.9867C34.0729 38.6024 33.5353 38.9319 32.9716 39.049C32.2519 39.2007 31.5061 38.9796 30.9425 38.5417C30.5089 38.2035 30.1794 37.7309 30.0493 37.1933C29.8412 37.1759 29.6287 37.1326 29.4249 37.0632C28.9176 36.8898 28.4277 36.5602 28.0505 36.118C27.6689 35.6757 27.3871 35.1207 27.3004 34.5007C27.257 34.1929 27.2614 33.8677 27.3264 33.5382C27.0923 33.3214 26.8928 33.0786 26.7281 32.8141C26.4376 32.3415 26.2728 31.8082 26.2815 31.2575C26.2901 30.7026 26.4636 30.1432 26.8451 29.623C27.0576 29.3325 27.3394 29.055 27.6906 28.7992C27.6863 28.7124 27.6863 28.6257 27.6906 28.5433C27.721 27.7369 28.0158 27.0301 28.445 26.5055C28.4581 26.4925 28.4667 26.4795 28.4797 26.4665C28.909 25.9592 29.4683 25.621 30.0493 25.5213C30.071 25.4432 30.0926 25.3695 30.1187 25.2915C30.3224 24.7452 30.7343 24.2769 31.2416 23.9821C31.7533 23.6829 32.3689 23.5528 32.9673 23.6786C33.5049 23.7913 34.0209 24.0991 34.4198 24.6628C34.8187 24.0991 35.3346 23.7913 35.8723 23.6786C36.4186 23.5658 36.9779 23.6612 37.4592 23.904C37.9318 24.1425 38.3393 24.5284 38.5865 24.988C38.6819 25.1527 38.7512 25.3175 38.7946 25.4909ZM38.9594 35.9012C39.2282 35.7885 39.4883 35.5717 39.6878 35.2812C39.9696 34.8693 40.13 34.3186 40.052 33.6986L40.0477 33.6813V33.6683C40.0173 33.4341 40.1257 33.1913 40.3425 33.0612C40.7197 32.8401 40.9929 32.5973 41.1836 32.3372C41.3917 32.051 41.4958 31.7518 41.5045 31.457C41.5132 31.1578 41.4264 30.8587 41.2617 30.5768C41.1099 30.3167 40.8931 30.0782 40.6286 29.8744C40.4032 29.727 40.2991 29.4408 40.3902 29.172C40.4812 28.9032 40.5029 28.6474 40.4769 28.4003C40.4335 28.0187 40.2644 27.6675 40.026 27.3813C39.7832 27.0952 39.4753 26.8827 39.1631 26.7743C39.0287 26.731 38.8943 26.705 38.7686 26.705C38.6732 26.9911 38.5171 27.2773 38.283 27.5548C38.0662 27.8106 37.6846 27.8453 37.4288 27.6285C37.173 27.4117 37.1383 27.0301 37.3551 26.7743C37.7107 26.3538 37.715 25.9115 37.5285 25.569C37.3985 25.3262 37.1817 25.1224 36.9259 24.9967C36.6787 24.8709 36.4012 24.8189 36.1368 24.8752C35.7509 24.9533 35.378 25.2785 35.1352 25.9549V36.2307C35.1829 36.3001 35.2132 36.3781 35.2262 36.4692C35.365 37.319 35.7249 37.7266 36.1281 37.8393C36.501 37.9434 36.9345 37.8176 37.2814 37.5705C37.6196 37.3277 37.8624 36.9765 37.8667 36.6079C37.8711 36.1874 37.5502 35.7061 36.6961 35.2682C36.3969 35.1164 36.2755 34.7479 36.4273 34.4487C36.579 34.1495 36.9476 34.0281 37.2467 34.1799C38.2136 34.6698 38.7426 35.2812 38.9594 35.9012ZM30.1057 26.7613C29.8585 26.8437 29.6157 27.0128 29.4119 27.2469C29.4033 27.2599 29.3946 27.2686 29.3859 27.2773C29.1084 27.6155 28.922 28.0664 28.9003 28.5867C28.896 28.7254 28.9003 28.8729 28.922 29.0246C28.9523 29.2544 28.8483 29.4929 28.6402 29.6273C28.2759 29.8527 28.0071 30.0956 27.8207 30.3514C27.5952 30.6549 27.4955 30.9757 27.4912 31.2792C27.4868 31.5914 27.5822 31.8992 27.7557 32.1811C27.9031 32.4195 28.1025 32.6363 28.3497 32.8184C28.5708 32.9702 28.6705 33.252 28.5838 33.5165C28.4884 33.8027 28.4667 34.0802 28.5014 34.3403C28.5534 34.7132 28.7269 35.0514 28.9653 35.3289C29.2038 35.6064 29.503 35.8101 29.8108 35.9142C29.9105 35.9489 30.0103 35.9706 30.1057 35.9792C30.3268 35.3332 30.8818 34.6958 31.892 34.1799C32.1912 34.0281 32.5554 34.1452 32.7115 34.4444C32.8632 34.7435 32.7462 35.1077 32.447 35.2638C31.5408 35.7234 31.2026 36.2437 31.2026 36.6946C31.2026 37.0372 31.4021 37.3624 31.6926 37.5878C31.9874 37.8176 32.3689 37.9347 32.7245 37.861C33.1711 37.7699 33.6046 37.345 33.8344 36.4172C33.8475 36.3565 33.8735 36.3001 33.9038 36.2481V26.4882C33.8908 26.4665 33.8778 26.4405 33.8648 26.4145L33.8605 26.4058L33.8561 26.3971L33.8518 26.3884V26.3841V26.3798L33.8475 26.3711V26.3668V26.3624C33.8431 26.3451 33.8388 26.3277 33.8344 26.3104C33.6046 25.3869 33.1711 24.9663 32.7245 24.8752C32.434 24.8145 32.1218 24.8839 31.8573 25.04C31.5885 25.1961 31.3717 25.4389 31.2677 25.7164C31.1332 26.0806 31.2156 26.5315 31.6796 26.9608C31.9267 27.1906 31.9397 27.5721 31.7142 27.8193C31.4844 28.0664 31.1029 28.0794 30.8557 27.8539C30.4785 27.4984 30.2357 27.1299 30.1057 26.7613ZM30.2314 28.7688C30.4699 28.5347 30.8558 28.5347 31.0942 28.7775C31.3284 29.0159 31.3284 29.4018 31.0855 29.6403C30.665 30.0522 30.4438 30.5898 30.4222 31.1318C30.4005 31.6955 30.5826 32.2765 30.9685 32.7534C31.1809 33.0135 31.1376 33.3994 30.8774 33.6076C30.6173 33.82 30.2314 33.7766 30.0233 33.5165C29.4466 32.8011 29.1735 31.9339 29.2081 31.0841C29.2385 30.2386 29.5767 29.4105 30.2314 28.7688ZM37.5025 29.4105C37.2294 29.2111 37.1687 28.8338 37.3681 28.5607C37.5676 28.2875 37.9448 28.2268 38.2179 28.4263C38.322 28.5043 38.4217 28.5824 38.5128 28.6647C39.1978 29.2848 39.5751 30.0999 39.6444 30.9454C39.7138 31.7822 39.4797 32.645 38.9507 33.3691C38.942 33.3821 38.929 33.3994 38.916 33.4124C38.8423 33.5122 38.7686 33.5989 38.6992 33.6813C38.4738 33.9327 38.0879 33.9501 37.8364 33.7246C37.5849 33.4992 37.5676 33.1133 37.793 32.8618C37.8494 32.7968 37.8971 32.7404 37.9405 32.684C37.9491 32.671 37.9535 32.6623 37.9621 32.6493C38.3133 32.1637 38.4694 31.5914 38.4261 31.0364C38.3827 30.4901 38.1399 29.9655 37.6976 29.5666C37.6369 29.5146 37.5719 29.4625 37.5025 29.4105ZM10.9457 33.5208C10.4385 33.5338 10.0179 33.1393 10.0005 32.632C9.9832 32.1247 10.3821 31.7041 10.8894 31.6868L14.6615 31.5567C15.1688 31.5394 15.5894 31.9383 15.6067 32.4456C15.6241 32.9528 15.2252 33.3734 14.7179 33.3908L10.9457 33.5208ZM57.9892 29.7877C58.4921 29.7357 58.9431 30.1042 58.9951 30.6072C59.0471 31.1101 58.6786 31.5611 58.1756 31.6131L54.4208 32.0076C53.9179 32.0597 53.467 31.6911 53.4149 31.1882C53.3629 30.6852 53.7314 30.2343 54.2344 30.1823L57.9892 29.7877ZM51.1516 14.4086C51.4335 13.9881 52.0015 13.8753 52.422 14.1571C52.8426 14.439 52.9553 15.007 52.6735 15.4275L50.575 18.5667C50.2932 18.9872 49.7252 19.1 49.3046 18.8181C48.884 18.5363 48.7713 17.9683 49.0531 17.5477L51.1516 14.4086ZM34.9878 8.89348C35.0008 8.3862 35.4213 7.9873 35.9243 8.00031C36.4316 8.01332 36.8305 8.43389 36.8175 8.93684L36.7221 12.709C36.7091 13.2163 36.2885 13.6152 35.7856 13.6022C35.2783 13.5892 34.8794 13.1686 34.8924 12.6656L34.9878 8.89348ZM16.0186 14.7338C15.6458 14.3869 15.6284 13.8059 15.9709 13.4374C16.3178 13.0645 16.8988 13.0472 17.2673 13.3897L20.0293 15.9652C20.4021 16.312 20.4195 16.893 20.0769 17.2616C19.7301 17.6345 19.1491 17.6518 18.7805 17.3093L16.0186 14.7338ZM30.7604 50.0359L38.7773 48.8999C39.4667 45.9949 40.9668 44.2476 42.5928 42.3615C43.9282 40.8093 45.3503 39.153 46.3909 36.5776C47.154 34.6915 47.4359 32.9225 47.3925 31.2922C47.3491 29.6663 46.9763 28.1661 46.4213 26.809C45.424 24.368 43.5987 22.4255 41.3744 21.1074C39.5924 20.0538 37.5589 19.3991 35.482 19.2127C33.4139 19.0219 31.3023 19.2951 29.3556 20.0885C27.0749 21.0207 25.0241 22.677 23.5499 25.1701C22.4053 27.39 21.8763 29.5146 21.859 31.5567C21.8416 33.6119 22.3402 35.602 23.2464 37.5401C24.1699 39.5172 25.4013 40.9221 26.5807 42.2748C28.4147 44.3777 30.1534 46.3678 30.7604 50.0359ZM38.4521 50.9334L30.9641 51.9957C30.9858 52.4726 30.9945 52.9712 30.9858 53.5002L38.3784 52.4509C38.387 51.9176 38.4087 51.4104 38.4521 50.9334ZM31.0248 55.486C31.0769 55.8849 31.1549 56.2491 31.2546 56.5873L38.4304 55.7028C38.4781 55.3299 38.4868 54.9354 38.4521 54.5148V54.5061L38.4477 54.4324L31.0248 55.486ZM32.2736 58.4517C32.551 58.7422 32.8589 58.9677 33.1841 59.1237C33.6827 59.3666 34.2333 59.4663 34.7753 59.4359C35.3303 59.4012 35.8896 59.2321 36.3969 58.9373C36.8738 58.6598 37.3031 58.2739 37.6456 57.7883L32.2736 58.4517Z" fill="white"/>
</svg>
