<svg width="24" height="27" viewBox="0 0 20 23" fill="none" xmlns="http://www.w3.org/2000/svg">
<path d="M8.12256 17.3818C7.93029 17.3869 7.76164 17.2452 7.73466 17.0512C7.70599 16.8489 7.84259 16.6616 8.04161 16.6229C7.82236 15.3799 7.22364 14.6952 6.59119 13.9716C6.09872 13.4083 5.5877 12.8231 5.18462 11.9613C4.78829 11.113 4.57073 10.236 4.57747 9.32524C4.5859 8.41451 4.81696 7.4768 5.31955 6.50705C5.32292 6.5003 5.32629 6.49524 5.32966 6.4885C5.9891 5.37201 6.91163 4.62657 7.93873 4.20831C8.80054 3.85582 9.73657 3.73608 10.654 3.8204C11.5681 3.90473 12.4637 4.19144 13.2462 4.65355C14.2413 5.24215 15.0593 6.11577 15.5096 7.21876C15.7524 7.81579 15.9177 8.48197 15.9379 9.21224C15.9582 9.93914 15.8334 10.7234 15.4978 11.5531C15.0491 12.6646 14.4555 13.3544 13.9006 14.0003C13.3896 14.5956 12.914 15.1488 12.6492 15.9972C12.7993 16.0326 12.9174 16.1557 12.941 16.3176C12.9696 16.5267 12.8229 16.7207 12.6138 16.7493L12.4839 16.7679C12.4603 16.9517 12.4451 17.1491 12.4384 17.3599L12.4806 17.3531C12.6897 17.3245 12.8836 17.4712 12.9123 17.6803C12.941 17.8894 12.7942 18.0834 12.5851 18.1121L12.4536 18.1306C12.4553 18.1559 12.4569 18.1812 12.4586 18.2065C12.4704 18.3549 12.4721 18.4983 12.4637 18.6349L12.4856 18.6315C12.6964 18.6062 12.887 18.7563 12.914 18.9654C12.9393 19.1763 12.7892 19.3668 12.5801 19.3938L12.2967 19.4292C12.0943 19.9538 11.7334 20.3518 11.3067 20.5997C11.0133 20.77 10.6878 20.8679 10.3606 20.8881C10.0283 20.9083 9.69272 20.8459 9.38577 20.6975C9.03497 20.5255 8.72128 20.2405 8.4936 19.8306C8.38397 19.775 8.30302 19.667 8.28615 19.5355C8.27941 19.4832 8.28447 19.4326 8.29796 19.3854C8.23218 19.1898 8.18159 18.9756 8.15123 18.7395L8.13942 18.7411C7.93029 18.7698 7.73634 18.6231 7.70767 18.414C7.679 18.2048 7.82573 18.0109 8.03486 17.9822L8.12593 17.9687C8.13268 17.763 8.13099 17.5673 8.12256 17.3818ZM11.8801 6.97253C11.978 6.97422 12.0775 6.99277 12.1736 7.02481C12.376 7.09396 12.5699 7.2272 12.72 7.40428C12.8701 7.58305 12.9781 7.80736 13.0051 8.05697C13.0169 8.16659 13.0135 8.27959 12.9916 8.39596C13.0961 8.49209 13.1838 8.59834 13.2496 8.71303C13.3575 8.89686 13.4132 9.10093 13.4065 9.30837C13.3997 9.5175 13.3323 9.72663 13.1889 9.9189C13.1029 10.0353 12.9899 10.1449 12.8482 10.2444C12.8583 10.5547 12.7656 10.8347 12.6155 11.0506C12.4485 11.2917 12.209 11.4587 11.9577 11.511C11.897 11.7285 11.7503 11.9208 11.5648 12.054C11.3219 12.2278 11.0048 12.3087 10.7148 12.2294C10.5157 12.1755 10.3336 12.049 10.2021 11.8331C10.0435 12.0726 9.83439 12.2008 9.61514 12.2463C9.33517 12.3053 9.04509 12.2193 8.82584 12.049C8.65719 11.9174 8.52901 11.7336 8.47842 11.5245C8.39746 11.5177 8.31482 11.5009 8.23556 11.4739C8.03823 11.4064 7.84765 11.2782 7.70093 11.1062C7.55251 10.9342 7.44289 10.7183 7.40916 10.4771C7.39229 10.3574 7.39398 10.2309 7.41928 10.1027C7.3282 10.0184 7.25062 9.92396 7.18653 9.82108C7.07354 9.63725 7.00945 9.4298 7.01282 9.21561C7.01619 8.99974 7.08366 8.78218 7.23207 8.57979C7.31471 8.46679 7.42433 8.35886 7.56094 8.25935C7.55926 8.22562 7.55926 8.19189 7.56094 8.15985C7.57275 7.84615 7.68743 7.57125 7.8544 7.36718C7.85946 7.36212 7.86283 7.35706 7.86789 7.352C8.03486 7.15467 8.25242 7.02313 8.47842 6.98433C8.48685 6.95398 8.49528 6.92531 8.5054 6.89495C8.58467 6.68245 8.74489 6.5003 8.94221 6.38562C9.14122 6.26925 9.38071 6.21865 9.61345 6.26756C9.82258 6.31141 10.0233 6.43115 10.1784 6.6504C10.3336 6.43115 10.5343 6.31141 10.7434 6.26756C10.9559 6.22371 11.1735 6.26081 11.3607 6.35526C11.5445 6.44802 11.7031 6.59812 11.7992 6.77689C11.8363 6.84098 11.8633 6.90507 11.8801 6.97253ZM11.9442 11.0219C12.0488 10.978 12.15 10.8937 12.2276 10.7807C12.3372 10.6205 12.3996 10.4063 12.3692 10.1651L12.3676 10.1584V10.1533C12.3558 10.0623 12.3979 9.96781 12.4822 9.91721C12.629 9.8312 12.7352 9.73675 12.8094 9.63556C12.8904 9.52425 12.9309 9.40788 12.9342 9.29319C12.9376 9.17682 12.9039 9.06045 12.8398 8.95083C12.7808 8.84964 12.6964 8.75688 12.5936 8.67761C12.5059 8.62027 12.4654 8.50896 12.5008 8.40439C12.5362 8.29983 12.5446 8.20032 12.5345 8.10419C12.5177 7.95578 12.4519 7.81917 12.3591 7.70786C12.2647 7.59655 12.1449 7.51391 12.0235 7.47174C11.9712 7.45488 11.9189 7.44476 11.87 7.44476C11.8329 7.55607 11.7722 7.66738 11.6811 7.77532C11.5968 7.87482 11.4484 7.88832 11.3489 7.80399C11.2494 7.71966 11.2359 7.57125 11.3202 7.47174C11.4585 7.30815 11.4602 7.13612 11.3877 7.00289C11.3371 6.90844 11.2528 6.82917 11.1533 6.78026C11.0571 6.73136 10.9492 6.71112 10.8463 6.73304C10.6962 6.7634 10.5512 6.88989 10.4567 7.15299V11.1501C10.4753 11.177 10.4871 11.2074 10.4921 11.2428C10.5461 11.5734 10.6861 11.7319 10.8429 11.7758C10.988 11.8162 11.1566 11.7673 11.2915 11.6712C11.4231 11.5768 11.5175 11.4401 11.5192 11.2968C11.5209 11.1332 11.3961 10.946 11.0639 10.7757C10.9475 10.7166 10.9003 10.5733 10.9593 10.4569C11.0183 10.3405 11.1617 10.2933 11.2781 10.3523C11.6542 10.5429 11.8599 10.7807 11.9442 11.0219ZM8.50034 7.46668C8.40421 7.49873 8.30976 7.5645 8.2305 7.65557C8.22712 7.66063 8.22375 7.66401 8.22038 7.66738C8.11244 7.79893 8.03992 7.97433 8.03149 8.17671C8.0298 8.23068 8.03149 8.28802 8.03992 8.34705C8.05172 8.43644 8.01125 8.5292 7.93029 8.58148C7.78863 8.66918 7.68406 8.76362 7.61154 8.86313C7.52384 8.98119 7.48505 9.10599 7.48336 9.22405C7.48168 9.34548 7.51878 9.46522 7.58624 9.57485C7.64358 9.66761 7.72116 9.75193 7.8173 9.82277C7.90331 9.88179 7.9421 9.99142 7.90837 10.0943C7.87127 10.2056 7.86283 10.3135 7.87632 10.4147C7.89656 10.5598 7.96403 10.6913 8.05678 10.7993C8.14954 10.9072 8.26591 10.9865 8.38566 11.0269C8.42445 11.0404 8.46324 11.0489 8.50034 11.0522C8.58635 10.801 8.80223 10.553 9.19519 10.3523C9.31156 10.2933 9.45323 10.3388 9.51395 10.4552C9.57298 10.5716 9.52744 10.7133 9.41107 10.774C9.05858 10.9527 8.92703 11.1551 8.92703 11.3305C8.92703 11.4638 9.00461 11.5902 9.11761 11.6779C9.2323 11.7673 9.38071 11.8129 9.51901 11.7842C9.69272 11.7488 9.86137 11.5835 9.95076 11.2226C9.95582 11.199 9.96594 11.177 9.97774 11.1568V7.36043C9.97268 7.352 9.96762 7.34188 9.96256 7.33176L9.96088 7.32839L9.95919 7.32501L9.9575 7.32164V7.31995V7.31827L9.95582 7.31489V7.31321V7.31152C9.95413 7.30478 9.95244 7.29803 9.95076 7.29128C9.86137 6.93205 9.69272 6.76846 9.51901 6.73304C9.40601 6.70943 9.28458 6.73641 9.1817 6.79713C9.07714 6.85785 8.99281 6.95229 8.95233 7.06023C8.90005 7.2019 8.93209 7.3773 9.11255 7.54426C9.20868 7.63365 9.21374 7.78206 9.12604 7.8782C9.03666 7.97433 8.88824 7.97939 8.79211 7.89169C8.64538 7.75339 8.55094 7.61004 8.50034 7.46668ZM8.54925 8.24755C8.64201 8.15647 8.79211 8.15647 8.88487 8.25092C8.97594 8.34368 8.97594 8.49378 8.8815 8.58654C8.7179 8.74676 8.63189 8.95589 8.62346 9.16671C8.61503 9.38595 8.68586 9.61195 8.83596 9.79747C8.9186 9.89866 8.90174 10.0488 8.80054 10.1297C8.69935 10.2124 8.54925 10.1955 8.4683 10.0943C8.24399 9.81602 8.13774 9.47871 8.15123 9.14815C8.16303 8.81928 8.29458 8.49715 8.54925 8.24755ZM11.3776 8.49715C11.2713 8.41957 11.2477 8.27284 11.3253 8.16659C11.4029 8.06034 11.5496 8.03673 11.6558 8.11431C11.6963 8.14467 11.7351 8.17502 11.7705 8.20707C12.037 8.44824 12.1837 8.76531 12.2107 9.09418C12.2377 9.41968 12.1466 9.7553 11.9409 10.037C11.9375 10.042 11.9324 10.0488 11.9274 10.0538C11.8987 10.0926 11.87 10.1263 11.843 10.1584C11.7553 10.2562 11.6052 10.263 11.5074 10.1753C11.4096 10.0876 11.4029 9.93745 11.4906 9.83963C11.5125 9.81433 11.531 9.79241 11.5479 9.77048C11.5513 9.76542 11.553 9.76205 11.5563 9.75699C11.6929 9.5681 11.7537 9.34548 11.7368 9.1296C11.7199 8.9171 11.6255 8.71303 11.4535 8.55787C11.4298 8.53763 11.4045 8.51739 11.3776 8.49715ZM1.04756 10.096C0.850239 10.101 0.686646 9.94757 0.679899 9.75025C0.673153 9.55292 0.828314 9.38933 1.02564 9.38258L2.49292 9.33199C2.69024 9.32524 2.85384 9.4804 2.86058 9.67772C2.86733 9.87505 2.71217 10.0386 2.51484 10.0454L1.04756 10.096ZM19.3464 8.64388C19.5421 8.62364 19.7175 8.767 19.7377 8.96264C19.7579 9.15827 19.6146 9.33367 19.4189 9.35391L17.9584 9.50738C17.7628 9.52762 17.5874 9.38427 17.5671 9.18863C17.5469 8.99299 17.6902 8.81759 17.8859 8.79736L19.3464 8.64388ZM16.6868 2.66176C16.7964 2.49816 17.0173 2.45431 17.1809 2.56394C17.3445 2.67356 17.3884 2.8945 17.2787 3.05809L16.4625 4.27914C16.3528 4.44273 16.1319 4.48658 15.9683 4.37696C15.8047 4.26733 15.7609 4.0464 15.8705 3.88281L16.6868 2.66176ZM10.3994 0.516491C10.4044 0.319167 10.568 0.164006 10.7637 0.169066C10.961 0.174125 11.1161 0.337719 11.1111 0.533356L11.074 2.00064C11.0689 2.19796 10.9053 2.35312 10.7097 2.34806C10.5124 2.343 10.3572 2.17941 10.3623 1.98377L10.3994 0.516491ZM3.0208 2.78825C2.87576 2.65332 2.86902 2.42733 3.00225 2.28397C3.13717 2.13893 3.36317 2.13219 3.50652 2.26542L4.58084 3.26722C4.72589 3.40214 4.73263 3.62814 4.5994 3.77149C4.46447 3.91654 4.23848 3.92328 4.09512 3.79005L3.0208 2.78825ZM8.75501 16.52L11.8734 16.0781C12.1416 14.9481 12.7251 14.2685 13.3575 13.5348C13.877 12.931 14.4302 12.2868 14.835 11.285C15.1318 10.5513 15.2414 9.86324 15.2245 9.22911C15.2077 8.59666 15.0626 8.01312 14.8468 7.48523C14.4589 6.53572 13.7488 5.78015 12.8836 5.26745C12.1905 4.85762 11.3995 4.60295 10.5916 4.53043C9.78716 4.45623 8.96582 4.56248 8.20857 4.87111C7.32146 5.23372 6.52373 5.87797 5.95031 6.84773C5.50506 7.71123 5.29931 8.53763 5.29256 9.33199C5.28581 10.1314 5.47977 10.9055 5.83225 11.6594C6.19148 12.4285 6.67046 12.9749 7.12919 13.5011C7.84259 14.3191 8.51889 15.0932 8.75501 16.52ZM11.7469 16.8691L8.83427 17.2823C8.84271 17.4678 8.84608 17.6618 8.84271 17.8675L11.7182 17.4594C11.7216 17.2519 11.73 17.0546 11.7469 16.8691ZM8.85789 18.6399C8.87812 18.7951 8.90848 18.9368 8.94727 19.0683L11.7385 18.7243C11.757 18.5792 11.7604 18.4258 11.7469 18.2622V18.2588L11.7452 18.2301L8.85789 18.6399ZM9.34361 19.7935C9.45154 19.9065 9.57129 19.9942 9.69778 20.0549C9.89173 20.1494 10.1059 20.1882 10.3167 20.1764C10.5326 20.1629 10.7502 20.0971 10.9475 19.9824C11.133 19.8745 11.3 19.7244 11.4332 19.5355L9.34361 19.7935Z" fill="#525252"/>
</svg>
