<svg width="190" height="190" viewBox="0 0 190 190" fill="none" xmlns="http://www.w3.org/2000/svg">
<circle cx="95" cy="95" r="93.5" fill="white" stroke="black" stroke-width="3"/>
<circle cx="94.5" cy="95.5" r="85" fill="white" stroke="black"/>
<ellipse cx="95.0832" cy="108.478" rx="16.0957" ry="43.6883" fill="#EFF245"/>
<ellipse cx="95.8498" cy="143.736" rx="10.7305" ry="17.6286" fill="#EFF245"/>
<ellipse cx="95.8498" cy="88.5504" rx="33.7243" ry="36.0237" fill="#EFF245"/>
<circle cx="105.814" cy="87.0175" r="8.43107" fill="#FFA0A0"/>
<ellipse cx="100.449" cy="87.0175" rx="9.19753" ry="17.6286" fill="#FFA0A0"/>
<ellipse cx="106.58" cy="87.0175" rx="4.59876" ry="13.0298" fill="#FFA0A0"/>
<circle r="8.43107" transform="matrix(-1 0 0 1 84.3529 87.0175)" fill="#FFA0A0"/>
<ellipse rx="9.19753" ry="17.6286" transform="matrix(-1 0 0 1 89.718 87.0175)" fill="#FFA0A0"/>
<ellipse rx="4.59876" ry="13.0298" transform="matrix(-1 0 0 1 83.5863 87.0175)" fill="#FFA0A0"/>
<path d="M81.4869 140.134C80.2344 140.167 79.1357 139.244 78.9599 137.98C78.7731 136.662 79.6631 135.442 80.9595 135.19C79.5312 127.092 75.6309 122.632 71.5107 117.918C68.3025 114.249 64.9735 110.436 62.3476 104.822C59.7657 99.2953 58.3483 93.5821 58.3923 87.6491C58.4472 81.7161 59.9524 75.6074 63.2266 69.2898C63.2485 69.2459 63.2705 69.2129 63.2925 69.169C67.5884 61.8956 73.5983 57.0394 80.2893 54.3146C85.9037 52.0183 92.0015 51.2382 97.9784 51.7876C103.933 52.3369 109.767 54.2047 114.865 57.2152C121.348 61.0496 126.676 66.7409 129.61 73.9264C131.192 77.8157 132.269 82.1556 132.401 86.913C132.532 91.6483 131.719 96.7573 129.533 102.163C126.61 109.403 122.743 113.897 119.128 118.105C115.799 121.983 112.701 125.587 110.976 131.114C111.954 131.344 112.723 132.146 112.877 133.201C113.063 134.563 112.108 135.827 110.745 136.014L109.899 136.135C109.745 137.332 109.647 138.618 109.603 139.991L109.877 139.947C111.24 139.76 112.503 140.716 112.69 142.079C112.877 143.441 111.921 144.704 110.558 144.891L109.701 145.012C109.712 145.177 109.723 145.342 109.734 145.507C109.811 146.473 109.822 147.407 109.767 148.297L109.91 148.275C111.284 148.11 112.525 149.088 112.701 150.451C112.866 151.824 111.888 153.066 110.526 153.241L108.68 153.472C107.361 156.889 105.01 159.482 102.23 161.097C100.319 162.207 98.1981 162.844 96.0666 162.976C93.9022 163.108 91.7158 162.701 89.7162 161.734C87.4309 160.614 85.3873 158.757 83.9041 156.087C83.1899 155.724 82.6625 155.021 82.5527 154.164C82.5087 153.824 82.5417 153.494 82.6296 153.186C82.2011 151.912 81.8715 150.517 81.6737 148.978L81.5968 148.989C80.2344 149.176 78.9709 148.22 78.7841 146.858C78.5973 145.496 79.5532 144.232 80.9156 144.045L81.5089 143.957C81.5528 142.617 81.5419 141.342 81.4869 140.134ZM105.966 72.3223C106.603 72.3332 107.251 72.4541 107.878 72.6628C109.196 73.1133 110.46 73.9813 111.437 75.1349C112.415 76.2995 113.118 77.7608 113.294 79.3869C113.371 80.101 113.349 80.8372 113.206 81.5953C113.888 82.2215 114.459 82.9137 114.887 83.6608C115.59 84.8584 115.953 86.1878 115.909 87.5392C115.865 88.9016 115.426 90.264 114.492 91.5165C113.931 92.2746 113.195 92.9888 112.272 93.637C112.338 95.6586 111.734 97.4824 110.756 98.8888C109.669 100.46 108.108 101.548 106.471 101.888C106.076 103.306 105.12 104.558 103.911 105.426C102.329 106.558 100.264 107.085 98.3739 106.569C97.0774 106.217 95.8908 105.393 95.0339 103.987C94.0011 105.547 92.6387 106.382 91.2104 106.679C89.3866 107.063 87.4968 106.503 86.0685 105.393C84.9698 104.536 84.1348 103.338 83.8052 101.976C83.2778 101.932 82.7394 101.822 82.223 101.646C80.9376 101.207 79.696 100.372 78.7402 99.2513C77.7733 98.1307 77.0592 96.7243 76.8394 95.1532C76.7296 94.3731 76.7405 93.5491 76.9053 92.7141C76.312 92.1647 75.8067 91.5495 75.3891 90.8793C74.653 89.6817 74.2355 88.3303 74.2575 86.9349C74.2795 85.5286 74.7189 84.1113 75.6858 82.7928C76.2242 82.0567 76.9383 81.3535 77.8283 80.7053C77.8173 80.4856 77.8173 80.2658 77.8283 80.0571C77.9052 78.0135 78.6523 76.2226 79.74 74.8932C79.7729 74.8602 79.7949 74.8273 79.8279 74.7943C80.9156 73.5088 82.3329 72.6519 83.8052 72.3992C83.8601 72.2014 83.915 72.0146 83.981 71.8169C84.4973 70.4325 85.5411 69.2459 86.8266 68.4988C88.1231 67.7407 89.6832 67.4111 91.1994 67.7297C92.5618 68.0154 93.8692 68.7954 94.88 70.2237C95.8909 68.7954 97.1983 68.0154 98.5607 67.7297C99.945 67.444 101.362 67.6857 102.582 68.301C103.779 68.9053 104.812 69.8831 105.439 71.0478C105.68 71.4653 105.856 71.8828 105.966 72.3223ZM106.383 98.702C107.065 98.4163 107.724 97.867 108.229 97.1308C108.943 96.0871 109.35 94.6917 109.152 93.1206L109.141 93.0767V93.0437C109.064 92.4504 109.339 91.8351 109.888 91.5055C110.844 90.9452 111.536 90.3299 112.02 89.6707C112.547 88.9455 112.811 88.1874 112.833 87.4403C112.855 86.6822 112.635 85.9241 112.217 85.21C111.833 84.5508 111.284 83.9465 110.613 83.4301C110.042 83.0565 109.778 82.3314 110.009 81.6502C110.24 80.969 110.295 80.3208 110.229 79.6945C110.119 78.7277 109.69 77.8377 109.086 77.1126C108.471 76.3874 107.691 75.8491 106.9 75.5744C106.559 75.4645 106.219 75.3986 105.9 75.3986C105.658 76.1237 105.263 76.8489 104.669 77.5521C104.12 78.2003 103.153 78.2882 102.505 77.7388C101.857 77.1895 101.769 76.2226 102.318 75.5744C103.219 74.5087 103.23 73.388 102.758 72.52C102.428 71.9048 101.879 71.3884 101.231 71.0697C100.604 70.7511 99.9011 70.6193 99.2309 70.7621C98.253 70.9599 97.3082 71.7839 96.6929 73.4979V99.537C96.8138 99.7128 96.8907 99.9106 96.9236 100.141C97.2752 102.295 98.1871 103.327 99.2089 103.613C100.154 103.877 101.252 103.558 102.131 102.932C102.988 102.317 103.604 101.427 103.615 100.493C103.626 99.4271 102.813 98.2076 100.648 97.0979C99.8901 96.7133 99.5825 95.7794 99.967 95.0213C100.352 94.2632 101.285 93.9556 102.044 94.3402C104.494 95.5817 105.834 97.1308 106.383 98.702ZM83.948 75.5414C83.3217 75.7502 82.7065 76.1787 82.1901 76.772C82.1681 76.8049 82.1461 76.8269 82.1242 76.8489C81.421 77.7059 80.9486 78.8485 80.8936 80.167C80.8826 80.5185 80.8936 80.8921 80.9486 81.2766C81.0255 81.859 80.7618 82.4632 80.2344 82.8038C79.3115 83.3752 78.6303 83.9904 78.1579 84.6387C77.5865 85.4077 77.3338 86.2208 77.3229 86.9899C77.3119 87.7809 77.5536 88.561 77.9931 89.2752C78.3666 89.8794 78.872 90.4288 79.4983 90.8903C80.0586 91.2748 80.3113 91.9889 80.0916 92.6591C79.8499 93.3843 79.7949 94.0875 79.8828 94.7467C80.0147 95.6916 80.4541 96.5485 81.0584 97.2517C81.6627 97.9549 82.4208 98.4713 83.2009 98.7349C83.4536 98.8228 83.7063 98.8778 83.948 98.8997C84.5083 97.2627 85.9147 95.6476 88.4746 94.3402C89.2327 93.9556 90.1556 94.2523 90.5512 95.0104C90.9357 95.7685 90.6391 96.6914 89.881 97.0869C87.5847 98.2515 86.7277 99.57 86.7277 100.713C86.7277 101.581 87.2331 102.405 87.9692 102.976C88.7163 103.558 89.6832 103.855 90.5841 103.668C91.7158 103.437 92.8145 102.361 93.3968 100.009C93.4298 99.8556 93.4957 99.7128 93.5726 99.5809V74.8493C93.5396 74.7943 93.5067 74.7284 93.4737 74.6625L93.4627 74.6405L93.4517 74.6185L93.4407 74.5966V74.5856V74.5746L93.4298 74.5526V74.5416V74.5306C93.4188 74.4867 93.4078 74.4427 93.3968 74.3988C92.8145 72.0586 91.7158 70.9928 90.5841 70.7621C89.848 70.6083 89.0569 70.7841 88.3867 71.1796C87.7056 71.5751 87.1562 72.1904 86.8925 72.8936C86.5519 73.8165 86.7607 74.9591 87.9363 76.0468C88.5625 76.6291 88.5955 77.596 88.0242 78.2223C87.4419 78.8485 86.475 78.8815 85.8487 78.3102C84.8929 77.4092 84.2776 76.4753 83.948 75.5414ZM84.2666 80.6284C84.8709 80.0351 85.8488 80.0351 86.453 80.6504C87.0463 81.2547 87.0463 82.2325 86.4311 82.8368C85.3653 83.8806 84.805 85.2429 84.75 86.6163C84.6951 88.0446 85.1566 89.5169 86.1344 90.7254C86.6728 91.3847 86.5629 92.3625 85.9037 92.8899C85.2445 93.4282 84.2666 93.3184 83.7393 92.6591C82.278 90.8463 81.5858 88.6489 81.6737 86.4955C81.7506 84.353 82.6076 82.2545 84.2666 80.6284ZM102.692 82.2545C102 81.7491 101.846 80.7932 102.351 80.101C102.857 79.4089 103.812 79.255 104.505 79.7604C104.768 79.9582 105.021 80.156 105.252 80.3647C106.988 81.9359 107.944 84.0014 108.119 86.1439C108.295 88.2644 107.702 90.4508 106.361 92.2856C106.339 92.3186 106.307 92.3625 106.274 92.3955C106.087 92.6482 105.9 92.8679 105.724 93.0767C105.153 93.7139 104.175 93.7579 103.538 93.1865C102.901 92.6152 102.857 91.6374 103.428 91.0001C103.571 90.8353 103.692 90.6925 103.801 90.5496C103.823 90.5167 103.834 90.4947 103.856 90.4618C104.746 89.2312 105.142 87.7809 105.032 86.3746C104.922 84.9902 104.307 83.6608 103.186 82.65C103.032 82.5182 102.868 82.3863 102.692 82.2545ZM35.3965 92.6701C34.1111 92.7031 33.0453 91.7033 33.0014 90.4178C32.9574 89.1323 33.9682 88.0666 35.2537 88.0226L44.8124 87.693C46.0979 87.6491 47.1636 88.6599 47.2075 89.9454C47.2515 91.2308 46.2407 92.2966 44.9552 92.3405L35.3965 92.6701ZM154.605 83.2104C155.88 83.0785 157.022 84.0124 157.154 85.2869C157.286 86.5614 156.352 87.704 155.078 87.8359L145.563 88.8357C144.288 88.9675 143.146 88.0336 143.014 86.7591C142.882 85.4847 143.816 84.342 145.091 84.2102L154.605 83.2104ZM137.279 44.2395C137.993 43.1738 139.432 42.8881 140.498 43.6023C141.564 44.3164 141.849 45.7557 141.135 46.8215L135.818 54.7761C135.103 55.8418 133.664 56.1274 132.598 55.4133C131.533 54.6991 131.247 53.2598 131.961 52.1941L137.279 44.2395ZM96.3193 30.2641C96.3523 28.9786 97.418 27.9678 98.6925 28.0008C99.978 28.0337 100.989 29.0995 100.956 30.374L100.714 39.9326C100.681 41.2181 99.6154 42.2289 98.3409 42.196C97.0555 42.163 96.0447 41.0973 96.0776 39.8228L96.3193 30.2641ZM48.2513 45.0636C47.3064 44.1846 47.2625 42.7123 48.1305 41.7785C49.0094 40.8336 50.4817 40.7896 51.4156 41.6576L58.4143 48.1839C59.3591 49.0628 59.4031 50.5351 58.5351 51.469C57.6562 52.4138 56.1839 52.4578 55.25 51.5898L48.2513 45.0636ZM85.607 134.52L105.922 131.641C107.669 124.28 111.47 119.852 115.59 115.073C118.974 111.139 122.578 106.942 125.215 100.416C127.149 95.6366 127.863 91.1539 127.753 87.0228C127.643 82.9027 126.698 79.1012 125.292 75.6623C122.765 69.4766 118.139 64.5545 112.503 61.2144C107.988 58.5446 102.835 56.8855 97.5719 56.4131C92.3311 55.9297 86.9804 56.6219 82.0473 58.6325C76.2681 60.9947 71.0713 65.1917 67.3357 71.5092C64.4351 77.1345 63.0947 82.5182 63.0508 87.693C63.0068 92.9009 64.2703 97.9439 66.5666 102.855C68.9068 107.865 72.0271 111.425 75.0156 114.853C79.6631 120.182 84.0689 125.225 85.607 134.52ZM105.098 136.794L86.1234 139.486C86.1784 140.694 86.2003 141.958 86.1784 143.298L104.911 140.639C104.933 139.288 104.988 138.002 105.098 136.794ZM86.2772 148.33C86.4091 149.341 86.6068 150.264 86.8596 151.121L105.043 148.88C105.164 147.935 105.186 146.935 105.098 145.869V145.847L105.087 145.66L86.2772 148.33ZM89.4415 155.845C90.1447 156.581 90.9247 157.153 91.7488 157.548C93.0123 158.164 94.4076 158.416 95.781 158.339C97.1873 158.251 98.6046 157.823 99.8901 157.076C101.099 156.373 102.186 155.395 103.054 154.164L89.4415 155.845Z" fill="black"/>
</svg>
