<svg width="70" height="70" viewBox="0 0 70 70" fill="none" xmlns="http://www.w3.org/2000/svg">
<rect width="70" height="70" rx="15" fill="#0A4551"/>
<path d="M24.0572 48.9502L25.6603 49.8868C28.3638 51.4635 31.4386 52.2912 34.5682 52.2848C38.0717 52.2848 41.4965 51.2459 44.4096 49.2995C47.3226 47.353 49.5931 44.5865 50.9338 41.3497C52.2745 38.1129 52.6253 34.5512 51.9418 31.1151C51.2583 27.6789 49.5712 24.5226 47.0939 22.0452C44.6166 19.5679 41.4602 17.8808 38.0241 17.1973C34.5879 16.5138 31.0262 16.8646 27.7894 18.2053C24.5526 19.546 21.7861 21.8165 19.8396 24.7295C17.8932 27.6426 16.8543 31.0674 16.8543 34.5709C16.8543 37.7505 17.6891 40.7995 19.2545 43.481L20.1889 45.0841L18.743 50.4005L24.0572 48.9502ZM12.4347 56.7133L15.4283 45.7129C13.4557 42.3315 12.4194 38.4856 12.4258 34.5709C12.4258 22.3416 22.339 12.4284 34.5682 12.4284C46.7975 12.4284 56.7107 22.3416 56.7107 34.5709C56.7107 46.8001 46.7975 56.7133 34.5682 56.7133C30.6552 56.7196 26.811 55.6841 23.4306 53.713L12.4347 56.7133ZM26.577 24.1816C26.8737 24.1595 27.1727 24.1595 27.4694 24.1728C27.5889 24.1816 27.7085 24.1949 27.8281 24.2082C28.1802 24.2481 28.5676 24.4628 28.6983 24.7596C29.3581 26.2564 30.0003 27.7643 30.6202 29.2766C30.7575 29.6132 30.6756 30.045 30.4143 30.4657C30.2346 30.7501 30.0403 31.0251 29.832 31.2894C29.5818 31.6104 29.0437 32.1994 29.0437 32.1994C29.0437 32.1994 28.8245 32.4607 28.9086 32.7862C28.9396 32.9102 29.0415 33.0895 29.1345 33.2401L29.2651 33.4505C29.832 34.3959 30.5937 35.3547 31.5237 36.2581C31.7894 36.515 32.0484 36.7785 32.3274 37.0243C33.3637 37.9387 34.5372 38.6849 35.8038 39.2385L35.8149 39.2429C36.0031 39.3249 36.0983 39.3691 36.3729 39.4865C36.5101 39.5441 36.6518 39.595 36.7958 39.6326C36.9445 39.6705 37.1011 39.6634 37.2458 39.6121C37.3905 39.5609 37.5167 39.4678 37.6084 39.3448C39.2115 37.4029 39.3577 37.2767 39.3709 37.2767V37.2811C39.4823 37.1772 39.6146 37.0984 39.759 37.0499C39.9034 37.0014 40.0564 36.9843 40.2079 36.9999C40.3408 37.0088 40.4758 37.0331 40.5998 37.0885C41.7756 37.6265 43.6998 38.4657 43.6998 38.4657L44.9885 39.0436C45.2055 39.1477 45.4025 39.3935 45.4092 39.6304C45.418 39.7788 45.4313 40.0179 45.3804 40.4563C45.3095 41.0298 45.1368 41.7185 44.9641 42.0794C44.8458 42.3257 44.6889 42.5514 44.4991 42.7481C44.2757 42.9827 44.0311 43.1961 43.7684 43.3858C43.6776 43.4541 43.5853 43.5206 43.4916 43.5851C43.2162 43.7598 42.9333 43.9223 42.6436 44.0722C42.0735 44.375 41.4438 44.5489 40.7991 44.5815C40.3895 44.6036 39.9799 44.6346 39.568 44.6125C39.5503 44.6125 38.3103 44.4198 38.3103 44.4198C35.1622 43.5918 32.2508 42.0405 29.8076 39.8895C29.3072 39.4489 28.8444 38.975 28.3706 38.5034C26.3999 36.5438 24.9119 34.4292 24.0085 32.4319C23.5461 31.4516 23.2963 30.3846 23.2756 29.301C23.2665 27.9566 23.7059 26.6476 24.5244 25.581C24.6861 25.3729 24.8389 25.1559 25.1024 24.9057C25.3836 24.64 25.5607 24.4983 25.7533 24.4009C26.0095 24.2725 26.2889 24.1972 26.5748 24.1794L26.577 24.1816Z" fill="white"/>
</svg>
