<svg width="603" height="102" viewBox="0 0 603 102" fill="none" xmlns="http://www.w3.org/2000/svg">
<path d="M0.695312 0.09375H382.474L335.112 72.6238H0.695312V0.09375Z" fill="#332501"/>
<path d="M0.695312 24.8018H425.514L372.813 97.3318H0.695312V24.8018Z" fill="#E1AB02"/>
<path d="M26.6156 68.0646C27.9177 68.0646 28.9048 67.7181 29.5768 67.025C30.2699 66.332 30.6164 65.4919 30.6164 64.5048C30.6164 63.3077 30.2594 62.4257 29.5453 61.8586C28.8312 61.2916 27.7077 61.008 26.1745 61.008H23.9063V58.8344L27.7182 53.6364L29.5138 52.2188L27.0251 52.5023H21.7327V49.037H33.7667V51.2737L29.3248 57.2277L27.9387 58.0783V58.2358L29.2618 58.0468C29.9968 58.1098 30.6899 58.2778 31.341 58.5508C32.013 58.8239 32.5906 59.2229 33.0736 59.7479C33.5776 60.252 33.9767 60.882 34.2707 61.6381C34.5647 62.3941 34.7117 63.2657 34.7117 64.2528C34.7117 65.4919 34.5017 66.563 34.0817 67.4661C33.6826 68.3691 33.1156 69.1252 32.3805 69.7343C31.6665 70.3433 30.8264 70.7948 29.8603 71.0889C28.8943 71.3829 27.8547 71.5299 26.7416 71.5299C25.8175 71.5299 24.8619 71.4459 23.8748 71.2779C22.8878 71.1099 22.0897 70.8683 21.4806 70.5533L22.5832 67.151C23.1293 67.4241 23.7278 67.6446 24.3789 67.8126C25.0509 67.9806 25.7965 68.0646 26.6156 68.0646ZM38.2206 69.0097C38.2206 68.2746 38.4516 67.6971 38.9136 67.2771C39.3757 66.836 39.9847 66.6155 40.7408 66.6155C41.5389 66.6155 42.1689 66.836 42.6309 67.2771C43.093 67.6971 43.324 68.2746 43.324 69.0097C43.324 69.7448 43.093 70.3328 42.6309 70.7738C42.1689 71.2149 41.5389 71.4354 40.7408 71.4354C39.9847 71.4354 39.3757 71.2149 38.9136 70.7738C38.4516 70.3328 38.2206 69.7448 38.2206 69.0097ZM51.2309 60.063C51.2309 56.3877 52.0395 53.5629 53.6566 51.5888C55.2737 49.5936 57.5839 48.596 60.5872 48.596C62.1623 48.596 63.5379 48.869 64.714 49.4151C65.8901 49.9611 66.8667 50.7382 67.6438 51.7463C68.4208 52.7544 68.9984 53.962 69.3764 55.3691C69.7544 56.7762 69.9435 58.3408 69.9435 60.063C69.9435 63.7383 69.1244 66.5735 67.4863 68.5687C65.8691 70.5428 63.5694 71.5299 60.5872 71.5299C58.9911 71.5299 57.6049 71.2569 56.4288 70.7108C55.2527 70.1648 54.2762 69.3877 53.4991 68.3796C52.743 67.3716 52.176 66.164 51.798 64.7568C51.4199 63.3497 51.2309 61.7851 51.2309 60.063ZM55.7673 60.063C55.7673 61.176 55.8618 62.2051 56.0508 63.1502C56.2398 64.0743 56.5233 64.8724 56.9014 65.5444C57.3004 66.2165 57.8045 66.7415 58.4135 67.1195C59.0226 67.4976 59.7471 67.6866 60.5872 67.6866C62.1203 67.6866 63.3069 67.088 64.147 65.8909C64.987 64.6938 65.4071 62.7512 65.4071 60.063C65.4071 58.9919 65.3126 57.9943 65.1236 57.0702C64.9555 56.1461 64.6825 55.3376 64.3045 54.6445C63.9265 53.9515 63.4329 53.4159 62.8239 53.0379C62.2148 52.6388 61.4693 52.4393 60.5872 52.4393C59.0541 52.4393 57.8675 53.0589 57.0274 54.298C56.1873 55.5161 55.7673 57.4377 55.7673 60.063ZM84.0857 70.1123C83.4556 70.5743 82.689 70.9209 81.786 71.1519C80.9039 71.4039 79.9903 71.5299 79.0452 71.5299C77.7851 71.5299 76.7141 71.3304 75.832 70.9314C74.9709 70.5323 74.2674 69.9758 73.7213 69.2617C73.1753 68.5267 72.7762 67.6446 72.5242 66.6155C72.2932 65.5864 72.1777 64.4523 72.1777 63.2132C72.1777 60.546 72.7762 58.4983 73.9733 57.0702C75.1704 55.6211 76.9136 54.8965 79.2028 54.8965C80.3579 54.8965 81.2819 54.991 81.975 55.1801C82.689 55.3691 83.3296 55.6106 83.8966 55.9046L82.9201 59.2439C82.437 59.0129 81.954 58.8344 81.4709 58.7083C81.0089 58.5823 80.4734 58.5193 79.8643 58.5193C78.7302 58.5193 77.8691 58.8974 77.2811 59.6534C76.6931 60.3885 76.399 61.5751 76.399 63.2132C76.399 63.8853 76.4725 64.5048 76.6195 65.0719C76.7666 65.6389 76.9871 66.1325 77.2811 66.5525C77.5751 66.9725 77.9532 67.3086 78.4152 67.5606C78.8982 67.7916 79.4548 67.9071 80.0848 67.9071C80.7779 67.9071 81.3659 67.8231 81.849 67.6551C82.332 67.4661 82.7626 67.2455 83.1406 66.9935L84.0857 70.1123ZM97.7494 58.9604H93.3076V71.0889H89.0862V58.9604H84.6443V55.3376H97.7494V58.9604ZM99.4811 56.2511C100.321 55.8731 101.319 55.5791 102.474 55.3691C103.629 55.138 104.837 55.0225 106.097 55.0225C107.189 55.0225 108.102 55.1591 108.837 55.4321C109.572 55.6841 110.15 56.0516 110.57 56.5347C111.011 57.0177 111.316 57.5953 111.484 58.2673C111.673 58.9394 111.767 59.6954 111.767 60.5355C111.767 61.4596 111.736 62.3941 111.673 63.3392C111.61 64.2633 111.568 65.1769 111.547 66.08C111.547 66.983 111.578 67.8651 111.641 68.7262C111.704 69.5662 111.862 70.3643 112.114 71.1204H108.774L108.113 68.9467H107.955C107.535 69.5977 106.947 70.1648 106.191 70.6478C105.456 71.1099 104.501 71.3409 103.324 71.3409C102.589 71.3409 101.928 71.2359 101.34 71.0259C100.752 70.7948 100.248 70.4798 99.8276 70.0808C99.4076 69.6607 99.0821 69.1777 98.851 68.6317C98.62 68.0646 98.5045 67.4346 98.5045 66.7415C98.5045 65.7754 98.7145 64.9669 99.1346 64.3158C99.5756 63.6438 100.195 63.1082 100.993 62.7092C101.812 62.2891 102.778 62.0056 103.891 61.8586C105.026 61.6906 106.286 61.6381 107.672 61.7011C107.819 60.525 107.735 59.6849 107.42 59.1809C107.105 58.6558 106.401 58.3933 105.309 58.3933C104.49 58.3933 103.618 58.4773 102.694 58.6453C101.791 58.8134 101.046 59.0339 100.458 59.3069L99.4811 56.2511ZM104.679 67.9701C105.498 67.9701 106.149 67.7916 106.632 67.4346C107.115 67.0565 107.472 66.6575 107.703 66.2375V64.1898C107.052 64.1268 106.422 64.1163 105.813 64.1583C105.225 64.2003 104.7 64.2948 104.238 64.4418C103.776 64.5888 103.408 64.7988 103.135 65.0719C102.862 65.3449 102.726 65.6914 102.726 66.1115C102.726 66.6995 102.894 67.1615 103.23 67.4976C103.587 67.8126 104.07 67.9701 104.679 67.9701ZM115.204 55.3691C115.939 55.3061 116.821 55.2431 117.85 55.1801C118.9 55.117 120.024 55.0855 121.221 55.0855C123.531 55.0855 125.169 55.4216 126.135 56.0936C127.122 56.7447 127.616 57.7318 127.616 59.0549C127.616 59.7899 127.406 60.504 126.986 61.197C126.566 61.8901 125.904 62.3941 125.001 62.7092V62.8352C126.135 63.0872 126.954 63.5387 127.458 64.1898C127.962 64.8198 128.214 65.6389 128.214 66.647C128.214 68.2221 127.605 69.3982 126.387 70.1753C125.19 70.9524 123.258 71.3409 120.591 71.3409C119.709 71.3409 118.774 71.3094 117.787 71.2464C116.8 71.2044 115.939 71.1414 115.204 71.0574V55.3691ZM119.205 67.9386C119.499 67.9806 119.772 68.0121 120.024 68.0331C120.276 68.0541 120.591 68.0646 120.969 68.0646C122.103 68.0646 122.911 67.9071 123.395 67.5921C123.878 67.2771 124.119 66.794 124.119 66.143C124.119 65.5969 123.909 65.1559 123.489 64.8198C123.09 64.4628 122.365 64.2843 121.315 64.2843H119.205V67.9386ZM121.378 61.7641C122.05 61.7641 122.596 61.6066 123.016 61.2916C123.458 60.9555 123.678 60.5355 123.678 60.0315C123.678 59.4854 123.489 59.0759 123.111 58.8029C122.754 58.5088 122.092 58.3618 121.126 58.3618C120.643 58.3618 120.255 58.3723 119.961 58.3933C119.688 58.4143 119.436 58.4353 119.205 58.4563V61.7641H121.378ZM135.204 67.6551C135.834 67.7811 136.433 67.8441 137 67.8441C138.008 67.8441 138.733 67.6761 139.174 67.3401C139.636 66.983 139.867 66.437 139.867 65.7019C139.867 64.3368 138.943 63.6543 137.094 63.6543C136.401 63.6543 135.771 63.7278 135.204 63.8748V67.6551ZM135.204 60.945C135.708 60.861 136.212 60.8085 136.716 60.7875C137.241 60.7455 137.714 60.7245 138.134 60.7245C139.226 60.7245 140.15 60.8505 140.906 61.1025C141.662 61.3336 142.271 61.6696 142.733 62.1106C143.216 62.5517 143.563 63.0767 143.773 63.6858C143.983 64.2738 144.088 64.9144 144.088 65.6074C144.088 67.5186 143.521 68.9467 142.387 69.8918C141.253 70.8368 139.331 71.3094 136.622 71.3094C135.425 71.3094 134.385 71.2884 133.503 71.2464C132.642 71.2044 131.844 71.1519 131.109 71.0889V55.3376H135.204V60.945ZM156.755 58.9604H152.313V71.0889H148.092V58.9604H143.65V55.3376H156.755V58.9604ZM170.936 69.7343C170.306 70.2383 169.445 70.6688 168.353 71.0259C167.282 71.3619 166.137 71.5299 164.919 71.5299C162.378 71.5299 160.52 70.7948 159.343 69.3247C158.167 67.8336 157.579 65.7964 157.579 63.2132C157.579 60.441 158.241 58.3618 159.564 56.9757C160.887 55.5896 162.746 54.8965 165.14 54.8965C165.938 54.8965 166.715 55.0015 167.471 55.2116C168.227 55.4216 168.899 55.7681 169.487 56.2511C170.075 56.7342 170.548 57.3852 170.905 58.2043C171.262 59.0234 171.44 60.042 171.44 61.2601C171.44 61.7011 171.409 62.1736 171.346 62.6777C171.304 63.1817 171.23 63.7068 171.125 64.2528H161.675C161.738 65.5759 162.074 66.5735 162.683 67.2455C163.313 67.9176 164.321 68.2536 165.707 68.2536C166.568 68.2536 167.335 68.1276 168.007 67.8756C168.7 67.6026 169.225 67.3296 169.582 67.0565L170.936 69.7343ZM165.077 58.1728C164.006 58.1728 163.208 58.4983 162.683 59.1494C162.179 59.7794 161.874 60.63 161.769 61.7011H167.629C167.713 60.567 167.534 59.6954 167.093 59.0864C166.673 58.4773 166.001 58.1728 165.077 58.1728ZM193.453 70.1123C192.823 70.5743 192.056 70.9209 191.153 71.1519C190.271 71.4039 189.357 71.5299 188.412 71.5299C187.152 71.5299 186.081 71.3304 185.199 70.9314C184.338 70.5323 183.634 69.9758 183.088 69.2617C182.542 68.5267 182.143 67.6446 181.891 66.6155C181.66 65.5864 181.545 64.4523 181.545 63.2132C181.545 60.546 182.143 58.4983 183.34 57.0702C184.537 55.6211 186.281 54.8965 188.57 54.8965C189.725 54.8965 190.649 54.991 191.342 55.1801C192.056 55.3691 192.697 55.6106 193.264 55.9046L192.287 59.2439C191.804 59.0129 191.321 58.8344 190.838 58.7083C190.376 58.5823 189.84 58.5193 189.231 58.5193C188.097 58.5193 187.236 58.8974 186.648 59.6534C186.06 60.3885 185.766 61.5751 185.766 63.2132C185.766 63.8853 185.839 64.5048 185.986 65.0719C186.134 65.6389 186.354 66.1325 186.648 66.5525C186.942 66.9725 187.32 67.3086 187.782 67.5606C188.265 67.7916 188.822 67.9071 189.452 67.9071C190.145 67.9071 190.733 67.8231 191.216 67.6551C191.699 67.4661 192.129 67.2455 192.508 66.9935L193.453 70.1123ZM195.929 55.3691C196.664 55.3061 197.546 55.2431 198.575 55.1801C199.626 55.117 200.749 55.0855 201.946 55.0855C204.256 55.0855 205.895 55.4216 206.861 56.0936C207.848 56.7447 208.341 57.7318 208.341 59.0549C208.341 59.7899 208.131 60.504 207.711 61.197C207.291 61.8901 206.63 62.3941 205.727 62.7092V62.8352C206.861 63.0872 207.68 63.5387 208.184 64.1898C208.688 64.8198 208.94 65.6389 208.94 66.647C208.94 68.2221 208.331 69.3982 207.113 70.1753C205.916 70.9524 203.983 71.3409 201.316 71.3409C200.434 71.3409 199.5 71.3094 198.512 71.2464C197.525 71.2044 196.664 71.1414 195.929 71.0574V55.3691ZM199.93 67.9386C200.224 67.9806 200.497 68.0121 200.749 68.0331C201.001 68.0541 201.316 68.0646 201.694 68.0646C202.828 68.0646 203.637 67.9071 204.12 67.5921C204.603 67.2771 204.844 66.794 204.844 66.143C204.844 65.5969 204.634 65.1559 204.214 64.8198C203.815 64.4628 203.091 64.2843 202.041 64.2843H199.93V67.9386ZM202.104 61.7641C202.776 61.7641 203.322 61.6066 203.742 61.2916C204.183 60.9555 204.403 60.5355 204.403 60.0315C204.403 59.4854 204.214 59.0759 203.836 58.8029C203.479 58.5088 202.818 58.3618 201.852 58.3618C201.369 58.3618 200.98 58.3723 200.686 58.3933C200.413 58.4143 200.161 58.4353 199.93 58.4563V61.7641H202.104ZM211.078 63.2132C211.078 60.546 211.729 58.4983 213.031 57.0702C214.334 55.6211 216.161 54.8965 218.513 54.8965C219.773 54.8965 220.865 55.096 221.789 55.4951C222.713 55.8941 223.48 56.4612 224.089 57.1962C224.698 57.9103 225.149 58.7819 225.443 59.8109C225.759 60.84 225.916 61.9741 225.916 63.2132C225.916 65.8804 225.265 67.9386 223.963 69.3877C222.682 70.8158 220.865 71.5299 218.513 71.5299C217.253 71.5299 216.161 71.3304 215.237 70.9314C214.313 70.5323 213.536 69.9758 212.905 69.2617C212.296 68.5267 211.834 67.6446 211.519 66.6155C211.225 65.5864 211.078 64.4523 211.078 63.2132ZM215.3 63.2132C215.3 63.9063 215.363 64.5468 215.489 65.1349C215.615 65.7229 215.804 66.2375 216.056 66.6785C216.308 67.1195 216.633 67.4661 217.032 67.7181C217.452 67.9491 217.946 68.0646 218.513 68.0646C219.584 68.0646 220.382 67.6761 220.907 66.899C221.432 66.122 221.695 64.8934 221.695 63.2132C221.695 61.7641 221.453 60.5985 220.97 59.7164C220.487 58.8134 219.668 58.3618 218.513 58.3618C217.505 58.3618 216.717 58.7398 216.15 59.4959C215.583 60.252 215.3 61.4911 215.3 63.2132ZM238.237 63.9063L238.395 61.6696H238.3L236.945 63.9693L231.338 71.0889H228.755V55.3376H232.85V62.8352L232.661 64.9774H232.787L234.079 62.7407L239.749 55.3376H242.332V71.0889H238.237V63.9063ZM233.858 48.911C234.005 49.7301 234.247 50.3077 234.583 50.6437C234.94 50.9797 235.391 51.1477 235.937 51.1477C236.525 51.1477 236.987 50.9797 237.323 50.6437C237.68 50.3077 237.922 49.7406 238.048 48.9425L241.167 49.7301C240.915 51.0952 240.295 52.1138 239.308 52.7859C238.321 53.4369 237.166 53.7624 235.843 53.7624C235.192 53.7624 234.562 53.6889 233.953 53.5419C233.344 53.3949 232.798 53.1639 232.315 52.8489C231.831 52.5128 231.422 52.0928 231.086 51.5888C230.75 51.0847 230.519 50.4652 230.393 49.7301L233.858 48.911ZM259.087 64.5678H257.984V71.0889H253.889V55.3376H257.984V62.0476L258.961 61.6066L262.647 55.3376H267.026L263.214 61.3231L261.607 62.5202L263.371 63.7488L267.624 71.0889H262.93L259.087 64.5678ZM268.146 63.2132C268.146 60.546 268.797 58.4983 270.099 57.0702C271.401 55.6211 273.228 54.8965 275.581 54.8965C276.841 54.8965 277.933 55.096 278.857 55.4951C279.781 55.8941 280.548 56.4612 281.157 57.1962C281.766 57.9103 282.217 58.7819 282.511 59.8109C282.826 60.84 282.984 61.9741 282.984 63.2132C282.984 65.8804 282.333 67.9386 281.031 69.3877C279.749 70.8158 277.933 71.5299 275.581 71.5299C274.321 71.5299 273.228 71.3304 272.304 70.9314C271.38 70.5323 270.603 69.9758 269.973 69.2617C269.364 68.5267 268.902 67.6446 268.587 66.6155C268.293 65.5864 268.146 64.4523 268.146 63.2132ZM272.367 63.2132C272.367 63.9063 272.43 64.5468 272.556 65.1349C272.682 65.7229 272.871 66.2375 273.123 66.6785C273.375 67.1195 273.701 67.4661 274.1 67.7181C274.52 67.9491 275.014 68.0646 275.581 68.0646C276.652 68.0646 277.45 67.6761 277.975 66.899C278.5 66.122 278.762 64.8934 278.762 63.2132C278.762 61.7641 278.521 60.5985 278.038 59.7164C277.555 58.8134 276.736 58.3618 275.581 58.3618C274.573 58.3618 273.785 58.7398 273.218 59.4959C272.651 60.252 272.367 61.4911 272.367 63.2132ZM295.053 64.8829H289.918V71.0889H285.822V55.3376H289.918V61.2601H295.053V55.3376H299.148V71.0889H295.053V64.8829ZM314.084 58.9604H309.642V71.0889H305.42V58.9604H300.979V55.3376H314.084V58.9604ZM315.815 56.2511C316.655 55.8731 317.653 55.5791 318.808 55.3691C319.963 55.138 321.171 55.0225 322.431 55.0225C323.523 55.0225 324.437 55.1591 325.172 55.4321C325.907 55.6841 326.484 56.0516 326.904 56.5347C327.345 57.0177 327.65 57.5953 327.818 58.2673C328.007 58.9394 328.101 59.6954 328.101 60.5355C328.101 61.4596 328.07 62.3941 328.007 63.3392C327.944 64.2633 327.902 65.1769 327.881 66.08C327.881 66.983 327.912 67.8651 327.975 68.7262C328.038 69.5662 328.196 70.3643 328.448 71.1204H325.109L324.447 68.9467H324.29C323.87 69.5977 323.281 70.1648 322.525 70.6478C321.79 71.1099 320.835 71.3409 319.659 71.3409C318.924 71.3409 318.262 71.2359 317.674 71.0259C317.086 70.7948 316.582 70.4798 316.162 70.0808C315.742 69.6607 315.416 69.1777 315.185 68.6317C314.954 68.0646 314.839 67.4346 314.839 66.7415C314.839 65.7754 315.049 64.9669 315.469 64.3158C315.91 63.6438 316.529 63.1082 317.327 62.7092C318.147 62.2891 319.113 62.0056 320.226 61.8586C321.36 61.6906 322.62 61.6381 324.006 61.7011C324.153 60.525 324.069 59.6849 323.754 59.1809C323.439 58.6558 322.735 58.3933 321.643 58.3933C320.824 58.3933 319.953 58.4773 319.029 58.6453C318.126 58.8134 317.38 59.0339 316.792 59.3069L315.815 56.2511ZM321.013 67.9701C321.832 67.9701 322.483 67.7916 322.966 67.4346C323.449 67.0565 323.807 66.6575 324.038 66.2375V64.1898C323.386 64.1268 322.756 64.1163 322.147 64.1583C321.559 64.2003 321.034 64.2948 320.572 64.4418C320.11 64.5888 319.743 64.7988 319.47 65.0719C319.197 65.3449 319.06 65.6914 319.06 66.1115C319.06 66.6995 319.228 67.1615 319.564 67.4976C319.921 67.8126 320.404 67.9701 321.013 67.9701ZM336.736 64.5678H335.633V71.0889H331.538V55.3376H335.633V62.0476L336.61 61.6066L340.296 55.3376H344.675L340.863 61.3231L339.256 62.5202L341.02 63.7488L345.273 71.0889H340.579L336.736 64.5678ZM358.292 58.9604H353.85V71.0889H349.629V58.9604H345.187V55.3376H358.292V58.9604Z" fill="black"/>
</svg>
