<svg width="152" height="153" viewBox="0 0 152 153" fill="none" xmlns="http://www.w3.org/2000/svg">
<circle cx="76.2338" cy="76.6849" r="74.5226" fill="white" stroke="black" stroke-width="2.3911"/>
<circle cx="75.8338" cy="77.0828" r="67.7478" fill="white" stroke="black" stroke-width="0.797033"/>
<path d="M48.29 104.429C48.29 104.107 48.1639 103.848 47.9118 103.652C47.6642 103.456 47.328 103.358 46.903 103.358C46.5061 103.358 46.1861 103.453 45.9433 103.645C45.7051 103.832 45.586 104.079 45.586 104.387H43.1342C43.1342 103.827 43.293 103.325 43.6106 102.881C43.9328 102.438 44.3858 102.092 44.9696 101.844C45.5533 101.592 46.1978 101.466 46.903 101.466C48.1172 101.466 49.0606 101.721 49.7331 102.23C50.4103 102.739 50.7489 103.451 50.7489 104.366C50.7489 104.833 50.6111 105.261 50.3355 105.648C50.0647 106.031 49.6887 106.335 49.2077 106.559C49.7588 106.755 50.1791 107.054 50.4686 107.456C50.7629 107.853 50.91 108.348 50.91 108.941C50.91 109.856 50.5457 110.585 49.8172 111.126C49.0886 111.663 48.1172 111.932 46.903 111.932C45.7775 111.932 44.8435 111.668 44.1009 111.14C43.3584 110.608 42.9871 109.884 42.9871 108.969H45.4529C45.4529 109.272 45.5884 109.529 45.8592 109.739C46.1301 109.945 46.478 110.048 46.903 110.048C47.3607 110.048 47.732 109.94 48.0168 109.725C48.3017 109.51 48.4441 109.23 48.4441 108.885C48.4441 108.38 48.3227 108.025 48.0799 107.82C47.837 107.61 47.4821 107.505 47.0151 107.505H45.7051V105.683H47.0992C47.8931 105.66 48.29 105.242 48.29 104.429ZM61.9011 114.307H59.6945V111.799H54.1394V114.3H51.8627L51.6875 109.907H52.4091C52.7874 109.655 53.0909 109.223 53.3198 108.611C53.5533 107.995 53.719 107.112 53.8171 105.964L54.1324 101.599H61.0745V109.907H62.1603L61.9011 114.307ZM55.1901 109.907H58.6227V103.498H56.4511L56.2619 106.048C56.1218 107.701 55.7646 108.987 55.1901 109.907ZM65.4667 108.338V111.799H63.0079V101.599H67.0779C67.8578 101.599 68.5467 101.744 69.1444 102.034C69.7469 102.318 70.2116 102.727 70.5385 103.26C70.87 103.787 71.0358 104.387 71.0358 105.06C71.0358 106.055 70.6786 106.851 69.964 107.449C69.2542 108.042 68.2781 108.338 67.0359 108.338H65.4667ZM65.4667 106.44H67.0779C67.5543 106.44 67.9162 106.321 68.1637 106.083C68.4159 105.844 68.542 105.508 68.542 105.074C68.542 104.598 68.4136 104.217 68.1567 103.932C67.8999 103.647 67.5496 103.502 67.1059 103.498H65.4667V106.44ZM76.8992 109.893H73.5297L72.9412 111.799H70.3143L74.0551 101.599H76.3668L80.1356 111.799H77.4946L76.8992 109.893ZM74.1181 107.995H76.3107L75.2109 104.457L74.1181 107.995ZM80.8851 111.799V101.599H84.5488C85.8611 101.599 86.8582 101.84 87.54 102.321C88.2265 102.802 88.5698 103.5 88.5698 104.415C88.5698 104.943 88.4484 105.394 88.2055 105.767C87.9627 106.141 87.6054 106.417 87.1337 106.594C87.6661 106.734 88.0747 106.996 88.3596 107.379C88.6445 107.762 88.7869 108.229 88.7869 108.78C88.7869 109.779 88.4694 110.531 87.8342 111.035C87.2038 111.535 86.2674 111.789 85.0252 111.799H80.8851ZM83.3439 107.463V109.907H84.9551C85.3988 109.907 85.7397 109.807 85.9779 109.606C86.216 109.401 86.3351 109.114 86.3351 108.745C86.3351 107.895 85.9125 107.467 85.0672 107.463H83.3439ZM83.3439 105.851H84.6259C85.1629 105.847 85.5459 105.749 85.7747 105.557C86.0036 105.366 86.118 105.083 86.118 104.71C86.118 104.28 85.9942 103.972 85.7467 103.785C85.4992 103.593 85.0999 103.498 84.5488 103.498H83.3439V105.851ZM92.6048 105.109H93.8727C94.6806 105.109 95.3952 105.247 96.0163 105.522C96.6374 105.798 97.1138 106.188 97.4453 106.692C97.7816 107.192 97.9497 107.766 97.9497 108.415C97.9497 109.419 97.5761 110.234 96.8289 110.86C96.0863 111.486 95.0869 111.799 93.8307 111.799H90.1389V101.599H92.6048V105.109ZM101.144 111.799H98.6923V101.599H101.144V111.799ZM92.6048 107V109.907H93.8657C94.3654 109.907 94.76 109.767 95.0496 109.487C95.3438 109.207 95.4909 108.845 95.4909 108.401C95.4909 107.981 95.3461 107.642 95.0566 107.386C94.767 107.129 94.3654 107 93.8517 107H92.6048ZM108.983 107.477H105.116V109.907H109.683V111.799H102.657V101.599H109.697V103.498H105.116V105.648H108.983V107.477Z" fill="black"/>
<path d="M51.4205 117.787L54.755 126.109L58.0895 117.787H59.8338V127.987H58.4888V124.015L58.6149 119.728L55.2664 127.987H54.2366L50.8952 119.749L51.0283 124.015V127.987H49.6833V117.787H51.4205ZM63.6166 121.948H66.1524C67.2172 121.962 68.0485 122.236 68.6463 122.768C69.244 123.3 69.5429 124.024 69.5429 124.94C69.5429 125.86 69.2417 126.593 68.6393 127.139C68.0368 127.686 67.2149 127.968 66.1734 127.987H62.2716V117.787H63.6166V121.948ZM63.6166 123.055V126.887H66.0754C66.7432 126.887 67.2616 126.71 67.6305 126.355C68.0041 126 68.1909 125.523 68.1909 124.926C68.1909 124.351 68.0111 123.898 67.6515 123.567C67.2966 123.235 66.7899 123.065 66.1314 123.055H63.6166ZM72.1208 127.987H70.7758V117.787H72.1208V127.987ZM82.1242 124.75C81.9981 125.829 81.5988 126.663 80.9263 127.251C80.2585 127.835 79.3689 128.127 78.2574 128.127C77.0525 128.127 76.0858 127.695 75.3572 126.831C74.6334 125.967 74.2714 124.811 74.2714 123.363V122.383C74.2714 121.435 74.4395 120.601 74.7758 119.882C75.1167 119.163 75.5977 118.612 76.2189 118.229C76.84 117.841 77.5592 117.647 78.3765 117.647C79.4599 117.647 80.3286 117.951 80.9824 118.558C81.6362 119.16 82.0168 119.996 82.1242 121.066H80.7722C80.6555 120.253 80.4009 119.665 80.0087 119.3C79.621 118.936 79.077 118.754 78.3765 118.754C77.5172 118.754 76.8423 119.072 76.352 119.707C75.8663 120.342 75.6234 121.246 75.6234 122.418V123.405C75.6234 124.512 75.8546 125.393 76.3169 126.046C76.7793 126.7 77.4261 127.027 78.2574 127.027C79.0046 127.027 79.5767 126.859 79.9736 126.523C80.3753 126.182 80.6415 125.591 80.7722 124.75H82.1242ZM91.6793 117.787V127.987H90.3343V118.894H86.6776L86.4954 122.936C86.4254 124.29 86.2853 125.309 86.0751 125.99C85.8697 126.672 85.5661 127.174 85.1645 127.496C84.7628 127.814 84.2258 127.977 83.5533 127.987H83.112V126.887L83.3922 126.873C83.8265 126.84 84.1604 126.7 84.3939 126.453C84.6274 126.2 84.8049 125.801 84.9263 125.255C85.0477 124.708 85.1341 123.868 85.1855 122.733L85.3956 117.787H91.6793ZM100.555 117.787H101.9V127.987H100.555V120.127L95.5321 127.987H94.1801V117.787H95.5321V125.647L100.555 117.787Z" fill="black"/>
<path d="M68.7691 79.1954C68.1178 79.2125 67.5466 78.7327 67.4552 78.0757C67.358 77.3902 67.8208 76.7561 68.4949 76.6247C67.7522 72.4145 65.7242 70.0952 63.582 67.6445C61.9139 65.7365 60.183 63.7542 58.8177 60.8351C57.4752 57.9616 56.7383 54.9911 56.7612 51.9063C56.7897 48.8215 57.5723 45.6452 59.2747 42.3605C59.2861 42.3376 59.2976 42.3205 59.309 42.2977C61.5426 38.5159 64.6674 35.9909 68.1464 34.5742C71.0655 33.3803 74.236 32.9747 77.3437 33.2603C80.4399 33.5459 83.4733 34.5171 86.124 36.0823C89.4944 38.076 92.265 41.0352 93.7903 44.7712C94.6129 46.7935 95.1728 49.05 95.2413 51.5235C95.3099 53.9857 94.8871 56.642 93.7503 59.4526C92.2308 63.2172 90.2199 65.5537 88.3405 67.7416C86.6096 69.7582 84.9986 71.6319 84.1017 74.5053C84.6101 74.6253 85.01 75.0423 85.09 75.5907C85.1871 76.2991 84.6901 76.9561 83.9818 77.0532L83.5419 77.116C83.4619 77.7387 83.4105 78.4071 83.3876 79.1211L83.5305 79.0983C84.2388 79.0012 84.8958 79.4982 84.9929 80.2065C85.09 80.9149 84.593 81.5718 83.8846 81.669L83.439 81.7318C83.4448 81.8175 83.4505 81.9032 83.4562 81.9889C83.4962 82.4916 83.5019 82.9771 83.4733 83.4399L83.5476 83.4284C84.2617 83.3428 84.9072 83.8512 84.9986 84.5595C85.0843 85.2736 84.5759 85.9191 83.8675 86.0106L82.9078 86.1305C82.2223 87.9071 80.9998 89.2553 79.5545 90.0951C78.5605 90.672 77.4579 91.0034 76.3497 91.0719C75.2243 91.1405 74.0875 90.9291 73.0478 90.4264C71.8596 89.8437 70.797 88.8783 70.0258 87.4901C69.6545 87.3016 69.3803 86.936 69.3232 86.4904C69.3003 86.3133 69.3175 86.1419 69.3632 85.982C69.1404 85.3193 68.969 84.5938 68.8662 83.7941L68.8262 83.7998C68.1178 83.8969 67.4609 83.3999 67.3638 82.6915C67.2666 81.9832 67.7636 81.3262 68.472 81.2291L68.7805 81.1834C68.8033 80.4865 68.7976 79.8238 68.7691 79.1954ZM81.4968 43.9372C81.8281 43.9429 82.1651 44.0057 82.4908 44.1143C83.1763 44.3485 83.8332 44.7998 84.3416 45.3996C84.8501 46.0051 85.2157 46.7649 85.3071 47.6104C85.3471 47.9817 85.3356 48.3644 85.2614 48.7586C85.6156 49.0842 85.9126 49.4441 86.1354 49.8326C86.501 50.4553 86.6895 51.1465 86.6667 51.8491C86.6438 52.5575 86.4153 53.2659 85.9297 53.9171C85.6384 54.3113 85.2557 54.6826 84.7758 55.0196C84.8101 56.0708 84.4959 57.019 83.9875 57.7503C83.4219 58.5672 82.6107 59.1327 81.7595 59.3098C81.5539 60.0467 81.0569 60.698 80.4285 61.1493C79.6059 61.7377 78.5319 62.0119 77.5493 61.7434C76.8753 61.5606 76.2583 61.1321 75.8127 60.4009C75.2757 61.2121 74.5674 61.6463 73.8247 61.8005C72.8764 62.0004 71.8939 61.7091 71.1512 61.1321C70.58 60.6865 70.1458 60.0639 69.9744 59.3555C69.7002 59.3327 69.4203 59.2755 69.1518 59.1841C68.4834 58.9556 67.8379 58.5215 67.3409 57.9388C66.8382 57.3561 66.4669 56.6249 66.3526 55.808C66.2955 55.4024 66.3012 54.9739 66.3869 54.5398C66.0784 54.2541 65.8156 53.9342 65.5986 53.5858C65.2158 52.9631 64.9987 52.2604 65.0102 51.5349C65.0216 50.8037 65.2501 50.0668 65.7528 49.3813C66.0327 48.9985 66.404 48.6329 66.8668 48.2959C66.8611 48.1816 66.8611 48.0674 66.8668 47.9588C66.9068 46.8963 67.2952 45.9651 67.8608 45.2739C67.8779 45.2568 67.8893 45.2396 67.9065 45.2225C68.472 44.5541 69.2089 44.1085 69.9744 43.9772C70.003 43.8743 70.0316 43.7772 70.0658 43.6744C70.3343 42.9546 70.877 42.3376 71.5454 41.9492C72.2195 41.555 73.0307 41.3836 73.819 41.5493C74.5274 41.6978 75.2072 42.1034 75.7327 42.8461C76.2583 42.1034 76.9381 41.6978 77.6465 41.5493C78.3662 41.4008 79.1032 41.5264 79.7373 41.8464C80.36 42.1605 80.8969 42.669 81.2226 43.2745C81.3482 43.4916 81.4396 43.7087 81.4968 43.9372ZM81.7138 57.6531C82.068 57.5046 82.4108 57.219 82.6736 56.8362C83.0449 56.2935 83.2562 55.568 83.1534 54.7511L83.1477 54.7283V54.7112C83.1077 54.4027 83.2505 54.0828 83.5362 53.9114C84.0332 53.62 84.3931 53.3001 84.6444 52.9574C84.9186 52.5804 85.0557 52.1862 85.0671 51.7977C85.0786 51.4036 84.9643 51.0094 84.7472 50.6381C84.5473 50.2953 84.2617 49.9811 83.9132 49.7126C83.6161 49.5184 83.479 49.1414 83.599 48.7872C83.719 48.433 83.7475 48.096 83.7133 47.7703C83.6561 47.2676 83.4333 46.8049 83.1191 46.4279C82.7992 46.0508 82.3936 45.7709 81.9823 45.6281C81.8052 45.571 81.6282 45.5367 81.4625 45.5367C81.3368 45.9137 81.1312 46.2908 80.8227 46.6564C80.537 46.9934 80.0343 47.0391 79.6973 46.7535C79.3602 46.4679 79.3145 45.9651 79.6002 45.6281C80.0686 45.074 80.0743 44.4913 79.8287 44.04C79.6573 43.7201 79.3717 43.4516 79.0346 43.2859C78.709 43.1203 78.3434 43.0517 77.9949 43.126C77.4865 43.2288 76.9952 43.6573 76.6753 44.5484V58.0873C76.7382 58.1787 76.7781 58.2815 76.7953 58.4015C76.9781 59.5212 77.4522 60.0582 77.9835 60.2067C78.4748 60.3438 79.0461 60.1781 79.5031 59.8525C79.9486 59.5326 80.2686 59.0699 80.2743 58.5843C80.28 58.0302 79.8572 57.3961 78.7319 56.8191C78.3377 56.6192 78.1777 56.1336 78.3777 55.7394C78.5776 55.3453 79.0632 55.1853 79.4574 55.3852C80.7313 56.0308 81.4282 56.8362 81.7138 57.6531ZM70.0487 45.611C69.7231 45.7195 69.4032 45.9423 69.1347 46.2508C69.1232 46.2679 69.1118 46.2793 69.1004 46.2908C68.7348 46.7363 68.4891 47.3305 68.4606 48.016C68.4549 48.1988 68.4606 48.393 68.4891 48.5929C68.5291 48.8957 68.392 49.2099 68.1178 49.387C67.638 49.6841 67.2838 50.004 67.0381 50.341C66.7411 50.7409 66.6097 51.1636 66.604 51.5635C66.5983 51.9748 66.7239 52.3804 66.9525 52.7517C67.1467 53.0659 67.4095 53.3516 67.7351 53.5915C68.0264 53.7914 68.1578 54.1627 68.0436 54.5112C67.9179 54.8882 67.8893 55.2539 67.935 55.5966C68.0036 56.0879 68.2321 56.5335 68.5463 56.8991C68.8605 57.2647 69.2546 57.5332 69.6602 57.6703C69.7916 57.716 69.923 57.7445 70.0487 57.756C70.34 56.9048 71.0712 56.065 72.4023 55.3852C72.7965 55.1853 73.2763 55.3395 73.482 55.7337C73.6819 56.1279 73.5277 56.6077 73.1335 56.8134C71.9396 57.4189 71.494 58.1044 71.494 58.6986C71.494 59.1499 71.7568 59.5783 72.1395 59.8754C72.528 60.1781 73.0307 60.3324 73.4991 60.2352C74.0875 60.1153 74.6588 59.5554 74.9615 58.333C74.9787 58.253 75.0129 58.1787 75.0529 58.1102V45.2511C75.0358 45.2225 75.0187 45.1882 75.0015 45.154L74.9958 45.1425L74.9901 45.1311L74.9844 45.1197V45.114V45.1083L74.9787 45.0968V45.0911V45.0854C74.973 45.0626 74.9672 45.0397 74.9615 45.0169C74.6588 43.8001 74.0875 43.2459 73.4991 43.126C73.1164 43.046 72.7051 43.1374 72.3566 43.3431C72.0024 43.5487 71.7168 43.8686 71.5797 44.2342C71.4026 44.7141 71.5111 45.3082 72.1224 45.8737C72.448 46.1765 72.4651 46.6792 72.1681 47.0048C71.8653 47.3305 71.3626 47.3476 71.037 47.0505C70.54 46.5821 70.2201 46.0965 70.0487 45.611ZM70.2144 48.2559C70.5285 47.9474 71.037 47.9474 71.3512 48.2673C71.6596 48.5815 71.6596 49.0899 71.3397 49.4041C70.7856 49.9468 70.4943 50.6552 70.4657 51.3693C70.4371 52.1119 70.6771 52.8774 71.1855 53.5058C71.4654 53.8485 71.4083 54.357 71.0655 54.6312C70.7228 54.9111 70.2144 54.854 69.9401 54.5112C69.1804 53.5686 68.8205 52.4261 68.8662 51.3064C68.9062 50.1925 69.3517 49.1014 70.2144 48.2559ZM79.7944 49.1014C79.4345 48.8386 79.3545 48.3416 79.6173 47.9817C79.8801 47.6218 80.3771 47.5418 80.737 47.8046C80.8741 47.9074 81.0055 48.0103 81.1254 48.1188C82.028 48.9357 82.525 50.0097 82.6164 51.1236C82.7078 52.2262 82.3994 53.363 81.7024 54.317C81.691 54.3341 81.6739 54.357 81.6567 54.3741C81.5596 54.5055 81.4625 54.6198 81.3711 54.7283C81.074 55.0596 80.5656 55.0825 80.2343 54.7854C79.9029 54.4884 79.8801 53.9799 80.1772 53.6486C80.2514 53.5629 80.3143 53.4887 80.3714 53.4144C80.3828 53.3973 80.3885 53.3858 80.3999 53.3687C80.8627 52.7289 81.0683 51.9748 81.0112 51.2436C80.9541 50.5238 80.6342 49.8326 80.0515 49.307C79.9715 49.2385 79.8858 49.1699 79.7944 49.1014ZM44.8047 54.5169C44.1363 54.5341 43.5822 54.0142 43.5593 53.3458C43.5365 52.6775 44.062 52.1233 44.7304 52.1005L49.7004 51.9291C50.3687 51.9063 50.9229 52.4318 50.9457 53.1002C50.9686 53.7686 50.443 54.3227 49.7746 54.3455L44.8047 54.5169ZM106.786 49.5984C107.449 49.5298 108.043 50.0154 108.112 50.6781C108.18 51.3407 107.695 51.9348 107.032 52.0034L102.085 52.5232C101.422 52.5918 100.828 52.1062 100.76 51.4435C100.691 50.7809 101.177 50.1868 101.839 50.1182L106.786 49.5984ZM97.7777 29.3357C98.149 28.7816 98.8974 28.6331 99.4515 29.0044C100.006 29.3757 100.154 30.1241 99.7828 30.6782L97.0179 34.8141C96.6466 35.3683 95.8983 35.5168 95.3441 35.1455C94.79 34.7741 94.6415 34.0258 95.0128 33.4717L97.7777 29.3357ZM76.4811 22.0693C76.4982 21.4009 77.0523 20.8754 77.715 20.8925C78.3834 20.9096 78.9089 21.4638 78.8918 22.1264L78.7661 27.0964C78.749 27.7648 78.1949 28.2903 77.5322 28.2732C76.8638 28.2561 76.3383 27.7019 76.3554 27.0393L76.4811 22.0693ZM51.4884 29.7642C50.9971 29.3072 50.9743 28.5417 51.4256 28.0561C51.8826 27.5648 52.6481 27.542 53.1336 27.9933L56.7726 31.3866C57.2639 31.8436 57.2867 32.6091 56.8354 33.0946C56.3784 33.5859 55.6129 33.6088 55.1273 33.1575L51.4884 29.7642ZM70.9113 76.2763L81.4739 74.7796C82.3822 70.9521 84.3588 68.6499 86.501 66.1649C88.2605 64.1198 90.1342 61.9376 91.5053 58.5443C92.5107 56.0593 92.882 53.7286 92.8249 51.5806C92.7677 49.4384 92.2765 47.4619 91.5452 45.6738C90.2313 42.4576 87.8263 39.8984 84.8958 38.1617C82.5479 36.7736 79.8687 35.911 77.1323 35.6653C74.4074 35.414 71.6254 35.7738 69.0604 36.8193C66.0556 38.0475 63.3535 40.2297 61.4112 43.5144C59.9031 46.4393 59.2062 49.2385 59.1833 51.9291C59.1605 54.6369 59.8174 57.259 61.0113 59.8125C62.2281 62.4175 63.8505 64.2684 65.4043 66.0507C67.8208 68.8213 70.1115 71.4434 70.9113 76.2763ZM81.0455 77.4588L71.1798 78.8584C71.2083 79.4867 71.2198 80.1437 71.2083 80.8406L80.9483 79.4582C80.9598 78.7555 80.9883 78.0872 81.0455 77.4588ZM71.2598 83.457C71.3283 83.9826 71.4311 84.4624 71.5625 84.908L81.0169 83.7426C81.0797 83.2514 81.0912 82.7315 81.0455 82.1774V82.166L81.0398 82.0688L71.2598 83.457ZM72.905 87.3644C73.2706 87.7472 73.6762 88.0442 74.1046 88.2499C74.7616 88.5698 75.4871 88.7012 76.2012 88.6612C76.9324 88.6155 77.6693 88.3927 78.3377 88.0042C78.9661 87.6386 79.5316 87.1302 79.9829 86.4904L72.905 87.3644Z" fill="black"/>
</svg>
