<svg width="593" height="114" viewBox="0 0 593 114" fill="none" xmlns="http://www.w3.org/2000/svg">
<path d="M11.8516 34.0063L388.272 7.85304L502.667 72.7079L16.8855 106.46L11.8516 34.0063Z" fill="#332501"/>
<path d="M0.695312 36.1216H427.555L551.571 108.749H0.695312V36.1216Z" fill="#E1AB02"/>
<path d="M23.7692 79.7408H28.1481V67.2972L28.6206 65.1551L27.1085 67.0137L24.3048 68.9354L22.5721 66.5727L29.7547 60.7762H32.0544V79.7408H36.3387V83.2061H23.7692V79.7408ZM39.7846 81.1269C39.7846 80.3918 40.0156 79.8143 40.4777 79.3942C40.9397 78.9532 41.5487 78.7327 42.3048 78.7327C43.1029 78.7327 43.7329 78.9532 44.195 79.3942C44.657 79.8143 44.888 80.3918 44.888 81.1269C44.888 81.8619 44.657 82.45 44.195 82.891C43.7329 83.3321 43.1029 83.5526 42.3048 83.5526C41.5487 83.5526 40.9397 83.3321 40.4777 82.891C40.0156 82.45 39.7846 81.8619 39.7846 81.1269ZM57.9119 72.1801C57.9119 68.5048 58.7205 65.6801 60.3376 63.7059C61.9548 61.7108 64.265 60.7132 67.2682 60.7132C68.8433 60.7132 70.219 60.9862 71.3951 61.5323C72.5711 62.0783 73.5477 62.8554 74.3248 63.8635C75.1019 64.8715 75.6794 66.0791 76.0574 67.4863C76.4355 68.8934 76.6245 70.458 76.6245 72.1801C76.6245 75.8554 75.8054 78.6907 74.1673 80.6858C72.5501 82.66 70.2505 83.6471 67.2682 83.6471C65.6721 83.6471 64.286 83.3741 63.1099 82.828C61.9338 82.282 60.9572 81.5049 60.1801 80.4968C59.4241 79.4887 58.857 78.2811 58.479 76.874C58.101 75.4669 57.9119 73.9023 57.9119 72.1801ZM62.4483 72.1801C62.4483 73.2932 62.5428 74.3223 62.7318 75.2674C62.9209 76.1915 63.2044 76.9895 63.5824 77.6616C63.9814 78.3337 64.4855 78.8587 65.0945 79.2367C65.7036 79.6148 66.4281 79.8038 67.2682 79.8038C68.8013 79.8038 69.9879 79.2052 70.828 78.0081C71.6681 76.811 72.0881 74.8684 72.0881 72.1801C72.0881 71.1091 71.9936 70.1115 71.8046 69.1874C71.6366 68.2633 71.3636 67.4548 70.9855 66.7617C70.6075 66.0686 70.1139 65.5331 69.5049 65.1551C68.8958 64.756 68.1503 64.5565 67.2682 64.5565C65.7351 64.5565 64.5485 65.1761 63.7084 66.4152C62.8683 67.6333 62.4483 69.5549 62.4483 72.1801ZM89.9991 67.4548V71.0461C89.9991 71.6971 90.0201 72.2642 90.0621 72.7472C90.1251 73.2092 90.2301 73.5978 90.3771 73.9128C90.5451 74.2068 90.7656 74.4273 91.0386 74.5743C91.3327 74.7214 91.7107 74.7949 92.1727 74.7949C92.7818 74.7949 93.3068 74.7214 93.7479 74.5743C94.2099 74.4273 94.5879 74.2488 94.882 74.0388V67.4548H98.9773V83.2061H94.882V77.0315C94.5669 77.2626 94.0839 77.5251 93.4328 77.8191C92.7818 78.0921 91.9102 78.2286 90.8181 78.2286C90.0411 78.2286 89.348 78.1446 88.739 77.9766C88.1299 77.8086 87.6154 77.5146 87.1953 77.0945C86.7753 76.6745 86.4498 76.118 86.2187 75.4249C86.0087 74.7319 85.9037 73.8603 85.9037 72.8102V67.4548H89.9991ZM115.166 81.8514C114.536 82.3555 113.675 82.786 112.583 83.143C111.512 83.4791 110.367 83.6471 109.149 83.6471C106.608 83.6471 104.749 82.912 103.573 81.4419C102.397 79.9508 101.809 77.9136 101.809 75.3304C101.809 72.5582 102.47 70.479 103.794 69.0929C105.117 67.7068 106.975 67.0137 109.369 67.0137C110.168 67.0137 110.945 67.1187 111.701 67.3287C112.457 67.5388 113.129 67.8853 113.717 68.3683C114.305 68.8514 114.777 69.5024 115.134 70.3215C115.491 71.1406 115.67 72.1591 115.67 73.3772C115.67 73.8183 115.638 74.2908 115.575 74.7949C115.533 75.2989 115.46 75.8239 115.355 76.37H105.904C105.967 77.6931 106.303 78.6907 106.912 79.3627C107.542 80.0348 108.55 80.3708 109.937 80.3708C110.798 80.3708 111.564 80.2448 112.236 79.9928C112.929 79.7198 113.454 79.4467 113.811 79.1737L115.166 81.8514ZM109.306 70.29C108.235 70.29 107.437 70.6155 106.912 71.2666C106.408 71.8966 106.104 72.7472 105.999 73.8183H111.858C111.942 72.6842 111.764 71.8126 111.323 71.2036C110.903 70.5945 110.231 70.29 109.306 70.29ZM132.045 75.992L132.297 72.7157H132.14L130.88 75.4249L127.919 80.3078H126.438L123.193 75.4249L121.996 72.7157H121.807L122.217 75.9605V83.2061H118.562V67.4548H122.815L126.438 73.3772L127.32 75.3619H127.446L128.36 73.3142L131.699 67.4548H135.983V83.2061H132.045V75.992ZM147.511 67.4863C148.247 67.4233 149.129 67.3602 150.158 67.2972C151.208 67.2342 152.331 67.2027 153.528 67.2027C155.839 67.2027 157.477 67.5388 158.443 68.2108C159.43 68.8619 159.924 69.849 159.924 71.1721C159.924 71.9071 159.713 72.6212 159.293 73.3142C158.873 74.0073 158.212 74.5113 157.309 74.8264V74.9524C158.443 75.2044 159.262 75.6559 159.766 76.307C160.27 76.937 160.522 77.7561 160.522 78.7642C160.522 80.3393 159.913 81.5154 158.695 82.2925C157.498 83.0695 155.566 83.4581 152.898 83.4581C152.016 83.4581 151.082 83.4266 150.095 83.3636C149.108 83.3216 148.247 83.2586 147.511 83.1746V67.4863ZM151.512 80.0558C151.806 80.0978 152.079 80.1293 152.331 80.1503C152.583 80.1713 152.898 80.1818 153.276 80.1818C154.411 80.1818 155.219 80.0243 155.702 79.7093C156.185 79.3942 156.427 78.9112 156.427 78.2601C156.427 77.7141 156.217 77.2731 155.797 76.937C155.398 76.58 154.673 76.4015 153.623 76.4015H151.512V80.0558ZM153.686 73.8813C154.358 73.8813 154.904 73.7238 155.324 73.4087C155.765 73.0727 155.986 72.6527 155.986 72.1486C155.986 71.6026 155.797 71.1931 155.419 70.92C155.062 70.626 154.4 70.479 153.434 70.479C152.951 70.479 152.562 70.4895 152.268 70.5105C151.995 70.5315 151.743 70.5525 151.512 70.5735V73.8813H153.686ZM167.512 79.7723C168.142 79.8983 168.741 79.9613 169.308 79.9613C170.253 79.9613 170.914 79.7933 171.292 79.4572C171.67 79.1002 171.859 78.5542 171.859 77.8191C171.859 77.1471 171.67 76.643 171.292 76.307C170.914 75.95 170.284 75.7714 169.402 75.7714C168.709 75.7714 168.079 75.8449 167.512 75.992V79.7723ZM167.512 73.0622C168.016 72.9782 168.52 72.9257 169.024 72.9047C169.549 72.8627 170.022 72.8417 170.442 72.8417C171.513 72.8417 172.405 72.9677 173.119 73.2197C173.833 73.4507 174.411 73.7868 174.852 74.2278C175.293 74.6688 175.608 75.1939 175.797 75.8029C175.986 76.391 176.081 77.0315 176.081 77.7246C176.081 78.6697 175.955 79.4992 175.703 80.2133C175.451 80.9274 175.041 81.5259 174.474 82.009C173.907 82.471 173.172 82.828 172.269 83.08C171.366 83.3111 170.253 83.4266 168.93 83.4266C167.732 83.4266 166.693 83.4056 165.811 83.3636C164.95 83.3216 164.152 83.2691 163.417 83.2061V67.4548H167.512V73.0622ZM177.876 67.4548H181.972V83.2061H177.876V67.4548ZM197.095 75.1414L192.369 67.4548H197.252L199.3 70.8255L200.182 73.0307L201.127 70.8255L203.269 67.4548H207.711L202.954 75.0154L208.026 83.2061H203.269L200.843 79.4257L199.898 77.0945L198.89 79.4257L196.465 83.2061H191.991L197.095 75.1414ZM208.992 75.3304C208.992 72.6632 209.643 70.6155 210.945 69.1874C212.247 67.7383 214.074 67.0137 216.426 67.0137C217.686 67.0137 218.778 67.2132 219.702 67.6123C220.626 68.0113 221.393 68.5783 222.002 69.3134C222.611 70.0275 223.063 70.899 223.357 71.9281C223.672 72.9572 223.829 74.0913 223.829 75.3304C223.829 77.9976 223.178 80.0558 221.876 81.5049C220.595 82.933 218.778 83.6471 216.426 83.6471C215.166 83.6471 214.074 83.4476 213.15 83.0485C212.226 82.6495 211.449 82.093 210.819 81.3789C210.21 80.6438 209.748 79.7618 209.433 78.7327C209.139 77.7036 208.992 76.5695 208.992 75.3304ZM213.213 75.3304C213.213 76.0235 213.276 76.664 213.402 77.2521C213.528 77.8401 213.717 78.3547 213.969 78.7957C214.221 79.2367 214.546 79.5833 214.946 79.8353C215.366 80.0663 215.859 80.1818 216.426 80.1818C217.497 80.1818 218.295 79.7933 218.82 79.0162C219.345 78.2391 219.608 77.0105 219.608 75.3304C219.608 73.8813 219.366 72.7157 218.883 71.8336C218.4 70.9305 217.581 70.479 216.426 70.479C215.418 70.479 214.63 70.857 214.063 71.6131C213.496 72.3692 213.213 73.6083 213.213 75.3304ZM237.763 71.0776H233.321V83.2061H229.1V71.0776H224.658V67.4548H237.763V71.0776ZM249.071 76.0235L249.229 73.7868H249.134L247.78 76.0865L242.172 83.2061H239.589V67.4548H243.684V74.9524L243.495 77.0945H243.621L244.913 74.8579L250.583 67.4548H253.167V83.2061H249.071V76.0235ZM268.096 71.0776H263.654V83.2061H259.433V71.0776H254.991V67.4548H268.096V71.0776ZM282.277 81.8514C281.647 82.3555 280.786 82.786 279.694 83.143C278.623 83.4791 277.478 83.6471 276.26 83.6471C273.719 83.6471 271.861 82.912 270.684 81.4419C269.508 79.9508 268.92 77.9136 268.92 75.3304C268.92 72.5582 269.582 70.479 270.905 69.0929C272.228 67.7068 274.087 67.0137 276.481 67.0137C277.279 67.0137 278.056 67.1187 278.812 67.3287C279.568 67.5388 280.24 67.8853 280.828 68.3683C281.416 68.8514 281.889 69.5024 282.246 70.3215C282.603 71.1406 282.781 72.1591 282.781 73.3772C282.781 73.8183 282.75 74.2908 282.687 74.7949C282.645 75.2989 282.571 75.8239 282.466 76.37H273.016C273.079 77.6931 273.415 78.6907 274.024 79.3627C274.654 80.0348 275.662 80.3708 277.048 80.3708C277.909 80.3708 278.676 80.2448 279.348 79.9928C280.041 79.7198 280.566 79.4467 280.923 79.1737L282.277 81.8514ZM276.418 70.29C275.347 70.29 274.549 70.6155 274.024 71.2666C273.52 71.8966 273.215 72.7472 273.11 73.8183H278.97C279.054 72.6842 278.875 71.8126 278.434 71.2036C278.014 70.5945 277.342 70.29 276.418 70.29ZM293.642 67.4548H296.634L297.107 69.3449H297.233C297.779 68.5468 298.42 67.9588 299.155 67.5808C299.911 67.2027 300.824 67.0137 301.895 67.0137C303.87 67.0137 305.35 67.6438 306.337 68.9039C307.324 70.143 307.818 72.1486 307.818 74.9209C307.818 76.265 307.66 77.4831 307.345 78.5752C307.03 79.6463 306.558 80.5598 305.928 81.3159C305.319 82.072 304.563 82.6495 303.66 83.0485C302.777 83.4476 301.759 83.6471 300.604 83.6471C299.953 83.6471 299.417 83.5946 298.997 83.4896C298.577 83.4056 298.157 83.2586 297.737 83.0485V89.5066H293.642V67.4548ZM300.667 70.479C299.869 70.479 299.239 70.6785 298.777 71.0776C298.336 71.4766 297.989 72.0751 297.737 72.8732V79.4257C298.031 79.6568 298.346 79.8458 298.682 79.9928C299.039 80.1188 299.501 80.1818 300.068 80.1818C301.244 80.1818 302.126 79.7723 302.714 78.9532C303.303 78.1131 303.597 76.7375 303.597 74.8264C303.597 73.4402 303.366 72.3692 302.903 71.6131C302.441 70.857 301.696 70.479 300.667 70.479ZM310.56 68.3683C311.4 67.9903 312.397 67.6963 313.553 67.4863C314.708 67.2552 315.915 67.1397 317.175 67.1397C318.267 67.1397 319.181 67.2762 319.916 67.5493C320.651 67.8013 321.229 68.1688 321.649 68.6519C322.09 69.1349 322.394 69.7124 322.562 70.3845C322.751 71.0566 322.846 71.8126 322.846 72.6527C322.846 73.5768 322.814 74.5113 322.751 75.4564C322.688 76.3805 322.646 77.2941 322.625 78.1971C322.625 79.1002 322.657 79.9823 322.72 80.8434C322.783 81.6834 322.94 82.4815 323.192 83.2376H319.853L319.192 81.0639H319.034C318.614 81.7149 318.026 82.282 317.27 82.765C316.535 83.2271 315.579 83.4581 314.403 83.4581C313.668 83.4581 313.007 83.3531 312.418 83.143C311.83 82.912 311.326 82.597 310.906 82.198C310.486 81.7779 310.161 81.2949 309.93 80.7489C309.699 80.1818 309.583 79.5518 309.583 78.8587C309.583 77.8926 309.793 77.084 310.213 76.433C310.654 75.7609 311.274 75.2254 312.072 74.8264C312.891 74.4063 313.857 74.1228 314.97 73.9758C316.104 73.8078 317.364 73.7553 318.751 73.8183C318.898 72.6422 318.814 71.8021 318.499 71.2981C318.183 70.773 317.48 70.5105 316.388 70.5105C315.569 70.5105 314.697 70.5945 313.773 70.7625C312.87 70.9305 312.124 71.1511 311.536 71.4241L310.56 68.3683ZM315.758 80.0873C316.577 80.0873 317.228 79.9088 317.711 79.5518C318.194 79.1737 318.551 78.7747 318.782 78.3547V76.307C318.131 76.244 317.501 76.2335 316.892 76.2755C316.304 76.3175 315.779 76.412 315.317 76.559C314.855 76.706 314.487 76.916 314.214 77.1891C313.941 77.4621 313.805 77.8086 313.805 78.2286C313.805 78.8167 313.973 79.2787 314.309 79.6148C314.666 79.9298 315.149 80.0873 315.758 80.0873ZM337.435 82.2295C336.804 82.6915 336.038 83.038 335.135 83.2691C334.253 83.5211 333.339 83.6471 332.394 83.6471C331.134 83.6471 330.063 83.4476 329.181 83.0485C328.32 82.6495 327.616 82.093 327.07 81.3789C326.524 80.6438 326.125 79.7618 325.873 78.7327C325.642 77.7036 325.527 76.5695 325.527 75.3304C325.527 72.6632 326.125 70.6155 327.322 69.1874C328.519 67.7383 330.262 67.0137 332.552 67.0137C333.707 67.0137 334.631 67.1082 335.324 67.2972C336.038 67.4863 336.678 67.7278 337.245 68.0218L336.269 71.3611C335.786 71.1301 335.303 70.9515 334.82 70.8255C334.358 70.6995 333.822 70.6365 333.213 70.6365C332.079 70.6365 331.218 71.0145 330.63 71.7706C330.042 72.5057 329.748 73.6923 329.748 75.3304C329.748 76.0025 329.821 76.622 329.968 77.1891C330.115 77.7561 330.336 78.2496 330.63 78.6697C330.924 79.0897 331.302 79.4257 331.764 79.6778C332.247 79.9088 332.804 80.0243 333.434 80.0243C334.127 80.0243 334.715 79.9403 335.198 79.7723C335.681 79.5833 336.111 79.3627 336.489 79.1107L337.435 82.2295ZM350.54 82.2295C349.91 82.6915 349.143 83.038 348.24 83.2691C347.358 83.5211 346.445 83.6471 345.5 83.6471C344.24 83.6471 343.168 83.4476 342.286 83.0485C341.425 82.6495 340.722 82.093 340.176 81.3789C339.63 80.6438 339.231 79.7618 338.979 78.7327C338.748 77.7036 338.632 76.5695 338.632 75.3304C338.632 72.6632 339.231 70.6155 340.428 69.1874C341.625 67.7383 343.368 67.0137 345.657 67.0137C346.812 67.0137 347.736 67.1082 348.429 67.2972C349.143 67.4863 349.784 67.7278 350.351 68.0218L349.375 71.3611C348.891 71.1301 348.408 70.9515 347.925 70.8255C347.463 70.6995 346.928 70.6365 346.319 70.6365C345.185 70.6365 344.324 71.0145 343.736 71.7706C343.147 72.5057 342.853 73.6923 342.853 75.3304C342.853 76.0025 342.927 76.622 343.074 77.1891C343.221 77.7561 343.442 78.2496 343.736 78.6697C344.03 79.0897 344.408 79.4257 344.87 79.6778C345.353 79.9088 345.909 80.0243 346.539 80.0243C347.232 80.0243 347.82 79.9403 348.303 79.7723C348.786 79.5833 349.217 79.3627 349.595 79.1107L350.54 82.2295ZM358.215 76.685H357.112V83.2061H353.017V67.4548H357.112V74.1648L358.089 73.7238L361.774 67.4548H366.153L362.342 73.4402L360.735 74.6373L362.499 75.8659L366.752 83.2061H362.058L358.215 76.685ZM368.335 68.3683C369.175 67.9903 370.173 67.6963 371.328 67.4863C372.483 67.2552 373.691 67.1397 374.951 67.1397C376.043 67.1397 376.956 67.2762 377.691 67.5493C378.426 67.8013 379.004 68.1688 379.424 68.6519C379.865 69.1349 380.17 69.7124 380.338 70.3845C380.527 71.0566 380.621 71.8126 380.621 72.6527C380.621 73.5768 380.59 74.5113 380.527 75.4564C380.464 76.3805 380.422 77.2941 380.401 78.1971C380.401 79.1002 380.432 79.9823 380.495 80.8434C380.558 81.6834 380.716 82.4815 380.968 83.2376H377.628L376.967 81.0639H376.809C376.389 81.7149 375.801 82.282 375.045 82.765C374.31 83.2271 373.355 83.4581 372.178 83.4581C371.443 83.4581 370.782 83.3531 370.194 83.143C369.606 82.912 369.102 82.597 368.682 82.198C368.262 81.7779 367.936 81.2949 367.705 80.7489C367.474 80.1818 367.359 79.5518 367.359 78.8587C367.359 77.8926 367.569 77.084 367.989 76.433C368.43 75.7609 369.049 75.2254 369.847 74.8264C370.666 74.4063 371.632 74.1228 372.745 73.9758C373.88 73.8078 375.14 73.7553 376.526 73.8183C376.673 72.6422 376.589 71.8021 376.274 71.2981C375.959 70.773 375.255 70.5105 374.163 70.5105C373.344 70.5105 372.472 70.5945 371.548 70.7625C370.645 70.9305 369.9 71.1511 369.312 71.4241L368.335 68.3683ZM373.533 80.0873C374.352 80.0873 375.003 79.9088 375.486 79.5518C375.969 79.1737 376.326 78.7747 376.557 78.3547V76.307C375.906 76.244 375.276 76.2335 374.667 76.2755C374.079 76.3175 373.554 76.412 373.092 76.559C372.63 76.706 372.262 76.916 371.989 77.1891C371.716 77.4621 371.58 77.8086 371.58 78.2286C371.58 78.8167 371.748 79.2787 372.084 79.6148C372.441 79.9298 372.924 80.0873 373.533 80.0873ZM385.696 76.685V73.8183H387.618C388.353 73.8183 388.951 73.6713 389.413 73.3772C389.896 73.0832 390.138 72.6947 390.138 72.2116C390.138 71.6446 389.928 71.2456 389.508 71.0145C389.088 70.7625 388.447 70.6365 387.586 70.6365C386.767 70.6365 386.043 70.7415 385.412 70.9515C384.782 71.1616 384.278 71.3821 383.9 71.6131L383.018 68.4943C383.648 68.1373 384.478 67.8328 385.507 67.5808C386.557 67.3077 387.67 67.1712 388.846 67.1712C390.652 67.1712 391.997 67.5073 392.879 68.1793C393.782 68.8514 394.233 69.8279 394.233 71.1091C394.233 71.4661 394.181 71.8336 394.076 72.2116C393.992 72.5687 393.845 72.9152 393.635 73.2512C393.425 73.5873 393.162 73.8918 392.847 74.1648C392.553 74.4168 392.196 74.6163 391.776 74.7634V74.8894C392.889 75.1414 393.677 75.5929 394.139 76.244C394.601 76.874 394.832 77.7246 394.832 78.7957C394.832 79.4677 394.695 80.0978 394.422 80.6858C394.149 81.2529 393.729 81.7464 393.162 82.1665C392.616 82.5865 391.923 82.9225 391.083 83.1746C390.243 83.4266 389.245 83.5526 388.09 83.5526C386.935 83.5526 385.927 83.4371 385.066 83.2061C384.226 82.954 383.522 82.6705 382.955 82.3555L383.837 79.1737C384.32 79.4467 384.898 79.6673 385.57 79.8353C386.263 80.0033 387.03 80.0873 387.87 80.0873C389.781 80.0873 390.736 79.4782 390.736 78.2601C390.736 77.7141 390.484 77.3151 389.98 77.063C389.497 76.811 388.584 76.685 387.24 76.685H385.696ZM397.561 68.3683C398.401 67.9903 399.399 67.6963 400.554 67.4863C401.709 67.2552 402.917 67.1397 404.177 67.1397C405.269 67.1397 406.182 67.2762 406.917 67.5493C407.653 67.8013 408.23 68.1688 408.65 68.6519C409.091 69.1349 409.396 69.7124 409.564 70.3845C409.753 71.0566 409.847 71.8126 409.847 72.6527C409.847 73.5768 409.816 74.5113 409.753 75.4564C409.69 76.3805 409.648 77.2941 409.627 78.1971C409.627 79.1002 409.658 79.9823 409.721 80.8434C409.784 81.6834 409.942 82.4815 410.194 83.2376H406.854L406.193 81.0639H406.035C405.615 81.7149 405.027 82.282 404.271 82.765C403.536 83.2271 402.581 83.4581 401.405 83.4581C400.669 83.4581 400.008 83.3531 399.42 83.143C398.832 82.912 398.328 82.597 397.908 82.198C397.488 81.7779 397.162 81.2949 396.931 80.7489C396.7 80.1818 396.585 79.5518 396.585 78.8587C396.585 77.8926 396.795 77.084 397.215 76.433C397.656 75.7609 398.275 75.2254 399.073 74.8264C399.892 74.4063 400.858 74.1228 401.972 73.9758C403.106 73.8078 404.366 73.7553 405.752 73.8183C405.899 72.6422 405.815 71.8021 405.5 71.2981C405.185 70.773 404.481 70.5105 403.389 70.5105C402.57 70.5105 401.699 70.5945 400.774 70.7625C399.871 70.9305 399.126 71.1511 398.538 71.4241L397.561 68.3683ZM402.759 80.0873C403.578 80.0873 404.229 79.9088 404.712 79.5518C405.195 79.1737 405.552 78.7747 405.783 78.3547V76.307C405.132 76.244 404.502 76.2335 403.893 76.2755C403.305 76.3175 402.78 76.412 402.318 76.559C401.856 76.706 401.489 76.916 401.215 77.1891C400.942 77.4621 400.806 77.8086 400.806 78.2286C400.806 78.8167 400.974 79.2787 401.31 79.6148C401.667 79.9298 402.15 80.0873 402.759 80.0873ZM424.625 71.0776H420.183V83.2061H415.962V71.0776H411.52V67.4548H424.625V71.0776ZM430.546 79.7723C431.176 79.8983 431.775 79.9613 432.342 79.9613C433.35 79.9613 434.075 79.7933 434.516 79.4572C434.978 79.1002 435.209 78.5542 435.209 77.8191C435.209 76.454 434.285 75.7714 432.437 75.7714C431.743 75.7714 431.113 75.8449 430.546 75.992V79.7723ZM430.546 73.0622C431.05 72.9782 431.554 72.9257 432.058 72.9047C432.584 72.8627 433.056 72.8417 433.476 72.8417C434.568 72.8417 435.492 72.9677 436.248 73.2197C437.004 73.4507 437.613 73.7868 438.075 74.2278C438.559 74.6688 438.905 75.1939 439.115 75.8029C439.325 76.391 439.43 77.0315 439.43 77.7246C439.43 79.6358 438.863 81.0639 437.729 82.009C436.595 82.954 434.673 83.4266 431.964 83.4266C430.767 83.4266 429.727 83.4056 428.845 83.3636C427.984 83.3216 427.186 83.2691 426.451 83.2061V67.4548H430.546V73.0622ZM444.383 76.6535C444.278 75.5614 444.331 74.6373 444.541 73.8813C444.751 73.1042 445.034 72.4427 445.391 71.8966C445.769 71.3296 446.19 70.8465 446.652 70.4475C447.135 70.0275 447.576 69.6284 447.975 69.2504C448.395 68.8724 448.741 68.4838 449.014 68.0848C449.287 67.6648 449.424 67.1712 449.424 66.6042C449.424 65.8691 449.214 65.2811 448.794 64.84C448.395 64.399 447.67 64.1785 446.62 64.1785C446.284 64.1785 445.927 64.2205 445.549 64.3045C445.171 64.3675 444.793 64.4725 444.415 64.6195C444.037 64.7455 443.669 64.903 443.312 65.0921C442.976 65.2601 442.672 65.4386 442.399 65.6276L440.824 62.6034C441.622 62.0573 442.535 61.6058 443.564 61.2487C444.614 60.8917 445.875 60.7132 447.345 60.7132C449.319 60.7132 450.862 61.1962 451.976 62.1623C453.089 63.1074 453.645 64.3885 453.645 66.0056C453.645 67.0767 453.498 67.9693 453.204 68.6834C452.931 69.3764 452.585 69.975 452.165 70.479C451.744 70.962 451.282 71.3926 450.778 71.7706C450.274 72.1486 449.812 72.5582 449.392 72.9992C448.972 73.4192 448.615 73.9128 448.321 74.4798C448.027 75.0469 447.88 75.7714 447.88 76.6535H444.383ZM443.753 81.1269C443.753 80.3918 443.984 79.8143 444.446 79.3942C444.908 78.9532 445.517 78.7327 446.274 78.7327C447.072 78.7327 447.702 78.9532 448.164 79.3942C448.626 79.8143 448.857 80.3918 448.857 81.1269C448.857 81.8619 448.626 82.45 448.164 82.891C447.702 83.3321 447.072 83.5526 446.274 83.5526C445.517 83.5526 444.908 83.3321 444.446 82.891C443.984 82.45 443.753 81.8619 443.753 81.1269Z" fill="black"/>
</svg>
