<svg width="102" height="95" viewBox="0 0 102 95" fill="none" xmlns="http://www.w3.org/2000/svg">
<g filter="url(#filter0_d)">
<path d="M75.0039 16.8206C73.8872 16.819 72.7849 17.0718 71.7805 17.5597V15.4101C71.7805 11.4735 68.5153 8.2721 64.5011 8.2721C63.3475 8.27356 62.2105 8.54655 61.1821 9.06897C60.6183 5.68225 57.6101 3.09241 54.0002 3.09241C49.988 3.09241 46.7228 6.29385 46.7228 10.2304V11.3879C45.7369 10.9165 44.6579 10.6721 43.5652 10.6727C39.5529 10.6727 36.2877 13.8761 36.2877 17.8107V37.0672C35.9451 36.5731 35.5705 36.0551 35.1581 35.5093C31.4347 30.5687 25.6176 29.5666 22.1492 31.4452C20.1052 32.5509 19.2505 34.565 19.9737 36.5731C20.926 39.2167 24.0457 46.3348 27.3448 53.8653C28.5202 56.5428 29.7115 59.2621 30.8271 61.8221C34.162 69.502 37.1304 73.4087 38.3775 74.857V82.8955C38.369 83.167 38.4151 83.4375 38.5132 83.6909C38.6112 83.9442 38.7591 84.1753 38.9482 84.3704C39.1373 84.5655 39.3636 84.7206 39.6138 84.8265C39.864 84.9325 40.1329 84.9871 40.4046 84.9871C40.6762 84.9871 40.9451 84.9325 41.1953 84.8265C41.4455 84.7206 41.6718 84.5655 41.8609 84.3704C42.05 84.1753 42.1979 83.9442 42.296 83.6909C42.394 83.4375 42.4401 83.167 42.4316 82.8955V74.0701C42.4303 73.7992 42.3754 73.5312 42.2701 73.2816C42.1648 73.032 42.0111 72.8057 41.818 72.6158C41.7861 72.5839 38.4891 69.2828 34.5426 60.2064C33.4289 57.6425 32.2336 54.9172 31.0562 52.2377C27.7811 44.771 24.6812 37.7186 23.7529 35.2603C23.8306 35.1208 24.4023 34.7204 25.5319 34.6507C26.4085 34.5949 29.4465 34.6765 31.9169 37.9537C33.1249 39.5735 34.2416 41.2596 35.2617 43.0039C35.7359 43.8008 36.1761 44.5259 36.6343 45.2072C36.6343 45.2172 36.6483 45.2232 36.6543 45.2331C36.6602 45.2431 36.7101 45.3029 36.7379 45.3387C36.7853 45.401 36.8365 45.4602 36.8913 45.516C36.9212 45.5459 36.9551 45.5738 36.987 45.6037C37.0502 45.6576 37.1167 45.7075 37.1862 45.7531L37.2858 45.8189C37.3711 45.8686 37.4596 45.9125 37.5508 45.9503L37.6125 45.9782C37.7325 46.0235 37.8566 46.0569 37.9831 46.0778H37.997C46.8264 47.5242 47.4619 52.0544 47.4918 52.3213C47.5309 52.8299 47.7604 53.3051 48.1345 53.6518C48.5086 53.9986 48.9998 54.1915 49.5099 54.192C49.5497 54.192 49.5895 54.192 49.6314 54.192C50.1678 54.1607 50.6698 53.9178 51.0273 53.5166C51.3847 53.1155 51.5684 52.5889 51.5379 52.0524C51.52 51.7436 50.9821 44.8208 40.3498 42.4142V17.7948C40.3498 16.0954 41.7981 14.7128 43.5731 14.7128C44.3245 14.7047 45.0543 14.9636 45.6326 15.4433C46.2109 15.9231 46.6001 16.5926 46.7308 17.3326V37.4417C46.7473 37.9683 46.9681 38.4678 47.3464 38.8345C47.7247 39.2012 48.2309 39.4062 48.7578 39.4062C49.2847 39.4062 49.7909 39.2012 50.1692 38.8345C50.5475 38.4678 50.7683 37.9683 50.7849 37.4417V10.2145C50.7849 8.51514 52.2312 7.13057 54.0082 7.13057C55.7852 7.13057 57.2316 8.51514 57.2316 10.2145V15.4101C57.2327 15.5244 57.244 15.6384 57.2654 15.7508V37.4417C57.282 37.9683 57.5027 38.4678 57.8811 38.8345C58.2594 39.2012 58.7656 39.4062 59.2925 39.4062C59.8194 39.4062 60.3255 39.2012 60.7039 38.8345C61.0822 38.4678 61.303 37.9683 61.3195 37.4417V15.4101C61.3195 15.3523 61.3076 15.3005 61.3036 15.2448C61.3952 13.6231 62.7918 12.3262 64.509 12.3262C66.2801 12.3242 67.7344 13.7187 67.7344 15.4101V38.1987C67.7259 38.4703 67.772 38.7408 67.87 38.9941C67.9681 39.2475 68.116 39.4786 68.3051 39.6737C68.4942 39.8688 68.7205 40.0239 68.9707 40.1298C69.2209 40.2358 69.4898 40.2903 69.7614 40.2903C70.0331 40.2903 70.302 40.2358 70.5522 40.1298C70.8024 40.0239 71.0287 39.8688 71.2178 39.6737C71.4068 39.4786 71.5548 39.2475 71.6528 38.9941C71.7509 38.7408 71.797 38.4703 71.7885 38.1987V23.9586C71.7885 22.2592 73.2348 20.8747 75.0118 20.8747C76.7889 20.8747 78.2332 22.2692 78.2332 23.9586V44.8526V59.4255C78.2332 67.7708 73.0256 69.9841 72.8244 70.0697C72.441 70.2165 72.1112 70.4763 71.8785 70.8145C71.6459 71.1528 71.5214 71.5538 71.5215 71.9643V82.8955C71.513 83.167 71.5592 83.4375 71.6572 83.6909C71.7552 83.9442 71.9032 84.1753 72.0922 84.3704C72.2813 84.5655 72.5076 84.7206 72.7578 84.8265C73.008 84.9325 73.2769 84.9871 73.5486 84.9871C73.8203 84.9871 74.0892 84.9325 74.3393 84.8265C74.5895 84.7206 74.8159 84.5655 75.0049 84.3704C75.194 84.1753 75.3419 83.9442 75.44 83.6909C75.538 83.4375 75.5841 83.167 75.5756 82.8955V73.1835C77.8507 71.789 82.2793 67.962 82.2873 59.4374V23.9765C82.2773 20.022 79.0161 16.8206 75.0039 16.8206Z" fill="#0A4551"/>
</g>
<defs>
<filter id="filter0_d" x="-4" y="-7" width="110" height="110" filterUnits="userSpaceOnUse" color-interpolation-filters="sRGB">
<feFlood flood-opacity="0" result="BackgroundImageFix"/>
<feColorMatrix in="SourceAlpha" type="matrix" values="0 0 0 0 0 0 0 0 0 0 0 0 0 0 0 0 0 0 127 0"/>
<feOffset dy="4"/>
<feGaussianBlur stdDeviation="2"/>
<feColorMatrix type="matrix" values="0 0 0 0 0 0 0 0 0 0 0 0 0 0 0 0 0 0 0.25 0"/>
<feBlend mode="normal" in2="BackgroundImageFix" result="effect1_dropShadow"/>
<feBlend mode="normal" in="SourceGraphic" in2="effect1_dropShadow" result="shape"/>
</filter>
</defs>
</svg>
