<svg width="28" height="28" viewBox="0 0 28 28" fill="none" xmlns="http://www.w3.org/2000/svg">
<g clip-path="url(#clip0)">
<path d="M26.4274 21.3834H23.4303C22.943 19.7617 21.4529 18.5698 19.6747 18.5698C17.8966 18.5698 16.4076 19.7617 15.9192 21.3834H1.66766C1.04642 21.3834 0.542236 21.8876 0.542236 22.5089C0.542236 23.1301 1.04642 23.6343 1.66766 23.6343H15.9191C16.4064 25.256 17.8965 26.4479 19.6747 26.4479C21.4528 26.4479 22.9418 25.256 23.4302 23.6343H26.4273C27.0497 23.6343 27.5527 23.1301 27.5527 22.5089C27.5527 21.8876 27.0497 21.3834 26.4274 21.3834ZM19.6747 24.197C18.744 24.197 17.9866 23.4396 17.9866 22.5089C17.9866 21.5781 18.744 20.8207 19.6747 20.8207C20.6055 20.8207 21.3629 21.5781 21.3629 22.5089C21.3629 23.4396 20.6054 24.197 19.6747 24.197Z" fill="#0D4552"/>
<path d="M26.4274 3.37633H23.4303C22.9418 1.75458 21.4529 0.562744 19.6747 0.562744C17.8966 0.562744 16.4076 1.75458 15.9191 3.37633H1.66766C1.04642 3.37633 0.542236 3.8805 0.542236 4.50175C0.542236 5.12299 1.04642 5.62717 1.66766 5.62717H15.9191C16.4076 7.24896 17.8965 8.4408 19.6747 8.4408C21.4529 8.4408 22.9419 7.24896 23.4303 5.62722H26.4274C27.0497 5.62722 27.5528 5.12304 27.5528 4.5018C27.5528 3.88056 27.0497 3.37633 26.4274 3.37633ZM19.6747 6.18991C18.744 6.18991 17.9866 5.4325 17.9866 4.50175C17.9866 3.57099 18.744 2.81359 19.6747 2.81359C20.6055 2.81359 21.3629 3.57099 21.3629 4.50175C21.3629 5.4325 20.6054 6.18991 19.6747 6.18991Z" fill="#0D4552"/>
<path d="M26.4274 12.38H12.1759C11.6875 10.7582 10.1985 9.56641 8.42035 9.56641C6.64219 9.56641 5.15318 10.7582 4.66477 12.38H1.66766C1.04642 12.38 0.542236 12.8842 0.542236 13.5054C0.542236 14.1267 1.04642 14.6308 1.66766 14.6308H4.66472C5.15318 16.2526 6.64214 17.4444 8.42029 17.4444C10.1985 17.4444 11.6875 16.2526 12.1759 14.6308H26.4273C27.0497 14.6308 27.5527 14.1267 27.5527 13.5054C27.5528 12.8842 27.0497 12.38 26.4274 12.38ZM8.42029 15.1936C7.48954 15.1936 6.73214 14.4362 6.73214 13.5054C6.73214 12.5747 7.48954 11.8173 8.42029 11.8173C9.35105 11.8173 10.1085 12.5747 10.1085 13.5054C10.1085 14.4362 9.35105 15.1936 8.42029 15.1936Z" fill="#0D4552"/>
</g>
<defs>
<clipPath id="clip0">
<rect width="27.0105" height="27.0105" fill="white" transform="translate(0.542236)"/>
</clipPath>
</defs>
</svg>
