<svg width="779" height="187" viewBox="0 0 779 187" fill="none" xmlns="http://www.w3.org/2000/svg">

<rect x="44.7344" y="29.3867" width="730.879" height="99.6291" fill="#332501"/>
<rect x="0.898438" y="60.4717" width="777.107" height="99.6291" fill="#E1AB02"/>
<circle cx="663.234" cy="110.685" r="74.5226" fill="white" stroke="black" stroke-width="2.3911"/>
<circle cx="662.834" cy="111.083" r="67.7478" fill="white" stroke="black" stroke-width="0.797033"/>
<path d="M635.29 138.429C635.29 138.107 635.164 137.848 634.912 137.652C634.664 137.456 634.328 137.358 633.903 137.358C633.506 137.358 633.186 137.453 632.943 137.645C632.705 137.832 632.586 138.079 632.586 138.387H630.134C630.134 137.827 630.293 137.325 630.611 136.881C630.933 136.438 631.386 136.092 631.97 135.844C632.553 135.592 633.198 135.466 633.903 135.466C635.117 135.466 636.061 135.721 636.733 136.23C637.41 136.739 637.749 137.451 637.749 138.366C637.749 138.833 637.611 139.261 637.336 139.648C637.065 140.031 636.689 140.335 636.208 140.559C636.759 140.755 637.179 141.054 637.469 141.456C637.763 141.853 637.91 142.348 637.91 142.941C637.91 143.856 637.546 144.585 636.817 145.126C636.089 145.663 635.117 145.932 633.903 145.932C632.778 145.932 631.843 145.668 631.101 145.14C630.358 144.608 629.987 143.884 629.987 142.969H632.453C632.453 143.272 632.588 143.529 632.859 143.739C633.13 143.945 633.478 144.048 633.903 144.048C634.361 144.048 634.732 143.94 635.017 143.725C635.302 143.51 635.444 143.23 635.444 142.885C635.444 142.38 635.323 142.025 635.08 141.82C634.837 141.61 634.482 141.505 634.015 141.505H632.705V139.683H634.099C634.893 139.66 635.29 139.242 635.29 138.429ZM648.901 148.307H646.694V145.799H641.139V148.3H638.863L638.688 143.907H639.409C639.787 143.655 640.091 143.223 640.32 142.611C640.553 141.995 640.719 141.112 640.817 139.964L641.132 135.599H648.074V143.907H649.16L648.901 148.307ZM642.19 143.907H645.623V137.498H643.451L643.262 140.048C643.122 141.701 642.765 142.987 642.19 143.907ZM652.467 142.338V145.799H650.008V135.599H654.078C654.858 135.599 655.547 135.744 656.144 136.034C656.747 136.318 657.212 136.727 657.538 137.26C657.87 137.787 658.036 138.387 658.036 139.06C658.036 140.055 657.679 140.851 656.964 141.449C656.254 142.042 655.278 142.338 654.036 142.338H652.467ZM652.467 140.44H654.078C654.554 140.44 654.916 140.321 655.164 140.083C655.416 139.844 655.542 139.508 655.542 139.074C655.542 138.598 655.414 138.217 655.157 137.932C654.9 137.647 654.55 137.502 654.106 137.498H652.467V140.44ZM663.899 143.893H660.53L659.941 145.799H657.314L661.055 135.599H663.367L667.136 145.799H664.495L663.899 143.893ZM661.118 141.995H663.311L662.211 138.457L661.118 141.995ZM667.885 145.799V135.599H671.549C672.861 135.599 673.858 135.84 674.54 136.321C675.227 136.802 675.57 137.5 675.57 138.415C675.57 138.943 675.448 139.394 675.206 139.767C674.963 140.141 674.605 140.417 674.134 140.594C674.666 140.734 675.075 140.996 675.36 141.379C675.645 141.762 675.787 142.229 675.787 142.78C675.787 143.779 675.469 144.531 674.834 145.035C674.204 145.535 673.267 145.789 672.025 145.799H667.885ZM670.344 141.463V143.907H671.955C672.399 143.907 672.74 143.807 672.978 143.606C673.216 143.401 673.335 143.114 673.335 142.745C673.335 141.895 672.912 141.467 672.067 141.463H670.344ZM670.344 139.851H671.626C672.163 139.847 672.546 139.749 672.775 139.557C673.004 139.366 673.118 139.083 673.118 138.71C673.118 138.28 672.994 137.972 672.747 137.785C672.499 137.593 672.1 137.498 671.549 137.498H670.344V139.851ZM679.605 139.109H680.873C681.681 139.109 682.395 139.247 683.016 139.522C683.637 139.798 684.114 140.188 684.445 140.692C684.782 141.192 684.95 141.766 684.95 142.415C684.95 143.419 684.576 144.234 683.829 144.86C683.086 145.486 682.087 145.799 680.831 145.799H677.139V135.599H679.605V139.109ZM688.144 145.799H685.692V135.599H688.144V145.799ZM679.605 141V143.907H680.866C681.365 143.907 681.76 143.767 682.05 143.487C682.344 143.207 682.491 142.845 682.491 142.401C682.491 141.981 682.346 141.642 682.057 141.386C681.767 141.129 681.365 141 680.852 141H679.605ZM695.983 141.477H692.116V143.907H696.683V145.799H689.657V135.599H696.697V137.498H692.116V139.648H695.983V141.477Z" fill="black"/>
<path d="M638.421 151.787L641.755 160.109L645.089 151.787H646.834V161.987H645.489V158.015L645.615 153.728L642.266 161.987H641.237L637.895 153.749L638.028 158.015V161.987H636.683V151.787H638.421ZM650.617 155.948H653.152C654.217 155.962 655.048 156.236 655.646 156.768C656.244 157.3 656.543 158.024 656.543 158.94C656.543 159.86 656.242 160.593 655.639 161.139C655.037 161.686 654.215 161.968 653.173 161.987H649.272V151.787H650.617V155.948ZM650.617 157.055V160.887H653.075C653.743 160.887 654.262 160.71 654.631 160.355C655.004 160 655.191 159.523 655.191 158.926C655.191 158.351 655.011 157.898 654.652 157.567C654.297 157.235 653.79 157.065 653.131 157.055H650.617ZM659.121 161.987H657.776V151.787H659.121V161.987ZM669.124 158.75C668.998 159.829 668.599 160.663 667.926 161.251C667.259 161.835 666.369 162.127 665.257 162.127C664.052 162.127 663.086 161.695 662.357 160.831C661.633 159.967 661.271 158.811 661.271 157.363V156.383C661.271 155.435 661.44 154.601 661.776 153.882C662.117 153.163 662.598 152.612 663.219 152.229C663.84 151.841 664.559 151.647 665.376 151.647C666.46 151.647 667.329 151.951 667.982 152.558C668.636 153.16 669.017 153.996 669.124 155.066H667.772C667.655 154.253 667.401 153.665 667.009 153.3C666.621 152.936 666.077 152.754 665.376 152.754C664.517 152.754 663.842 153.072 663.352 153.707C662.866 154.342 662.623 155.246 662.623 156.418V157.405C662.623 158.512 662.855 159.393 663.317 160.046C663.779 160.7 664.426 161.027 665.257 161.027C666.005 161.027 666.577 160.859 666.974 160.523C667.375 160.182 667.641 159.591 667.772 158.75H669.124ZM678.679 151.787V161.987H677.334V152.894H673.678L673.495 156.936C673.425 158.29 673.285 159.309 673.075 159.99C672.87 160.672 672.566 161.174 672.164 161.496C671.763 161.814 671.226 161.977 670.553 161.987H670.112V160.887L670.392 160.873C670.826 160.84 671.16 160.7 671.394 160.453C671.627 160.2 671.805 159.801 671.926 159.255C672.048 158.708 672.134 157.868 672.185 156.733L672.396 151.787H678.679ZM687.555 151.787H688.9V161.987H687.555V154.127L682.532 161.987H681.18V151.787H682.532V159.647L687.555 151.787Z" fill="black"/>
<path d="M655.769 113.195C655.118 113.213 654.547 112.733 654.455 112.076C654.358 111.39 654.821 110.756 655.495 110.625C654.752 106.415 652.724 104.095 650.582 101.645C648.914 99.7365 647.183 97.7542 645.818 94.8351C644.475 91.9616 643.738 88.9911 643.761 85.9063C643.79 82.8215 644.572 79.6452 646.275 76.3605C646.286 76.3376 646.298 76.3205 646.309 76.2977C648.543 72.5159 651.667 69.9909 655.146 68.5742C658.066 67.3803 661.236 66.9747 664.344 67.2603C667.44 67.5459 670.473 68.5171 673.124 70.0823C676.494 72.076 679.265 75.0352 680.79 78.7712C681.613 80.7935 682.173 83.05 682.241 85.5235C682.31 87.9857 681.887 90.642 680.75 93.4526C679.231 97.2172 677.22 99.5537 675.34 101.742C673.61 103.758 671.999 105.632 671.102 108.505C671.61 108.625 672.01 109.042 672.09 109.591C672.187 110.299 671.69 110.956 670.982 111.053L670.542 111.116C670.462 111.739 670.41 112.407 670.388 113.121L670.53 113.098C671.239 113.001 671.896 113.498 671.993 114.207C672.09 114.915 671.593 115.572 670.885 115.669L670.439 115.732C670.445 115.817 670.45 115.903 670.456 115.989C670.496 116.492 670.502 116.977 670.473 117.44L670.548 117.428C671.262 117.343 671.907 117.851 671.999 118.56C672.084 119.274 671.576 119.919 670.867 120.011L669.908 120.131C669.222 121.907 668 123.255 666.554 124.095C665.56 124.672 664.458 125.003 663.35 125.072C662.224 125.14 661.088 124.929 660.048 124.426C658.86 123.844 657.797 122.878 657.026 121.49C656.655 121.302 656.38 120.936 656.323 120.49C656.3 120.313 656.317 120.142 656.363 119.982C656.14 119.319 655.969 118.594 655.866 117.794L655.826 117.8C655.118 117.897 654.461 117.4 654.364 116.692C654.267 115.983 654.764 115.326 655.472 115.229L655.78 115.183C655.803 114.486 655.798 113.824 655.769 113.195ZM668.497 77.9372C668.828 77.9429 669.165 78.0057 669.491 78.1143C670.176 78.3485 670.833 78.7998 671.342 79.3996C671.85 80.0051 672.216 80.7649 672.307 81.6104C672.347 81.9817 672.336 82.3644 672.261 82.7586C672.616 83.0842 672.913 83.4441 673.135 83.8326C673.501 84.4553 673.69 85.1465 673.667 85.8491C673.644 86.5575 673.415 87.2659 672.93 87.9171C672.638 88.3113 672.256 88.6826 671.776 89.0196C671.81 90.0708 671.496 91.019 670.987 91.7503C670.422 92.5672 669.611 93.1327 668.76 93.3098C668.554 94.0467 668.057 94.698 667.429 95.1493C666.606 95.7377 665.532 96.0119 664.549 95.7434C663.875 95.5606 663.258 95.1321 662.813 94.4009C662.276 95.2121 661.567 95.6463 660.825 95.8005C659.876 96.0004 658.894 95.7091 658.151 95.1321C657.58 94.6865 657.146 94.0639 656.974 93.3555C656.7 93.3327 656.42 93.2755 656.152 93.1841C655.483 92.9556 654.838 92.5215 654.341 91.9388C653.838 91.3561 653.467 90.6249 653.353 89.808C653.296 89.4024 653.301 88.9739 653.387 88.5398C653.078 88.2541 652.816 87.9342 652.599 87.5858C652.216 86.9631 651.999 86.2604 652.01 85.5349C652.022 84.8037 652.25 84.0668 652.753 83.3813C653.033 82.9985 653.404 82.6329 653.867 82.2959C653.861 82.1816 653.861 82.0674 653.867 81.9588C653.907 80.8963 654.295 79.9651 654.861 79.2739C654.878 79.2568 654.889 79.2396 654.906 79.2225C655.472 78.5541 656.209 78.1085 656.974 77.9772C657.003 77.8743 657.032 77.7772 657.066 77.6744C657.334 76.9546 657.877 76.3376 658.545 75.9492C659.219 75.555 660.031 75.3836 660.819 75.5493C661.527 75.6978 662.207 76.1034 662.733 76.8461C663.258 76.1034 663.938 75.6978 664.646 75.5493C665.366 75.4008 666.103 75.5264 666.737 75.8464C667.36 76.1605 667.897 76.669 668.223 77.2745C668.348 77.4916 668.44 77.7087 668.497 77.9372ZM668.714 91.6531C669.068 91.5046 669.411 91.219 669.674 90.8362C670.045 90.2935 670.256 89.568 670.153 88.7511L670.148 88.7283V88.7112C670.108 88.4027 670.251 88.0828 670.536 87.9114C671.033 87.62 671.393 87.3001 671.644 86.9574C671.919 86.5804 672.056 86.1862 672.067 85.7977C672.079 85.4036 671.964 85.0094 671.747 84.6381C671.547 84.2953 671.262 83.9811 670.913 83.7126C670.616 83.5184 670.479 83.1414 670.599 82.7872C670.719 82.433 670.748 82.096 670.713 81.7703C670.656 81.2676 670.433 80.8049 670.119 80.4279C669.799 80.0508 669.394 79.7709 668.982 79.6281C668.805 79.571 668.628 79.5367 668.462 79.5367C668.337 79.9137 668.131 80.2908 667.823 80.6564C667.537 80.9934 667.034 81.0391 666.697 80.7535C666.36 80.4679 666.315 79.9651 666.6 79.6281C667.069 79.074 667.074 78.4913 666.829 78.04C666.657 77.7201 666.372 77.4516 666.035 77.2859C665.709 77.1203 665.343 77.0517 664.995 77.126C664.487 77.2288 663.995 77.6573 663.675 78.5484V92.0873C663.738 92.1787 663.778 92.2815 663.795 92.4015C663.978 93.5212 664.452 94.0582 664.984 94.2067C665.475 94.3438 666.046 94.1781 666.503 93.8525C666.949 93.5326 667.269 93.0699 667.274 92.5843C667.28 92.0302 666.857 91.3961 665.732 90.8191C665.338 90.6192 665.178 90.1336 665.378 89.7394C665.578 89.3453 666.063 89.1853 666.457 89.3852C667.731 90.0308 668.428 90.8362 668.714 91.6531ZM657.049 79.611C656.723 79.7195 656.403 79.9423 656.135 80.2508C656.123 80.2679 656.112 80.2793 656.1 80.2908C655.735 80.7363 655.489 81.3305 655.461 82.016C655.455 82.1988 655.461 82.393 655.489 82.5929C655.529 82.8957 655.392 83.2099 655.118 83.387C654.638 83.6841 654.284 84.004 654.038 84.341C653.741 84.7409 653.61 85.1636 653.604 85.5635C653.598 85.9748 653.724 86.3804 653.952 86.7517C654.147 87.0659 654.409 87.3516 654.735 87.5915C655.026 87.7914 655.158 88.1627 655.044 88.5112C654.918 88.8882 654.889 89.2539 654.935 89.5966C655.004 90.0879 655.232 90.5335 655.546 90.8991C655.86 91.2647 656.255 91.5332 656.66 91.6703C656.792 91.716 656.923 91.7445 657.049 91.756C657.34 90.9048 658.071 90.065 659.402 89.3852C659.796 89.1853 660.276 89.3395 660.482 89.7337C660.682 90.1279 660.528 90.6077 660.133 90.8134C658.94 91.4189 658.494 92.1044 658.494 92.6986C658.494 93.1499 658.757 93.5783 659.14 93.8754C659.528 94.1781 660.031 94.3324 660.499 94.2352C661.088 94.1153 661.659 93.5554 661.962 92.333C661.979 92.253 662.013 92.1787 662.053 92.1102V79.2511C662.036 79.2225 662.019 79.1882 662.002 79.154L661.996 79.1425L661.99 79.1311L661.984 79.1197V79.114V79.1083L661.979 79.0968V79.0911V79.0854C661.973 79.0626 661.967 79.0397 661.962 79.0169C661.659 77.8001 661.088 77.2459 660.499 77.126C660.116 77.046 659.705 77.1374 659.357 77.3431C659.002 77.5487 658.717 77.8686 658.58 78.2342C658.403 78.7141 658.511 79.3082 659.122 79.8737C659.448 80.1765 659.465 80.6792 659.168 81.0048C658.865 81.3305 658.363 81.3476 658.037 81.0505C657.54 80.5821 657.22 80.0965 657.049 79.611ZM657.214 82.2559C657.529 81.9474 658.037 81.9474 658.351 82.2673C658.66 82.5815 658.66 83.0899 658.34 83.4041C657.786 83.9468 657.494 84.6552 657.466 85.3693C657.437 86.1119 657.677 86.8774 658.185 87.5058C658.465 87.8485 658.408 88.357 658.066 88.6312C657.723 88.9111 657.214 88.854 656.94 88.5112C656.18 87.5686 655.82 86.4261 655.866 85.3064C655.906 84.1925 656.352 83.1014 657.214 82.2559ZM666.794 83.1014C666.435 82.8386 666.355 82.3416 666.617 81.9817C666.88 81.6218 667.377 81.5418 667.737 81.8046C667.874 81.9074 668.005 82.0103 668.125 82.1188C669.028 82.9357 669.525 84.0097 669.616 85.1236C669.708 86.2262 669.399 87.363 668.702 88.317C668.691 88.3341 668.674 88.357 668.657 88.3741C668.56 88.5055 668.462 88.6198 668.371 88.7283C668.074 89.0596 667.566 89.0825 667.234 88.7854C666.903 88.4884 666.88 87.9799 667.177 87.6486C667.251 87.5629 667.314 87.4887 667.371 87.4144C667.383 87.3973 667.389 87.3858 667.4 87.3687C667.863 86.7289 668.068 85.9748 668.011 85.2436C667.954 84.5238 667.634 83.8326 667.051 83.307C666.971 83.2385 666.886 83.1699 666.794 83.1014ZM631.805 88.5169C631.136 88.5341 630.582 88.0142 630.559 87.3458C630.536 86.6775 631.062 86.1233 631.73 86.1005L636.7 85.9291C637.369 85.9063 637.923 86.4318 637.946 87.1002C637.969 87.7686 637.443 88.3227 636.775 88.3455L631.805 88.5169ZM693.786 83.5984C694.449 83.5298 695.043 84.0154 695.112 84.6781C695.18 85.3407 694.695 85.9348 694.032 86.0034L689.085 86.5232C688.422 86.5918 687.828 86.1062 687.76 85.4435C687.691 84.7809 688.177 84.1868 688.839 84.1182L693.786 83.5984ZM684.778 63.3357C685.149 62.7816 685.897 62.6331 686.451 63.0044C687.006 63.3757 687.154 64.1241 686.783 64.6782L684.018 68.8141C683.647 69.3683 682.898 69.5168 682.344 69.1455C681.79 68.7741 681.641 68.0258 682.013 67.4717L684.778 63.3357ZM663.481 56.0693C663.498 55.4009 664.052 54.8754 664.715 54.8925C665.383 54.9096 665.909 55.4638 665.892 56.1264L665.766 61.0964C665.749 61.7648 665.195 62.2903 664.532 62.2732C663.864 62.2561 663.338 61.7019 663.355 61.0393L663.481 56.0693ZM638.488 63.7642C637.997 63.3072 637.974 62.5417 638.426 62.0561C638.883 61.5648 639.648 61.542 640.134 61.9933L643.773 65.3866C644.264 65.8436 644.287 66.6091 643.835 67.0946C643.378 67.5859 642.613 67.6088 642.127 67.1575L638.488 63.7642ZM657.911 110.276L668.474 108.78C669.382 104.952 671.359 102.65 673.501 100.165C675.26 98.1198 677.134 95.9376 678.505 92.5443C679.511 90.0593 679.882 87.7286 679.825 85.5806C679.768 83.4384 679.276 81.4619 678.545 79.6738C677.231 76.4576 674.826 73.8984 671.896 72.1617C669.548 70.7736 666.869 69.911 664.132 69.6653C661.407 69.414 658.625 69.7738 656.06 70.8193C653.056 72.0475 650.354 74.2297 648.411 77.5144C646.903 80.4393 646.206 83.2385 646.183 85.9291C646.16 88.6369 646.817 91.259 648.011 93.8125C649.228 96.4175 650.851 98.2684 652.404 100.051C654.821 102.821 657.112 105.443 657.911 110.276ZM668.045 111.459L658.18 112.858C658.208 113.487 658.22 114.144 658.208 114.841L667.948 113.458C667.96 112.756 667.988 112.087 668.045 111.459ZM658.26 117.457C658.328 117.983 658.431 118.462 658.563 118.908L668.017 117.743C668.08 117.251 668.091 116.732 668.045 116.177V116.166L668.04 116.069L658.26 117.457ZM659.905 121.364C660.271 121.747 660.676 122.044 661.105 122.25C661.762 122.57 662.487 122.701 663.201 122.661C663.932 122.616 664.669 122.393 665.338 122.004C665.966 121.639 666.532 121.13 666.983 120.49L659.905 121.364Z" fill="black"/>
<path d="M56.6144 104.701H48.5498V113.932H44.2339V91.8798H48.5498V100.858H56.6144V91.8798H60.9303V113.932H56.6144V104.701ZM64.5647 99.0939C65.4047 98.7159 66.4023 98.4219 67.5574 98.2118C68.7125 97.9808 69.9201 97.8653 71.1802 97.8653C72.2723 97.8653 73.1859 98.0018 73.9209 98.2748C74.656 98.5269 75.2335 98.8944 75.6536 99.3774C76.0946 99.8605 76.3991 100.438 76.5671 101.11C76.7562 101.782 76.8507 102.538 76.8507 103.378C76.8507 104.302 76.8192 105.237 76.7562 106.182C76.6932 107.106 76.6511 108.02 76.6301 108.923C76.6301 109.826 76.6617 110.708 76.7247 111.569C76.7877 112.409 76.9452 113.207 77.1972 113.963H73.8579L73.1964 111.789H73.0389C72.6188 112.441 72.0308 113.008 71.2747 113.491C70.5396 113.953 69.5841 114.184 68.408 114.184C67.6729 114.184 67.0114 114.079 66.4233 113.869C65.8353 113.638 65.3312 113.323 64.9112 112.924C64.4911 112.504 64.1656 112.02 63.9346 111.474C63.7036 110.907 63.5881 110.277 63.5881 109.584C63.5881 108.618 63.7981 107.81 64.2181 107.159C64.6592 106.487 65.2787 105.951 66.0768 105.552C66.8958 105.132 67.8619 104.848 68.975 104.701C70.1091 104.533 71.3692 104.481 72.7553 104.544C72.9023 103.368 72.8183 102.528 72.5033 102.024C72.1883 101.499 71.4847 101.236 70.3926 101.236C69.5736 101.236 68.702 101.32 67.7779 101.488C66.8748 101.656 66.1293 101.877 65.5412 102.15L64.5647 99.0939ZM69.7626 110.813C70.5816 110.813 71.2327 110.634 71.7157 110.277C72.1988 109.899 72.5558 109.5 72.7868 109.08V107.033C72.1358 106.97 71.5057 106.959 70.8967 107.001C70.3086 107.043 69.7836 107.138 69.3215 107.285C68.8595 107.432 68.492 107.642 68.219 107.915C67.9459 108.188 67.8094 108.534 67.8094 108.954C67.8094 109.542 67.9774 110.004 68.3135 110.34C68.6705 110.655 69.1535 110.813 69.7626 110.813ZM80.2874 113.932V98.1803H84.3827V110.309H88.3206V98.1803H92.4159V110.309H96.3537V98.1803H100.449V113.932H80.2874ZM113.52 106.749L113.677 104.512H113.583L112.228 106.812L106.621 113.932H104.037V98.1803H108.133V105.678L107.944 107.82H108.07L109.361 105.583L115.032 98.1803H117.615V113.932H113.52V106.749ZM140.324 112.955C139.694 113.417 138.927 113.764 138.024 113.995C137.142 114.247 136.228 114.373 135.283 114.373C134.023 114.373 132.952 114.173 132.07 113.774C131.209 113.375 130.505 112.819 129.959 112.104C129.413 111.369 129.014 110.487 128.762 109.458C128.531 108.429 128.416 107.295 128.416 106.056C128.416 103.389 129.014 101.341 130.211 99.913C131.408 98.4639 133.152 97.7393 135.441 97.7393C136.596 97.7393 137.52 97.8338 138.213 98.0228C138.927 98.2118 139.568 98.4534 140.135 98.7474L139.158 102.087C138.675 101.856 138.192 101.677 137.709 101.551C137.247 101.425 136.711 101.362 136.102 101.362C134.968 101.362 134.107 101.74 133.519 102.496C132.931 103.231 132.637 104.418 132.637 106.056C132.637 106.728 132.711 107.348 132.858 107.915C133.005 108.482 133.225 108.975 133.519 109.395C133.813 109.815 134.191 110.151 134.653 110.403C135.136 110.634 135.693 110.75 136.323 110.75C137.016 110.75 137.604 110.666 138.087 110.498C138.57 110.309 139.001 110.088 139.379 109.836L140.324 112.955ZM151.873 101.803H146.896V113.932H142.8V98.1803H155.968V113.932H151.873V101.803ZM169.049 106.749L169.207 104.512H169.112L167.758 106.812L162.15 113.932H159.567V98.1803H163.662V105.678L163.473 107.82H163.599L164.891 105.583L170.561 98.1803H173.145V113.932H169.049V106.749ZM181.931 107.411H180.829V113.932H176.733V98.1803H180.829V104.89L181.805 104.449L185.491 98.1803H189.87L186.058 104.166L184.451 105.363L186.216 106.592L190.468 113.932H185.775L181.931 107.411ZM204.347 112.577C203.717 113.081 202.856 113.512 201.764 113.869C200.693 114.205 199.548 114.373 198.33 114.373C195.789 114.373 193.93 113.638 192.754 112.167C191.578 110.676 190.99 108.639 190.99 106.056C190.99 103.284 191.652 101.205 192.975 99.8185C194.298 98.4324 196.157 97.7393 198.551 97.7393C199.349 97.7393 200.126 97.8443 200.882 98.0543C201.638 98.2643 202.31 98.6109 202.898 99.0939C203.486 99.577 203.959 100.228 204.316 101.047C204.673 101.866 204.851 102.885 204.851 104.103C204.851 104.544 204.82 105.016 204.757 105.52C204.715 106.024 204.641 106.55 204.536 107.096H195.086C195.149 108.419 195.485 109.416 196.094 110.088C196.724 110.76 197.732 111.096 199.118 111.096C199.979 111.096 200.746 110.97 201.418 110.718C202.111 110.445 202.636 110.172 202.993 109.899L204.347 112.577ZM198.488 101.016C197.417 101.016 196.619 101.341 196.094 101.992C195.59 102.622 195.285 103.473 195.18 104.544H201.04C201.124 103.41 200.945 102.538 200.504 101.929C200.084 101.32 199.412 101.016 198.488 101.016ZM207.744 98.1803H210.736L211.209 100.07H211.335C211.881 99.2724 212.522 98.6844 213.257 98.3063C214.013 97.9283 214.926 97.7393 215.997 97.7393C217.972 97.7393 219.452 98.3694 220.439 99.6295C221.426 100.869 221.92 102.874 221.92 105.646C221.92 106.991 221.762 108.209 221.447 109.301C221.132 110.372 220.66 111.285 220.03 112.041C219.421 112.798 218.665 113.375 217.762 113.774C216.879 114.173 215.861 114.373 214.706 114.373C214.055 114.373 213.519 114.32 213.099 114.215C212.679 114.131 212.259 113.984 211.839 113.774V120.232H207.744V98.1803ZM214.769 101.205C213.971 101.205 213.341 101.404 212.879 101.803C212.438 102.202 212.091 102.801 211.839 103.599V110.151C212.133 110.382 212.448 110.571 212.784 110.718C213.141 110.844 213.603 110.907 214.17 110.907C215.346 110.907 216.228 110.498 216.816 109.679C217.405 108.839 217.699 107.463 217.699 105.552C217.699 104.166 217.468 103.095 217.005 102.339C216.543 101.583 215.798 101.205 214.769 101.205ZM228.852 110.498C229.482 110.624 230.08 110.687 230.647 110.687C231.592 110.687 232.254 110.519 232.632 110.183C233.01 109.826 233.199 109.28 233.199 108.545C233.199 107.873 233.01 107.369 232.632 107.033C232.254 106.676 231.624 106.497 230.742 106.497C230.049 106.497 229.419 106.571 228.852 106.718V110.498ZM228.852 103.788C229.356 103.704 229.86 103.651 230.364 103.63C230.889 103.588 231.361 103.567 231.781 103.567C232.853 103.567 233.745 103.693 234.459 103.945C235.173 104.176 235.751 104.512 236.192 104.953C236.633 105.394 236.948 105.919 237.137 106.529C237.326 107.117 237.42 107.757 237.42 108.45C237.42 109.395 237.294 110.225 237.042 110.939C236.79 111.653 236.381 112.252 235.814 112.735C235.247 113.197 234.512 113.554 233.609 113.806C232.706 114.037 231.592 114.152 230.269 114.152C229.072 114.152 228.033 114.131 227.151 114.089C226.289 114.047 225.491 113.995 224.756 113.932V98.1803H228.852V103.788ZM239.216 98.1803H243.311V113.932H239.216V98.1803ZM264.357 106.749L264.514 104.512H264.42L263.065 106.812L257.458 113.932H254.875V98.1803H258.97V105.678L258.781 107.82H258.907L260.199 105.583L265.869 98.1803H268.452V113.932H264.357V106.749ZM281.647 107.411V104.544H283.569C284.304 104.544 284.902 104.397 285.364 104.103C285.847 103.809 286.089 103.42 286.089 102.937C286.089 102.37 285.879 101.971 285.459 101.74C285.039 101.488 284.398 101.362 283.537 101.362C282.718 101.362 281.994 101.467 281.364 101.677C280.734 101.887 280.229 102.108 279.851 102.339L278.969 99.2199C279.599 98.8629 280.429 98.5584 281.458 98.3063C282.508 98.0333 283.621 97.8968 284.797 97.8968C286.604 97.8968 287.948 98.2328 288.83 98.9049C289.733 99.577 290.184 100.554 290.184 101.835C290.184 102.192 290.132 102.559 290.027 102.937C289.943 103.294 289.796 103.641 289.586 103.977C289.376 104.313 289.113 104.617 288.798 104.89C288.504 105.142 288.147 105.342 287.727 105.489V105.615C288.84 105.867 289.628 106.319 290.09 106.97C290.552 107.6 290.783 108.45 290.783 109.521C290.783 110.193 290.646 110.823 290.373 111.411C290.1 111.978 289.68 112.472 289.113 112.892C288.567 113.312 287.874 113.648 287.034 113.9C286.194 114.152 285.196 114.278 284.041 114.278C282.886 114.278 281.878 114.163 281.017 113.932C280.177 113.68 279.473 113.396 278.906 113.081L279.788 109.899C280.271 110.172 280.849 110.393 281.521 110.561C282.214 110.729 282.981 110.813 283.821 110.813C285.732 110.813 286.688 110.204 286.688 108.986C286.688 108.44 286.435 108.041 285.931 107.789C285.448 107.537 284.535 107.411 283.191 107.411H281.647ZM293.512 99.0939C294.352 98.7159 295.35 98.4219 296.505 98.2118C297.66 97.9808 298.868 97.8653 300.128 97.8653C301.22 97.8653 302.133 98.0018 302.869 98.2748C303.604 98.5269 304.181 98.8944 304.601 99.3774C305.042 99.8605 305.347 100.438 305.515 101.11C305.704 101.782 305.798 102.538 305.798 103.378C305.798 104.302 305.767 105.237 305.704 106.182C305.641 107.106 305.599 108.02 305.578 108.923C305.578 109.826 305.609 110.708 305.672 111.569C305.735 112.409 305.893 113.207 306.145 113.963H302.806L302.144 111.789H301.986C301.566 112.441 300.978 113.008 300.222 113.491C299.487 113.953 298.532 114.184 297.356 114.184C296.621 114.184 295.959 114.079 295.371 113.869C294.783 113.638 294.279 113.323 293.859 112.924C293.439 112.504 293.113 112.02 292.882 111.474C292.651 110.907 292.536 110.277 292.536 109.584C292.536 108.618 292.746 107.81 293.166 107.159C293.607 106.487 294.226 105.951 295.024 105.552C295.843 105.132 296.81 104.848 297.923 104.701C299.057 104.533 300.317 104.481 301.703 104.544C301.85 103.368 301.766 102.528 301.451 102.024C301.136 101.499 300.432 101.236 299.34 101.236C298.521 101.236 297.65 101.32 296.726 101.488C295.822 101.656 295.077 101.877 294.489 102.15L293.512 99.0939ZM298.71 110.813C299.529 110.813 300.18 110.634 300.663 110.277C301.146 109.899 301.503 109.5 301.734 109.08V107.033C301.083 106.97 300.453 106.959 299.844 107.001C299.256 107.043 298.731 107.138 298.269 107.285C297.807 107.432 297.44 107.642 297.167 107.915C296.894 108.188 296.757 108.534 296.757 108.954C296.757 109.542 296.925 110.004 297.261 110.34C297.618 110.655 298.101 110.813 298.71 110.813ZM318.308 101.803H313.33V113.932H309.235V98.1803H322.403V113.932H318.308V101.803ZM335.484 106.749L335.641 104.512H335.547L334.192 106.812L328.585 113.932H326.002V98.1803H330.097V105.678L329.908 107.82H330.034L331.325 105.583L336.996 98.1803H339.579V113.932H335.484V106.749ZM354.32 112.955C353.69 113.417 352.923 113.764 352.02 113.995C351.138 114.247 350.225 114.373 349.279 114.373C348.019 114.373 346.948 114.173 346.066 113.774C345.205 113.375 344.502 112.819 343.956 112.104C343.41 111.369 343.01 110.487 342.758 109.458C342.527 108.429 342.412 107.295 342.412 106.056C342.412 103.389 343.01 101.341 344.208 99.913C345.405 98.4639 347.148 97.7393 349.437 97.7393C350.592 97.7393 351.516 97.8338 352.209 98.0228C352.923 98.2118 353.564 98.4534 354.131 98.7474L353.154 102.087C352.671 101.856 352.188 101.677 351.705 101.551C351.243 101.425 350.708 101.362 350.099 101.362C348.964 101.362 348.103 101.74 347.515 102.496C346.927 103.231 346.633 104.418 346.633 106.056C346.633 106.728 346.707 107.348 346.854 107.915C347.001 108.482 347.221 108.975 347.515 109.395C347.809 109.815 348.187 110.151 348.649 110.403C349.132 110.634 349.689 110.75 350.319 110.75C351.012 110.75 351.6 110.666 352.083 110.498C352.566 110.309 352.997 110.088 353.375 109.836L354.32 112.955ZM366.279 106.749L366.436 104.512H366.342L364.987 106.812L359.38 113.932H356.797V98.1803H360.892V105.678L360.703 107.82H360.829L362.121 105.583L367.791 98.1803H370.374V113.932H366.279V106.749ZM381.931 98.2118C382.666 98.1488 383.548 98.0858 384.577 98.0228C385.627 97.9598 386.751 97.9283 387.948 97.9283C390.258 97.9283 391.896 98.2643 392.862 98.9364C393.849 99.5875 394.343 100.575 394.343 101.898C394.343 102.633 394.133 103.347 393.713 104.04C393.293 104.733 392.631 105.237 391.728 105.552V105.678C392.862 105.93 393.681 106.382 394.185 107.033C394.69 107.663 394.942 108.482 394.942 109.49C394.942 111.065 394.332 112.241 393.114 113.018C391.917 113.795 389.985 114.184 387.318 114.184C386.436 114.184 385.501 114.152 384.514 114.089C383.527 114.047 382.666 113.984 381.931 113.9V98.2118ZM385.932 110.781C386.226 110.823 386.499 110.855 386.751 110.876C387.003 110.897 387.318 110.907 387.696 110.907C388.83 110.907 389.639 110.75 390.122 110.435C390.605 110.12 390.846 109.637 390.846 108.986C390.846 108.44 390.636 107.999 390.216 107.663C389.817 107.306 389.093 107.127 388.042 107.127H385.932V110.781ZM388.105 104.607C388.778 104.607 389.324 104.449 389.744 104.134C390.185 103.798 390.405 103.378 390.405 102.874C390.405 102.328 390.216 101.919 389.838 101.646C389.481 101.352 388.82 101.205 387.853 101.205C387.37 101.205 386.982 101.215 386.688 101.236C386.415 101.257 386.163 101.278 385.932 101.299V104.607H388.105ZM401.931 110.498C402.561 110.624 403.16 110.687 403.727 110.687C404.672 110.687 405.334 110.519 405.712 110.183C406.09 109.826 406.279 109.28 406.279 108.545C406.279 107.873 406.09 107.369 405.712 107.033C405.334 106.676 404.704 106.497 403.822 106.497C403.129 106.497 402.498 106.571 401.931 106.718V110.498ZM401.931 103.788C402.435 103.704 402.94 103.651 403.444 103.63C403.969 103.588 404.441 103.567 404.861 103.567C405.932 103.567 406.825 103.693 407.539 103.945C408.253 104.176 408.83 104.512 409.272 104.953C409.713 105.394 410.028 105.919 410.217 106.529C410.406 107.117 410.5 107.757 410.5 108.45C410.5 109.395 410.374 110.225 410.122 110.939C409.87 111.653 409.461 112.252 408.893 112.735C408.326 113.197 407.591 113.554 406.688 113.806C405.785 114.037 404.672 114.152 403.349 114.152C402.152 114.152 401.112 114.131 400.23 114.089C399.369 114.047 398.571 113.995 397.836 113.932V98.1803H401.931V103.788ZM412.296 98.1803H416.391V113.932H412.296V98.1803ZM431.138 112.955C430.508 113.417 429.742 113.764 428.839 113.995C427.957 114.247 427.043 114.373 426.098 114.373C424.838 114.373 423.767 114.173 422.885 113.774C422.024 113.375 421.32 112.819 420.774 112.104C420.228 111.369 419.829 110.487 419.577 109.458C419.346 108.429 419.23 107.295 419.23 106.056C419.23 103.389 419.829 101.341 421.026 99.913C422.223 98.4639 423.966 97.7393 426.255 97.7393C427.41 97.7393 428.335 97.8338 429.028 98.0228C429.742 98.2118 430.382 98.4534 430.949 98.7474L429.973 102.087C429.49 101.856 429.007 101.677 428.524 101.551C428.062 101.425 427.526 101.362 426.917 101.362C425.783 101.362 424.922 101.74 424.334 102.496C423.746 103.231 423.452 104.418 423.452 106.056C423.452 106.728 423.525 107.348 423.672 107.915C423.819 108.482 424.04 108.975 424.334 109.395C424.628 109.815 425.006 110.151 425.468 110.403C425.951 110.634 426.507 110.75 427.137 110.75C427.831 110.75 428.419 110.666 428.902 110.498C429.385 110.309 429.815 110.088 430.193 109.836L431.138 112.955ZM444.802 101.803H440.36V113.932H436.139V101.803H431.697V98.1803H444.802V101.803ZM451.839 107.033L452.406 109.49H452.595L453.004 107.001L455.398 98.1803H459.62L454.831 112.388C454.432 113.564 454.044 114.635 453.666 115.601C453.309 116.588 452.91 117.439 452.469 118.153C452.028 118.867 451.534 119.413 450.988 119.791C450.463 120.19 449.833 120.39 449.098 120.39C448.006 120.39 447.134 120.211 446.483 119.854L447.239 116.578C447.554 116.704 447.869 116.767 448.184 116.767C448.667 116.767 449.129 116.557 449.571 116.137C450.033 115.738 450.379 115.003 450.61 113.932L444.026 98.1803H448.94L451.839 107.033ZM470.222 101.803H465.244V113.932H461.149V98.1803H474.317V113.932H470.222V101.803ZM486.484 101.803H483.365C483.239 103.294 483.092 104.775 482.924 106.245C482.756 107.715 482.483 109.038 482.105 110.214C481.748 111.369 481.255 112.315 480.625 113.05C479.995 113.764 479.176 114.121 478.167 114.121C476.949 114.121 476.088 113.963 475.584 113.648L476.088 110.246C476.424 110.372 476.739 110.435 477.033 110.435C477.453 110.435 477.821 110.256 478.136 109.899C478.451 109.542 478.714 108.902 478.924 107.978C479.155 107.054 479.333 105.804 479.459 104.229C479.606 102.633 479.711 100.617 479.774 98.1803H490.58V113.932H486.484V101.803ZM506.729 112.577C506.099 113.081 505.238 113.512 504.146 113.869C503.075 114.205 501.93 114.373 500.712 114.373C498.171 114.373 496.312 113.638 495.136 112.167C493.96 110.676 493.372 108.639 493.372 106.056C493.372 103.284 494.034 101.205 495.357 99.8185C496.68 98.4324 498.539 97.7393 500.933 97.7393C501.731 97.7393 502.508 97.8443 503.264 98.0543C504.02 98.2643 504.692 98.6109 505.28 99.0939C505.868 99.577 506.341 100.228 506.698 101.047C507.055 101.866 507.233 102.885 507.233 104.103C507.233 104.544 507.202 105.016 507.139 105.52C507.097 106.024 507.023 106.55 506.918 107.096H497.468C497.531 108.419 497.867 109.416 498.476 110.088C499.106 110.76 500.114 111.096 501.5 111.096C502.361 111.096 503.127 110.97 503.8 110.718C504.493 110.445 505.018 110.172 505.375 109.899L506.729 112.577ZM500.87 101.016C499.799 101.016 499.001 101.341 498.476 101.992C497.972 102.622 497.667 103.473 497.562 104.544H503.421C503.506 103.41 503.327 102.538 502.886 101.929C502.466 101.32 501.794 101.016 500.87 101.016ZM519.356 107.726H514.221V113.932H510.126V98.1803H514.221V104.103H519.356V98.1803H523.451V113.932H519.356V107.726ZM536.528 106.749L536.686 104.512H536.591L535.237 106.812L529.629 113.932H527.046V98.1803H531.141V105.678L530.952 107.82H531.078L532.37 105.583L538.04 98.1803H540.624V113.932H536.528V106.749ZM553.695 106.749L553.852 104.512H553.758L552.403 106.812L546.796 113.932H544.212V98.1803H548.308V105.678L548.119 107.82H548.245L549.536 105.583L555.207 98.1803H557.79V113.932H553.695V106.749ZM549.316 91.7538C549.463 92.5729 549.704 93.1504 550.04 93.4865C550.397 93.8225 550.849 93.9905 551.395 93.9905C551.983 93.9905 552.445 93.8225 552.781 93.4865C553.138 93.1504 553.38 92.5834 553.506 91.7853L556.624 92.5729C556.372 93.938 555.753 94.9566 554.766 95.6286C553.779 96.2797 552.624 96.6052 551.301 96.6052C550.649 96.6052 550.019 96.5317 549.41 96.3847C548.801 96.2377 548.255 96.0067 547.772 95.6916C547.289 95.3556 546.88 94.9356 546.544 94.4315C546.208 93.9275 545.977 93.3079 545.851 92.5729L549.316 91.7538Z" fill="black"/>
</svg>
