<svg width="553" height="131" viewBox="0 0 553 131" fill="none" xmlns="http://www.w3.org/2000/svg">
<path d="M-2.19648e-06 80L120 27.9998L533.5 27.9998L533.5 130.249L120 130.249L-2.19648e-06 80Z" fill="#332501"/>
<path d="M19 52.5L139 0.499819L552.5 0.499832L552.5 102.749L139 102.749L19 52.5Z" fill="#E1AB02"/>
<path d="M107.199 41.0394C107.199 42.2042 106.982 43.3804 106.548 44.568C106.137 45.7556 105.6 46.9204 104.937 48.0624C104.298 49.2043 103.579 50.312 102.779 51.3854C102.003 52.436 101.238 53.4067 100.484 54.2974L98.6682 55.702V55.8733L101.135 55.3937H107.712V59.1621H93.2896V56.8668C93.8377 56.2958 94.4544 55.6335 95.1396 54.8798C95.8247 54.1033 96.5099 53.2925 97.1951 52.4475C97.9031 51.5796 98.5883 50.6889 99.2506 49.7753C99.9129 48.8617 100.507 47.9482 101.032 47.0346C101.557 46.0982 101.968 45.1961 102.265 44.3282C102.585 43.4603 102.745 42.6381 102.745 41.8616C102.745 40.9252 102.471 40.1601 101.923 39.5663C101.397 38.9496 100.552 38.6413 99.3876 38.6413C98.6568 38.6413 97.9031 38.8012 97.1266 39.1209C96.3729 39.4178 95.7334 39.8061 95.2081 40.2857L93.4266 37.1339C94.3174 36.4031 95.3223 35.8207 96.4414 35.3868C97.5833 34.93 98.9194 34.7016 100.45 34.7016C101.432 34.7016 102.334 34.8386 103.156 35.1127C103.978 35.3868 104.686 35.7864 105.28 36.3117C105.874 36.837 106.342 37.4994 106.685 38.2987C107.027 39.0752 107.199 39.9888 107.199 41.0394ZM111.802 56.9011C111.802 56.1017 112.054 55.4736 112.556 55.0168C113.058 54.5372 113.721 54.2974 114.543 54.2974C115.411 54.2974 116.096 54.5372 116.598 55.0168C117.101 55.4736 117.352 56.1017 117.352 56.9011C117.352 57.7004 117.101 58.3399 116.598 58.8195C116.096 59.2991 115.411 59.539 114.543 59.539C113.721 59.539 113.058 59.2991 112.556 58.8195C112.054 58.3399 111.802 57.7004 111.802 56.9011ZM133.066 48.9188H131.833V59.1621H127.139V35.1812H131.833V45.8013L132.929 45.3217L139.541 35.1812H144.885L137.897 45.2532L136.047 46.555L137.965 47.8911L145.947 59.1621H140.158L133.066 48.9188ZM148.178 43.0264C149.092 42.6153 150.176 42.2955 151.433 42.0671C152.689 41.8159 154.002 41.6903 155.372 41.6903C156.56 41.6903 157.553 41.8388 158.353 42.1357C159.152 42.4097 159.78 42.8094 160.237 43.3347C160.717 43.86 161.048 44.4881 161.231 45.2189C161.436 45.9498 161.539 46.772 161.539 47.6855C161.539 48.6904 161.505 49.7068 161.436 50.7345C161.368 51.7394 161.322 52.7329 161.299 53.715C161.299 54.6971 161.333 55.6563 161.402 56.5927C161.47 57.5063 161.642 58.3742 161.916 59.1964H158.284L157.565 56.8325H157.394C156.937 57.5405 156.297 58.1572 155.475 58.6825C154.676 59.1849 153.637 59.4362 152.358 59.4362C151.558 59.4362 150.839 59.322 150.199 59.0936C149.56 58.8424 149.012 58.4998 148.555 58.0658C148.098 57.6091 147.744 57.0838 147.493 56.49C147.242 55.8733 147.116 55.1881 147.116 54.4344C147.116 53.3839 147.344 52.5046 147.801 51.7965C148.281 51.0657 148.955 50.4833 149.822 50.0494C150.713 49.5926 151.764 49.2843 152.974 49.1244C154.208 48.9417 155.578 48.8846 157.085 48.9531C157.245 47.6741 157.154 46.7606 156.811 46.2124C156.469 45.6414 155.703 45.356 154.516 45.356C153.625 45.356 152.677 45.4473 151.672 45.63C150.69 45.8127 149.88 46.0525 149.24 46.3495L148.178 43.0264ZM153.831 55.7705C154.721 55.7705 155.429 55.5764 155.955 55.1881C156.48 54.777 156.868 54.3431 157.12 53.8863V51.6595C156.411 51.591 155.726 51.5796 155.064 51.6253C154.425 51.6709 153.854 51.7737 153.351 51.9336C152.849 52.0935 152.449 52.3218 152.152 52.6187C151.855 52.9157 151.707 53.2925 151.707 53.7493C151.707 54.3888 151.889 54.8912 152.255 55.2566C152.643 55.5992 153.168 55.7705 153.831 55.7705ZM170.929 52.0706H169.73V59.1621H165.276V42.0329H169.73V49.3299L170.792 48.8503L174.8 42.0329H179.562L175.417 48.542L173.67 49.8438L175.588 51.1799L180.213 59.1621H175.108L170.929 52.0706ZM190.702 42.0671C191.502 41.9986 192.461 41.9301 193.58 41.8616C194.722 41.7931 195.944 41.7588 197.246 41.7588C199.758 41.7588 201.539 42.1242 202.59 42.8551C203.664 43.5631 204.2 44.6365 204.2 46.0754C204.2 46.8747 203.972 47.6513 203.515 48.405C203.058 49.1586 202.339 49.7068 201.357 50.0494V50.1864C202.59 50.4605 203.481 50.9515 204.029 51.6595C204.577 52.3447 204.851 53.2354 204.851 54.3317C204.851 56.0446 204.189 57.3236 202.864 58.1686C201.562 59.0137 199.461 59.4362 196.561 59.4362C195.601 59.4362 194.585 59.4019 193.512 59.3334C192.438 59.2877 191.502 59.2192 190.702 59.1279V42.0671ZM195.053 55.7363C195.373 55.7819 195.67 55.8162 195.944 55.839C196.218 55.8619 196.561 55.8733 196.972 55.8733C198.205 55.8733 199.084 55.702 199.61 55.3594C200.135 55.0168 200.398 54.4915 200.398 53.7835C200.398 53.1897 200.169 52.7101 199.712 52.3447C199.278 51.9564 198.49 51.7623 197.349 51.7623H195.053V55.7363ZM197.417 49.0216C198.148 49.0216 198.742 48.8503 199.199 48.5077C199.678 48.1423 199.918 47.6855 199.918 47.1374C199.918 46.5436 199.712 46.0982 199.301 45.8013C198.913 45.4816 198.194 45.3217 197.143 45.3217C196.618 45.3217 196.195 45.3331 195.875 45.356C195.579 45.3788 195.304 45.4016 195.053 45.4245V49.0216H197.417ZM212.453 55.4279C213.138 55.565 213.789 55.6335 214.405 55.6335C215.433 55.6335 216.152 55.4508 216.564 55.0854C216.975 54.6971 217.18 54.1033 217.18 53.3039C217.18 52.5731 216.975 52.0249 216.564 51.6595C216.152 51.2712 215.467 51.0771 214.508 51.0771C213.754 51.0771 213.069 51.1571 212.453 51.3169V55.4279ZM212.453 48.1309C213.001 48.0395 213.549 47.9824 214.097 47.9596C214.668 47.9139 215.182 47.8911 215.639 47.8911C216.803 47.8911 217.774 48.0281 218.551 48.3022C219.327 48.5534 219.955 48.9188 220.435 49.3985C220.914 49.8781 221.257 50.449 221.462 51.1114C221.668 51.7509 221.771 52.4475 221.771 53.2011C221.771 54.2289 221.634 55.131 221.36 55.9076C221.086 56.6841 220.64 57.335 220.024 57.8603C219.407 58.3627 218.608 58.751 217.626 59.0251C216.643 59.2763 215.433 59.4019 213.994 59.4019C212.692 59.4019 211.562 59.3791 210.603 59.3334C209.666 59.2877 208.798 59.2306 207.999 59.1621V42.0329H212.453V48.1309ZM223.724 42.0329H228.177V59.1621H223.724V42.0329ZM244.623 50.3919L239.484 42.0329H244.794L247.021 45.6985L247.98 48.0966L249.008 45.6985L251.338 42.0329H256.168L250.995 50.2549L256.511 59.1621H251.338L248.7 55.0511L247.672 52.516L246.576 55.0511L243.938 59.1621H239.073L244.623 50.3919ZM257.561 50.5975C257.561 47.697 258.269 45.4702 259.685 43.9171C261.101 42.3412 263.088 41.5533 265.646 41.5533C267.016 41.5533 268.204 41.7702 269.209 42.2042C270.213 42.6381 271.047 43.2548 271.709 44.0541C272.372 44.8307 272.863 45.7785 273.183 46.8976C273.525 48.0167 273.696 49.25 273.696 50.5975C273.696 53.498 272.988 55.7363 271.572 57.3122C270.179 58.8652 268.204 59.6417 265.646 59.6417C264.275 59.6417 263.088 59.4248 262.083 58.9908C261.078 58.5569 260.233 57.9516 259.548 57.1751C258.885 56.3758 258.383 55.4165 258.04 54.2974C257.721 53.1783 257.561 51.945 257.561 50.5975ZM262.151 50.5975C262.151 51.3512 262.22 52.0478 262.357 52.6873C262.494 53.3268 262.699 53.8863 262.974 54.3659C263.248 54.8455 263.602 55.2224 264.036 55.4965C264.492 55.7477 265.029 55.8733 265.646 55.8733C266.81 55.8733 267.678 55.4508 268.249 54.6057C268.82 53.7607 269.106 52.4246 269.106 50.5975C269.106 49.0216 268.843 47.754 268.318 46.7948C267.793 45.8127 266.902 45.3217 265.646 45.3217C264.549 45.3217 263.693 45.7328 263.076 46.555C262.46 47.3772 262.151 48.7247 262.151 50.5975ZM288.849 45.9726H284.018V59.1621H279.428V45.9726H274.597V42.0329H288.849V45.9726ZM301.147 51.3512L301.318 48.9188H301.215L299.742 51.4197L293.644 59.1621H290.835V42.0329H295.288V50.1864L295.083 52.516H295.22L296.624 50.0836L302.791 42.0329H305.6V59.1621H301.147V51.3512ZM321.836 45.9726H317.006V59.1621H312.415V45.9726H307.584V42.0329H321.836V45.9726ZM337.258 57.689C336.572 58.2371 335.636 58.7053 334.448 59.0936C333.284 59.459 332.039 59.6417 330.714 59.6417C327.951 59.6417 325.929 58.8424 324.651 57.2436C323.372 55.6221 322.732 53.4067 322.732 50.5975C322.732 47.5828 323.451 45.3217 324.89 43.8143C326.329 42.307 328.35 41.5533 330.954 41.5533C331.822 41.5533 332.667 41.6675 333.489 41.8959C334.311 42.1242 335.042 42.5011 335.682 43.0264C336.321 43.5517 336.835 44.2597 337.223 45.1504C337.612 46.0411 337.806 47.1488 337.806 48.4735C337.806 48.9531 337.771 49.467 337.703 50.0151C337.657 50.5632 337.577 51.1342 337.463 51.728H327.186C327.254 53.1669 327.62 54.2517 328.282 54.9826C328.967 55.7134 330.063 56.0788 331.571 56.0788C332.507 56.0788 333.341 55.9418 334.072 55.6677C334.825 55.3708 335.396 55.0739 335.784 54.777L337.258 57.689ZM330.886 45.1161C329.721 45.1161 328.853 45.4702 328.282 46.1782C327.734 46.8633 327.403 47.7883 327.288 48.9531H333.66C333.752 47.7198 333.558 46.772 333.078 46.1096C332.621 45.4473 331.89 45.1161 330.886 45.1161ZM351.397 48.8846H357.77C357.655 47.7426 357.279 46.8633 356.639 46.2467C356 45.63 355.052 45.3217 353.796 45.3217C352.928 45.3217 352.163 45.4245 351.5 45.63C350.838 45.8356 350.256 46.0754 349.753 46.3495L348.554 43.1292C350.061 42.0786 352.094 41.5533 354.652 41.5533C357.21 41.5533 359.117 42.3184 360.373 43.8486C361.629 45.356 362.257 47.6056 362.257 50.5975C362.257 53.6122 361.549 55.8733 360.133 57.3807C358.717 58.888 356.776 59.6417 354.309 59.6417C353.236 59.6417 352.151 59.5275 351.055 59.2991C349.959 59.0936 349.091 58.7967 348.451 58.4084L349.548 54.9141C350.073 55.211 350.689 55.4508 351.397 55.6335C352.128 55.7934 352.859 55.8733 353.59 55.8733C355.052 55.8733 356.091 55.565 356.708 54.9483C357.324 54.3317 357.69 53.3724 357.804 52.0706H351.397V48.8846ZM377.406 45.9726H372.575V59.1621H367.984V45.9726H363.154V42.0329H377.406V45.9726ZM378.302 50.5975C378.302 47.697 379.01 45.4702 380.426 43.9171C381.842 42.3412 383.829 41.5533 386.387 41.5533C387.757 41.5533 388.945 41.7702 389.949 42.2042C390.954 42.6381 391.788 43.2548 392.45 44.0541C393.113 44.8307 393.604 45.7785 393.923 46.8976C394.266 48.0167 394.437 49.25 394.437 50.5975C394.437 53.498 393.729 55.7363 392.313 57.3122C390.92 58.8652 388.945 59.6417 386.387 59.6417C385.016 59.6417 383.829 59.4248 382.824 58.9908C381.819 58.5569 380.974 57.9516 380.289 57.1751C379.626 56.3758 379.124 55.4165 378.781 54.2974C378.461 53.1783 378.302 51.945 378.302 50.5975ZM382.892 50.5975C382.892 51.3512 382.961 52.0478 383.098 52.6873C383.235 53.3268 383.44 53.8863 383.714 54.3659C383.989 54.8455 384.343 55.2224 384.776 55.4965C385.233 55.7477 385.77 55.8733 386.387 55.8733C387.551 55.8733 388.419 55.4508 388.99 54.6057C389.561 53.7607 389.847 52.4246 389.847 50.5975C389.847 49.0216 389.584 47.754 389.059 46.7948C388.533 45.8127 387.643 45.3217 386.387 45.3217C385.29 45.3217 384.434 45.7328 383.817 46.555C383.201 47.3772 382.892 48.7247 382.892 50.5975ZM418.317 58.1001C417.632 58.6026 416.798 58.9794 415.816 59.2306C414.857 59.5047 413.863 59.6417 412.835 59.6417C411.465 59.6417 410.3 59.4248 409.341 58.9908C408.405 58.5569 407.64 57.9516 407.046 57.1751C406.452 56.3758 406.018 55.4165 405.744 54.2974C405.493 53.1783 405.367 51.945 405.367 50.5975C405.367 47.697 406.018 45.4702 407.32 43.9171C408.622 42.3412 410.517 41.5533 413.007 41.5533C414.263 41.5533 415.268 41.656 416.022 41.8616C416.798 42.0671 417.495 42.3298 418.111 42.6495L417.049 46.2809C416.524 46.0297 415.999 45.8356 415.473 45.6985C414.971 45.5615 414.389 45.493 413.726 45.493C412.493 45.493 411.556 45.9041 410.917 46.7263C410.278 47.5257 409.958 48.8161 409.958 50.5975C409.958 51.3283 410.038 52.0021 410.198 52.6187C410.357 53.2354 410.597 53.7721 410.917 54.2289C411.237 54.6857 411.648 55.0511 412.15 55.3252C412.676 55.5764 413.281 55.702 413.966 55.702C414.72 55.702 415.359 55.6107 415.884 55.4279C416.41 55.2224 416.878 54.9826 417.289 54.7085L418.317 58.1001ZM438.237 63.0676H434.983L434.469 59.1621H422.958L422.444 63.0676H419.19V55.2224H421.211C421.394 54.9712 421.622 54.5486 421.896 53.9548C422.193 53.3382 422.478 52.5046 422.752 51.454C423.049 50.4034 423.301 49.1015 423.506 47.5485C423.712 45.9954 423.814 44.1569 423.814 42.0329H435.736V55.2224H438.237V63.0676ZM431.283 55.4279V45.8013H427.686C427.64 46.6235 427.56 47.5028 427.446 48.4392C427.332 49.3528 427.183 50.2435 427.001 51.1114C426.841 51.9793 426.647 52.79 426.418 53.5437C426.19 54.2974 425.939 54.9255 425.664 55.4279H431.283ZM454.385 57.689C453.7 58.2371 452.764 58.7053 451.576 59.0936C450.411 59.459 449.167 59.6417 447.842 59.6417C445.078 59.6417 443.057 58.8424 441.778 57.2436C440.499 55.6221 439.86 53.4067 439.86 50.5975C439.86 47.5828 440.579 45.3217 442.018 43.8143C443.457 42.307 445.478 41.5533 448.082 41.5533C448.95 41.5533 449.795 41.6675 450.617 41.8959C451.439 42.1242 452.17 42.5011 452.809 43.0264C453.449 43.5517 453.963 44.2597 454.351 45.1504C454.739 46.0411 454.933 47.1488 454.933 48.4735C454.933 48.9531 454.899 49.467 454.831 50.0151C454.785 50.5632 454.705 51.1342 454.591 51.728H444.313C444.382 53.1669 444.747 54.2517 445.41 54.9826C446.095 55.7134 447.191 56.0788 448.698 56.0788C449.635 56.0788 450.468 55.9418 451.199 55.6677C451.953 55.3708 452.524 55.0739 452.912 54.777L454.385 57.689ZM448.013 45.1161C446.848 45.1161 445.981 45.4702 445.41 46.1782C444.861 46.8633 444.53 47.7883 444.416 48.9531H450.788C450.88 47.7198 450.685 46.772 450.206 46.1096C449.749 45.4473 449.018 45.1161 448.013 45.1161ZM467.029 45.9726H463.638C463.5 47.5942 463.341 49.2043 463.158 50.803C462.975 52.4018 462.678 53.8406 462.267 55.1196C461.879 56.3758 461.342 57.4035 460.657 58.2029C459.972 58.9794 459.081 59.3677 457.985 59.3677C456.66 59.3677 455.724 59.1964 455.176 58.8538L455.724 55.1539C456.089 55.2909 456.432 55.3594 456.752 55.3594C457.208 55.3594 457.608 55.1653 457.951 54.777C458.293 54.3888 458.579 53.6922 458.807 52.6873C459.058 51.6824 459.252 50.3234 459.389 48.6105C459.549 46.8747 459.664 44.6822 459.732 42.0329H471.483V59.1621H467.029V45.9726ZM475.239 43.0264C476.153 42.6153 477.237 42.2955 478.494 42.0671C479.75 41.8159 481.063 41.6903 482.433 41.6903C483.621 41.6903 484.614 41.8388 485.414 42.1357C486.213 42.4097 486.841 42.8094 487.298 43.3347C487.778 43.86 488.109 44.4881 488.292 45.2189C488.497 45.9498 488.6 46.772 488.6 47.6855C488.6 48.6904 488.566 49.7068 488.497 50.7345C488.429 51.7394 488.383 52.7329 488.36 53.715C488.36 54.6971 488.394 55.6563 488.463 56.5927C488.531 57.5063 488.703 58.3742 488.977 59.1964H485.345L484.626 56.8325H484.455C483.998 57.5405 483.358 58.1572 482.536 58.6825C481.737 59.1849 480.698 59.4362 479.419 59.4362C478.619 59.4362 477.9 59.322 477.26 59.0936C476.621 58.8424 476.073 58.4998 475.616 58.0658C475.159 57.6091 474.805 57.0838 474.554 56.49C474.303 55.8733 474.177 55.1881 474.177 54.4344C474.177 53.3839 474.405 52.5046 474.862 51.7965C475.342 51.0657 476.016 50.4833 476.883 50.0494C477.774 49.5926 478.825 49.2843 480.035 49.1244C481.269 48.9417 482.639 48.8846 484.146 48.9531C484.306 47.6741 484.215 46.7606 483.872 46.2124C483.53 45.6414 482.765 45.356 481.577 45.356C480.686 45.356 479.738 45.4473 478.733 45.63C477.751 45.8127 476.941 46.0525 476.301 46.3495L475.239 43.0264ZM480.892 55.7705C481.782 55.7705 482.49 55.5764 483.016 55.1881C483.541 54.777 483.929 54.3431 484.181 53.8863V51.6595C483.473 51.591 482.787 51.5796 482.125 51.6253C481.486 51.6709 480.915 51.7737 480.412 51.9336C479.91 52.0935 479.51 52.3218 479.213 52.6187C478.916 52.9157 478.768 53.2925 478.768 53.7493C478.768 54.3888 478.95 54.8912 479.316 55.2566C479.704 55.5992 480.229 55.7705 480.892 55.7705ZM504.67 45.9726H499.84V59.1621H495.249V45.9726H490.419V42.0329H504.67V45.9726ZM511.11 55.4279C511.795 55.565 512.446 55.6335 513.063 55.6335C514.159 55.6335 514.947 55.4508 515.426 55.0854C515.929 54.6971 516.18 54.1033 516.18 53.3039C516.18 51.8194 515.175 51.0771 513.165 51.0771C512.412 51.0771 511.726 51.1571 511.11 51.3169V55.4279ZM511.11 48.1309C511.658 48.0395 512.206 47.9824 512.754 47.9596C513.325 47.9139 513.839 47.8911 514.296 47.8911C515.483 47.8911 516.488 48.0281 517.311 48.3022C518.133 48.5534 518.795 48.9188 519.298 49.3985C519.823 49.8781 520.2 50.449 520.428 51.1114C520.657 51.7509 520.771 52.4475 520.771 53.2011C520.771 55.2795 520.154 56.8325 518.921 57.8603C517.687 58.888 515.598 59.4019 512.651 59.4019C511.35 59.4019 510.219 59.3791 509.26 59.3334C508.323 59.2877 507.456 59.2306 506.656 59.1621V42.0329H511.11V48.1309ZM526.157 52.0364C526.043 50.8487 526.1 49.8438 526.329 49.0216C526.557 48.1766 526.865 47.4571 527.254 46.8633C527.665 46.2467 528.121 45.7214 528.624 45.2874C529.149 44.8307 529.629 44.3967 530.063 43.9856C530.52 43.5745 530.896 43.152 531.193 42.7181C531.49 42.2613 531.639 41.7246 531.639 41.1079C531.639 40.3085 531.41 39.6691 530.953 39.1894C530.52 38.7098 529.732 38.47 528.59 38.47C528.224 38.47 527.836 38.5157 527.425 38.607C527.014 38.6756 526.603 38.7898 526.192 38.9496C525.78 39.0867 525.381 39.258 524.992 39.4635C524.627 39.6462 524.296 39.8403 523.999 40.0459L522.286 36.7571C523.154 36.1633 524.147 35.6722 525.267 35.284C526.409 34.8957 527.779 34.7016 529.378 34.7016C531.524 34.7016 533.203 35.2269 534.414 36.2775C535.624 37.3052 536.229 38.6984 536.229 40.457C536.229 41.6218 536.069 42.5924 535.75 43.369C535.453 44.1227 535.076 44.7736 534.619 45.3217C534.162 45.847 533.66 46.3152 533.112 46.7263C532.564 47.1374 532.061 47.5828 531.604 48.0624C531.148 48.5192 530.759 49.0559 530.44 49.6725C530.12 50.2892 529.96 51.0771 529.96 52.0364H526.157ZM525.472 56.9011C525.472 56.1017 525.723 55.4736 526.226 55.0168C526.728 54.5372 527.391 54.2974 528.213 54.2974C529.081 54.2974 529.766 54.5372 530.268 55.0168C530.771 55.4736 531.022 56.1017 531.022 56.9011C531.022 57.7004 530.771 58.3399 530.268 58.8195C529.766 59.2991 529.081 59.539 528.213 59.539C527.391 59.539 526.728 59.2991 526.226 58.8195C525.723 58.3399 525.472 57.7004 525.472 56.9011Z" fill="black"/>
</svg>
