<svg width="514" height="30" viewBox="0 0 514 30" fill="none" xmlns="http://www.w3.org/2000/svg">
<path d="M12.6144 13.7014H4.54976V22.9316H0.233906V0.879818H4.54976V9.85806H12.6144V0.879818H16.9303V22.9316H12.6144V13.7014ZM20.5647 8.09391C21.4047 7.71588 22.4023 7.42186 23.5574 7.21184C24.7125 6.98082 25.9201 6.86531 27.1802 6.86531C28.2723 6.86531 29.1859 7.00182 29.9209 7.27485C30.656 7.52687 31.2335 7.8944 31.6536 8.37744C32.0946 8.86048 32.3991 9.43803 32.5671 10.1101C32.7562 10.7821 32.8507 11.5382 32.8507 12.3783C32.8507 13.3023 32.8192 14.2369 32.7562 15.182C32.6932 16.1061 32.6511 17.0197 32.6301 17.9227C32.6301 18.8258 32.6617 19.7079 32.7247 20.5689C32.7877 21.409 32.9452 22.2071 33.1972 22.9631H29.8579L29.1964 20.7895H29.0389C28.6188 21.4405 28.0308 22.0076 27.2747 22.4906C26.5396 22.9526 25.5841 23.1837 24.408 23.1837C23.6729 23.1837 23.0114 23.0787 22.4233 22.8686C21.8353 22.6376 21.3312 22.3226 20.9112 21.9236C20.4911 21.5035 20.1656 21.0205 19.9346 20.4744C19.7036 19.9074 19.5881 19.2773 19.5881 18.5843C19.5881 17.6182 19.7981 16.8096 20.2181 16.1586C20.6592 15.4865 21.2787 14.951 22.0768 14.5519C22.8958 14.1319 23.8619 13.8484 24.975 13.7014C26.1091 13.5334 27.3692 13.4809 28.7553 13.5439C28.9023 12.3678 28.8183 11.5277 28.5033 11.0237C28.1883 10.4986 27.4847 10.2361 26.3926 10.2361C25.5736 10.2361 24.702 10.3201 23.7779 10.4881C22.8748 10.6561 22.1293 10.8766 21.5412 11.1497L20.5647 8.09391ZM25.7626 19.8129C26.5816 19.8129 27.2327 19.6344 27.7157 19.2773C28.1988 18.8993 28.5558 18.5003 28.7868 18.0802V16.0326C28.1358 15.9696 27.5057 15.9591 26.8967 16.0011C26.3086 16.0431 25.7836 16.1376 25.3215 16.2846C24.8595 16.4316 24.492 16.6416 24.219 16.9146C23.9459 17.1877 23.8094 17.5342 23.8094 17.9542C23.8094 18.5423 23.9774 19.0043 24.3135 19.3403C24.6705 19.6554 25.1535 19.8129 25.7626 19.8129ZM36.2874 22.9316V7.18034H40.3827V19.3088H44.3206V7.18034H48.4159V19.3088H52.3537V7.18034H56.4491V22.9316H36.2874ZM69.5197 15.749L69.6772 13.5124H69.5827L68.2281 15.8121L62.6206 22.9316H60.0374V7.18034H64.1327V14.678L63.9437 16.8201H64.0697L65.3613 14.5835L71.0318 7.18034H73.615V22.9316H69.5197V15.749ZM96.3237 21.9551C95.6937 22.4171 94.9271 22.7636 94.024 22.9946C93.142 23.2467 92.2284 23.3727 91.2833 23.3727C90.0232 23.3727 88.9521 23.1732 88.07 22.7741C87.209 22.3751 86.5054 21.8185 85.9594 21.1045C85.4133 20.3694 85.0143 19.4874 84.7623 18.4583C84.5313 17.4292 84.4157 16.2951 84.4157 15.056C84.4157 12.3888 85.0143 10.3411 86.2114 8.91298C87.4085 7.46386 89.1516 6.7393 91.4408 6.7393C92.5959 6.7393 93.52 6.83381 94.2131 7.02283C94.9271 7.21184 95.5677 7.45336 96.1347 7.74739L95.1581 11.0867C94.6751 10.8556 94.1921 10.6771 93.709 10.5511C93.247 10.4251 92.7114 10.3621 92.1024 10.3621C90.9683 10.3621 90.1072 10.7401 89.5192 11.4962C88.9311 12.2313 88.6371 13.4179 88.6371 15.056C88.6371 15.728 88.7106 16.3476 88.8576 16.9146C89.0046 17.4817 89.2251 17.9752 89.5192 18.3953C89.8132 18.8153 90.1912 19.1513 90.6533 19.4033C91.1363 19.6344 91.6928 19.7499 92.3229 19.7499C93.016 19.7499 93.604 19.6659 94.087 19.4979C94.5701 19.3088 95.0006 19.0883 95.3787 18.8363L96.3237 21.9551ZM107.873 10.8031H102.896V22.9316H98.8004V7.18034H111.968V22.9316H107.873V10.8031ZM125.049 15.749L125.207 13.5124H125.112L123.758 15.8121L118.15 22.9316H115.567V7.18034H119.662V14.678L119.473 16.8201H119.599L120.891 14.5835L126.561 7.18034H129.145V22.9316H125.049V15.749ZM137.931 16.4106H136.829V22.9316H132.733V7.18034H136.829V13.8904L137.805 13.4494L141.491 7.18034H145.87L142.058 13.1658L140.451 14.3629L142.216 15.5915L146.468 22.9316H141.775L137.931 16.4106ZM160.347 21.577C159.717 22.0811 158.856 22.5116 157.764 22.8686C156.693 23.2047 155.548 23.3727 154.33 23.3727C151.789 23.3727 149.93 22.6376 148.754 21.1675C147.578 19.6764 146.99 17.6392 146.99 15.056C146.99 12.2838 147.652 10.2046 148.975 8.81847C150.298 7.43236 152.157 6.7393 154.551 6.7393C155.349 6.7393 156.126 6.84431 156.882 7.05433C157.638 7.26435 158.31 7.61087 158.898 8.09391C159.486 8.57695 159.959 9.22801 160.316 10.0471C160.673 10.8661 160.851 11.8847 160.851 13.1028C160.851 13.5439 160.82 14.0164 160.757 14.5204C160.715 15.0245 160.641 15.5495 160.536 16.0956H151.086C151.149 17.4187 151.485 18.4163 152.094 19.0883C152.724 19.7604 153.732 20.0964 155.118 20.0964C155.979 20.0964 156.746 19.9704 157.418 19.7184C158.111 19.4454 158.636 19.1723 158.993 18.8993L160.347 21.577ZM154.488 10.0156C153.417 10.0156 152.619 10.3411 152.094 10.9922C151.59 11.6222 151.285 12.4728 151.18 13.5439H157.04C157.124 12.4098 156.945 11.5382 156.504 10.9291C156.084 10.3201 155.412 10.0156 154.488 10.0156ZM163.744 7.18034H166.736L167.209 9.0705H167.335C167.881 8.27243 168.522 7.68438 169.257 7.30635C170.013 6.92832 170.926 6.7393 171.997 6.7393C173.972 6.7393 175.452 7.36936 176.439 8.62946C177.426 9.86856 177.92 11.8742 177.92 14.6465C177.92 15.9906 177.762 17.2087 177.447 18.3008C177.132 19.3718 176.66 20.2854 176.03 21.0415C175.421 21.7975 174.665 22.3751 173.762 22.7741C172.879 23.1732 171.861 23.3727 170.706 23.3727C170.055 23.3727 169.519 23.3202 169.099 23.2152C168.679 23.1312 168.259 22.9841 167.839 22.7741V29.2322H163.744V7.18034ZM170.769 10.2046C169.971 10.2046 169.341 10.4041 168.879 10.8031C168.438 11.2022 168.091 11.8007 167.839 12.5988V19.1513C168.133 19.3823 168.448 19.5714 168.784 19.7184C169.141 19.8444 169.603 19.9074 170.17 19.9074C171.346 19.9074 172.228 19.4979 172.816 18.6788C173.405 17.8387 173.699 16.4631 173.699 14.5519C173.699 13.1658 173.468 12.0947 173.005 11.3387C172.543 10.5826 171.798 10.2046 170.769 10.2046ZM184.852 19.4979C185.482 19.6239 186.08 19.6869 186.647 19.6869C187.592 19.6869 188.254 19.5189 188.632 19.1828C189.01 18.8258 189.199 18.2798 189.199 17.5447C189.199 16.8726 189.01 16.3686 188.632 16.0326C188.254 15.6755 187.624 15.497 186.742 15.497C186.049 15.497 185.419 15.5705 184.852 15.7175V19.4979ZM184.852 12.7878C185.356 12.7038 185.86 12.6513 186.364 12.6303C186.889 12.5883 187.361 12.5673 187.781 12.5673C188.853 12.5673 189.745 12.6933 190.459 12.9453C191.173 13.1763 191.751 13.5124 192.192 13.9534C192.633 14.3944 192.948 14.9195 193.137 15.5285C193.326 16.1166 193.42 16.7571 193.42 17.4502C193.42 18.3953 193.294 19.2248 193.042 19.9389C192.79 20.653 192.381 21.2515 191.814 21.7345C191.247 22.1966 190.512 22.5536 189.609 22.8056C188.706 23.0366 187.592 23.1522 186.269 23.1522C185.072 23.1522 184.033 23.1312 183.151 23.0892C182.289 23.0472 181.491 22.9946 180.756 22.9316V7.18034H184.852V12.7878ZM195.216 7.18034H199.311V22.9316H195.216V7.18034ZM220.357 15.749L220.514 13.5124H220.42L219.065 15.8121L213.458 22.9316H210.875V7.18034H214.97V14.678L214.781 16.8201H214.907L216.199 14.5835L221.869 7.18034H224.452V22.9316H220.357V15.749ZM237.647 16.4106V13.5439H239.569C240.304 13.5439 240.902 13.3969 241.364 13.1028C241.847 12.8088 242.089 12.4203 242.089 11.9372C242.089 11.3702 241.879 10.9712 241.459 10.7401C241.039 10.4881 240.398 10.3621 239.537 10.3621C238.718 10.3621 237.994 10.4671 237.364 10.6771C236.734 10.8871 236.229 11.1077 235.851 11.3387L234.969 8.21993C235.599 7.8629 236.429 7.55837 237.458 7.30635C238.508 7.03333 239.621 6.89682 240.797 6.89682C242.604 6.89682 243.948 7.23284 244.83 7.9049C245.733 8.57695 246.184 9.55354 246.184 10.8346C246.184 11.1917 246.132 11.5592 246.027 11.9372C245.943 12.2943 245.796 12.6408 245.586 12.9768C245.376 13.3128 245.113 13.6174 244.798 13.8904C244.504 14.1424 244.147 14.3419 243.727 14.4889V14.615C244.84 14.867 245.628 15.3185 246.09 15.9696C246.552 16.5996 246.783 17.4502 246.783 18.5213C246.783 19.1933 246.646 19.8234 246.373 20.4114C246.1 20.9785 245.68 21.472 245.113 21.8921C244.567 22.3121 243.874 22.6481 243.034 22.9001C242.194 23.1522 241.196 23.2782 240.041 23.2782C238.886 23.2782 237.878 23.1627 237.017 22.9316C236.177 22.6796 235.473 22.3961 234.906 22.0811L235.788 18.8993C236.271 19.1723 236.849 19.3928 237.521 19.5609C238.214 19.7289 238.981 19.8129 239.821 19.8129C241.732 19.8129 242.688 19.2038 242.688 17.9857C242.688 17.4397 242.435 17.0407 241.931 16.7886C241.448 16.5366 240.535 16.4106 239.191 16.4106H237.647ZM249.512 8.09391C250.352 7.71588 251.35 7.42186 252.505 7.21184C253.66 6.98082 254.868 6.86531 256.128 6.86531C257.22 6.86531 258.133 7.00182 258.869 7.27485C259.604 7.52687 260.181 7.8944 260.601 8.37744C261.042 8.86048 261.347 9.43803 261.515 10.1101C261.704 10.7821 261.798 11.5382 261.798 12.3783C261.798 13.3023 261.767 14.2369 261.704 15.182C261.641 16.1061 261.599 17.0197 261.578 17.9227C261.578 18.8258 261.609 19.7079 261.672 20.5689C261.735 21.409 261.893 22.2071 262.145 22.9631H258.806L258.144 20.7895H257.986C257.566 21.4405 256.978 22.0076 256.222 22.4906C255.487 22.9526 254.532 23.1837 253.356 23.1837C252.621 23.1837 251.959 23.0787 251.371 22.8686C250.783 22.6376 250.279 22.3226 249.859 21.9236C249.439 21.5035 249.113 21.0205 248.882 20.4744C248.651 19.9074 248.536 19.2773 248.536 18.5843C248.536 17.6182 248.746 16.8096 249.166 16.1586C249.607 15.4865 250.226 14.951 251.024 14.5519C251.843 14.1319 252.81 13.8484 253.923 13.7014C255.057 13.5334 256.317 13.4809 257.703 13.5439C257.85 12.3678 257.766 11.5277 257.451 11.0237C257.136 10.4986 256.432 10.2361 255.34 10.2361C254.521 10.2361 253.65 10.3201 252.726 10.4881C251.822 10.6561 251.077 10.8766 250.489 11.1497L249.512 8.09391ZM254.71 19.8129C255.529 19.8129 256.18 19.6344 256.663 19.2773C257.146 18.8993 257.503 18.5003 257.734 18.0802V16.0326C257.083 15.9696 256.453 15.9591 255.844 16.0011C255.256 16.0431 254.731 16.1376 254.269 16.2846C253.807 16.4316 253.44 16.6416 253.167 16.9146C252.894 17.1877 252.757 17.5342 252.757 17.9542C252.757 18.5423 252.925 19.0043 253.261 19.3403C253.618 19.6554 254.101 19.8129 254.71 19.8129ZM274.308 10.8031H269.33V22.9316H265.235V7.18034H278.403V22.9316H274.308V10.8031ZM291.484 15.749L291.641 13.5124H291.547L290.192 15.8121L284.585 22.9316H282.002V7.18034H286.097V14.678L285.908 16.8201H286.034L287.325 14.5835L292.996 7.18034H295.579V22.9316H291.484V15.749ZM310.32 21.9551C309.69 22.4171 308.923 22.7636 308.02 22.9946C307.138 23.2467 306.225 23.3727 305.279 23.3727C304.019 23.3727 302.948 23.1732 302.066 22.7741C301.205 22.3751 300.502 21.8185 299.956 21.1045C299.41 20.3694 299.01 19.4874 298.758 18.4583C298.527 17.4292 298.412 16.2951 298.412 15.056C298.412 12.3888 299.01 10.3411 300.208 8.91298C301.405 7.46386 303.148 6.7393 305.437 6.7393C306.592 6.7393 307.516 6.83381 308.209 7.02283C308.923 7.21184 309.564 7.45336 310.131 7.74739L309.154 11.0867C308.671 10.8556 308.188 10.6771 307.705 10.5511C307.243 10.4251 306.708 10.3621 306.099 10.3621C304.964 10.3621 304.103 10.7401 303.515 11.4962C302.927 12.2313 302.633 13.4179 302.633 15.056C302.633 15.728 302.707 16.3476 302.854 16.9146C303.001 17.4817 303.221 17.9752 303.515 18.3953C303.809 18.8153 304.187 19.1513 304.649 19.4033C305.132 19.6344 305.689 19.7499 306.319 19.7499C307.012 19.7499 307.6 19.6659 308.083 19.4979C308.566 19.3088 308.997 19.0883 309.375 18.8363L310.32 21.9551ZM322.279 15.749L322.436 13.5124H322.342L320.987 15.8121L315.38 22.9316H312.797V7.18034H316.892V14.678L316.703 16.8201H316.829L318.121 14.5835L323.791 7.18034H326.374V22.9316H322.279V15.749ZM337.931 7.21184C338.666 7.14884 339.548 7.08583 340.577 7.02283C341.627 6.95982 342.751 6.92832 343.948 6.92832C346.258 6.92832 347.896 7.26435 348.862 7.9364C349.849 8.58746 350.343 9.57454 350.343 10.8976C350.343 11.6327 350.133 12.3468 349.713 13.0398C349.293 13.7329 348.631 14.2369 347.728 14.5519V14.678C348.862 14.93 349.681 15.3815 350.185 16.0326C350.69 16.6626 350.942 17.4817 350.942 18.4898C350.942 20.0649 350.332 21.241 349.114 22.0181C347.917 22.7951 345.985 23.1837 343.318 23.1837C342.436 23.1837 341.501 23.1522 340.514 23.0892C339.527 23.0472 338.666 22.9841 337.931 22.9001V7.21184ZM341.932 19.7814C342.226 19.8234 342.499 19.8549 342.751 19.8759C343.003 19.8969 343.318 19.9074 343.696 19.9074C344.83 19.9074 345.639 19.7499 346.122 19.4349C346.605 19.1198 346.846 18.6368 346.846 17.9857C346.846 17.4397 346.636 16.9987 346.216 16.6626C345.817 16.3056 345.093 16.1271 344.042 16.1271H341.932V19.7814ZM344.105 13.6069C344.778 13.6069 345.324 13.4494 345.744 13.1343C346.185 12.7983 346.405 12.3783 346.405 11.8742C346.405 11.3282 346.216 10.9186 345.838 10.6456C345.481 10.3516 344.82 10.2046 343.853 10.2046C343.37 10.2046 342.982 10.2151 342.688 10.2361C342.415 10.2571 342.163 10.2781 341.932 10.2991V13.6069H344.105ZM357.931 19.4979C358.561 19.6239 359.16 19.6869 359.727 19.6869C360.672 19.6869 361.334 19.5189 361.712 19.1828C362.09 18.8258 362.279 18.2798 362.279 17.5447C362.279 16.8726 362.09 16.3686 361.712 16.0326C361.334 15.6755 360.704 15.497 359.822 15.497C359.129 15.497 358.498 15.5705 357.931 15.7175V19.4979ZM357.931 12.7878C358.435 12.7038 358.94 12.6513 359.444 12.6303C359.969 12.5883 360.441 12.5673 360.861 12.5673C361.932 12.5673 362.825 12.6933 363.539 12.9453C364.253 13.1763 364.83 13.5124 365.272 13.9534C365.713 14.3944 366.028 14.9195 366.217 15.5285C366.406 16.1166 366.5 16.7571 366.5 17.4502C366.5 18.3953 366.374 19.2248 366.122 19.9389C365.87 20.653 365.461 21.2515 364.893 21.7345C364.326 22.1966 363.591 22.5536 362.688 22.8056C361.785 23.0366 360.672 23.1522 359.349 23.1522C358.152 23.1522 357.112 23.1312 356.23 23.0892C355.369 23.0472 354.571 22.9946 353.836 22.9316V7.18034H357.931V12.7878ZM368.296 7.18034H372.391V22.9316H368.296V7.18034ZM387.138 21.9551C386.508 22.4171 385.742 22.7636 384.839 22.9946C383.957 23.2467 383.043 23.3727 382.098 23.3727C380.838 23.3727 379.767 23.1732 378.885 22.7741C378.024 22.3751 377.32 21.8185 376.774 21.1045C376.228 20.3694 375.829 19.4874 375.577 18.4583C375.346 17.4292 375.23 16.2951 375.23 15.056C375.23 12.3888 375.829 10.3411 377.026 8.91298C378.223 7.46386 379.966 6.7393 382.255 6.7393C383.41 6.7393 384.335 6.83381 385.028 7.02283C385.742 7.21184 386.382 7.45336 386.949 7.74739L385.973 11.0867C385.49 10.8556 385.007 10.6771 384.524 10.5511C384.062 10.4251 383.526 10.3621 382.917 10.3621C381.783 10.3621 380.922 10.7401 380.334 11.4962C379.746 12.2313 379.452 13.4179 379.452 15.056C379.452 15.728 379.525 16.3476 379.672 16.9146C379.819 17.4817 380.04 17.9752 380.334 18.3953C380.628 18.8153 381.006 19.1513 381.468 19.4033C381.951 19.6344 382.507 19.7499 383.137 19.7499C383.831 19.7499 384.419 19.6659 384.902 19.4979C385.385 19.3088 385.815 19.0883 386.193 18.8363L387.138 21.9551ZM400.802 10.8031H396.36V22.9316H392.139V10.8031H387.697V7.18034H400.802V10.8031ZM407.839 16.0326L408.406 18.4898H408.595L409.004 16.0011L411.398 7.18034H415.62L410.831 21.388C410.432 22.5641 410.044 23.6352 409.666 24.6013C409.309 25.5884 408.91 26.4389 408.469 27.153C408.028 27.867 407.534 28.4131 406.988 28.7911C406.463 29.1902 405.833 29.3897 405.098 29.3897C404.006 29.3897 403.134 29.2112 402.483 28.8541L403.239 25.5779C403.554 25.7039 403.869 25.7669 404.184 25.7669C404.667 25.7669 405.129 25.5569 405.571 25.1368C406.033 24.7378 406.379 24.0027 406.61 22.9316L400.026 7.18034H404.94L407.839 16.0326ZM426.222 10.8031H421.244V22.9316H417.149V7.18034H430.317V22.9316H426.222V10.8031ZM442.484 10.8031H439.365C439.239 12.2943 439.092 13.7749 438.924 15.245C438.756 16.7151 438.483 18.0382 438.105 19.2143C437.748 20.3694 437.255 21.3145 436.625 22.0496C435.995 22.7636 435.176 23.1207 434.167 23.1207C432.949 23.1207 432.088 22.9631 431.584 22.6481L432.088 19.2458C432.424 19.3718 432.739 19.4349 433.033 19.4349C433.453 19.4349 433.821 19.2563 434.136 18.8993C434.451 18.5423 434.714 17.9017 434.924 16.9776C435.155 16.0536 435.333 14.804 435.459 13.2288C435.606 11.6327 435.711 9.61654 435.774 7.18034H446.58V22.9316H442.484V10.8031ZM462.729 21.577C462.099 22.0811 461.238 22.5116 460.146 22.8686C459.075 23.2047 457.93 23.3727 456.712 23.3727C454.171 23.3727 452.312 22.6376 451.136 21.1675C449.96 19.6764 449.372 17.6392 449.372 15.056C449.372 12.2838 450.034 10.2046 451.357 8.81847C452.68 7.43236 454.539 6.7393 456.933 6.7393C457.731 6.7393 458.508 6.84431 459.264 7.05433C460.02 7.26435 460.692 7.61087 461.28 8.09391C461.868 8.57695 462.341 9.22801 462.698 10.0471C463.055 10.8661 463.233 11.8847 463.233 13.1028C463.233 13.5439 463.202 14.0164 463.139 14.5204C463.097 15.0245 463.023 15.5495 462.918 16.0956H453.468C453.531 17.4187 453.867 18.4163 454.476 19.0883C455.106 19.7604 456.114 20.0964 457.5 20.0964C458.361 20.0964 459.127 19.9704 459.8 19.7184C460.493 19.4454 461.018 19.1723 461.375 18.8993L462.729 21.577ZM456.87 10.0156C455.799 10.0156 455.001 10.3411 454.476 10.9922C453.972 11.6222 453.667 12.4728 453.562 13.5439H459.421C459.506 12.4098 459.327 11.5382 458.886 10.9291C458.466 10.3201 457.794 10.0156 456.87 10.0156ZM475.356 16.7256H470.221V22.9316H466.126V7.18034H470.221V13.1028H475.356V7.18034H479.451V22.9316H475.356V16.7256ZM492.528 15.749L492.686 13.5124H492.591L491.237 15.8121L485.629 22.9316H483.046V7.18034H487.141V14.678L486.952 16.8201H487.078L488.37 14.5835L494.04 7.18034H496.624V22.9316H492.528V15.749ZM509.695 15.749L509.852 13.5124H509.758L508.403 15.8121L502.796 22.9316H500.212V7.18034H504.308V14.678L504.119 16.8201H504.245L505.536 14.5835L511.207 7.18034H513.79V22.9316H509.695V15.749ZM505.316 0.753807C505.463 1.57288 505.704 2.15042 506.04 2.48645C506.397 2.82248 506.849 2.99049 507.395 2.99049C507.983 2.99049 508.445 2.82248 508.781 2.48645C509.138 2.15042 509.38 1.58338 509.506 0.785311L512.624 1.57288C512.372 2.93799 511.753 3.95657 510.766 4.62863C509.779 5.27968 508.624 5.60521 507.301 5.60521C506.649 5.60521 506.019 5.5317 505.41 5.38469C504.801 5.23768 504.255 5.00666 503.772 4.69163C503.289 4.35561 502.88 3.93557 502.544 3.43153C502.208 2.92749 501.977 2.30794 501.851 1.57288L505.316 0.753807Z" fill="black"/>
</svg>
