<svg width="172" height="17" viewBox="0 0 172 17" fill="none" xmlns="http://www.w3.org/2000/svg">
<path d="M7.68256 8.37427H2.78558V13.979H0.16494V0.588847H2.78558V6.04055H7.68256V0.588847H10.3032V13.979H7.68256V8.37427ZM12.1083 9.19681C12.1083 7.57723 12.5037 6.33386 13.2943 5.46669C14.085 4.58677 15.1944 4.1468 16.6227 4.1468C17.3879 4.1468 18.051 4.26795 18.6121 4.51025C19.1732 4.75255 19.6387 5.09687 20.0085 5.54321C20.3783 5.97679 20.6525 6.50602 20.8311 7.1309C21.0223 7.75577 21.118 8.44441 21.118 9.19681C21.118 10.8164 20.7227 12.0661 19.932 12.946C19.1541 13.8132 18.051 14.2468 16.6227 14.2468C15.8576 14.2468 15.1944 14.1257 14.6333 13.8834C14.0722 13.6411 13.6004 13.3031 13.2178 12.8695C12.848 12.4232 12.5674 11.8876 12.3761 11.2627C12.1976 10.6378 12.1083 9.9492 12.1083 9.19681ZM14.6716 9.19681C14.6716 9.61764 14.7098 10.0066 14.7864 10.3637C14.8629 10.7207 14.9776 11.0332 15.1307 11.301C15.2837 11.5688 15.4814 11.7792 15.7237 11.9322C15.9787 12.0725 16.2784 12.1426 16.6227 12.1426C17.2731 12.1426 17.7577 11.9067 18.0765 11.4349C18.3953 10.963 18.5547 10.217 18.5547 9.19681C18.5547 8.31688 18.4081 7.60912 18.1148 7.07351C17.8215 6.52515 17.3241 6.25097 16.6227 6.25097C16.0106 6.25097 15.5324 6.48052 15.1881 6.93961C14.8437 7.3987 14.6716 8.1511 14.6716 9.19681ZM22.8417 4.43374C23.288 4.39548 23.8236 4.35722 24.4485 4.31896C25.0861 4.28071 25.7684 4.26158 26.4953 4.26158C27.8981 4.26158 28.8928 4.46562 29.4794 4.8737C30.0787 5.26903 30.3784 5.86839 30.3784 6.6718C30.3784 7.11814 30.2509 7.55173 29.9958 7.97256C29.7408 8.3934 29.3391 8.69946 28.7907 8.89074V8.96726C29.4794 9.12029 29.9767 9.39447 30.2828 9.7898C30.5888 10.1724 30.7419 10.6697 30.7419 11.2818C30.7419 12.2383 30.372 12.9524 29.6324 13.4243C28.9055 13.8961 27.7323 14.132 26.1127 14.132C25.5771 14.132 25.0096 14.1129 24.4102 14.0746C23.8109 14.0491 23.288 14.0109 22.8417 13.9599V4.43374ZM25.271 12.0661C25.4496 12.0916 25.6154 12.1108 25.7684 12.1235C25.9214 12.1363 26.1127 12.1426 26.3422 12.1426C27.0309 12.1426 27.5219 12.047 27.8152 11.8557C28.1085 11.6644 28.2551 11.3711 28.2551 10.9758C28.2551 10.6442 28.1276 10.3764 27.8725 10.1724C27.6303 9.95558 27.1903 9.84718 26.5527 9.84718H25.271V12.0661ZM26.5909 8.31688C26.999 8.31688 27.3306 8.22124 27.5856 8.02995C27.8534 7.82591 27.9873 7.57086 27.9873 7.2648C27.9873 6.93323 27.8725 6.68456 27.643 6.51877C27.4262 6.34024 27.0245 6.25097 26.4379 6.25097C26.1446 6.25097 25.9087 6.25735 25.7301 6.2701C25.5643 6.28285 25.4113 6.2956 25.271 6.30836V8.31688H26.5909ZM32.0404 9.19681C32.0404 7.57723 32.4357 6.33386 33.2264 5.46669C34.017 4.58677 35.1265 4.1468 36.5548 4.1468C37.3199 4.1468 37.9831 4.26795 38.5442 4.51025C39.1053 4.75255 39.5708 5.09687 39.9406 5.54321C40.3104 5.97679 40.5846 6.50602 40.7631 7.1309C40.9544 7.75577 41.05 8.44441 41.05 9.19681C41.05 10.8164 40.6547 12.0661 39.8641 12.946C39.0862 13.8132 37.9831 14.2468 36.5548 14.2468C35.7896 14.2468 35.1265 14.1257 34.5654 13.8834C34.0043 13.6411 33.5324 13.3031 33.1499 12.8695C32.78 12.4232 32.4995 11.8876 32.3082 11.2627C32.1297 10.6378 32.0404 9.9492 32.0404 9.19681ZM34.6036 9.19681C34.6036 9.61764 34.6419 10.0066 34.7184 10.3637C34.7949 10.7207 34.9097 11.0332 35.0627 11.301C35.2158 11.5688 35.4134 11.7792 35.6557 11.9322C35.9108 12.0725 36.2105 12.1426 36.5548 12.1426C37.2052 12.1426 37.6898 11.9067 38.0086 11.4349C38.3274 10.963 38.4868 10.217 38.4868 9.19681C38.4868 8.31688 38.3401 7.60912 38.0468 7.07351C37.7535 6.52515 37.2562 6.25097 36.5548 6.25097C35.9427 6.25097 35.4644 6.48052 35.1201 6.93961C34.7758 7.3987 34.6036 8.1511 34.6036 9.19681ZM49.5453 13.386C49.1627 13.6666 48.6973 13.877 48.1489 14.0173C47.6133 14.1703 47.0586 14.2468 46.4847 14.2468C45.7196 14.2468 45.0692 14.1257 44.5336 13.8834C44.0107 13.6411 43.5835 13.3031 43.2519 12.8695C42.9204 12.4232 42.6781 11.8876 42.5251 11.2627C42.3848 10.6378 42.3146 9.9492 42.3146 9.19681C42.3146 7.57723 42.6781 6.33386 43.405 5.46669C44.1319 4.58677 45.1903 4.1468 46.5804 4.1468C47.2817 4.1468 47.8429 4.20419 48.2637 4.31896C48.6973 4.43374 49.0862 4.58039 49.4305 4.75892L48.8376 6.78658C48.5442 6.6463 48.2509 6.5379 47.9576 6.46139C47.6771 6.38487 47.3519 6.34661 46.9821 6.34661C46.2934 6.34661 45.7706 6.57616 45.4135 7.03525C45.0564 7.48159 44.8779 8.20211 44.8779 9.19681C44.8779 9.60489 44.9225 9.98109 45.0118 10.3254C45.1011 10.6697 45.235 10.9694 45.4135 11.2245C45.592 11.4795 45.8216 11.6835 46.1021 11.8366C46.3954 11.9769 46.7334 12.047 47.116 12.047C47.5368 12.047 47.8939 11.996 48.1872 11.894C48.4805 11.7792 48.7419 11.6453 48.9715 11.4923L49.5453 13.386ZM57.8421 6.61442H55.145V13.979H52.5817V6.61442H49.8846V4.41461H57.8421V6.61442ZM64.7088 9.61764L64.8044 8.25949H64.747L63.9245 9.6559L60.5196 13.979H58.951V4.41461H61.4378V8.96726L61.323 10.268H61.3995L62.1838 8.90987L65.627 4.41461H67.1955V13.979H64.7088V9.61764ZM80.9845 13.386C80.602 13.6666 80.1365 13.877 79.5881 14.0173C79.0525 14.1703 78.4978 14.2468 77.9239 14.2468C77.1588 14.2468 76.5084 14.1257 75.9728 13.8834C75.4499 13.6411 75.0227 13.3031 74.6912 12.8695C74.3596 12.4232 74.1173 11.8876 73.9643 11.2627C73.824 10.6378 73.7539 9.9492 73.7539 9.19681C73.7539 7.57723 74.1173 6.33386 74.8442 5.46669C75.5711 4.58677 76.6295 4.1468 78.0196 4.1468C78.721 4.1468 79.2821 4.20419 79.7029 4.31896C80.1365 4.43374 80.5254 4.58039 80.8698 4.75892L80.2768 6.78658C79.9835 6.6463 79.6902 6.5379 79.3968 6.46139C79.1163 6.38487 78.7911 6.34661 78.4213 6.34661C77.7326 6.34661 77.2098 6.57616 76.8527 7.03525C76.4956 7.48159 76.3171 8.20211 76.3171 9.19681C76.3171 9.60489 76.3617 9.98109 76.451 10.3254C76.5403 10.6697 76.6742 10.9694 76.8527 11.2245C77.0313 11.4795 77.2608 11.6835 77.5414 11.8366C77.8347 11.9769 78.1726 12.047 78.5552 12.047C78.976 12.047 79.3331 11.996 79.6264 11.894C79.9197 11.7792 80.1811 11.6453 80.4107 11.4923L80.9845 13.386ZM81.7117 9.19681C81.7117 7.57723 82.1071 6.33386 82.8977 5.46669C83.6884 4.58677 84.7978 4.1468 86.2261 4.1468C86.9913 4.1468 87.6544 4.26795 88.2155 4.51025C88.7766 4.75255 89.2421 5.09687 89.6119 5.54321C89.9817 5.97679 90.2559 6.50602 90.4345 7.1309C90.6258 7.75577 90.7214 8.44441 90.7214 9.19681C90.7214 10.8164 90.3261 12.0661 89.5354 12.946C88.7575 13.8132 87.6544 14.2468 86.2261 14.2468C85.461 14.2468 84.7978 14.1257 84.2367 13.8834C83.6756 13.6411 83.2038 13.3031 82.8212 12.8695C82.4514 12.4232 82.1708 11.8876 81.9795 11.2627C81.801 10.6378 81.7117 9.9492 81.7117 9.19681ZM84.275 9.19681C84.275 9.61764 84.3132 10.0066 84.3898 10.3637C84.4663 10.7207 84.5811 11.0332 84.7341 11.301C84.8871 11.5688 85.0848 11.7792 85.3271 11.9322C85.5821 12.0725 85.8818 12.1426 86.2261 12.1426C86.8765 12.1426 87.3611 11.9067 87.6799 11.4349C87.9987 10.963 88.1581 10.217 88.1581 9.19681C88.1581 8.31688 88.0115 7.60912 87.7182 7.07351C87.4249 6.52515 86.9275 6.25097 86.2261 6.25097C85.614 6.25097 85.1358 6.48052 84.7915 6.93961C84.4472 7.3987 84.275 8.1511 84.275 9.19681ZM91.986 9.19681C91.986 7.57723 92.3813 6.33386 93.172 5.46669C93.9626 4.58677 95.0721 4.1468 96.5004 4.1468C97.2655 4.1468 97.9287 4.26795 98.4898 4.51025C99.0509 4.75255 99.5164 5.09687 99.8862 5.54321C100.256 5.97679 100.53 6.50602 100.709 7.1309C100.9 7.75577 100.996 8.44441 100.996 9.19681C100.996 10.8164 100.6 12.0661 99.8097 12.946C99.0318 13.8132 97.9287 14.2468 96.5004 14.2468C95.7352 14.2468 95.0721 14.1257 94.511 13.8834C93.9499 13.6411 93.478 13.3031 93.0955 12.8695C92.7256 12.4232 92.4451 11.8876 92.2538 11.2627C92.0753 10.6378 91.986 9.9492 91.986 9.19681ZM94.5492 9.19681C94.5492 9.61764 94.5875 10.0066 94.664 10.3637C94.7405 10.7207 94.8553 11.0332 95.0083 11.301C95.1614 11.5688 95.359 11.7792 95.6013 11.9322C95.8564 12.0725 96.1561 12.1426 96.5004 12.1426C97.1508 12.1426 97.6354 11.9067 97.9542 11.4349C98.273 10.963 98.4324 10.217 98.4324 9.19681C98.4324 8.31688 98.2857 7.60912 97.9924 7.07351C97.6991 6.52515 97.2018 6.25097 96.5004 6.25097C95.8883 6.25097 95.41 6.48052 95.0657 6.93961C94.7214 7.3987 94.5492 8.1511 94.5492 9.19681ZM104.345 6.21271C104.715 5.6516 105.149 5.2499 105.646 5.0076C106.156 4.75255 106.768 4.62502 107.482 4.62502C108.643 4.62502 109.561 4.98209 110.237 5.69624C110.926 6.39762 111.27 7.49434 111.27 8.98639C111.27 10.708 110.881 12.0151 110.103 12.9078C109.325 13.8005 108.228 14.2468 106.813 14.2468C105.334 14.2468 104.205 13.7558 103.427 12.7739C102.649 11.7919 102.26 10.2616 102.26 8.18298C102.26 7.08626 102.324 6.14895 102.452 5.37105C102.579 4.59314 102.758 3.93639 102.987 3.40078C103.229 2.86517 103.51 2.43796 103.829 2.11915C104.16 1.80034 104.524 1.55166 104.919 1.37313C105.327 1.18184 105.761 1.04794 106.22 0.971424C106.679 0.894908 107.164 0.831145 107.674 0.780135C108.337 0.716373 108.904 0.639858 109.376 0.55059C109.848 0.44857 110.199 0.289163 110.428 0.0723698L110.524 2.29131C110.269 2.5081 109.905 2.66113 109.434 2.7504C108.962 2.82692 108.324 2.89706 107.521 2.96082C107.036 2.98632 106.609 3.04371 106.239 3.13298C105.869 3.22225 105.55 3.38165 105.283 3.6112C105.015 3.84074 104.798 4.16593 104.632 4.58677C104.479 4.99485 104.364 5.53683 104.288 6.21271H104.345ZM104.824 9.31158C104.824 10.1277 104.983 10.8036 105.302 11.3392C105.621 11.8748 106.112 12.1426 106.775 12.1426C107.463 12.1426 107.954 11.9003 108.248 11.4157C108.554 10.9311 108.707 10.2298 108.707 9.31158C108.707 8.48266 108.566 7.84504 108.286 7.3987C108.005 6.95236 107.54 6.72919 106.889 6.72919C106.188 6.72919 105.665 6.95874 105.321 7.41783C104.989 7.87692 104.824 8.50817 104.824 9.31158ZM126.613 16.1597H124.815L124.528 13.979H112.994V4.41461H115.48V11.7792H117.871V4.41461H120.358V11.7792H122.749V4.41461H125.236V11.7792H126.613V16.1597ZM135.627 13.1565C135.244 13.4625 134.721 13.724 134.058 13.9407C133.408 14.1448 132.713 14.2468 131.973 14.2468C130.43 14.2468 129.302 13.8005 128.587 12.9078C127.873 12.0024 127.516 10.7654 127.516 9.19681C127.516 7.51347 127.918 6.25097 128.721 5.4093C129.525 4.56764 130.653 4.1468 132.107 4.1468C132.592 4.1468 133.064 4.21057 133.523 4.33809C133.982 4.46562 134.39 4.67603 134.747 4.96934C135.104 5.26265 135.391 5.65798 135.608 6.15533C135.825 6.65268 135.933 7.27117 135.933 8.01082C135.933 8.27862 135.914 8.56556 135.876 8.87162C135.85 9.17768 135.805 9.49649 135.742 9.82806H130.003C130.041 10.6315 130.245 11.2372 130.615 11.6453C130.998 12.0534 131.61 12.2574 132.451 12.2574C132.974 12.2574 133.44 12.1809 133.848 12.0279C134.269 11.8621 134.588 11.6963 134.804 11.5305L135.627 13.1565ZM132.069 6.1362C131.419 6.1362 130.934 6.33386 130.615 6.72919C130.309 7.11177 130.124 7.62824 130.06 8.27862H133.618C133.669 7.58999 133.561 7.06076 133.293 6.69093C133.038 6.32111 132.63 6.1362 132.069 6.1362ZM144.367 13.386C143.985 13.6666 143.519 13.877 142.971 14.0173C142.435 14.1703 141.881 14.2468 141.307 14.2468C140.542 14.2468 139.891 14.1257 139.356 13.8834C138.833 13.6411 138.406 13.3031 138.074 12.8695C137.742 12.4232 137.5 11.8876 137.347 11.2627C137.207 10.6378 137.137 9.9492 137.137 9.19681C137.137 7.57723 137.5 6.33386 138.227 5.46669C138.954 4.58677 140.012 4.1468 141.402 4.1468C142.104 4.1468 142.665 4.20419 143.086 4.31896C143.519 4.43374 143.908 4.58039 144.253 4.75892L143.66 6.78658C143.366 6.6463 143.073 6.5379 142.78 6.46139C142.499 6.38487 142.174 6.34661 141.804 6.34661C141.115 6.34661 140.593 6.57616 140.236 7.03525C139.878 7.48159 139.7 8.20211 139.7 9.19681C139.7 9.60489 139.745 9.98109 139.834 10.3254C139.923 10.6697 140.057 10.9694 140.236 11.2245C140.414 11.4795 140.644 11.6835 140.924 11.8366C141.217 11.9769 141.555 12.047 141.938 12.047C142.359 12.047 142.716 11.996 143.009 11.894C143.303 11.7792 143.564 11.6453 143.793 11.4923L144.367 13.386ZM152.664 6.61442H149.967V13.979H147.404V6.61442H144.707V4.41461H152.664V6.61442ZM153.773 4.43374C154.219 4.39548 154.755 4.35722 155.38 4.31896C156.017 4.28071 156.7 4.26158 157.427 4.26158C158.829 4.26158 159.824 4.46562 160.411 4.8737C161.01 5.26903 161.31 5.86839 161.31 6.6718C161.31 7.11814 161.182 7.55173 160.927 7.97256C160.672 8.3934 160.27 8.69946 159.722 8.89074V8.96726C160.411 9.12029 160.908 9.39447 161.214 9.7898C161.52 10.1724 161.673 10.6697 161.673 11.2818C161.673 12.2383 161.303 12.9524 160.564 13.4243C159.837 13.8961 158.664 14.132 157.044 14.132C156.508 14.132 155.941 14.1129 155.342 14.0746C154.742 14.0491 154.219 14.0109 153.773 13.9599V4.43374ZM156.202 12.0661C156.381 12.0916 156.547 12.1108 156.7 12.1235C156.853 12.1363 157.044 12.1426 157.274 12.1426C157.962 12.1426 158.453 12.047 158.747 11.8557C159.04 11.6644 159.186 11.3711 159.186 10.9758C159.186 10.6442 159.059 10.3764 158.804 10.1724C158.562 9.95558 158.122 9.84718 157.484 9.84718H156.202V12.0661ZM157.522 8.31688C157.93 8.31688 158.262 8.22124 158.517 8.02995C158.785 7.82591 158.919 7.57086 158.919 7.2648C158.919 6.93323 158.804 6.68456 158.574 6.51877C158.358 6.34024 157.956 6.25097 157.369 6.25097C157.076 6.25097 156.84 6.25735 156.661 6.2701C156.496 6.28285 156.343 6.2956 156.202 6.30836V8.31688H157.522ZM163.373 4.96934C163.884 4.7398 164.489 4.56126 165.191 4.43374C165.892 4.29346 166.625 4.22332 167.391 4.22332C168.054 4.22332 168.608 4.30621 169.055 4.47199C169.501 4.62502 169.852 4.84819 170.107 5.1415C170.375 5.43481 170.56 5.7855 170.662 6.19358C170.776 6.60167 170.834 7.06076 170.834 7.57086C170.834 8.13197 170.815 8.69946 170.776 9.27332C170.738 9.83443 170.713 10.3892 170.7 10.9375C170.7 11.4859 170.719 12.0215 170.757 12.5443C170.795 13.0544 170.891 13.539 171.044 13.9981H169.016L168.615 12.6782H168.519C168.264 13.0736 167.907 13.4179 167.448 13.7112C167.002 13.9918 166.421 14.132 165.707 14.132C165.261 14.132 164.859 14.0683 164.502 13.9407C164.145 13.8005 163.839 13.6092 163.584 13.3669C163.329 13.1118 163.131 12.8185 162.991 12.487C162.851 12.1426 162.78 11.7601 162.78 11.3392C162.78 10.7526 162.908 10.2616 163.163 9.86631C163.431 9.45823 163.807 9.13304 164.292 8.89074C164.789 8.63569 165.376 8.46353 166.051 8.37427C166.74 8.27225 167.505 8.24037 168.347 8.27862C168.436 7.56448 168.385 7.05438 168.194 6.74832C168.003 6.42951 167.575 6.2701 166.912 6.2701C166.415 6.2701 165.886 6.32111 165.325 6.42313C164.776 6.52515 164.324 6.65905 163.966 6.82483L163.373 4.96934ZM166.53 12.0853C167.027 12.0853 167.422 11.9769 167.716 11.7601C168.009 11.5305 168.226 11.2882 168.366 11.0332V9.7898C167.971 9.75154 167.588 9.74516 167.218 9.77067C166.861 9.79617 166.542 9.85356 166.262 9.94283C165.981 10.0321 165.758 10.1596 165.592 10.3254C165.427 10.4912 165.344 10.7016 165.344 10.9567C165.344 11.3137 165.446 11.5943 165.65 11.7983C165.867 11.9896 166.16 12.0853 166.53 12.0853Z" fill="white"/>
</svg>
