<svg width="25" height="25" viewBox="0 0 25 25" fill="none" xmlns="http://www.w3.org/2000/svg">
	<g clip-path="url(#clip0)">
	<path d="M22.8365 6.01037V4.3269C22.8365 3.13397 21.866 2.16344 20.6731 2.16344H10.5482L10.1703 1.54642C10.0392 1.33239 9.8063 1.2019 9.55529 1.2019H2.16346C0.970529 1.2019 0 2.17243 0 3.36537V21.6346C0 22.8275 0.970529 23.7981 2.16346 23.7981H22.8365C24.0295 23.7981 25 22.8275 25 21.6346V8.17383C25 6.98085 24.0295 6.01037 22.8365 6.01037ZM20.6731 3.60575C21.0707 3.60575 21.3942 3.92926 21.3942 4.3269V6.0096H12.9036L11.4314 3.60575H20.6731ZM23.5577 21.6346C23.5577 22.0322 23.2342 22.3557 22.8365 22.3557H2.16346C1.76582 22.3557 1.44231 22.0322 1.44231 21.6346V3.36537C1.44231 2.96772 1.76582 2.64421 2.16346 2.64421H9.1513L9.52904 3.26104C9.52909 3.26109 9.52913 3.26118 9.52913 3.26123L11.8845 7.10738C11.8846 7.10743 11.8846 7.10753 11.8847 7.10758L11.885 7.10811C12.0161 7.32214 12.249 7.45263 12.5 7.45263H22.8365C23.2342 7.45263 23.5577 7.77613 23.5577 8.17378V21.6346Z" fill="#8E8E8E"/>
	<path d="M15.3847 15.6115H14.6635V12.0057C14.6635 11.6074 14.3406 11.2845 13.9424 11.2845H11.0577C10.6595 11.2845 10.3366 11.6074 10.3366 12.0057V15.6115H9.61544C9.21717 15.6115 8.89429 15.9344 8.89429 16.3326V18.2557C8.89429 18.4969 9.01477 18.722 9.21544 18.8557L12.1001 20.7788C12.2212 20.8595 12.3606 20.8999 12.5001 20.8999C12.6395 20.8999 12.7789 20.8595 12.9001 20.7788L15.7847 18.8557C15.9853 18.722 16.1058 18.4968 16.1058 18.2557V16.3326C16.1058 15.9344 15.7829 15.6115 15.3847 15.6115ZM14.6635 17.8697L12.5001 19.312L10.3366 17.8697V17.0537H11.0577C11.456 17.0537 11.7789 16.7308 11.7789 16.3326V12.7268H13.2212V16.3326C13.2212 16.7308 13.5441 17.0537 13.9424 17.0537H14.6635V17.8697Z" fill="#8E8E8E"/>
	</g>
	<defs>
	<clipPath id="clip0">
	<rect width="25" height="25" fill="white"/>
	</clipPath>
	</defs>
	</svg>
	