<svg width="14" height="14" viewBox="0 0 20 20" fill="none" xmlns="http://www.w3.org/2000/svg">
	<g clip-path="url(#clip0)">
	<path d="M10 0C4.48578 0 0 4.48578 0 10C0 15.5142 4.48578 20 10 20C15.5142 20 20 15.5142 20 10C20 4.48578 15.5142 0 10 0Z" fill="#EB5757"/>
	<path d="M11.0228 3.256V12.004H8.86281V3.256H11.0228ZM8.93481 15.712C8.64681 15.448 8.50281 15.124 8.50281 14.74C8.50281 14.356 8.64081 14.026 8.91681 13.75C9.20481 13.474 9.54681 13.336 9.94281 13.336C10.3388 13.336 10.6748 13.468 10.9508 13.732C11.2388 13.996 11.3828 14.32 11.3828 14.704C11.3828 15.088 11.2388 15.418 10.9508 15.694C10.6748 15.97 10.3388 16.108 9.94281 16.108C9.55881 16.108 9.22281 15.976 8.93481 15.712Z" fill="white"/>
	</g>
	<defs>
	<clipPath id="clip0">
	<rect width="20" height="20" fill="white"/>
	</clipPath>
	</defs>
	</svg>
	