<svg width="27" height="27" viewBox="0 0 27 27" fill="none" xmlns="http://www.w3.org/2000/svg">
<path d="M0.246792 12.0606L8.68416 3.62156C8.92547 3.38025 9.2849 3.30937 9.60383 3.43931C9.91939 3.56924 10.1253 3.87805 10.1253 4.21892V8.4376H12.6565C20.5657 8.4376 27 14.8719 27 22.7811C27 23.1574 26.7503 23.4882 26.3891 23.5911C26.3115 23.6147 26.2339 23.6249 26.1563 23.6249C25.8711 23.6249 25.5977 23.4797 25.4408 23.2283L25.1877 22.8233C22.8978 19.1547 18.7888 16.875 14.4621 16.875H10.1253V21.0937C10.1253 21.4345 9.91939 21.7433 9.60383 21.8733C9.28659 22.0015 8.92547 21.9306 8.68416 21.691L0.246792 13.2537C-0.0822639 12.9246 -0.0822639 12.3897 0.246792 12.0606ZM8.43779 19.0569V16.0312C8.43779 15.5655 8.81578 15.1875 9.28153 15.1875H14.4621C18.4428 15.1875 22.2633 16.8902 24.9463 19.7555C23.5879 14.2341 18.593 10.1251 12.6565 10.1251H9.28153C8.81578 10.1251 8.43779 9.74708 8.43779 9.28134V6.2557L2.0372 12.6563L8.43779 19.0569Z" fill="white"/>
</svg>
