<svg width="20" height="20" viewBox="0 0 20 20" fill="none" xmlns="http://www.w3.org/2000/svg">
<path d="M10 7V5" stroke="#59595B" stroke-width="1.5" stroke-linecap="round" stroke-linejoin="round"/>
<path d="M10.0377 5C14.4528 3.85714 10.0377 1 10.0377 1C10.0377 1 5.45283 3.85714 10.0377 5Z" stroke="#59595B" stroke-width="1.5" stroke-linecap="round" stroke-linejoin="round"/>
<path d="M13 9C13 9.79565 12.6839 10.5587 12.1213 11.1213C11.5587 11.6839 10.7956 12 10 12C9.20435 12 8.44129 11.6839 7.87868 11.1213C7.31607 10.5587 7 9.79565 7 9" stroke="#59595B" stroke-width="1.5" stroke-linecap="round" stroke-linejoin="round"/>
<path d="M7 10.1667C7 10.9086 6.6919 11.6208 6.1419 12.1505C5.5919 12.6802 4.84387 12.985 4.0585 12.9995C2.37664 13.0299 1 11.6994 1 10.1107V9.00001C1 8.46957 1.22311 7.96086 1.62024 7.58579C2.01738 7.21071 2.55601 7 3.11765 7H16.8824C17.444 7 17.9826 7.21071 18.3798 7.58579C18.7769 7.96086 19 8.46957 19 9.00001V10.1107C19 11.6994 17.6234 13.0299 15.9415 12.9995C15.1561 12.985 14.4081 12.6802 13.8581 12.1505C13.3081 11.6208 13 10.9086 13 10.1667" stroke="#59595B" stroke-width="1.5" stroke-linecap="round" stroke-linejoin="round"/>
<path d="M18 13V17.3624C18 17.5315 17.9234 17.6937 17.787 17.8132C17.6506 17.9328 17.4656 18 17.2727 18H2.72727C2.53439 18 2.3494 17.9328 2.21301 17.8132C2.07662 17.6937 2 17.5315 2 17.3624V13" stroke="#59595B" stroke-width="1.5" stroke-linecap="round" stroke-linejoin="round"/>
</svg>
