<svg width="25" height="25" viewBox="0 0 25 25" fill="none" xmlns="http://www.w3.org/2000/svg">
	<g clip-path="url(#clip0)">
	<path d="M17.8571 4.46387H2.67857C1.19924 4.46387 0 5.6631 0 7.14244V22.321C0 23.8003 1.19924 24.9995 2.67857 24.9995H17.8571C19.3364 24.9995 20.5357 23.8003 20.5357 22.321V7.14244C20.5357 5.6631 19.3364 4.46387 17.8571 4.46387ZM18.75 22.321C18.75 22.8141 18.3502 23.2139 17.8571 23.2139H2.67857C2.18544 23.2139 1.7857 22.8141 1.7857 22.321V7.14244C1.7857 6.64931 2.18544 6.24956 2.67857 6.24956H17.8571C18.3502 6.24956 18.75 6.64931 18.75 7.14244V22.321Z" fill="#8E8E8E"/>
	<path d="M22.3223 0H6.25084C4.7715 0 3.57227 1.19924 3.57227 2.67857C3.57227 3.1717 3.97201 3.57144 4.46514 3.57144C4.95827 3.57144 5.35796 3.1717 5.35796 2.67857C5.35796 2.18544 5.75771 1.7857 6.25084 1.7857H22.3223C22.8154 1.7857 23.2151 2.18544 23.2151 2.67857V18.75C23.2151 19.2431 22.8154 19.6429 22.3223 19.6429C21.8291 19.6429 21.4294 20.0426 21.4294 20.5357C21.4294 21.0289 21.8291 21.4286 22.3223 21.4286C23.8016 21.4286 25.0008 20.2294 25.0008 18.75V2.67857C25.0008 1.19924 23.8016 0 22.3223 0Z" fill="#8E8E8E"/>
	</g>
	<defs>
	<clipPath id="clip0">
	<rect width="25" height="25" fill="white"/>
	</clipPath>
	</defs>
	</svg>
	