<svg width="27" height="25" viewBox="0 0 27 25" fill="none" xmlns="http://www.w3.org/2000/svg">
	<path d="M22.1783 12.5C21.6457 12.5 21.214 12.8998 21.214 13.3929V22.3213C21.214 22.8144 20.7822 23.2142 20.2497 23.2142H2.89282C2.36025 23.2142 1.92853 22.8144 1.92853 22.3213V4.46442C1.92853 3.9713 2.36025 3.57156 2.89282 3.57156H14.4641C14.9967 3.57156 15.4284 3.17182 15.4284 2.6787C15.4284 2.18558 14.9967 1.78589 14.4641 1.78589H2.89282C1.29516 1.78589 0 2.98511 0 4.46442V22.3213C0 23.8006 1.29516 24.9999 2.89282 24.9999H20.2497C21.8474 24.9999 23.1425 23.8006 23.1425 22.3213V13.3928C23.1425 12.8998 22.7108 12.5 22.1783 12.5Z" fill="#8E8E8E"/>
	<path d="M25.9191 1.00134C25.2268 0.360169 24.2877 3.15657e-05 23.3085 0.000136196C22.3287 -0.00247956 21.3886 0.358286 20.6982 1.00192L7.99673 12.7615C7.89136 12.8598 7.81186 12.9793 7.76435 13.1106L5.83582 18.4677C5.6675 18.9356 5.94068 19.4411 6.44597 19.5969C6.54399 19.6272 6.64665 19.6426 6.74994 19.6427C6.85345 19.6425 6.95633 19.6272 7.05464 19.5972L12.8403 17.8115C12.9824 17.7676 13.1115 17.6936 13.2173 17.5955L25.9187 5.8349C27.3603 4.50023 27.3605 2.33616 25.9191 1.00134ZM24.5552 4.57327L12.0197 16.1803L8.27443 17.3383L9.52123 13.8749L22.0616 2.26795C22.751 1.63085 23.8678 1.6319 24.5558 2.27025C24.8845 2.57519 25.0697 2.98801 25.0711 3.41883C25.0723 3.85194 24.8866 4.26754 24.5552 4.57327Z" fill="#8E8E8E"/>
	</svg>
	