<svg width="30" height="30" viewBox="0 0 30 30" fill="none" xmlns="http://www.w3.org/2000/svg">
	<g clip-path="url(#clip0)">
	<path d="M29.9243 14.643C24.1249 2.66441 5.8268 2.72564 0.0757617 14.643C-0.0252539 14.8703 -0.0252539 15.1297 0.0757617 15.357C5.87361 27.3331 24.1669 27.2817 29.9243 15.357C30.0253 15.1296 30.0253 14.8703 29.9243 14.643ZM1.86393 15C2.84502 13.1874 4.76584 10.795 7.66629 9.20423C4.99834 12.4244 4.99881 17.5761 7.66629 20.7957C4.76027 19.2019 2.84156 16.8063 1.86393 15ZM15.0001 22.5937C10.8128 22.5937 7.40631 19.1872 7.40631 15C7.82344 4.92583 22.1783 4.92876 22.5938 15C22.5938 19.1872 19.1873 22.5937 15.0001 22.5937ZM22.3338 20.7957C25.0018 17.5755 25.0013 12.4238 22.3338 9.20429C25.2398 10.798 27.1585 13.1937 28.1362 15C27.1551 16.8126 25.2343 19.205 22.3338 20.7957Z" fill="#8E8E8E"/>
	<path d="M15 3.64061C15.4854 3.64061 15.8789 3.24709 15.8789 2.7617V0.878909C15.8324 -0.287224 14.1671 -0.286345 14.1211 0.878909V2.7617C14.1211 3.24709 14.5146 3.64061 15 3.64061Z" fill="#8E8E8E"/>
	<path d="M15 26.3594C14.5146 26.3594 14.1211 26.7529 14.1211 27.2383V29.1211C14.1676 30.2872 15.8329 30.2863 15.8789 29.1211V27.2383C15.8789 26.7529 15.4854 26.3594 15 26.3594Z" fill="#8E8E8E"/>
	<path d="M4.02309 5.26612C4.36627 5.60931 4.92274 5.60937 5.26604 5.26612C5.60922 4.92288 5.60922 4.36642 5.26604 4.02317L3.93491 2.69198C3.59172 2.3488 3.0352 2.34874 2.69196 2.69198C2.34877 3.03522 2.34877 3.59169 2.69196 3.93493L4.02309 5.26612Z" fill="#8E8E8E"/>
	<path d="M4.02313 24.734L2.692 26.0651C2.34876 26.4084 2.34876 26.9648 2.692 27.3081C3.03513 27.6513 3.59171 27.6514 3.93495 27.3081L5.26608 25.9769C5.60932 25.6337 5.60932 25.0772 5.26608 24.734C4.9229 24.3908 4.36637 24.3908 4.02313 24.734Z" fill="#8E8E8E"/>
	<path d="M25.9769 5.26606L27.3081 3.93493C27.6513 3.59169 27.6513 3.03522 27.3081 2.69198C26.9648 2.34874 26.4084 2.3488 26.0651 2.69198L24.734 4.02305C24.3908 4.3663 24.3908 4.92276 24.734 5.266C25.0778 5.60977 25.6342 5.60872 25.9769 5.26606Z" fill="#8E8E8E"/>
	<path d="M25.9769 24.734C25.6338 24.3908 25.0772 24.3908 24.734 24.734C24.3908 25.0772 24.3908 25.6337 24.734 25.9769L26.0651 27.3081C26.4083 27.6513 26.9648 27.6514 27.3081 27.3081C27.6513 26.9648 27.6513 26.4084 27.3081 26.0651L25.9769 24.734Z" fill="#8E8E8E"/>
	<path d="M15 11.2969C12.9581 11.2969 11.2969 12.9581 11.2969 15C11.5003 19.9128 18.5004 19.9113 18.7032 15C18.7031 12.9581 17.0419 11.2969 15 11.2969ZM15 16.9453C13.9273 16.9453 13.0547 16.0726 13.0547 15C13.1616 12.4192 16.8388 12.42 16.9453 15C16.9453 16.0727 16.0727 16.9453 15 16.9453Z" fill="#8E8E8E"/>
	</g>
	<defs>
	<clipPath id="clip0">
	<rect width="30" height="30" fill="white"/>
	</clipPath>
	</defs>
	</svg>
	