<svg width="24" height="24" viewBox="0 0 24 24" fill="none" xmlns="http://www.w3.org/2000/svg">
<path d="M8 18.9985H5.89857C5.2032 18.9978 4.51593 18.8311 3.88238 18.5097C3.24882 18.1882 2.68347 17.7192 2.22385 17.1339C1.76423 16.5486 1.42085 15.8604 1.2165 15.1148C1.01216 14.3693 0.951519 13.5835 1.03861 12.8097C1.12571 12.0358 1.35854 11.2916 1.72166 10.6264C2.08479 9.96124 2.56989 9.39029 3.14477 8.95148C3.71966 8.51267 4.37117 8.21604 5.05608 8.08126C5.74099 7.94649 6.44362 7.97666 7.11733 8.16977" stroke="#3572F2" stroke-width="1.5" stroke-linecap="round" stroke-linejoin="round"/>
<path d="M7 11.4993C7.00012 10.3109 7.28261 9.13962 7.8242 8.08186C8.36579 7.02411 9.15097 6.11019 10.115 5.41542C11.0791 4.72064 12.1945 4.26489 13.3693 4.08573C14.544 3.90657 15.7445 4.00912 16.8719 4.38493C17.9992 4.76075 19.0211 5.39907 19.8534 6.24729C20.6857 7.09552 21.3045 8.12937 21.6588 9.26365C22.0132 10.3979 22.0929 11.6002 21.8915 12.7713C21.69 13.9425 21.2132 15.049 20.5002 15.9997" stroke="#3572F2" stroke-width="1.5" stroke-linecap="round" stroke-linejoin="round"/>
<path d="M10 13L13 10L16 13" stroke="#3572F2" stroke-width="1.5" stroke-linecap="round" stroke-linejoin="round"/>
<path d="M13 18.9985V10.9985" stroke="#3572F2" stroke-width="1.5" stroke-linecap="round" stroke-linejoin="round"/>
</svg>
