<svg width="29" height="35" viewBox="0 0 29 35" fill="none" xmlns="http://www.w3.org/2000/svg">
	<path d="M24.3438 12.8516H9.84903V7.23037C9.84903 4.75125 11.9343 2.73438 14.4975 2.73438C17.0606 2.73438 19.1459 4.75125 19.1459 7.23037V8.47656C19.1459 9.23164 19.758 9.84375 20.5131 9.84375C21.2682 9.84375 21.8803 9.23164 21.8803 8.47656V7.23037C21.8803 3.24352 18.5683 0 14.4975 0C10.4266 0 7.11466 3.24352 7.11466 7.23037V12.8516H4.65625C2.39465 12.8516 0.554688 14.6915 0.554688 16.9531V30.8984C0.554688 33.16 2.39465 35 4.65625 35H24.3438C26.6054 35 28.4453 33.16 28.4453 30.8984V16.9531C28.4453 14.6915 26.6054 12.8516 24.3438 12.8516ZM25.7109 30.8984C25.7109 31.6523 25.0976 32.2656 24.3438 32.2656H4.65625C3.90238 32.2656 3.28906 31.6523 3.28906 30.8984V16.9531C3.28906 16.1993 3.90238 15.5859 4.65625 15.5859H24.3438C25.0976 15.5859 25.7109 16.1993 25.7109 16.9531V30.8984Z" fill="#828282"/>
	<path d="M14.5 19.5508C13.1031 19.5508 11.9707 20.6832 11.9707 22.0801C11.9707 22.972 12.4328 23.7556 13.1303 24.2059V27.207C13.1303 27.9621 13.7424 28.5742 14.4975 28.5742C15.2525 28.5742 15.8647 27.9621 15.8647 27.207V24.2091C16.5649 23.7593 17.0293 22.9742 17.0293 22.0801C17.0293 20.6832 15.8969 19.5508 14.5 19.5508Z" fill="#828282"/>
	</svg>
	