<svg width="290" height="219" viewBox="0 0 290 219" fill="none" xmlns="http://www.w3.org/2000/svg">
	<g clip-path="url(#clip0)" filter="url(#filter0_d)">
	<path d="M200.081 88.0659C201.081 84.6367 201.611 81.0213 201.611 77.2662C201.611 55.884 184.171 38.5517 162.654 38.5517C147.696 38.5517 134.721 46.9153 128.179 59.2046C124.135 57.4822 119.669 56.5202 115 56.5202C96.529 56.5202 81.5552 71.4008 81.5552 89.7572C81.5552 92.9692 82.008 96.0571 82.8668 98.9898C64.9106 99.5949 50.5613 114.243 50.5613 132.211C50.5613 150.568 65.5352 165.448 84.0066 165.448H185.061C207.357 165.448 225.439 147.48 225.439 125.322C225.439 108.44 214.946 93.9933 200.081 88.0659Z" fill="white"/>
	<path d="M190.971 124.079L180.526 107.5L164.8 119.139C164.018 119.733 163.852 120.849 164.421 121.633C165.013 122.417 166.126 122.583 166.907 122.013L178.157 113.676C175.244 129.614 161.413 141.348 145 141.348C131.192 141.348 118.923 133.058 113.713 120.231C113.334 119.329 112.315 118.878 111.392 119.258C110.492 119.638 110.042 120.659 110.421 121.585C116.152 135.766 129.723 144.934 145 144.934C162.715 144.934 177.707 132.583 181.402 115.6L187.963 126.003C188.484 126.835 189.597 127.096 190.426 126.55C191.255 126.027 191.492 124.911 190.971 124.079Z" fill="#9FC053"/>
	<path d="M179.366 92.9396C173.516 79.0681 160.016 70.0895 145 70.0895C127.284 70.0895 112.292 82.4409 108.597 99.4241L102.037 89.0204C101.516 88.1891 100.403 87.9278 99.5738 88.4741C98.7448 88.9967 98.508 90.0893 99.029 90.9444L109.474 107.5L125.2 95.8612C125.982 95.2674 126.147 94.151 125.579 93.3672C124.987 92.5833 123.874 92.4171 123.092 92.9871L111.842 101.324C114.755 85.3863 128.587 73.6524 145 73.6524C158.595 73.6524 170.792 81.7759 176.097 94.3173C176.476 95.2199 177.518 95.6474 178.418 95.2674C179.342 94.8873 179.745 93.8422 179.366 92.9396Z" fill="#9FC053"/>
	</g>
	<defs>
	<filter id="filter0_d" x="0" y="0" width="290" height="219" filterUnits="userSpaceOnUse" color-interpolation-filters="sRGB">
	<feFlood flood-opacity="0" result="BackgroundImageFix"/>
	<feColorMatrix in="SourceAlpha" type="matrix" values="0 0 0 0 0 0 0 0 0 0 0 0 0 0 0 0 0 0 127 0" result="hardAlpha"/>
	<feOffset dy="2"/>
	<feGaussianBlur stdDeviation="5"/>
	<feColorMatrix type="matrix" values="0 0 0 0 0 0 0 0 0 0 0 0 0 0 0 0 0 0 0.2 0"/>
	<feBlend mode="normal" in2="BackgroundImageFix" result="effect1_dropShadow"/>
	<feBlend mode="normal" in="SourceGraphic" in2="effect1_dropShadow" result="shape"/>
	</filter>
	<clipPath id="clip0">
	<rect width="270" height="199" fill="white" transform="translate(10 8)"/>
	</clipPath>
	</defs>
	</svg>
	