<svg width="61" height="61" viewBox="0 0 61 61" fill="none" xmlns="http://www.w3.org/2000/svg">
	<g filter="url(#filter0_d)">
	<rect x="5" y="3" width="51" height="51" fill="#9FC053"/>
	</g>
	<g clip-path="url(#clip0)">
	<path d="M43.6667 37H39.6667C39.2987 37 39 36.7013 39 36.3333C39 35.9653 39.2987 35.6667 39.6667 35.6667H43.6667C44.7693 35.6667 45.6667 34.7693 45.6667 33.6667V24.3333C45.6667 23.2307 44.7693 22.3333 43.6667 22.3333H18.3333C17.2307 22.3333 16.3333 23.2307 16.3333 24.3333V33.6667C16.3333 34.7693 17.2307 35.6667 18.3333 35.6667H22.3333C22.7013 35.6667 23 35.9653 23 36.3333C23 36.7013 22.7013 37 22.3333 37H18.3333C16.4947 37 15 35.504 15 33.6667V24.3333C15 22.496 16.4947 21 18.3333 21H43.6667C45.5053 21 47 22.496 47 24.3333V33.6667C47 35.504 45.5053 37 43.6667 37Z" fill="white"/>
	<path d="M34.3333 41H26.3333C25.9653 41 25.6667 40.7013 25.6667 40.3333C25.6667 39.9653 25.9653 39.6667 26.3333 39.6667H34.3333C34.7013 39.6667 35 39.9653 35 40.3333C35 40.7013 34.7013 41 34.3333 41Z" fill="white"/>
	<path d="M34.3333 38.3333H26.3333C25.9653 38.3333 25.6667 38.0347 25.6667 37.6667C25.6667 37.2987 25.9653 37 26.3333 37H34.3333C34.7013 37 35 37.2987 35 37.6667C35 38.0347 34.7013 38.3333 34.3333 38.3333Z" fill="white"/>
	<path d="M29 35.6667H26.3333C25.9653 35.6667 25.6667 35.368 25.6667 35C25.6667 34.632 25.9653 34.3333 26.3333 34.3333H29C29.368 34.3333 29.6667 34.632 29.6667 35C29.6667 35.368 29.368 35.6667 29 35.6667Z" fill="white"/>
	<path d="M39.6667 22.3333C39.2987 22.3333 39 22.0347 39 21.6667V16.3333C39 15.2307 38.1027 14.3333 37 14.3333H25C23.8973 14.3333 23 15.2307 23 16.3333V21.6667C23 22.0347 22.7013 22.3333 22.3333 22.3333C21.9653 22.3333 21.6667 22.0347 21.6667 21.6667V16.3333C21.6667 14.496 23.1613 13 25 13H37C38.8387 13 40.3333 14.496 40.3333 16.3333V21.6667C40.3333 22.0347 40.0347 22.3333 39.6667 22.3333Z" fill="white"/>
	<path d="M37 45H25C23.1613 45 21.6667 43.504 21.6667 41.6667V31C21.6667 30.632 21.9653 30.3333 22.3333 30.3333H39.6667C40.0347 30.3333 40.3333 30.632 40.3333 31V41.6667C40.3333 43.504 38.8387 45 37 45ZM23 31.6667V41.6667C23 42.7693 23.8973 43.6667 25 43.6667H37C38.1027 43.6667 39 42.7693 39 41.6667V31.6667H23Z" fill="white"/>
	</g>
	<defs>
	<filter id="filter0_d" x="0" y="0" width="61" height="61" filterUnits="userSpaceOnUse" color-interpolation-filters="sRGB">
	<feFlood flood-opacity="0" result="BackgroundImageFix"/>
	<feColorMatrix in="SourceAlpha" type="matrix" values="0 0 0 0 0 0 0 0 0 0 0 0 0 0 0 0 0 0 127 0" result="hardAlpha"/>
	<feOffset dy="2"/>
	<feGaussianBlur stdDeviation="2.5"/>
	<feColorMatrix type="matrix" values="0 0 0 0 0 0 0 0 0 0 0 0 0 0 0 0 0 0 0.25 0"/>
	<feBlend mode="normal" in2="BackgroundImageFix" result="effect1_dropShadow"/>
	<feBlend mode="normal" in="SourceGraphic" in2="effect1_dropShadow" result="shape"/>
	</filter>
	<clipPath id="clip0">
	<rect width="32" height="32" fill="white" transform="translate(15 13)"/>
	</clipPath>
	</defs>
	</svg>
	