<svg width="28" height="24" viewBox="0 0 28 24" fill="none" xmlns="http://www.w3.org/2000/svg">
	<g clip-path="url(#clip0)">
	<path d="M24.0758 20.3327C23.806 20.3327 23.5363 20.2402 23.3174 20.0504C22.8441 19.6382 22.7983 18.9287 23.2182 18.464C23.4447 18.2117 23.661 17.9469 23.8569 17.6746C24.2259 17.17 24.941 17.0526 25.455 17.4148C25.9691 17.777 26.0887 18.479 25.7197 18.9836C25.4754 19.3184 25.2108 19.6432 24.9334 19.9529C24.7094 20.2053 24.3939 20.3327 24.0758 20.3327Z" fill="#8E8E8E"/>
	<path d="M15.2938 24.0001C15.2785 24.0001 15.2607 24.0001 15.2454 24.0001C14.5202 23.9701 13.7949 23.8751 13.09 23.7203C12.4691 23.5854 12.0823 22.9833 12.2197 22.3787C12.3571 21.7742 12.9704 21.392 13.5888 21.5269C14.1614 21.6518 14.7518 21.7292 15.3421 21.7542C15.9732 21.7817 16.4644 22.3038 16.4389 22.9258C16.4109 23.5279 15.902 24.0001 15.2938 24.0001ZM19.1822 23.4854C18.6987 23.4854 18.2508 23.1832 18.093 22.706C17.8996 22.1164 18.2279 21.4819 18.831 21.2895C19.3908 21.1122 19.938 20.8823 20.4571 20.61C21.0144 20.3177 21.7091 20.5226 22.0069 21.0697C22.3046 21.6168 22.0959 22.2988 21.5386 22.5911C20.8999 22.9283 20.2255 23.2081 19.5359 23.428C19.4188 23.4679 19.2992 23.4854 19.1822 23.4854ZM9.71821 22.2488C9.50445 22.2488 9.2856 22.1889 9.09475 22.0665C8.48909 21.6792 7.91398 21.2346 7.38721 20.7474C6.92661 20.3227 6.90625 19.6108 7.33886 19.1586C7.77147 18.7064 8.49673 18.6864 8.95733 19.1111C9.38739 19.5083 9.85309 19.8681 10.3468 20.1853C10.8761 20.5251 11.0262 21.2221 10.6801 21.7417C10.4587 22.069 10.0923 22.2488 9.71821 22.2488Z" fill="#8E8E8E"/>
	<path d="M5.83237 17.9494C5.40994 17.9494 5.00533 17.7196 4.80429 17.3249C4.61852 16.9551 4.44802 16.5729 4.30297 16.1857C4.08158 15.6036 4.3844 14.9566 4.97733 14.7393C5.57026 14.5219 6.22936 14.8192 6.45075 15.4013C6.57035 15.7136 6.70523 16.0258 6.85791 16.3256C7.13783 16.8827 6.90626 17.5572 6.33878 17.832C6.17592 17.9119 6.00287 17.9494 5.83237 17.9494Z" fill="#8E8E8E"/>
	<path d="M24.7884 19.4533C24.5569 19.4533 24.3253 19.3859 24.1243 19.2435C23.6102 18.8812 23.4906 18.1792 23.8596 17.6746C25.0684 16.0133 25.7096 14.0548 25.7096 12.0037C25.7096 6.62517 21.2512 2.24836 15.7698 2.24836C10.2884 2.24836 5.83252 6.62517 5.83252 12.0062C5.83252 12.6283 5.32102 13.1304 4.68738 13.1304C4.05373 13.1304 3.54224 12.6283 3.54224 12.0062C3.54224 5.38607 9.0262 0 15.7698 0C22.5134 0 27.9999 5.38607 27.9999 12.0062C27.9999 14.5269 27.2136 16.9401 25.7224 18.9837C25.4984 19.2909 25.1473 19.4533 24.7884 19.4533Z" fill="#8E8E8E"/>
	<path d="M4.42516 13.6201C4.34118 13.6201 4.2572 13.6101 4.17577 13.5926C3.88058 13.5277 3.62101 13.3503 3.45815 13.098L0.17795 8.01671C-0.160503 7.49209 -0.00272768 6.7976 0.531672 6.46534C1.06607 6.13308 1.77352 6.28797 2.11197 6.81258L4.77888 10.9421L8.98537 8.32398C9.51977 7.99172 10.2272 8.14661 10.5657 8.67123C10.9041 9.19585 10.7463 9.89034 10.2119 10.2226L5.03844 13.4452C4.85522 13.5602 4.64146 13.6201 4.42516 13.6201Z" fill="#8E8E8E"/>
	</g>
	<defs>
	<clipPath id="clip0">
	<rect width="28" height="24" fill="white"/>
	</clipPath>
	</defs>
	</svg>
	