<svg width="25" height="25" viewBox="0 0 25 25" fill="none" xmlns="http://www.w3.org/2000/svg">
	<path d="M24.3539 5.64233L19.3063 0.643555C18.8913 0.228564 18.3396 0 17.7526 0C14.8403 0 5.75737 0 2.19727 0C0.985693 0 0 0.985693 0 2.19727V22.8027C0 24.0143 0.985693 25 2.19727 25C3.02529 25 21.9238 25 22.8027 25C24.0143 25 25 24.0143 25 22.8027V7.19853C25 6.61162 24.7714 6.05986 24.3539 5.64233ZM11.7676 1.46484H13.2324V4.39453H11.7676V1.46484ZM5.9082 1.46484H10.3027V5.12695C10.3027 5.53145 10.6307 5.85938 11.0352 5.85938H13.9648C14.3693 5.85938 14.6973 5.53145 14.6973 5.12695V1.46484H16.1621V6.5918C16.1621 6.99565 15.8335 7.32422 15.4297 7.32422H6.64062C6.23677 7.32422 5.9082 6.99565 5.9082 6.5918V1.46484ZM19.0918 23.5352H5.9082V16.2109H19.0918V23.5352ZM19.0918 14.7461H5.9082V14.0137C5.9082 13.6098 6.23677 13.2812 6.64062 13.2812H18.3594C18.7632 13.2812 19.0918 13.6098 19.0918 14.0137V14.7461ZM23.5352 22.8027C23.5352 23.2066 23.2066 23.5352 22.8027 23.5352H20.5566V14.0137C20.5566 12.8021 19.5709 11.8164 18.3594 11.8164H6.64062C5.42905 11.8164 4.44336 12.8021 4.44336 14.0137V23.5352H2.19727C1.79341 23.5352 1.46484 23.2066 1.46484 22.8027V2.19727C1.46484 1.79341 1.79341 1.46484 2.19727 1.46484H4.44336V6.5918C4.44336 7.80337 5.42905 8.78906 6.64062 8.78906H15.4297C16.6413 8.78906 17.627 7.80337 17.627 6.5918V1.46484H17.7526C17.9482 1.46484 18.1322 1.54102 18.273 1.68188L23.3207 6.68066C23.459 6.81899 23.5352 7.00293 23.5352 7.19853V22.8027Z" fill="white"/>
	</svg>
	