<svg width="45" height="45" viewBox="0 0 61 61" fill="none" xmlns="http://www.w3.org/2000/svg">
	<g filter="url(#filter0_d)">
	<rect x="5" y="3" width="51" height="51" fill="#9FC053"/>
	</g>
	<path d="M42.3539 21.6423L37.3063 16.6436C36.8913 16.2286 36.3396 16 35.7526 16C32.8403 16 23.7574 16 20.1973 16C18.9857 16 18 16.9857 18 18.1973V38.8027C18 40.0143 18.9857 41 20.1973 41C21.0253 41 39.9238 41 40.8027 41C42.0143 41 43 40.0143 43 38.8027V23.1985C43 22.6116 42.7714 22.0599 42.3539 21.6423ZM29.7676 17.4648H31.2324V20.3945H29.7676V17.4648ZM23.9082 17.4648H28.3027V21.127C28.3027 21.5314 28.6307 21.8594 29.0352 21.8594H31.9648C32.3693 21.8594 32.6973 21.5314 32.6973 21.127V17.4648H34.1621V22.5918C34.1621 22.9957 33.8335 23.3242 33.4297 23.3242H24.6406C24.2368 23.3242 23.9082 22.9957 23.9082 22.5918V17.4648ZM37.0918 39.5352H23.9082V32.2109H37.0918V39.5352ZM37.0918 30.7461H23.9082V30.0137C23.9082 29.6098 24.2368 29.2812 24.6406 29.2812H36.3594C36.7632 29.2812 37.0918 29.6098 37.0918 30.0137V30.7461ZM41.5352 38.8027C41.5352 39.2066 41.2066 39.5352 40.8027 39.5352H38.5566V30.0137C38.5566 28.8021 37.5709 27.8164 36.3594 27.8164H24.6406C23.4291 27.8164 22.4434 28.8021 22.4434 30.0137V39.5352H20.1973C19.7934 39.5352 19.4648 39.2066 19.4648 38.8027V18.1973C19.4648 17.7934 19.7934 17.4648 20.1973 17.4648H22.4434V22.5918C22.4434 23.8034 23.4291 24.7891 24.6406 24.7891H33.4297C34.6413 24.7891 35.627 23.8034 35.627 22.5918V17.4648H35.7526C35.9482 17.4648 36.1322 17.541 36.273 17.6819L41.3207 22.6807C41.459 22.819 41.5352 23.0029 41.5352 23.1985V38.8027Z" fill="white"/>
	<path d="M34.8945 33.6758H26.1055C25.701 33.6758 25.373 34.0037 25.373 34.4082C25.373 34.8127 25.701 35.1406 26.1055 35.1406H34.8945C35.299 35.1406 35.627 34.8127 35.627 34.4082C35.627 34.0037 35.299 33.6758 34.8945 33.6758Z" fill="white"/>
	<path d="M33.4297 36.6055H27.5703C27.1658 36.6055 26.8379 36.9334 26.8379 37.3379C26.8379 37.7424 27.1658 38.0703 27.5703 38.0703H33.4297C33.8342 38.0703 34.1621 37.7424 34.1621 37.3379C34.1621 36.9334 33.8342 36.6055 33.4297 36.6055Z" fill="white"/>
	<defs>
	<filter id="filter0_d" x="0" y="0" width="61" height="61" filterUnits="userSpaceOnUse" color-interpolation-filters="sRGB">
	<feFlood flood-opacity="0" result="BackgroundImageFix"/>
	<feColorMatrix in="SourceAlpha" type="matrix" values="0 0 0 0 0 0 0 0 0 0 0 0 0 0 0 0 0 0 127 0" result="hardAlpha"/>
	<feOffset dy="2"/>
	<feGaussianBlur stdDeviation="2.5"/>
	<feColorMatrix type="matrix" values="0 0 0 0 0 0 0 0 0 0 0 0 0 0 0 0 0 0 0.25 0"/>
	<feBlend mode="normal" in2="BackgroundImageFix" result="effect1_dropShadow"/>
	<feBlend mode="normal" in="SourceGraphic" in2="effect1_dropShadow" result="shape"/>
	</filter>
	</defs>
	</svg>
	