<svg width="30" height="23" viewBox="0 0 30 23" fill="none" xmlns="http://www.w3.org/2000/svg">
	<path d="M29.0657 10.3038L19.899 1.13534C19.6368 0.873177 19.2463 0.796177 18.8998 0.937344C18.557 1.07851 18.3333 1.41401 18.3333 1.78434V6.36768H15.5833C6.9905 6.36768 0 13.3582 0 21.951C0 22.3598 0.271333 22.7192 0.663667 22.831C0.748 22.8567 0.832333 22.8677 0.916667 22.8677C1.2265 22.8677 1.5235 22.71 1.694 22.4368L1.969 21.9968C4.45683 18.0112 8.921 15.5343 13.6217 15.5343H18.3333V20.1177C18.3333 20.488 18.557 20.8235 18.8998 20.9647C19.2445 21.104 19.6368 21.027 19.899 20.7667L29.0657 11.6C29.4232 11.2425 29.4232 10.6613 29.0657 10.3038ZM20.1667 17.9048V14.6177C20.1667 14.1117 19.756 13.701 19.25 13.701H13.6217C9.29683 13.701 5.14617 15.5508 2.23117 18.6638C3.707 12.6652 9.13367 8.20101 15.5833 8.20101H19.25C19.756 8.20101 20.1667 7.79034 20.1667 7.28434V3.99718L27.1205 10.951L20.1667 17.9048Z" fill="#8E8E8E"/>
	</svg>
	