<svg width="24" height="24" viewBox="0 0 24 24" fill="none" xmlns="http://www.w3.org/2000/svg">
	<rect x="0.75" y="3.75" width="19.5" height="19.5" rx="2.25" stroke="#828282" stroke-width="1.5"/>
	<rect x="0.75" y="14.75" width="9.5" height="8.5" rx="2.25" stroke="#828282" stroke-width="1.5"/>
	<path d="M10.25 13C10.25 13.4142 10.5858 13.75 11 13.75L17.75 13.75C18.1642 13.75 18.5 13.4142 18.5 13C18.5 12.5858 18.1642 12.25 17.75 12.25H11.75V6.25C11.75 5.83579 11.4142 5.5 11 5.5C10.5858 5.5 10.25 5.83579 10.25 6.25L10.25 13ZM19.4697 3.46967L10.4697 12.4697L11.5303 13.5303L20.5303 4.53033L19.4697 3.46967Z" fill="#828282"/>
	</svg>
	