<svg width="24" height="24" viewBox="0 0 24 24" fill="none" xmlns="http://www.w3.org/2000/svg">
<path d="M20 5L4 5.00001" stroke="#59595B" stroke-width="1.5" stroke-linecap="round" stroke-linejoin="round"/>
<path d="M10 10V16" stroke="#59595B" stroke-width="1.5" stroke-linecap="round" stroke-linejoin="round"/>
<path d="M14 10V16" stroke="#59595B" stroke-width="1.5" stroke-linecap="round" stroke-linejoin="round"/>
<path d="M19 5V19.25C19 19.4489 18.9181 19.6397 18.7722 19.7803C18.6263 19.921 18.4285 20 18.2222 20H5.77778C5.5715 20 5.37367 19.921 5.22781 19.7803C5.08194 19.6397 5 19.4489 5 19.25V5" stroke="#59595B" stroke-width="1.5" stroke-linecap="round" stroke-linejoin="round"/>
<path d="M16 5V3.5C16 3.10218 15.8314 2.72064 15.5314 2.43934C15.2313 2.15804 14.8243 2 14.4 2H9.6C9.17565 2 8.76869 2.15804 8.46863 2.43934C8.16857 2.72064 8 3.10218 8 3.5V5" stroke="#59595B" stroke-width="1.5" stroke-linecap="round" stroke-linejoin="round"/>
</svg>
