<svg width="22" height="33" viewBox="0 0 22 33" fill="none" xmlns="http://www.w3.org/2000/svg">
	<path d="M22 14.5825V7.72743L15.2059 0H3.60735C1.61765 0 0 1.64589 0 3.67032V24.3015C0 26.3342 1.61765 27.98 3.60735 27.98H5.89632C6.37353 27.98 6.75368 27.585 6.75368 27.1077C6.75368 26.6222 6.36544 26.2354 5.89632 26.2354H3.60735C2.56397 26.2354 1.71471 25.3713 1.71471 24.3097V3.67032C1.71471 2.60873 2.56397 1.74464 3.60735 1.74464H13.9603V7.63691C13.9603 8.35287 14.5265 8.92893 15.2301 8.92893H20.2772V14.5661V24.285V24.3015C20.2772 25.3631 19.4279 26.2272 18.3846 26.2272H15.5456C15.0684 26.2272 14.6882 26.6222 14.6882 27.0995C14.6882 27.585 15.0765 27.9718 15.5456 27.9718H18.3846C20.3743 27.9718 21.9919 26.3259 21.9919 24.3015V24.285L22 14.5825ZM16.0956 7.18429C15.8691 7.18429 15.675 6.99501 15.675 6.75636V3.16833L19.2096 7.19252H16.0956V7.18429Z" fill="#8E8E8E"/>
	<path d="M4.77191 16.4506L5.79103 14.6895L6.78588 16.4506H8.93735L6.86676 13.3317L8.71897 10.5584H6.74544L5.88 12.1549L5.00647 10.5584H2.91162L4.82044 13.3152L2.72559 16.4506H4.77191Z" fill="#8E8E8E"/>
	<path d="M9.30145 10.5584V16.4506H13.6529V14.9364H11.089V10.5584H9.30145Z" fill="#8E8E8E"/>
	<path d="M14.0491 14.4673C14.0653 16.3519 15.9418 16.5905 16.5969 16.5905C17.891 16.5905 19.2741 16.0967 19.2741 14.5578C19.2741 13.4798 18.4653 13.0848 17.6403 12.8544C16.8234 12.6239 15.9903 12.5334 15.958 12.1137C15.958 11.7845 16.3543 11.7187 16.5969 11.7187C16.7749 11.7187 16.9771 11.7598 17.1227 11.8668C17.2683 11.9656 17.3653 12.1137 17.333 12.3359H19.0234C18.9749 10.8958 17.8668 10.4102 16.605 10.4102C15.408 10.4102 14.2675 10.9945 14.2675 12.3606C14.2675 13.5539 15.3109 13.809 16.233 14.0723C17.2278 14.3603 17.4866 14.4426 17.4866 14.7471C17.4866 15.1833 17.0418 15.282 16.7506 15.282C16.419 15.282 16.0308 15.208 15.9013 14.8541C15.8609 14.7471 15.8366 14.6155 15.8366 14.4673H14.0491Z" fill="#8E8E8E"/>
	<path d="M13.3862 28.6137L12.0516 29.7V20.0798C12.0516 19.4873 11.5825 19.01 11.0002 19.01C10.4178 19.01 9.94868 19.4873 9.94868 20.0798V29.7905L8.37147 28.589C7.91044 28.2352 7.24721 28.3339 6.89941 28.803C6.55162 29.2721 6.64868 29.9469 7.10971 30.3008L10.3693 32.786C10.5553 32.9259 10.7818 33 11.0002 33C11.2347 33 11.4693 32.9177 11.6553 32.7614L14.7046 30.2761C15.1575 29.9057 15.2303 29.2309 14.8663 28.7701C14.5024 28.3175 13.8391 28.2434 13.3862 28.6137Z" fill="#8E8E8E"/>
	</svg>
	