<svg width="52" height="52" viewBox="0 0 52 52" fill="none" xmlns="http://www.w3.org/2000/svg">
<path d="M14.8376 44.9969C14.6222 44.9969 14.4089 44.9548 14.21 44.8732C14.011 44.7915 13.8302 44.6718 13.6779 44.5209C13.5256 44.37 13.4047 44.1909 13.3223 43.9937C13.2399 43.7966 13.1975 43.5853 13.1975 43.3719L13.1976 34.6995C12.3226 35.1101 11.3571 35.2947 10.3908 35.2363C9.42442 35.1779 8.4887 34.8783 7.67063 34.3653C6.85256 33.8523 6.17872 33.1427 5.71179 32.3025C5.24485 31.4622 5 30.5186 5 29.5594C5 28.6002 5.24485 27.6565 5.71179 26.8163C6.17872 25.976 6.85256 25.2664 7.67063 24.7534C8.4887 24.2405 9.42442 23.9409 10.3908 23.8824C11.3571 23.824 12.3226 24.0087 13.1976 24.4193L13.1975 15.7469C13.1975 15.5335 13.2399 15.3222 13.3223 15.125C13.4048 14.9279 13.5256 14.7487 13.6779 14.5978C13.8302 14.4469 14.011 14.3272 14.21 14.2456C14.409 14.1639 14.6223 14.1219 14.8376 14.1219L24.4107 14.122C23.9963 13.2551 23.81 12.2984 23.8689 11.341C23.9279 10.3836 24.2303 9.45652 24.7481 8.64599C25.2658 7.83547 25.982 7.16785 26.8301 6.70522C27.6782 6.2426 28.6306 6 29.5987 6C30.5668 6 31.5192 6.2426 32.3673 6.70522C33.2154 7.16785 33.9316 7.83547 34.4493 8.64599C34.9671 9.45652 35.2695 10.3836 35.3285 11.341C35.3874 12.2984 35.201 13.2551 34.7866 14.122L44.3597 14.1219C44.7947 14.1219 45.2119 14.2931 45.5195 14.5978C45.8271 14.9026 45.9999 15.3159 45.9999 15.7469L46 24.4192C45.125 24.0087 44.1595 23.824 43.1932 23.8824C42.2268 23.9409 41.2911 24.2405 40.473 24.7534C39.655 25.2664 38.9811 25.976 38.5142 26.8163C38.0473 27.6565 37.8024 28.6002 37.8024 29.5594C37.8024 30.5186 38.0473 31.4622 38.5142 32.3025C38.9811 33.1427 39.655 33.8523 40.473 34.3653C41.2911 34.8783 42.2268 35.1779 43.1932 35.2363C44.1595 35.2947 45.125 35.1101 46 34.6995L45.9999 43.3719C45.9999 43.8029 45.8271 44.2162 45.5195 44.5209C45.2119 44.8257 44.7947 44.9969 44.3598 44.9969L14.8376 44.9969Z" stroke="url(#paint0_linear_763_9886)" stroke-width="1.5" stroke-linecap="round" stroke-linejoin="round"/>
<defs>
<linearGradient id="paint0_linear_763_9886" x1="-29.159" y1="25.4984" x2="71.451" y2="0.213482" gradientUnits="userSpaceOnUse">
<stop offset="0.222944" stop-color="#1F4A80"/>
<stop offset="0.389829" stop-color="#5CA0A9"/>
<stop offset="0.52516" stop-color="#6ED0C1"/>
<stop offset="0.680001" stop-color="#DDE7C2"/>
</linearGradient>
</defs>
</svg>
