<svg width="48" height="42" viewBox="0 0 48 42" fill="none" xmlns="http://www.w3.org/2000/svg">
<path d="M22.9216 4.37656C23.777 4.51999 24.5662 4.92188 25.1802 5.52672C25.7941 6.13156 26.2025 6.90951 26.349 7.75313M23.8148 1.49877C26.8969 2.60644 29.0784 5.70671 29.0784 8.97961C29.0784 10.8624 28.7497 11.7408 27.1607 14.1022C25.7836 16.149 25.4674 16.6098 24.8242 17.9688C24.4891 18.0732 24.4171 17.9688 20.9437 17.9688H18.1304H16.9549C16.8002 17.4142 16.0651 16.0623 15.3215 14.9649C13.0502 11.6128 12.8288 11.0826 12.8273 8.9932C12.8239 3.43491 18.4754 -0.419952 23.8148 1.49877ZM39.0637 15.7023L40.1376 16.756C40.7283 17.3354 41.4684 18.2136 41.7825 18.7074C42.4317 19.7287 42.8957 19.9605 44.6937 20.1612C46.5582 20.3694 46.4996 20.2389 46.4996 24.1791C46.4996 28.1745 46.5833 28.0063 44.4424 28.3097C42.4445 28.593 42.4071 28.6129 41.6308 29.8102C40.7996 31.092 39.2368 32.4807 37.4507 33.5245C35.5068 34.6606 35.551 34.5615 35.8116 37.1987C36.088 39.9949 36.1029 39.9682 33.934 40.5641C31.3852 41.2644 31.4691 41.2915 30.1925 39.355C28.9199 37.4246 28.899 37.4171 26.2102 37.9641C22.8947 38.6386 19.3739 38.5696 16.3439 37.7709C14.8091 37.3662 14.4254 37.5687 13.1513 39.4556C11.9365 41.2548 12.0436 41.2189 9.67431 40.6193C7.26338 40.0093 7.3046 40.0747 7.59375 37.3078C7.98339 33.5795 7.97723 33.5387 6.82381 32.244C4.76259 29.9299 3.49275 27.2439 3.11055 24.3895C2.87706 22.6449 2.92295 22.0121 3.51931 18.7628C3.59006 18.3779 3.4065 17.9649 2.85879 17.2766C1.47338 15.5349 1.10456 13.2394 1.95076 11.6251L2.2516 11.0512L2.61765 12.1525C3.04086 13.426 4.16751 14.7309 4.84332 14.7309C5.14394 14.7309 5.88881 14.1415 6.94279 13.0697C7.84147 12.1561 9.16399 11.0128 9.88209 10.5291L11.1876 9.64968C11 12 12.1178 13.533 13.2391 15.1463C14 16.3659 13.9794 16.756 14.5 20.5C15.3215 26.4084 18.1304 26.4084 20.9437 26.4084C24.5 26.4084 26.349 26.4084 27.1607 20.5C27.6036 17.2766 28.8161 15.1463 29.0784 14.7309C30.4268 12.595 30.778 11.0512 30.778 9.06538C30.778 8.87578 31.2178 9.0605 32.1056 9.62315L33.0914 10.2478L32.6782 11.4225C32.1774 12.8468 32.1483 13.9451 32.6017 14.3211C33.1277 14.7574 33.6261 14.2925 33.7804 13.2217C34.1488 10.6612 36.1945 8.59298 38.3732 8.57833L39.0637 8.57365V15.7023ZM36.5142 19.4019C35.633 20.2826 36.2648 21.9497 37.4798 21.9497C38.1338 21.9497 39.0637 21.0771 39.0637 20.4635C39.0637 19.2955 37.3392 18.5775 36.5142 19.4019ZM24.8242 20.5122C24.8242 21.9497 23.5109 23.9268 21.0051 23.9268C17.1809 23.9268 16.4213 20.2512 17.1809 20.4635H21.0051C23.9255 20.4635 24.8242 20.5122 24.8242 20.5122Z" stroke="url(#paint0_linear_3816_28965)" stroke-width="1.5" stroke-linecap="round" stroke-linejoin="round" style="mix-blend-mode:multiply"/>
<defs>
<linearGradient id="paint0_linear_3816_28965" x1="7.06961" y1="-2.37656" x2="30.0149" y2="-12.7238" gradientUnits="userSpaceOnUse">
<stop offset="0.236349" stop-color="#3888CC"/>
<stop offset="0.601841" stop-color="#1DB0BC"/>
<stop offset="1" stop-color="#08D3AF"/>
</linearGradient>
</defs>
</svg>
