<svg width="48" height="42" viewBox="0 0 48 42" fill="none" xmlns="http://www.w3.org/2000/svg">
<path d="M23.8148 1.49877L24.0685 0.792969L24.0684 0.79296L23.8148 1.49877ZM27.1607 14.1022L26.5385 13.6835L26.5385 13.6835L27.1607 14.1022ZM24.8242 17.9688L25.0473 18.6848C25.2475 18.6224 25.4124 18.4791 25.5021 18.2896L24.8242 17.9688ZM16.9549 17.9688L16.2325 18.1702C16.3229 18.4945 16.6183 18.7188 16.9549 18.7188V17.9688ZM15.3215 14.9649L15.9424 14.5442L15.9424 14.5442L15.3215 14.9649ZM12.8273 8.9932L12.0773 8.99365V8.99373L12.8273 8.9932ZM39.0637 15.7023H38.3137C38.3137 15.9036 38.3947 16.0966 38.5384 16.2376L39.0637 15.7023ZM40.1376 16.756L39.6124 17.2913L39.6124 17.2914L40.1376 16.756ZM41.7825 18.7074L42.4154 18.305L42.4154 18.305L41.7825 18.7074ZM44.6937 20.1612L44.777 19.4158L44.7769 19.4158L44.6937 20.1612ZM44.4424 28.3097L44.3371 27.5672L44.3371 27.5672L44.4424 28.3097ZM41.6308 29.8102L42.26 30.2182L42.26 30.2182L41.6308 29.8102ZM37.4507 33.5245L37.0723 32.877L37.0723 32.877L37.4507 33.5245ZM35.8116 37.1987L35.0653 37.2724L35.8116 37.1987ZM33.934 40.5641L34.1327 41.2873L34.1327 41.2873L33.934 40.5641ZM30.1925 39.355L30.8186 38.9422L30.8186 38.9422L30.1925 39.355ZM26.2102 37.9641L26.0607 37.2291L26.0607 37.2291L26.2102 37.9641ZM16.3439 37.7709L16.1526 38.4961L16.1527 38.4961L16.3439 37.7709ZM13.1513 39.4556L12.5298 39.0359L12.5297 39.0359L13.1513 39.4556ZM9.67431 40.6193L9.85831 39.8923L9.85827 39.8922L9.67431 40.6193ZM7.59375 37.3078L6.84781 37.2298L6.84781 37.2298L7.59375 37.3078ZM6.82381 32.244L6.26377 32.7428L6.26381 32.7429L6.82381 32.244ZM3.11055 24.3895L2.36718 24.489L2.36718 24.489L3.11055 24.3895ZM3.51931 18.7628L2.78166 18.6273L2.78163 18.6274L3.51931 18.7628ZM2.85879 17.2766L2.27184 17.7435L2.27191 17.7436L2.85879 17.2766ZM1.95076 11.6251L2.61503 11.9733L2.61503 11.9733L1.95076 11.6251ZM2.2516 11.0512L2.96331 10.8146C2.86842 10.5291 2.61211 10.328 2.31225 10.3037C2.01239 10.2793 1.727 10.4365 1.58733 10.703L2.2516 11.0512ZM2.61765 12.1525L3.32938 11.916L3.32937 11.9159L2.61765 12.1525ZM6.94279 13.0697L6.40811 12.5438L6.40804 12.5438L6.94279 13.0697ZM9.88209 10.5291L10.3011 11.1512L10.3011 11.1511L9.88209 10.5291ZM11.1876 9.64968L11.9352 9.70936C11.9582 9.42228 11.8147 9.14744 11.566 9.00214C11.3174 8.85684 11.0075 8.86675 10.7686 9.02765L11.1876 9.64968ZM13.2391 15.1463L13.8754 14.7494C13.8689 14.7388 13.8621 14.7285 13.855 14.7183L13.2391 15.1463ZM29.0784 14.7309L28.4442 14.3305L29.0784 14.7309ZM32.1056 9.62315L31.7041 10.2566L31.7042 10.2567L32.1056 9.62315ZM33.0914 10.2478L33.7989 10.4967C33.9148 10.1671 33.7879 9.80123 33.4928 9.61426L33.0914 10.2478ZM32.6782 11.4225L31.9707 11.1737L31.9706 11.1738L32.6782 11.4225ZM32.6017 14.3211L33.0805 13.7439L33.0805 13.7438L32.6017 14.3211ZM33.7804 13.2217L34.5227 13.3287L34.5227 13.3285L33.7804 13.2217ZM38.3732 8.57833L38.3782 9.32831H38.3783L38.3732 8.57833ZM39.0637 8.57365H39.8137C39.8137 8.37386 39.734 8.18233 39.5922 8.04153C39.4505 7.90074 39.2584 7.82232 39.0586 7.82367L39.0637 8.57365ZM36.5142 19.4019L35.9841 18.8714L36.5142 19.4019ZM24.8242 20.5122H25.5742C25.5742 20.1138 25.2626 19.7849 24.8648 19.7633L24.8242 20.5122ZM17.1809 20.4635L16.979 21.1858C17.0448 21.2042 17.1127 21.2135 17.1809 21.2135V20.4635ZM23.0456 3.63689C22.6371 3.5684 22.2504 3.84404 22.1819 4.25255C22.1134 4.66106 22.389 5.04775 22.7975 5.11624L23.0456 3.63689ZM25.6101 7.88142C25.6809 8.28953 26.0692 8.56293 26.4773 8.49207C26.8854 8.42122 27.1588 8.03295 27.088 7.62484L25.6101 7.88142ZM14.5 20.5L13.7571 20.6033L14.5 20.5ZM27.1607 20.5L26.4177 20.3979L27.1607 20.5ZM23.5611 2.20457C26.3457 3.20533 28.3284 6.02344 28.3284 8.97961H29.8284C29.8284 5.38999 27.448 2.00754 24.0685 0.792969L23.5611 2.20457ZM28.3284 8.97961C28.3284 9.87049 28.251 10.4627 28.013 11.0985C27.7656 11.7595 27.3304 12.5067 26.5385 13.6835L27.783 14.5209C28.5801 13.3364 29.1036 12.4637 29.4178 11.6244C29.7414 10.7599 29.8284 9.97157 29.8284 8.97961H28.3284ZM26.5385 13.6835C25.1627 15.7282 24.8166 16.2317 24.1463 17.6479L25.5021 18.2896C26.1182 16.9878 26.4045 16.5697 27.783 14.5209L26.5385 13.6835ZM24.601 17.2527C24.5766 17.2603 24.6123 17.2722 24.0806 17.2582C23.5834 17.245 22.6897 17.2188 20.9437 17.2188V18.7188C22.6711 18.7188 23.5501 18.7447 24.041 18.7576C24.4975 18.7697 24.7367 18.7816 25.0473 18.6848L24.601 17.2527ZM20.9437 17.2188H18.1304V18.7188H20.9437V17.2188ZM18.1304 17.2188H16.9549V18.7188H18.1304V17.2188ZM17.6773 17.7673C17.5747 17.3994 17.3138 16.8562 17.018 16.3121C16.7108 15.7473 16.3285 15.114 15.9424 14.5442L14.7006 15.3856C15.0581 15.9132 15.4152 16.5046 15.7002 17.0287C15.9964 17.5735 16.1804 17.9835 16.2325 18.1702L17.6773 17.7673ZM15.9424 14.5442C14.795 12.8508 14.22 11.9459 13.9153 11.2165C13.6331 10.5408 13.5781 10.0041 13.5773 8.99266L12.0773 8.99373C12.0781 10.0717 12.1345 10.8448 12.5312 11.7946C12.9054 12.6906 13.5767 13.7268 14.7007 15.3856L15.9424 14.5442ZM13.5773 8.99274C13.5743 3.97918 18.6866 0.452896 23.5612 2.20458L24.0684 0.79296C18.2642 -1.2928 12.0736 2.89063 12.0773 8.99365L13.5773 8.99274ZM38.5384 16.2376L39.6124 17.2913L40.6629 16.2206L39.5889 15.1669L38.5384 16.2376ZM39.6124 17.2914C40.1775 17.8458 40.876 18.6795 41.1496 19.1098L42.4154 18.305C42.0609 17.7476 41.279 16.825 40.6629 16.2206L39.6124 17.2914ZM41.1495 19.1098C41.5044 19.6681 41.8728 20.1137 42.4722 20.413C43.027 20.69 43.7159 20.8067 44.6105 20.9065L44.7769 19.4158C43.8735 19.315 43.4315 19.2154 43.1424 19.071C42.898 18.949 42.7097 18.768 42.4154 18.305L41.1495 19.1098ZM44.6104 20.9065C45.1246 20.964 45.3723 20.9876 45.5428 21.0399C45.6082 21.0599 45.6182 21.0726 45.6091 21.0652C45.5956 21.0541 45.5983 21.0481 45.6117 21.0781C45.656 21.1765 45.7066 21.4047 45.7303 21.9508C45.753 22.4749 45.7496 23.1826 45.7496 24.1791H47.2496C47.2496 23.2055 47.2534 22.4519 47.2289 21.8858C47.2053 21.3417 47.1541 20.8507 46.9799 20.4632C46.8842 20.2502 46.7485 20.0596 46.5598 19.9049C46.3755 19.7539 46.1734 19.6642 45.9821 19.6056C45.6392 19.5006 45.195 19.4625 44.777 19.4158L44.6104 20.9065ZM45.7496 24.1791C45.7496 25.1917 45.7545 25.9044 45.73 26.4326C45.7044 26.9822 45.6487 27.2018 45.6025 27.2945C45.5963 27.307 45.6062 27.3327 45.4484 27.3807C45.2277 27.448 44.9173 27.4849 44.3371 27.5672L44.5476 29.0523C45.0379 28.9828 45.5199 28.927 45.8856 28.8156C46.3142 28.685 46.7047 28.4461 46.9451 27.9633C47.1456 27.5607 47.2027 27.0542 47.2284 26.5022C47.255 25.9287 47.2496 25.1642 47.2496 24.1791H45.7496ZM44.3371 27.5672C43.8448 27.6369 43.4431 27.6945 43.1197 27.7604C42.7944 27.8266 42.4966 27.9107 42.2253 28.0555C41.665 28.3545 41.36 28.8491 41.0015 29.4022L42.26 30.2182C42.6778 29.574 42.7796 29.46 42.9316 29.3789C43.0164 29.3336 43.1512 29.2848 43.419 29.2302C43.6888 29.1753 44.041 29.1241 44.5476 29.0523L44.3371 27.5672ZM41.0015 29.4021C40.2526 30.5571 38.7913 31.8724 37.0723 32.877L37.8291 34.172C39.6824 33.0891 41.3467 31.6268 42.26 30.2182L41.0015 29.4021ZM37.0723 32.877C36.6061 33.1494 36.2014 33.3802 35.8985 33.5992C35.5803 33.8292 35.2949 34.1 35.1195 34.4931C34.9509 34.8711 34.9233 35.2769 34.9347 35.6924C34.9461 36.1058 35.0018 36.63 35.0653 37.2724L36.558 37.1249C36.4912 36.4487 36.4436 35.9964 36.4341 35.6512C36.4247 35.308 36.4587 35.1731 36.4894 35.1042C36.5134 35.0504 36.5651 34.9682 36.7772 34.8148C37.0046 34.6505 37.3234 34.4676 37.8292 34.172L37.0723 32.877ZM35.0653 37.2724C35.1359 37.9866 35.1842 38.4711 35.19 38.8323C35.1959 39.2016 35.1511 39.312 35.1349 39.3411C35.131 39.348 35.1245 39.359 35.0982 39.3791C35.0663 39.4036 35.006 39.4405 34.8922 39.488C34.6482 39.5899 34.2997 39.6858 33.7353 39.8409L34.1327 41.2873C34.6527 41.1444 35.1157 41.0202 35.4703 40.8721C35.8432 40.7164 36.2118 40.4894 36.4448 40.0719C36.6614 39.6837 36.6966 39.2392 36.6898 38.8084C36.6828 38.3696 36.6256 37.8089 36.558 37.1249L35.0653 37.2724ZM33.7353 39.8409C33.0809 40.0207 32.6461 40.1426 32.3129 40.2062C31.9801 40.2698 31.8632 40.2497 31.8168 40.2347C31.7858 40.2247 31.7089 40.194 31.538 39.9848C31.3574 39.7638 31.1503 39.4453 30.8186 38.9422L29.5663 39.7678C29.8729 40.2329 30.134 40.6372 30.3764 40.9339C30.6285 41.2424 30.9293 41.5243 31.3555 41.662C31.7663 41.7947 32.1861 41.7576 32.5943 41.6796C33.0021 41.6017 33.5127 41.4577 34.1327 41.2873L33.7353 39.8409ZM30.8186 38.9422C30.5097 38.4735 30.2425 38.0676 29.9842 37.7621C29.7137 37.4423 29.4034 37.1705 28.9798 37.0225C28.5714 36.8798 28.1436 36.8833 27.702 36.9341C27.2627 36.9847 26.7208 37.0949 26.0607 37.2291L26.3597 38.699C27.0441 38.5598 27.5131 38.4658 27.8736 38.4243C28.2319 38.383 28.3931 38.4064 28.4851 38.4386C28.5619 38.4654 28.6634 38.5232 28.8388 38.7306C29.0263 38.9524 29.2389 39.2712 29.5663 39.7678L30.8186 38.9422ZM26.0607 37.2291C22.8488 37.8826 19.445 37.8127 16.535 37.0456L16.1527 38.4961C19.3027 39.3265 22.9405 39.3946 26.3597 38.699L26.0607 37.2291ZM16.5351 37.0457C15.7637 36.8423 15.0247 36.7081 14.2998 37.0906C13.9598 37.27 13.673 37.5367 13.4032 37.8504C13.1339 38.1636 12.8506 38.5607 12.5298 39.0359L13.7729 39.8753C14.0891 39.4071 14.3316 39.0713 14.5404 38.8285C14.7489 38.5861 14.8928 38.4737 14.9999 38.4172C15.1691 38.3279 15.3893 38.2948 16.1526 38.4961L16.5351 37.0457ZM12.5297 39.0359C12.2127 39.5055 12.0184 39.7992 11.8497 40.0041C11.6904 40.1975 11.6253 40.2199 11.6077 40.2258C11.5764 40.2363 11.4798 40.2577 11.175 40.2046C10.8687 40.1513 10.4692 40.0468 9.85831 39.8923L9.49031 41.3464C10.0641 41.4916 10.5396 41.6165 10.9177 41.6823C11.2971 41.7484 11.6938 41.7788 12.0838 41.6482C12.4875 41.5131 12.7714 41.2446 13.0077 40.9575C13.2347 40.6819 13.4826 40.3053 13.7729 39.8753L12.5297 39.0359ZM9.85827 39.8922C9.23273 39.734 8.83508 39.6356 8.55272 39.5306C8.41883 39.4809 8.34341 39.4409 8.30062 39.4119C8.26377 39.387 8.25723 39.3745 8.25657 39.3734C8.24955 39.3623 8.20146 39.277 8.2077 38.9198C8.21383 38.5687 8.26543 38.0964 8.33968 37.3857L6.84781 37.2298C6.77749 37.9027 6.7155 38.4598 6.70793 38.8937C6.70046 39.3215 6.73853 39.7768 6.98643 40.1714C7.24458 40.5823 7.64305 40.7928 8.03018 40.9367C8.40913 41.0775 8.91042 41.1997 9.49035 41.3464L9.85827 39.8922ZM8.33968 37.3858C8.43655 36.4589 8.51104 35.741 8.54839 35.1752C8.58549 34.6131 8.58998 34.1522 8.5289 33.7506C8.39409 32.8638 7.9462 32.3764 7.38382 31.7451L6.26381 32.7429C6.85484 33.4063 6.98674 33.5866 7.04595 33.976C7.08189 34.2124 7.08694 34.5418 7.05165 35.0764C7.01661 35.6072 6.94577 36.2925 6.84781 37.2298L8.33968 37.3858ZM7.38386 31.7451C5.41428 29.534 4.21471 26.9845 3.85391 24.2899L2.36718 24.489C2.77079 27.5033 4.1109 30.3259 6.26377 32.7428L7.38386 31.7451ZM3.85392 24.29C3.74047 23.4423 3.70019 22.9048 3.75177 22.1948C3.80514 21.4599 3.95757 20.5296 4.25699 18.8982L2.78163 18.6274C2.48469 20.2454 2.316 21.2561 2.25571 22.0861C2.19362 22.9409 2.24714 23.5921 2.36718 24.489L3.85392 24.29ZM4.25695 18.8984C4.39456 18.1497 3.98811 17.4913 3.44567 16.8096L2.27191 17.7436C2.53262 18.0712 2.66881 18.2878 2.73561 18.4381C2.79465 18.5709 2.78376 18.6158 2.78166 18.6273L4.25695 18.8984ZM3.44574 16.8097C2.19476 15.2371 1.94078 13.2595 2.61503 11.9733L1.2865 11.2769C0.26834 13.2192 0.751994 15.8328 2.27184 17.7435L3.44574 16.8097ZM2.61503 11.9733L2.91587 11.3994L1.58733 10.703L1.28649 11.2769L2.61503 11.9733ZM1.53988 11.2878L1.90594 12.3891L3.32937 11.9159L2.96331 10.8146L1.53988 11.2878ZM1.90593 12.389C2.152 13.1295 2.59258 13.8586 3.06804 14.4093C3.30671 14.6858 3.57108 14.9371 3.84561 15.1255C4.10356 15.3025 4.45264 15.4809 4.84332 15.4809V13.9809C4.89609 13.9809 4.85091 13.9962 4.69432 13.8887C4.55431 13.7926 4.38385 13.6381 4.20348 13.4292C3.84086 13.0091 3.50652 12.449 3.32938 11.916L1.90593 12.389ZM4.84332 15.4809C5.12126 15.4809 5.36669 15.3603 5.51643 15.2764C5.69304 15.1775 5.88189 15.0439 6.07592 14.8904C6.46606 14.5817 6.94031 14.1419 7.47754 13.5956L6.40804 12.5438C5.89129 13.0693 5.46611 13.4601 5.14517 13.7141C4.98366 13.8419 4.86405 13.9226 4.78352 13.9677C4.6761 14.0278 4.71569 13.9809 4.84332 13.9809V15.4809ZM7.47747 13.5957C8.35606 12.7025 9.63942 11.5968 10.3011 11.1512L9.46311 9.90705C8.68857 10.4287 7.32687 11.6097 6.40811 12.5438L7.47747 13.5957ZM10.3011 11.1511L11.6066 10.2717L10.7686 9.02765L9.46308 9.90707L10.3011 11.1511ZM29.7125 15.1313C31.1391 12.8717 31.528 11.1883 31.528 9.06538H30.028C30.028 10.9141 29.7146 12.3183 28.4442 14.3305L29.7125 15.1313ZM31.528 9.06538C31.528 9.18919 31.4869 9.40679 31.2915 9.57716C31.1168 9.72948 30.9316 9.74275 30.8681 9.74339C30.7575 9.7445 30.7172 9.71115 30.8184 9.75364C30.9772 9.82035 31.264 9.97771 31.7041 10.2566L32.5071 8.98964C32.0594 8.70594 31.6824 8.48962 31.3993 8.37071C31.2795 8.32039 31.0739 8.24124 30.853 8.24346C30.7344 8.24466 30.508 8.27021 30.3058 8.44651C30.0828 8.64088 30.028 8.89418 30.028 9.06538H31.528ZM31.7042 10.2567L32.69 10.8813L33.4928 9.61426L32.507 8.98962L31.7042 10.2567ZM32.3839 9.99892L31.9707 11.1737L33.3857 11.6714L33.7989 10.4967L32.3839 9.99892ZM31.9706 11.1738C31.7047 11.9301 31.5483 12.6414 31.5324 13.2451C31.5176 13.8034 31.6195 14.4809 32.1229 14.8984L33.0805 13.7438C33.1305 13.7853 33.0202 13.7257 33.0319 13.2847C33.0423 12.8892 33.1509 12.3392 33.3857 11.6713L31.9706 11.1738ZM32.1229 14.8984C32.3467 15.0841 32.6377 15.2311 32.9798 15.234C33.3309 15.2369 33.6254 15.0871 33.842 14.885C34.2393 14.5144 34.4372 13.9224 34.5227 13.3287L33.038 13.1148C33.0061 13.3363 32.9594 13.5043 32.9109 13.6226C32.887 13.6811 32.8646 13.7228 32.8466 13.7509C32.8285 13.7792 32.8179 13.7891 32.8189 13.7881C32.8258 13.7816 32.8875 13.7331 32.9924 13.734C33.0882 13.7348 33.1197 13.7763 33.0805 13.7439L32.1229 14.8984ZM34.5227 13.3285C34.8527 11.0352 36.6634 9.33984 38.3782 9.32831L38.3682 7.82834C35.7256 7.84611 33.4449 10.2872 33.038 13.1149L34.5227 13.3285ZM38.3783 9.32831L39.0688 9.32364L39.0586 7.82367L38.3681 7.82834L38.3783 9.32831ZM35.9841 18.8714C35.2942 19.5608 35.2272 20.5268 35.5096 21.2719C35.7919 22.0167 36.4888 22.6997 37.4798 22.6997V21.1997C37.2558 21.1997 37.0293 21.0492 36.9123 20.7403C36.7953 20.4316 36.853 20.1237 37.0444 19.9324L35.9841 18.8714ZM37.4798 22.6997C38.0872 22.6997 38.6602 22.3308 39.0302 21.9836C39.2315 21.7947 39.4173 21.5719 39.5571 21.3306C39.6922 21.0974 39.8137 20.796 39.8137 20.4635H38.3137C38.3137 20.4378 38.3189 20.4756 38.2592 20.5786C38.2043 20.6734 38.1166 20.7839 38.0038 20.8898C37.8913 20.9954 37.7708 21.0804 37.6623 21.1357C37.609 21.163 37.5644 21.18 37.5303 21.1897C37.4956 21.1996 37.4794 21.1997 37.4798 21.1997V22.6997ZM39.8137 20.4635C39.8137 19.4806 39.0995 18.79 38.3866 18.4932C37.6739 18.1964 36.6801 18.1759 35.9841 18.8714L37.0444 19.9324C37.1734 19.8035 37.4542 19.7298 37.81 19.8779C38.1656 20.026 38.3137 20.2785 38.3137 20.4635H39.8137ZM24.0742 20.5122C24.0742 21.5708 23.0622 23.1768 21.0051 23.1768V24.6768C23.9595 24.6768 25.5742 22.3287 25.5742 20.5122H24.0742ZM17.1809 21.2135H21.0051V19.7135H17.1809V21.2135ZM21.0051 21.2135C22.4613 21.2135 23.4108 21.2256 23.9943 21.2377C24.286 21.2437 24.486 21.2497 24.6118 21.2541C24.6747 21.2563 24.719 21.2582 24.7469 21.2594C24.7609 21.26 24.7707 21.2605 24.7767 21.2608C24.7798 21.2609 24.7818 21.261 24.7829 21.2611C24.7835 21.2611 24.7838 21.2611 24.784 21.2611C24.784 21.2611 24.784 21.2611 24.7839 21.2611C24.7839 21.2611 24.7839 21.2611 24.7838 21.2611C24.7838 21.2611 24.7837 21.2611 24.7837 21.2611C24.7837 21.2611 24.7836 21.2611 24.8242 20.5122C24.8648 19.7633 24.8647 19.7633 24.8646 19.7633C24.8646 19.7633 24.8645 19.7633 24.8645 19.7633C24.8643 19.7633 24.8642 19.7633 24.8641 19.7633C24.8638 19.7632 24.8635 19.7632 24.8631 19.7632C24.8623 19.7632 24.8613 19.7631 24.8601 19.763C24.8576 19.7629 24.8543 19.7628 24.85 19.7625C24.8414 19.7621 24.8291 19.7615 24.8128 19.7608C24.7802 19.7594 24.7315 19.7574 24.6645 19.755C24.5305 19.7503 24.3233 19.7442 24.0253 19.738C23.4294 19.7257 22.4693 19.7135 21.0051 19.7135V21.2135ZM22.7975 5.11624C23.502 5.23435 24.1504 5.56509 24.6538 6.061L25.7065 4.99244C24.982 4.27867 24.052 3.80563 23.0456 3.63689L22.7975 5.11624ZM24.6538 6.061C25.1571 6.55678 25.4906 7.19308 25.6101 7.88142L27.088 7.62484C26.9145 6.62594 26.4312 5.70634 25.7065 4.99244L24.6538 6.061ZM38.3137 8.57365V15.7023H39.8137V8.57365H38.3137ZM21.0051 23.1768C19.3699 23.1768 18.4523 22.4066 18.0052 21.7103C17.7709 21.3454 17.6808 21.0237 17.668 20.8577C17.6602 20.7559 17.687 20.8054 17.6263 20.915C17.5881 20.9839 17.505 21.0905 17.3548 21.1556C17.2016 21.222 17.062 21.209 16.979 21.1858L17.3828 19.7412C17.205 19.6915 16.9823 19.6823 16.7586 19.7792C16.5379 19.8748 16.397 20.0386 16.3144 20.1877C16.1647 20.4577 16.1561 20.7596 16.1724 20.9724C16.208 21.4359 16.4043 21.9933 16.743 22.5208C17.4419 23.6093 18.8162 24.6768 21.0051 24.6768V23.1768ZM20.9437 25.6584C19.4881 25.6584 18.3182 25.6377 17.3786 25.0378C16.4894 24.4699 15.6401 23.2537 15.2429 20.3967L13.7571 20.6033C14.1814 23.6547 15.1474 25.3927 16.5713 26.302C17.9449 27.1791 19.586 27.1584 20.9437 27.1584V25.6584ZM15.2429 20.3967C14.9867 18.5544 14.8556 17.4724 14.6928 16.7182C14.5161 15.9002 14.2925 15.4178 13.8754 14.7494L12.6028 15.5433C12.9467 16.0945 13.0931 16.4168 13.2266 17.0348C13.3738 17.7165 13.4927 18.7016 13.7571 20.6033L15.2429 20.3967ZM20.9437 27.1584C21.8182 27.1584 22.6552 27.1598 23.4013 27.0594C24.1605 26.9572 24.8848 26.7436 25.5246 26.2749C26.8023 25.339 27.4954 23.5741 27.9038 20.6021L26.4177 20.3979C26.0143 23.3343 25.377 24.5236 24.6382 25.0648C24.2698 25.3347 23.8143 25.4903 23.2013 25.5728C22.5751 25.6571 21.8474 25.6584 20.9437 25.6584V27.1584ZM27.9038 20.6021C28.3285 17.5108 29.4915 15.4814 29.7125 15.1313L28.4442 14.3305C28.1406 14.8113 26.8787 17.0424 26.4177 20.3979L27.9038 20.6021ZM13.855 14.7183C12.7147 13.0776 11.7719 11.7561 11.9352 9.70936L10.44 9.59C10.2281 12.2439 11.5209 13.9883 12.6233 15.5744L13.855 14.7183Z" fill="#989FA0"/>
</svg>
