<svg width="52" height="52" viewBox="0 0 52 52" fill="none" xmlns="http://www.w3.org/2000/svg">
<path d="M37.5763 7.52922L29.0528 16.0527L30.2019 21.798L35.9471 22.947L44.4706 14.4235L44.4715 14.4232C45.5265 16.9135 45.7788 19.6709 45.1933 22.3114C44.6078 24.9518 43.2137 27.3441 41.2049 29.1551C39.1961 30.9662 36.6727 32.1059 33.9859 32.4156C31.299 32.7253 28.5825 32.1896 26.2144 30.8831L26.2146 30.8827L14.8221 44.072C13.9077 44.9854 12.668 45.4983 11.3756 45.4979C10.0831 45.4975 8.84371 44.984 7.92981 44.0701C7.01591 43.1562 6.50232 41.9167 6.50195 40.6243C6.50159 39.3318 7.01447 38.0921 7.92785 37.1777L21.117 25.7854L21.1167 25.7855C19.8102 23.4174 19.2746 20.7008 19.5843 18.014C19.894 15.3272 21.0337 12.8037 22.8447 10.795C24.6557 8.7862 27.048 7.39204 29.6885 6.80655C32.329 6.22107 35.0863 6.47338 37.5767 7.52839L37.5763 7.52922Z" stroke="url(#paint0_linear_763_10026)" stroke-width="1.5" stroke-linecap="round" stroke-linejoin="round"/>
<defs>
<linearGradient id="paint0_linear_763_10026" x1="-25.9905" y1="25.998" x2="54.9074" y2="-21.1784" gradientUnits="userSpaceOnUse">
<stop offset="0.156549" stop-color="#1F4A80"/>
<stop offset="0.357292" stop-color="#5CA0A9"/>
<stop offset="0.440625" stop-color="#6ED0C1"/>
<stop offset="0.727083" stop-color="#DDE7C2"/>
</linearGradient>
</defs>
</svg>
