<svg width="20" height="20" viewBox="0 0 20 20" fill="none" xmlns="http://www.w3.org/2000/svg">
<path d="M10 16.25C10 16.25 2.5 11.875 2.5 6.56251C2.50015 5.62355 2.81249 4.71363 3.38391 3.98744C3.95533 3.26126 4.75056 2.76363 5.63439 2.57918C6.51823 2.39472 7.43611 2.53482 8.23199 2.97566C9.02787 3.41649 9.65261 4.13085 10 4.99727L9.99999 4.99728C10.3474 4.13085 10.9721 3.41649 11.768 2.97566C12.5639 2.53483 13.4818 2.39473 14.3656 2.57918C15.2494 2.76363 16.0447 3.26125 16.6161 3.98744C17.1875 4.71362 17.4998 5.62355 17.5 6.56251C17.5 11.875 10 16.25 10 16.25Z" fill="#3572F2"/>
</svg>
