<svg width="24" height="24" viewBox="0 0 24 24" fill="none" xmlns="http://www.w3.org/2000/svg">
<path d="M15.4284 7.49951L7.49405 15.4393C7.20827 15.7206 7.04773 16.1021 7.04773 16.5C7.04773 16.8978 7.20827 17.2793 7.49405 17.5606C7.77983 17.8419 8.16743 18 8.57159 18C8.97574 18 9.36334 17.8419 9.64912 17.5606L19.1073 8.12083C19.3903 7.84226 19.6148 7.51154 19.768 7.14756C19.9212 6.78359 20 6.39348 20 5.99951C20 5.60555 19.9212 5.21544 19.768 4.85146C19.6148 4.48748 19.3903 4.15677 19.1073 3.87819C18.8243 3.59962 18.4884 3.37864 18.1186 3.22787C17.7488 3.07711 17.3525 2.99951 16.9523 2.99951C16.552 2.99951 16.1557 3.07711 15.786 3.22787C15.4162 3.37864 15.0802 3.59962 14.7972 3.87819L5.33899 13.318C4.48165 14.1619 4 15.3065 4 16.5C4 17.6934 4.48165 18.838 5.33899 19.682C6.19633 20.5259 7.35913 21 8.57159 21C9.78405 21 10.9469 20.5259 11.8042 19.682L19.619 11.9995" stroke="#363638" stroke-width="1.5" stroke-linecap="round" stroke-linejoin="round"/>
</svg>
