<svg width="42" height="42" viewBox="0 0 42 42" fill="none" xmlns="http://www.w3.org/2000/svg">
<circle cx="21" cy="21" r="21" fill="#72BDEC" fill-opacity="0.45"/>
<path d="M21.5 24C23.433 24 25 22.433 25 20.5C25 18.567 23.433 17 21.5 17C19.567 17 18 18.567 18 20.5C18 22.433 19.567 24 21.5 24Z" stroke="white" stroke-width="1.5" stroke-linecap="round" stroke-linejoin="round"/>
<path d="M26 19C27.1644 18.999 28.3131 19.2697 29.3546 19.7905C30.3962 20.3112 31.302 21.0678 32 22" stroke="white" stroke-width="1.5" stroke-linecap="round" stroke-linejoin="round"/>
<path d="M11 22C11.698 21.0678 12.6038 20.3112 13.6453 19.7905C14.6869 19.2697 15.8355 18.999 17 19" stroke="white" stroke-width="1.5" stroke-linecap="round" stroke-linejoin="round"/>
<path d="M16 29C16.5021 27.8006 17.284 26.7896 18.2565 26.0823C19.2291 25.3751 20.353 25 21.5 25C22.647 25 23.7709 25.375 24.7434 26.0823C25.716 26.7896 26.4979 27.8006 27 29" stroke="white" stroke-width="1.5" stroke-linecap="round" stroke-linejoin="round"/>
<path d="M17.0263 19C16.452 18.9999 15.8896 18.8379 15.4047 18.5328C14.9198 18.2277 14.5325 17.7923 14.288 17.2772C14.0435 16.7622 13.9519 16.1888 14.0239 15.6241C14.0958 15.0593 14.3284 14.5265 14.6945 14.0879C15.0605 13.6493 15.5449 13.323 16.0911 13.147C16.6373 12.971 17.2227 12.9526 17.779 13.0941C18.3353 13.2355 18.8396 13.5309 19.2328 13.9457C19.6261 14.3605 19.8922 14.8777 20 15.4368" stroke="white" stroke-width="1.5" stroke-linecap="round" stroke-linejoin="round"/>
<path d="M24 15.4371C24.1078 14.878 24.3738 14.3608 24.767 13.9459C25.1603 13.531 25.6645 13.2356 26.2208 13.0941C26.7772 12.9527 27.3626 12.971 27.9088 13.1469C28.455 13.3229 28.9395 13.6493 29.3055 14.0879C29.6716 14.5265 29.9042 15.0594 29.9761 15.6241C30.0481 16.1889 29.9565 16.7623 29.7119 17.2773C29.4674 17.7924 29.08 18.2279 28.5951 18.5329C28.1102 18.838 27.5477 19 26.9734 19" stroke="white" stroke-width="1.5" stroke-linecap="round" stroke-linejoin="round"/>
</svg>
