<svg width="42" height="42" viewBox="0 0 42 42" fill="none" xmlns="http://www.w3.org/2000/svg">
<circle cx="21" cy="21" r="21" fill="#72BDEC" fill-opacity="0.45"/>
<path d="M17 16H29" stroke="white" stroke-width="1.5" stroke-linecap="round" stroke-linejoin="round"/>
<path d="M17 21H28.9994" stroke="white" stroke-width="1.5" stroke-linecap="round" stroke-linejoin="round"/>
<path d="M17 27H28.9994" stroke="white" stroke-width="1.5" stroke-linecap="round" stroke-linejoin="round"/>
<path d="M13.5 17C14.3284 17 15 16.3284 15 15.5C15 14.6716 14.3284 14 13.5 14C12.6716 14 12 14.6716 12 15.5C12 16.3284 12.6716 17 13.5 17Z" fill="white"/>
<path d="M13.5 23C14.3284 23 15 22.3284 15 21.5C15 20.6716 14.3284 20 13.5 20C12.6716 20 12 20.6716 12 21.5C12 22.3284 12.6716 23 13.5 23Z" fill="white"/>
<path d="M13.5 29C14.3284 29 15 28.3284 15 27.5C15 26.6716 14.3284 26 13.5 26C12.6716 26 12 26.6716 12 27.5C12 28.3284 12.6716 29 13.5 29Z" fill="white"/>
</svg>
