<svg width="42" height="42" viewBox="0 0 42 42" fill="none" xmlns="http://www.w3.org/2000/svg">
<circle cx="21" cy="21" r="21" fill="#72BDEC" fill-opacity="0.45"/>
<path d="M24.1111 19H16.8889C15.2934 19 14 20.3929 14 22.1111V22.8889C14 24.6071 15.2934 26 16.8889 26H24.1111C25.7066 26 27 24.6071 27 22.8889V22.1111C27 20.3929 25.7066 19 24.1111 19Z" stroke="white" stroke-width="1.5" stroke-linecap="round" stroke-linejoin="round"/>
<path d="M11 15.2857C11 14.6795 11.231 14.0981 11.6421 13.6695C12.0532 13.2408 12.6109 13 13.1923 13C13.7737 13 14.3314 13.2408 14.7425 13.6695C15.1536 14.0981 15.3846 14.6795 15.3846 15.2857H25.6154C25.6154 14.6795 25.8464 14.0981 26.2575 13.6695C26.6686 13.2408 27.2263 13 27.8077 13C28.3891 13 28.9468 13.2408 29.3579 13.6695C29.769 14.0981 30 14.6795 30 15.2857V22.9048C30 24.5213 29.3841 26.0717 28.2877 27.2147C27.1913 28.3578 25.7043 29 24.1538 29H16.8462C15.2957 29 13.8087 28.3578 12.7123 27.2147C11.6159 26.0717 11 24.5213 11 22.9048V15.2857Z" stroke="white" stroke-width="1.5" stroke-linecap="round" stroke-linejoin="round"/>
<path d="M17.25 22C17.25 22.1381 17.1381 22.25 17 22.25C16.8619 22.25 16.75 22.1381 16.75 22C16.75 21.8619 16.8619 21.75 17 21.75C17.1381 21.75 17.25 21.8619 17.25 22Z" fill="white" stroke="white" stroke-width="1.5"/>
<path d="M24.25 22C24.25 22.1381 24.1381 22.25 24 22.25C23.8619 22.25 23.75 22.1381 23.75 22C23.75 21.8619 23.8619 21.75 24 21.75C24.1381 21.75 24.25 21.8619 24.25 22Z" fill="white" stroke="white" stroke-width="1.5"/>
</svg>
